<?xml version="1.0" encoding="utf-8"?>
<!-- Generator: Adobe Illustrator 22.0.0, SVG Export Plug-In . SVG Version: 6.00 Build 0)  -->
<!DOCTYPE svg PUBLIC "-//W3C//DTD SVG 1.1//EN" "http://www.w3.org/Graphics/SVG/1.1/DTD/svg11.dtd">
<svg version="1.1" id="Layer_1" xmlns="http://www.w3.org/2000/svg" xmlns:xlink="http://www.w3.org/1999/xlink" x="0px" y="0px"
	 viewBox="0 0 534 359.8" style="enable-background:new 0 0 534 359.8;" xml:space="preserve">
<style type="text/css">
	.st0{fill:#DBDCDE;}
	.st1{fill:#626265;}
	.st2{fill:#23356D;}
	.st3{fill:#FFFFFF;}
	.st4{fill:#00ADEE;}
	.st5{fill:#3789C8;}
	.st6{fill:#EBEBEC;}
	.st7{fill-rule:evenodd;clip-rule:evenodd;fill:#00ADEE;}
	.st8{fill:none;}
</style>
<title>zone-simple</title>
<g>
	<g>
		<path class="st0" d="M267,34C387.5,34,490.5,82,532,149.8C497.4,63.1,391.9,0,267,0C142.2,0,36.7,63.1,2.1,149.8
			C43.6,82,146.6,34,267,34z"/>
	</g>
	<g>
		<path class="st1" d="M31.8,212.3c0,18.8,0,33.6,0,56.9c157.6,34.7,312.7,34.7,470.3,0c0-23.3,0-38.1,0-56.9
			C344.6,245.6,189.4,245.6,31.8,212.3z"/>
		<path class="st2" d="M244.3,124.6c0-17.6,0-26.4,0-44c-9.9,1.4-14.8,2.2-24.6,4c0-13.8,0-20.6,0-34.4c31.3-5.6,63-9.3,94.8-10.9
			c0,13.8,0,20.6,0,34.4c-10.1,0.5-15.2,0.9-25.3,1.7c0,17.6,0,26.4,0,44C271.2,121,262.2,122,244.3,124.6z"/>
		<path class="st2" d="M272.6,116.7c0-8.7,0-13,0-21.7c-4.2,0-6.3,0-10.4,0c0,8.7,0,13,0,21.7c-18.2,0.1-27.3,0.5-45.5,1.7
			c0-26.1,0-52.2,0-78.3c18.2-1.2,27.3-1.6,45.5-1.7c0,8.5,0,12.8,0,21.4c2.1,0,3.1,0,5.2,0c0.3,0,0.4,0.1,0.7,0.1
			c1.6,0.2,3.1,0.6,4.5,1c0-9,0-13.5,0-22.4c18,0.1,27,0.5,44.9,1.6c0,26.1,0,52.2,0,78.3C299.5,117.2,290.5,116.9,272.6,116.7z"/>
		<path class="st2" d="M219.7,117.7c0-26.2,0-52.4,0-78.6c31.8,1.6,63.5,5.3,94.8,10.9c0,13.8,0,20.6,0,34.4c-3.9-0.7-5.9-1-9.8-1.7
			c-2,3.6-3,5.4-4.9,9c5.9,0.9,8.9,1.4,14.8,2.5c0,13.8,0,20.6,0,34.4C283.1,123,251.4,119.4,219.7,117.7z"/>
		<path d="M409,60.5c0-7.1,0-10.6,0-17.7c-7.1-1.4-10.6-2-17.7-3.2c-25.7-3.8-51.1-6.7-77-8.8c-7.2-0.5-10.7-0.6-17.9-0.9
			c0,0.1,0,0.2,0,0.3c-5-0.2-9.6-0.3-16.1-0.5c-4.2-0.1-6.3-0.1-10.4-0.1c-7.2,0-10.7,0-17.9,0.1c-6.6,0.1-11.2,0.2-16.3,0.5
			c0,0,0-0.1,0-0.1c-7.2,0.3-10.7,0.5-17.9,0.9c-1.5,0.1-2.9,0.3-4.4,0.4c-2.1,0.1-4.3,0.3-7,0.5c0,0,0,0.1,0,0.1
			c-22,2-43.7,4.6-65.7,7.8c-7.1,1.2-10.6,1.8-17.7,3.2c0,7.1,0,10.6,0,17.7c0,6.7,0,10,0,16.7c0,7.1,0,10.6,0,17.7
			c7.1-1.4,10.6-2,17.7-3.2c2.8-0.5,4.1-0.7,6.9-1.1c0,10.5,0,15.8,0,26.3c0,7.1,0,10.6,0,17.7c7.1-1.1,10.6-1.6,17.8-2.6
			c10.8-1.4,16.2-2.1,27-3.1c5.7-0.6,9.2-0.9,14-1.2l0,0c0.7-0.1,1.3-0.1,1.8-0.1c0.7-0.1,1.3-0.1,2-0.2c0,0,0,0,0,0
			c4.8-0.4,8.3-0.6,14-0.9c11-0.6,16.6-0.8,27.6-1c7.2-0.1,10.7-0.2,17.9-0.1c4.2,0,6.3,0,10.4,0.1c6.6,0.1,11.1,0.2,16.1,0.4
			c0,0,0,0,0,0c2.3,0.1,4.3,0.2,6.1,0.3c1.5,0.1,3.1,0.2,4.8,0.3c1.3,0.1,2.5,0.1,3.6,0.2c1.1,0.1,2.2,0.1,3.4,0.2
			c25.9,2.1,51.3,5,77,8.8c7.1,1.2,10.6,1.8,17.7,3.2c0-7.1,0-10.6,0-17.7c0-6.7,0-10,0-16.7c0-3.9,0-5.9,0-9.8c0-7.1,0-10.6,0-17.7
			C409,73.7,409,62.1,409,60.5z M192.5,111.4c-10.8,1.1-16.2,1.7-27,3.1c0-17.6,0-26.4,0-44c-9.9,1.3-14.8,2.1-24.7,3.7
			c0-6.7,0-10,0-16.7c21.9-3.3,43.7-5.8,65.7-7.8c0,6.1,0,11.5,0,16.5c-4.3,0.3-8.3,0.7-14,1.2C192.5,85,192.5,93.8,192.5,111.4z
			 M251.9,86.3c0,8.7,0,13,0,21.7c-11,0.2-16.6,0.4-27.6,1c0-10.4,0-18.5,0-26.3c3.6-0.2,6.7-0.3,11.4-0.5c0-7.1,0-10.6,0-17.7
			c0-6.7,0-10,0-16.6c5-0.2,9.7-0.3,16.3-0.5c0,8.5,0,12.8,0,21.4c5.4-0.1,8.1-0.1,13.5-0.1c3.2,0.5,5.9,1.3,8.2,2.5
			c2.3,1.2,4.5,2.9,6.7,5.2c0-11.6,0-17.4,0-29c6.6,0.1,11.1,0.2,16.1,0.4c0,24.2,0,36.4,0,60.6c-5-0.2-9.6-0.3-16.1-0.4
			c0-8.7,0-13,0-21.7C268.9,86.1,263.3,86.1,251.9,86.3z M391.3,74c-20-3.3-30-4.7-50.1-6.7c0,2,0,3,0,5c16.5,1.6,24.8,2.7,41.2,5.2
			c-3.5,6.5-5.3,9.7-8.9,16.2c-12.9-1.8-19.4-2.6-32.3-3.9c0,2,0,3,0,5c20.1,2,30.2,3.3,50.1,6.7c0,6.7,0,10,0,16.7
			c-22.1-3.3-44-5.9-66.1-7.9c0-0.1,0-0.1,0-0.2c0-24.2,0-36.4,0-60.6c0,0,0-0.1,0-0.1c22.2,2,44,4.6,66.1,7.9
			C391.3,64,391.3,67.3,391.3,74z"/>
		<path d="M533.9,359.8c0-24.5,0-47.6,0-80c-178.9-61.9-355-61.9-533.9,0c0,32.4,0,55.6,0,80C178.9,299,355.1,299,533.9,359.8z"/>
		<g>
			<path class="st3" d="M79.7,326.5c-3.5,0.9-5.3,1.3-8.8,2.3c-2.3,0.6-4.3,0-6.1-1.8c-1.7-1.8-2.6-4.2-2.6-7.3c0-15.6,0-23.4,0-39
				c0-3,0.9-5.9,2.6-8.7c1.7-2.7,3.8-4.4,6.1-5c3.5-0.9,5.2-1.4,8.7-2.2c2.3-0.6,4.3,0.1,6.1,1.9c1.8,1.8,2.6,4.3,2.6,7.3
				c0,1.9,0,2.8,0,4.7c-3.5,0.8-5.2,1.3-8.7,2.2c0-1.9,0-2.8,0-4.6c-3.5,0.9-5.3,1.3-8.7,2.2c0,5.5,0,8.3,0,13.8
				c3.5-0.9,5.3-1.4,8.9-2.3c2.1-0.5,3.9-0.1,5.5,1.3c0.2,0.1,0.2,0.2,0.4,0.3c1.9,1.7,2.8,4.2,2.8,7.5c0,5.6,0,8.3,0,13.9
				c0,3.1-0.9,5.9-2.7,8.6C84,324.3,81.9,325.9,79.7,326.5z M79.5,315.1c0-5.5,0-8.3,0-13.8c-3.5,0.9-5.2,1.3-8.7,2.2
				c0,5.5,0,8.3,0,13.8C74.3,316.4,76,316,79.5,315.1z"/>
			<path class="st3" d="M40.2,275.3c3.5-0.9,5.3-1.3,8.8-2.3c2.3-0.6,4.3,0,6.1,1.8c1.7,1.8,2.6,4.2,2.6,7.3c0,15.6,0,23.4,0,39
				c0,3-0.9,5.9-2.6,8.7c-1.7,2.7-3.8,4.4-6.1,5c-3.5,0.9-5.2,1.4-8.7,2.2c-2.3,0.6-4.3-0.1-6.1-1.9c-1.8-1.8-2.6-4.3-2.6-7.3
				c0-1.9,0-2.8,0-4.7c3.5-0.8,5.2-1.3,8.7-2.2c0,1.9,0,2.8,0,4.6c3.5-0.9,5.3-1.3,8.7-2.2c0-5.5,0-8.3,0-13.8
				c-3.5,0.9-5.3,1.4-8.9,2.3c-2.1,0.5-3.9,0.1-5.5-1.3c-0.2-0.1-0.2-0.2-0.4-0.3c-1.9-1.7-2.8-4.2-2.8-7.5c0-5.6,0-8.3,0-13.9
				c0-3.1,0.9-5.9,2.7-8.6C35.9,277.5,38,275.9,40.2,275.3z M40.4,286.7c0,5.5,0,8.3,0,13.8c3.5-0.9,5.2-1.3,8.7-2.2
				c0-5.5,0-8.3,0-13.8C45.6,285.3,43.9,285.8,40.4,286.7z"/>
			<path class="st3" d="M92.6,323.3c0-4.6,0-6.8,0-11.4c3.5-0.8,5.2-1.2,8.7-2c0,4.6,0,6.8,0,11.4C97.8,322.1,96.1,322.5,92.6,323.3
				z"/>
			<path class="st3" d="M132.6,260.7c-4.9,22.9-7.4,34.4-12.3,57.4c-3.7,0.8-5.5,1.2-9.2,2c4.7-21.2,7.1-31.7,11.8-52.9
				c-3.5,0.7-5.2,1.1-8.6,1.8c0,1.9,0,2.8,0,4.6c-3.5,0.8-5.2,1.1-8.7,1.9c0-6.4,0-9.6,0-16c9.8-2.2,14.6-3.2,24.5-5.2
				C131,256.9,131.6,258.2,132.6,260.7z"/>
			<path class="st4" d="M159.6,261.3c-5.6,1-8.4,1.5-14,2.5c0,5.5,0,8.3,0,13.8c4.8-0.9,7.2-1.3,12-2.1c0,4.6,0,6.9,0,11.4
				c-4.8,0.8-7.2,1.3-12,2.1c0,10.1,0,15.1,0,25.2c-3.5,0.6-5.3,1-8.8,1.7c0-24.7,0-37.1,0-61.8c9.1-1.8,13.7-2.6,22.8-4.1
				C159.6,254.5,159.6,256.8,159.6,261.3z"/>
			<path class="st4" d="M196.9,308c-3.6,0.5-5.3,0.7-8.9,1.2c0-13.9,0-20.9,0-34.8c-3.1,8.9-4.6,13.4-7.7,22.4c-3.1-8-4.6-12-7.7-20
				c0,13.9,0,20.9,0,34.8c-3.5,0.6-5.3,0.8-8.8,1.4c0-24.7,0-37.1,0-61.8c3.5-0.6,5.3-0.9,8.8-1.4c3.1,8,4.6,12,7.7,20
				c3.1-9,4.6-13.4,7.7-22.4c3.5-0.5,5.3-0.7,8.9-1.2C196.9,271,196.9,283.3,196.9,308z"/>
			<path class="st3" d="M337.1,306.7c-3.5-0.5-5.3-0.8-8.8-1.3c-0.1-19.1-0.2-28.6-0.3-47.7c-1-0.1-1.5-0.2-2.5-0.4
				c0-4.6,0-6.8-0.1-11.4c2.2-0.8,3.3-1.1,5.4-1.9c2.4,0.3,3.5,0.5,5.9,0.9C336.9,269.6,336.9,282,337.1,306.7z"/>
			<path class="st3" d="M359.2,310.2c-3.6-0.6-5.4-0.9-9-1.5c-2.3-0.4-4.4-1.8-6.2-4.4c-1.8-2.5-2.7-5.3-2.7-8.4
				c-0.1-15.6-0.2-23.4-0.3-39c0-3,0.8-5.6,2.6-7.5c1.7-2,3.8-2.8,6.2-2.4c3.5,0.6,5.3,0.9,8.9,1.5c2.3,0.4,4.4,1.9,6.2,4.5
				c1.8,2.6,2.7,5.4,2.7,8.4c0,1.9,0,2.8,0,4.7c-3.5-0.6-5.3-1-8.8-1.6c0-1.9,0-2.8,0-4.6c-3.5-0.6-5.3-0.9-8.9-1.5
				c0,5.5,0.1,8.3,0.1,13.8c3.6,0.6,5.4,0.9,9,1.5c2.1,0.4,3.9,1.6,5.6,3.7c0.2,0.2,0.2,0.3,0.4,0.5c1.9,2.5,2.9,5.4,2.9,8.7
				c0,5.6,0.1,8.3,0.1,13.9c0,3.1-0.9,5.6-2.6,7.5C363.5,309.9,361.5,310.6,359.2,310.2z M359,298.8c0-5.5-0.1-8.3-0.1-13.8
				c-3.5-0.6-5.3-0.9-8.8-1.5c0,5.5,0,8.3,0.1,13.8C353.6,297.9,355.4,298.2,359,298.8z"/>
			<path class="st3" d="M399,261c-4.8,20.9-7.2,31.4-11.9,52.4c-3.7-0.7-5.5-1.1-9.2-1.8c4.6-19.2,6.9-28.8,11.5-48
				c-3.5-0.7-5.2-1-8.7-1.7c0,1.9,0,2.8,0,4.6c-3.5-0.7-5.3-1-8.8-1.7c0-6.4-0.1-9.6-0.1-16c9.8,1.8,14.7,2.8,24.5,4.8
				C397.4,256.6,397.9,258.1,399,261z"/>
			<path class="st3" d="M421.6,319.9c-3.7-0.9-5.6-1.3-9.3-2.1c-2.4-0.5-4.4-2.1-6.2-4.7c-1.8-2.6-2.6-5.5-2.7-8.5
				c-0.1-15.6-0.2-23.4-0.3-39c0-3,0.8-5.5,2.6-7.4c1.7-1.9,3.8-2.6,6.2-2.1c3.7,0.8,5.5,1.3,9.2,2.1c2.3,0.5,4.4,2.2,6.2,4.9
				c1.8,2.7,2.7,5.6,2.7,8.6c0.1,15.6,0.2,23.4,0.3,39c0,3.1-0.8,5.5-2.6,7.4C426,319.8,423.9,320.4,421.6,319.9z M421.6,308.5
				c-0.1-15.6-0.2-23.4-0.3-39c-3.7-0.9-5.6-1.3-9.3-2.1c0.1,15.6,0.1,23.4,0.3,39C416,307.2,417.9,307.6,421.6,308.5z"/>
			<path class="st4" d="M434.3,271.7c0-3,0.8-5.5,2.6-7.3c1.7-1.8,3.8-2.5,6.1-1.9c3.7,0.9,5.6,1.4,9.3,2.4c2.3,0.6,4.3,2.3,6.1,5.1
				c1.8,2.8,2.7,5.7,2.7,8.7c0.1,20.1,0.2,30.2,0.3,50.4c-3.5-1-5.2-1.4-8.7-2.3c-0.1-7.8-0.1-11.7-0.1-19.5c-3.8-1-5.6-1.5-9.4-2.5
				c0.1,7.8,0.1,11.7,0.1,19.5c-3.5-0.9-5.2-1.3-8.7-2.2C434.5,301.9,434.4,291.8,434.3,271.7z M443.1,293.4c3.8,1,5.6,1.5,9.4,2.5
				c-0.1-7.8-0.1-11.7-0.1-19.5c-3.8-1-5.6-1.5-9.4-2.5C443,281.7,443,285.6,443.1,293.4z"/>
			<path class="st4" d="M497.9,340.8c-3.5-1.1-5.2-1.6-8.6-2.7c-0.1-13.9-0.1-20.9-0.2-34.8c-3,7.6-4.4,11.4-7.4,19
				c-3.1-9.4-4.6-14.1-7.7-23.4c0.1,13.9,0.1,20.9,0.2,34.8c-3.5-1-5.2-1.5-8.6-2.5c-0.2-24.7-0.3-37.1-0.4-61.8
				c3.5,1,5.2,1.5,8.6,2.5c3.1,9.4,4.6,14,7.7,23.4c3-7.6,4.4-11.4,7.4-19c3.5,1.1,5.2,1.6,8.6,2.7
				C497.6,303.7,497.7,316.1,497.9,340.8z"/>
		</g>
		<path class="st2" d="M388.3,219.4c0-34.6,0-69.3,0-103.9c38.6,5.8,76.8,14.5,114.1,26.1c0,16.5,0,24.8,0,41.3
			c-4.4-1.4-6.6-2.1-11.1-3.4c-3.8,7.4-5.6,11.1-9.4,18.5c8.2,2.3,12.3,3.5,20.5,6.1c0,16.5,0,24.8,0,41.3
			C465.1,233.9,426.9,225.2,388.3,219.4z"/>
		<g>
			<path d="M190.8,181.2c14.6-1.5,21.9-2,36.6-2.8c0-13.6,0-20.5,0-34.1c-14.6,0.8-22,1.3-36.6,2.8
				C190.8,160.7,190.8,167.5,190.8,181.2z"/>
			<path d="M484.9,130.2c-31.7-9.5-63.9-16.9-96.6-22.1c-7.1-1.1-10.6-1.7-17.8-2.7c0,0.1,0,0.2,0,0.3c-7.9-1.1-14-1.8-23.8-2.9
				c-7.1-0.8-10.7-1.1-17.8-1.7c0,6.1,0,9.2,0,15.3c-5.2-4.8-7.8-7.2-13-12c-2-1.8-3-2.8-5-4.6c-2.7-0.2-4-0.2-6.6-0.4
				c-12.7-0.6-19.1-0.8-31.8-0.9c-7.2-0.1-10.7,0-17.9,0.1c0,0.2,0,0.4,0,0.7c-2.2-0.4-4.4-0.6-6.6-0.5c-27.6,1.2-54.7,3.4-82.2,6.5
				c-0.7,0.1-1.5,0.3-2.2,0.5c0-0.1,0-0.1,0-0.2c-7.1,1-10.7,1.5-17.8,2.7c-32.6,5.3-64.9,12.7-96.6,22.1
				c-6.9,2.1-10.4,3.2-17.3,5.4c0,7.1,0,10.6,0,17.7c0,9.5,0,14.2,0,23.6c0,7.1,0,10.6,0,17.7c6.2-2,9.3-3,15.6-4.9
				c-1.6,1.8-2.4,2.7-3.9,4.4c-4.7,1.4-7,2.2-11.6,3.7c0,7.1,0,10.6,0,17.7c0,9.5,0,14.2,0,23.6c0,7.1,0,10.6,0,17.7
				c6.9-2.2,10.4-3.3,17.3-5.4c31.7-9.5,63.9-16.9,96.6-22.1c5.8-0.9,9.3-1.5,14.3-2.2c0,0,0,0,0,0c0.3,0,0.6-0.1,0.9-0.1
				c0.8-0.1,1.7-0.2,2.6-0.4c0,0,0,0,0,0c0.2,0,0.5-0.1,0.7-0.1c29.5-4,59.1-6.3,88.9-6.8c0.5,0,1-0.1,1.5-0.1c0,0,0,0.1,0,0.1
				c7.2-0.1,10.7-0.1,17.9-0.1c13.3,0.1,20,0.3,33.3,1c7.2,0.4,10.7,0.6,17.9,1.1c0-6.6,0-9.9,0-16.5c4.7,4.9,7.1,7.4,11.8,12.4
				c2.1,2.2,3.1,3.3,5.2,5.5c2.9,0.3,4.4,0.4,7.3,0.7c9.3,1,15.2,1.7,22.6,2.7c0,0,0,0,0,0c1.8,0.2,3.4,0.5,4.8,0.7
				c1.4,0.2,2.8,0.4,4.4,0.7c1.5,0.2,2.9,0.4,4.2,0.6c1.3,0.2,2.8,0.4,4.4,0.7c32.6,5.3,64.9,12.7,96.6,22.1
				c6.9,2.1,10.4,3.1,17.3,5.4c0-7.1,0-10.6,0-17.7c0-9.5,0-14.2,0-23.6c0-7.1,0-10.6,0-17.7c-6.3-2-9.4-3-15.7-4.9
				c0.6-1.2,0.9-1.8,1.6-3.1c5.7,1.7,8.5,2.6,14.1,4.4c0-7.1,0-10.6,0-17.7c0-9.5,0-14.2,0-23.6c0-7.1,0-10.6,0-17.7
				C495.3,133.3,491.8,132.2,484.9,130.2z M49.2,210.4c0.2-0.1,0.3-0.1,0.4-0.1c15.5-17.3,31.4-34.4,47.6-51.1
				c-19.3,4.4-28.9,7-48,12.7c0-9.5,0-14.2,0-23.6c29.7-8.8,59.8-15.9,90.4-21.1c-1.9,4-3,7.9-3,11.7c0,7.4,0,13.8,0,19.7
				c-13.6,13-27,26.1-40.1,39.4c16.3-3.8,25.9-5.7,40.1-8.1c0,4,0,8.3,0,13c0,3.7,0.8,7.2,2.5,10.2c-30.3,5.2-60.3,12.2-89.8,21
				C49.2,224.6,49.2,219.9,49.2,210.4z M164.2,209.2c-0.2-0.1-0.5-0.2-0.7-0.3c0-9.2,0-13.9,0-23.3c0-7.1,0-10.6,0-17.7
				c-3.7,0.5-6.4,0.9-9.2,1.3c0-1.7,0-3.4,0-5.1c0.7-0.7,1.5-1.4,2.4-2.2c2.7-2.5,4.1-3.8,6.8-6.3c0-3.4,0-5.2,0-8.6
				c0-9.3,0-14,0-23.1c0.8-0.4,1.5-0.7,2.2-0.8c27.5-3.2,54.6-5.3,82.2-6.5c1.8,0,3.7,0.2,5.6,0.8c0.4,0.1,0.7,0.3,1,0.4
				c0,28.2,0,56.3,0,84.5c-0.5,0.1-1,0.1-1.5,0.1C223.4,202.9,193.7,205.2,164.2,209.2z M305.8,162.3c0,16.3,0,24.5,0,40.9
				c-10.8-0.6-17.3-0.8-26.4-0.9c0.6-1.4,1-2.7,1.4-4.2c0.6-2.6,0.9-4.8,0.9-7c0-24.5,0-36.7,0-61.2c0-4.8-1.1-9.4-3.3-13.5
				c9.1,0.1,15.3,0.3,25.8,0.8c17,15.3,25.5,23.2,42.5,39.5c0-14.5,0-21.7,0-36.2c9.8,1,15.9,1.8,23.8,2.9c0,28.6,0,57.3,0,85.9
				c-7.4-1-13.3-1.7-22.6-2.7C331.2,188.4,322.7,179.5,305.8,162.3z M484.9,171.5c-24.9-7.4-37.5-10.6-62.7-15.9c0,2.8,0,4.2,0,7
				c20.8,4.3,31.1,6.8,51.6,12.6c-4.4,8.7-6.6,13.1-11.1,21.8c-16.1-4.3-24.2-6.2-40.5-9.6c0,2.8,0,4.2,0,7
				c25.3,5.3,37.9,8.4,62.7,15.9c0,9.5,0,14.2,0,23.6c-28.7-8.6-57.9-15.4-87.4-20.6c0,0,0,0,0,0c0-28.6,0-57.3,0-85.9
				c0-0.1,0-0.2,0-0.3c29.5,5.1,58.7,12,87.4,20.6C484.9,157.3,484.9,162,484.9,171.5z"/>
		</g>
		<g>
			<path class="st3" d="M46.7,175.1c17.2-5.2,25.9-7.6,43.3-11.7c-16.6,17.4-24.9,26.3-41.3,44.7c-0.8,0.2-1.2,0.4-2,0.6
				c0,11.5,0,17.2,0,28.7c33.7-9.5,67.1-17.2,101.6-23.3c0-11.5,0-17.2,0-28.7c-17.9,2.8-26.8,4.5-44.5,8.4
				c17.7-17.8,26.7-26.5,44.5-43.3c0-11,0-16.4,0-27.4c-34.5,6.1-67.9,13.8-101.6,23.3C46.7,157.8,46.7,163.6,46.7,175.1z"/>
			<path class="st3" d="M260.3,117.8c-1.7-1.3-3.7-2.3-5.9-2.9c-2.1-0.6-4.3-0.9-6.4-0.9c-27.7,1.2-54.7,3.4-82.2,6.5
				c-1.6,0.2-3.2,1-4.9,2.3c-1.5,1.1-2.8,2.4-4.1,3.8c-1.3,1.4-2.4,3-3.4,4.7c-1,1.9-1.6,3.6-1.6,5c0,25.6,0,38.4,0,64.1
				c0,1.9,0.6,3.6,1.7,5c0.9,1.2,2,2.2,3.2,3.1c1.2,0.8,2.4,1.5,3.7,2.1c1.2,0.5,2.1,0.9,2.8,1.1c0.2,0.1,0.3,0.1,0.5,0.2
				c29.6-4.1,59.5-6.4,89.5-6.9c2.6,0,4.9-0.7,6.7-1.8c1.7-1.1,3.1-2.4,4.1-4c1-1.5,1.6-3,2-4.5c0.3-1.4,0.5-2.6,0.5-3.5
				c0-24.5,0-36.7,0-61.2c0-2.5-0.6-4.9-1.8-6.9C263.5,120.9,262.1,119.2,260.3,117.8z M224.8,176c-12.6,0.7-18.9,1.2-31.5,2.4
				c0-11.6,0-17.4,0-29.1c12.6-1.2,18.9-1.7,31.5-2.4C224.8,158.6,224.8,164.4,224.8,176z"/>
			<path class="st3" d="M344.2,150.9c-15.6-14.9-23.4-22.1-39-36.2c-14.1-0.7-21.2-0.9-35.3-1c0,30.3,0,60.6,0,90.9
				c15.4,0.1,23.1,0.3,38.4,1.1c0-14.9,0-22.4,0-37.4c15.5,15.8,23.2,23.9,38.6,40.5c14.2,1.5,21.2,2.4,35.4,4.6c0-30.3,0-60.6,0-91
				c-15.2-2.3-22.8-3.3-38.1-4.9C344.2,131,344.2,137.6,344.2,150.9z"/>
			<path class="st3" d="M487.4,174.8c0-11.5,0-17.2,0-28.7c-33.7-9.5-67.1-17.2-101.6-23.3c0,30.4,0,60.8,0,91.2
				c34.5,6.1,67.9,13.8,101.6,23.3c0-11.5,0-17.2,0-28.7c-24.9-7.5-37.4-10.7-62.7-16.1c0-0.8,0-1.2,0-2c15.9,3.4,23.8,5.3,39.6,9.5
				c5.3-10.5,8-15.8,13.3-26.2c-21-6-31.6-8.7-52.9-13.2c0-0.8,0-1.2,0-2C449.9,164,462.5,167.2,487.4,174.8z"/>
		</g>
		<g>
			<path class="st3" d="M139.3,77.2c9.8-1.7,14.8-2.4,24.7-3.8c0,17.6,0,26.4,0,44c12.8-1.8,19.2-2.5,32.1-3.7c0-17.6,0-26.4,0-44
				c10.1-1,15.2-1.3,25.3-1.9c0-8.7,0-13.1,0-21.8c-27.6,2.2-54.7,5.3-82.1,9.4C139.3,64.1,139.3,68.5,139.3,77.2z"/>
			<path class="st3" d="M278.7,70.7c-1-0.7-2-1.3-2.9-1.8c-2.5-1.3-5.6-2.2-9-2.8c-0.1,0-0.1,0-0.2,0c-4.4,0-6.7,0-11.1,0.1
				c0-8.6,0-12.8,0-21.4c-13.1,0.2-19.6,0.4-32.7,1.2c0,26.3,0,39.4,0,65.7c13.1-0.8,19.6-1,32.7-1.2c0-8.7,0-13,0-21.7
				c9.3-0.1,13.9-0.1,23.2,0c0,8.7,0,13,0,21.7c12.9,0.2,19.3,0.4,32.1,1.2c0-26.3,0-39.4,0-65.7c-12.8-0.7-19.3-1-32.1-1.2
				C278.7,55.2,278.7,60.4,278.7,70.7z"/>
			<path class="st3" d="M394.8,77c0-8.7,0-13.1,0-21.8c-27.4-4.1-54.4-7.2-82.1-9.4c0,26.4,0,39.6,0,66c27.6,2.2,54.7,5.3,82.1,9.4
				c0-8.7,0-13.1,0-21.8c-7.5-1.3-11.2-1.9-18.7-3c4.5-8.3,6.8-12.5,11.3-20.7C390.4,76.2,391.9,76.5,394.8,77z"/>
		</g>
		<path class="st5" d="M380.2,94.6c3.1-5.6,4.6-8.4,7.7-14c0.4-0.8,0.7-1.2,1.1-2c1.3,0.2,2,0.3,3.3,0.6c2,0.3,3,0.5,5.1,0.9
			c0-2,0-3,0-5.1c0-6.7,0-10,0-16.7c0-2,0-3,0-5.1c-2-0.4-3-0.5-5.1-0.9c-25.7-3.8-51.1-6.7-77-8.8c-2-0.1-3.1-0.2-5.1-0.3
			c0,0.1,0,0.2,0,0.3c-0.6,0-1.2-0.1-1.9-0.1c-10.8-0.6-16.2-0.8-27-1c-2,0-3.1-0.1-5.1-0.1c0,2,0,3,0,5.1c0,7.6,0,11.4,0,19
			c-2.6-1.2-5.6-2.1-9-2.7c-0.2,0-0.2,0-0.4-0.1c-0.2,0-0.2,0-0.4,0c-3.3,0-5,0-8.3,0.1c0-6.5,0-9.8,0-16.3c0-2,0-3,0-5.1
			c-2,0-3.1,0-5.1,0.1c-11,0.2-16.6,0.4-27.6,1c-0.5,0-1,0.1-1.4,0.1c0,0,0-0.1,0-0.1c-2,0.1-3.1,0.2-5.1,0.3
			c-25.9,2.1-51.3,5-77,8.9c-2,0.3-3,0.5-5.1,0.9c0,2,0,3,0,5.1c0,6.7,0,10,0,16.7c0,2,0,3,0,5.1c2-0.4,3-0.5,5.1-0.9
			c7.8-1.3,11.7-1.9,19.6-3c0,15.6,0,23.4,0,39c0,2,0,3,0,5.1c2-0.3,3-0.4,5.1-0.7c10.8-1.4,16.2-2.1,27-3.1c2-0.2,3.1-0.3,5.1-0.5
			c0-2,0-3,0-5.1c0-15.6,0-23.4,0-39c8.1-0.7,12.1-1,20.2-1.6c0.5,0,1-0.1,1.4-0.1c0,12.3,0,23,0,39c0,2,0,3,0,5.1
			c2-0.1,3.1-0.2,5.1-0.3c11-0.6,16.6-0.8,27.6-1c2.1,0,3.1-0.1,5.1-0.1c0-2,0-3,0-5.1c0-6.7,0-10,0-16.6c7.2-0.1,10.9-0.1,18.1,0
			c0,6.7,0,10,0,16.6c0,2,0,3,0,5.1c2,0,3.1,0,5.1,0.1c10.8,0.2,16.2,0.4,27,1c2,0.1,3.1,0.2,5.1,0.3c0,0,0,0,0,0
			c0.6,0,1.2,0.1,1.9,0.1c25.9,2.1,51.3,5,77,8.9c2,0.3,3,0.5,5.1,0.9c0-2,0-3,0-5.1c0-6.7,0-10,0-16.7c0-2,0-3,0-5.1
			c-2-0.4-3-0.5-5.1-0.9C387.5,95.7,385,95.3,380.2,94.6z M218.8,65.4c-10.1,0.6-15.2,1-25.3,2c0,17.6,0,26.4,0,44
			c-10.8,1.1-16.2,1.7-27,3.1c0-17.6,0-26.4,0-44c-9.9,1.3-14.8,2.1-24.7,3.7c0-6.7,0-10,0-16.7c25.7-3.8,51.1-6.7,77-8.9
			C218.8,55.4,218.8,58.7,218.8,65.4z M308.3,109c-10.8-0.6-16.2-0.8-27-1c0-8.7,0-13,0-21.7c-11.3-0.2-17-0.2-28.3,0
			c0,8.7,0,13,0,21.7c-11,0.2-16.6,0.4-27.6,1c0-24.2,0-36.4,0-60.6c11-0.6,16.6-0.8,27.6-1c0,8.5,0,12.8,0,21.4
			c5.4-0.1,8.1-0.1,13.5-0.1c3.2,0.5,5.9,1.3,8.2,2.5c2.3,1.2,4.5,2.9,6.7,5.2c0-11.6,0-17.4,0-29c10.8,0.2,16.2,0.4,27,1
			C308.3,72.6,308.3,84.7,308.3,109z M392.3,118.2c-25.7-3.8-51.1-6.7-77-8.9c0-24.4,0-36.6,0-60.9c25.9,2.1,51.3,5,77,8.8
			c0,6.7,0,10,0,16.7c-20-3.3-30-4.7-50.1-6.7c0,2,0,3,0,5c16.5,1.6,24.8,2.7,41.2,5.2c-3.5,6.5-5.3,9.7-8.9,16.2
			c-12.9-1.8-19.4-2.6-32.3-3.9c0,2,0,3,0,5c20.1,2,30.2,3.3,50.1,6.7C392.3,108.2,392.3,111.6,392.3,118.2z"/>
		<g>
			<path class="st6" d="M124,173.7c-18.9,3.9-37.9,8.6-56.9,14.1C61.6,193.7,56,200,48.8,208c-0.8,0.2-1.2,0.4-2,0.6
				c0,11.5,0,17.2,0,28.7c33.7-9.5,67.1-17.2,101.6-23.3c0-11.5,0-17.2,0-28.7c-17.9,2.8-26.8,4.5-44.5,8.4
				C111.7,185.7,117.9,179.6,124,173.7z"/>
			<path class="st6" d="M224.8,176c-12.6,0.7-18.9,1.2-31.5,2.4c0-6.3,0-10.9,0-15.6c-13.8,1.5-27.7,3.4-41.5,5.7
				c0,9.6,0,19.2,0,31.9c0,1.9,0.6,3.6,1.7,5c0.9,1.2,2,2.2,3.2,3.1c1.2,0.8,2.4,1.5,3.7,2.1c1.2,0.5,2.1,0.9,2.8,1.1
				c0.2,0.1,0.3,0.1,0.5,0.2c29.6-4.1,59.5-6.4,89.5-6.9c2.6,0,4.9-0.7,6.7-1.8c1.7-1.1,3.1-2.4,4.1-4c1-1.5,1.6-3,2-4.5
				c0.3-1.4,0.5-2.6,0.5-3.5c0-12.9,0-22.5,0-32.2c-13.9,0-27.7,0.5-41.6,1.3C224.8,164.9,224.8,169.6,224.8,176z"/>
			<path class="st6" d="M269.9,204.7c15.4,0.1,23.1,0.3,38.4,1.1c0-14.9,0-22.4,0-37.4c15.5,15.8,23.2,23.9,38.6,40.5
				c14.2,1.5,21.2,2.4,35.4,4.6c0-15,0-30,0-45c-37.5-6.3-74.9-9.5-112.4-9.7C269.9,174.1,269.9,189.4,269.9,204.7z"/>
			<path class="st6" d="M424.7,192.5c0-0.8,0-1.2,0-2c15.9,3.4,23.8,5.3,39.6,9.5c2.3-4.5,4-8,5.7-11.3
				c-28.1-8.3-56.2-14.8-84.2-19.7c0,15,0,30,0,45c34.5,6.1,67.9,13.8,101.6,23.3c0-11.5,0-17.2,0-28.7
				C462.5,201.1,449.9,197.9,424.7,192.5z"/>
		</g>
		<g>
			<path class="st5" d="M190.8,181.2c14.6-1.5,21.9-2,36.6-2.8c0-13.6,0-20.5,0-34.1c-14.7,0.8-22,1.3-36.6,2.8
				C190.8,160.7,190.8,167.5,190.8,181.2z M195.9,151.6c10.5-1,15.8-1.4,26.4-2c0,9.6,0,14.4,0,24c-10.6,0.6-15.8,1-26.4,2
				C195.9,166,195.9,161.2,195.9,151.6z"/>
			<path class="st5" d="M484.9,142.8c-31.7-9.5-63.9-16.9-96.5-22.1c-2-0.3-3-0.5-5.1-0.8c0,0.1,0,0.2,0,0.3
				c-1.1-0.2-2.1-0.3-3.5-0.5c-13.2-2-19.8-2.8-33-4.2c-2-0.2-3.1-0.3-5.1-0.5c0,2,0,3,0,5.1c0,10.1,0,15.1,0,25.2
				c-13.6-13-20.4-19.3-34-31.6c-0.6-0.5-0.9-0.8-1.4-1.3c-0.8,0-1.1-0.1-1.9-0.1c-12.7-0.6-19.1-0.8-31.8-0.9c-2.1,0-3.1,0-5.1,0
				c0,2,0,3,0,5.1c0,2.1,0,4.2,0,6.3c-0.2-0.3-0.3-0.7-0.5-1c-1.3-2.3-3-4.2-5.1-5.8c-2-1.5-4.3-2.6-6.7-3.4c-2.4-0.7-4.8-1-7.1-1
				c-27.7,1.2-54.7,3.4-82.2,6.5c-2,0.3-4.2,1.2-6.3,2.8c-1.6,1.2-3.1,2.6-4.5,4.2c-1.5,1.6-2.8,3.4-3.8,5.3
				c-0.1,0.2-0.2,0.4-0.3,0.7c0-1.8,0-3.6,0-5.7c0-2,0-3,0-5.1c-2,0.3-3,0.5-5.1,0.8c-32.6,5.3-64.9,12.7-96.6,22.1
				c-2,0.6-3,0.9-4.9,1.5c0,2,0,3,0,5c0,9.5,0,14.2,0,23.6c0,2,0,3,0,5.1c2-0.6,3-0.9,4.9-1.5c13.4-4,20.2-5.9,33.7-9.2
				c-14.1,14.9-21.1,22.5-35,38.1c-1.5,0.4-2.2,0.7-3.7,1.1c0,2,0,3,0,5.1c0,9.5,0,14.2,0,23.6c0,2,0,3,0,5.1c2-0.6,3-0.9,4.9-1.5
				c31.7-9.5,63.9-16.9,96.6-22.1c2-0.3,3-0.5,5.1-0.8c0-2,0-3,0-5.1c0-1.8,0-3.3,0-4.8c0.2,0.3,0.3,0.6,0.5,0.8
				c1,1.3,2.3,2.5,3.6,3.5c1.3,0.9,2.7,1.7,4.1,2.3c1.2,0.5,2.1,0.9,2.9,1.1c0.4,0.2,0.6,0.2,1.1,0.4c0.5-0.1,0.7-0.1,1.2-0.2
				c29.5-4,59.1-6.3,88.9-6.8c3.1-0.1,5.8-0.8,8.1-2.3c2-1.3,3.7-2.9,4.9-4.8c0.5-0.8,1-1.6,1.3-2.4c0,1.4,0,2.9,0,4.3
				c0,2,0,3,0,5.1c2,0,3.1,0,5.1,0c13.3,0.1,20,0.3,33.3,1c2,0.1,3.1,0.2,5.1,0.3c0-2,0-3,0-5.1c0-11.5,0-17.3,0-28.8
				c13.4,13.8,20.1,20.8,33.5,35.1c0.6,0.6,0.9,1,1.5,1.6c0.8,0.1,1.2,0.1,2.1,0.2c12.7,1.4,19.1,2.2,31.8,4.1c2,0.3,3,0.5,5.1,0.8
				v0c1.1,0.2,2.1,0.3,3.5,0.6c32.6,5.3,64.9,12.7,96.5,22.1c2,0.6,3,0.9,4.9,1.5c0-2,0-3,0-5.1c0-9.5,0-14.2,0-23.6c0-2,0-3,0-5.1
				c-2-0.6-3-0.9-4.9-1.5c-7-2.1-10.6-3.1-17.6-5c4.4-8.7,6.6-13,11-21.7c0.7-1.4,1.1-2.1,1.8-3.5c1.9,0.6,2.9,0.8,4.8,1.4
				c2,0.6,3,0.9,4.9,1.5c0-2,0-3,0-5.1c0-9.5,0-14.2,0-23.6c0-2,0-3,0-5C487.9,143.7,486.9,143.4,484.9,142.8z M145.8,211.9
				c-32.6,5.3-64.9,12.7-96.6,22.1c0-9.5,0-14.2,0-23.6c0.2-0.1,0.3-0.1,0.4-0.1c15.5-17.3,31.4-34.4,47.6-51.1
				c-19.3,4.4-28.9,7-48,12.7c0-9.5,0-14.2,0-23.6c31.7-9.4,63.9-16.9,96.6-22.1c0,9.5,0,14.2,0,23.6
				c-16.7,15.8-33.2,31.8-49.3,48.2c19.6-4.5,29.5-6.4,49.3-9.6C145.8,197.7,145.8,202.5,145.8,211.9z M111.1,189.7
				c15.1-15,22.6-22.3,37.8-36.5c0.1-0.1,0.2-0.2,0.4-0.3c0,10.6,0,19.5,0,29.9c-1.1,0.2-2.1,0.3-3.5,0.6
				C131.8,185.5,124.9,186.8,111.1,189.7z M263.9,191c0,0.7-0.1,1.7-0.5,2.9c-0.3,1.3-0.9,2.5-1.7,3.8c-0.8,1.3-1.9,2.3-3.3,3.2
				c-1.4,0.9-3.2,1.4-5.3,1.4c-29.7,0.5-59.4,2.8-88.9,6.8c-0.6-0.2-1.5-0.6-2.6-1.1c-1.2-0.5-2.3-1.1-3.3-1.8
				c-1.1-0.8-2-1.6-2.8-2.7c-0.8-1-1.2-2.2-1.2-3.6c0-25.6,0-38.4,0-64c0-1,0.4-2.2,1.2-3.7c0.8-1.5,1.8-2.8,2.9-4.1
				c1.2-1.3,2.4-2.4,3.7-3.4c1.3-1,2.5-1.5,3.6-1.7c27.5-3.2,54.6-5.3,82.2-6.5c1.8,0,3.7,0.2,5.6,0.8c1.9,0.6,3.6,1.4,5.2,2.5
				c1.5,1.1,2.8,2.5,3.7,4.2c1,1.7,1.4,3.6,1.4,5.7C263.9,154.3,263.9,166.5,263.9,191z M379.8,210.6c-12.7-1.9-19-2.7-31.8-4.1
				c-16.8-18.1-25.3-27-42.2-44.2c0,16.3,0,24.5,0,40.9c-13.3-0.7-20-0.9-33.3-1c0-28.6,0-57.3,0-85.9c12.7,0.1,19.1,0.3,31.8,0.9
				c17,15.3,25.5,23.2,42.5,39.5c0-14.5,0-21.7,0-36.2c13.2,1.4,19.8,2.2,33,4.2C379.8,153.3,379.8,182,379.8,210.6z M484.9,171.5
				c-24.9-7.4-37.5-10.6-62.7-15.9c0,2.8,0,4.2,0,7c20.8,4.3,31.1,6.8,51.6,12.6c-4.4,8.7-6.6,13.1-11.1,21.8
				c-16.1-4.3-24.2-6.2-40.5-9.6c0,2.8,0,4.2,0,7c25.3,5.3,37.9,8.4,62.7,15.9c0,9.5,0,14.2,0,23.6c-31.7-9.5-63.9-16.9-96.5-22.1
				c0-28.7,0-57.5,0-86.2c32.6,5.3,64.9,12.7,96.5,22.1C484.9,157.3,484.9,162,484.9,171.5z"/>
		</g>
		<g>
			<g>
				<path class="st7" d="M286.6,274.4c-10.5,5.2-19,13.8-24.3,24.3c-5.2-10.5-13.8-19-24.3-24.3c10.5-5.2,19-13.8,24.3-24.3
					C267.6,260.6,276.2,269.2,286.6,274.4z"/>
			</g>
		</g>
		<path class="st8" d="M193.3,149.3c0,5.3,0,9.4,0,13.4c10.5-1.1,21-2,31.5-2.7c0-3.9,0-8,0-13.2
			C212.2,147.6,205.9,148.1,193.3,149.3z"/>
	</g>
</g>
</svg>
