<svg xmlns="http://www.w3.org/2000/svg" version="1.1" id="Layer_1" x="0" y="0" viewBox="0 0 216.6 127.8" enable-background="new 0 0 216.6 127.8" xml:space="preserve"><path fill="none" d="M91.5 110.2C91.5 110.2 91.5 110.2 91.5 110.2 92 109.8 91.8 109.9 91.5 110.2z"/><path fill="none" d="M76.6 31.2c0-2.8-2.4-5.2-5.2-5.2 -2.9 0-5.2 2.3-5.2 5.2 0 2.8 2.3 5.2 5.2 5.2C74.3 36.4 76.6 34.1 76.6 31.2z"/><path fill="none" d="M90.7 81.5c0-2.6-1.4-5.2-4.4-5.2H72.8v10.3h13C89 86.6 90.7 84.6 90.7 81.5z"/><polygon fill="none" points="44.5 112.1 52.3 105.4 52.6 105.1 64.9 94.5 53.3 82.7 53.1 82.5 44.5 73.8 "/><path fill="none" d="M54.5 49.2c3.1 0 5.8-2.5 5.8-5.7 0-3.2-2.7-5.7-5.8-5.7 -3.2 0-5.8 2.5-5.8 5.7C48.7 46.7 51.3 49.2 54.5 49.2z"/><path fill="none" d="M71.4 49.2c3.1 0 5.8-2.5 5.8-5.7 0-3.2-2.7-5.7-5.8-5.7 -3.2 0-5.8 2.5-5.8 5.7C65.6 46.7 68.3 49.2 71.4 49.2z"/><path fill="none" d="M133.5 77.4c-5.2 1.8-9 7.3-9 16.8 0 6.7 2.5 10.9 2.7 11.1 2.4 4 6.5 6.6 11.3 6.3 4.8-0.3 8.6-3.2 10.9-7.6l10.9 6.4c-1.8-4.7-2.5-9.8-2.5-14.8l0-16.7 -8.4 5.9C147.9 82.4 143.4 74 133.5 77.4z"/><path fill="none" d="M91.5 110.2C91.5 110.2 91.4 110.3 91.5 110.2 91.2 110.5 91 110.6 91.5 110.2z"/><path fill="none" d="M106.2 86.9c-1.6 2.8-3.9 4.9-7.1 6.4 2.8 0.8 5 2 7 3.7 0 0 0 0 0 0 0 0 0 0 0 0 -0.2-1.5-0.3-3-0.2-4.5v-0.2c0.1-1.2 0.2-2.4 0.3-3.6 0 0 0 0 0-0.1 0.1-0.4 0.1-0.4 0.1-0.3 0.2-0.9 0.3-1.9 0.6-2.8 0 0 0 0 0 0.1C106.7 86 106.5 86.5 106.2 86.9z"/><path fill="none" d="M59.7 31.2c0-2.8-2.4-5.2-5.2-5.2 -2.8 0-5.2 2.3-5.2 5.2 0 2.8 2.3 5.2 5.2 5.2C57.3 36.4 59.7 34.1 59.7 31.2z"/><path fill="none" d="M88.4 100.4H72.8v11h14.9c1.4 0 2.7-0.3 3.7-1.1 0 0 0.1-0.1 0.1-0.1C94.5 107.3 92.9 100.4 88.4 100.4z"/><path fill="#FFFFFF" d="M47.1 43.8c0 4.1 3.4 7 7.4 7 4 0 7.4-3 7.4-7 0-3.1-1.4-5.3-4.2-6.6 2.2-1.1 3.6-3.4 3.6-5.8 0-3.9-3-6.8-6.9-6.8 -3.9 0-6.9 2.9-6.9 6.8 0 2.4 1.4 4.8 3.6 5.8C48.5 38.4 47.1 40.7 47.1 43.8zM49.3 31.2c0-2.8 2.4-5.2 5.2-5.2 2.8 0 5.2 2.3 5.2 5.2 0 2.8-2.4 5.2-5.2 5.2C51.6 36.4 49.3 34.1 49.3 31.2zM54.5 37.9c3.1 0 5.8 2.5 5.8 5.7 0 3.2-2.7 5.7-5.8 5.7 -3.2 0-5.8-2.5-5.8-5.7C48.7 40.4 51.3 37.9 54.5 37.9z"/><path fill="#FFFFFF" d="M64 43.8c0 4.1 3.4 7 7.4 7 4 0 7.4-3 7.4-7 0-3.1-1.4-5.3-4.2-6.6 2.2-1.1 3.6-3.4 3.6-5.8 0-3.9-3-6.8-6.9-6.8 -3.9 0-6.9 2.9-6.9 6.8 0 2.4 1.4 4.8 3.6 5.8C65.4 38.4 64 40.7 64 43.8zM66.2 31.2c0-2.8 2.4-5.2 5.2-5.2 2.8 0 5.2 2.3 5.2 5.2 0 2.8-2.4 5.2-5.2 5.2C68.5 36.4 66.2 34.1 66.2 31.2zM71.4 37.9c3.1 0 5.8 2.5 5.8 5.7 0 3.2-2.7 5.7-5.8 5.7 -3.2 0-5.8-2.5-5.8-5.7C65.6 40.4 68.3 37.9 71.4 37.9z"/><path fill="#FFFFFF" d="M81.6 50.8c0.8 0 1.4-0.6 1.4-1.4 0-0.8-0.6-1.4-1.4-1.4 -0.8 0-1.4 0.6-1.4 1.4C80.2 50.2 80.8 50.8 81.6 50.8z"/><polygon fill="#FFFFFF" points="86.8 50.4 88.4 50.4 88.4 24.9 83.5 24.9 82.7 26.4 86.8 26.4 "/><polygon fill="#FFFFFF" points="103.3 39.4 114.2 39.4 114.2 36.1 103.3 36.1 103.3 28.4 116.3 28.4 116.3 24.9 99.2 24.9 99.2 50.4 103.3 50.4 "/><polygon fill="#FFFFFF" points="124 32 131.7 46 133.9 46 141.5 32 141.5 50.4 145.6 50.4 145.6 24.9 141.2 24.9 132.8 40.5 124.3 24.9 120 24.9 120 50.4 124 50.4 "/><path fill="#FFFFFF" d="M44.5 112.1V73.8l8.6 8.8c1.5-7.7 4.2-14.9 7.9-21.5H40.3l-22.2 27V61H0v65.7h18.1v-19.3l6-6.8 17.5 26.1h16.6c-3-6.6-5-13.8-5.9-21.4L44.5 112.1z"/><path opacity="0.62" fill="#FFFFFF" d="M149.3 104.1c-2.2 4.4-6 7.3-10.9 7.6 -4.8 0.3-8.9-2.3-11.3-6.3 -0.1-0.2-2.7-4.4-2.7-11.1 0-9.5 3.8-15 9-16.8 9.9-3.4 14.4 4.9 15.9 7.4l8.4-5.9 0-9.4c-6.3-6.5-15.9-8.5-21.4-8.5 -20.9 0-27.3 18.3-28 20.1 1.6-9.1-4.7-20-14.8-20H61.1c-3.7 6.6-6.4 13.9-7.9 21.5l0.2 0.2 11.6 11.8 -12.3 10.7 -0.3 0.2c0.9 7.5 2.9 14.7 5.9 21.4h29.6c9.7 0 22.2-2.9 23.5-14.4 0 0 0-0.1 0-0.2 5.5 9.2 15.2 15.5 26 15.5 9.2 0 20.3-4.2 25.1-12.7 -0.9-1.5-1.6-3-2.2-4.6L149.3 104.1zM72.8 76.3h13.5c2.9 0 4.4 2.5 4.4 5.2 0 3.1-1.7 5.1-4.9 5.1h-13V76.3zM91.5 110.2C91 110.6 91.2 110.5 91.5 110.2c-1.1 0.9-2.3 1.2-3.7 1.2H72.8v-11h15.5C92.9 100.4 94.5 107.3 91.5 110.2 91.8 109.9 92 109.8 91.5 110.2zM106.4 88.3c0-0.1 0-0.1-0.1 0.3 0 0.1 0 0.1 0 0.1 -0.2 1.2-0.3 2.4-0.3 3.6v0.2c-0.1 1.5 0 3 0.2 4.5 0 0 0 0 0 0 0 0 0 0 0 0 -1.9-1.7-4.2-2.9-7-3.7 3.2-1.4 5.5-3.5 7.1-6.4 0.2-0.4 0.5-0.9 0.7-1.3 0 0 0 0 0-0.1C106.7 86.4 106.6 87.4 106.4 88.3z"/><path fill="#939598" d="M91.5 110.2C91.5 110.2 91.5 110.2 91.5 110.2 91.5 110.2 91.5 110.2 91.5 110.2 91.4 110.3 91.5 110.2 91.5 110.2z"/><path fill="#FFFFFF" d="M198.7 68.1v28.5c0 7.3-2.9 15.8-11.5 15.8 -8.8 0-11.5-8.4-11.5-15.9V68.1c0-10.9-17.9-10.9-17.9 0v27.5c0 8.8 2.2 18.1 8.7 24.5 5.7 5.6 13.8 7.9 21.6 7.7 8.1-0.2 16.2-3.1 21.5-9.4 5.3-6.3 7.1-14.8 7.1-22.8V68.2C216.6 57.2 198.7 57.2 198.7 68.1z"/><path fill="#FFFFFF" d="M207.3 21h-4.7l-5.5-12.6c1.4-2.1 1.2-4.9-0.5-6.8 -1.6-1.7-4.2-2.2-6.3-1.2 -2.1 1-3.2 3.3-2.9 5.6 0.4 2.3 2.2 4.3 4.6 4.6l4.5 10.3h-30.4c-5 0-8.3 3.8-8.3 8.8v15.6c0 5 3.3 8.6 8.3 8.6h41.2c5 0 9.3-3.6 9.3-8.6V29.9C216.6 24.9 212.3 21 207.3 21zM174.1 49c-6 0-10.8-4.8-10.8-10.8 0-6 4.8-10.8 10.8-10.8 5.9 0 10.8 4.8 10.8 10.8C184.9 44.2 180 49 174.1 49zM200.6 49c-6 0-10.8-4.8-10.8-10.8 0-6 4.8-10.8 10.8-10.8 6 0 10.8 4.8 10.8 10.8C211.3 44.2 206.5 49 200.6 49z"/><path fill="#FFFFFF" d="M174.1 33.5c-2.6 0-4.7 2.1-4.7 4.7 0 2.6 2.1 4.7 4.7 4.7 2.6 0 4.7-2.1 4.7-4.7C178.8 35.6 176.7 33.5 174.1 33.5z"/><path fill="#FFFFFF" d="M200.5 33.5c-2.6 0-4.7 2.1-4.7 4.7 0 2.6 2.1 4.7 4.7 4.7 2.6 0 4.7-2.1 4.7-4.7C205.2 35.6 203.1 33.5 200.5 33.5z"/></svg>