<?xml version="1.0" encoding="UTF-8" standalone="no"?>
<svg width="99px" height="75px" viewBox="0 0 99 75" version="1.1" xmlns="http://www.w3.org/2000/svg" xmlns:xlink="http://www.w3.org/1999/xlink" xmlns:sketch="http://www.bohemiancoding.com/sketch/ns">
    <!-- Generator: Sketch 3.3.3 (12072) - http://www.bohemiancoding.com/sketch -->
    <title>Slice 1</title>
    <desc>Created with Sketch.</desc>
    <defs></defs>
    <g id="Page-1" stroke="none" stroke-width="1" fill="none" fill-rule="evenodd" sketch:type="MSPage">
        <g id="logo" sketch:type="MSLayerGroup">
            <g id="Group" sketch:type="MSShapeGroup">
                <path d="M84.2,0.2 L52.5,0.2 C52.5,0.2 49.3,0.2 49.3,3.4 L49.3,14.9 L64.8,14.9 C68,14.9 68,18.1 68,18.1 L68,28.2 L74,28.2 L70.5,35 L82.9,28.2 L84.2,28.2 C84.2,28.2 87.4,28.2 87.4,25 L87.4,3.4 C87.4,3.4 87.4,0.2 84.2,0.2 L84.2,0.2 Z" id="Shape" fill="#4F8476"></path>
                <path d="M64.9,14.9 L49.4,14.9 L44.2,14.9 L44.2,33 C44.2,36.2 41,36.2 41,36.2 L29.4,36.2 L29.4,44.9 C29.4,44.9 29.4,48.1 32.6,48.1 L44.4,48.1 L40.9,54.7 L53.3,48.1 L65,48.1 C65,48.1 68.2,48.1 68.2,44.9 L68.2,28.2 L68.2,18.1 C68.1,18.1 68.1,14.9 64.9,14.9 L64.9,14.9 Z" id="Shape" fill="#334471"></path>
                <path d="M41.1,8.7 L12.2,8.7 C12.2,8.7 9,8.7 9,11.9 L9,33 C9,33 9,36.2 12.2,36.2 L14.4,36.2 L26.8,43.3 L23.3,36.2 L29.5,36.2 L41.1,36.2 C41.1,36.2 44.3,36.2 44.3,33 L44.3,14.9 L44.3,11.8 C44.2,11.9 44.2,8.7 41.1,8.7 L41.1,8.7 Z" id="Shape" fill="#BD4035"></path>
                <path d="M1.9,63.9 C1.9,62 3.6,60.6 6.2,60.6 C8.8,60.6 10.5,62.1 10.5,63.9 C10.5,65 10,65.8 9.3,66.3 C10.8,67 11.8,68.2 11.8,70 C11.8,72.4 9.8,74.4 6.3,74.4 C2.7,74.4 0.7,72.4 0.7,70 C0.7,68.2 1.7,67 3.2,66.3 C2.4,65.7 1.9,64.9 1.9,63.9 L1.9,63.9 Z M8.3,69.7 C8.3,68.6 7.5,67.8 6.2,67.8 C4.9,67.8 4.1,68.6 4.1,69.7 C4.1,70.8 4.9,71.6 6.2,71.6 C7.5,71.6 8.3,70.8 8.3,69.7 L8.3,69.7 Z M7.5,64.3 C7.5,63.7 7,63.1 6.2,63.1 C5.4,63.1 4.9,63.7 4.9,64.3 C4.9,64.9 5.4,65.5 6.2,65.5 C7,65.4 7.5,64.9 7.5,64.3 L7.5,64.3 Z" id="Shape" fill="#BD4035"></path>
                <path d="M14,63.9 C14,62 15.7,60.6 18.3,60.6 C20.9,60.6 22.6,62.1 22.6,63.9 C22.6,65 22.1,65.8 21.4,66.3 C22.9,67 23.9,68.2 23.9,70 C23.9,72.4 21.9,74.4 18.4,74.4 C14.9,74.4 12.8,72.4 12.8,70 C12.8,68.2 13.8,67 15.3,66.3 C14.5,65.7 14,64.9 14,63.9 L14,63.9 Z M20.4,69.7 C20.4,68.6 19.6,67.8 18.3,67.8 C17,67.8 16.2,68.6 16.2,69.7 C16.2,70.8 17,71.6 18.3,71.6 C19.6,71.6 20.4,70.8 20.4,69.7 L20.4,69.7 Z M19.5,64.3 C19.5,63.7 19,63.1 18.2,63.1 C17.4,63.1 16.9,63.7 16.9,64.3 C16.9,64.9 17.4,65.5 18.2,65.5 C19.1,65.4 19.5,64.9 19.5,64.3 L19.5,64.3 Z" id="Shape" fill="#BD4035"></path>
                <path d="M25,72.5 C25,71.3 25.9,70.5 27,70.5 C28,70.5 29,71.3 29,72.5 C29,73.7 28,74.5 27,74.5 C25.9,74.4 25,73.6 25,72.5 L25,72.5 Z" id="Shape" fill="#BD4035"></path>
                <path d="M29.9,71.5 L32.8,69.9 C33.1,70.5 33.9,71.3 35.2,71.3 C36.4,71.3 37.3,70.7 37.3,69.5 C37.3,68.2 36.3,67.6 34.8,67.6 C33.3,67.6 32.1,68.2 31.5,68.6 C31.3,68.7 31.2,68.7 31.2,68.5 L31.2,60.6 L39.7,60.6 L39.7,63.6 L34.1,63.6 L34.1,65 C34.4,64.9 34.8,64.8 35.6,64.8 C39.1,64.8 40.9,66.7 40.9,69.4 C40.9,72.4 38.6,74.3 35.2,74.3 C32.6,74.4 30.8,73.2 29.9,71.5 L29.9,71.5 Z" id="Shape" fill="#BD4035"></path>
                <path d="M47.5,74.4 C47.4,74.5 47.3,74.5 47.3,74.4 L41.6,60.7 L45.4,60.7 L47.9,67.1 L50.8,60.5 C50.8,60.4 50.9,60.4 51,60.5 L54,67.1 L56.4,60.7 L60,60.7 L54.4,74.4 C54.3,74.6 54.2,74.6 54.2,74.4 L50.8,67.1 L47.5,74.4 L47.5,74.4 Z" id="Shape" fill="#334471"></path>
                <path d="M61.4,60.7 L70.6,60.7 L70.6,63.7 L65,63.7 L65,66.8 L69.9,66.8 L69.9,69.8 L65,69.8 L65,74.1 L61.4,74.1 L61.4,60.7 L61.4,60.7 Z" id="Shape" fill="#334471"></path>
                <path d="M72.4,60.7 L77.6,60.7 C81.5,60.7 84.5,63.3 84.5,67.5 C84.5,71.7 81.5,74.3 77.6,74.3 L72.4,74.3 L72.4,60.7 L72.4,60.7 Z M77.2,71.2 C79.4,71.2 80.7,69.7 80.7,67.5 C80.7,65.2 79.3,63.8 77.2,63.8 L76,63.8 L76,71.2 L77.2,71.2 L77.2,71.2 Z" id="Shape" fill="#334471"></path>
                <path d="M86.1,60.7 L91.3,60.7 C95.2,60.7 98.2,63.3 98.2,67.5 C98.2,71.7 95.2,74.3 91.3,74.3 L86.1,74.3 L86.1,60.7 L86.1,60.7 Z M90.9,71.2 C93.1,71.2 94.4,69.7 94.4,67.5 C94.4,65.2 93,63.8 90.9,63.8 L89.7,63.8 L89.7,71.2 L90.9,71.2 L90.9,71.2 Z" id="Shape" fill="#334471"></path>
            </g>
        </g>
    </g>
</svg>