<?xml version="1.0" encoding="utf-8"?>
<!-- Generator: Adobe Illustrator 19.1.0, SVG Export Plug-In . SVG Version: 6.00 Build 0)  -->
<!DOCTYPE svg PUBLIC "-//W3C//DTD SVG 1.0//EN" "http://www.w3.org/TR/2001/REC-SVG-20010904/DTD/svg10.dtd" [
        <!ENTITY ns_extend "http://ns.adobe.com/Extensibility/1.0/">
        <!ENTITY ns_ai "http://ns.adobe.com/AdobeIllustrator/10.0/">
        <!ENTITY ns_graphs "http://ns.adobe.com/Graphs/1.0/">
        <!ENTITY ns_vars "http://ns.adobe.com/Variables/1.0/">
        <!ENTITY ns_imrep "http://ns.adobe.com/ImageReplacement/1.0/">
        <!ENTITY ns_sfw "http://ns.adobe.com/SaveForWeb/1.0/">
        <!ENTITY ns_custom "http://ns.adobe.com/GenericCustomNamespace/1.0/">
        <!ENTITY ns_adobe_xpath "http://ns.adobe.com/XPath/1.0/">
        ]>
<svg version="1.0" id="Layer_1" xmlns:x="&ns_extend;" xmlns:i="&ns_ai;" xmlns:graph="&ns_graphs;"
	 xmlns="http://www.w3.org/2000/svg" xmlns:xlink="http://www.w3.org/1999/xlink" x="0px" y="0px" viewBox="-794 780.4 327.9 89.7"
	 enable-background="new -794 780.4 327.9 89.7" xml:space="preserve">
<metadata>
	<x:xmpmeta  x:xmptk="Adobe XMP Core 5.6-c067 79.157747, 2015/03/30-23:40:42        " xmlns:x="adobe:ns:meta/">
		<rdf:RDF  xmlns:rdf="http://www.w3.org/1999/02/22-rdf-syntax-ns#">
			
				<rdf:Description  xmlns:xmpG="http://ns.adobe.com/xap/1.0/g/" xmlns:pdf="http://ns.adobe.com/pdf/1.3/" xmlns:xmpMM="http://ns.adobe.com/xap/1.0/mm/" xmlns:xmpTPg="http://ns.adobe.com/xap/1.0/t/pg/" xmlns:xmp="http://ns.adobe.com/xap/1.0/" xmlns:xmpGImg="http://ns.adobe.com/xap/1.0/g/img/" rdf:about="" xmlns:stEvt="http://ns.adobe.com/xap/1.0/sType/ResourceEvent#" xmlns:stRef="http://ns.adobe.com/xap/1.0/sType/ResourceRef#" xmlns:dc="http://purl.org/dc/elements/1.1/" xmlns:stDim="http://ns.adobe.com/xap/1.0/sType/Dimensions#">
				<xmp:CreatorTool>Adobe Illustrator CC 2015 (Macintosh)</xmp:CreatorTool>
				<xmp:CreateDate>2016-09-15T18:36:11-04:00</xmp:CreateDate>
				<xmp:ModifyDate>2016-09-15T18:36:11-04:00</xmp:ModifyDate>
				<xmp:MetadataDate>2016-09-15T18:36:11-04:00</xmp:MetadataDate>
				<xmp:Thumbnails>
					<rdf:Alt>
						<rdf:li  rdf:parseType="Resource">
							<xmpGImg:width>256</xmpGImg:width>
							<xmpGImg:height>72</xmpGImg:height>
							<xmpGImg:format>JPEG</xmpGImg:format>
							<xmpGImg:image>/9j/4AAQSkZJRgABAgEASABIAAD/7QAsUGhvdG9zaG9wIDMuMAA4QklNA+0AAAAAABAASAAAAAEA
AQBIAAAAAQAB/+4ADkFkb2JlAGTAAAAAAf/bAIQABgQEBAUEBgUFBgkGBQYJCwgGBggLDAoKCwoK
DBAMDAwMDAwQDA4PEA8ODBMTFBQTExwbGxscHx8fHx8fHx8fHwEHBwcNDA0YEBAYGhURFRofHx8f
Hx8fHx8fHx8fHx8fHx8fHx8fHx8fHx8fHx8fHx8fHx8fHx8fHx8fHx8fHx8f/8AAEQgASAEAAwER
AAIRAQMRAf/EAaIAAAAHAQEBAQEAAAAAAAAAAAQFAwIGAQAHCAkKCwEAAgIDAQEBAQEAAAAAAAAA
AQACAwQFBgcICQoLEAACAQMDAgQCBgcDBAIGAnMBAgMRBAAFIRIxQVEGE2EicYEUMpGhBxWxQiPB
UtHhMxZi8CRygvElQzRTkqKyY3PCNUQnk6OzNhdUZHTD0uIIJoMJChgZhJRFRqS0VtNVKBry4/PE
1OT0ZXWFlaW1xdXl9WZ2hpamtsbW5vY3R1dnd4eXp7fH1+f3OEhYaHiImKi4yNjo+Ck5SVlpeYmZ
qbnJ2en5KjpKWmp6ipqqusra6voRAAICAQIDBQUEBQYECAMDbQEAAhEDBCESMUEFURNhIgZxgZEy
obHwFMHR4SNCFVJicvEzJDRDghaSUyWiY7LCB3PSNeJEgxdUkwgJChgZJjZFGidkdFU38qOzwygp
0+PzhJSktMTU5PRldYWVpbXF1eX1RlZmdoaWprbG1ub2R1dnd4eXp7fH1+f3OEhYaHiImKi4yNjo
+DlJWWl5iZmpucnZ6fkqOkpaanqKmqq6ytrq+v/aAAwDAQACEQMRAD8A9UnFXdsVaGKuOKt9sVdi
rsVdirsVdXFXVxV2KuxV2KuxV2KuxV2KuxV2KuxV2KuxV2KuxV2KuxV2KuxV2KuxV2KuOKuxV2Ku
xV2KuxV2KuGKuxVxxVwxV2KuxV2KuxV2KuxV2KuxV2KuxV2KuxV2KuxV2KuxV2KuxV2KuxV2Kuri
rq4q7FXVxV2KuxV1cVdirq4q6uKuGKuxV1cVdXFXYq6uKurirsVdXFXYq7FXVxV1cVdXFXYq7FXY
q6uKuxV1cVdXFXVxVxxVwxV2KtHFWxirjirhirWKuxV2KtjFXHFXYq44q4Yq44q4Yq7FXd8Vdirj
irWKuxV2Kt4q0cVbxV1MVaxV2KuxVsYq7FWsVbxVrFWxirsVccVaxV2KuxVsYq7FXVxVrFWxirsV
axVvFXDFXYq0cVdirsVdirYxVxxVwxV2KtYq7FXYq2MVdirjirWKt4q1irYxVxxVrFXYq7FWxirj
irWKuxVsYq7FXHFWsVbxV2KtHFXYq7FXYq2MVccVcMVdirjirqYq6mKuxV2KuxVoYq3irjirsVdi
rVMVdirqYq6mKt0xVrFXUxV2Kt4q7FXDFXHFWhireKtYq7FXUxVvFWsVbxV2KtYq7FXYq6uKt4q7
FXYq7FXYq7FXYq7FXYq7FXYq7FXYq7FXYq7FXYq7FXYq7FXYq7FXYq7FXYq7FXYq44q1irsVdirs
VbxV2KuxV2KuxV2KuxV2KuxV2KuxV2KuxV2KuxV2KuxV2KuxV2KuxV2KuxV1MVdirsVcMVdirVMV
dTFW6Yq7FX//2Q==
								</xmpGImg:image>
						</rdf:li>
					</rdf:Alt>
				</xmp:Thumbnails>
				<xmpTPg:NPages>1</xmpTPg:NPages>
				<xmpTPg:HasVisibleTransparency>False</xmpTPg:HasVisibleTransparency>
				<xmpTPg:HasVisibleOverprint>False</xmpTPg:HasVisibleOverprint>
				<xmpTPg:MaxPageSize  rdf:parseType="Resource">
					<stDim:w>4.553853</stDim:w>
					<stDim:h>1.246811</stDim:h>
					<stDim:unit>Inches</stDim:unit>
				</xmpTPg:MaxPageSize>
				<xmpTPg:SwatchGroups>
					<rdf:Seq>
						<rdf:li  rdf:parseType="Resource">
							<xmpG:groupName>Default Swatch Group</xmpG:groupName>
							<xmpG:groupType>0</xmpG:groupType>
							<xmpG:Colorants>
								<rdf:Seq>
									<rdf:li  rdf:parseType="Resource">
										<xmpG:swatchName>PANTONE Reflex Blue U</xmpG:swatchName>
										<xmpG:type>SPOT</xmpG:type>
										<xmpG:tint>100.000000</xmpG:tint>
										<xmpG:mode>LAB</xmpG:mode>
										<xmpG:L>33.333332</xmpG:L>
										<xmpG:A>14</xmpG:A>
										<xmpG:B>-48</xmpG:B>
									</rdf:li>
									<rdf:li  rdf:parseType="Resource">
										<xmpG:swatchName>R=0 G=0 B=0 1</xmpG:swatchName>
										<xmpG:mode>RGB</xmpG:mode>
										<xmpG:type>PROCESS</xmpG:type>
										<xmpG:red>0</xmpG:red>
										<xmpG:green>0</xmpG:green>
										<xmpG:blue>0</xmpG:blue>
									</rdf:li>
									<rdf:li  rdf:parseType="Resource">
										<xmpG:swatchName>R=254 G=254 B=254 1</xmpG:swatchName>
										<xmpG:mode>RGB</xmpG:mode>
										<xmpG:type>PROCESS</xmpG:type>
										<xmpG:red>254</xmpG:red>
										<xmpG:green>254</xmpG:green>
										<xmpG:blue>254</xmpG:blue>
									</rdf:li>
								</rdf:Seq>
							</xmpG:Colorants>
						</rdf:li>
					</rdf:Seq>
				</xmpTPg:SwatchGroups>
				<dc:format>image/svg+xml</dc:format>
				<dc:title>
					<rdf:Alt>
						<rdf:li  xml:lang="x-default">logo</rdf:li>
					</rdf:Alt>
				</dc:title>
				<xmpMM:RenditionClass>proof:pdf</xmpMM:RenditionClass>
				<xmpMM:DocumentID>xmp.did:d729daa5-e4a3-4c1a-b779-c7f933e8a50e</xmpMM:DocumentID>
				<xmpMM:InstanceID>xmp.iid:d729daa5-e4a3-4c1a-b779-c7f933e8a50e</xmpMM:InstanceID>
				<xmpMM:OriginalDocumentID>uuid:2b6ed36e-40db-f441-8066-12eada1040ee</xmpMM:OriginalDocumentID>
				<xmpMM:DerivedFrom  rdf:parseType="Resource">
					<stRef:instanceID>uuid:3526e0c6-b89a-9547-a18f-ec72a3eb11f7</stRef:instanceID>
					<stRef:documentID>xmp.did:49d29b90-6c6d-443a-8eba-15a13d4d4e9c</stRef:documentID>
					<stRef:originalDocumentID>uuid:2b6ed36e-40db-f441-8066-12eada1040ee</stRef:originalDocumentID>
					<stRef:renditionClass>proof:pdf</stRef:renditionClass>
				</xmpMM:DerivedFrom>
				<xmpMM:History>
					<rdf:Seq>
						<rdf:li  rdf:parseType="Resource">
							<stEvt:action>saved</stEvt:action>
							<stEvt:instanceID>xmp.iid:49d29b90-6c6d-443a-8eba-15a13d4d4e9c</stEvt:instanceID>
							<stEvt:when>2016-09-15T18:35:26-04:00</stEvt:when>
							<stEvt:softwareAgent>Adobe Illustrator CC 2015 (Macintosh)</stEvt:softwareAgent>
							<stEvt:changed>/</stEvt:changed>
						</rdf:li>
						<rdf:li  rdf:parseType="Resource">
							<stEvt:action>saved</stEvt:action>
							<stEvt:instanceID>xmp.iid:d729daa5-e4a3-4c1a-b779-c7f933e8a50e</stEvt:instanceID>
							<stEvt:when>2016-09-15T18:36:11-04:00</stEvt:when>
							<stEvt:softwareAgent>Adobe Illustrator CC 2015 (Macintosh)</stEvt:softwareAgent>
							<stEvt:changed>/</stEvt:changed>
						</rdf:li>
					</rdf:Seq>
				</xmpMM:History>
				<pdf:Producer>Adobe PDF library 15.00</pdf:Producer>
			</rdf:Description>
		</rdf:RDF>
	</x:xmpmeta>
	<sfw  xmlns="&ns_sfw;">
		<slices></slices>
		<sliceSourceBounds  height="89.7" width="327.9" bottomLeftOrigin="true" x="-397" y="-390.1"></sliceSourceBounds>
	</sfw>
</metadata>
<path fill="#B21212" d="M-757,823.2c-0.7,1.3-1.1,2.5-1.6,3.7c-1.2,2.8-2.4,5.7-3.6,8.5c-1.1,2.7-2.3,5.5-3.4,8.2
	c-1.1,2.7-2.3,5.4-3.4,8.1c-0.1,0.3-0.3,0.4-0.6,0.4c-0.7,0-1.3,0-2,0c-0.4,0-0.6-0.2-0.7-0.5c-1.2-3-2.3-6-3.5-9
	c-2.2-5.4-4.3-10.9-6.4-16.2c-1.4-3.6-2.8-7.1-4.3-10.6c-0.5-1.2-1-2.5-2-3.5c-0.8-0.8-1.9-1.3-2.9-1.7c-0.2-0.2-0.5-0.2-0.7-0.3
	c-0.6-0.2-1.5-0.2-1.7-0.6c-0.3-0.6-0.1-1.4-0.1-2.2c0-0.3,0-0.4,0.4-0.3c0.8,0.2,1.7,0.1,2.6,0.1c1.4,0.1,2.8,0.3,4.3,0.2
	c0.8-0.1,1.7,0.2,2.5,0.1c2.7-0.1,5.3-0.1,8-0.3c0.9-0.1,1.9,0,2.8-0.2c0.3-0.1,0.3,0.1,0.3,0.3c0,0.7,0,1.3,0,2
	c0,0.3-0.1,0.3-0.4,0.4c-1.2,0.2-2.5,0.6-3.7,0.9c-1.5,0.4-1.6,1.4-1.3,2.5c0.7,2.6,1.6,5.1,2.5,7.6c1.7,4.6,3.5,9.2,5.2,13.8
	c0.6,1.7,1.2,3.3,1.9,5c0.5-0.4,0.5-0.9,0.7-1.4c1.5-3.4,2.9-6.8,4.4-10.1c1.5-3.4,2.9-6.7,4.4-10.1c0.1-0.2,0.1-0.5,0-0.7
	c-0.8-1.8-1.6-3.6-2.6-5.3c-0.5-0.8-1.4-1.1-2.2-1.4c-0.9-0.3-1.8-0.7-2.8-0.9c-0.3-0.1-0.4-0.2-0.4-0.5c0-0.6,0-1.2,0-1.8
	c0-0.3,0.1-0.5,0.4-0.4c1,0.3,2.1,0.1,3.1,0.2c1.4,0.1,2.8,0.2,4.3,0.2c0.8,0,1.6,0.1,2.4,0.1c2.5,0,5-0.1,7.5-0.3
	c0.9-0.1,1.9,0.1,2.8-0.2c0.2-0.1,0.3,0.1,0.3,0.3c0,0.6,0,1.3,0,1.9c0,0.4-0.3,0.4-0.6,0.5c-1.3,0.2-2.5,0.4-3.7,1
	c-1.5,0.7-1.5,1.5-1.3,2.7c0.5,2.5,1.5,4.9,2.3,7.3c1.2,3.2,2.4,6.4,3.7,9.7c0.9,2.5,1.9,4.9,2.9,7.4c0,0.1,0.1,0.2,0.2,0.4
	c0.6-1.7,1.2-3.2,1.7-4.8c2.1-5.9,4.3-11.7,6.2-17.7c0.3-0.9,0.5-1.9,0.8-2.9c0.2-0.7-0.4-1.7-1.1-2.1c-0.8-0.4-1.6-0.6-2.4-0.9
	c-0.1,0-0.2,0-0.3-0.1c-0.3-0.2-0.3-2.4-0.1-2.6c0.1-0.1,0.2,0,0.3,0c1.6,0.1,3.2,0.2,4.8,0.3c0.7,0,1.4,0.1,2.1,0.1
	c2-0.1,4.1-0.1,6.1-0.4c0.7-0.1,1.3,0.1,2-0.1c0.2-0.1,0.2,0.2,0.2,0.3c0,0.3,0,0.6,0,0.9c0,1.4,0,1.4-1.3,1.7
	c-2.7,0.7-4.4,2.3-5.4,4.9c-1.6,4.3-3.3,8.5-4.9,12.7c-1.1,3-2.2,6-3.3,9c-1.6,4.4-3.3,8.8-4.9,13.2c-0.2,0.6-0.5,1.1-0.6,1.7
	c-0.1,0.4-0.3,0.4-0.6,0.4c-0.6,0-1.2,0-1.8,0c-0.5,0-0.7-0.1-0.9-0.6c-1.8-4.9-3.7-9.7-5.6-14.6c-1.5-4-3-8-4.5-12
	C-756.6,824.4-756.8,823.9-757,823.2z"/>
<path fill="#B21212" d="M-615.7,839.2c0.5-1.2,0.9-2.2,1.3-3.3c1.4-3.6,2.8-7.1,4.2-10.7c1.3-3.5,2.9-7,3.9-10.6
	c0.3-0.9,0.3-1.8,0.2-2.8c0-0.5-0.4-0.8-0.8-1.1c-0.8-0.5-1.7-0.6-2.6-0.9c-0.2-0.1-0.5-0.1-0.5-0.4c0-0.6,0-1.3,0-1.9
	c0-0.2,0.1-0.3,0.4-0.3c1.2,0.1,2.5,0.1,3.7,0.2c1.5,0.2,3,0.1,4.5,0.2c1.3,0.1,2.6-0.1,3.9-0.2c0.9-0.1,1.8-0.2,2.7-0.3
	c0.3,0,0.3,0.2,0.3,0.3c0,0.6,0,1.2,0,1.8c0,0.3-0.2,0.4-0.5,0.5c-0.8,0.3-1.5,0.5-2.3,0.8c-2.1,0.8-3.2,2.5-4,4.5
	c-1.3,3.3-2.7,6.5-4,9.8c-1.4,3.4-2.8,6.9-4.1,10.3c-1.4,3.5-2.8,6.9-4.1,10.4c-0.8,1.9-1.6,3.9-2.3,5.9c-0.2,0.5-0.4,0.7-0.9,0.6
	c-0.3,0-0.5,0-0.8,0c-1.7,0-1.2,0.2-1.9-1.3c-1.8-4.5-3.6-9.1-5.4-13.7c-1.3-3.2-2.6-6.5-3.9-9.7c-1.3-3.2-2.7-6.5-4.1-9.7
	c-0.6-1.3-1.2-2.7-1.9-4c-0.9-1.6-2.2-2.7-4-3.2c-0.7-0.2-1.3-0.5-2-0.6c-0.1,0-0.2-0.1-0.3-0.1c-0.3,0-0.4-0.3-0.4-0.6
	c0.1-0.7-0.2-1.4,0.2-2.1c0-0.1,0.2,0,0.3,0c0.8,0.2,1.6,0.1,2.4,0.2c1.5,0.1,3.1,0.3,4.6,0.2c0.9,0,1.7,0.2,2.6,0.1
	c2.5-0.1,5-0.1,7.5-0.3c1-0.1,2,0,3-0.2c0.3-0.1,0.3,0.1,0.4,0.3c0,0.1,0,0.2,0,0.3c0.1,2,0.1,2-2,2.4c-0.8,0.1-1.6,0.2-2.4,0.6
	c-0.9,0.4-1.3,1.2-0.9,2.1c0.9,2.8,1.9,5.6,2.9,8.3c0.8,2.1,1.6,4.2,2.4,6.3c1.5,3.6,2.9,7.2,4.4,10.7
	C-616,838.5-615.9,838.7-615.7,839.2z"/>
<path fill="#B21212" d="M-525.8,816.5c2-2.4,4-4.7,6.2-6.8c1.3-1.3,2.8-2.2,4.6-2.6c2.1-0.4,4.1-0.1,6.1,0.6
	c0.4,0.1,0.4,0.5,0.4,0.8c-0.6,2.4-0.9,4.9-1.4,7.3c0,0,0,0,0,0.1c-0.3,1.8-0.4,1.9-2.2,1.7c-0.3,0-0.4-0.2-0.5-0.5
	c-0.1-0.6-0.4-1.2-0.6-1.8c-0.8-1.9-2.7-2.2-4.3-1.6c-2,0.8-3.5,2.2-4.8,3.8c-1.5,1.8-2.4,3.8-2.9,6c-0.3,1.3-0.5,2.7-0.5,4.1
	c0,2.3,0,4.6,0,7c0,2.1,0.1,4.1,0.2,6.2c0,1.2,0.1,2.4,0.4,3.6c0.3,1.4,1.1,2.2,2.4,2.6c1.6,0.5,3.2,1,4.8,1.3
	c0.6,0.1,0.8,0.4,0.7,0.9c0,0.3,0,0.6,0,0.9c0,0.9,0,1-1,0.9c-1.7-0.2-3.3-0.2-5-0.3c-2.4-0.2-4.7-0.1-7.1-0.1
	c-2.8,0-5.6,0.2-8.4,0.3c-0.6,0-1.1,0.1-1.7,0.1c-0.5,0-0.6-0.2-0.6-0.6c0-0.3,0-0.6,0-0.9c0-1.3-0.2-1,1.1-1.4
	c1.6-0.4,3.3-0.9,4.9-1.4c1.1-0.4,1.7-1.1,1.9-2.2c0.1-0.7,0.2-1.4,0.2-2.1c0-1.6-0.1-3.2,0-4.8c0.2-4.5,0.1-9,0.1-13.5
	c0-2.1-0.1-4.1-0.1-6.2c0-0.7-0.1-1.5-0.3-2.2c-0.2-1.1-1-1.7-2.1-1.7c-1.4,0-2.8,0.1-4.2,0.4c-0.4,0.1-0.8,0-1.2,0.1
	c-0.2,0-0.2,0-0.2-0.1v-0.1c-0.2-2.1-0.1-2.3,1.9-2.7c2.8-0.7,5.5-1.7,8.1-2.9c1.5-0.7,3-1.4,4.3-2.3c0.3-0.2,0.5-0.2,0.7,0.1
	c0.3,0.3,0.9,0.2,0.9,0.9c-0.3,2.3-0.5,4.6-0.7,7C-525.8,814.9-525.8,815.7-525.8,816.5z"/>
<path fill="#B21212" d="M-734.3,788.3c1-0.6,1.5-1.5,2.5-1.9c1.7-0.7,4-0.1,4.5,1.9c0.7-0.4,1.1-1.2,1.8-1.6
	c1.6-0.9,3.4-0.8,4.7,0.5c0.5,0.5,0.7,1.2,0.7,2c0,2.1,0,4.2,0,6.3c0,1.1,0.2,1.4,1.3,1.5c0.3,0,0.5,0,0.5,0.4
	c0.1,0.4,0,0.6-0.5,0.5c-1.5-0.2-3-0.2-4.5,0c-0.2,0-0.6,0.2-0.7-0.2c-0.1-0.4,0.1-0.6,0.5-0.7c1.2-0.4,1.1-0.2,1.3-1.8
	c0.1-1.6,0.1-3.2,0.1-4.8c0-0.6,0-1.3-0.5-1.9c-1.2-1.4-3.4-0.6-4.1,0.6c-0.4,0.7-0.5,1.5-0.6,2.3c0,1.2,0,2.4,0,3.6
	c0,0.5,0.1,0.9,0.2,1.4c0.1,0.5,0.6,0.4,1,0.6c0.1,0.1,0.3,0,0.5,0c0.2,0.1,0.5,0.2,0.4,0.5c-0.1,0.3-0.3,0.3-0.6,0.3
	c-1.6-0.2-3.2-0.2-4.8,0c-0.2,0-0.5,0.2-0.5-0.2c0-0.2-0.1-0.5,0.3-0.6c0,0,0,0,0.1,0c1.4-0.2,1.6-1.2,1.5-2.3c0-1.6,0-3.1,0-4.7
	c0-1.9-1.7-2.6-3.1-2c-1.3,0.6-1.9,1.5-2,2.9c-0.2,1.7,0.2,3.4,0,5.2c0,0.3,0.2,0.5,0.5,0.6c0.4,0.1,0.7,0.3,1.1,0.3
	c0.2,0,0.5,0.2,0.4,0.5c-0.1,0.3-0.3,0.3-0.6,0.3c-1.6-0.2-3.1-0.2-4.7,0c-0.2,0-0.6,0.3-0.7-0.3c0-0.4,0.2-0.5,0.5-0.6
	c1.2-0.3,1.3-0.4,1.3-1.7c0-1.9,0-3.8,0-5.7c0-1.3-0.3-1.6-1.6-1.4c-0.1,0-0.4,0.4-0.4-0.1c0-0.3-0.1-0.5,0.3-0.6
	c1.2-0.2,2.2-0.7,3.3-1.3c0.1-0.1,0.2-0.2,0.4,0c0.1,0.1,0.3,0.3,0.2,0.5C-734.4,787.2-734.2,787.7-734.3,788.3z"/>
<path fill="#B21212" d="M-592,847.3c0.1,2.7-2.4,5.1-5.2,5.1c-2.9-0.1-5.1-2.5-5.1-5.1c0-2.9,2.4-5.2,5.2-5.2
	C-594.5,842.1-592,844.3-592,847.3z"/>
<path fill="#B21212" d="M-739.1,780.4c1-0.1,1.8,0.3,2.6,0.6c0.4,0.1,0.3,0.3,0.2,0.6c-0.2,0.6-0.4,1.2-0.7,1.8
	c0,0.1,0.1,0.4-0.2,0.3c-0.2-0.1-0.6,0.1-0.6-0.3c0-0.2-0.2-0.5-0.3-0.7c-0.4-0.9-0.9-1.2-2-1.2c-0.6,0-1.3,0.6-1.5,1.4
	c-0.3,1.1-0.1,2.3-0.2,3.4c0,0.3,0.2,0.3,0.4,0.3c0.7,0,1.3,0,2,0c0.8,0,0.8,0,0.5,0.8c-0.2,0.3-0.4,0.6-0.8,0.5
	c-0.7,0-1.5-0.2-1.9,0.1c-0.4,0.3-0.2,1.2-0.2,1.9c-0.1,1-0.1,2,0.1,3.1c0.1,0.9,0.1,1.9,0,2.9c-0.1,0.7,0.3,1,0.9,1.1
	c0.3,0.1,0.6,0.1,1,0.2c0.3,0.1,0.4,0.2,0.3,0.5c-0.1,0.3-0.3,0.3-0.5,0.3c-1.6-0.2-3.3-0.2-4.9,0c-0.2,0-0.5,0.2-0.6-0.2
	c0-0.3,0-0.6,0.4-0.6c1.1-0.2,1.3-0.4,1.3-1.6c0-2.3,0-4.6,0-6.9c0-0.6-0.2-0.7-0.7-0.7c-0.3,0-0.7,0.2-0.9-0.2
	c-0.1-0.5,0.3-0.6,0.6-0.7c0.9-0.3,1.2-1,1-1.8c-0.4-2.3,1.9-4.3,3.8-4.8C-739.6,780.4-739.3,780.4-739.1,780.4z"/>
<path fill="#B21212" d="M-653,863.6c0-0.8,0-1.6,0-2.4c0-0.5-0.2-0.8-0.7-0.8c-0.2,0-0.3-0.1-0.5-0.1c-0.1-0.1-0.1-0.2-0.1-0.3
	s0.2-0.1,0.3-0.1c1,0.1,2.1,0.2,3.1,0c0.1,0,0.3-0.1,0.3,0.1s0,0.3-0.2,0.3c-1.4,0-1.1,1-1.1,1.8c0,1.1,0,2.1,0,3.2
	c0,1.5,0.6,2,1.7,2.1c1.6,0.3,3.1-0.3,3-2.4c0-1.3,0-2.5,0-3.8c0-0.5-0.1-0.8-0.7-0.8c-0.2,0-0.3-0.1-0.4-0.2
	c-0.1,0-0.2-0.2-0.1-0.2c0.1-0.1,0.1-0.2,0.3-0.2c0.9,0.2,1.9,0.2,2.8,0c0.2,0,0.2,0.2,0.2,0.3c0,0.1-0.1,0.1-0.2,0.1
	c-1.3,0.1-1,1.2-1,2c-0.1,1.1,0,2.1,0,3.2c0,1.5-0.9,2.4-2.4,2.7c-0.9,0.2-1.7,0.1-2.5-0.2c-1.2-0.4-1.7-1.1-1.7-2.4
	C-653,865-653,864.3-653,863.6z"/>
<path fill="#B21212" d="M-707.6,861.3c0,0.4,0,0.6,0,0.9c0,0.2,0.1,0.4-0.2,0.3c-0.2,0-0.3-0.1-0.4-0.3c-0.7-1.8-1.2-2.1-3.3-1.9
	c-1.1,0.1-2,1.2-2.3,2.5c-0.3,1.7,0,3.1,1.5,4.1c1.2,0.7,2.5,0.5,3.7,0c0.2-0.1,0.4-0.2,0.6-0.3c0.2-0.1,0.3-0.1,0.4,0.2
	c0.1,0.2,0,0.3-0.1,0.4c-1.9,1-4,1.5-5.9,0.2c-0.8-0.6-1.1-1.3-1.4-2.2c-0.7-2.4,0.8-4.7,3-5.4c1.4-0.4,2.8-0.2,4.1,0.3
	C-707.3,860.4-707.8,861-707.6,861.3z"/>
<path fill="#B21212" d="M-781,861.5c0,0.2,0,0.4,0,0.6s0.1,0.4-0.2,0.4s-0.4-0.2-0.4-0.4c-0.1-0.8-0.5-1.5-1.4-1.7
	c-1.1-0.1-2.2-0.3-3.1,0.5c-1.1,0.9-1.4,2.2-1.2,3.5c0.2,1.5,1,2.5,2.5,2.9c1,0.2,2,0,3-0.4c0.1-0.1,0.3-0.2,0.4-0.2
	c0.2-0.1,0.3,0,0.4,0.2c0.1,0.2,0,0.3-0.1,0.3c-1.9,1-4,1.6-5.9,0.2c-0.8-0.5-1.1-1.3-1.4-2.2c-0.6-2.4,0.8-4.7,3-5.3
	c1.4-0.4,2.8-0.1,4.1,0.3c0.5,0.2,0.3,0.6,0.3,0.9C-781,861.2-781,861.4-781,861.5z"/>
<path fill="#B21212" d="M-602.9,863.8c-0.2,2.9,2.2,4.3,4.7,3.5c0.4-0.1,0.7-0.2,1.1-0.4c0.2-0.1,0.3-0.1,0.5,0.1
	c0.1,0.2-0.1,0.3-0.2,0.4c-0.6,0.4-1.2,0.6-1.9,0.8c-1.3,0.4-2.6,0.2-3.8-0.5c-1.3-0.8-2-2.8-1.6-4.3c0.5-2.1,1.7-3,3.4-3.4
	c1.1-0.3,2.2,0,3.3,0.2c0.5,0.1,0.7,0.4,0.7,0.9s-0.1,0.9,0.1,1.4c0.1,0.1,0,0.2-0.1,0.2c-0.1,0-0.3,0.1-0.4-0.1
	c-0.1-0.1-0.1-0.2-0.1-0.3c-0.2-0.9-0.7-1.6-1.6-1.7c-1.2-0.1-2.5-0.2-3.4,1C-602.8,862.1-603.1,862.9-602.9,863.8z"/>
<path fill="#B21212" d="M-731.1,861.1c-0.1,0.3,0.2,0.9-0.3,1c-0.4,0.1-0.3-0.5-0.4-0.8c-0.2-0.6-0.9-1-1.7-1
	c-0.7,0.1-1.4,0.6-1.4,1.2c0,0.5,0.2,1,0.7,1.2c0.7,0.3,1.4,0.7,2.1,1.1c0.6,0.4,1.1,0.8,1.3,1.6c0.2,1-0.3,1.8-1.1,2.4
	c-1.3,0.9-2.6,0.5-4,0.1c-0.2,0-0.3-0.2-0.3-0.4c0.2-0.5,0.1-1.1,0.1-1.6c0-0.1,0-0.3,0.2-0.3s0.2,0.1,0.3,0.2
	c0.1,0.3,0.1,0.6,0.3,0.9c0.5,0.9,1.2,0.9,2.1,0.8c0.7-0.1,1.1-0.5,1.3-1.1c0.2-0.7-0.2-1.2-0.7-1.5c-0.6-0.4-1.3-0.7-2-1
	c-0.9-0.4-1.5-1-1.4-2.1c0.1-1,0.7-1.5,1.7-1.9c1-0.4,2-0.1,2.9,0.1C-730.9,860.2-731.3,860.8-731.1,861.1z"/>
<path fill="#B21212" d="M-742.7,861.1c-0.1,0.3,0.2,0.9-0.3,1c-0.4,0.1-0.3-0.5-0.5-0.8c-0.2-0.6-0.9-1-1.7-1
	c-0.7,0-1.4,0.5-1.4,1.2c0,0.5,0.2,1,0.7,1.2c0.7,0.3,1.4,0.7,2.1,1.1c0.6,0.4,1.1,0.8,1.3,1.6c0.2,1-0.3,1.8-1.1,2.4
	c-1.3,0.9-2.6,0.5-3.9,0.1c-0.2-0.1-0.4-0.2-0.3-0.4c0.2-0.5,0.1-1,0.1-1.5c0-0.1,0-0.3,0.2-0.3s0.2,0.1,0.3,0.2
	c0.1,0.3,0.2,0.6,0.3,0.9c0.4,0.9,1.2,0.9,2,0.9c0.7-0.1,1.1-0.5,1.3-1.1c0.2-0.7-0.2-1.2-0.7-1.5c-0.6-0.4-1.3-0.7-2-1
	c-0.9-0.4-1.5-1-1.4-2.1c0.1-1,0.7-1.5,1.6-1.9c1-0.4,2-0.1,2.9,0.1C-742.5,860.2-742.9,860.8-742.7,861.1z"/>
<path fill="#B21212" d="M-680.2,865.9c-0.3,0.7-0.3,1.7-0.8,2s-1.4,0.1-2.1,0.1c-1.4,0-2.9,0-4.5,0c0.2-0.3,0.4-0.4,0.7-0.4
	c0.5,0,0.7-0.3,0.7-0.8c0-1.9,0-3.8,0-5.7c0-0.5-0.2-0.7-0.7-0.7c-0.2,0-0.3-0.1-0.5-0.1c-0.2-0.1-0.2-0.2-0.2-0.3
	c0-0.2,0.2-0.1,0.3-0.1c1.1,0.2,2.1,0.2,3.2,0c0.2,0,0.4,0,0.5,0.3c0,0,0,0.1-0.1,0.1c-1.6,0.4-1.5-0.1-1.5,1.8c0,1.6,0,3.2,0,4.9
	c0,0.4,0.1,0.6,0.6,0.5c0.7,0,1.3,0,2,0s1.1-0.3,1.4-0.9C-681,866.3-680.9,865.8-680.2,865.9z"/>
<path fill="#B21212" d="M-626.9,868c0.1-0.1,0.1-0.2,0.1-0.2c1.2-0.5,1.3-0.5,1.2-1.9c0-1.2,0.2-2.3,0.2-3.5c0-0.6-0.2-1.1-0.2-1.7
	c0-0.2-0.1-0.4-0.4-0.4c-0.2,0-0.4,0-0.6-0.1c-0.1-0.1-0.3,0-0.3-0.2s0.2-0.3,0.4-0.3c1.1,0.2,2.2,0.2,3.3,0c0.1,0,0.3-0.1,0.3,0.1
	s0,0.3-0.2,0.3c-0.1,0-0.3,0.1-0.4,0.1c-0.9-0.1-1,0.5-1,1.1c0,1.8,0,3.6,0,5.4c0,0.4,0.1,0.5,0.5,0.5c0.7,0,1.4,0,2.1,0
	c0.6,0,1.1-0.2,1.4-0.8c0.2-0.3,0.3-0.9,0.7-0.7c0.4,0.2-0.1,0.6-0.2,1c-0.1,1.1-0.8,1.2-1.7,1.2c-1.6-0.1-3.2,0-4.9,0
	C-626.6,868-626.7,868-626.9,868z"/>
<path fill="#B21212" d="M-775.5,868c0.5-0.4,1.2-0.2,1.4-0.6c0.2-0.4,0.1-1,0.1-1.5c-0.1-0.9,0.2-1.8,0.2-2.8c0-0.8-0.1-1.5-0.2-2.3
	c0-0.3-0.2-0.4-0.5-0.4c-0.2,0-0.4,0-0.5-0.1c-0.1-0.1-0.3,0-0.3-0.2s0.2-0.3,0.4-0.2c1.1,0.2,2.2,0.2,3.3,0c0.1,0,0.3-0.1,0.3,0.2
	c0,0.2-0.1,0.3-0.2,0.3c-0.1,0-0.3,0.1-0.4,0.1c-0.9-0.1-0.9,0.5-0.9,1.1c0,1.8,0,3.6,0,5.4c0,0.5,0.2,0.6,0.6,0.6
	c0.6,0,1.3,0,1.9,0c0.7,0,1.2-0.2,1.5-0.9c0.1-0.3,0.3-0.9,0.7-0.7c0.3,0.2-0.1,0.6-0.2,0.9c-0.1,1.2-0.8,1.3-1.8,1.2
	c-1.5-0.1-3,0-4.5,0C-774.8,868-775.1,868-775.5,868z"/>
<path fill="#B21212" d="M-720.9,868c-1.4,0-2.7,0-4.1,0c0.3-0.2,0.5-0.4,0.7-0.4c0.6,0,0.8-0.2,0.7-0.8c0-1.9,0-3.7,0-5.6
	c0-0.5-0.1-0.8-0.6-0.8c-0.2,0-0.3-0.1-0.5-0.1s-0.2-0.1-0.2-0.3s0.2-0.2,0.3-0.1c1.1,0.2,2.1,0.2,3.2,0c0.2,0,0.3,0.1,0.3,0.2
	c0.1,0.2-0.1,0.2-0.2,0.2c-1.2,0.4-1.2,0.4-1.2,1.8c0,1.5,0.1,2.9,0,4.4c0,0.8,0.3,1.2,1,1.3C-721.3,867.8-721.1,867.7-720.9,868z"
	/>
<path fill="#B21212" d="M-610.1,868c-1.2,0-2.4,0-3.7,0c0.1-0.3,0.4-0.4,0.6-0.4c0.5,0,0.7-0.3,0.7-0.7c0-1.9,0-3.8,0-5.7
	c0-0.5-0.2-0.7-0.7-0.7c-0.1,0-0.2,0-0.3,0c-0.1-0.1-0.5-0.1-0.4-0.4c0.1-0.2,0.3-0.1,0.5-0.1c0.9,0.1,1.9,0.1,2.8,0
	c0.2,0,0.4-0.2,0.4,0.1c0.1,0.2-0.1,0.2-0.3,0.3c-0.2,0-0.3,0.1-0.5,0.1c-0.4,0-0.5,0.2-0.5,0.7c0,1.9,0,3.8,0,5.7
	c0,0.5,0,0.9,0.7,0.8c0.2,0,0.4,0.1,0.6,0.2C-610.1,867.9-610.1,867.9-610.1,868z"/>
<path fill="#B21212" d="M-536.4,868c-1.2,0-2.4,0-3.7,0c0.2-0.4,0.5-0.4,0.8-0.4c0.4,0,0.6-0.2,0.6-0.6c0-1.9,0-3.8,0-5.7
	c0-0.5-0.1-0.8-0.7-0.8c-0.1,0-0.2-0.1-0.3-0.1c-0.2-0.1-0.3-0.1-0.2-0.3c0.1-0.2,0.2-0.1,0.4-0.1c1,0.2,2.1,0.2,3.1,0
	c0.1,0,0.2-0.1,0.3,0.1c0,0.1,0,0.2-0.1,0.3c-0.2,0-0.4,0.1-0.5,0.1c-0.5,0-0.6,0.3-0.6,0.8c0,1.9,0,3.9,0,5.8
	c0,0.4,0.1,0.6,0.6,0.6c0.2,0,0.5,0.1,0.8,0.2C-536.4,867.9-536.4,867.9-536.4,868z"/>
<path fill="#B21212" d="M-764.9,795.5c0.8,0,1.4,0.6,1.4,1.4s-0.6,1.4-1.4,1.4c-0.7,0-1.3-0.6-1.4-1.4
	C-766.3,796.1-765.7,795.5-764.9,795.5z"/>
<path fill="#B21212" d="M-473.1,811.9c1.5-0.1,3.1,0.2,4.6,0.3c0.3,0,0.4,0,0.5-0.2c0.6-1.2,1.2-2.5,1.8-3.7c0.3-0.5,0-1-0.6-1
	c-0.5-0.1-1.1,0.1-1.6,0.1c-3.1,0.1-6.1,0.1-9.2,0.2c-1.1,0-2.1-0.2-3.1-0.5c-2.2-0.7-4.5-1-6.8-1.1c-1.5,0-2.9,0.1-4.3,0.3
	c-2.1,0.2-4,0.7-5.8,1.6c-4.3,2.1-7.3,5.3-8.6,10c-0.6,2.1-0.7,4.3-0.4,6.5c0.2,1.6,0.6,3.2,1.4,4.6c1.2,2.1,2.8,3.8,4.9,5.1
	c0.5,0.2,1.3,0.3,1.3,0.8s-0.7,0.7-1.1,1.1c-1.9,1.8-3.9,3.5-6,5.1c-0.6,0.5-1.1,1.1-1.1,1.9c-0.1,2.6,1.1,4.5,3.3,5.7
	c0.9,0.6,1.9,0.9,3.1,1.2c-0.3,0.1-0.4,0.2-0.5,0.3c-2.5,1.7-4.9,3.4-7.4,5.1c-0.7,0.5-1.5,0.9-1.8,1.7c-1,2.2-0.9,4.3,0.3,6.3
	c1.6,2.8,4.2,4.7,7.3,5.6c3.9,1.2,7.9,1.4,11.9,1.1c2-0.1,4.1-0.3,6.1-0.7c3.8-0.7,7.4-2,10.7-4.2c1.8-1.2,3.6-2.6,4.9-4.4
	c2.2-3.1,3-6.6,2.3-10.3c-0.6-2.9-2.2-5-5.1-6c-2-0.7-4.1-1-6.2-1c-2.4,0-4.7,0-7.1,0.1c-2.8,0.2-5.7,0-8.5-0.2
	c-1.2-0.1-2.4-0.2-3.5-0.5c-1.5-0.4-2.4-1.8-1.3-3.5c0.7-1.1,1.8-2,2.7-3c0.2-0.1,0.3-0.1,0.5-0.1c2.1,0.1,4.2,0.5,6.4,0.3
	c1.9-0.2,3.9-0.4,5.8-1c2.1-0.7,4-1.7,5.7-3.1c1.7-1.5,3-3.1,3.9-5.1c1.1-2.5,1.6-5.1,1.2-7.9c-0.2-1.7-0.6-3.3-1.3-4.8
	c-0.4-0.9-0.9-1.8-1.4-2.8C-474.4,811.7-473.8,812-473.1,811.9z M-498.2,851.5c1.2-1.1,2.4-1.4,3.8-1.3c1.7,0,3.5-0.1,5.3-0.1
	c2.1,0,4.2,0,6.3,0c1.7,0,3.3,0.2,4.9,0.6c2.3,0.5,3.7,2.5,3.8,4.7c0.1,3.6-1.7,5.9-4.7,7.6c-2.5,1.4-5.2,2.2-8.1,2.5
	c-1.4,0.1-2.8,0.3-4.3,0.3c-2.6-0.1-5.2-0.4-7.6-1.5c-1.8-0.8-3.4-1.9-4.1-3.9c-0.4-1.2-0.3-2.4,0.3-3.5
	C-501.6,854.7-499.9,853.1-498.2,851.5z M-480.8,823c-0.2,2.5-0.5,4.9-2,7c-1.8,2.5-4.8,3.7-7.6,3.2c-4.3-0.8-6.5-3.6-7.6-7.6
	c-0.5-1.7-0.6-3.4-0.7-5.1c0.1-2.3,0.3-4.6,1.5-6.7c1.3-2.3,3.3-3.7,5.9-4.2c3.9-0.7,7.2,1.3,8.9,4.5c0.7,1.3,1.1,2.8,1.3,4.3
	C-480.9,819.9-480.7,821.5-480.8,823z"/>
<path fill="#B21212" d="M-678.5,843.3c-1.6,0.3-3.3,0.5-4.9,0.4c-1-0.1-1.7-0.8-2-1.7c-0.2-0.9-0.1-1.8-0.2-2.7
	c-0.2-2.4-0.2-4.7-0.2-7.1c-0.1-8.9-0.1-17.7,0.1-26.6c0-1.3,0.1-2.7,0.1-4.1c0.1-3.6,0.2-7.1,0.3-10.6c0-1.2,0.2-2.3,0.2-3.5
	c0.1-0.6,0-1.4,0.2-2c0.2-0.6-0.1-0.9-0.5-1.2c-0.4-0.4-0.7-0.5-1.3-0.2c-2.6,1.3-5.2,2.7-8,3.7c-1.9,0.7-3.8,1.2-5.7,1.8
	c-0.3,0-0.6,0.1-0.6,0.5c0,0.6,0,1.2,0,1.8c0,0.3,0,0.5,0.3,0.4c0.5-0.2,1.1-0.1,1.6-0.2c1.3-0.2,2.6-0.5,3.9-0.2
	c0.9,0.2,1.7,1.1,1.9,1.9c0.2,1.3,0.1,2.6,0.2,3.9c0.1,3.2,0,6.3,0,9.5c0,0.6-0.1,0.8-0.8,0.6c-3.3-1-6.6-1.9-10.1-1.5
	c-2.1,0.3-4.1,0.8-6,1.7c-3.3,1.6-6.3,3.8-8.7,6.6c-1.2,1.3-2.2,2.7-3.1,4.2c-2.2,3.7-2.9,7.9-3.1,12.2c0,2.2,0.2,4.4,0.6,6.6
	c0.7,4.2,2.5,7.8,5.8,10.6c2.9,2.3,6.2,3.4,9.8,3.6c1,0,2.1-0.1,3.2-0.3c1.7-0.2,3.3-0.8,4.8-1.7c2.6-1.6,4.8-3.7,7.2-5.7
	c0.2,0.9-0.1,1.8,0.1,2.9c0,1-0.1,2-0.3,3c-0.2,0.7,0,1.2,0.6,1.6c0.6,0.4,0.9-0.1,1.3-0.3c4.1-2.1,8.3-3.7,12.7-5
	c1.5-0.4,1.5-0.4,1.5-2.1C-677.6,843.2-677.7,843.1-678.5,843.3z M-693.3,832.3c-0.1,2-0.1,4-0.7,6c-0.5,1.6-1.4,3-2.8,4.1
	c-1.6,1.3-3.3,2.2-5.3,2.6c-3.1,0.6-6,0-8.6-1.9c-2.9-2.1-4.6-5-5.5-8.4c-0.4-1.4-0.6-2.9-0.7-4.4c-0.1-1.3-0.2-2.5-0.1-3.8
	c0.2-3,0.5-6.1,2-8.8c1.7-3.3,4.2-5.7,7.9-6.5c4.4-1,8.5-0.2,11.8,3.2c1.2,1.2,1.7,2.7,1.9,4.4c0.2,2.5,0,5,0.1,7.1
	C-693.3,828.3-693.2,830.3-693.3,832.3z"/>
<path fill="#B21212" d="M-542.5,825.9c-0.2-2.8-0.6-5.5-1.6-8.1c-1.6-4.3-4.4-7.4-8.4-9.6c-3.5-1.9-7.4-2.6-11.9-2.6
	c-0.8,0-2.2,0.1-3.6,0.4c-2.2,0.3-4.4,0.9-6.4,1.8c-2.6,1.2-5,3-6.9,5.2c-1.2,1.3-2.2,2.8-3,4.4c-1.8,3.6-2.4,7.5-2.6,11.5
	c-0.1,1,0,1.9,0.1,2.9c0.1,1.7,0.3,3.4,0.7,5c0.7,3,1.9,5.9,4,8.3c1.8,2.1,3.9,3.7,6.3,4.9c2.7,1.3,5.6,1.9,8.6,2.1
	c2.5,0.1,5-0.1,7.4-0.6c1.9-0.4,3.7-1,5.4-1.9c2.6-1.3,4.8-3.1,6.7-5.4c1.8-2.2,3.2-4.7,4-7.4C-542.7,833.3-542.2,829.6-542.5,825.9
	z M-552.8,840c-1.6,4.3-4.5,7.1-9.1,7.9c-3.4,0.7-6.5,0.1-9.3-1.9c-2.3-1.7-3.7-4-4.8-6.6c-0.9-2.3-1.4-4.7-1.6-7.2
	c-0.2-2.7-0.3-5.3-0.2-8c0.1-2.9,0.5-5.8,1.9-8.3c2-3.6,4.9-5.8,9.1-6.3c2.4-0.3,4.6,0.1,6.7,1.1c2.4,1.2,4.2,3.1,5.6,5.3
	c1.6,2.6,2.4,5.5,2.7,8.5c0.2,1.3,0.4,2.3,0.4,3.4c0,0.7,0.1,1.3,0.1,2C-551.4,833.3-551.5,836.8-552.8,840z"/>
<path fill="#B21212" d="M-635.5,843.5C-635.5,843.4-635.5,843.4-635.5,843.5c-0.2-0.6-0.5-0.6-0.9-0.3c-1.3,0.8-2.6,1.5-4.1,1.9
	c-1.2,0.4-2.8-0.4-3.3-1.6c-0.3-0.8-0.5-1.7-0.5-2.5c0-3.1-0.1-6.1,0.1-9.2c0.2-2.7,0.1-5.3,0.2-8c0.1-1.9,0-3.9,0-5.8
	c-0.1-1.7-0.3-3.4-0.9-5.1c-0.6-1.7-1.6-3.2-3.1-4.3c-2.3-1.7-5-2.3-7.8-2.5c-2.3-0.1-4.5,0.2-6.8,0.6c-3.5,0.7-6.8,1.9-10,3.3
	c-0.2,0.1-0.4,0.3-0.4,0.6c0,0.9-0.2,1.9-0.3,2.8c-0.1,1.8-0.4,3.6-0.8,5.4c-0.2,1-0.2,1,0.7,1c0.3,0,0.5,0,0.8,0.1
	c1.1,0.3,1.6,0,2-1c0.4-0.9,0.9-1.8,1.4-2.6c1-1.6,2.2-3.1,3.9-4.2c2.4-1.6,5-1.9,7.8-1.3c1.6,0.3,3.1,0.9,4,2.4
	c1.5,2.3,1.6,4.9,1.7,7.6c0,0.3-0.3,0.4-0.5,0.5c-0.8,0.3-1.6,0.7-2.4,1c-4.9,2-9.8,4.3-14.6,6.7c-1.8,0.9-3.6,1.9-5,3.6
	c-1.9,2.2-2.8,4.6-3,7.4c-0.1,1.5,0,2.9,0.5,4.3c1.1,3.5,3.5,5.7,7,6.8c1.7,0.5,3.5,0.7,5.3,0.5c1.9-0.3,3.6-0.7,5.3-1.5
	c2.2-1.2,4.2-2.7,6.2-4.1c0.4-0.3,0.8-0.7,1.3-0.8c0,0.9,0.3,1.7,0.6,2.6c0.5,1.3,1.2,2.5,2.5,3.2c1.1,0.6,2.3,0.8,3.5,0.8
	c2.1,0,3.8-0.8,5.3-2.2c1.3-1.2,2.6-2.4,4-3.5C-634.5,844.9-634.4,845-635.5,843.5z M-651.8,836c0,1.2-0.2,2.3-0.5,3.5
	c-0.4,1.6-1.5,2.9-2.8,3.8c-1.8,1.2-3.6,2.3-5.7,2.7c-3.5,0.6-6-0.7-7.4-3.9c-0.9-2.1-0.9-4.3,0-6.5c0.7-1.7,2-3,3.5-4
	c2.5-1.7,5.1-2.9,7.8-4.2c1.6-0.8,3.3-1.6,5.1-2.4C-651.8,828.7-651.8,832.4-651.8,836z"/>
<path fill="#B21212" d="M-779.6,791.2c-0.6-0.9-1.5-1.5-2.4-2.2c-0.4-0.2-0.8-0.3-0.1-0.8c1.1-0.8,2.1-1.6,2.6-2.9
	c0.6-1.8-0.3-3.5-1.7-4.1c-2.1-0.9-4.2-0.8-6.1,0.7c-1.1,0.9-2,2.8-1.1,4.5c0.6,1.3,1.8,2,2.9,2.9c-1.1,0.6-1.9,1.3-2.7,2.1
	c-1.7,1.8-1.3,4.7,0.7,6s6.2,1,7.7-1.4C-779,794.8-778.7,792.5-779.6,791.2z M-786.1,785.7c-0.4-0.5-0.6-1-0.5-1.5
	c-0.2-1.2,0.9-2.1,2-2.3c0.6-0.1,1.2,0,1.8,0.1c1.6,0.5,2,2.3,1.5,3.5c-0.4,1-1.1,1.7-2,2.3c-0.1,0.1-0.2,0.2-0.4,0.1
	C-784.6,787.1-785.5,786.6-786.1,785.7z M-783.2,797c-1.1,0.4-2.7-0.3-3.5-1.3c-0.8-1.1-0.6-3.2,0.5-4.3c0.5-0.5,0.9-1.2,1.5-1.3
	c0.6-0.1,1,0.6,1.5,1c1.2,0.7,2,1.7,2,3.5C-781.1,795.8-782.1,796.6-783.2,797z"/>
<path fill="#B21212" d="M-749.6,785.3c-0.2-1.1-0.5-2.1-1.3-3c-2.3-2.6-6.6-2-8.5,0.9c-1.3,1.9-1.4,5.3,0.1,7.2
	c0.8,1,2.7,2.1,4.4,1.4c1-0.4,1.8-1.2,2.7-1.8c-1,3.6-3.3,5.8-6.5,7c-0.7,0.3-0.4,0.7-0.3,1c0.1,0.6,0.4,0.1,0.6,0.1
	c0.5-0.1,1-0.3,1.5-0.5c2-0.9,3.9-2,5.2-3.9C-750,791.1-749.2,788.4-749.6,785.3z M-752.4,788.7c-1,1.8-3.7,2.1-5,0.3
	c-0.5-0.9-0.9-1.9-0.8-3.3c-0.1-0.8,0-1.7,0.5-2.5c1-1.6,3.1-2.1,4.6-0.3C-751.9,784.3-751.5,787.1-752.4,788.7z"/>
<path fill="#B21212" d="M-766,785.1c-0.3-2.1-1.9-4-4.1-4.4c-2-0.3-4.5,0.6-5.6,2.3c-1.4,2.1-1.6,4.4-0.5,6.6
	c0.9,1.9,3.2,3.1,5.5,1.9c0.7-0.4,1.3-1,2.1-1.6c-0.6,2.1-1.6,3.8-2.9,5.1c-1.1,0.9-2.2,1.7-3.6,2.1c-0.7,0.2-0.4,0.6-0.3,0.9
	c0.2,0.5,0.5,0.2,0.8,0.1c0.3-0.1,0.6-0.3,0.9-0.4c1.4-0.5,2.8-1.2,3.9-2.2C-766.8,792.7-765.5,789.2-766,785.1z M-768.8,788.7
	c-0.4,0.7-1.4,1.7-2.6,1.5c-1.8,0.2-3-1.6-3.2-3.1c-0.1-0.9-0.2-1.8,0-2.7c0.3-1.3,1.2-2.6,2.8-2.6c1.1,0,2,0.5,2.5,1.5
	C-768.3,785-767.8,786.8-768.8,788.7z"/>
<path fill="#B21212" d="M-546,863.2c-0.1-1-0.4-1.9-1.2-2.6s-1.9-0.7-2.8-0.7c-1.6,0.1-3.1,0.2-4.6,0c-0.1-0.1-0.3-0.1-0.3,0.1
	s0,0.3,0.2,0.3s0.3,0.1,0.5,0.1c0.5,0,0.6,0.2,0.6,0.7c0,1.8,0,3.6,0,5.4c0,0.7,0,1.2-0.9,1.1c-0.1,0-0.3,0.1-0.4,0.2
	c0,0.1,0,0.2,0.1,0.2c1.3,0,2.7-0.1,4,0C-548.2,868.1-545.8,865.9-546,863.2z M-548.5,866.8c-0.6,0.6-1.4,0.8-2.2,0.8
	c-1.8,0-1.8,0-1.8-1.8c0-0.7,0-1.3,0-1.9c0-1,0-2,0-2.9c0-0.3,0.1-0.4,0.4-0.4c0.8,0,1.7-0.1,2.5,0c1.1,0.1,2,0.9,2.2,2.3
	C-547.2,864.3-547.3,865.7-548.5,866.8z"/>
<path fill="#B21212" d="M-574.8,867.8c-0.8-0.1-1.4-0.5-1.8-1.2c-0.3-0.5-0.6-0.9-1-1.3c-0.7-0.9-0.7-0.8,0.3-1.4
	c0.8-0.4,1.2-1.5,0.9-2.5c-0.1-0.7-1-1.3-1.8-1.3c-1.5,0-2.9,0.2-4.4-0.1c-0.1,0-0.3,0-0.3,0.2s0,0.3,0.2,0.3s0.3,0.1,0.5,0.1
	c0.5,0,0.6,0.2,0.6,0.7c0,1.7-0.1,3.5,0,5.2c0.1,0.7,0,1.2-0.9,1.3c-0.1,0-0.3-0.1-0.3,0.2c1.2,0,2.5,0,3.8,0
	c-0.3-0.2-0.5-0.4-0.8-0.4c-0.2,0-0.5,0-0.5-0.4c-0.1-0.7-0.1-1.5-0.1-2.2c0-0.2-0.2-0.6,0.2-0.6c0.3,0,0.7-0.2,1,0.2
	c0.7,0.9,1.4,1.9,2.1,2.9c0.2,0.2,0.2,0.5,0.6,0.5c0.7,0,1.4,0,2.1,0C-574.4,867.7-574.6,867.7-574.8,867.8z M-578.7,863.7
	c-1.5,0.4-1.7,0.2-1.7-1.3c0,0,0-0.2,0-0.3c0-0.6-0.2-1.4,0.1-1.5c0.7-0.2,1.6-0.2,2.3,0.1s0.7,1,0.6,1.7c-0.1,0.6-0.5,1.1-1.1,1.3
	C-578.6,863.7-578.6,863.7-578.7,863.7z"/>
<path fill="#B21212" d="M-526.1,859.7c-2.7,0.1-4.4,1.9-4.3,4.3c0,2.6,1.2,4.2,3.9,4.2c2.7,0.1,4.4-1.5,4.4-4.4
	C-522.1,861.2-523.5,859.8-526.1,859.7z M-524.3,866.9c-1.5,1.5-3.9,0.8-4.6-1.1c-0.4-1.4-0.5-2.9,0.3-4.2c0.5-0.9,1.4-1.3,2.3-1.3
	c0.9,0,1.8,0.3,2.3,1.2c0.4,0.8,0.7,1.6,0.7,2.5C-523.4,865-523.5,866.1-524.3,866.9z"/>
<path fill="#B21212" d="M-634.7,863.7c1.2-0.4,1.9-1.3,1.6-2.2c-0.2-0.8-0.8-1.4-2.1-1.4s-2.5,0-3.8,0c-0.3,0-0.6-0.4-0.7,0.1
	c0,0.3,0.5,0.3,0.7,0.3c0.6,0.1,0.7,0.5,0.7,1c0,1.7,0,3.3,0,5c0,0.6-0.1,1.2-0.9,1.2c-0.1,0-0.4,0-0.5,0.4c1.7-0.1,3.5,0.3,5.2-0.2
	c1.1-0.3,1.9-1.4,1.8-2.5C-632.7,864.5-633.4,863.9-634.7,863.7z M-637.2,861.7c0-1,0.3-1.3,1.2-1.3c1.2,0.1,1.8,0.5,1.8,1.4
	c0,1.3-0.5,1.6-2,1.8c-1,0.1-1,0.1-1-1.3C-637.2,862.1-637.2,861.9-637.2,861.7z M-635.1,867.4c-0.5,0.1-1.1,0.2-1.6,0.1
	c-0.5-0.1-0.5-0.3-0.5-0.6c0-0.6,0-1.2,0-1.9c0-1,0-1,1.1-1c0.3,0,0.7,0,1.1,0.1c0.8,0.2,1.1,0.7,1.1,1.6
	C-633.9,866.5-634.4,867.3-635.1,867.4z"/>
<path fill="#B21212" d="M-660,861.4c-0.3-1-0.8-1.3-1.8-1.4c-1.5-0.1-3.1,0.2-4.6-0.1c-0.1,0-0.2,0.1-0.2,0.2c0,0,0,0.2,0.1,0.2
	c0.2,0.1,0.4,0.2,0.6,0.2c0.5,0,0.6,0.2,0.6,0.7c0,1.8,0,3.6,0,5.4c0,0.6,0,1.1-0.8,1c-0.2,0-0.6,0.1-0.5,0.4c0.1,0.3,0.3,0,0.5,0
	c0.3,0,0.6,0,0.9,0c0.9,0,1.7,0,2.6,0c0-0.1,0-0.1,0-0.2c-0.3-0.1-0.5-0.2-0.8-0.2c-0.6,0.1-0.8-0.3-0.8-0.8c0-0.7,0-1.3,0-1.9
	c0-0.4,0.1-0.5,0.5-0.5c0.5,0,1,0,1.5,0C-660.9,864.3-659.6,862.7-660,861.4z M-662,863.6c-0.5,0.3-1.1,0.3-1.6,0.3
	c-0.8,0-0.5-0.7-0.6-1.2c-0.1-0.6,0.2-1.3,0.1-1.9c0-0.2,0-0.3,0.2-0.3c0.5,0,1.1-0.1,1.6,0c0.6,0.1,1,0.5,1.1,1.1
	C-661.2,862.4-661.1,863.2-662,863.6z"/>
<path fill="#B21212" d="M-561.9,866c-1-1.9-1.8-3.9-2.7-5.9c-0.1-0.2-0.1-0.4-0.3-0.4c-0.2,0-0.2,0.3-0.3,0.4c-0.9,2-1.7,4-2.6,6
	c-0.3,0.7-0.7,1.5-1.5,1.9c0.9,0,1.8,0,2.7,0c-0.1-0.1-0.1-0.2-0.2-0.3c-0.1,0-0.1-0.1-0.2-0.1c-0.9-0.2-0.7-0.7-0.4-1.2
	c0.1-0.3,0.2-0.5,0.3-0.8c0.1-0.2,0.2-0.2,0.3-0.2c0.8-0.1,1.6-0.1,2.4-0.1c0.8,0,1.3,0.7,1.5,1.6c0.1,0.7-0.5,0.5-0.8,0.8
	c0,0.1,0,0.1,0,0.2c1.1,0,2.2,0,3.3,0c0.1-0.1,0.1-0.1,0.2-0.2C-561.4,867.7-561.5,866.8-561.9,866z M-564.1,864.9
	c-0.8,0-1.6,0-2.4,0c0.4-1.2,0.9-2.2,1.4-3.4c0.4,1,0.8,2,1.3,2.9C-563.6,864.7-563.7,864.9-564.1,864.9z"/>
<path fill="#B21212" d="M-694.6,866.2c-0.8-2-1.7-4-2.6-6c-0.1-0.2-0.2-0.5-0.4-0.5c-0.2,0-0.2,0.3-0.3,0.5c-1,2.1-2,4.3-2.9,6.4
	c-0.2,0.5-0.5,0.9-1,1.1c-0.1,0.1-0.3,0.1-0.2,0.3c0.9,0,1.8,0,2.7,0c-0.1-0.3-0.2-0.3-0.3-0.3c-0.8,0-0.6-0.5-0.4-0.9
	c0.1-0.4,0.3-0.7,0.4-1c0-0.1,0.1-0.2,0.2-0.2c0.9-0.1,1.9-0.3,2.9,0c0.4,0.1,0.5,0.2,0.6,0.5c0.6,1.2,0.6,1.2-0.5,1.9
	c1.2,0,2.3,0,3.4-0.1c0-0.1,0.1-0.1,0.1-0.2C-694,867.7-694.3,866.9-694.6,866.2z M-696.8,865c-0.8-0.1-1.5-0.1-2.4-0.1
	c0.5-1.2,0.9-2.2,1.4-3.3c0.5,1,0.9,2,1.3,3C-696.4,864.9-696.5,865-696.8,865z"/>
<path fill="#B21212" d="M-756.8,868c1.1,0,2.2,0,3.3,0c0-0.3-0.2-0.3-0.3-0.3c-0.6-0.1-0.8-0.4-1-0.9c-1-2.2-2-4.4-2.9-6.6
	c-0.1-0.1-0.1-0.4-0.4-0.4c-0.2,0-0.2,0.1-0.3,0.3c-0.7,1.6-1.4,3.3-2.2,4.9c-0.5,1.1-0.7,2.5-2.1,3c0.9,0,1.9,0,2.8,0
	c0.1-0.2,0-0.3-0.1-0.3c-0.9-0.1-0.8-0.6-0.4-1.2c0.2-0.1,0.2-0.4,0.3-0.6c0-0.1,0.1-0.3,0.3-0.3c0.8-0.1,1.6-0.1,2.4-0.1
	c0.5,0,1,0,1.1,0.6c0,0.4,0.4,0.7,0.4,1.1C-755.9,867.8-756.7,867.5-756.8,868z M-759.4,864.9c-0.4,0-0.4-0.2-0.3-0.4
	c0.4-0.9,0.8-1.9,1.3-2.9c0.6,1,1,2.1,1.5,3.3C-757.8,864.9-758.6,864.9-759.4,864.9z"/>
</svg>
