<?xml version="1.0" encoding="utf-8"?>
<!-- Generator: Adobe Illustrator 19.2.1, SVG Export Plug-In . SVG Version: 6.00 Build 0)  -->
<svg version="1.1" id="Layer_1" xmlns="http://www.w3.org/2000/svg" xmlns:xlink="http://www.w3.org/1999/xlink" x="0px" y="0px"
	 width="121.7px" height="104.5px" viewBox="0 0 121.7 104.5" enable-background="new 0 0 121.7 104.5" xml:space="preserve">
<path fill="#FFFFFF" d="M88.1,99.4l1.9,5.1h-9.5l-0.7-2l-5.1,1.8l-0.5,0.2H57.4l0.6-0.2l19.7-7.3l-2-5.4l-29.7,11.1l-2-5.4
	l29.7-11.1l-2-5.4L41.9,91.8l-2-5.4l29.7-11.1l-2-5.4L37.9,81c-2.2-6.3-0.2-11.4,4.4-15.9l1.8,4.8l5.5-2l-2.5-6.7
	c0.5-0.4,1.1-0.7,1.7-1.1c0,0,1.1-0.6,3-1.6l2.8,7.6l5.5-2l-3-8.1c0,0,0,0-0.1,0c1.9-0.9,4.1-1.9,6.3-2.8c-0.2,0.1-0.3,0.2-0.4,0.4
	l3.1,8.3l5.5-2l-3.2-8.5c2.1-0.7,4.2-1.4,6.2-1.9l-0.1,0l3,8.1l5.5-2l-2.8-7.6c2.1-0.5,3.5-0.8,3.5-0.8c0.8-0.2,1.7-0.3,2.4-0.5
	l2.5,6.8l5.5-2l-1.9-5.1c0,0,0,0,0,0c6.3,0.4,11,3.5,13.5,9.6L76,66.8l2,5.4l29.6-11l2,5.4L80,77.6l2,5.4l29.6-11l2,5.4L84,88.4
	l2,5.4l29.6-11l2,5.5L88.1,99.4z"/>
<polygon fill="#FFFFFF" points="121.7,99.1 107.6,104.5 91.2,104.5 119.7,93.8 "/>
<path fill="#FFFFFF" d="M38,81.2L37.9,81h0C37.9,81,37.9,81.1,38,81.2z"/>
<path fill="#FFFFFF" d="M0,42.3c11.9-14.6,28.6-27.4,49-35c20.4-7.6,41.4-8.8,59.9-5.5l-8.1,37.9c-11.4-1.3-25.1-1-38.3,4
	c-13.2,4.9-23.8,13.7-31.6,22.1L0,42.3"/>
<g>
	<path fill="#ED1C24" d="M36.4,44.5l-1.1,1L23,33.4l1.1-1l-4.8-4.7l-8.7,8.7l4.8,4.7l1-1l12.4,12.1l-1.1,1l4.8,4.7l8.7-8.7
		L36.4,44.5z"/>
	<path fill="#ED1C24" d="M63.7,17.4l-1.4-3.1c-0.9-2-1.3-2.7-4.3-3.6c-3.5-1.1-4.2-1-7,0.3l-15.1,6.9l2.8,6l1.4-0.6l7.2,15.7
		l-1.4,0.6l2.8,6.1L60,40.3l-2.8-6L55.7,35l-2.1-4.6l5.2-2.4c2-0.9,2.8-1.3,3.5-2.6c0.7-1.2,2.3-4.5,2.2-6
		C64.4,19.1,64.2,18.6,63.7,17.4z M55.1,21.6c-0.2,1-0.8,1.4-1.9,1.9l-2.2,1l-2.5-5.5l2-0.9c1.5-0.6,3-1.3,4.1,0.9
		C55.1,20.4,55.2,20.9,55.1,21.6z"/>
	<path fill="#ED1C24" d="M97.8,27.5l-1.5,0.1l-0.1-3c-0.1-1.9-0.1-2.3-1.1-3.1c-0.9-0.8-3-1.6-4.2-2.1c0.9-0.5,2.3-1.2,3.5-2.4
		c1-1,1.1-1.4,1-3.3l-0.1-2.2c-0.1-2.2-0.1-2.6-1.2-3.8c-1.1-1.2-3.6-3.1-5-3.4C88.4,4,87.7,4,86,4.1L69.6,4.9l0.3,6.7l1.5-0.1
		L72,28.7l-1.5,0.1l0.3,6.7l10.8-0.5l-0.5-11.9l2.2-0.1c3.1-0.2,3.2,0.9,3.3,3.3l0.3,8.4l11-0.6L97.8,27.5z M82.9,17l-2,0.1L80.7,11
		c2.5-0.1,2.8-0.1,3-0.1c2.2,0.1,2.3,1.8,2.3,2.8C86.1,16.5,84.9,16.9,82.9,17z"/>
</g>
<path fill="#FFFFFF" d="M37.9,81L37.9,81c0,0.1,0.1,0.2,0.1,0.2L37.9,81z"/>
<path fill="#FFFFFF" d="M88.1,99.4l1.9,5.1H57.4l0.6-0.2l19.7-7.3l-2-5.4l-29.7,11.1l-2-5.4l29.7-11.1l-2-5.4L41.9,91.8l-2-5.4
	l29.7-11.1l-2-5.4L37.9,81c-2.2-6.3-0.2-11.4,4.4-15.9l1.8,4.8l5.5-2l-2.5-6.7c0.5-0.4,1.1-0.7,1.7-1.1c0,0,1.1-0.6,3-1.6l2.8,7.6
	l5.5-2l-3-8.1c0,0,0,0-0.1,0c1.9-0.9,4.1-1.9,6.3-2.8c-0.2,0.1-0.3,0.2-0.4,0.4l3.1,8.3l5.5-2l-3.2-8.5c2.1-0.7,4.2-1.4,6.2-1.9
	l-0.1,0l3,8.1l5.5-2l-2.8-7.6c2.1-0.5,3.5-0.8,3.5-0.8c0.8-0.2,1.7-0.3,2.4-0.5l2.5,6.8l5.5-2l-1.9-5.1c0,0,0,0,0,0
	c6.3,0.4,11,3.5,13.5,9.6L76,66.8l2,5.4l29.6-11l2,5.4L80,77.6l2,5.4l29.6-11l2,5.4L84,88.4l2,5.4l29.6-11l2,5.5L88.1,99.4z"/>
<polygon fill="#FFFFFF" points="121.7,99.1 107.6,104.5 91.2,104.5 119.7,93.8 "/>
</svg>
