<svg xmlns="http://www.w3.org/2000/svg" viewBox="0 0 299.17 268.89"><title>KBRF-logo</title><path d="M42.06,172.75c-1.33-1.79-2.81-2.08-4.11-2.68-6.59-3-11.07-7.7-12.2-15.2-.54-3.61-.27-7.21-.45-10.8-.1-1.89-.12-3.86-1.62-5.49C19,150.85,27.8,167.52,42.06,172.75ZM62.44,98.21c.67-1.45-.56-1.93-1.71-2.5-5.5-2.73-11-5.54-16.86-7.33-.79-.24-1.68-1.68-2.25-.7s.64,2,1.55,2.73a12.22,12.22,0,0,0,1.43,1c4.94,2.89,9.88,5.81,14.85,8.65,2.63,1.5,2.74,1.39,3-1.79Zm21.84,12.39a10.27,10.27,0,0,0,4.66-1c1.41-.58,1.35-1.25.09-2a14.55,14.55,0,0,0-5-2.06c-6.39-1-12.19-3.69-18.11-6.07-.6-.24-1.17-1.63-2-.4-.65,1-.12,1.87.75,2.54,4.45,3.47,9,6.71,14.62,8.14a15.73,15.73,0,0,0,4.93.8Zm-28.91,9.1c-.63-.11-1.11,0-1.62-.54a8.23,8.23,0,0,0-5.58-2.68c-1.85,0-2.12-.79-2.14-2.15a33.89,33.89,0,0,1,.27-6.63c.29-1.58-.24-2.27-1.85-1.68C37.38,108.62,31,113.39,30,122.45a122.78,122.78,0,0,0-.22,26.3c.8,7.58,3.78,14.49,11.41,18.14,2.84,1.36,3.26,1.2,3.33-1.89.1-4.18,0-8.37.14-12.56.06-1.91-.1-3.91,1.63-5.46.46-.41,1.29-1.65.4-2.53a4.71,4.71,0,0,1-1.13-3.88c0-1.24-.69-3.17.7-3.54,1.73-.47,1.92,1.7,2.41,2.84,1.3,3,3.44,4.1,6.63,3.91a70.52,70.52,0,0,0,9.49-1.32c1.86-.37,2.61-1.3,2.17-3.32-1-4.38-2.12-8.71-2.42-13.23-.11-1.61-.82-3,1.38-3.68.72-.22.76-1,.44-1.68s-.47-1.53-1.29-1.66-.75.74-1.12,1.14a3.08,3.08,0,0,0-.51,3.43,9.57,9.57,0,0,1,.66,3.11c.1,5.16-5.87,10.67-11.95,11-4.95.26-10.38-4.64-11.51-10.36-.65-3.3-.14-6.23,2.7-8.38s5.59-1.08,8.31.3c.51.26,1,.58,1.48.88a1.63,1.63,0,0,0,2.21-.28Zm-7.9,29.8c-1.73-1.28-1.48.53-1.51,1.14-.13,2.38-.08,4.76-.09,7.14a78.21,78.21,0,0,0,0,8.37c.34,3.26-1.37,5.85-2.25,8.72-.46,1.47-1.37.57-2.14.23-12-5.37-18.72-14.48-20.11-27.61a97.55,97.55,0,0,1,.23-25.3,23,23,0,0,1,11.18-16.66,54,54,0,0,1,11.4-5.2c1-.33,2.17-.36,2.36-1.74a2.91,2.91,0,0,0-1.64-3,47.27,47.27,0,0,1-8.46-6.75,37,37,0,0,1-3.93-5c-2.11-3.08-1.59-6.57-1.76-10a1.08,1.08,0,0,1,.72-1.17,1.16,1.16,0,0,1,1.29.5c.57.7,1.08,1.44,1.65,2.15a9.5,9.5,0,0,0,7.91,3.8,10.41,10.41,0,0,1,7.52,2.51c.64.58,1.32,1.52,2.31,1.07,1.17-.54.6-1.71.62-2.65a6.74,6.74,0,0,1,.33-1.15,6,6,0,0,0,3.15,3.49c.5.28,1,.7,1.59.3s.43-1.18.13-1.76c-1.14-2.18-.6-3.73,1.64-4.69.78.46.29,1.43,1,2.19.65-2.5,2.39-2.44,4.29-2.16,4.16.61,4.74.13,6.08-3.77,5-14.67,9.66-29.49,15.28-44A33,33,0,0,1,95.4,15.84c3.84-3.43,8.66-3.64,13.37-4.23a4.27,4.27,0,0,0,1.88-.51L97.2,4.7a1.32,1.32,0,0,1,1.72-.33,116.62,116.62,0,0,1,14,6.57c.66.38,1.75.68,1.44,1.69-.25.81-1.25.62-2,.65-2.46.09-4.92.26-7.37.39-5.19.27-9,2.81-12.12,6.67C89.3,24.88,87,30.16,85.24,35.66c-.17.53-.77,1.19.53,1.34.78.08.45.92.27,1.43q-5.78,16.5-11.6,33a1.16,1.16,0,0,1-1.13.88c-.07-2.26,1.3-4.12,1.38-6.26l-2.4,7.12c-.05.16-.19.37-.14.46,2.22,3.59-1.25,6.13-1.69,9.22,0,.3-.13.6-.2,1,1.09,0,1.54-1.94,2.52-1s-.28,1.84-.82,2.54c-1.34,1.69-.63,4.1-2.18,5.72-.43.45.13,1.16.78,1.23,5.28.58,10.4,2.51,15.82,2,.05,0,.09-.11.29-.35-2.76-1.46-5.49-2.89-8.21-4.34C77,88.79,75.56,88,74.15,87.16,73.29,86.64,72.43,86,73,84.8a2.16,2.16,0,0,1,2.63-1.29,9.8,9.8,0,0,1,2.06.78,131.57,131.57,0,0,0,17.53,7.18c.68.2,1.23.84,1.9,1.08,1.48.53,2.81,2.3,4.66.29.57-.62,2.19-.37,3.33-.36,4.72,0,9.32-.53,13.57-2.81-5.7,1.57-11.44,2.85-17.41,2.54a16,16,0,0,1-4.59-.78,136.27,136.27,0,0,1-19.33-8.61,8.56,8.56,0,0,1-2-1.41c-1-1-.72-2.14-.11-3.19.73-1.26,1.71-.57,2.56-.13A110.84,110.84,0,0,0,95,85.24a1,1,0,0,0,.86-.1c-.58-.27-1.14-.59-1.73-.82a103.89,103.89,0,0,1-14.47-6.82c-.78-.44-1.54-1-2.27-1.47a1.59,1.59,0,0,1-.68-1.94c.34-.95,1.16-1.07,2-1a2.43,2.43,0,0,1,.95.24c6,3.28,12.74,4.76,19.19,6.95,1.47.5,2.31,1.82,3.71,2.37.66.26,1.21,1,2,.49a1,1,0,0,0,.36-.83c-.15-.94-1-1-1.7-1.15-7.41-2-14.28-5.38-21.14-8.74a20.62,20.62,0,0,1-2.92-1.81,1.68,1.68,0,0,1-.64-2c.28-.89,1-1,1.79-1a5.29,5.29,0,0,1,3.06.79A48.28,48.28,0,0,0,99,74.36c2.21.47,3.81,1.78,5.6,2.89.62.39,1.31.81,2,.3a1,1,0,0,0,.32-.84c-.19-.91-1-.95-1.73-1.13C97,73.4,89.53,69.41,82,65.56c-1.08-.55-2-1.44-1.32-2.75s2-1,3-.36A56.84,56.84,0,0,0,102.19,69c4.81,4.79,10.33.08,14.16,1-11,1.63-21.06-4.31-31.44-9.2-1.37-.64-3.54-1.47-2.43-3.52s2.85-.8,4.31,0a55.91,55.91,0,0,0,17.28,6.26,4,4,0,0,1,2.9,1.61,2.31,2.31,0,0,0,3.64.52,4.39,4.39,0,0,1,3.43-.91,45.13,45.13,0,0,0,13.41-1.51A9.11,9.11,0,0,0,132,61l1.08-.58c1.69.61.53,1.42,0,1.95-1,1.05-2,2-1.16,3.63.07.13.08.41,0,.47-2.49,1.83-1.72,5.31-3.74,7.37-.83.85-1.48,1.66-.63,3s-.46,1.76-1.21,2.26a2.22,2.22,0,0,0-1.07,2.9c.13.36.3,1,.14,1.14-2.13,1.69-1.35,4.77-3.16,6.56a2.75,2.75,0,0,0-.67,1.78c-.9,6.45-4.14,11.87-7.66,17.12-1.29,1.93-3.4,3-5.52,4-11.39,5.4-22.57,4.79-33.56-1.08-2.08-1.11-2.77-.43-3.48,1.57-.81,2.29-.33,4.69-1,6.95,0,.08.1.24.19.31,2.54,1.9,2.56,3.72,0,5,.51.35,1.64-.22,1.62.6,0,1.2-1.56.54-2.23,1.36,1.63.09,1.31,1.24.72,1.79-2.51,2.33-1.67,5-.76,7.52.79,2.21.76,4-.77,5.95s-1.24,2.86,1,3.63c1.16.4,1.31,1.36,1.46,2.34.91,5.83,1.87,11.66,2.68,17.5a6.22,6.22,0,0,0,1.7,3.67,167.65,167.65,0,0,1,11.81,14.51c.37.49,1,.94.69,1.86-1-.14-1.36-1.06-1.84-1.7a105.41,105.41,0,0,0-9.09-11c-2.52-2.55-5.83-3.22-9.32-3-.93.06-1.85.48-2.95-.17,1.09-1.12,2.55-1,3.67-1.57a2.62,2.62,0,0,0,1.59-3,116.05,116.05,0,0,0-1.88-13.88c-.27-1.16-.46-2.27.69-3.11.41-.3.74-.74.35-1.24s-.91-.26-1.35-.06c-5.44,2.44-11.27,2.68-17.09,3a6.06,6.06,0,0,1-3.37-.43l-.44-.38Z" fill="#231f20" fill-rule="evenodd"/><path d="M82.31,229.09c1.05,6.52,2.24,12.93,3.72,19.28.3,1.27,1.24,1.4,2.3.77l8.24-4.9A1.86,1.86,0,0,0,97.63,242a142,142,0,0,1-3.54-17.56c-.1-.74-.42-1.48-1.34-1.53a1.86,1.86,0,0,0-1.88,1.3c-1.87,4.42-3.87,5.6-8.56,4.87ZM79.89,215c1-1.89,2.09-3.14,4.15-2.49a.86.86,0,0,0,.69-.18c1.32-1.16,2.51-1.14,3.87.07a2.19,2.19,0,0,0,2.57,0c.88-.54.62-1.39.45-2.21q-1.9-9-3.77-18.06c-.32-1.53-1.06-2.15-2.61-1.37-2.5,1.24-5,2.45-7.53,3.65a2.47,2.47,0,0,0-1.48,3.19c.69,3.12,1.11,6.3,1.81,9.42.56,2.51.64,5.16,1.85,7.94Zm-16,51.33a3.29,3.29,0,0,0,3.38-1.52,2.75,2.75,0,0,1,2.42-1.5c1.74.21,2.77-.78,3.83-1.81,2-2,4-3.91,5.94-5.91.48-.49,1.36-.94.94-1.81s-1.2-.75-1.93-.88c-2.43-.41-4.85-.81-7.27-1.26-7.42-1.37-14.84-2.78-22.26-4.12-.57-.1-1.37-.62-1.77.19-.28.57.29,1.05.62,1.51,2.27,3.12,4.3,6.42,7,9.22A7,7,0,0,1,56.27,261c1.7,4.74,2.43,5.27,7.6,5.39Zm-16-116.46c1.3,5,2.57,10,3.92,15a41,41,0,0,0,1.47,3.89c.36.94,1.17,1.06,2,1.09,1.07,0,2.14,0,3.2.06.41,0,.89.14.83.65,0,.23-.39.52-.66.62-1.08.39-2.2.65-3.26,1.08-2,.82-2.75,2.38-2,4.38a69.56,69.56,0,0,0,6.49,13.25,8.9,8.9,0,0,0,6.73,4.07c2.52.28,3.88,1.68,4.4,4.22a268.32,268.32,0,0,0,7.28,27.6,6.23,6.23,0,0,0,1.55,3.11c.31-3-.52-5.71-1-8.38Q77,208.82,74.83,197.22c-.44-2.3.32-3.47,2.33-4.45,3.75-1.83,7.74-3.15,11.3-5.39,1.31-.83,1.16.48,1.29,1.15,1.15,6.38,2.26,12.76,3.4,19.14a16.85,16.85,0,0,0,2.3,6.05c1.34,2.19,2.33,5.06,1,7.89a4.08,4.08,0,0,0,0,2.65c1.08,5.64,2,11.31,3.27,16.91a5.18,5.18,0,0,1-1.92,5.64c-5.22,4.38-10.4,8.82-15.6,13.22A6,6,0,0,0,80,262.39c-1,2.83-3.26,4.25-5.9,5.17a23.69,23.69,0,0,1-16.84-.47,2.29,2.29,0,0,1-1.48-1.54c-1.25-4.54-4-8.31-6.71-12a23.64,23.64,0,0,1-4.49-13.71C44,224.53,42.18,209.28,40.76,194c-.16-1.71-.15-3.45-.16-5.17,0-.67-.21-1.56,1.13-1.71-.16,1.75-.58,3.71,2.14,3.83,1.73.08,2.66-.49,2.67-2.33a20.44,20.44,0,0,0-1.36-6.23c-1-3.14-1.64-6.19.67-9.12a4.55,4.55,0,0,0,.6-3.33c-.58-5.74-.25-11.49-.3-17.24,0-1.24,0-2.51,1.33-3.21l.44.38Z" fill="#231f20" fill-rule="evenodd"/><path d="M133.54,55.77c-7.15,3-14.58,3.47-22.18,2.6-.67-.08-1.45-.24-1.66.56s.6,1.21,1.29,1.49c.88.36,1.82.6,2.44-.33.84-1.24,2-1.19,3.28-1.19,2.29,0,4.59,0,6.88-.06a17.71,17.71,0,0,0,9.95-3.08Zm-.46,4.61L132,61a41.84,41.84,0,0,1-22.15,3.15A32.05,32.05,0,0,1,102.78,62,116.38,116.38,0,0,1,86.2,54.51c-1.11-.61-2.62-1.3-1.7-3s2.41-1.08,3.64-.34c3.52,2.14,7.34,3.68,11,5.53,2.7,1.36,5.69.46,8.41,1.54l.17-.61-5.46-2.31a111.38,111.38,0,0,1-12.94-6c-1.32-.78-3.57-1.69-2.51-3.57s2.89-.44,4.3.33a40.58,40.58,0,0,1,4.72,2.64c3.5,2.58,7.4,1.94,11.27,1.64a3.88,3.88,0,0,0,2.78-1.87c.58-.8,1.12-1.62,1.76-2.37.4-.48.89-1.12,1.64-.64a1.38,1.38,0,0,1,.41,1.78c-.58,1.53-1.23,3-1.83,4.57-.48,1.24-.44,2.15,1.14,2.64s2.35.16,2.68-1.43a3,3,0,0,1,2.47-2.71,1.57,1.57,0,0,0,1.4-1.64c-1.11-.33-1.48.75-2.15,1.15a2.09,2.09,0,0,1-2.32,0,1.69,1.69,0,0,1-.92-2.08c3.42-9.44-2.67-14.72-8.74-20a23.56,23.56,0,0,0-5.21-3.26c-1.09-.53-2.48-1-2.2-2.58a4,4,0,0,1,3.2-3.06,3.65,3.65,0,0,1,2.63.35c6.08,3.08,11.61,6.85,15.61,12.5,1.82,2.58,3.33,5.31,2.82,8.72,3.35-1.66,4-3.88,2-7.12a39.75,39.75,0,0,0-15.55-14c-.58-.31-1.21-.53-1.76-.89-.82-.53-2.56-.57-2.06-1.93s2-.69,3-.27a46.36,46.36,0,0,1,20,15.48,11.15,11.15,0,0,1,1.32,2.35,19.56,19.56,0,0,1,.68,2.49A1.88,1.88,0,0,0,131,33.8a10.5,10.5,0,0,0-1.55-2.5c-5.19-6.14-10.88-11.65-18.53-14.7-.55-.22-1.52-.35-1.25-1.21s1.25-.68,1.89-.37c8.42,4.11,16.26,9,21.65,17a11.6,11.6,0,0,1,1.53,4.57,4,4,0,0,0,.14-4.54c-2.67-4.92-6.86-8.34-11.27-11.53a32.58,32.58,0,0,0-7.88-4.53c-.5-.18-1.34-.25-1.08-1s1-.49,1.52-.33a30.47,30.47,0,0,1,6.49,3A53.42,53.42,0,0,1,135.38,28a12.61,12.61,0,0,1,3.07,6.14c1.32-1.46,1.32-1.72,0-3.66a44,44,0,0,0-17.36-14.56c-.77-.38-1.78-.44-2.17-1.45.72-.76,1.42-.19,2,.09a52.29,52.29,0,0,1,17.35,12.72c3.32,3.79,3.93,8,2.86,12.63-.7,3-1.7,6-2.61,9a5.5,5.5,0,0,1-1.74,2.92c-1,.75-1.44,1.33-.6,2.59s-.35,2-1.1,2.68a5.25,5.25,0,0,0-2,3.28Z" fill="#231f20" fill-rule="evenodd"/><path d="M63.9,3.26c4.37.27,8,.92,11.26,2.82,1.11.65,3.21.84,2.29,3a4.06,4.06,0,0,1-5.24,2.32,32.6,32.6,0,0,0-7.14-2.62A15.11,15.11,0,0,0,53.47,10.6c-.6.38-1.32,1-2,.46s-.13-1.54.19-2.24c1.24-2.7,3.58-4,6.32-4.62,2.15-.48,4.36-.7,5.92-.94Z" fill="#231f20" fill-rule="evenodd"/><path d="M60.85,42.32a11,11,0,0,1-1.23-.46A110,110,0,0,1,45.54,33.8c-.85-.6-2.37-1.17-1.37-2.62a2.36,2.36,0,0,1,3.48-.6,153.66,153.66,0,0,0,13.55,7.5,6.18,6.18,0,0,1,1.41,1,1.83,1.83,0,0,1,.65,2.19,2.08,2.08,0,0,1-2.42,1.08Z" fill="#231f20" fill-rule="evenodd"/><path d="M56.44,62.79c-.08,1.44-1.67,2.12-3.46,1.27a112.75,112.75,0,0,1-13.29-7.37,9.6,9.6,0,0,0-1.43-.94c-1-.41-2.45-.53-1.36-2.14.92-1.35,2.21-2,3.77-1a102.88,102.88,0,0,0,8.93,5.12c1.72.94,3.49,1.79,5.22,2.72a2.7,2.7,0,0,1,1.62,2.29Z" fill="#231f20" fill-rule="evenodd"/><path d="M50.1,75.08a9.46,9.46,0,0,1-1.25-.48,103.1,103.1,0,0,1-14-8.58c-.8-.6-2.1-1.25-1.14-2.51a2.32,2.32,0,0,1,3.46-.57c4.21,3,8.82,5.34,13.3,7.89a6.73,6.73,0,0,1,1.39,1,1.86,1.86,0,0,1,.65,2.2c-.44,1-1.29,1.16-2.39,1.05Z" fill="#231f20" fill-rule="evenodd"/><path d="M59,47.77a5.18,5.18,0,0,1-.81-.26,102.17,102.17,0,0,1-15.13-8.67c-.72-.52-1.63-1.15-.9-2.19a2.21,2.21,0,0,1,3-.9c4.84,3.11,10,5.53,15,8.36a2,2,0,0,1,1.12,2.47c-.36,1-1.21,1.25-2.33,1.18Z" fill="#231f20" fill-rule="evenodd"/><path d="M37.44,57a6.76,6.76,0,0,1,1.22.57A150.18,150.18,0,0,0,52,65.45a6.56,6.56,0,0,1,1.39,1,1.84,1.84,0,0,1,.62,2.2,1.9,1.9,0,0,1-2.26,1,4,4,0,0,1-1.16-.37,106.32,106.32,0,0,1-14.44-8.84c-.69-.52-1.64-1.09-1.06-2.18A2.82,2.82,0,0,1,37.44,57Z" fill="#231f20" fill-rule="evenodd"/><path d="M62.69,36.66a9.31,9.31,0,0,1-1.3-.44,106.74,106.74,0,0,1-14.48-8.3c-.78-.55-1.89-1.18-1.12-2.33A2.23,2.23,0,0,1,49,24.74c4.68,3.05,9.73,5.41,14.6,8.11A2.21,2.21,0,0,1,65,35.46c-.29,1-1.19,1.25-2.27,1.19Z" fill="#231f20" fill-rule="evenodd"/><path d="M55.46,58.72a6.62,6.62,0,0,1-1.33-.39,105.13,105.13,0,0,1-14.26-8.14C39,49.6,37.56,49,38.62,47.54a2.37,2.37,0,0,1,3.49-.47c4.26,2.77,8.8,5,13.3,7.35a8.11,8.11,0,0,1,1.78,1.27,1.78,1.78,0,0,1,.39,2c-.31.81-1,1-2.12,1Z" fill="#231f20" fill-rule="evenodd"/><path d="M57.36,53.29A7,7,0,0,1,56,52.88a105.71,105.71,0,0,1-14.31-8.16c-.82-.57-2.09-1.23-1.23-2.51A2.33,2.33,0,0,1,44,41.6c4.27,2.79,8.84,5,13.35,7.38a8.35,8.35,0,0,1,1.78,1.29,1.75,1.75,0,0,1,.41,2c-.33.8-1,1-2.14,1Z" fill="#231f20" fill-rule="evenodd"/><path d="M81.31,6.39a10.26,10.26,0,0,1-3.69-1.08C73.73,3.91,70,1.9,65.82,1.53A14.23,14.23,0,0,0,61,2.35c-.63.16-1.67.66-1.91-.29S60,1,60.61.77A18.47,18.47,0,0,1,69.37.3,48.64,48.64,0,0,1,81.58,4c.68.28,1.51.63,1.34,1.52s-1.08.83-1.62.89Z" fill="#231f20" fill-rule="evenodd"/><path d="M26.84,143.47S1,143.47,1,169.34v2.52s0,25.87,25.87,25.87H272.33s25.87,0,25.87-25.87v-2.52s0-25.87-25.87-25.87Z" fill="#c23122" fill-rule="evenodd"/><path d="M0,169.33c-.37,9.87,3.57,20.74,12.52,25.89a28.62,28.62,0,0,0,14.31,3.47H272.34a33.28,33.28,0,0,0,12-2.69,23.72,23.72,0,0,0,11.38-9.83,28.61,28.61,0,0,0,3.47-14.29c.37-9.87-3.57-20.74-12.52-25.89a28.62,28.62,0,0,0-14.31-3.47H26.81a33.28,33.28,0,0,0-11.94,2.69A23.72,23.72,0,0,0,3.49,155,28.61,28.61,0,0,0,0,169.33Zm26.84-24.91H272.34a27.83,27.83,0,0,1,11,2,20.56,20.56,0,0,1,6.08,3.95,21.75,21.75,0,0,1,3.42,4.14,30.71,30.71,0,0,1,4.44,14.83v2.52a27.83,27.83,0,0,1-2,11,20.56,20.56,0,0,1-3.95,6.08,21.75,21.75,0,0,1-4.14,3.42,30.71,30.71,0,0,1-14.83,4.44H26.84a27.83,27.83,0,0,1-11-2,20.56,20.56,0,0,1-6.08-3.95,21.75,21.75,0,0,1-3.42-4.14,30.71,30.71,0,0,1-4.44-14.83v-2.52a27.83,27.83,0,0,1,2-11,20.56,20.56,0,0,1,3.95-6.08A21.75,21.75,0,0,1,12,148.85a30.71,30.71,0,0,1,14.83-4.44Z" fill="#231f20" fill-rule="evenodd"/><path d="M57,171.44,80,135.8H55.24L36.23,165V135.8H14.85v71.27H36.23V177.85l19,29.22H80L57,171.44Zm93.86,8.32q0-3.68-4.63-8.32,4.63-4.63,4.63-8.32V152.43a16.63,16.63,0,0,0-16.63-16.63H83.16v71.27h51.08a16.63,16.63,0,0,0,16.63-16.63V179.75Zm-46.33-16.63v-5.94h24.95v5.94Zm0,22.57v-5.94h24.95v5.94Zm117.6-5.94q0-3.68-4.63-8.32,4.63-4.63,4.63-8.32V152.43a16.63,16.63,0,0,0-16.63-16.63h-48.7v71.27h21.38V179.75h22.57v27.32h21.38V179.75Zm-44-16.63v-5.94h22.57v5.94Zm109.29,0h-38v-5.94h38V135.8h-59.4v71.27h21.38V179.75h38V163.12Z" fill="#c6c8ca" fill-rule="evenodd"/><path d="M104,186.26h26.09v-7.08H104v7.08Zm1.14-1.14v-4.8h23.8v4.8Z" fill="#231f20" fill-rule="evenodd"/><path d="M104,163.69h26.09v-7.08H104v7.08Zm1.14-1.14v-4.8h23.8v4.8Z" fill="#231f20" fill-rule="evenodd"/><path d="M149.9,175a22.36,22.36,0,0,0-2.85-3.59,23.45,23.45,0,0,0,2.57-3.15,9.47,9.47,0,0,0,1.82-5.15v-10.7a17.2,17.2,0,0,0-17.21-17.21H82.58v72.42h51.65a17.2,17.2,0,0,0,17.21-17.21v-10.7h0A9.09,9.09,0,0,0,149.9,175Zm.4,4.74v10.68a16.06,16.06,0,0,1-16.05,16.05H83.73V136.37h50.51a15.46,15.46,0,0,1,11.35,4.7h0a15.46,15.46,0,0,1,4.7,11.35v10.68a8,8,0,0,1-1.36,4.12,21.23,21.23,0,0,1-3.1,3.8.57.57,0,0,0,0,.82,22.29,22.29,0,0,1,2.84,3.39,8.34,8.34,0,0,1,1.62,4.53Z" fill="#231f20" fill-rule="evenodd"/><path d="M177.62,163.69h23.71v-7.08H177.62v7.08Zm1.14-1.14v-4.8h21.43v4.8Z" fill="#231f20" fill-rule="evenodd"/><path d="M221.17,175a22.36,22.36,0,0,0-2.85-3.59,23.45,23.45,0,0,0,2.57-3.15,9.47,9.47,0,0,0,1.82-5.15v-10.7a17.2,17.2,0,0,0-17.21-17.21H156.24v72.42h22.53V180.33h21.43v27.32h22.53V179.74h0a9.09,9.09,0,0,0-1.54-4.71Zm.4,4.74V206.5H201.33V179.18H177.62V206.5H157.38V136.37h48.14a15.46,15.46,0,0,1,11.34,4.7h0a15.46,15.46,0,0,1,4.7,11.35v10.68a8,8,0,0,1-1.36,4.12,21.23,21.23,0,0,1-3.1,3.8.57.57,0,0,0,0,.82,22.29,22.29,0,0,1,2.84,3.39,8.34,8.34,0,0,1,1.62,4.53Z" fill="#231f20" fill-rule="evenodd"/><path d="M57.68,171.44l23.41-36.21H54.93L36.81,163.09V135.23H14.28v72.42H36.81V179.78l18.12,27.87H81.09L57.68,171.44ZM79,206.5H55.55L36.48,177.18l-.82.24V206.5H15.42V136.37H35.66v29.08l.82.24,19.07-29.32H79L56.32,171.44,79,206.5Z" fill="#231f20" fill-rule="evenodd"/><path d="M250,162.55v-4.8h38V135.23H227.51v72.42H250V180.33h38V162.55Zm36.87,1.14v15.49h-38V206.5H228.65V136.37H286.9v20.24h-38v7.08Z" fill="#231f20" fill-rule="evenodd"/><path d="M126.84,220.63a4.85,4.85,0,0,0-4.85-4.85H107.79v20.79H114V222h6.58v14.55h6.24V220.63Zm19.06,9.7H134.81V228.6H145.9v-4.85H134.81V222H145.9v-6.24H128.57v20.79H145.9v-6.24ZM171,215.78l-2.94,11.75-2.94-11.75h-6.24L156,227.54,153,215.78h-6.25l5.2,20.79h8l2.07-8.26,2.07,8.26h8l5.2-20.79Zm26.17,12.82a4.85,4.85,0,0,0-4.85-4.85h-8V222h12.82v-6.24H183a4.85,4.85,0,0,0-4.85,4.85v3.12A4.85,4.85,0,0,0,183,228.6h8v1.73H178.12v6.24h14.21a4.85,4.85,0,0,0,4.85-4.85V228.6Zm32.92-12.82H211V222h6.41v14.55h6.24V222h6.41v-6.24Zm15.42,0h-9.35L231,236.57h6.25l.69-2.77h5.86l.69,2.77h6.25l-5.2-20.79Zm-6.31,12.82,1.63-6.53,1.67,6.53Zm29.7,1.73H257.82V215.78h-6.24v20.79H268.9v-6.24Zm14-4.16,6.72-10.39h-7.23l-5.54,8.52v-8.52h-6.24v20.79h6.24V228l5.54,8.52h7.23l-6.72-10.4Z" fill="#b2b4b6" fill-rule="evenodd"/><path d="M238.72,229H243l-2.16-8.47L238.72,229Zm1-.76,1.15-4.59,1.17,4.59Z" fill="#231f20" fill-rule="evenodd"/><path d="M238.2,234.18h5.27l.69,2.77h7l-5.39-21.55h-10L230.47,237h7l.69-2.77Zm7-18,5,20h-5.46l-.69-2.77h-6.46l-.69,2.77h-5.46l5-20Z" fill="#231f20" fill-rule="evenodd"/><path d="M125.69,216.93A5.06,5.06,0,0,0,122,215.4H107.4V237h7V222.4h5.82V237h7V220.64a5.06,5.06,0,0,0-1.53-3.71Zm.77,19.26H121V221.64h-7.35v14.55h-5.47v-20H122a4.47,4.47,0,0,1,4.47,4.47v15.56Z" fill="#231f20" fill-rule="evenodd"/><path d="M135.19,230v-1h11.09v-5.61H135.19v-1h11.09v-7H128.19V237h18.09v-7Zm10.33.76v5.47H129v-20h16.56v5.47H134.43v2.5h11.09v4.09H134.43v2.5Z" fill="#231f20" fill-rule="evenodd"/><path d="M168.07,226l-2.64-10.56h-6.83L156,226l-2.64-10.56h-7L151.67,237h8.58l1.77-7.07,1.77,7.07h8.58l5.39-21.55h-7L168.07,226Zm3.24-9.8h5.46l-5,20h-7.39l-2.07-8.26h-.6l-2.07,8.26h-7.39l-5-20h5.46l2.94,11.75h.6l2.94-11.75h5.64l2.94,11.75h.6l2.94-11.75Z" fill="#231f20" fill-rule="evenodd"/><path d="M196,224.9a5.06,5.06,0,0,0-3.71-1.53h-7.58v-1h12.82v-7H183a5.23,5.23,0,0,0-5.23,5.24v3.11A5.23,5.23,0,0,0,183,229h7.58v1H177.74v7h14.59a5.23,5.23,0,0,0,5.23-5.24v-3.11A5.06,5.06,0,0,0,196,224.9ZM178.5,236.19v-5.47h12.82v-2.5H183a4.29,4.29,0,0,1-3.15-1.3h0a4.29,4.29,0,0,1-1.3-3.15s0-3.13,0-3.13a4.47,4.47,0,0,1,4.47-4.46H196.8v5.47H184v2.5h8.35a4.3,4.3,0,0,1,3.15,1.3h0a4.3,4.3,0,0,1,1.3,3.15v3.12a4.47,4.47,0,0,1-4.47,4.47Z" fill="#231f20" fill-rule="evenodd"/><path d="M217.07,222.4V237h7V222.4h6.41v-7H210.66v7Zm12.65-6.24v5.47h-6.41v14.55h-5.47V221.64h-6.41v-5.47Z" fill="#231f20" fill-rule="evenodd"/><path d="M258.2,230V215.4h-7V237h18.09v-7Zm10.33.76v5.47H252v-20h5.47v14.55Z" fill="#231f20" fill-rule="evenodd"/><path d="M283.38,226.18l7-10.78h-8.14l-5,7.62V215.4h-7V237h7v-7.62l5,7.62h8.14l-7-10.78Zm5.56,10h-6.33L277,227.6l-.55.16v8.43H271v-20h5.47v8.43l.55.16,5.59-8.59h6.33l-6.47,10,6.47,10Z" fill="#231f20" fill-rule="evenodd"/><path d="M168.72,102.5H158.61L153,125h6.76l.75-3h6.34l.75,3h6.76l-5.62-22.47Zm-6.82,13.86,1.76-7.06,1.8,7.06Zm37.72-13.86h-6.74l-5.43,9.4L182,102.5h-6.74V125H182v-9.4l5.43,9.4,5.43-9.4V125h6.74V102.5Zm21.72,0H214.6V125h6.74V102.5Zm22.47,15.73H230v-1.87h8.61a5.24,5.24,0,0,0,5.24-5.24v-3.37a5.24,5.24,0,0,0-5.24-5.24H223.21v6.74h13.86v1.87h-8.61a5.24,5.24,0,0,0-5.24,5.24V125h20.6v-6.74Zm22.47-1.87a5.24,5.24,0,0,0-5.24-5.24h-8.61v-1.87h13.86V102.5h-20.6v8.61a5.24,5.24,0,0,0,5.24,5.24h8.61v1.87H245.68V125H261a5.24,5.24,0,0,0,5.24-5.24v-3.37Zm22.47-8.61a5.24,5.24,0,0,0-5.24-5.24H273.4a5.24,5.24,0,0,0-5.24,5.24v12A5.24,5.24,0,0,0,273.4,125h10.11a5.24,5.24,0,0,0,5.24-5.24v-12ZM274.9,118.23v-9H282v9Z" fill="#b2b4b6" fill-rule="evenodd"/><path d="M161.41,116.74H166l-2.3-9-2.25,9Zm1-.76,1.28-5.12L165,116Z" fill="#231f20" fill-rule="evenodd"/><path d="M160.79,122.36h5.74l.75,3h7.54L169,102.12H158.31l-5.81,23.24H160l.75-3Zm7.63-19.48,5.43,21.71h-6l-.75-3h-6.93l-.75,3h-6l5.43-21.71Z" fill="#231f20" fill-rule="evenodd"/><path d="M274.52,118.62h7.88v-9.75h-7.88v9.75Zm.76-.76v-8.23h6.35v8.23Z" fill="#231f20" fill-rule="evenodd"/><path d="M287.49,103.77a5.43,5.43,0,0,0-4-1.65H273.4a5.62,5.62,0,0,0-5.62,5.63v12a5.62,5.62,0,0,0,5.63,5.63h10.11a5.62,5.62,0,0,0,5.62-5.63v-12a5.43,5.43,0,0,0-1.65-4Zm.88,4v12a4.86,4.86,0,0,1-4.86,4.86H273.4a4.86,4.86,0,0,1-4.86-4.86s0-12,0-12a4.86,4.86,0,0,1,4.86-4.86h10.12a4.86,4.86,0,0,1,4.86,4.86Z" fill="#231f20" fill-rule="evenodd"/><path d="M187.44,111.14l-5.21-9h-7.34v23.24h7.5V117l5,8.74,5-8.74v8.36H200V102.12h-7.34l-5.21,9Zm11.79-8.26v21.71h-6v-9.31l-.57-.15-5.25,9.08-5.25-9.08-.57.15v9.31h-6V102.88h6.14l5.65,9.78,5.65-9.78Z" fill="#231f20" fill-rule="evenodd"/><path d="M221.72,102.12h-7.5v23.24h7.5V102.12Zm-.76.76v21.71h-6V102.88Z" fill="#231f20" fill-rule="evenodd"/><path d="M230.34,117.85v-1.11h8.23a5.62,5.62,0,0,0,5.62-5.63v-3.36a5.62,5.62,0,0,0-5.63-5.62H222.83v7.5h13.86v1.11h-8.23a5.62,5.62,0,0,0-5.62,5.63v9h21.36v-7.5Zm13.1.76v6H223.59v-8.24a4.67,4.67,0,0,1,1.42-3.43h0a4.67,4.67,0,0,1,3.43-1.42h9v-2.64H223.59v-6h15a4.86,4.86,0,0,1,4.86,4.86v3.38a4.67,4.67,0,0,1-1.42,3.43h0a4.67,4.67,0,0,1-3.43,1.42h-9v2.64Z" fill="#231f20" fill-rule="evenodd"/><path d="M265,112.38a5.44,5.44,0,0,0-4-1.65h-8.23v-1.11h13.86v-7.5H245.3v9a5.62,5.62,0,0,0,5.63,5.62h8.23v1.11H245.3v7.5H261a5.62,5.62,0,0,0,5.62-5.63v-3.36a5.44,5.44,0,0,0-1.65-4Zm-19,12.21v-6h13.86V116h-9a4.67,4.67,0,0,1-3.43-1.42h0a4.67,4.67,0,0,1-1.42-3.43v-8.24H265.9v6H252v2.64h9a4.67,4.67,0,0,1,3.43,1.42h0a4.67,4.67,0,0,1,1.42,3.43v3.38a4.86,4.86,0,0,1-4.86,4.86Z" fill="#231f20" fill-rule="evenodd"/></svg>