<svg xmlns="http://www.w3.org/2000/svg" viewBox="0 0 171 24" enable-background="new 0 0 171 24"><path fill="#85C446" d="M1.8 15.8c0-4.5 3.2-7.7 7.5-7.7 3.2 0 5.6 2.2 5.6 4.1 0 1.5-.7 2.6-2.1 2.6-1.3 0-2-.9-2-1.9 0-.9.7-1.7 1.2-1.9-.4-.7-1.4-1.3-2.9-1.3-2.2 0-4.1 2-4.1 5.8 0 3.6 1.6 5.7 4.5 5.7 1.8 0 3.2-1 4-3.1h1.5c-.8 3.3-3.1 5.1-6.3 5.1-4.3 0-6.9-3.2-6.9-7.4zM16.5 20.8h2.6v-17.4h-2.6v-2.3h5.6v19.6h2.6v2.1h-8.2v-2zM26.8 19.3c0-1 .3-1.9 1.1-2.7 1.2-1.2 2.8-1.6 5.4-1.9 1.9-.3 2.2-.3 2.2-.9v-1.5c0-1.9-.9-2.6-2.9-2.6-.9 0-1.7.2-2.4.6.5.3.9.9.9 1.6 0 .9-.7 1.8-1.8 1.8-1.2 0-1.9-.9-1.9-1.8 0-2.3 2.7-3.7 5.9-3.7 3.3 0 5.2 1.4 5.2 4.4v7.3c0 .7.2 1 1 1 .4 0 .8-.4 1.1-1.1l1.1.7c-.8 1.8-1.8 2.5-3.3 2.5-1.3 0-2.6-.8-2.6-2.5h-.2c-.7 1.5-2.7 2.5-4.6 2.5-2.7 0-4.2-1.5-4.2-3.7zm8.7-1.2v-2.5c-.3.1-.6.2-1.4.3-3.1.5-4 .9-4 2.8 0 1.4.7 2.3 2.3 2.3 1.4 0 3.1-1.2 3.1-2.9zM43.2 17.7h1.9c.8 2.3 2.6 3.9 4.6 3.9 1.7 0 2.4-.9 2.4-2 0-1.3-1-1.9-3.8-2.7-3.5-1-4.9-2.2-4.9-4.5s2-4.3 5-4.3c1.5 0 2.8.6 3.5 1.7l.3-1.7h1.9v5h-1.9c-1-2.1-1.9-3.4-3.9-3.4-1.1 0-2.2.6-2.2 1.8 0 1.3 1.1 1.9 3.7 2.6 3.4.9 4.9 2 4.9 4.5 0 2.2-1.9 4.6-5.2 4.6-1.8 0-3.3-.8-4.2-1.9l-.3 1.9h-1.8v-5.5zM57.4 17.7h1.9c.8 2.3 2.6 3.9 4.6 3.9 1.7 0 2.4-.9 2.4-2 0-1.3-1-1.9-3.8-2.7-3.5-1-4.9-2.2-4.9-4.5s2-4.3 5-4.3c1.5 0 2.8.6 3.5 1.7l.3-1.7h1.9v5h-1.9c-1-2.1-1.9-3.4-3.9-3.4-1.1 0-2.2.6-2.2 1.8 0 1.3 1.1 1.9 3.7 2.6 3.4.9 4.9 2 4.9 4.5 0 2.2-1.9 4.6-5.2 4.6-1.8 0-3.3-.8-4.2-1.9l-.3 1.9h-1.8v-5.5zM71 20.8h2.6v-10.3h-2.6v-2.1h5.6v12.4h2.6v2.1h-8.2v-2.1zm1.9-17.5c0-1.3.8-2.2 2.1-2.2 1.2 0 2 .9 2 2.1 0 1.3-.8 2.1-2.1 2.1-1.2 0-2-.8-2-2zM80.6 15.8c0-4.5 3.2-7.7 7.5-7.7 3.2 0 5.6 2.2 5.6 4.1 0 1.5-.7 2.6-2.1 2.6-1.3 0-2-.9-2-1.9 0-.9.7-1.7 1.2-1.9-.4-.7-1.4-1.3-2.9-1.3-2.2 0-4.1 2-4.1 5.8 0 3.6 1.6 5.7 4.5 5.7 1.8 0 3.2-1 4-3.1h1.5c-.8 3.3-3.1 5.1-6.3 5.1-4.4 0-6.9-3.2-6.9-7.4zM96.1 19.3c0-1 .3-1.9 1.1-2.7 1.2-1.2 2.8-1.6 5.4-1.9 1.9-.3 2.2-.3 2.2-.9v-1.5c0-1.9-.9-2.6-2.9-2.6-.9 0-1.7.2-2.4.6.5.3.9.9.9 1.6 0 .9-.7 1.8-1.8 1.8-1.2 0-1.9-.9-1.9-1.8 0-2.3 2.7-3.7 5.9-3.7 3.3 0 5.2 1.4 5.2 4.4v7.3c0 .7.2 1 1 1 .4 0 .8-.4 1.1-1.1l1.1.7c-.8 1.8-1.8 2.5-3.3 2.5-1.3 0-2.6-.8-2.6-2.5h-.2c-.8 1.6-2.8 2.6-4.7 2.6-2.6-.1-4.1-1.6-4.1-3.8zm8.6-1.2v-2.5c-.3.1-.6.2-1.4.3-3.1.5-4 .9-4 2.8 0 1.4.7 2.3 2.3 2.3 1.5 0 3.1-1.2 3.1-2.9zM112.1 20.8h2.6v-17.4h-2.6v-2.3h5.6v19.6h2.6v2.1h-8.2v-2z"/><path fill="#6E9934" d="M124.1 8.8h5.4l2.4 9.4 2.4-9.4h5.4v14.1h-3.4v-10.7l-3 10.7h-2.8l-3-10.7v10.7h-3.4v-14.1zM142.9 8.8h6.7c2.6 0 5.1 1.2 5.1 4.5 0 3.5-2 4.8-5.1 4.8h-3v4.7h-3.7v-14zm3.7 6.5h2.5c1.1 0 2-.5 2-1.8s-.8-1.9-2-1.9h-2.5v3.7zM156.7 8.8h7.2c2.5 0 4.9 1.1 4.9 4 0 1.5-.7 3-2.2 3.5 1.5.4 1.9 2 2 3.4 0 .6.1 2.7.6 3.2h-3.6c-.3-.5-.4-1.9-.4-2.2-.1-1.4-.3-2.9-2-2.9h-2.8v5.1h-3.7v-14.1zm3.7 6.1h3.1c1.1 0 1.7-.6 1.7-1.7 0-1-.8-1.5-1.9-1.5h-2.9v3.2z"/><path fill="none" d="M-20.2-20.8h211.4v65.6h-211.4z"/></svg>