<?xml version="1.0" encoding="utf-8"?>
<!-- Generator: Adobe Illustrator 19.0.0, SVG Export Plug-In . SVG Version: 6.00 Build 0)  -->
<svg version="1.1" id="Layer_6" xmlns="http://www.w3.org/2000/svg" xmlns:xlink="http://www.w3.org/1999/xlink" x="0px" y="0px"
	 viewBox="0 0 687 320.8" style="enable-background:new 0 0 687 320.8;" xml:space="preserve">
<style type="text/css">
	.st0{fill:#080E4A;}
	.st1{fill:#FFFFFF;}
	.st2{fill:#ED1C24;}
</style>
<polygon class="st0" points="8.8,130.5 26.9,107.8 53.6,94.7 218.7,91.8 247.3,47.3 281,23.5 324.4,9.1 359.9,7 388.7,12.8 
	417.7,25.9 436.2,43.6 449.5,57.2 463.5,77.8 470.9,92.2 513.7,95.1 585.3,95.1 602.6,99.8 615,117.7 650.4,121.5 670.9,133.3 
	683.3,158.6 679.2,191 664.4,208.7 644.2,220.2 507.6,220.2 495.6,229.2 480.4,235.8 463.1,235.8 447.9,229.6 427,248.2 393.2,270 
	349.2,278.6 311.4,274.5 283.3,264.2 236.4,224.7 216.4,236.2 187.8,239.5 166,228.8 153.6,217.3 46.6,217.3 25.7,204.5 11.2,186.8 
	3.8,166.7 "/>
<path class="st1" d="M255.8,43.6c-2.3,2.6-5.3,6.2-8.5,10.2c1.2,0,2.4-0.1,3.6-0.1C314,53.8,365.2,105,365.2,168
	c0,17.6-4,34.3-11.1,49.3h11.3c6.5-15.1,10.1-31.8,10.1-49.3C375.5,100.9,322.3,46.2,255.8,43.6z"/>
<path class="st1" d="M251,62.1c-3.5,0-6.9,0.2-10.2,0.5c-2.9,4-5.8,8.3-8.3,12.4c6-1.2,12.2-1.8,18.6-1.8
	c52.4,0,94.9,42.5,94.9,94.9c0,18-5,34.9-13.8,49.3h12.8c7.7-14.7,12.1-31.5,12.1-49.3C356.9,109.5,309.5,62.1,251,62.1z"/>
<path class="st1" d="M251,81.9c-8.3,0-16.4,1.2-24,3.4c-0.9,2.1-1.7,4.2-2.2,6.1l2.4,3.7c7.5-2.4,15.4-3.7,23.7-3.7
	c42.4,0,76.7,34.3,76.7,76.7c0,18.8-6.7,35.9-17.9,49.3h11.9c9.7-14,15.5-30.9,15.5-49.3C337.1,120.4,298.5,81.9,251,81.9z"/>
<path class="st1" d="M319.2,168c0-37.7-30.5-68.2-68.2-68.2c-6.6,0-12.9,1-19,2.7l7.2,11.2c3.8-0.8,7.7-1.3,11.8-1.3
	c30.7,0,55.6,24.9,55.6,55.6c0,21.4-12.1,40-29.8,49.3h21.3C311.1,204.9,319.2,187.4,319.2,168z"/>
<g>
	<polygon class="st1" points="310.3,21.6 313.2,27.4 319.6,28.3 314.9,32.8 316,39.2 310.3,36.2 304.6,39.2 305.7,32.8 301,28.3 
		307.4,27.4 	"/>
	<polygon class="st1" points="339.9,21.6 342.8,27.4 349.2,28.3 344.6,32.8 345.6,39.2 339.9,36.2 334.2,39.2 335.3,32.8 
		330.7,28.3 337.1,27.4 	"/>
	<polygon class="st1" points="368.7,21.6 371.6,27.4 378,28.3 373.4,32.8 374.5,39.2 368.7,36.2 363,39.2 364.1,32.8 359.5,28.3 
		365.9,27.4 	"/>
	<polygon class="st1" points="339.5,42.8 342.4,48.6 348.8,49.5 344.1,54 345.2,60.4 339.5,57.4 333.8,60.4 334.9,54 330.2,49.5 
		336.6,48.6 	"/>
	<polygon class="st1" points="369.1,42.8 372,48.6 378.4,49.5 373.8,54 374.9,60.4 369.1,57.4 363.4,60.4 364.5,54 359.9,49.5 
		366.3,48.6 	"/>
	<polygon class="st1" points="397.9,42.8 400.8,48.6 407.2,49.5 402.6,54 403.7,60.4 397.9,57.4 392.2,60.4 393.3,54 388.7,49.5 
		395.1,48.6 	"/>
	<polygon class="st1" points="368.5,65.2 371.4,71 377.8,71.9 373.2,76.4 374.2,82.8 368.5,79.8 362.8,82.8 363.9,76.4 359.3,71.9 
		365.7,71 	"/>
	<polygon class="st1" points="398.2,65.2 401,71 407.4,71.9 402.8,76.4 403.9,82.8 398.2,79.8 392.4,82.8 393.5,76.4 388.9,71.9 
		395.3,71 	"/>
	<polygon class="st1" points="427,65.2 429.8,71 436.2,71.9 431.6,76.4 432.7,82.8 427,79.8 421.2,82.8 422.3,76.4 417.7,71.9 
		424.1,71 	"/>
</g>
<path class="st2" d="M638.4,115.5h-18.6c-6-14.8-20.5-25.2-37.4-25.2h-18.1c-2.7-0.3-5.4-0.5-8.2-0.5h-80.8
	C454.9,37.2,404.4,0,345.4,0S236,37.2,215.5,89.7H63.4c-35,0-63.4,28.4-63.4,63.4v6c0,35,28.4,63.4,63.4,63.4h90.3
	c9.7,13.8,25.4,22.8,43.2,22.8c14.9,0,28.4-6.4,38.1-16.6c25.5,33.5,65.5,55,110.4,55c42.4,0,80.4-19.2,106-49.6
	c6.5,3.1,13.8,4.8,21.4,4.8c14.4,0,27.5-6.1,36.6-15.8c2.5,0.1,5.4,0,7.1,0h121.8c26.8,0,48.6-21.7,48.6-48.6v-10.4
	C687,137.2,665.3,115.5,638.4,115.5z M243.1,62.3c2.6-0.2,5.2-0.3,7.9-0.3c58.5,0,106,47.4,106,106c0,17.3-4.2,33.6-11.5,48.1h-12.7
	c8.3-14.1,13.1-30.5,13.1-48.1c0-52.4-42.5-94.9-94.9-94.9c-5.5,0-10.8,0.5-16,1.4C237.4,70.3,240.2,66.2,243.1,62.3z M251,81.9
	c47.6,0,86.2,38.6,86.2,86.2c0,17.8-5.4,34.3-14.7,48.1h-11.8c10.6-13.2,17-29.9,17-48.1c0-42.4-34.3-76.7-76.7-76.7
	c-6,0-11.7,0.7-17.3,2l-4.1-8.8C236.4,82.8,243.6,81.9,251,81.9z M242.9,113l-5.5-11.8c4.4-0.9,8.9-1.4,13.6-1.4
	c37.7,0,68.2,30.5,68.2,68.2c0,18.8-7.6,35.7-19.9,48.1h-20.4c16.6-9.6,27.7-27.5,27.7-48.1c0-30.7-24.9-55.6-55.6-55.6
	C248.2,112.4,245.5,112.6,242.9,113z M239.5,214.8c-8.6,13.6-23.5,22.5-40.3,22.5c-16.8,0-31.6-8.9-40.3-22.5h-2.7h-7H70.6
	c-34.1,0-61.8-25-61.8-55.8v-5.3c0-30.8,27.7-55.8,61.8-55.8h146.7c3.3,2.1,15.7,10.5,24.3,23.6l1-0.1v0c0.4-0.1,0.9-0.1,1.3-0.2
	l2.6-0.3c1.5-0.1,3-0.2,4.5-0.2c26.2,0,47.4,21.2,47.4,47.4c0,23.7-17.3,43.3-40,46.8h-13.8h-2.7H239.5z M345.4,272.7
	c-41.9,0-79.1-20.3-102.6-51.7h191.6c2.3,2.7,4.9,5.2,7.7,7.4C418.5,255.6,383.9,272.7,345.4,272.7z M678.6,172.6
	c0,23.6-21.2,42.7-47.3,42.7H515.5h-3h-5.8h-0.1c-8.5,9.7-21,15.8-35,15.8c-14.2,0-27-6.3-35.5-16.3h-2.3H430h-63.6
	c-0.2,0.4-0.4,0.9-0.5,1.3h-11.2c6.8-14.6,10.6-30.9,10.6-48.1C365.2,105,314,53.8,251,53.8c-0.3,0-0.6,0-0.9,0
	C273.6,27.5,307.6,11,345.4,11c53.9,0,100,33.6,119.3,81.3H349.7c2,2.7,2.2,3,4.1,5.7H551c2.7,0,5.4,0.2,8,0.5h17.7
	c16.5,0,30.6,9.2,36.5,22.2h18.1c26.1,0,47.3,19.1,47.3,42.7V172.6z"/>
<g>
	<path class="st0" d="M495.8,49.7v21.5c0,1.6,0.1,2.6,0.2,3.1c0.1,0.5,0.4,0.8,0.9,1.1c0.5,0.3,1.2,0.4,2.2,0.4h0.6v0.7h-13.9v-0.7
		h0.7c1.1,0,1.9-0.1,2.4-0.4c0.5-0.3,0.8-0.6,1-1.1c0.2-0.4,0.3-1.5,0.3-3.2V57.6c0-1.2-0.1-2-0.2-2.3c-0.1-0.3-0.3-0.6-0.7-0.8
		c-0.3-0.2-0.7-0.3-1.1-0.3c-0.7,0-1.5,0.2-2.4,0.6l-0.3-0.7l9.7-4.4H495.8z"/>
	<path class="st0" d="M521.2,76.5h-15.5v-0.4c4.8-5.6,7.6-9.4,8.7-11.4c1-2,1.5-3.9,1.5-5.7c0-1.4-0.4-2.5-1.3-3.4
		c-0.8-0.9-1.9-1.4-3.1-1.4c-2,0-3.5,1-4.7,3l-0.7-0.2c0.7-2.5,1.7-4.3,3.2-5.5c1.4-1.2,3.1-1.8,4.9-1.8c1.3,0,2.6,0.3,3.7,0.9
		c1.1,0.6,2,1.5,2.6,2.6c0.6,1.1,0.9,2.1,0.9,3c0,1.7-0.5,3.5-1.4,5.3c-1.3,2.4-4.2,5.7-8.6,10h5.7c1.4,0,2.3-0.1,2.7-0.2
		c0.4-0.1,0.8-0.3,1-0.6c0.3-0.3,0.6-0.9,1.1-1.8h0.7L521.2,76.5z"/>
	<path class="st0" d="M533.6,77.1l7.2-21.7h-5.4c-2.1,0-3.7,0.3-4.8,0.8c-0.7,0.4-1.4,1.1-1.9,2.2h-0.7l1.9-8.2h15.7l-8.8,26.9
		H533.6z"/>
	<path class="st0" d="M569.6,63.4c0,2.6-0.4,5.1-1.3,7.4c-0.5,1.4-1.2,2.5-2,3.4c-0.9,0.9-1.8,1.6-2.9,2.1c-1.1,0.5-2.3,0.8-3.6,0.8
		c-1.5,0-2.8-0.3-4-1c-1.2-0.7-2.2-1.6-3.1-2.8c-0.6-0.9-1.2-2.1-1.7-3.5c-0.6-2-0.9-4-0.9-6.1c0-2.9,0.5-5.5,1.4-7.9
		c0.8-2,1.9-3.5,3.5-4.5c1.5-1.1,3.2-1.6,4.9-1.6c1.8,0,3.4,0.5,4.9,1.6c1.5,1,2.6,2.4,3.4,4.2C569.1,57.9,569.6,60.5,569.6,63.4z
		 M562.7,63.4c0-4.6,0-7.3-0.1-8.1c-0.1-1.8-0.5-3-1.1-3.7c-0.4-0.4-1-0.6-1.8-0.6c-0.6,0-1.2,0.2-1.5,0.5c-0.6,0.5-0.9,1.2-1.1,2.4
		c-0.2,1.1-0.3,5.1-0.3,12c0,3.7,0.2,6.2,0.5,7.5c0.2,0.9,0.5,1.5,1,1.8c0.4,0.3,1,0.5,1.7,0.5c0.7,0,1.3-0.2,1.7-0.6
		c0.6-0.7,1-1.8,1.1-3.4L562.7,63.4z"/>
	<path class="st0" d="M600,69h-9.3l-1.1,2.6c-0.4,0.9-0.5,1.6-0.5,2.1c0,0.7,0.3,1.3,0.9,1.6c0.4,0.2,1.2,0.4,2.6,0.5v0.7h-8.8v-0.7
		c0.9-0.1,1.7-0.5,2.3-1.2c0.6-0.6,1.4-2,2.3-4l9.4-21h0.4l9.5,21.6c0.9,2,1.7,3.3,2.2,3.9c0.4,0.4,1.1,0.6,1.9,0.7v0.7H599v-0.7
		h0.5c1,0,1.7-0.1,2.1-0.4c0.3-0.2,0.4-0.5,0.4-0.9c0-0.2,0-0.5-0.1-0.7c0-0.1-0.2-0.6-0.6-1.5L600,69z M599.3,67.6l-3.9-9.1
		l-4.1,9.1H599.3z"/>
	<path class="st0" d="M627.7,67.6l7.1-17.4h10.7v0.7h-0.8c-0.8,0-1.4,0.1-1.9,0.4c-0.3,0.2-0.6,0.5-0.8,0.9
		c-0.1,0.3-0.2,1.1-0.2,2.4V72c0,1.4,0.1,2.2,0.2,2.5s0.4,0.6,0.9,0.9c0.4,0.2,1,0.4,1.8,0.4h0.8v0.7h-13.7v-0.7h0.9
		c0.8,0,1.4-0.1,1.9-0.4c0.3-0.2,0.6-0.5,0.8-0.9c0.1-0.3,0.2-1.1,0.2-2.5V52.5l-10.1,24H625l-10.2-23.8v18.5c0,1.3,0,2.1,0.1,2.4
		c0.2,0.6,0.5,1.2,1.1,1.6c0.6,0.4,1.4,0.6,2.7,0.6v0.7h-9v-0.7h0.3c0.6,0,1.1-0.1,1.6-0.3c0.5-0.2,0.9-0.5,1.1-0.8
		c0.3-0.3,0.5-0.8,0.6-1.4c0-0.1,0-0.8,0-2V54.7c0-1.3-0.1-2.2-0.2-2.5c-0.1-0.3-0.4-0.6-0.9-0.9c-0.4-0.3-1-0.4-1.8-0.4h-0.8v-0.7
		h10.8L627.7,67.6z"/>
</g>
<g>
	<path class="st0" d="M60.6,77.4v-0.6c2.1-0.5,4-1.2,5.4-2.2c1.5-1,2.7-2.1,3.6-3.5c0.9-1.4,1.5-3,1.8-4.9c-0.8,0.4-1.5,0.7-2,0.9
		c-0.6,0.2-1.2,0.2-1.8,0.2c-2,0-3.7-0.7-5-2.1c-1.3-1.4-2-3.4-2-5.9c0-1.7,0.4-3.3,1.1-4.8c0.7-1.4,1.7-2.6,3.1-3.4
		c1.3-0.8,2.7-1.2,4.2-1.2c1.5,0,3,0.4,4.4,1.3c1.4,0.9,2.5,2.2,3.3,3.8c0.8,1.7,1.2,3.6,1.2,5.7c0,2.8-0.7,5.4-2,8
		c-1.3,2.5-3.3,4.6-5.9,6.1C67.3,76.4,64.2,77.2,60.6,77.4z M71.8,64.6c0.1-1.4,0.2-2.7,0.2-3.8c0-2.3-0.3-4.5-0.8-6.6
		c-0.3-1.1-0.8-2-1.4-2.5c-0.3-0.3-0.7-0.4-1.3-0.4c-0.7,0-1.2,0.3-1.5,0.8c-0.5,0.8-0.8,2.2-0.8,4.4c0,3.6,0.4,6.1,1.3,7.4
		c0.6,0.9,1.3,1.3,2.3,1.3C70.3,65.2,70.9,65,71.8,64.6z"/>
	<path class="st0" d="M82.5,77.4v-0.6c2.1-0.5,4-1.2,5.4-2.2c1.5-1,2.7-2.1,3.6-3.5c0.9-1.4,1.5-3,1.8-4.9c-0.8,0.4-1.5,0.7-2,0.9
		c-0.6,0.2-1.2,0.2-1.8,0.2c-2,0-3.7-0.7-5-2.1c-1.3-1.4-2-3.4-2-5.9c0-1.7,0.4-3.3,1.1-4.8c0.7-1.4,1.7-2.6,3.1-3.4
		s2.7-1.2,4.2-1.2c1.5,0,3,0.4,4.4,1.3c1.4,0.9,2.5,2.2,3.3,3.8c0.8,1.7,1.2,3.6,1.2,5.7c0,2.8-0.7,5.4-2,8
		c-1.3,2.5-3.3,4.6-5.9,6.1C89.2,76.4,86.1,77.2,82.5,77.4z M93.6,64.6c0.1-1.4,0.2-2.7,0.2-3.8c0-2.3-0.3-4.5-0.8-6.6
		c-0.3-1.1-0.8-2-1.4-2.5c-0.3-0.3-0.7-0.4-1.3-0.4c-0.7,0-1.2,0.3-1.5,0.8c-0.5,0.8-0.8,2.2-0.8,4.4c0,3.6,0.4,6.1,1.3,7.4
		c0.6,0.9,1.3,1.3,2.3,1.3C92.1,65.2,92.8,65,93.6,64.6z"/>
	<path class="st0" d="M108.1,70.9c0.9,0,1.7,0.3,2.3,1c0.6,0.6,1,1.4,1,2.3c0,0.9-0.3,1.7-1,2.3c-0.6,0.6-1.4,0.9-2.3,0.9
		c-0.9,0-1.6-0.3-2.3-0.9c-0.6-0.6-1-1.4-1-2.3c0-0.9,0.3-1.6,1-2.3C106.4,71.2,107.2,70.9,108.1,70.9z"/>
	<path class="st0" d="M122,77.4l7.2-21.7h-5.4c-2.1,0-3.7,0.3-4.8,0.8c-0.7,0.4-1.4,1.1-1.9,2.2h-0.7l1.9-8.2h15.7l-8.8,26.9H122z"
		/>
	<path class="st0" d="M157.7,52v10.8h0.8c1.2,0,2.1-0.2,2.8-0.5c0.7-0.4,1.4-0.9,1.9-1.8c0.5-0.8,0.8-1.9,1-3.4h0.7v13.2h-0.7
		c-0.2-2.5-0.9-4.2-2-5c-1.1-0.8-2.3-1.2-3.7-1.2h-0.8v8.1c0,1.4,0.1,2.2,0.2,2.5c0.2,0.3,0.4,0.6,0.9,0.9c0.4,0.2,1,0.4,1.8,0.4
		h0.9v0.7h-13.8v-0.7h0.9c0.8,0,1.4-0.1,1.9-0.4c0.3-0.2,0.6-0.5,0.8-0.9c0.1-0.3,0.2-1.1,0.2-2.5V55c0-1.4-0.1-2.2-0.2-2.5
		c-0.1-0.3-0.4-0.6-0.9-0.9c-0.4-0.3-1-0.4-1.8-0.4h-0.9v-0.7h22.2v7.6h-0.8c-0.2-1.8-0.6-3.1-1.4-4c-0.7-0.9-1.8-1.5-3.2-1.8
		c-0.8-0.2-2.2-0.3-4.3-0.3H157.7z"/>
	<path class="st0" d="M187.2,67.9l7.1-17.4H205v0.7h-0.8c-0.8,0-1.4,0.1-1.9,0.4c-0.3,0.2-0.6,0.5-0.8,0.9c-0.1,0.3-0.2,1.1-0.2,2.4
		v17.3c0,1.4,0.1,2.2,0.2,2.5s0.4,0.6,0.9,0.9c0.4,0.2,1,0.4,1.8,0.4h0.8v0.7h-13.7v-0.7h0.9c0.8,0,1.4-0.1,1.9-0.4
		c0.3-0.2,0.6-0.5,0.8-0.9c0.1-0.3,0.2-1.1,0.2-2.5V52.8l-10.1,24h-0.5L174.2,53v18.5c0,1.3,0,2.1,0.1,2.4c0.2,0.6,0.5,1.2,1.1,1.6
		c0.6,0.4,1.4,0.6,2.7,0.6v0.7h-9v-0.7h0.3c0.6,0,1.1-0.1,1.6-0.3c0.5-0.2,0.9-0.5,1.1-0.8s0.5-0.8,0.6-1.4c0-0.1,0-0.8,0-2V55
		c0-1.3-0.1-2.2-0.2-2.5c-0.1-0.3-0.4-0.6-0.9-0.9c-0.4-0.3-1-0.4-1.8-0.4H169v-0.7h10.8L187.2,67.9z"/>
</g>
<g>
	<path class="st1" d="M95.6,119.4v48.4c0,0,27.9-46.6,33.1-25.6c0.1,0.3,0.4,0.9,0.3,1.4c0,0.4-0.6,0.7-1,0.7
		c-1.8,0.2-3.5,0.7-4.9,1.5c-1.6,0.9-4.7,3.7-9.3,8.3l-5.4,5.4l11.6,17.5c4.7,7.1,7.4,11.1,8.3,11.9c1.2,1.3,2.7,2,4.5,2.1v2h-25.5
		v-2c1.1,0,2-0.2,2.5-0.6c0.5-0.4,0.8-0.9,0.8-1.5c0-0.8-0.7-2.3-2.2-4.6l-9.8-14.7l-3.2,3.2v9.2c0,3.9,0.4,6.3,1.1,7.2
		c0.7,0.9,2.2,1.6,4.4,1.8v2H75.5v-2c2.1-0.2,3.5-0.9,4.4-2.1c0.6-0.8,0.9-3.1,0.9-6.9v-51.6c0-3.8-0.3-6.2-1-7.2
		c-0.7-0.9-2.1-1.6-4.3-1.9v-2H95.6z"/>
	<path class="st1" d="M162.9,185.5c-6,5.4-11.4,8.2-16.2,8.2c-2.8,0-5.2-0.9-7-2.8c-1.9-1.9-2.8-4.3-2.8-7.2c0-3.9,1.6-7.3,4.8-10.4
		c3.2-3.1,10.3-7.2,21.2-12.4v-5.1c0-3.9-0.2-6.3-0.6-7.3c-0.4-1-1.2-1.9-2.3-2.6c-1.1-0.7-2.4-1.1-3.8-1.1c-2.3,0-4.2,0.5-5.6,1.6
		c-0.9,0.7-1.4,1.4-1.4,2.3c0,0.8,0.5,1.7,1.4,2.8c1.4,1.6,2,3.1,2,4.5c0,1.8-0.6,3.3-1.9,4.5c-1.3,1.3-3,1.9-5.1,1.9
		c-2.2,0-4-0.7-5.5-2.1c-1.5-1.4-2.3-3-2.3-4.8c0-2.6,1-5.1,3-7.5c2-2.4,4.8-4.2,8.4-5.5c3.6-1.3,7.3-1.9,11.2-1.9
		c4.7,0,8.4,1,11.1,3.1c2.7,2,4.5,4.3,5.3,6.6c0.5,1.5,0.8,5,0.8,10.5v19.7c0,2.3,0.1,3.8,0.3,4.4c0.2,0.6,0.4,1,0.8,1.3
		c0.3,0.3,0.7,0.4,1.2,0.4c0.9,0,1.9-0.7,2.8-2l1.6,1.3c-1.7,2.7-3.6,4.6-5.4,5.8c-1.9,1.2-4,1.8-6.4,1.8c-2.8,0-5-0.7-6.6-2
		C164.2,190.3,163.2,188.3,162.9,185.5z M162.9,181.6v-17c-4.2,2.6-7.4,5.3-9.5,8.3c-1.4,1.9-2,3.9-2,5.9c0,1.7,0.6,3.1,1.7,4.4
		c0.9,1,2.1,1.5,3.7,1.5C158.5,184.6,160.5,183.6,162.9,181.6z"/>
	<path class="st1" d="M212.1,142.2v52.6c0,4.9-0.3,8.5-0.9,10.9c-0.9,3.4-2.7,6.2-5.3,8.2c-2.6,2.1-6.1,3.1-10.4,3.1
		c-4.3,0-7.5-0.9-9.6-2.7c-2.1-1.8-3.1-4-3.1-6.6c0-1.6,0.5-3,1.6-4.1c1.1-1.2,2.3-1.8,3.8-1.8c1.4,0,2.4,0.4,3.2,1.2
		c0.8,0.8,1.1,2.1,1.1,3.7c0,0.4,0,0.9-0.1,1.5c0,0.8-0.1,1.3-0.1,1.6c0,1.3,0.3,2.2,0.9,2.8c0.6,0.6,1.3,0.9,2.2,0.9
		c0.8,0,1.5-0.4,2.1-1.1c0.6-0.7,0.9-1.8,0.9-3.1c0-0.7-0.1-2.2-0.3-4.4c-0.4-4-0.5-6.4-0.6-7.3l-0.1-12.9v-31.4v-2.8
		c0-2.2-0.4-3.8-1.1-4.7c-0.7-0.9-2.3-1.4-4.8-1.7v-2H212.1z M204.8,117.7c2.2,0,4.1,0.8,5.7,2.4s2.4,3.6,2.4,5.9
		c0,2.3-0.8,4.3-2.4,5.9c-1.6,1.6-3.5,2.5-5.7,2.5c-2.2,0-4.1-0.8-5.7-2.5c-1.6-1.6-2.4-3.6-2.4-5.9c0-2.3,0.8-4.3,2.4-5.9
		S202.5,117.7,204.8,117.7z"/>
	<path class="st1" d="M246.9,140.7c4.3,0,8.3,1.1,12,3.4c3.7,2.3,6.5,5.5,8.4,9.7c1.9,4.2,2.9,8.8,2.9,13.8c0,7.2-1.8,13.2-5.4,18.1
		c-4.3,5.9-10.2,8.8-17.8,8.8c-7.4,0-13.1-2.7-17.1-8.1c-4-5.4-6-11.6-6-18.7c0-7.3,2-13.6,6.1-19
		C234.1,143.4,239.7,140.7,246.9,140.7z M247.1,144.6c-1.8,0-3.3,0.7-4.6,2.1c-1.3,1.4-2.1,4.1-2.6,8.3c-0.4,4.1-0.6,9.8-0.6,17.1
		c0,3.9,0.3,7.5,0.8,10.9c0.4,2.6,1.2,4.5,2.5,5.9c1.3,1.3,2.7,2,4.3,2c1.6,0,2.9-0.4,3.9-1.3c1.4-1.3,2.3-3,2.8-5.2
		c0.7-3.4,1-10.4,1-20.8c0-6.2-0.3-10.4-1-12.7c-0.7-2.3-1.6-4-2.9-5C249.7,145,248.5,144.6,247.1,144.6z"/>
</g>
<g>
	<path class="st1" d="M411,159.6v20.6c0,4,0.2,6.5,0.7,7.6c0.5,1,1.3,1.9,2.5,2.5c1.2,0.6,3.4,0.9,6.7,0.9v2h-36.6v-2
		c3.3,0,5.5-0.3,6.7-0.9c1.2-0.6,2-1.5,2.5-2.5c0.5-1,0.7-3.5,0.7-7.5v-47.8c0-4-0.2-6.5-0.7-7.5c-0.5-1-1.3-1.8-2.5-2.5
		c-1.2-0.6-3.4-0.9-6.6-0.9v-2h33.2c8.6,0,15,0.6,19,1.9c4,1.2,7.3,3.5,9.8,6.8c2.5,3.3,3.8,7.2,3.8,11.6c0,5.4-1.9,9.9-5.7,13.5
		c-2.4,2.2-5.8,3.9-10.2,5.1l17.2,24.9c2.3,3.2,3.9,5.3,4.8,6.1c1.4,1.1,3.1,1.7,5,1.8v2h-22.5l-23-33.5H411z M411,123.4v32.3h3
		c4.9,0,8.5-0.5,11-1.4c2.4-0.9,4.3-2.6,5.7-5c1.4-2.4,2.1-5.5,2.1-9.4c0-5.6-1.3-9.8-3.8-12.4c-2.5-2.7-6.6-4-12.3-4H411z"/>
	<path class="st1" d="M491.2,185.6c-6,5.4-11.4,8.2-16.2,8.2c-2.8,0-5.2-0.9-7-2.8c-1.9-1.9-2.8-4.3-2.8-7.2c0-3.9,1.6-7.3,4.8-10.4
		c3.2-3.1,10.3-7.2,21.2-12.4v-5.1c0-3.9-0.2-6.3-0.6-7.3c-0.4-1-1.2-1.9-2.3-2.6c-1.1-0.7-2.4-1.1-3.8-1.1c-2.3,0-4.2,0.5-5.6,1.6
		c-0.9,0.7-1.4,1.4-1.4,2.3c0,0.8,0.5,1.7,1.4,2.8c1.4,1.6,2,3.1,2,4.5c0,1.8-0.6,3.3-1.9,4.5c-1.3,1.3-3,1.9-5.1,1.9
		c-2.2,0-4-0.7-5.5-2.1c-1.5-1.4-2.3-3-2.3-4.8c0-2.6,1-5.1,3-7.5c2-2.4,4.8-4.2,8.4-5.5c3.6-1.3,7.3-1.9,11.2-1.9
		c4.7,0,8.4,1,11.1,3.1c2.7,2,4.5,4.3,5.3,6.6c0.5,1.5,0.8,5,0.8,10.5v19.7c0,2.3,0.1,3.8,0.3,4.4c0.2,0.6,0.4,1,0.8,1.3
		c0.3,0.3,0.7,0.4,1.2,0.4c0.9,0,1.9-0.7,2.8-2l1.6,1.3c-1.7,2.7-3.6,4.6-5.4,5.8c-1.9,1.2-4,1.8-6.4,1.8c-2.8,0-5-0.7-6.6-2
		C492.5,190.4,491.5,188.3,491.2,185.6z M491.2,181.6v-17c-4.2,2.6-7.4,5.3-9.5,8.3c-1.4,1.9-2,3.9-2,5.9c0,1.7,0.6,3.1,1.7,4.4
		c0.9,1,2.1,1.5,3.7,1.5C486.8,184.7,488.8,183.6,491.2,181.6z"/>
	<path class="st1" d="M565.8,119.4v58.5c0,3.9,0.1,6.2,0.3,7c0.3,1.2,0.9,2.1,1.6,2.7c0.8,0.6,2.2,0.9,4.1,1.1v1.8l-20.8,4.2v-8.1
		c-2.5,3.1-4.7,5.3-6.7,6.4c-2,1.1-4.2,1.7-6.6,1.7c-6.3,0-11.3-2.9-14.9-8.7c-2.9-4.7-4.4-10.5-4.4-17.3c0-5.5,0.9-10.4,2.7-14.7
		c1.8-4.3,4.3-7.6,7.5-9.8c3.2-2.2,6.6-3.3,10.3-3.3c2.4,0,4.4,0.5,6.3,1.4c1.8,0.9,3.8,2.6,5.9,4.9v-15.3c0-3.9-0.2-6.2-0.5-7
		c-0.4-1-1.1-1.8-1.9-2.3c-0.9-0.5-2.4-0.8-4.7-0.8v-2.3H565.8z M551.1,153.9c-2.6-5.2-5.8-7.8-9.6-7.8c-1.3,0-2.4,0.4-3.2,1.1
		c-1.3,1.1-2.4,3.1-3.2,5.9c-0.8,2.8-1.2,7.1-1.2,13c0,6.4,0.5,11.1,1.4,14.2c0.9,3.1,2.2,5.3,3.8,6.7c0.8,0.7,1.9,1,3.3,1
		c3.1,0,6-2.5,8.8-7.5V153.9z"/>
	<path class="st1" d="M597.2,142.3v40.3c0,3.6,0.4,5.9,1.2,6.9c0.8,1,2.4,1.6,4.7,1.7v2h-26.6v-2c2.2-0.1,3.8-0.7,4.8-2
		c0.7-0.8,1-3,1-6.6v-29.7c0-3.6-0.4-5.8-1.2-6.8c-0.8-1-2.4-1.6-4.7-1.7v-2H597.2z M589.9,117.7c2.3,0,4.2,0.8,5.8,2.5
		c1.6,1.6,2.4,3.6,2.4,5.9c0,2.3-0.8,4.3-2.4,5.9c-1.6,1.6-3.5,2.4-5.7,2.4c-2.3,0-4.2-0.8-5.8-2.4c-1.6-1.6-2.4-3.6-2.4-5.9
		c0-2.3,0.8-4.3,2.4-5.9C585.7,118.5,587.6,117.7,589.9,117.7z"/>
	<path class="st1" d="M631.3,140.8c4.3,0,8.3,1.1,12,3.4c3.7,2.3,6.5,5.5,8.4,9.7c1.9,4.2,2.9,8.8,2.9,13.8c0,7.2-1.8,13.2-5.4,18.1
		c-4.3,5.9-10.2,8.8-17.8,8.8c-7.4,0-13.1-2.7-17.1-8.1c-4-5.4-6-11.6-6-18.7c0-7.3,2-13.6,6.1-19
		C618.5,143.5,624.1,140.8,631.3,140.8z M631.5,144.6c-1.8,0-3.3,0.7-4.6,2.1c-1.3,1.4-2.1,4.1-2.6,8.3c-0.4,4.1-0.6,9.8-0.6,17.1
		c0,3.9,0.3,7.5,0.8,10.9c0.4,2.6,1.2,4.5,2.5,5.9c1.3,1.3,2.7,2,4.3,2c1.6,0,2.9-0.4,3.9-1.3c1.4-1.3,2.3-3,2.8-5.2
		c0.7-3.4,1-10.4,1-20.8c0-6.2-0.3-10.4-1-12.7c-0.7-2.3-1.6-4-2.9-5C634.2,145,633,144.6,631.5,144.6z"/>
</g>
<g>
	<g>
		<path class="st0" d="M104.8,311.5c-1.1,0.6-3.5,1.2-6.4,1.2c-6.8,0-12-4.3-12-12.3c0-7.6,5.1-12.7,12.7-12.7c3,0,4.9,0.6,5.8,1.1
			l-0.8,2.6c-1.2-0.6-2.8-1-4.9-1c-5.7,0-9.5,3.6-9.5,10c0,6,3.4,9.8,9.3,9.8c1.9,0,3.9-0.4,5.1-1L104.8,311.5z"/>
		<path class="st2" d="M99.1,287.6c3,0,4.9,0.6,5.8,1.1l-0.8,2.6c-1.2-0.6-2.8-1-4.9-1c-5.7,0-9.5,3.6-9.5,10c0,6,3.4,9.8,9.3,9.8
			c1.9,0,3.9-0.4,5.1-1l0.6,2.5c-1.1,0.6-3.5,1.2-6.4,1.2c-6.8,0-12-4.3-12-12.3C86.5,292.7,91.6,287.6,99.1,287.6 M99.1,286.6
			c-8,0-13.7,5.7-13.7,13.7c0,8.1,5.1,13.3,13,13.3c3.3,0,5.7-0.7,6.9-1.3l0.7-0.4l-0.2-0.8l-0.6-2.5l-0.3-1.2l-1.1,0.5
			c-1.2,0.6-3,0.9-4.7,0.9c-5.2,0-8.3-3.3-8.3-8.8c0-5.6,3.2-9,8.5-9c1.7,0,3.3,0.3,4.4,0.9l1.1,0.5l0.3-1.1l0.8-2.6l0.2-0.8
			l-0.7-0.4C104.8,287.5,102.8,286.6,99.1,286.6L99.1,286.6z"/>
	</g>
	<g>
		<path class="st0" d="M110,304.1c0.1,4.3,2.8,6,6,6c2.3,0,3.7-0.4,4.8-0.9l0.6,2.3c-1.1,0.5-3.1,1.1-5.8,1.1
			c-5.4,0-8.6-3.6-8.6-8.8c0-5.3,3.1-9.4,8.2-9.4c5.7,0,7.2,5,7.2,8.2c0,0.6,0,1.1-0.1,1.5H110z M119.3,301.8c0-2-0.8-5.1-4.4-5.1
			c-3.2,0-4.6,2.9-4.9,5.1H119.3z"/>
		<path class="st2" d="M115.2,294.4c5.7,0,7.2,5,7.2,8.2c0,0.6,0,1.1-0.1,1.5H110c0.1,4.3,2.8,6,6,6c2.3,0,3.7-0.4,4.8-0.9l0.6,2.3
			c-1.1,0.5-3.1,1.1-5.8,1.1c-5.4,0-8.6-3.6-8.6-8.8C107,298.5,110.1,294.4,115.2,294.4 M110.1,301.8h9.3c0-2-0.8-5.1-4.4-5.1
			C111.7,296.7,110.3,299.6,110.1,301.8 M115.2,293.4c-5.4,0-9.2,4.3-9.2,10.4c0,6,3.8,9.8,9.6,9.8c3,0,5-0.7,6.2-1.2l0.8-0.3
			l-0.2-0.8l-0.6-2.3l-0.3-1.1l-1.1,0.5c-0.9,0.4-2.2,0.8-4.4,0.8c-1.7,0-4.4-0.6-4.9-4h11.2h0.8l0.2-0.8c0.1-0.4,0.1-1,0.1-1.7
			C123.4,298.4,121.2,293.4,115.2,293.4L115.2,293.4z M111.3,300.8c0.4-1.3,1.3-3.1,3.6-3.1c1,0,1.7,0.3,2.3,0.9
			c0.6,0.7,0.9,1.6,1,2.3H111.3L111.3,300.8z"/>
	</g>
	<g>
		<path class="st0" d="M126.3,286.7h3.2v25.6h-3.2V286.7z"/>
		<path class="st2" d="M129.5,286.7v25.6h-3.2v-25.6H129.5 M130.5,285.7h-1h-3.2h-1v1v25.6v1h1h3.2h1v-1v-25.6V285.7L130.5,285.7z"
			/>
	</g>
	<g>
		<path class="st0" d="M136.6,304.1c0.1,4.3,2.8,6,6,6c2.3,0,3.7-0.4,4.8-0.9l0.6,2.3c-1.1,0.5-3.1,1.1-5.8,1.1
			c-5.4,0-8.6-3.6-8.6-8.8c0-5.3,3.1-9.4,8.2-9.4c5.7,0,7.2,5,7.2,8.2c0,0.6,0,1.1-0.1,1.5H136.6z M145.9,301.8c0-2-0.8-5.1-4.4-5.1
			c-3.2,0-4.6,2.9-4.9,5.1H145.9z"/>
		<path class="st2" d="M141.7,294.4c5.7,0,7.2,5,7.2,8.2c0,0.6,0,1.1-0.1,1.5h-12.2c0.1,4.3,2.8,6,6,6c2.3,0,3.7-0.4,4.8-0.9
			l0.6,2.3c-1.1,0.5-3.1,1.1-5.8,1.1c-5.4,0-8.6-3.6-8.6-8.8C133.5,298.5,136.6,294.4,141.7,294.4 M136.6,301.8h9.3
			c0-2-0.8-5.1-4.4-5.1C138.2,296.7,136.9,299.6,136.6,301.8 M141.7,293.4c-5.4,0-9.2,4.3-9.2,10.4c0,6,3.8,9.8,9.6,9.8
			c3,0,5-0.7,6.2-1.2l0.8-0.3l-0.2-0.8l-0.6-2.3l-0.3-1.1l-1.1,0.5c-0.9,0.4-2.2,0.8-4.4,0.8c-1.7,0-4.4-0.6-4.9-4h11.2h0.8l0.2-0.8
			c0.1-0.4,0.1-1,0.1-1.7C149.9,298.4,147.8,293.4,141.7,293.4L141.7,293.4z M137.8,300.8c0.4-1.3,1.3-3.1,3.6-3.1
			c1,0,1.7,0.3,2.3,0.9c0.6,0.7,0.9,1.6,1,2.3H137.8L137.8,300.8z"/>
	</g>
	<g>
		<path class="st0" d="M152.8,286.7h3.1v10.9h0.1c1.1-1.9,3.1-3.2,5.9-3.2c4.4,0,7.4,3.6,7.4,8.9c0,6.2-4,9.3-7.8,9.3
			c-2.5,0-4.5-1-5.9-3.2h-0.1l-0.2,2.8h-2.7c0.1-1.2,0.1-3,0.1-4.5V286.7z M156,305.2c0,0.4,0,0.8,0.1,1.2c0.6,2.2,2.4,3.7,4.8,3.7
			c3.3,0,5.3-2.7,5.3-6.7c0-3.5-1.8-6.5-5.2-6.5c-2.1,0-4.1,1.5-4.8,3.9c-0.1,0.4-0.2,0.8-0.2,1.3V305.2z"/>
		<path class="st2" d="M156,286.7v10.9h0.1c1.1-1.9,3.1-3.2,5.9-3.2c4.4,0,7.4,3.6,7.4,8.9c0,6.2-4,9.3-7.8,9.3
			c-2.5,0-4.5-1-5.9-3.2h-0.1l-0.2,2.8h-2.7c0.1-1.2,0.1-3,0.1-4.5v-21.1H156 M160.9,310.1c3.3,0,5.3-2.7,5.3-6.7
			c0-3.5-1.8-6.5-5.2-6.5c-2.1,0-4.1,1.5-4.8,3.9c-0.1,0.4-0.2,0.8-0.2,1.3v3.1c0,0.4,0,0.8,0.1,1.2
			C156.7,308.6,158.6,310.1,160.9,310.1 M157,285.7h-1h-3.1h-1v1v21.1c0,1.5-0.1,3.3-0.1,4.4l-0.1,1.1h1.1h2.7h0.9l0.1-0.9l0-0.4
			c1.3,1.2,3,1.7,5.1,1.7c4.4,0,8.8-3.5,8.8-10.3c0-5.8-3.4-9.9-8.4-9.9c-2,0-3.7,0.6-5,1.6v-8.4V285.7L157,285.7z M160.9,309.1
			c-1.8,0-3.3-1.2-3.8-3c-0.1-0.3-0.1-0.5-0.1-0.9v-3.1c0-0.4,0-0.7,0.1-1.1c0.5-1.9,2.1-3.2,3.8-3.2c3.1,0,4.2,3,4.2,5.5
			C165.2,307,163.6,309.1,160.9,309.1L160.9,309.1z"/>
	</g>
	<g>
		<path class="st0" d="M173.3,300.2c0-2.1,0-3.8-0.1-5.4h2.8l0.1,3.5h0.1c0.8-2.3,2.7-3.8,4.9-3.8c0.3,0,0.6,0,0.9,0.1v3
			c-0.3-0.1-0.6-0.1-1.1-0.1c-2.2,0-3.8,1.7-4.2,4c-0.1,0.4-0.1,1-0.1,1.5v9.3h-3.2V300.2z"/>
		<path class="st2" d="M181.1,294.4c0.3,0,0.6,0,0.9,0.1v3c-0.3-0.1-0.6-0.1-1.1-0.1c-2.2,0-3.8,1.7-4.2,4c-0.1,0.4-0.1,1-0.1,1.5
			v9.3h-3.2v-12c0-2.1,0-3.8-0.1-5.4h2.8l0.1,3.5h0.1C177,295.9,178.9,294.4,181.1,294.4 M181.1,293.4c-1.6,0-3,0.6-4.1,1.7l0-0.4
			l0-1h-1h-2.8h-1.1l0.1,1.1c0.1,1.5,0.1,3.1,0.1,5.4v12v1h1h3.2h1v-1v-9.3c0-0.5,0-1,0.1-1.3c0.4-2,1.6-3.2,3.3-3.2
			c0.4,0,0.6,0,0.9,0l1.2,0.3v-1.2v-3v-0.9l-0.9-0.1l-0.1,0C181.7,293.5,181.4,293.4,181.1,293.4L181.1,293.4z"/>
	</g>
	<g>
		<path class="st0" d="M197.2,308.1c0,1.5,0.1,3,0.3,4.2h-2.8l-0.3-2.2h-0.1c-1,1.4-2.8,2.6-5.3,2.6c-3.5,0-5.3-2.5-5.3-5
			c0-4.2,3.7-6.5,10.5-6.5v-0.4c0-1.4-0.4-4-4-4c-1.7,0-3.3,0.5-4.6,1.3l-0.7-2.1c1.4-0.9,3.6-1.5,5.8-1.5c5.3,0,6.6,3.6,6.6,7.1
			V308.1z M194.1,303.3c-3.5-0.1-7.4,0.5-7.4,3.9c0,2.1,1.4,3,3,3c2.3,0,3.8-1.4,4.3-2.9c0.1-0.4,0.1-0.7,0.1-1V303.3z"/>
		<path class="st2" d="M190.5,294.4c5.3,0,6.6,3.6,6.6,7.1v6.5c0,1.5,0.1,3,0.3,4.2h-2.8l-0.3-2.2h-0.1c-1,1.4-2.8,2.6-5.3,2.6
			c-3.5,0-5.3-2.5-5.3-5c0-4.2,3.7-6.5,10.3-6.5c0.1,0,0.1,0,0.2,0v-0.4c0-1.4-0.4-4-3.9-4c0,0,0,0-0.1,0c-1.7,0-3.3,0.5-4.6,1.3
			l-0.7-2.1C186.2,295.1,188.3,294.4,190.5,294.4 M189.7,310.3c2.3,0,3.8-1.4,4.3-2.9c0.1-0.4,0.1-0.7,0.1-1v-3c-0.2,0-0.3,0-0.5,0
			c-3.3,0-6.9,0.7-6.9,3.9C186.7,309.3,188.1,310.3,189.7,310.3 M190.5,293.4c-2.3,0-4.6,0.6-6.3,1.7l-0.7,0.4l0.3,0.7l0.7,2.1
			l0.4,1.2l1.1-0.7c1-0.7,2.5-1.1,4-1.1l0.1,0c1.1,0,2.6,0.3,2.9,2.4c-6.6,0.2-10.4,2.9-10.4,7.5c0,3,2.2,6,6.3,6
			c1.7,0,3.4-0.5,4.7-1.5l0,0.2l0.1,0.9h0.9h2.8h1.2l-0.2-1.2c-0.2-1-0.2-2.4-0.2-4v-6.5C198.2,296.3,195.4,293.4,190.5,293.4
			L190.5,293.4z M189.7,309.3c-0.7,0-2-0.3-2-2c0-1.9,1.8-2.8,5.4-2.9v2c0,0.2,0,0.5-0.1,0.7C192.7,308.1,191.6,309.3,189.7,309.3
			L189.7,309.3z"/>
	</g>
	<g>
		<path class="st0" d="M205.9,290.6v4.2h4.5v2.4h-4.5v9.4c0,2.2,0.6,3.4,2.4,3.4c0.9,0,1.4-0.1,1.8-0.2l0.1,2.4
			c-0.6,0.2-1.6,0.4-2.8,0.4c-1.5,0-2.7-0.5-3.4-1.3c-0.9-1-1.2-2.5-1.2-4.6v-9.5h-2.7v-2.4h2.7v-3.2L205.9,290.6z"/>
		<path class="st2" d="M205.9,290.6v4.2h4.5v2.4h-4.5v9.4c0,2.2,0.6,3.4,2.4,3.4c0.9,0,1.4-0.1,1.8-0.2l0.1,2.4
			c-0.6,0.2-1.6,0.4-2.8,0.4c-1.5,0-2.7-0.5-3.4-1.3c-0.9-1-1.2-2.5-1.2-4.6v-9.5h-2.7v-2.4h2.7v-3.2L205.9,290.6 M206.9,289.3
			l-1.3,0.4l-3.1,0.9l-0.7,0.2v0.7v2.2h-1.7h-1v1v2.4v1h1h1.7v8.5c0,2.4,0.5,4.1,1.5,5.2c1,1.1,2.5,1.7,4.2,1.7
			c1.5,0,2.6-0.3,3.1-0.5l0.7-0.3l0-0.8l-0.1-2.4l-0.1-1.3l-1.2,0.4c-0.3,0.1-0.7,0.2-1.5,0.2c-0.6,0-1.4,0-1.4-2.4v-8.4h3.5h1v-1
			v-2.4v-1h-1h-3.5v-3.2V289.3L206.9,289.3z"/>
	</g>
	<g>
		<path class="st0" d="M217.6,289.9c0,1.1-0.8,1.9-2,1.9c-1.2,0-1.9-0.9-1.9-1.9s0.8-2,2-2C216.8,287.9,217.6,288.8,217.6,289.9z
			 M214,312.2v-17.4h3.2v17.4H214z"/>
		<path class="st2" d="M215.6,287.9c1.2,0,1.9,0.9,1.9,2c0,1.1-0.8,1.9-2,1.9c-1.2,0-1.9-0.9-1.9-1.9S214.4,287.9,215.6,287.9
			 M217.2,294.8v17.4H214v-17.4H217.2 M215.6,286.9c-1.7,0-3,1.3-3,3c0,1.7,1.3,2.9,2.9,2.9c1.7,0,3-1.2,3-2.9
			C218.6,288.2,217.3,286.9,215.6,286.9L215.6,286.9z M218.2,293.8h-1H214h-1v1v17.4v1h1h3.2h1v-1v-17.4V293.8L218.2,293.8z"/>
	</g>
	<g>
		<path class="st0" d="M222.5,299.5c0-1.8,0-3.3-0.1-4.7h2.8l0.2,2.9h0.1c0.9-1.6,2.9-3.2,5.8-3.2c2.4,0,6.2,1.4,6.2,7.4v10.4h-3.2
			v-10c0-2.8-1-5.1-4-5.1c-2.1,0-3.7,1.5-4.2,3.2c-0.1,0.4-0.2,0.9-0.2,1.5v10.5h-3.2V299.5z"/>
		<path class="st2" d="M231.1,294.4c2.4,0,6.2,1.4,6.2,7.4v10.4h-3.2v-10c0-2.8-1-5.1-4-5.1c-2.1,0-3.7,1.5-4.2,3.2
			c-0.1,0.4-0.2,0.9-0.2,1.5v10.5h-3.2v-12.7c0-1.8,0-3.3-0.1-4.7h2.8l0.2,2.9h0.1C226.2,296.1,228.3,294.4,231.1,294.4
			 M231.1,293.4c-2.1,0-3.8,0.7-5,1.8l0-0.5l-0.1-0.9h-0.9h-2.8h-1.1l0.1,1.1c0.1,1.3,0.1,2.7,0.1,4.6v12.7v1h1h3.2h1v-1v-10.5
			c0-0.4,0.1-0.9,0.2-1.1c0.4-1.3,1.6-2.6,3.3-2.6c0.7,0,3,0,3,4.1v10v1h1h3.2h1v-1v-10.4C238.3,295.6,234.4,293.4,231.1,293.4
			L231.1,293.4z"/>
	</g>
	<g>
		<path class="st0" d="M257.3,309.7c0,4-0.8,6.4-2.5,8c-1.7,1.5-4.2,2.1-6.4,2.1c-2.1,0-4.4-0.5-5.8-1.4l0.8-2.4
			c1.2,0.8,3,1.4,5.1,1.4c3.2,0,5.6-1.7,5.6-6.1v-1.9h-0.1c-0.9,1.6-2.8,2.9-5.5,2.9c-4.3,0-7.4-3.7-7.4-8.5c0-5.9,3.9-9.2,7.9-9.2
			c3,0,4.6,1.5,5.4,3h0.1l0.1-2.6h2.8c-0.1,1.2-0.1,2.7-0.1,4.8V309.7z M254.2,301.7c0-0.5,0-1-0.2-1.4c-0.6-1.9-2.1-3.4-4.4-3.4
			c-3,0-5.2,2.6-5.2,6.6c0,3.4,1.8,6.3,5.1,6.3c2,0,3.7-1.2,4.4-3.2c0.2-0.5,0.3-1.2,0.3-1.7V301.7z"/>
		<path class="st2" d="M249.1,294.4c3,0,4.6,1.5,5.4,3h0.1l0.1-2.6h2.8c-0.1,1.2-0.1,2.7-0.1,4.8v10.1c0,4-0.8,6.4-2.5,8
			c-1.7,1.5-4.2,2.1-6.4,2.1c-2.1,0-4.4-0.5-5.8-1.4l0.8-2.4c1.2,0.8,3,1.4,5.1,1.4c3.2,0,5.6-1.7,5.6-6.1v-1.9h-0.1
			c-0.9,1.6-2.8,2.9-5.5,2.9c-4.3,0-7.4-3.7-7.4-8.5C241.2,297.8,245,294.4,249.1,294.4 M249.5,309.7c2,0,3.7-1.2,4.4-3.2
			c0.2-0.5,0.3-1.2,0.3-1.7v-3.1c0-0.5,0-1-0.2-1.4c-0.6-1.9-2.1-3.4-4.4-3.4c-3,0-5.2,2.6-5.2,6.6
			C244.4,306.9,246.2,309.7,249.5,309.7 M249.1,293.4c-4.4,0-8.9,3.5-8.9,10.2c0,5.4,3.6,9.5,8.4,9.5c1.7,0,3.3-0.5,4.6-1.4
			c-0.2,3-1.7,4.5-4.6,4.5c-2.4,0-4-0.9-4.6-1.2l-1.1-0.7l-0.4,1.2l-0.8,2.4l-0.2,0.7l0.6,0.4c1.5,1,3.9,1.6,6.4,1.6
			c2.9,0,5.4-0.8,7-2.3c2-1.8,2.8-4.5,2.8-8.7v-10.1c0-2.2,0-3.5,0.1-4.7l0.1-1.1h-1.1h-2.8h-1l0,1l0,0.2
			C252.6,294.1,251.2,293.4,249.1,293.4L249.1,293.4z M249.5,308.7c-3.1,0-4.1-2.8-4.1-5.3c0-3.4,1.6-5.6,4.2-5.6
			c2.4,0,3.2,1.9,3.5,2.7l0,0l0,0c0.1,0.3,0.1,0.7,0.1,1.1v3.1c0,0.5-0.1,1-0.2,1.4C252.5,307.7,251.1,308.7,249.5,308.7
			L249.5,308.7z"/>
	</g>
	<g>
		<path class="st0" d="M282.5,291.1c-0.6,0-1.5,0-2.4,0.2c-5,0.8-7.6,4.4-8.1,8.3h0.1c1.1-1.5,3.1-2.7,5.7-2.7c4.1,0,7.1,3,7.1,7.6
			c0,4.3-2.9,8.3-7.8,8.3c-5,0-8.2-3.9-8.2-10c0-4.6,1.6-8.2,4-10.5c1.9-1.9,4.5-3.1,7.5-3.5c0.9-0.1,1.7-0.2,2.3-0.2V291.1z
			 M281.6,304.6c0-3.3-1.9-5.4-4.8-5.4c-1.9,0-3.7,1.2-4.6,2.9c-0.2,0.4-0.3,0.8-0.3,1.4c0,3.9,1.8,6.7,5.2,6.7
			C279.8,310.2,281.6,307.9,281.6,304.6z"/>
		<path class="st2" d="M282.5,288.5v2.6c-0.1,0-0.2,0-0.3,0c-0.6,0-1.3,0.1-2,0.2c-5,0.8-7.6,4.4-8.1,8.3h0.1
			c1.1-1.5,3.1-2.7,5.7-2.7c4.1,0,7.1,3,7.1,7.6c0,4.3-2.9,8.3-7.8,8.3c-5,0-8.2-3.9-8.2-10c0-4.6,1.6-8.2,4-10.5
			c1.9-1.9,4.5-3.1,7.5-3.5C281.2,288.5,282,288.5,282.5,288.5 M277.1,310.2c2.7,0,4.5-2.3,4.5-5.6s-1.9-5.4-4.8-5.4
			c-1.9,0-3.7,1.2-4.6,2.9c-0.2,0.4-0.3,0.8-0.3,1.4C272,307.3,273.8,310.2,277.1,310.2 M283.5,287.5h-1c-0.8,0-1.6,0.1-2.5,0.2
			c-3.2,0.4-5.9,1.7-8,3.7c-2.7,2.7-4.3,6.7-4.3,11.3c0,6.6,3.7,11,9.2,11c5.7,0,8.8-4.8,8.8-9.3c0-5-3.3-8.6-8.1-8.6
			c-1.4,0-2.7,0.3-3.9,0.9c1.2-2.4,3.5-4,6.4-4.5c0.7-0.1,1.4-0.2,1.9-0.2c0.1,0,0.2,0,0.3,0l1.1,0.1v-1.1v-2.6V287.5L283.5,287.5z
			 M277.1,309.2c-3,0-4.2-3-4.2-5.7c0-0.3,0.1-0.6,0.2-0.9c0.7-1.4,2.2-2.3,3.7-2.3c2.4,0,3.8,1.6,3.8,4.4
			C280.6,307.4,279.3,309.2,277.1,309.2L277.1,309.2z"/>
	</g>
	<g>
		<path class="st0" d="M303.2,300.3c0,8-3,12.3-8.1,12.3c-4.6,0-7.7-4.3-7.8-12c0-7.9,3.4-12.2,8.2-12.2
			C300.4,288.4,303.2,292.8,303.2,300.3z M290.5,300.6c0,6.1,1.9,9.5,4.8,9.5c3.2,0,4.8-3.8,4.8-9.8c0-5.8-1.4-9.5-4.8-9.5
			C292.6,290.9,290.5,294.3,290.5,300.6z"/>
		<path class="st2" d="M295.5,288.4c4.9,0,7.7,4.4,7.7,11.8c0,8-3,12.3-8.1,12.3c-4.6,0-7.7-4.3-7.8-12
			C287.3,292.7,290.8,288.4,295.5,288.4 M295.3,310.2c3.2,0,4.8-3.8,4.8-9.8c0-5.8-1.4-9.5-4.8-9.5c-2.7,0-4.8,3.4-4.8,9.8
			C290.5,306.7,292.4,310.2,295.3,310.2 M295.5,287.4c-5.7,0-9.2,5-9.2,13.2c0.1,8,3.4,13,8.8,13c5.8,0,9.1-4.9,9.1-13.3
			C304.2,292.2,301,287.4,295.5,287.4L295.5,287.4z M295.3,309.2c-2.3,0-3.8-3.3-3.8-8.5c0-5.3,1.5-8.8,3.8-8.8
			c3.3,0,3.8,5.4,3.8,8.5C299,303.1,298.7,309.2,295.3,309.2L295.3,309.2z"/>
	</g>
	<g>
		<path class="st0" d="M318.6,312.2v-10.3l-7.7-14h3.6l3.4,6.7c0.9,1.8,1.7,3.3,2.4,5h0.1c0.6-1.6,1.5-3.2,2.4-5l3.5-6.7h3.5
			l-8.1,13.9v10.3H318.6z"/>
		<path class="st2" d="M329.9,288l-8.1,13.9v10.3h-3.2v-10.3l-7.7-14h3.6l3.4,6.7c0.9,1.8,1.7,3.3,2.4,5h0.1c0.6-1.6,1.5-3.2,2.4-5
			l3.5-6.7H329.9 M331.6,287h-1.7h-3.5h-0.6l-0.3,0.5l-3.5,6.7c-0.2,0.4-0.4,0.8-0.6,1.1c-0.4,0.7-0.7,1.4-1,2
			c-0.3-0.6-0.6-1.2-0.9-1.9c-0.2-0.4-0.4-0.8-0.6-1.3l-3.4-6.7l-0.3-0.5h-0.6h-3.6h-1.7l0.8,1.5l7.6,13.7v10v1h1h3.2h1v-1v-10.1
			l8-13.7L331.6,287L331.6,287z"/>
	</g>
	<g>
		<path class="st0" d="M331.6,304.1c0.1,4.3,2.8,6,6,6c2.3,0,3.7-0.4,4.8-0.9l0.6,2.3c-1.1,0.5-3.1,1.1-5.8,1.1
			c-5.4,0-8.6-3.6-8.6-8.8c0-5.3,3.1-9.4,8.2-9.4c5.7,0,7.2,5,7.2,8.2c0,0.6,0,1.1-0.1,1.5H331.6z M340.9,301.8c0-2-0.8-5.1-4.4-5.1
			c-3.2,0-4.6,2.9-4.9,5.1H340.9z"/>
		<path class="st2" d="M336.8,294.4c5.7,0,7.2,5,7.2,8.2c0,0.6,0,1.1-0.1,1.5h-12.2c0.1,4.3,2.8,6,6,6c2.3,0,3.7-0.4,4.8-0.9
			l0.6,2.3c-1.1,0.5-3.1,1.1-5.8,1.1c-5.4,0-8.6-3.6-8.6-8.8C328.6,298.5,331.7,294.4,336.8,294.4 M331.6,301.8h9.3
			c0-2-0.8-5.1-4.4-5.1C333.3,296.7,331.9,299.6,331.6,301.8 M336.8,293.4c-5.4,0-9.2,4.3-9.2,10.4c0,6,3.8,9.8,9.6,9.8
			c3,0,5-0.7,6.2-1.2l0.8-0.3l-0.2-0.8l-0.6-2.3l-0.3-1.1l-1.1,0.5c-0.9,0.4-2.2,0.8-4.4,0.8c-1.7,0-4.4-0.6-4.9-4h11.2h0.8l0.2-0.8
			c0.1-0.4,0.1-1,0.1-1.7C345,298.4,342.8,293.4,336.8,293.4L336.8,293.4z M332.9,300.8c0.4-1.3,1.3-3.1,3.6-3.1
			c1,0,1.7,0.3,2.3,0.9c0.6,0.7,0.9,1.6,1,2.3H332.9L332.9,300.8z"/>
	</g>
	<g>
		<path class="st0" d="M360.1,308.1c0,1.5,0.1,3,0.3,4.2h-2.8l-0.3-2.2h-0.1c-1,1.4-2.8,2.6-5.3,2.6c-3.5,0-5.3-2.5-5.3-5
			c0-4.2,3.7-6.5,10.5-6.5v-0.4c0-1.4-0.4-4-4-4c-1.7,0-3.3,0.5-4.6,1.3l-0.7-2.1c1.4-0.9,3.6-1.5,5.8-1.5c5.3,0,6.6,3.6,6.6,7.1
			V308.1z M357.1,303.3c-3.5-0.1-7.4,0.5-7.4,3.9c0,2.1,1.4,3,3,3c2.3,0,3.8-1.4,4.3-2.9c0.1-0.4,0.1-0.7,0.1-1V303.3z"/>
		<path class="st2" d="M353.5,294.4c5.3,0,6.6,3.6,6.6,7.1v6.5c0,1.5,0.1,3,0.3,4.2h-2.8l-0.3-2.2h-0.1c-1,1.4-2.8,2.6-5.3,2.6
			c-3.5,0-5.3-2.5-5.3-5c0-4.2,3.7-6.5,10.3-6.5c0.1,0,0.1,0,0.2,0v-0.4c0-1.4-0.4-4-3.9-4c0,0,0,0-0.1,0c-1.7,0-3.3,0.5-4.6,1.3
			l-0.7-2.1C349.2,295.1,351.3,294.4,353.5,294.4 M352.6,310.3c2.3,0,3.8-1.4,4.3-2.9c0.1-0.4,0.1-0.7,0.1-1v-3c-0.2,0-0.3,0-0.5,0
			c-3.3,0-6.9,0.7-6.9,3.9C349.7,309.3,351.1,310.3,352.6,310.3 M353.5,293.4c-2.3,0-4.6,0.6-6.3,1.7l-0.7,0.4l0.3,0.7l0.7,2.1
			l0.4,1.2l1.1-0.7c1-0.7,2.5-1.1,4-1.1l0.1,0c1.1,0,2.6,0.3,2.9,2.4c-6.6,0.2-10.4,2.9-10.4,7.5c0,3,2.2,6,6.3,6
			c1.7,0,3.4-0.5,4.7-1.5l0,0.2l0.1,0.9h0.9h2.8h1.2l-0.2-1.1c-0.2-1-0.2-2.4-0.2-4v-6.5C361.1,296.3,358.4,293.4,353.5,293.4
			L353.5,293.4z M352.6,309.3c-0.7,0-2-0.3-2-2c0-1.9,1.8-2.8,5.4-2.9v2c0,0.2,0,0.5-0.1,0.7C355.6,308.1,354.5,309.3,352.6,309.3
			L352.6,309.3z"/>
	</g>
	<g>
		<path class="st0" d="M365.2,300.2c0-2.1,0-3.8-0.1-5.4h2.8l0.1,3.5h0.1c0.8-2.3,2.7-3.8,4.9-3.8c0.3,0,0.6,0,0.9,0.1v3
			c-0.3-0.1-0.6-0.1-1.1-0.1c-2.2,0-3.8,1.7-4.2,4c-0.1,0.4-0.1,1-0.1,1.5v9.3h-3.2V300.2z"/>
		<path class="st2" d="M373,294.4c0.3,0,0.6,0,0.9,0.1v3c-0.3-0.1-0.6-0.1-1.1-0.1c-2.2,0-3.8,1.7-4.2,4c-0.1,0.4-0.1,1-0.1,1.5v9.3
			h-3.2v-12c0-2.1,0-3.8-0.1-5.4h2.8l0.1,3.5h0.1C368.9,295.9,370.9,294.4,373,294.4 M373,293.4c-1.6,0-3,0.6-4.1,1.7l0-0.4l0-1h-1
			h-2.8H364l0.1,1.1c0.1,1.5,0.1,3.1,0.1,5.4v12v1h1h3.2h1v-1v-9.3c0-0.5,0-1,0.1-1.3c0.4-2,1.6-3.2,3.3-3.2c0.4,0,0.6,0,0.9,0
			l1.2,0.3v-1.2v-3v-0.9l-0.9-0.1l-0.1,0C373.6,293.5,373.3,293.4,373,293.4L373,293.4z"/>
	</g>
	<g>
		<path class="st0" d="M376.6,309c1,0.6,2.6,1.2,4.2,1.2c2.3,0,3.3-1.1,3.3-2.6c0-1.5-0.9-2.3-3.2-3.2c-3.2-1.2-4.6-2.8-4.6-4.9
			c0-2.8,2.3-5.1,6-5.1c1.8,0,3.3,0.5,4.2,1.1l-0.8,2.3c-0.7-0.4-1.9-1-3.6-1c-1.9,0-2.9,1.1-2.9,2.4c0,1.4,1,2.1,3.3,3
			c3,1.1,4.6,2.6,4.6,5.2c0,3.1-2.4,5.3-6.5,5.3c-1.9,0-3.7-0.5-4.9-1.2L376.6,309z"/>
		<path class="st2" d="M382.3,294.4c1.8,0,3.3,0.5,4.2,1.1l-0.8,2.3c-0.7-0.4-1.9-1-3.6-1c-1.9,0-2.9,1.1-2.9,2.4c0,1.4,1,2.1,3.3,3
			c3,1.1,4.6,2.6,4.6,5.2c0,3.1-2.4,5.3-6.5,5.3c-1.9,0-3.7-0.5-4.9-1.2l0.8-2.4c1,0.6,2.6,1.2,4.2,1.2c2.3,0,3.3-1.1,3.3-2.6
			c0-1.5-0.9-2.3-3.2-3.2c-3.2-1.2-4.6-2.8-4.6-4.9C376.3,296.7,378.6,294.4,382.3,294.4 M382.3,293.4c-4.1,0-7,2.6-7,6.1
			c0,1.8,0.9,4.3,5.3,5.9c2.4,0.9,2.5,1.5,2.5,2.2c0,1.3-1.3,1.6-2.3,1.6c-1.4,0-2.9-0.6-3.7-1.1l-1.1-0.6l-0.4,1.2l-0.8,2.4
			l-0.2,0.8l0.7,0.4c1.5,0.9,3.4,1.4,5.4,1.4c4.5,0,7.5-2.5,7.5-6.3c0-3.8-3-5.3-5.2-6.2c-2.4-0.9-2.6-1.4-2.6-2.1
			c0-0.8,0.7-1.4,1.9-1.4c1.4,0,2.5,0.6,3,0.9l1.1,0.7l0.4-1.2l0.8-2.3l0.2-0.7l-0.6-0.4C385.9,293.9,384.1,293.4,382.3,293.4
			L382.3,293.4z"/>
	</g>
	<g>
		<path class="st0" d="M402.4,289.9c0,1.1-0.8,1.9-2,1.9c-1.2,0-1.9-0.9-1.9-1.9s0.8-2,2-2C401.6,287.9,402.4,288.8,402.4,289.9z
			 M398.9,312.2v-17.4h3.2v17.4H398.9z"/>
		<path class="st2" d="M400.5,287.9c1.2,0,1.9,0.9,1.9,2c0,1.1-0.8,1.9-2,1.9c-1.2,0-1.9-0.9-1.9-1.9S399.3,287.9,400.5,287.9
			 M402.1,294.8v17.4h-3.2v-17.4H402.1 M400.5,286.9c-1.7,0-3,1.3-3,3c0,1.7,1.3,2.9,2.9,2.9c1.7,0,3-1.2,3-2.9
			C403.4,288.2,402.2,286.9,400.5,286.9L400.5,286.9z M403.1,293.8h-1h-3.2h-1v1v17.4v1h1h3.2h1v-1v-17.4V293.8L403.1,293.8z"/>
	</g>
	<g>
		<path class="st0" d="M407.3,299.5c0-1.8,0-3.3-0.1-4.7h2.8l0.2,2.9h0.1c0.9-1.6,2.9-3.2,5.8-3.2c2.4,0,6.2,1.4,6.2,7.4v10.4H419
			v-10c0-2.8-1-5.1-4-5.1c-2.1,0-3.7,1.5-4.2,3.2c-0.1,0.4-0.2,0.9-0.2,1.5v10.5h-3.2V299.5z"/>
		<path class="st2" d="M416,294.4c2.4,0,6.2,1.4,6.2,7.4v10.4H419v-10c0-2.8-1-5.1-4-5.1c-2.1,0-3.7,1.5-4.2,3.2
			c-0.1,0.4-0.2,0.9-0.2,1.5v10.5h-3.2v-12.7c0-1.8,0-3.3-0.1-4.7h2.8l0.2,2.9h0.1C411.1,296.1,413.1,294.4,416,294.4 M416,293.4
			c-2.1,0-3.8,0.7-5,1.8l0-0.5l-0.1-0.9H410h-2.8h-1.1l0.1,1.1c0.1,1.3,0.1,2.7,0.1,4.6v12.7v1h1h3.2h1v-1v-10.5
			c0-0.4,0.1-0.9,0.2-1.1c0.4-1.3,1.6-2.6,3.3-2.6c0.7,0,3,0,3,4.1v10v1h1h3.2h1v-1v-10.4C423.2,295.6,419.3,293.4,416,293.4
			L416,293.4z"/>
	</g>
	<g>
		<path class="st0" d="M453.5,311.1c-1.4,0.5-4.2,1.3-7.5,1.3c-3.7,0-6.7-0.9-9.1-3.2c-2.1-2-3.4-5.3-3.4-9c0-7.2,5-12.5,13.1-12.5
			c2.8,0,5,0.6,6.1,1.1l-0.8,2.6c-1.3-0.6-2.9-1-5.4-1c-5.9,0-9.8,3.7-9.8,9.8c0,6.2,3.7,9.8,9.4,9.8c2.1,0,3.5-0.3,4.2-0.6V302
			h-4.9v-2.5h8V311.1z"/>
		<path class="st2" d="M446.7,287.7c2.8,0,5,0.6,6.1,1.1l-0.8,2.6c-1.3-0.6-2.9-1-5.4-1c-5.9,0-9.8,3.7-9.8,9.8
			c0,6.2,3.7,9.8,9.4,9.8c2.1,0,3.5-0.3,4.2-0.6V302h-4.9v-2.5h8v11.7c-1.4,0.5-4.2,1.3-7.5,1.3c-3.7,0-6.7-0.9-9.1-3.2
			c-2.1-2-3.4-5.3-3.4-9C433.6,293,438.6,287.7,446.7,287.7 M446.7,286.7c-8.5,0-14.1,5.4-14.1,13.5c0,3.9,1.3,7.5,3.7,9.8
			c2.5,2.3,5.6,3.5,9.8,3.5c3.9,0,7-1.1,7.8-1.4l0.6-0.2v-0.7v-11.7v-1h-1h-8h-1v1v2.5v1h1h3.9v5.5c-0.6,0.2-1.6,0.3-3.2,0.3
			c-5.2,0-8.4-3.3-8.4-8.8c0-5.5,3.3-8.8,8.8-8.8c2,0,3.6,0.3,4.9,0.9l1,0.5l0.3-1.1l0.8-2.6l0.3-0.8l-0.8-0.4
			C452.1,287.4,449.7,286.7,446.7,286.7L446.7,286.7z"/>
	</g>
	<g>
		<path class="st0" d="M458.2,300.2c0-2.1,0-3.8-0.1-5.4h2.8l0.1,3.5h0.1c0.8-2.3,2.7-3.8,4.9-3.8c0.3,0,0.6,0,0.9,0.1v3
			c-0.3-0.1-0.6-0.1-1.1-0.1c-2.2,0-3.8,1.7-4.2,4c-0.1,0.4-0.1,1-0.1,1.5v9.3h-3.2V300.2z"/>
		<path class="st2" d="M465.9,294.4c0.3,0,0.6,0,0.9,0.1v3c-0.3-0.1-0.6-0.1-1.1-0.1c-2.2,0-3.8,1.7-4.2,4c-0.1,0.4-0.1,1-0.1,1.5
			v9.3h-3.2v-12c0-2.1,0-3.8-0.1-5.4h2.8l0.1,3.5h0.1C461.9,295.9,463.8,294.4,465.9,294.4 M465.9,293.4c-1.6,0-3,0.6-4.1,1.7l0-0.4
			l0-1h-1H458H457l0.1,1.1c0.1,1.5,0.1,3.1,0.1,5.4v12v1h1h3.2h1v-1v-9.3c0-0.5,0-1,0.1-1.3c0.4-2,1.6-3.2,3.3-3.2
			c0.4,0,0.6,0,0.9,0l1.2,0.3v-1.2v-3v-0.9l-0.9-0.1l-0.1,0C466.6,293.5,466.3,293.4,465.9,293.4L465.9,293.4z"/>
	</g>
	<g>
		<path class="st0" d="M482,308.1c0,1.5,0.1,3,0.3,4.2h-2.8l-0.3-2.2h-0.1c-1,1.4-2.8,2.6-5.3,2.6c-3.5,0-5.3-2.5-5.3-5
			c0-4.2,3.7-6.5,10.5-6.5v-0.4c0-1.4-0.4-4-4-4c-1.7,0-3.3,0.5-4.6,1.3l-0.7-2.1c1.4-0.9,3.6-1.5,5.8-1.5c5.3,0,6.6,3.6,6.6,7.1
			V308.1z M479,303.3c-3.5-0.1-7.4,0.5-7.4,3.9c0,2.1,1.4,3,3,3c2.3,0,3.8-1.4,4.3-2.9c0.1-0.4,0.1-0.7,0.1-1V303.3z"/>
		<path class="st2" d="M475.4,294.4c5.3,0,6.6,3.6,6.6,7.1v6.5c0,1.5,0.1,3,0.3,4.2h-2.8l-0.3-2.2h-0.1c-1,1.4-2.8,2.6-5.3,2.6
			c-3.5,0-5.3-2.5-5.3-5c0-4.2,3.7-6.5,10.3-6.5c0.1,0,0.1,0,0.2,0v-0.4c0-1.4-0.4-4-3.9-4c0,0,0,0-0.1,0c-1.7,0-3.3,0.5-4.6,1.3
			l-0.7-2.1C471.1,295.1,473.2,294.4,475.4,294.4 M474.5,310.3c2.3,0,3.8-1.4,4.3-2.9c0.1-0.4,0.1-0.7,0.1-1v-3c-0.2,0-0.3,0-0.5,0
			c-3.3,0-6.9,0.7-6.9,3.9C471.6,309.3,472.9,310.3,474.5,310.3 M475.4,293.4c-2.3,0-4.6,0.6-6.3,1.7l-0.7,0.4l0.3,0.7l0.7,2.1
			l0.4,1.2l1.1-0.7c1-0.7,2.5-1.1,4-1.1l0.1,0c1.1,0,2.6,0.3,2.9,2.4c-6.6,0.2-10.4,2.9-10.4,7.5c0,3,2.2,6,6.3,6
			c1.7,0,3.4-0.5,4.7-1.5l0,0.2l0.1,0.9h0.9h2.8h1.2l-0.2-1.1c-0.2-1-0.2-2.4-0.2-4v-6.5C483,296.3,480.3,293.4,475.4,293.4
			L475.4,293.4z M474.5,309.3c-0.7,0-2-0.3-2-2c0-1.9,1.8-2.8,5.4-2.9v2c0,0.2,0,0.5-0.1,0.7C477.5,308.1,476.4,309.3,474.5,309.3
			L474.5,309.3z"/>
	</g>
	<g>
		<path class="st0" d="M487.1,299.5c0-1.8,0-3.3-0.1-4.7h2.8l0.2,2.9h0.1c0.9-1.6,2.9-3.2,5.8-3.2c2.4,0,6.2,1.4,6.2,7.4v10.4h-3.2
			v-10c0-2.8-1-5.1-4-5.1c-2.1,0-3.7,1.5-4.2,3.2c-0.1,0.4-0.2,0.9-0.2,1.5v10.5h-3.2V299.5z"/>
		<path class="st2" d="M495.8,294.4c2.4,0,6.2,1.4,6.2,7.4v10.4h-3.2v-10c0-2.8-1-5.1-4-5.1c-2.1,0-3.7,1.5-4.2,3.2
			c-0.1,0.4-0.2,0.9-0.2,1.5v10.5h-3.2v-12.7c0-1.8,0-3.3-0.1-4.7h2.8l0.2,2.9h0.1C490.9,296.1,492.9,294.4,495.8,294.4
			 M495.8,293.4c-2.1,0-3.8,0.7-5,1.8l0-0.5l-0.1-0.9h-0.9H487h-1.1l0.1,1.1c0.1,1.3,0.1,2.7,0.1,4.6v12.7v1h1h3.2h1v-1v-10.5
			c0-0.4,0.1-0.9,0.2-1.1c0.4-1.3,1.6-2.6,3.3-2.6c0.7,0,3,0,3,4.1v10v1h1h3.2h1v-1v-10.4C503,295.6,499.1,293.4,495.8,293.4
			L495.8,293.4z"/>
	</g>
	<g>
		<path class="st0" d="M510.8,290.6v4.2h4.5v2.4h-4.5v9.4c0,2.2,0.6,3.4,2.4,3.4c0.9,0,1.4-0.1,1.8-0.2l0.1,2.4
			c-0.6,0.2-1.6,0.4-2.8,0.4c-1.5,0-2.7-0.5-3.4-1.3c-0.9-1-1.2-2.5-1.2-4.6v-9.5H505v-2.4h2.7v-3.2L510.8,290.6z"/>
		<path class="st2" d="M510.8,290.6v4.2h4.5v2.4h-4.5v9.4c0,2.2,0.6,3.4,2.4,3.4c0.9,0,1.4-0.1,1.8-0.2l0.1,2.4
			c-0.6,0.2-1.6,0.4-2.8,0.4c-1.5,0-2.7-0.5-3.4-1.3c-0.9-1-1.2-2.5-1.2-4.6v-9.5H505v-2.4h2.7v-3.2L510.8,290.6 M511.8,289.3
			l-1.3,0.4l-3.1,0.9l-0.7,0.2v0.7v2.2H505h-1v1v2.4v1h1h1.7v8.5c0,2.4,0.5,4.1,1.5,5.2c1,1.1,2.5,1.7,4.2,1.7
			c1.5,0,2.6-0.3,3.1-0.5l0.7-0.3l0-0.8l-0.1-2.4l-0.1-1.3l-1.2,0.4c-0.3,0.1-0.7,0.2-1.5,0.2c-0.6,0-1.4,0-1.4-2.4v-8.4h3.5h1v-1
			v-2.4v-1h-1h-3.5v-3.2V289.3L511.8,289.3z"/>
	</g>
	<g>
		<path class="st0" d="M518.5,309c1,0.6,2.6,1.2,4.2,1.2c2.3,0,3.3-1.1,3.3-2.6c0-1.5-0.9-2.3-3.2-3.2c-3.2-1.2-4.6-2.8-4.6-4.9
			c0-2.8,2.3-5.1,6-5.1c1.8,0,3.3,0.5,4.2,1.1l-0.8,2.3c-0.7-0.4-1.9-1-3.6-1c-1.9,0-2.9,1.1-2.9,2.4c0,1.4,1,2.1,3.3,3
			c3,1.1,4.6,2.6,4.6,5.2c0,3.1-2.4,5.3-6.5,5.3c-1.9,0-3.7-0.5-4.9-1.2L518.5,309z"/>
		<path class="st2" d="M524.2,294.4c1.8,0,3.3,0.5,4.2,1.1l-0.8,2.3c-0.7-0.4-1.9-1-3.6-1c-1.9,0-2.9,1.1-2.9,2.4c0,1.4,1,2.1,3.3,3
			c3,1.1,4.6,2.6,4.6,5.2c0,3.1-2.4,5.3-6.5,5.3c-1.9,0-3.7-0.5-4.9-1.2l0.8-2.4c1,0.6,2.6,1.2,4.2,1.2c2.3,0,3.3-1.1,3.3-2.6
			c0-1.5-0.9-2.3-3.2-3.2c-3.2-1.2-4.6-2.8-4.6-4.9C518.2,296.7,520.5,294.4,524.2,294.4 M524.2,293.4c-4.1,0-7,2.6-7,6.1
			c0,1.8,0.9,4.3,5.3,5.9c2.4,0.9,2.5,1.5,2.5,2.2c0,1.3-1.3,1.6-2.3,1.6c-1.4,0-2.9-0.6-3.7-1.1l-1.1-0.6l-0.4,1.2l-0.8,2.4
			l-0.2,0.8l0.7,0.4c1.5,0.9,3.4,1.4,5.4,1.4c4.5,0,7.5-2.5,7.5-6.3c0-3.8-3-5.3-5.2-6.2c-2.4-0.9-2.6-1.4-2.6-2.1
			c0-0.8,0.7-1.4,1.9-1.4c1.4,0,2.5,0.6,3,0.9l1.1,0.7l0.4-1.2l0.8-2.3l0.2-0.7l-0.6-0.4C527.8,293.9,526,293.4,524.2,293.4
			L524.2,293.4z"/>
	</g>
	<g>
		<path class="st0" d="M540.9,288.3c1.5-0.3,3.5-0.5,6-0.5c3.1,0,5.4,0.7,6.8,2c1.3,1.2,2.1,2.9,2.1,5.1c0,2.2-0.6,3.9-1.9,5.2
			c-1.7,1.8-4.4,2.7-7.4,2.7c-0.9,0-1.8,0-2.5-0.2v9.7h-3.1V288.3z M544,300c0.7,0.2,1.5,0.3,2.6,0.3c3.8,0,6.1-1.9,6.1-5.1
			c0-3.2-2.3-4.8-5.7-4.8c-1.4,0-2.4,0.1-3,0.3V300z"/>
		<path class="st2" d="M546.9,287.8c3.1,0,5.4,0.7,6.8,2c1.3,1.2,2.1,2.9,2.1,5.1c0,2.2-0.6,3.9-1.9,5.2c-1.7,1.8-4.4,2.7-7.4,2.7
			c-0.9,0-1.8,0-2.5-0.2v9.7h-3.1v-24C542.4,288,544.4,287.8,546.9,287.8 M546.6,300.2c3.8,0,6.1-1.9,6.1-5.1c0-3.2-2.3-4.8-5.7-4.8
			c-1.4,0-2.4,0.1-3,0.3v9.4C544.7,300.1,545.6,300.2,546.6,300.2 M546.9,286.8c-2.2,0-4.2,0.2-6.2,0.5l-0.8,0.1v0.8v24v1h1h3.1h1
			v-1v-8.6c0.5,0,1,0.1,1.5,0.1c3.4,0,6.3-1.1,8.1-3c1.4-1.5,2.2-3.4,2.2-5.9c0-2.3-0.9-4.4-2.5-5.8
			C552.7,287.6,550.2,286.8,546.9,286.8L546.9,286.8z M545,291.4c0.5-0.1,1.1-0.1,2-0.1c2.2,0,4.7,0.7,4.7,3.8
			c0,3.6-3.2,4.1-5.1,4.1c-0.6,0-1.1,0-1.6-0.1V291.4L545,291.4z"/>
	</g>
	<g>
		<path class="st0" d="M571.2,308.1c0,1.5,0.1,3,0.3,4.2h-2.8l-0.3-2.2h-0.1c-1,1.4-2.8,2.6-5.3,2.6c-3.5,0-5.3-2.5-5.3-5
			c0-4.2,3.7-6.5,10.5-6.5v-0.4c0-1.4-0.4-4-4-4c-1.7,0-3.3,0.5-4.6,1.3l-0.7-2.1c1.4-0.9,3.6-1.5,5.8-1.5c5.3,0,6.6,3.6,6.6,7.1
			V308.1z M568.2,303.3c-3.5-0.1-7.4,0.5-7.4,3.9c0,2.1,1.4,3,3,3c2.3,0,3.8-1.4,4.3-2.9c0.1-0.4,0.1-0.7,0.1-1V303.3z"/>
		<path class="st2" d="M564.6,294.4c5.3,0,6.6,3.6,6.6,7.1v6.5c0,1.5,0.1,3,0.3,4.2h-2.8l-0.3-2.2h-0.1c-1,1.4-2.8,2.6-5.3,2.6
			c-3.5,0-5.3-2.5-5.3-5c0-4.2,3.7-6.5,10.3-6.5c0.1,0,0.1,0,0.2,0v-0.4c0-1.4-0.4-4-3.9-4c0,0,0,0-0.1,0c-1.7,0-3.3,0.5-4.6,1.3
			l-0.7-2.1C560.3,295.1,562.4,294.4,564.6,294.4 M563.7,310.3c2.3,0,3.8-1.4,4.3-2.9c0.1-0.4,0.1-0.7,0.1-1v-3c-0.2,0-0.3,0-0.5,0
			c-3.3,0-6.9,0.7-6.9,3.9C560.8,309.3,562.2,310.3,563.7,310.3 M564.6,293.4c-2.3,0-4.6,0.6-6.3,1.7l-0.7,0.4l0.3,0.7l0.7,2.1
			l0.4,1.2l1.1-0.7c1-0.7,2.5-1.1,4-1.1l0.1,0c1.1,0,2.6,0.3,2.9,2.4c-6.6,0.2-10.4,2.9-10.4,7.5c0,3,2.2,6,6.3,6
			c1.7,0,3.4-0.5,4.7-1.5l0,0.2l0.1,0.9h0.9h2.8h1.2l-0.2-1.1c-0.2-1-0.2-2.4-0.2-4v-6.5C572.2,296.3,569.5,293.4,564.6,293.4
			L564.6,293.4z M563.7,309.3c-0.7,0-2-0.3-2-2c0-1.9,1.8-2.8,5.4-2.9v2c0,0.2,0,0.5-0.1,0.7C566.7,308.1,565.6,309.3,563.7,309.3
			L563.7,309.3z"/>
	</g>
	<g>
		<path class="st0" d="M575.9,309c1,0.6,2.6,1.2,4.2,1.2c2.3,0,3.3-1.1,3.3-2.6c0-1.5-0.9-2.3-3.2-3.2c-3.2-1.2-4.6-2.8-4.6-4.9
			c0-2.8,2.3-5.1,6-5.1c1.8,0,3.3,0.5,4.2,1.1l-0.8,2.3c-0.7-0.4-1.9-1-3.6-1c-1.9,0-2.9,1.1-2.9,2.4c0,1.4,1,2.1,3.3,3
			c3,1.1,4.6,2.6,4.6,5.2c0,3.1-2.4,5.3-6.5,5.3c-1.9,0-3.7-0.5-4.9-1.2L575.9,309z"/>
		<path class="st2" d="M581.6,294.4c1.8,0,3.3,0.5,4.2,1.1l-0.8,2.3c-0.7-0.4-1.9-1-3.6-1c-1.9,0-2.9,1.1-2.9,2.4c0,1.4,1,2.1,3.3,3
			c3,1.1,4.6,2.6,4.6,5.2c0,3.1-2.4,5.3-6.5,5.3c-1.9,0-3.7-0.5-4.9-1.2l0.8-2.4c1,0.6,2.6,1.2,4.2,1.2c2.3,0,3.3-1.1,3.3-2.6
			c0-1.5-0.9-2.3-3.2-3.2c-3.2-1.2-4.6-2.8-4.6-4.9C575.6,296.7,577.9,294.4,581.6,294.4 M581.6,293.4c-4.1,0-7,2.6-7,6.1
			c0,1.8,0.9,4.3,5.3,5.9c2.4,0.9,2.5,1.5,2.5,2.2c0,1.3-1.3,1.6-2.3,1.6c-1.4,0-2.9-0.6-3.7-1.1l-1.1-0.6l-0.4,1.2l-0.8,2.4
			l-0.2,0.8l0.7,0.4c1.5,0.9,3.4,1.4,5.4,1.4c4.5,0,7.5-2.5,7.5-6.3c0-3.8-3-5.3-5.2-6.2c-2.4-0.9-2.6-1.4-2.6-2.1
			c0-0.8,0.7-1.4,1.9-1.4c1.4,0,2.5,0.6,3,0.9l1.1,0.7l0.4-1.2l0.8-2.3l0.2-0.7l-0.6-0.4C585.2,293.9,583.4,293.4,581.6,293.4
			L581.6,293.4z"/>
	</g>
	<g>
		<path class="st0" d="M590.2,309c1,0.6,2.6,1.2,4.2,1.2c2.3,0,3.3-1.1,3.3-2.6c0-1.5-0.9-2.3-3.2-3.2c-3.2-1.2-4.6-2.8-4.6-4.9
			c0-2.8,2.3-5.1,6-5.1c1.8,0,3.3,0.5,4.2,1.1l-0.8,2.3c-0.7-0.4-1.9-1-3.6-1c-1.9,0-2.9,1.1-2.9,2.4c0,1.4,1,2.1,3.3,3
			c3,1.1,4.6,2.6,4.6,5.2c0,3.1-2.4,5.3-6.5,5.3c-1.9,0-3.7-0.5-4.9-1.2L590.2,309z"/>
		<path class="st2" d="M595.9,294.4c1.8,0,3.3,0.5,4.2,1.1l-0.8,2.3c-0.7-0.4-1.9-1-3.6-1c-1.9,0-2.9,1.1-2.9,2.4c0,1.4,1,2.1,3.3,3
			c3,1.1,4.6,2.6,4.6,5.2c0,3.1-2.4,5.3-6.5,5.3c-1.9,0-3.7-0.5-4.9-1.2l0.8-2.4c1,0.6,2.6,1.2,4.2,1.2c2.3,0,3.3-1.1,3.3-2.6
			c0-1.5-0.9-2.3-3.2-3.2c-3.2-1.2-4.6-2.8-4.6-4.9C589.9,296.7,592.2,294.4,595.9,294.4 M595.9,293.4c-4.1,0-7,2.6-7,6.1
			c0,1.8,0.9,4.3,5.3,5.9c2.4,0.9,2.5,1.5,2.5,2.2c0,1.3-1.3,1.6-2.3,1.6c-1.4,0-2.9-0.6-3.7-1.1l-1.1-0.6l-0.4,1.2l-0.8,2.4
			l-0.2,0.8l0.7,0.4c1.5,0.9,3.4,1.4,5.4,1.4c4.5,0,7.5-2.5,7.5-6.3c0-3.8-3-5.3-5.2-6.2c-2.4-0.9-2.6-1.4-2.6-2.1
			c0-0.8,0.7-1.4,1.9-1.4c1.4,0,2.5,0.6,3,0.9l1.1,0.7l0.4-1.2l0.8-2.3l0.2-0.7l-0.6-0.4C599.5,293.9,597.7,293.4,595.9,293.4
			L595.9,293.4z"/>
	</g>
</g>
</svg>
