<?xml version="1.0" encoding="utf-8"?>
<!-- Generator: Adobe Illustrator 18.0.0, SVG Export Plug-In . SVG Version: 6.00 Build 0)  -->
<!DOCTYPE svg PUBLIC "-//W3C//DTD SVG 1.1//EN" "http://www.w3.org/Graphics/SVG/1.1/DTD/svg11.dtd">
<svg version="1.1" id="Layer_1" xmlns="http://www.w3.org/2000/svg" xmlns:xlink="http://www.w3.org/1999/xlink" x="0px" y="0px"
	 viewBox="0 0 544.2 108.1" enable-background="new 0 0 544.2 108.1" xml:space="preserve">
<g>
	<g>
		<path fill="#FF3300" d="M42.2,64.8c-0.5-0.7-3.3-4.7-4.5-4.7c-1.3,0-1.2,2.6-1.2,3.3c-0.4,10.5,4.8,7,4.8,12.5
			c0,3.3-0.8,8.1-19.2,8.1c-9.7,0-20.7,0.4-20.7-7.4c0-5.7,6.3-1.5,6.6-11.4c0.4-8.3,0.9-19.5,0.9-24.7V23.6C9.1,14,0,20.4,0,13.7
			C0,5.8,26.7,0,32.9,0c3.2,0,3.4,1.9,3.3,4.5l-0.6,25C35.4,37.1,35.4,40,38.2,40c1.9,0,9.4-4,9.4-5.8c0-1.7-2.4-2.6-2.4-5
			c0-6.1,12-6.5,16.2-6.5c4.8,0,17.7,0.1,17.7,7.4c0,5.3-4.4,2.8-11.4,7.2c-1.2,0.6-5.8,3-5.8,4.4c0,3,13.8,19.9,16,22.7
			c5.3,6.6,11.8,6.5,11.8,11.4c0,3.7-2.7,6.8-11.8,6.8H61.4c-4.7,0-5.3-0.2-8.1-3.9L42.2,64.8z"/>
		<path fill="#FF3300" d="M118.5,57.2c0,4.7,0.4,12,6.7,12c8.5,0,7.3-11.1,7.3-16.8c0-3.9,0.1-9-0.5-12.7c-0.9-5.9-6.7-3.9-6.7-8.9
			c0-7,23.7-8.1,28.2-8.1c4.2,0,6,2.5,6,6.6c0,3.8-0.2,7.4-0.2,11.2v23.7c0,7.1,6.5,3.8,6.5,9.4c0,8-20.9,10.3-27.4,10.3
			c-9.1,0-3.1-7.1-7.8-7.1c-1.3,0-3.2,1.8-6,3.5c-2.8,1.8-6.6,3.5-11.8,3.5c-22.4,0-20.5-17.7-20.5-35.4c0-18.1-8.1-10.1-8.1-17.9
			c0-7.6,29.7-7.9,30.7-7.9c3.3,0,3.7,1.5,3.7,4.5V57.2z"/>
		<path fill="#FF3300" d="M202.3,57.2c0,7.9,3.3,9.8,6.5,9.8c3.7,0,5.8-2.7,7.9-2.7c2.4,0,4,3.3,4,5.4c0,7.8-13.5,14.6-25.4,14.6
			c-6,0-21.1-2.6-21.1-21.4V38.7c0-2.1,0-3-0.6-3.3c-0.6-0.4-1.9-0.1-4.6-0.1c-3.1,0-4.6,0.1-5.2-0.5c-0.8-0.8-0.6-2-0.6-4.7
			c0-1.7-0.4-3,1.1-3.9l26.9-17.1c2.7-1.7,2.6-1.3,6.1-1.3c4.7,0,5-0.5,5,5c0,3.7-0.2,7.3,0.4,8.7c0.4,0.9,1.2,0.9,4.2,0.9h8.3
			c5.1,0,5.1,0.4,5.1,5.7c0,6.7-0.8,7.2-5.4,7.2h-8.1c-4.1,0-4.4,0.1-4.4,4.4V57.2z"/>
		<path fill="#FF3300" d="M287.7,67c5.7,7.3,9.7,4.8,9.7,9.7c0,3.1-0.1,7.3-23.7,7.3c-5.1,0-19.8,1.1-19.8-6.7c0-4.2,4.8-3,4.8-6.6
			c0-2.2-4.1-9-6.4-9c-2.1,0-7.1,8.5-7.1,10.9c0,2.5,2.7,2.6,2.7,6.3c0,5.1-9.1,5.2-12.6,5.2c-4.1,0-12.5,0-12.5-5.8
			c0-6.1,5.7-1.1,11.1-9.8l9.6-15.6c0.2-0.2,1.4-2,1.4-2.6c0-0.8-1.4-2.1-1.8-2.6l-7.6-9.3c-4.2-5.3-11.3-2.6-11.3-8.4
			c0-7.6,20.3-7.2,25.4-7.2c4,0,18.6-0.6,18.6,5.9c0,2.5-2.4,4-2.4,5.8c0,1.4,3.3,6.3,4.7,6.3c1.7,0,5.3-5.3,5.3-6.8
			c0-1.8-2.5-3.5-2.5-5.5c0-5.5,8.9-5.5,12.5-5.5c9.2,0,11.1,2.6,11.1,5.7c0,4.2-6.7,4.1-10,9l-6.7,9.8c-0.5,0.6-2.8,3.7-2.8,4.5
			c0,0.7,2,3.3,2.2,3.8L287.7,67z"/>
		<path fill="#00A0FF" d="M330.2,108.1c-3.3,0-15.3-4.8-15.3-8.3c0-1.2,1.7-2.5,2.6-3c5.5-3,11.7-11.4,11.7-16.2
			c0-1.5-1.1-2.2-2.5-2.2c-1.9,0-3.8,0.4-5.7,0.4c-17.1,0-25-14.9-25-28.3c0-18.9,18.3-27.5,34.9-27.5c17.7,0,35.6,8.7,35.6,28.7
			c0,13.6-5.9,25.6-13.8,36.3C349.2,92.9,336.5,108.1,330.2,108.1z M330.3,40.4c-3.9,0-6,4.1-6,7.7c0,5.9,3.3,15.2,10.3,15.2
			c3.7,0,5.5-3.3,5.5-6.6C340.1,51.7,337.2,40.4,330.3,40.4z"/>
		<path fill="#00A0FF" d="M430.4,39.9c0,1.1,2,2.2,2.8,2.8c5.2,3.5,8.6,9.8,8.6,16.2c0,9.6-8.5,25.5-33.6,25.5
			c-14.4,0-38.1-5.5-38.1-23.8c0-11,9.9-13.3,9.9-15.8c0-2-8-5.9-8-16C372,14,387.9,6,404.5,6c11.8,0,36.1,3.4,36.1,19.2
			C440.7,35.3,430.4,37.5,430.4,39.9z M413.3,66.1c0-5-4.5-6.6-8.1-8.5c-2.7-1.4-8.9-4.4-11.8-4.4c-2.4,0-3.1,2.7-3.1,4.7
			c0,7.7,7.2,14.2,14.8,14.2C408.9,72.1,413.3,70.7,413.3,66.1z M401.5,21.8c0,4.4,8.5,10,12.4,10c2.8,0,4.1-4.6,4.1-6.8
			c0-5.5-5.5-7.8-10.3-7.8C404.9,17.2,401.5,18.8,401.5,21.8z"/>
		<path fill="#00A0FF" d="M458.5,84.4c-7.9,0-14.3-6.4-14.3-14.3c0-7.9,6.4-14.3,14.3-14.3c7.9,0,14.3,6.4,14.3,14.3
			C472.8,78,466.4,84.4,458.5,84.4z"/>
		<path fill="#00A0FF" d="M508,108.1c-3.3,0-15.3-4.8-15.3-8.3c0-1.2,1.7-2.5,2.6-3c5.5-3,11.7-11.4,11.7-16.2
			c0-1.5-1.1-2.2-2.5-2.2c-1.9,0-3.8,0.4-5.7,0.4c-17.1,0-25-14.9-25-28.3c0-18.9,18.3-27.5,34.9-27.5c17.7,0,35.6,8.7,35.6,28.7
			c0,13.6-5.9,25.6-13.8,36.3C527,92.9,514.3,108.1,508,108.1z M508.2,40.4c-3.9,0-6,4.1-6,7.7c0,5.9,3.3,15.2,10.3,15.2
			c3.7,0,5.5-3.3,5.5-6.6C518,51.7,515,40.4,508.2,40.4z"/>
	</g>
</g>
</svg>
