<?xml version="1.0" encoding="utf-8"?>
<!DOCTYPE svg PUBLIC "-//W3C//DTD SVG 1.0//EN" "http://www.w3.org/TR/2001/REC-SVG-20010904/DTD/svg10.dtd" [
	<!ENTITY ns_flows "http://ns.adobe.com/Flows/1.0/">
]>
<svg version="1.0"
	 xmlns="http://www.w3.org/2000/svg" xmlns:xlink="http://www.w3.org/1999/xlink" xmlns:a="http://ns.adobe.com/AdobeSVGViewerExtensions/3.0/"
	 x="0px" y="0px" width="171px" height="24px" viewBox="-0.859 -0.733 171 24"
	 overflow="visible" enable-background="new -0.859 -0.733 171 24" xml:space="preserve">
<defs>
</defs>
<path fill="#00334E" d="M23.944,0.572v21.674h-5.189l0.338-15.441l0.061-2.18L18.97,5.391c-0.276,1.228-0.307,1.384-0.553,2.305
	l-4.082,14.549H9.668L5.74,8.31l-0.952-3.87c0.093,1.719,0.093,2.088,0.184,4.143l0.277,13.663H0V0.572h7.919l3.314,12.158
	l0.77,3.47c0.306-1.506,0.337-1.659,0.582-2.671l3.468-12.957H23.944z"/>
<path fill="#00334E" d="M28.448,0.572h8.718c3.562,0,6.723,0,8.627,2.733c0.829,1.227,1.227,2.977,1.227,4.45
	c0,1.198-0.246,2.364-0.737,3.376c-1.873,3.868-5.862,3.96-8.811,4.022h-3.589v7.092h-5.435V0.572z M33.882,4.563v6.569h3.253
	c2.026,0,4.481-0.061,4.481-3.406c0-3.163-2.731-3.163-4.296-3.163H33.882z"/>
<path fill="#00334E" d="M49.584,0.572h9.76c2.271,0.03,5.096,0.062,7.091,2.212c1.014,1.135,1.72,2.854,1.72,4.819
	c0,4.358-2.976,5.433-4.45,5.985l5.002,8.658H62.72l-4.296-7.734h-3.407v7.734h-5.433V0.572z M55.017,4.625v5.863h4.481
	c0.768-0.029,3.255-0.093,3.255-2.977c0-2.763-1.997-2.854-3.132-2.886H55.017z"/>
<path fill="#3D8FA5" d="M79.309,2.641c0.618-0.661,1.031-1.157,2.145-1.693c0.991-0.412,2.393-0.783,3.922-0.783
	c1.281,0,2.727,0.247,3.839,0.866c2.269,1.196,2.847,3.137,2.847,6.48v14.735h-6.312V10.112c0-1.942-0.042-2.644-0.29-3.221
	c-0.494-1.156-1.612-1.651-2.848-1.651c-3.345,0-3.345,2.682-3.345,5.365v11.64h-6.355V0.74h6.398V2.641z"/>
<path fill="#3D8FA5" d="M116.535,16.757c-0.742,1.112-1.484,2.188-2.601,3.217c-1.855,1.734-4.661,3.055-8.132,3.055
	c-6.395,0-10.893-4.084-10.893-11.144C94.91,6.686,97.468,0,105.972,0c1.276,0,4.992,0.122,7.757,3.095
	c2.806,3.012,2.972,7.224,3.056,9.656h-15.397c-0.039,2.685,1.486,5.369,4.911,5.369c3.467,0,4.666-2.273,5.45-3.799L116.535,16.757
	z M110.223,8.788c-0.127-0.906-0.292-2.102-1.2-3.053c-0.785-0.785-1.981-1.196-3.095-1.196c-1.527,0-2.601,0.742-3.219,1.403
	c-0.866,0.949-1.074,1.94-1.278,2.846H110.223z"/>
<path fill="#3D8FA5" d="M123.865,0.701l3.013,15.064l3.263-15.064h6.767l2.931,15.188l3.385-15.188h6.564l-6.439,21.545h-6.896
	l-3.176-14.364l-3.218,14.364h-6.976l-5.903-21.545H123.865z"/>
<path fill="#3D8FA5" d="M153.497,14.98c1.737,1.694,3.88,2.972,6.275,2.972c1.526,0,3.837-0.496,3.837-2.106
	c0-0.743-0.452-1.03-0.825-1.238c-0.949-0.493-2.436-0.619-3.673-0.824c-0.949-0.166-1.941-0.373-2.887-0.66
	c-1.323-0.374-2.645-0.908-3.594-1.859c-0.948-0.947-1.609-2.435-1.609-4.044c0-3.549,3.055-7.221,9.079-7.221
	c5.078,0,8.131,2.188,9.617,3.218l-3.919,3.631c-2.022-1.568-3.923-2.145-5.406-2.145c-2.478,0-3.056,0.99-3.056,1.607
	c0,1.24,1.362,1.488,3.423,1.858c4.336,0.785,9.372,1.942,9.372,7.059c0,5.076-5.119,7.552-10.196,7.552
	c-5.981,0-9.08-2.891-10.44-4.171L153.497,14.98z"/>
</svg>
