<?xml version="1.0" encoding="UTF-8" standalone="no"?>
<!-- Created with Inkscape (http://www.inkscape.org/) -->

<svg
   xmlns:dc="http://purl.org/dc/elements/1.1/"
   xmlns:cc="http://creativecommons.org/ns#"
   xmlns:rdf="http://www.w3.org/1999/02/22-rdf-syntax-ns#"
   xmlns:svg="http://www.w3.org/2000/svg"
   xmlns="http://www.w3.org/2000/svg"
   xmlns:sodipodi="http://sodipodi.sourceforge.net/DTD/sodipodi-0.dtd"
   xmlns:inkscape="http://www.inkscape.org/namespaces/inkscape"
   version="1.1"
   width="950.92499"
   height="210.41251"
   id="svg2"
   xml:space="preserve"
   inkscape:version="0.91 r13725"
   sodipodi:docname="wbhm_color_logo_tag.svg"><sodipodi:namedview
     pagecolor="#ffffff"
     bordercolor="#666666"
     borderopacity="1"
     objecttolerance="10"
     gridtolerance="10"
     guidetolerance="10"
     inkscape:pageopacity="0"
     inkscape:pageshadow="2"
     inkscape:window-width="1743"
     inkscape:window-height="993"
     id="namedview27"
     showgrid="false"
     inkscape:zoom="0.91016506"
     inkscape:cx="683.19331"
     inkscape:cy="105.46061"
     inkscape:window-x="0"
     inkscape:window-y="0"
     inkscape:window-maximized="0"
     inkscape:current-layer="g10" /><metadata
     id="metadata8"><rdf:RDF><cc:Work
         rdf:about=""><dc:format>image/svg+xml</dc:format><dc:type
           rdf:resource="http://purl.org/dc/dcmitype/StillImage" /><dc:title /></cc:Work></rdf:RDF></metadata><defs
     id="defs6" /><g
     transform="matrix(1.25,0,0,-1.25,0,210.4125)"
     id="g10"><g
       transform="scale(0.1,0.1)"
       id="g12"><path
         d="m 321.152,479.109 -72.257,0 L 0,1197.68 l 137.828,0 147.199,-475.032 145.86,475.032 78.945,0 144.516,-475.032 148.539,475.032 136.488,0 -250.234,-718.571 -72.258,0 -148.531,487.079 -147.2,-487.079"
         id="path38"
         style="fill:#231f20;fill-opacity:1;fill-rule:nonzero;stroke:none" /><path
         d="m 1813.03,586.16 c 135.16,0 247.57,107.051 247.57,256.922 0,140.5 -113.75,247.548 -246.22,247.548 -128.47,0 -242.2,-111.06 -242.2,-256.919 0,-133.816 115.08,-247.551 240.85,-247.551 z m -235.5,-107.051 -131.14,0 0,951.411 129.8,0 0,-319.82 c 69.59,70.93 152.54,105.72 250.23,105.72 108.39,0 192.69,-34.79 264.96,-111.06 66.9,-69.59 104.36,-163.255 104.36,-263.622 0,-215.429 -159.24,-378.687 -377.35,-378.687 -91,0 -173.96,34.801 -240.86,104.371 l 0,-88.313"
         id="path40"
         style="fill:#231f20;fill-opacity:1;fill-rule:nonzero;stroke:none" /><path
         d="m 2740.24,479.109 0,951.411 129.81,0 0,-314.46 c 41.47,61.56 108.39,93.67 198.04,93.67 169.94,0 275.65,-112.4 275.65,-318.472 l 0,-412.149 -129.79,0 0,370.657 c 0,157.914 -52.19,235.514 -164.6,235.514 -68.24,0 -121.77,-32.11 -152.54,-90.987 -25.42,-48.176 -26.76,-109.734 -26.76,-188.676 l 0,-326.508 -129.81,0"
         id="path42"
         style="fill:#231f20;fill-opacity:1;fill-rule:nonzero;stroke:none" /><path
         d="m 4212.08,1091.98 c -113.74,0 -163.26,-81.63 -163.26,-244.886 l 0,-367.985 -123.1,0 0,718.571 115.07,0 0,-84.29 c 48.18,65.57 108.4,96.34 184.67,96.34 103.04,0 171.28,-37.47 216.77,-124.45 44.16,84.31 116.42,124.45 222.13,124.45 157.91,0 267.63,-109.73 267.63,-291.707 l 0,-438.914 -129.8,0 0,418.832 c 0,124.449 -57.53,194.039 -152.54,194.039 -119.09,0 -156.57,-77.62 -156.57,-236.859 l 0,-376.012 -125.78,0 0,362.629 c 0,165.942 -41.49,250.242 -155.22,250.242"
         id="path44"
         style="fill:#231f20;fill-opacity:1;fill-rule:nonzero;stroke:none" /><path
         d="m 1108.08,344.02 -83.87,49.351 c 79.62,135.34 121.71,290.356 121.71,448.305 0,157.961 -42.09,312.994 -121.74,448.334 l 83.88,49.35 c 88.42,-150.29 135.17,-322.38 135.17,-497.684 0,-175.285 -46.73,-347.367 -135.15,-497.656"
         id="path46"
         style="fill:#fddd05;fill-opacity:1;fill-rule:nonzero;stroke:none" /><path
         d="m 2296.28,234.039 -76.45,60.211 c 123.95,157.352 189.45,346.66 189.45,547.426 0,200.774 -65.5,390.064 -189.44,547.414 l 76.45,60.2 c 137.58,-174.67 210.3,-384.77 210.3,-607.614 0,-222.824 -72.72,-432.946 -210.31,-607.637"
         id="path48"
         style="fill:#59b734;fill-opacity:1;fill-rule:nonzero;stroke:none" /><path
         d="m 3390.63,132.691 -67.38,70.188 c 175.59,168.57 272.3,395.43 272.3,638.797 0,243.274 -96.65,470.074 -272.15,638.644 l 67.41,70.19 c 194.78,-187.08 302.05,-438.83 302.05,-708.834 0,-270.106 -107.34,-521.895 -302.23,-708.985"
         id="path50"
         style="fill:#1081c5;fill-opacity:1;fill-rule:nonzero;stroke:none" /><path
         d="m 4822.75,0 -50.33,83.3008 c 268.11,162.0082 428.17,445.5192 428.17,758.3752 0,312.864 -160.07,596.374 -428.19,758.384 l 50.33,83.29 C 5120.27,1503.56 5297.9,1188.92 5297.9,841.676 5297.9,494.449 5120.28,179.801 4822.75,0"
         id="path52"
         style="fill:#ef3238;fill-opacity:1;fill-rule:nonzero;stroke:none" /></g></g></svg>