<?xml version="1.0" standalone="no"?><!-- Generator: Adobe Fireworks CS6, Export SVG Extension by Aaron Beall (http://fireworks.abeall.com) . Version: 0.6.1  --><!DOCTYPE svg PUBLIC "-//W3C//DTD SVG 1.1//EN" "http://www.w3.org/Graphics/SVG/1.1/DTD/svg11.dtd"><svg id="Untitled-Page%201" viewBox="0 0 252 52" style="background-color:#ffffff00" version="1.1"	xmlns="http://www.w3.org/2000/svg" xmlns:xlink="http://www.w3.org/1999/xlink" xml:space="preserve"	x="0px" y="0px" width="252px" height="52px">	<g id="Layer%201">		<g>			<path d="M 158.2822 32.0026 C 164.1801 32.0026 166.4568 26.4227 166.4568 20.9062 C 166.4568 15.132 164.3732 9.7779 158.6024 9.7779 C 154.0504 9.7779 151.4215 13.1321 151.4215 16.648 C 151.4215 21.2291 154.4671 23.4548 158.3139 23.4548 C 161.2317 23.4548 163.6996 21.3581 164.5976 19.8744 C 164.5976 20.1965 164.5976 20.5513 164.5976 20.8743 C 164.5976 25.3901 162.9944 30.3257 158.2822 30.3257 C 155.9413 30.3257 154.6591 29.3257 153.6017 27.9387 L 152.5114 29.2608 C 153.7936 30.874 155.4933 32.0026 158.2822 32.0026 L 158.2822 32.0026 ZM 158.6348 21.8097 C 155.5887 21.8097 153.2807 20.132 153.2807 16.6161 C 153.2807 14.2937 155.0117 11.4548 158.6665 11.4548 C 162.7059 11.4548 164.2125 15.1973 164.4686 18.1326 C 163.2505 20.2937 160.9745 21.8097 158.6348 21.8097 L 158.6348 21.8097 ZM 177.7025 32.0352 C 181.6458 32.0352 184.9151 29.3903 184.9151 25.0998 C 184.9151 20.6159 181.6774 18.2285 178.0868 18.2285 C 175.8749 18.2285 174.0482 19.1966 172.9895 20.2292 L 172.9895 11.8096 L 183.505 11.8096 L 183.505 10.1327 L 171.1627 10.1327 L 171.1627 21.4223 L 172.5411 22.0033 C 174.1118 20.5513 175.7784 19.9062 177.7342 19.9062 C 180.8115 19.9062 183.0558 21.9061 183.0558 25.1643 C 183.0558 28.1 180.8115 30.3575 177.7025 30.3575 C 174.9453 30.3575 173.0861 29.2608 171.7073 27.2936 L 170.4891 28.5193 C 171.9641 30.6478 174.1435 32.0352 177.7025 32.0352 L 177.7025 32.0352 ZM 190.3293 31.9381 C 191.0983 31.9381 191.7394 31.2929 191.7394 30.5192 C 191.7394 29.7769 191.0983 29.1318 190.3293 29.1318 C 189.56 29.1318 188.8864 29.7769 188.8864 30.5192 C 188.8864 31.2929 189.56 31.9381 190.3293 31.9381 L 190.3293 31.9381 ZM 202.7607 32.0352 C 207.3134 32.0352 209.9732 29.4221 209.9732 25.8736 C 209.9732 22.3258 206.9283 20.713 205.0691 20.5195 C 206.8959 20.1965 209.653 18.7777 209.653 15.4868 C 209.653 11.8423 206.4791 9.8098 202.7607 9.8098 C 199.6508 9.8098 197.2795 11.2294 195.7725 13.068 L 196.9269 14.2292 C 198.4976 12.4555 200.2278 11.4871 202.6641 11.4871 C 205.4217 11.4871 207.7938 12.9708 207.7938 15.6485 C 207.7938 18.5188 205.2294 19.7446 202.3756 19.7446 C 201.5109 19.7446 200.7095 19.7446 200.3885 19.7131 L 200.3885 21.4549 C 200.7095 21.4223 201.5109 21.3908 202.3756 21.3908 C 205.582 21.3908 208.114 22.6806 208.114 25.7776 C 208.114 28.6157 206.0304 30.3575 202.729 30.3575 C 200.0042 30.3575 197.9206 29.0673 196.7338 27.3581 L 195.484 28.4548 C 196.7338 30.3902 199.2666 32.0352 202.7607 32.0352 L 202.7607 32.0352 ZM 216.6064 31.6478 L 216.6064 21.4549 L 228.1148 21.4549 L 228.1148 19.7772 L 216.6064 19.7772 L 216.6064 11.8096 L 228.3392 11.8096 L 228.3392 10.1327 L 214.7788 10.1327 L 214.7788 31.6478 L 216.6064 31.6478 L 216.6064 31.6478 ZM 252 31.6478 L 252 10.1327 L 249.2436 10.1327 L 241.9986 28.0347 L 234.7211 10.1327 L 231.9964 10.1327 L 231.9964 31.6478 L 233.8239 31.6478 L 233.8239 12.4555 L 241.6459 31.6478 L 242.3512 31.6478 L 250.1408 12.4555 L 250.1408 31.6478 L 252 31.6478 L 252 31.6478 Z" fill="#4e4545"/>			<path d="M 37.11 31.6478 L 46.1165 0 L 35.4126 0 L 31.4044 19.3591 L 26.642 0 L 19.4745 0 L 14.712 19.3591 L 10.6568 0 L 0 0 L 9.0065 31.6478 L 19.0032 31.6478 L 23.0584 13.7131 L 27.1137 31.6478 L 37.11 31.6478 L 37.11 31.6478 ZM 78.1149 31.6478 L 78.1149 0 L 68.59 0 L 68.59 11.198 L 57.3202 11.198 L 57.3202 0 L 47.7948 0 L 47.7948 31.6478 L 57.3202 31.6478 L 57.3202 19.549 L 68.59 19.549 L 68.59 31.6478 L 78.1149 31.6478 L 78.1149 31.6478 ZM 111.3066 31.6478 L 105.6006 20.4502 C 108.0994 19.2165 111.2587 16.3226 111.2587 10.8658 C 111.2587 4.9351 107.2976 0 99.9418 0 L 83.1556 0 L 83.1556 31.6478 L 92.6805 31.6478 L 92.6805 21.6843 L 96.1228 21.6843 L 100.4606 31.6478 L 111.3066 31.6478 L 111.3066 31.6478 ZM 98.4803 13.3328 L 92.6805 13.3328 L 92.6805 8.3507 L 98.4803 8.3507 C 100.0835 8.3507 101.5928 9.1101 101.5928 10.8185 C 101.5928 12.5734 100.0835 13.3328 98.4803 13.3328 L 98.4803 13.3328 ZM 134.7884 31.6478 C 141.107 31.6478 144.0783 27.4732 144.0783 23.0601 C 144.0783 18.98 141.4845 15.848 138.0894 15.3259 C 141.1541 14.6613 143.4645 12.0043 143.4645 8.0659 C 143.4645 4.3649 140.6353 0 134.1287 0 L 115.0306 0 L 115.0306 31.6478 L 134.7884 31.6478 L 134.7884 31.6478 ZM 131.9117 11.6726 L 124.5559 11.6726 L 124.5559 7.9716 L 131.9117 7.9716 C 132.9023 7.9716 133.7987 8.6836 133.7987 9.7747 C 133.7987 10.9132 132.9023 11.6726 131.9117 11.6726 L 131.9117 11.6726 ZM 132.1947 23.6766 L 124.5559 23.6766 L 124.5559 19.6438 L 132.1947 19.6438 C 133.5628 19.6438 134.4113 20.545 134.4113 21.6843 C 134.4113 22.8698 133.5628 23.6766 132.1947 23.6766 L 132.1947 23.6766 Z" fill="#1e1719"/>			<path d="M 20.8719 39.7691 L 17.6909 52 L 31.2453 52 L 34.4264 39.7691 L 20.8719 39.7691 L 20.8719 39.7691 Z" fill="#c42e52"/>			<path d="M 37.1594 39.7691 L 33.9784 52 L 47.5329 52 L 50.7135 39.7691 L 37.1594 39.7691 L 37.1594 39.7691 Z" fill="#d56483"/>			<path d="M 59.9476 51.3262 L 59.9476 44.9184 L 58.0195 44.9184 L 58.0195 47.1859 L 55.7356 47.1859 L 55.7356 44.9184 L 53.8083 44.9184 L 53.8083 51.3262 L 55.7356 51.3262 L 55.7356 48.8764 L 58.0195 48.8764 L 58.0195 51.3262 L 59.9476 51.3262 L 59.9476 51.3262 ZM 69.0732 51.3262 L 66.7244 44.9184 L 64.2992 44.9184 L 61.9497 51.3262 L 64.1362 51.3262 L 64.3657 50.5768 L 66.6571 50.5768 L 66.8863 51.3262 L 69.0732 51.3262 L 69.0732 51.3262 ZM 66.1415 48.8871 L 64.881 48.8871 L 65.5118 46.8212 L 66.1415 48.8871 L 66.1415 48.8871 ZM 76.7753 51.3262 L 75.6209 49.0591 C 76.1267 48.8095 76.7662 48.2233 76.7662 47.1182 C 76.7662 45.9168 75.9648 44.9184 74.4752 44.9184 L 71.0757 44.9184 L 71.0757 51.3262 L 73.0034 51.3262 L 73.0034 49.3084 L 73.7011 49.3084 L 74.5805 51.3262 L 76.7753 51.3262 L 76.7753 51.3262 ZM 74.1792 47.6188 L 73.0034 47.6188 L 73.0034 46.6085 L 74.1792 46.6085 C 74.5033 46.6085 74.8096 46.7626 74.8096 47.1083 C 74.8096 47.4647 74.5033 47.6188 74.1792 47.6188 L 74.1792 47.6188 ZM 83.1481 51.3262 L 85.4969 44.9184 L 83.3111 44.9184 L 81.9355 49.232 L 80.5611 44.9184 L 78.3745 44.9184 L 80.7233 51.3262 L 83.1481 51.3262 L 83.1481 51.3262 ZM 93.5536 51.3262 L 91.2044 44.9184 L 88.7796 44.9184 L 86.4308 51.3262 L 88.6166 51.3262 L 88.8461 50.5768 L 91.1371 50.5768 L 91.3666 51.3262 L 93.5536 51.3262 L 93.5536 51.3262 ZM 90.6218 48.8871 L 89.3614 48.8871 L 89.9922 46.8212 L 90.6218 48.8871 L 90.6218 48.8871 ZM 101.2565 51.3262 L 100.1013 49.0591 C 100.607 48.8095 101.2466 48.2233 101.2466 47.1182 C 101.2466 45.9168 100.4452 44.9184 98.9552 44.9184 L 95.5561 44.9184 L 95.5561 51.3262 L 97.4842 51.3262 L 97.4842 49.3084 L 98.1815 49.3084 L 99.0608 51.3262 L 101.2565 51.3262 L 101.2565 51.3262 ZM 98.6595 47.6188 L 97.4842 47.6188 L 97.4842 46.6085 L 98.6595 46.6085 C 98.9845 46.6085 99.29 46.7626 99.29 47.1083 C 99.29 47.4647 98.9845 47.6188 98.6595 47.6188 L 98.6595 47.6188 ZM 106.5587 51.3262 C 108.5549 51.3262 110.0437 50.165 110.0437 48.1178 C 110.0437 46.0709 108.5549 44.9184 106.5488 44.9184 L 103.7042 44.9184 L 103.7042 51.3262 L 106.5587 51.3262 L 106.5587 51.3262 ZM 106.5488 49.6366 L 105.6315 49.6366 L 105.6315 46.6085 L 106.5587 46.6085 C 107.5905 46.6085 108.0871 47.2528 108.0871 48.1178 C 108.0871 48.9253 107.5141 49.6366 106.5488 49.6366 L 106.5488 49.6366 ZM 121.7896 51.3262 L 120.6344 49.0591 C 121.1402 48.8095 121.7797 48.2233 121.7797 47.1182 C 121.7797 45.9168 120.9783 44.9184 119.4895 44.9184 L 116.0892 44.9184 L 116.0892 51.3262 L 118.0173 51.3262 L 118.0173 49.3084 L 118.7154 49.3084 L 119.594 51.3262 L 121.7896 51.3262 L 121.7896 51.3262 ZM 119.1927 47.6188 L 118.0173 47.6188 L 118.0173 46.6085 L 119.1927 46.6085 C 119.5176 46.6085 119.8231 46.7626 119.8231 47.1083 C 119.8231 47.4647 119.5176 47.6188 119.1927 47.6188 L 119.1927 47.6188 ZM 130.7732 51.3262 L 128.4244 44.9184 L 125.9984 44.9184 L 123.6496 51.3262 L 125.8362 51.3262 L 126.0657 50.5768 L 128.3571 50.5768 L 128.5862 51.3262 L 130.7732 51.3262 L 130.7732 51.3262 ZM 127.8414 48.8871 L 126.5814 48.8871 L 127.2118 46.8212 L 127.8414 48.8871 L 127.8414 48.8871 ZM 135.6302 51.3262 C 137.6268 51.3262 139.1156 50.165 139.1156 48.1178 C 139.1156 46.0709 137.6268 44.9184 135.6207 44.9184 L 132.7757 44.9184 L 132.7757 51.3262 L 135.6302 51.3262 L 135.6302 51.3262 ZM 135.6207 49.6366 L 134.7034 49.6366 L 134.7034 46.6085 L 135.6302 46.6085 C 136.6623 46.6085 137.159 47.2528 137.159 48.1178 C 137.159 48.9253 136.5859 49.6366 135.6207 49.6366 L 135.6207 49.6366 ZM 143.4119 51.3262 L 143.4119 44.9184 L 141.4837 44.9184 L 141.4837 51.3262 L 143.4119 51.3262 L 143.4119 51.3262 ZM 149.2484 51.4421 C 151.2153 51.4421 152.7334 50.0973 152.7334 48.1269 C 152.7334 46.1573 151.2153 44.8125 149.2484 44.8125 C 147.2803 44.8125 145.7634 46.1573 145.7634 48.1269 C 145.7634 50.0973 147.2803 51.4421 149.2484 51.4421 L 149.2484 51.4421 ZM 149.2484 49.7329 C 148.3212 49.7329 147.7196 49.0217 147.7196 48.1269 C 147.7196 47.2329 148.3212 46.5217 149.2484 46.5217 C 150.1749 46.5217 150.7768 47.2329 150.7768 48.1269 C 150.7768 49.0217 150.1749 49.7329 149.2484 49.7329 L 149.2484 49.7329 ZM 162.7803 51.3262 C 164.0594 51.3262 164.6609 50.4816 164.6609 49.5884 C 164.6609 48.7605 164.1358 48.1269 163.4483 48.0218 C 164.0693 47.8872 164.5367 47.3496 164.5367 46.5504 C 164.5367 45.8017 163.9636 44.9184 162.6465 44.9184 L 158.7789 44.9184 L 158.7789 51.3262 L 162.7803 51.3262 L 162.7803 51.3262 ZM 162.1978 47.2819 L 160.7074 47.2819 L 160.7074 46.5316 L 162.1978 46.5316 C 162.3988 46.5316 162.58 46.6762 162.58 46.8972 C 162.58 47.1278 162.3988 47.2819 162.1978 47.2819 L 162.1978 47.2819 ZM 162.2551 49.713 L 160.7074 49.713 L 160.7074 48.8951 L 162.2551 48.8951 C 162.5326 48.8951 162.7043 49.0779 162.7043 49.3096 C 162.7043 49.5501 162.5326 49.713 162.2551 49.713 L 162.2551 49.713 ZM 172.8225 51.3262 L 171.6677 49.0591 C 172.1735 48.8095 172.8126 48.2233 172.8126 47.1182 C 172.8126 45.9168 172.0112 44.9184 170.5224 44.9184 L 167.1225 44.9184 L 167.1225 51.3262 L 169.0506 51.3262 L 169.0506 49.3084 L 169.7483 49.3084 L 170.6269 51.3262 L 172.8225 51.3262 L 172.8225 51.3262 ZM 170.2256 47.6188 L 169.0506 47.6188 L 169.0506 46.6085 L 170.2256 46.6085 C 170.5509 46.6085 170.8564 46.7626 170.8564 47.1083 C 170.8564 47.4647 170.5509 47.6188 170.2256 47.6188 L 170.2256 47.6188 ZM 178.3282 51.4421 C 180.2963 51.4421 181.8136 50.0973 181.8136 48.1269 C 181.8136 46.1573 180.2963 44.8125 178.3282 44.8125 C 176.3613 44.8125 174.8432 46.1573 174.8432 48.1269 C 174.8432 50.0973 176.3613 51.4421 178.3282 51.4421 L 178.3282 51.4421 ZM 178.3282 49.7329 C 177.4017 49.7329 176.7998 49.0217 176.7998 48.1269 C 176.7998 47.2329 177.4017 46.5217 178.3282 46.5217 C 179.2554 46.5217 179.8569 47.2329 179.8569 48.1269 C 179.8569 49.0217 179.2554 49.7329 178.3282 49.7329 L 178.3282 49.7329 ZM 190.3681 51.3262 L 188.0193 44.9184 L 185.5945 44.9184 L 183.2454 51.3262 L 185.4315 51.3262 L 185.6606 50.5768 L 187.9521 50.5768 L 188.1816 51.3262 L 190.3681 51.3262 L 190.3681 51.3262 ZM 187.4364 48.8871 L 186.1763 48.8871 L 186.8067 46.8212 L 187.4364 48.8871 L 187.4364 48.8871 ZM 195.2256 51.3262 C 197.2217 51.3262 198.7105 50.165 198.7105 48.1178 C 198.7105 46.0709 197.2217 44.9184 195.2157 44.9184 L 192.371 44.9184 L 192.371 51.3262 L 195.2256 51.3262 L 195.2256 51.3262 ZM 195.2157 49.6366 L 194.2983 49.6366 L 194.2983 46.6085 L 195.2256 46.6085 C 196.2573 46.6085 196.7539 47.2528 196.7539 48.1178 C 196.7539 48.9253 196.1809 49.6366 195.2157 49.6366 L 195.2157 49.6366 ZM 204.217 51.4421 C 205.8883 51.4421 206.7379 50.4242 207.1107 49.5689 L 205.449 48.8007 C 205.2863 49.2997 204.7901 49.7329 204.217 49.7329 C 203.2906 49.7329 202.67 49.0217 202.67 48.1269 C 202.67 47.2329 203.2906 46.5217 204.217 46.5217 C 204.7901 46.5217 205.2863 46.9542 205.449 47.4543 L 207.1107 46.6762 C 206.7281 45.7921 205.8883 44.8125 204.217 44.8125 C 202.2209 44.8125 200.7134 46.1474 200.7134 48.1269 C 200.7134 50.0973 202.2209 51.4421 204.217 51.4421 L 204.217 51.4421 ZM 215.7377 51.3262 L 213.3889 44.9184 L 210.9638 44.9184 L 208.615 51.3262 L 210.8008 51.3262 L 211.0303 50.5768 L 213.3217 50.5768 L 213.5508 51.3262 L 215.7377 51.3262 L 215.7377 51.3262 ZM 212.806 48.8871 L 211.5455 48.8871 L 212.1764 46.8212 L 212.806 48.8871 L 212.806 48.8871 ZM 220.3031 51.4421 C 222.0124 51.4421 223.0524 50.6257 223.0524 49.2125 C 223.0524 46.8303 219.5096 47.3496 219.5096 46.7439 C 219.5096 46.5798 219.6149 46.4552 219.9968 46.4552 C 220.5987 46.4552 221.3155 46.6662 221.8691 47.0895 L 222.9 45.7153 C 222.1746 45.1199 221.239 44.8221 220.1978 44.8221 C 218.4502 44.8221 217.553 45.8598 217.553 46.9454 C 217.553 49.4725 221.1053 48.8481 221.1053 49.4629 C 221.1053 49.713 220.7618 49.8094 220.3989 49.8094 C 219.5381 49.8094 218.8222 49.4438 218.3449 48.9815 L 217.3433 50.4242 C 218.0208 51.0383 218.9465 51.4421 220.3031 51.4421 L 220.3031 51.4421 ZM 228.5874 51.3262 L 228.5874 46.6085 L 230.2875 46.6085 L 230.2875 44.9184 L 224.9504 44.9184 L 224.9504 46.6085 L 226.6601 46.6085 L 226.6601 51.3262 L 228.5874 51.3262 L 228.5874 51.3262 ZM 234.4017 51.3262 L 234.4017 44.9184 L 232.4744 44.9184 L 232.4744 51.3262 L 234.4017 51.3262 L 234.4017 51.3262 ZM 243.2321 51.3262 L 243.2321 44.9184 L 241.304 44.9184 L 241.304 47.9541 L 239.0874 44.9184 L 237.1024 44.9184 L 237.1024 51.3262 L 239.0297 51.3262 L 239.0297 48.0795 L 241.38 51.3262 L 243.2321 51.3262 L 243.2321 51.3262 ZM 249.0881 51.4421 C 250.3394 51.4421 251.294 50.9332 252 50.1455 L 252 47.5228 L 248.8973 47.5228 L 248.8973 49.2125 L 250.0818 49.2125 L 250.0818 49.4438 C 249.8816 49.5983 249.451 49.7329 249.0881 49.7329 C 248.1616 49.7329 247.5406 49.0209 247.5406 48.1277 C 247.5406 47.2337 248.1616 46.5217 249.0881 46.5217 C 249.6619 46.5217 250.0818 46.9255 250.263 47.3205 L 251.8856 46.4835 C 251.4847 45.6575 250.607 44.8125 249.0881 44.8125 C 247.1592 44.8125 245.5841 46.0709 245.5841 48.1277 C 245.5841 50.1742 247.1592 51.4421 249.0881 51.4421 L 249.0881 51.4421 Z" fill="#af181f"/>			<path d="M 252 41.667 L 252 39.4851 L 4.6821 39.4851 L 4.6584 39.4851 L 1.4037 52 L 14.9582 52 L 17.6458 41.667 L 252 41.667 L 252 41.667 Z" fill="#af181f"/>		</g>	</g></svg>