<?xml version="1.0" encoding="utf-8"?>
<!-- Generator: Adobe Illustrator 15.0.0, SVG Export Plug-In . SVG Version: 6.00 Build 0)  -->
<!DOCTYPE svg PUBLIC "-//W3C//DTD SVG 1.1//EN" "http://www.w3.org/Graphics/SVG/1.1/DTD/svg11.dtd">
<svg version="1.1" id="Layer_1" xmlns="http://www.w3.org/2000/svg" xmlns:xlink="http://www.w3.org/1999/xlink" x="0px" y="0px"
	 width="294.836px" height="241.149px" viewBox="0 0 294.836 241.149" enable-background="new 0 0 294.836 241.149"
	 xml:space="preserve">
<g>
	<g>
		<g>
			<path fill="#06B3E3" d="M16.977,85.688c-5.619,2.604-9.417,7.62-9.417,13.377v60.01c0,5.756,3.799,10.781,9.417,13.39V85.688z"/>
		</g>
		<g>
			<path fill="#FFFFFF" d="M5.148,103.277c-2.705,1.67-4.717,3.771-4.717,6.075v39.446c0,2.316,2.013,4.422,4.717,6.088V103.277z"/>
		</g>
	</g>
	<g>
		<path fill="#06B3E3" d="M248.826,76.737h18.397c-0.903-2.719-1.888-5.377-2.967-7.962c-9.311-22.364-25.203-39.53-45.11-50.803
			c-19.909-11.3-43.716-16.84-69.33-16.842c-0.776,0-1.56,0.005-2.336,0.018c-0.781-0.013-1.558-0.018-2.339-0.018
			c-17.081,0-33.343,2.464-48.197,7.454C74.675,16.046,55.527,29.31,42.117,48.17c-6.031,8.458-10.859,18.014-14.36,28.566h18.385
			c0.173-0.433,0.344-0.868,0.523-1.295c7.892-18.84,20.851-32.836,37.69-42.431c16.83-9.565,37.648-14.588,60.787-14.588
			c0.74,0,1.478,0.006,2.222,0.019h0.236c0.738-0.012,1.479-0.019,2.217-0.019c15.419,0,29.827,2.231,42.694,6.554
			c19.312,6.508,35.11,17.601,46.249,33.224C242.719,63.769,246.104,69.939,248.826,76.737z"/>
	</g>
	<g>
		<path fill-rule="evenodd" clip-rule="evenodd" fill="#ED1C24" d="M120.248,119.901c7.125,1.92,14.338,3.748,21.363,5.776
			c1.946-7.235,3.966-14.388,5.771-21.753c2.271,6.978,4.001,14.483,5.972,21.753c7.077-2.096,14.613-3.737,21.553-5.969
			l-15.584,15.976c0,0,12.162,12.131,15.777,16.163c-7.011-2.156-14.537-3.798-21.552-5.956c-2.225,7.008-3.957,14.522-5.976,21.74
			c-2.064-7.026-3.994-14.212-5.762-21.555c-6.976,1.499-14.807,3.799-21.943,5.771c5.145-5.43,15.777-16.101,15.777-16.163
			C130.72,130.344,124.687,125.083,120.248,119.901z"/>
	</g>
	<g>
		<g>
			<path fill="#FFFFFF" d="M23.197,189.233h17.105l6.912,23.458l7.889-23.598h14.103l7.889,23.598l6.912-23.458h16.825
				l-15.987,49.221H70.602l-8.586-24.295l-8.588,24.295H39.185L23.197,189.233z"/>
			<path fill="#FFFFFF" d="M109.205,189.233h16.337v18.292l13.893-18.292h18.988l-17.033,21.225l17.382,27.646h-19.477
				l-9.565-15.498l-4.188,5.096v10.402h-16.337V189.233z"/>
			<path fill="#FFFFFF" d="M207.987,239.571l-5.373-4.817c-4.33,2.793-9.495,4.398-15.222,4.398
				c-15.08,0-26.601-11.17-26.601-25.344v-0.139c0-14.173,11.66-25.483,26.741-25.483s26.601,11.17,26.601,25.344v0.14
				c0,5.235-1.606,10.053-4.33,14.032l5.026,4.259L207.987,239.571z M190.884,224.63l-5.514-4.747l6.839-7.68l5.238,4.747
				c0.209-0.977,0.348-1.954,0.348-2.932v-0.14c0-5.795-4.049-11.24-10.402-11.24c-6.213,0-10.121,5.445-10.121,11.17v0.14
				c0,5.795,3.908,11.241,10.262,11.241C188.721,225.189,189.837,224.979,190.884,224.63z"/>
			<path fill="#FFFFFF" d="M272.425,189.233l-15.848,23.808l16.546,25.063h-18.571l-7.749-12.706l-7.82,12.706h-18.222
				l16.547-24.854l-15.849-24.018h18.571l7.051,11.66l7.121-11.66H272.425z"/>
		</g>
	</g>
	<rect x="21.621" y="81.381" fill="#FFFFFF" width="31.263" height="96.03"/>
	<path fill="#FFFFFF" d="M125.113,177.411c-14.065-8.107-22.882-23.685-22.882-41.271v-0.431c0-25.736,18.44-46.753,45.036-46.753
		c26.598,0,45.474,21.448,45.474,47.184v0.43c0,17.513-8.548,32.833-22.387,40.841H215.5c7.53-11.978,11.769-26.138,11.769-41.271
		v-0.431c0-42.681-33.245-77.208-79.573-77.208c-46.322,0-79.998,34.959-79.998,77.639v0.43c0,15.004,4.114,28.997,11.455,40.841
		H125.113z"/>
	<rect x="242.083" y="81.381" fill="#FFFFFF" width="31.263" height="96.03"/>
	<g>
		<g>
			<path fill="#06B3E3" d="M278.012,172.465c5.619-2.603,9.417-7.619,9.417-13.377v-60.01c0-5.756-3.799-10.782-9.417-13.39V172.465
				z"/>
		</g>
		<g>
			<path fill="#FFFFFF" d="M289.84,154.875c2.706-1.67,4.718-3.771,4.718-6.073v-39.446c0-2.318-2.012-4.423-4.718-6.087V154.875z"
				/>
		</g>
	</g>
</g>
</svg>
