<?xml version="1.0" encoding="UTF-8" standalone="no"?>
<!-- Created with Inkscape (http://www.inkscape.org/) -->
<svg
   xmlns:svg="http://www.w3.org/2000/svg"
   xmlns="http://www.w3.org/2000/svg"
   version="1.0"
   width="602.36218"
   height="148.5"
   id="svg1906">
  <defs
     id="defs1908" />
  <g
     id="layer1">
    <g
       transform="translate(-48.81891,-458.1122)"
       id="g1919">
      <polygon
         points="10580600,500700 16500000,500700 16500000,3691340 10580600,3691340 10580600,500700 "
         transform="matrix(3.543307e-5,0,0,3.543307e-5,48.8182,458.0938)"
         style="fill:white;fill-rule:evenodd"
         id="polygon10" />
      <path
         d="M 423.72134,475.8351 L 633.46527,475.8351 L 633.46527,588.88927 L 423.72134,588.88927 L 423.72134,475.8351 L 423.72134,475.8351 z M 451.745,543.85667 L 451.745,489.7851 L 443.4813,489.7851 L 430.44547,501.2849 L 435.73244,507.9371 L 442.51752,501.87663 L 442.51752,543.85667 L 451.745,543.85667 z M 481.87267,545.01675 L 479.59362,537.62506 C 478.94165,535.50935 478.1933,534.62919 476.62858,534.2086 C 479.42921,533.65301 480.96134,531.70065 480.96134,528.86919 C 480.96134,525.08919 477.76952,523.30088 474.25315,523.30088 L 466.27752,523.30088 L 466.27752,545.01675 L 471.38909,545.01675 L 471.38909,536.32573 L 472.42905,536.32573 C 473.5048,536.32573 474.15677,536.90966 474.64574,538.66927 L 476.36921,545.01675 L 481.87267,545.01675 z M 475.71724,529.74474 C 475.71724,531.47281 474.64574,532.51348 472.78941,532.51348 L 471.3572,532.51348 L 471.3572,527.07663 L 472.75787,527.07663 C 474.54582,527.07663 475.71724,527.8884 475.71724,529.74474 z M 502.25271,545.01675 L 495.54948,523.30088 L 489.62153,523.30088 L 482.9137,545.01675 L 488.12484,545.01675 L 489.32921,540.13301 L 495.64586,540.13301 L 496.88177,545.01675 L 502.25271,545.01675 z M 494.76464,536.52061 L 490.14098,536.52061 L 492.4211,527.53266 L 494.76464,536.52061 z M 521.66118,534.17352 C 521.66118,527.69706 518.30496,523.30088 511.53334,523.30088 L 504.82551,523.30088 L 504.82551,545.01675 L 511.69669,545.01675 C 518.10972,545.01675 521.66118,540.29742 521.66118,534.17352 z M 516.28881,534.17352 C 516.28881,537.821 515.08126,541.07765 511.24102,541.07765 L 510.00511,541.07765 L 510.00511,527.24104 L 511.10956,527.24104 C 515.21271,527.24104 516.28881,530.49769 516.28881,534.17352 z M 525.40504,545.01675 L 530.5811,545.01675 L 530.5811,523.30088 L 525.40504,523.30088 L 525.40504,545.01675 z M 552.29696,534.17352 C 552.29696,528.50884 549.98496,522.97313 543.27712,522.97313 C 536.99307,522.97313 534.32531,528.57332 534.32531,534.17352 C 534.32531,539.90517 536.63696,545.3771 543.27712,545.3771 C 549.59377,545.3771 552.29696,539.93706 552.29696,534.17352 z M 546.92566,534.17352 C 546.92566,537.30084 546.56531,541.66478 543.27712,541.66478 C 540.41271,541.66478 539.69732,538.08073 539.69732,534.17352 C 539.69732,531.01679 540.15334,526.68545 543.27712,526.68545 C 546.63334,526.68545 546.92566,530.98525 546.92566,534.17352 z M 478.78078,559.0812 L 478.78078,555.01277 L 464.38858,555.01277 L 464.38858,559.0812 L 469.01366,559.0812 L 469.01366,576.7297 L 474.18972,576.7297 L 474.18972,559.0812 L 478.78078,559.0812 z M 496.78539,576.7297 L 496.78539,555.01277 L 491.57283,555.01277 L 491.57283,563.54151 L 486.65756,563.54151 L 486.65756,555.01277 L 481.48149,555.01277 L 481.48149,576.7297 L 486.65756,576.7297 L 486.65756,567.61348 L 491.57283,567.61348 L 491.57283,576.7297 L 496.78539,576.7297 z M 509.90519,552.99344 L 513.2933,552.99344 L 513.2933,548.85699 L 509.90519,548.85699 L 509.90519,552.99344 z M 504.46941,552.99344 L 507.85291,552.99344 L 507.85291,548.85699 L 504.46941,548.85699 L 504.46941,552.99344 z M 516.61303,568.8175 L 516.61303,555.01277 L 511.43696,555.01277 L 511.43696,569.6973 C 511.43696,571.55364 510.91326,573.24521 508.86559,573.24521 C 506.71338,573.24521 506.35728,571.55364 506.35728,569.6973 L 506.35728,555.01277 L 501.14508,555.01277 L 501.14508,568.8175 C 501.14508,574.05698 503.48862,577.0858 508.86559,577.0858 C 514.04165,577.0858 516.61303,573.82915 516.61303,568.8175 z M 536.60543,576.7297 L 534.32531,569.33695 C 533.67334,567.22088 532.925,566.34108 531.36133,565.91695 C 534.16196,565.3649 535.69374,563.4136 535.69374,560.58108 C 535.69374,556.80073 532.50086,555.01277 528.9859,555.01277 L 521.00921,555.01277 L 521.00921,576.7297 L 526.12185,576.7297 L 526.12185,568.03726 L 527.16145,568.03726 C 528.23755,568.03726 528.88492,568.6212 529.37708,570.38116 L 531.10161,576.7297 L 536.60543,576.7297 z M 530.44964,561.45769 C 530.44964,563.18576 529.37708,564.22537 527.52074,564.22537 L 526.08535,564.22537 L 526.08535,558.78958 L 527.48566,558.78958 C 529.27716,558.78958 530.44964,559.60136 530.44964,561.45769 z M 539.66578,576.7297 L 544.84185,576.7297 L 544.84185,555.01277 L 539.66578,555.01277 L 539.66578,576.7297 z M 565.84196,576.7297 L 565.84196,555.01277 L 561.44472,555.01277 L 561.44472,570.83683 L 556.07377,555.01277 L 549.43397,555.01277 L 549.43397,576.7297 L 553.82519,576.7297 L 553.82519,560.93718 L 559.16566,576.7297 L 565.84196,576.7297 z M 586.45338,575.94947 L 586.45338,564.25726 L 579.18996,564.25726 L 579.18996,567.90474 L 581.69791,567.90474 L 581.69791,572.921 C 581.20929,573.14884 580.68984,573.24521 580.13318,573.24521 C 576.19303,573.24521 574.95712,569.53289 574.95712,565.88541 C 574.95712,561.84887 576.91303,558.5288 580.88507,558.5288 C 583.06527,558.5288 584.30118,559.0812 585.66995,559.7647 L 585.8659,555.59671 C 584.46558,555.14104 582.90086,554.68502 580.49389,554.68502 C 573.81759,554.68502 569.58582,559.30903 569.58582,565.88541 C 569.58582,572.59324 572.80952,577.0858 579.54925,577.0858 C 581.66495,577.0858 584.46558,576.82502 586.45338,575.94947 z M 603.21747,576.7297 L 603.21747,572.78954 L 595.5696,572.78954 L 595.5696,567.51356 L 602.4057,567.51356 L 602.4057,563.60954 L 595.5696,563.60954 L 595.5696,558.95293 L 602.92586,558.95293 L 602.92586,555.01277 L 590.45696,555.01277 L 590.45696,576.7297 L 603.21747,576.7297 z M 623.34133,576.7297 L 623.34133,555.01277 L 618.94515,555.01277 L 618.94515,570.83683 L 613.57314,555.01277 L 606.9298,555.01277 L 606.9298,576.7297 L 611.32562,576.7297 L 611.32562,560.93718 L 616.66503,576.7297 L 623.34133,576.7297 z "
         style="fill:#0ba749;fill-rule:evenodd"
         id="path12" />
      <rect
         width="299.81339"
         height="113.05417"
         x="66.534729"
         y="475.83508"
         style="fill:white;fill-rule:evenodd"
         id="rect14" />
      <path
         d="M 66.534731,475.8351 L 222.99158,475.8351 L 222.99158,482.47738 L 230.58418,482.47738 C 235.40414,482.47738 237.30441,485.89242 237.30441,490.58907 L 237.30441,510.80116 C 231.02284,503.9686 223.08689,501.40502 213.74284,501.40502 C 193.23241,501.40502 183.47556,517.25281 182.31229,533.5251 C 182.23504,534.63273 182.02315,538.72136 182.85548,545.14466 L 196.89477,545.14466 C 196.89477,544.88954 196.40402,542.52084 196.235,540.82927 C 195.9402,537.93687 196.12729,534.27344 196.19178,533.37769 C 197.10701,520.51726 203.27626,509.24884 216.9552,509.3771 C 227.90721,509.51671 233.94359,517.20533 236.86327,520.19766 L 249.7191,534.5725 L 249.7191,475.8351 L 366.34811,475.8351 L 366.34811,588.88927 L 66.534731,588.88927 L 66.534731,510.64915 L 76.350755,510.64915 C 81.115085,510.64915 81.691227,512.86159 81.691227,517.42537 L 81.691227,545.99754 C 81.691227,545.99754 92.391306,528.92163 95.271305,524.50065 C 98.868116,518.98549 104.00662,508.83285 114.60359,508.44061 C 130.62749,507.85313 132.21489,525.37691 132.50402,528.61762 L 132.64788,528.76147 C 132.64788,528.76147 140.09166,509.11738 154.2989,508.44061 C 168.48701,507.7649 171.3943,521.8088 171.92721,527.16521 C 172.14052,529.26498 172.11217,534.32092 172.11217,534.32092 L 178.1202,534.32092 C 178.13969,534.32092 178.12268,532.21301 178.12268,532.21301 C 178.12268,515.35254 173.51461,500.99683 154.44312,501.51734 C 145.548,501.76537 139.28662,507.4088 135.1041,513.44872 C 132.35875,506.82132 124.73922,501.101 114.7478,501.51734 C 104.75851,501.93687 98.290912,508.73293 93.95851,515.65762 L 93.95851,503.72943 L 66.534731,503.72943 L 66.534731,475.8351 L 66.534731,475.8351 z M 304.14004,508.47675 C 307.25567,508.36124 311.65185,509.2173 312.3591,512.621 C 307.26028,512.621 303.85516,514.98864 303.85516,520.31671 C 303.85516,524.60943 307.96327,527.12553 311.7911,527.12553 C 317.45933,527.12553 319.72811,522.83281 319.72811,517.20852 C 319.72811,507.00061 313.34343,501.11695 303.7113,501.51734 C 293.71953,501.93687 287.82807,508.76943 283.49567,515.69269 L 283.49567,503.76451 L 256.07225,503.76451 L 256.07225,510.68458 L 265.88792,510.68458 C 270.64799,510.68458 271.22732,512.89313 271.22732,517.46151 L 271.22732,546.02907 C 271.22732,546.02907 281.9274,528.95317 284.8074,524.53679 C 288.39961,519.02057 293.53953,508.86899 304.14004,508.47675 z "
         style="fill:#006cb8;fill-opacity:1;fill-rule:evenodd"
         id="path16" />
      <polygon
         points="9134450,3691340 10401400,3691340 10401400,500700 9134450,500700 9134450,3691340 "
         transform="matrix(3.543307e-5,0,0,3.543307e-5,48.8182,458.0938)"
         style="fill:#6795ce;fill-rule:nonzero"
         id="polygon18" />
    </g>
  </g>
</svg>
