<?xml version="1.0" encoding="UTF-8" standalone="no"?>
<!-- Created with Inkscape (http://www.inkscape.org/) -->
<svg
   xmlns:svg="http://www.w3.org/2000/svg"
   xmlns="http://www.w3.org/2000/svg"
   version="1.0"
   width="602.36218"
   height="134.0433"
   id="svg9827">
  <defs
     id="defs9829" />
  <g
     id="layer1">
    <g
       transform="translate(-48.81891,-465.3405)"
       id="g9840">
      <path
         d="M 582.62838,577.826 L 313.02276,577.826 L 314.51768,577.826 C 289.4098,577.826 267.55929,557.47466 267.55929,532.36218 C 267.55929,507.25289 289.38606,486.8973 314.49181,486.8973 L 582.64007,486.8973 C 607.74936,486.8973 629.62893,507.25289 629.62893,532.36218 C 629.62893,557.47466 607.73732,577.826 582.62838,577.826 L 582.62838,577.826 z M 582.64751,483.06238 L 314.53717,483.06238 C 286.4724,483.06238 263.72402,505.10955 263.72402,532.25128 C 263.72402,559.39868 286.4724,581.66198 314.53717,581.66198 L 582.64751,581.66198 C 610.71228,581.66198 633.46527,559.61801 633.46527,532.47203 C 633.46527,505.32888 610.71228,483.06238 582.64751,483.06238 L 582.64751,483.06238 z "
         style="fill:black;fill-rule:nonzero"
         id="_47565488" />
      <path
         d="M 263.72614,532.25588 C 263.72614,514.27573 273.70764,498.54167 288.61043,489.95943 C 288.6526,489.9325 288.70291,489.91407 288.74402,489.88714 C 281.40689,485.55829 272.85795,483.06238 263.72614,483.06238 C 236.49618,483.06238 214.42528,505.13541 214.42528,532.36218 C 214.42528,559.59108 236.49618,581.66198 263.72614,581.66198 C 272.88063,581.66198 281.44799,579.15403 288.79327,574.80604 C 273.79906,566.18588 263.72614,550.3108 263.72614,532.25588 z "
         style="fill:#ff090a;fill-rule:nonzero"
         id="_46424976" />
      <path
         d="M 260.08469,483.21368 C 260.49323,483.17931 260.91488,483.18356 261.32768,483.16443 L 263.25949,483.06238 L 117.19197,483.06238 C 89.317841,483.06238 66.700558,504.94833 66.534731,531.95258 L 66.534731,532.54927 C 66.700558,559.56096 89.317841,581.66198 117.19197,581.66198 L 263.25949,581.66198 L 261.32768,581.57836 C 235.21422,580.32651 214.42528,558.78356 214.42528,532.36218 C 214.42528,506.3614 234.55374,485.07675 260.08469,483.21368 L 260.08469,483.21368 z "
         style="fill:#7f898b;fill-rule:nonzero"
         id="_45519208" />
      <path
         d="M 582.63901,486.8973 L 314.49075,486.8973 C 289.385,486.8973 267.55823,507.25289 267.55823,532.36218 C 267.55823,557.47466 289.40874,577.826 314.51662,577.826 L 313.02169,577.826 L 582.62732,577.826 C 607.73625,577.826 629.62787,557.47466 629.62787,532.36218 C 629.62787,507.25289 607.7483,486.8973 582.63901,486.8973 z M 153.61186,507.32518 L 151.52981,507.32518 L 151.52981,520.37588 L 153.53107,520.37588 C 157.20158,520.37588 158.2256,517.1249 158.2256,513.86931 C 158.2256,510.76962 157.39115,507.32518 153.61186,507.32518 z M 183.13682,507.10124 L 180.64162,507.10124 L 180.64162,512.0562 L 182.98622,512.0562 C 185.02646,512.0562 186.9193,511.79045 186.9193,509.4834 C 186.9193,507.36273 184.99315,507.10124 183.13682,507.10124 z M 137.77646,526.46541 L 129.11024,526.46541 L 129.07587,506.64521 L 124.00823,526.46541 L 115.94863,526.46541 L 110.88418,506.64521 L 110.88418,526.46541 L 102.55882,526.46541 L 102.55882,501.23884 L 116.82064,501.23884 L 120.26225,516.13844 L 123.55115,501.23884 L 137.77646,501.23884 L 137.77646,526.46541 z M 155.5015,526.46541 L 141.84701,526.46541 L 141.84701,501.23884 L 155.5015,501.23884 C 163.78469,501.23884 168.36406,505.32144 168.36406,513.86931 C 168.36406,521.81376 163.48351,526.46541 155.5015,526.46541 z M 187.25697,526.46541 L 186.05048,520.97931 C 185.55689,518.82392 185.21674,517.91754 182.75733,517.91754 L 180.71709,517.91754 L 180.71709,526.46541 L 171.25823,526.46541 L 171.25823,501.23884 L 186.73008,501.23884 C 191.26764,501.23884 196.56418,502.56297 196.56418,508.08309 C 196.56418,511.97966 194.10583,513.86931 190.55012,514.6662 C 193.50241,515.23206 194.74788,516.25573 195.50615,519.20376 L 197.31926,526.46541 L 187.25697,526.46541 z "
         style="fill:white;fill-rule:nonzero"
         id="_46674272" />
      <path
         d="M 316.06858,528.08187 L 310.58709,526.35557 C 307.88106,525.52856 302.7748,524.17466 302.7748,521.01793 C 302.7748,516.73762 308.85973,516.13419 312.16457,516.13419 C 316.52036,516.13419 321.0278,516.88608 325.08347,518.46392 L 325.46295,508.17451 C 320.72768,507.04738 315.84925,506.44431 310.96551,506.44431 C 301.04851,506.44431 288.12429,509.44903 288.12429,521.69222 C 288.12429,529.13246 292.55768,533.11301 299.24284,535.36691 L 304.42457,537.0964 C 307.35417,538.07187 313.36717,539.72163 313.36717,543.1062 C 313.36717,547.53391 308.25736,548.51258 304.6524,548.51258 C 299.24284,548.51258 293.75992,547.61045 288.79788,545.3562 L 288.42547,555.95281 C 294.21169,557.52746 300.29343,558.20706 306.30323,558.20706 C 316.67201,558.20706 328.16791,554.44726 328.16791,542.27919 C 328.16791,533.86029 323.50882,530.40805 316.06858,528.08187 z M 360.75465,507.33581 L 334.31413,507.33581 L 334.31413,557.44454 L 348.81476,557.44454 L 348.81476,540.76584 L 360.61079,540.76584 C 371.12449,540.76584 378.33689,534.97998 378.33689,523.8625 C 378.33689,513.34561 370.82437,507.33581 360.75465,507.33581 z M 352.69291,531.4512 L 348.70953,531.4512 L 348.70953,516.72699 L 353.81579,516.72699 C 358.62335,516.72699 363.51028,518.22935 363.51028,523.93903 C 363.51028,530.62738 358.09504,531.4512 352.69291,531.4512 z M 415.40094,537.92021 C 415.40094,543.25466 413.14669,547.91376 407.06177,547.91376 C 400.97543,547.91376 398.95043,543.25466 398.95043,537.92021 L 398.95043,507.33581 L 384.14968,507.33581 L 384.14968,538.36773 C 384.14968,552.34466 394.14287,558.20706 406.98523,558.20706 C 419.75673,558.20706 430.20169,551.59384 430.20169,537.69663 L 430.20169,507.33581 L 415.40094,507.33581 L 415.40094,537.92021 z M 435.42949,517.57986 L 445.96161,517.57986 L 445.96161,544.22907 C 445.96161,552.86836 448.81929,558.20706 458.05775,558.20706 C 461.51,558.20706 465.2698,557.59939 468.57819,556.55305 L 468.05874,546.54037 C 466.78421,547.06407 465.35697,547.36738 464.00626,547.36738 C 460.55082,547.36738 459.86342,545.54222 459.86342,542.53714 L 459.86342,517.57986 L 472.19059,517.57986 L 472.19059,507.33581 L 435.42949,507.33581 L 435.42949,517.57986 z M 531.03216,516.87403 L 544.92618,516.87403 L 544.92618,507.33262 L 531.03216,507.33262 L 531.03216,516.87403 z M 531.03216,557.44454 L 544.92618,557.44454 L 544.92618,521.25994 L 531.03216,521.25994 L 531.03216,557.44454 z M 600.72866,507.33581 L 583.52625,507.33581 L 568.19862,528.36994 L 568.19862,507.33581 L 553.40212,507.33581 L 553.40212,557.44454 L 568.19862,557.44454 L 568.19862,534.37974 L 584.35326,557.44454 L 602.37948,557.44454 L 581.497,530.77584 L 600.72866,507.33581 z M 498.81287,506.51305 C 486.03854,506.51305 475.60102,513.11848 475.60102,527.01604 L 475.60102,557.44454 L 490.39858,557.44454 L 490.39858,526.7921 C 490.39858,521.4612 492.65141,517.57986 498.73775,517.57986 C 504.81948,517.57986 506.84909,521.4612 506.84909,526.7921 L 506.84909,557.44454 L 521.64984,557.44454 L 521.64984,526.34494 C 521.64984,512.3712 511.65948,506.51305 498.81287,506.51305 z "
         style="fill:black;fill-rule:evenodd"
         id="_46603880" />
    </g>
  </g>
</svg>
