<svg xmlns="http://www.w3.org/2000/svg" xmlns:xlink="http://www.w3.org/1999/xlink" viewBox="0 0 275 133" enable-background="new 0 0 275 133"><title>Antenne Bayern</title><defs><path id="9" d="m9.156 20.14c0 0 58.3-12.768 127.19-12.768 68.894 0 129.49 12.768 129.49 12.768v92.46c0 0-60.6 12.768-127.19 12.768-68.896 0-129.49-12.768-129.49-12.768v-92.46"/><clipPath id="3"><use xlink:href="#9"/></clipPath><filter id="0"><feOffset result="offOut" dx="-.5" dy="2" in="SourceAlpha"/><feGaussianBlur result="blurOut" stdDeviation="2" in="offOut"/><feBlend mode="normal" in2="blurOut" in="SourceGraphic"/></filter><linearGradient id="6" gradientUnits="userSpaceOnUse" x1="39.07" x2="50" xlink:href="#4"/><linearGradient id="7" gradientUnits="userSpaceOnUse" x1="78.14" x2="85.23" xlink:href="#4"/><linearGradient id="5" gradientUnits="userSpaceOnUse" x1="184.54" x2="195.62" xlink:href="#4"/><linearGradient id="4" gradientUnits="userSpaceOnUse" x1="39.04" x2="50.625"><stop stop-color="#fdc500"/><stop offset="1" stop-color="#ffdc03"/></linearGradient><linearGradient id="8" gradientUnits="userSpaceOnUse" x1="-8.327" x2="285.62" xlink:href="#4"/><linearGradient id="1" gradientUnits="userSpaceOnUse" x1="9.156" x2="265.84"><stop stop-color="#014992"/><stop offset="1" stop-color="#0561a8"/></linearGradient><radialGradient id="2" cx="241.64" cy="36.824" r="20.342" gradientUnits="userSpaceOnUse"><stop offset=".035" stop-color="#fff" stop-opacity=".9"/><stop offset=".25" stop-color="#ccdfee" stop-opacity=".766"/><stop offset=".738" stop-color="#4d8fc2" stop-opacity=".463"/><stop offset="1" stop-color="#0663aa" stop-opacity=".3"/></radialGradient></defs><path fill="#fff" filter="url(#0)" d="m136.35 7.37c68.894 0 129.49 12.768 129.49 12.768v92.46c0 0-60.6 12.768-127.19 12.768-68.896 0-129.49-12.768-129.49-12.768v-92.46c0 0 58.3-12.768 127.19-12.768m0-3c-68.43 0-127.25 12.709-127.84 12.837l-2.358.517v2.414 92.46 2.434l2.381.502c.609.128 61.695 12.833 130.11 12.833 66.14 0 127.2-12.704 127.81-12.833l2.381-.502v-2.434-92.46-2.434l-2.381-.502c-.609-.128-61.696-12.832-130.11-12.832z"/><path fill="url(#1)" d="m9.156 19.809c0 0 58.3-12.439 127.19-12.439 68.894 0 129.49 12.439 129.49 12.439v90.12c0 0-60.6 12.439-127.19 12.439-68.896 0-129.49-12.439-129.49-12.439v-90.12"/><g fill="#fff"><path fill-rule="evenodd" d="m57.3 61.775v-27.793c-3.308-1.785-7.213-2.579-11.713-2.579-4.565 0-8.468.794-11.711 2.446v8.01h9.131v-4.367c.795-.263 1.522-.331 2.58-.331 1.059 0 1.854.067 2.582.397v7.212c-.992-.265-2.316-.463-3.772-.463-4.367 0-7.807.531-10.653 1.72v15.75c3.309 1.785 7.079 2.579 11.779 2.579 4.829 0 8.535-.86 11.777-2.579m-9.131-3.443c-.662.265-1.523.398-2.646.398-1.125 0-2.052-.133-2.646-.398v-8.203c.727-.332 1.585-.465 2.646-.465 1.058.068 1.985.199 2.646.398v8.27"/><path d="m89.78 63.759v-29.709c-3.31-1.788-7.412-2.647-11.912-2.647-4.566 0-8.667.859-11.91 2.647v29.709h9.196v-24.68c.73-.398 1.723-.464 2.714-.464 1.059 0 1.986.066 2.713.464v24.68h9.199"/><path d="m113.3 64.09v-6.813h-2.051c-.992 0-2.048-.265-2.712-.598v-17.533h4.89v-7.146h-4.89v-7.552h-9.33v7.552h-2.965v7.146h2.965v22.03c2.977 1.988 6.486 2.912 10.653 2.912h3.44"/><path d="m176.34 63.759v-29.709c-3.308-1.788-7.411-2.647-11.91-2.647-4.564 0-8.667.859-11.911 2.647v29.709h9.199v-24.68c.728-.398 1.718-.464 2.712-.464 1.059 0 1.985.066 2.714.464v24.68h9.196"/><path d="m209.03 63.759v-29.709c-3.307-1.788-7.41-2.647-11.91-2.647-4.566 0-8.667.859-11.91 2.647v29.709h9.198v-24.68c.726-.398 1.718-.464 2.712-.464 1.059 0 1.983.066 2.714.464v24.68h9.196"/><path fill-rule="evenodd" d="m143.86 61.64v-8.61h-9.196v4.971c-.731.396-1.523.462-2.583.462-.992 0-1.918-.133-2.647-.462v-7.808h14.426v-16.01c-3.243-1.853-7.146-2.78-11.779-2.78-4.631 0-8.535.927-11.709 2.78v27.459c3.242 1.852 7.212 2.711 11.709 2.711 4.633.001 8.537-.926 11.779-2.711m-9.196-16.41c0 0-5.162 0-5.229 0v-7.61c.729-.329 1.522-.463 2.647-.463 1.193 0 1.919.134 2.583.463v7.61"/></g><g clip-path="url(#3)"><path fill="url(#4)" d="m48.32 97.28h-9.278v3.094h10.09c.91 0 1.485-.719 1.485-1.607 0-1.293-1.295-1.487-2.302-1.487"/><path fill="url(#5)" d="m193.53 91.34h-8.99v4.337h8.846c1.296 0 2.231-.455 2.231-1.895 0-1.556-.361-2.442-2.087-2.442"/><path fill="url(#6)" d="m50 92.52c0-1.173-.958-1.558-1.99-1.558h-8.943v2.973h9.09c.911 0 1.846-.361 1.846-1.415"/><path fill="url(#7)" d="m78.14 97.52h7.09l-3.47-6.57z"/><path fill="url(#8)" d="m-8.327 76.66v65.34h293.95v-65.34h-293.95m57.657 27.582h-14.574c-.476 0-.798-.357-.798-.797l.004-15.456c0-.441.358-.775.833-.775l14.704.006c3.166 0 5.681.769 5.681 4.435 0 2.253-.598 3.358-2.877 3.884.121.048.24.048.336.048 2.541.481 3.189 1.535 3.189 4.054 0 4.193-3.094 4.601-6.498 4.601m43.737-.198l-3.903.001c.002 0 .004.001.007.001l-.06-.001h.053c-.297-.003-.556-.167-.691-.414-.014 0-1.371-2.559-1.371-2.559h-10.86l-1.378 2.552c-.135.247-.395.421-.694.421h-3.741c-.473-.004-.85-.386-.85-.859 0-.159.044-.31.12-.437-.014 0 7.08-12.738 8.414-15.14.135-.237.389-.392.688-.392l5.779.001c.301 0 .547.158.683.393l8.537 15.13c.076.129.122.283.122.443-.001.474-.382.857-.855.86m34.34-15.56l-8.596 9.785v5.102c0 .438-.357.793-.832.793l-3.659.001c-.475 0-.832-.357-.832-.774v-5.123l-8.427-9.773c-.111-.134-.179-.309-.179-.498 0-.429.336-.778.776-.782h4.429c.253 0 .478.114.626.295l5.412 6.681 5.439-6.678c.147-.181.377-.3.629-.3l4.639.002c.443.004.755.349.755.779 0 .188-.067.356-.18.49m33.588 1.779c-.011.433-.366.764-.837.764l-12.877-.002v2.781h12.137c.468 0 .825.345.833.778v2.01c-.008.43-.342.763-.811.763h-12.159v2.973h12.903c.469 0 .8.346.811.777l-.004 2.257c-.01.432-.364.779-.833.779l-17.18.001c-.469 0-.821-.351-.831-.782v-15.364c.01-.433.362-.782.831-.782h17.18c.468 0 .82.342.831.777v2.272m39.12 13.854l-3.615-.001c-.285 0-.538-.151-.669-.375l-2.459-3.891h-8.837v3.489c-.01.433-.335.778-.805.778h-3.684c-.469 0-.8-.352-.81-.783l.001-15.341c.01-.433.337-.779.807-.779h16.237c3.717 0 4.508 2.614 4.508 5.778 0 2.733-.967 3.968-3.192 4.524 0 0 3.209 5.401 3.222 5.401.066.118.104.244.104.389.001.448-.363.811-.808.811m40.924-.69c-.009.432-.321.737-.791.737h-7.096l-.59-.279c-3.396-4.128-6.725-8.329-9.911-12.62l.002 12.12c-.01.429-.366.776-.833.776h-3.256c-.466 0-.82-.333-.83-.764v-15.38c.01-.429.385-.778.854-.778l7.03.019c.263-.001.469.124.617.315 3.413 4.19 6.78 8.427 10.06 12.754-.048-2.588-.146-5.178-.146-7.768l.002-4.566c.01-.435.364-.78.835-.78l3.221-.001c.469 0 .825.32.833.751v15.461"/></g><circle fill="url(#2)" cx="241.65" cy="36.825" r="20.343"/><path fill-rule="evenodd" fill="#fff" d="m241.25 61.64v-8.61h-9.197v4.971c-.729.396-1.521.462-2.581.462-.995 0-1.918-.133-2.646-.462v-7.808h14.424v-16.01c-3.243-1.853-7.145-2.78-11.778-2.78-4.631 0-8.536.927-11.711 2.78v27.459c3.242 1.852 7.211 2.711 11.711 2.711 4.633.001 8.536-.926 11.778-2.711m-9.197-16.41c0 0-5.161 0-5.227 0v-7.61c.728-.329 1.522-.463 2.646-.463 1.193 0 1.917.134 2.581.463v7.61"/></svg>
