<?xml version="1.0" encoding="utf-8"?>
<!-- Generator: Adobe Illustrator 16.0.0, SVG Export Plug-In . SVG Version: 6.00 Build 0)  -->
<!DOCTYPE svg PUBLIC "-//W3C//DTD SVG 1.1//EN" "http://www.w3.org/Graphics/SVG/1.1/DTD/svg11.dtd">
<svg version="1.1" id="Layer_1" xmlns="http://www.w3.org/2000/svg" xmlns:xlink="http://www.w3.org/1999/xlink" x="0px" y="0px"
	 width="380px" height="220px" viewBox="0 0 380 220" enable-background="new 0 0 380 220" xml:space="preserve">
<g>
	<defs>
		<path id="SVGID_1_" d="M56.079,89.881c0,0,70.27-15.391,153.304-15.391c83.034,0,156.07,15.391,156.07,15.391v111.44
			c0,0-73.036,15.39-153.303,15.39c-83.036,0-156.072-15.39-156.072-15.39V89.881L56.079,89.881z"/>
	</defs>
	<use xlink:href="#SVGID_1_"  overflow="visible" fill="#00539F"/>
	<clipPath id="SVGID_2_">
		<use xlink:href="#SVGID_1_"  overflow="visible"/>
	</clipPath>
	<polygon clip-path="url(#SVGID_2_)" fill="#ED1C2E" points="35.705,60.767 389.984,60.767 389.984,157.936 35.705,157.936 
		35.705,60.767 	"/>
	<use xlink:href="#SVGID_1_"  overflow="visible" fill="none" stroke="#FFFFFF" stroke-width="4" stroke-miterlimit="3.8637"/>
</g>
<path fill-rule="evenodd" clip-rule="evenodd" fill="#FFFFFF" d="M203.856,139.701v-35.115c-6.92-2.399-16.099-3.769-27.233-3.769
	c-11.282,0-20.308,1.456-27.228,3.769v35.115c6.92,2.312,16.098,3.769,27.228,3.769C187.911,143.47,197.085,141.928,203.856,139.701
	L203.856,139.701z M183.093,134.045c-1.654,0.431-3.759,0.686-6.47,0.686c-2.856,0-4.963-0.255-6.467-0.686v-23.807
	c1.504-0.427,3.76-0.684,6.467-0.684c2.859,0,4.966,0.257,6.47,0.684V134.045L183.093,134.045z"/>
<path fill="#FFFFFF" d="M270.926,139.955v-14.559h-20.759v8.908c-1.806,0.426-3.765,0.512-6.02,0.512
	c-2.404,0-4.511-0.086-6.167-0.512V109.98c1.656-0.427,3.763-0.512,6.167-0.512c2.409,0,4.362,0.17,6.02,0.512v8.824h20.759v-14.562
	c-7.369-2.312-16.549-3.425-26.778-3.425c-10.529,0-19.557,1.114-26.926,3.425v35.712c7.369,2.398,16.697,3.515,26.926,3.515
	C254.529,143.47,263.704,142.269,270.926,139.955L270.926,139.955z"/>
<path fill="#FFFFFF" d="M336.914,143.55v-17.228c-3.252-1.596-8.86-2.689-14.615-3.276c5.755-0.673,11.363-1.935,14.021-3.192
	v-13.201H315.8v10.175c-1.624,0.923-4.723,1.512-8.265,1.512h-1.921v-15.231H285.1v40.442h20.515v-15.801h1.921
	c4.132,0,7.379,0.674,8.858,1.513v14.288H336.914L336.914,143.55z"/>
<path fill-rule="evenodd" clip-rule="evenodd" fill="#FFFFFF" d="M105.283,190.68h4.109c0.49-0.004,0.888-0.402,0.888-0.89
	c0-0.167-0.047-0.331-0.127-0.46l-8.868-15.722c-0.139-0.243-0.395-0.411-0.707-0.411h-6.005c-0.311,0-0.576,0.163-0.716,0.407
	c-1.389,2.499-8.75,15.73-8.739,15.73c-0.079,0.134-0.125,0.288-0.125,0.455c0,0.493,0.393,0.89,0.883,0.89h3.887
	c0.312,0,0.579-0.177,0.719-0.434l1.433-2.655h11.282c0,0,1.41,2.664,1.425,2.664c0.138,0.253,0.411,0.425,0.722,0.425H105.283
	L105.283,190.68z M101.255,183.909h-7.37l3.758-6.824L101.255,183.909L101.255,183.909z"/>
<path fill="#FFFFFF" d="M217.241,189.971c-0.01,0.451-0.38,0.811-0.863,0.811h-17.842c-0.488,0-0.856-0.364-0.866-0.811v-15.959
	c0.01-0.451,0.378-0.814,0.866-0.814h17.847c0.488,0,0.854,0.359,0.863,0.805v2.366c-0.01,0.448-0.38,0.794-0.868,0.794
	l-13.379-0.005v2.888h12.608c0.489,0,0.853,0.364,0.867,0.811l-0.005,2.082c-0.01,0.449-0.354,0.794-0.838,0.794h-12.633v3.089
	h13.403c0.488,0,0.834,0.359,0.844,0.81L217.241,189.971L217.241,189.971z"/>
<path fill="#FFFFFF" d="M291.507,190.806h7.37c0.488,0,0.813-0.317,0.823-0.767v-16.062c-0.01-0.445-0.378-0.78-0.866-0.78h-3.347
	c-0.488,0-0.857,0.363-0.867,0.809v4.746c0,2.691,0.101,5.377,0.148,8.068c-3.4-4.495-6.9-8.897-10.443-13.244
	c-0.155-0.202-0.37-0.325-0.643-0.325l-7.303-0.025c-0.487,0-0.877,0.363-0.887,0.81v15.975c0.01,0.451,0.374,0.796,0.863,0.796
	h3.38c0.483,0,0.854-0.359,0.862-0.81v-12.589c3.313,4.457,6.768,8.819,10.296,13.11L291.507,190.806L291.507,190.806z"/>
<path fill="#FFFFFF" d="M250.307,190.806h7.368c0.489,0,0.81-0.317,0.819-0.767v-16.062c-0.01-0.445-0.378-0.78-0.866-0.78h-3.348
	c-0.484,0-0.852,0.363-0.861,0.809l-0.005,4.746c0,2.691,0.1,5.377,0.148,8.068c-3.4-4.495-6.896-8.897-10.438-13.244
	c-0.159-0.202-0.374-0.325-0.643-0.325l-7.307-0.025c-0.484,0-0.877,0.363-0.887,0.81v15.975c0.01,0.451,0.379,0.796,0.867,0.796
	h3.376c0.488,0,0.857-0.359,0.866-0.81l-0.005-12.589c3.314,4.457,6.768,8.819,10.296,13.11L250.307,190.806L250.307,190.806z"/>
<path fill="#FFFFFF" d="M140.853,190.806h7.37c0.487,0,0.811-0.317,0.821-0.767v-16.062c-0.011-0.445-0.38-0.78-0.867-0.78h-3.347
	c-0.486,0-0.855,0.363-0.864,0.809l-0.002,4.746c0,2.691,0.1,5.377,0.149,8.068c-3.402-4.495-6.898-8.897-10.443-13.244
	c-0.154-0.202-0.37-0.325-0.642-0.325l-7.304-0.025c-0.485,0-0.876,0.363-0.886,0.81v15.975c0.01,0.451,0.376,0.796,0.864,0.796
	h3.379c0.486,0,0.854-0.359,0.864-0.81l-0.002-12.589c3.312,4.457,6.767,8.819,10.295,13.11L140.853,190.806L140.853,190.806z"/>
<path fill="#FFFFFF" d="M336.598,189.971c-0.01,0.451-0.375,0.811-0.863,0.811h-17.842c-0.488,0-0.853-0.364-0.866-0.811v-15.959
	c0.014-0.451,0.378-0.814,0.866-0.814h17.847c0.488,0,0.853,0.359,0.862,0.805v2.366c-0.01,0.448-0.379,0.794-0.862,0.794
	l-13.384-0.005v2.888h12.612c0.483,0,0.853,0.364,0.862,0.811v2.082c-0.01,0.449-0.354,0.794-0.843,0.794h-12.632v3.089h13.408
	c0.483,0,0.828,0.359,0.838,0.81L336.598,189.971L336.598,189.971z"/>
<path fill="#FFFFFF" d="M175.36,190.541c0.373,0,0.758-0.316,0.758-0.799v-12.526l6.906,0.004c0.484,0,0.879-0.388,0.879-0.871
	v-2.333c0-0.483-0.393-0.818-0.877-0.818h-19.058c-0.597,0-0.982,0.382-0.982,0.866v2.323c0,0.483,0.33,0.876,0.815,0.876h6.848
	l0.002,12.408c0,0.483,0.396,0.87,0.882,0.87H175.36L175.36,190.541z"/>
<path fill="#FFFFFF" d="M135.555,143.522v-16.367c-3.084-1.518-8.414-2.556-13.882-3.113c5.468-0.64,10.798-1.836,13.322-3.034
	v-12.54l-19.508,1.491l0.016,8.173c-1.543,0.88-4.487,1.438-7.854,1.438h-1.821l-0.034-10.739l-19.459-2.241v36.932h19.493v-15.012
	h1.821c3.927,0,7.011,0.641,8.414,1.436v13.576H135.555L135.555,143.522z"/>
<path fill="#FFFFFF" d="M134.975,112.804v-8.047c0,0-6.919-1.063-11.373-1.449c-3.886-0.333-9.986-0.505-9.986-0.505
	c-8.215-0.373-27.32,3.75-27.32,3.75s14.327,2.85,21.456,2.368c2.522,0.107,3.251,0.189,5.516,0.572
	c0.053,0.01,2.519,0.521,5.148,0.98c0,0,7.347,2.441,9.591,2.441L134.975,112.804L134.975,112.804z"/>
<line fill="none" stroke="#FFFFFF" stroke-width="0.3114" stroke-miterlimit="3.8637" x1="87.848" y1="106.887" x2="86.3" y2="106.887"/>
<polygon fill="#00539F" stroke="#FFFFFF" stroke-width="3" stroke-miterlimit="3.8637" points="3.964,66.529 45.546,53.628 
	60.845,2.087 87.427,38.329 122.589,23.568 95.767,62.209 127.689,94.431 77.227,87.172 34.563,131.211 44.765,80.21 3.964,66.529 
	"/>
<polygon fill="#FFFFFF" points="15.03,66.55 48.81,56.087 62.131,9.463 85.93,42.519 113.513,30.884 91.246,62.964 117.748,89.714 
	75.854,83.686 40.437,120.25 48.905,77.908 15.03,66.55 "/>
<polygon fill="#FFFFFF" points="96.606,53.235 100.088,57.659 98.685,60.146 110.292,75.517 99.513,77.495 79.929,73.573 
	96.606,53.235 "/>
<path fill-rule="evenodd" clip-rule="evenodd" fill="#ED1C2E" d="M79.059,68.825c0.863,4.434-0.709,5.291-3.142,5.763l-10.154,1.975
	l-2.24-11.524l10.481-2.037c2.452-0.477,3.931,0.041,4.762,4.312L79.059,68.825L79.059,68.825z M64.077,78.586l11.892-2.311
	c5.026-0.978,5.993-3.201,4.938-8.636c-1.137-5.844-2.787-7.135-7.75-6.17l-11.955,2.324L64.077,78.586L64.077,78.586z"/>
<path fill-rule="evenodd" clip-rule="evenodd" fill="#ED1C2E" d="M85.921,74.447l2.289-0.322l1.41-3.416l11.956-1.678l2.298,2.893
	l2.288-0.321L95.201,57.923l-2.514,0.355L85.921,74.447L85.921,74.447z M100.375,67.517l-10.018,1.409l3.819-9.175L100.375,67.517
	L100.375,67.517z"/>
<path fill-rule="evenodd" clip-rule="evenodd" fill="#ED1C2E" d="M160.455,59.332c0.314,4.506-1.351,5.165-3.821,5.337l-10.32,0.722
	l-0.818-11.71l10.652-0.746c2.49-0.173,3.896,0.521,4.2,4.859L160.455,59.332L160.455,59.332z M144.395,67.195l12.086-0.846
	c5.107-0.357,6.337-2.445,5.953-7.97c-0.416-5.938-1.896-7.42-6.941-7.068l-12.149,0.849L144.395,67.195L144.395,67.195z"/>
<path fill-rule="evenodd" clip-rule="evenodd" fill="#ED1C2E" d="M267.32,65.708l2.034,0.143l0.418-5.938l9.926,0.694
	c1.848,0.129,2.97,0.498,2.807,2.846l-0.23,3.3l1.905,0.135l0.273-3.841c0.097-1.372-0.329-2.485-2.379-3.004l0.004-0.041
	c1.567-0.039,2.811-0.534,2.959-2.653l0.088-1.223c0.195-2.826-0.389-4.305-4.728-4.609l-12.024-0.84L267.32,65.708L267.32,65.708z
	 M269.887,58.251l0.407-5.772l9.261,0.647c2.988,0.209,3.678,0.801,3.557,2.482l-0.095,1.371c-0.11,1.578-1.106,2.112-3.371,1.954
	L269.887,58.251L269.887,58.251z"/>
<path fill-rule="evenodd" clip-rule="evenodd" fill="#ED1C2E" d="M288.045,67.302l2.299,0.242l2.197-2.972l12.006,1.262l1.527,3.362
	l2.299,0.241l-7.327-15.922l-2.522-0.266L288.045,67.302L288.045,67.302z M303.747,64.076l-10.062-1.057l5.924-7.98L303.747,64.076
	L303.747,64.076z"/>
<path fill-rule="evenodd" clip-rule="evenodd" fill="#ED1C2E" d="M329.701,65.607c-0.632,4.472-2.395,4.771-4.852,4.425
	l-10.242-1.44l1.633-11.625l10.572,1.485c2.478,0.349,3.707,1.32,3.101,5.627L329.701,65.607L329.701,65.607z M312.357,69.958
	l11.995,1.687c5.07,0.711,6.709-1.074,7.479-6.558c0.828-5.895-0.312-7.654-5.32-8.357l-12.058-1.694L312.357,69.958L312.357,69.958
	z"/>
<path fill-rule="evenodd" clip-rule="evenodd" fill="#ED1C2E" d="M361.669,73.271c-0.497,2.574-2.164,2.845-4.084,2.471
	l-8.113-1.578c-1.918-0.373-3.36-1.246-2.862-3.821l1.083-5.557c0.502-2.574,2.165-2.845,4.084-2.472l8.112,1.578
	c1.92,0.373,3.361,1.247,2.864,3.821L361.669,73.271L361.669,73.271z M344.756,69.198c-0.728,3.739,0.193,5.784,4.195,6.562
	l8.519,1.656c4.009,0.778,5.622-0.773,6.35-4.512l0.786-4.045c0.727-3.741-0.187-5.785-4.195-6.563l-8.52-1.656
	c-4.003-0.779-5.621,0.773-6.349,4.512L344.756,69.198L344.756,69.198z"/>
<g>
	
		<path fill="#00539F" stroke="#00539F" stroke-width="3" stroke-linecap="round" stroke-linejoin="round" stroke-miterlimit="3.8637" d="
		M79.059,68.825c0.863,4.434-0.709,5.291-3.142,5.763l-10.154,1.975l-2.24-11.524l10.481-2.037c2.452-0.477,3.931,0.041,4.762,4.312
		L79.059,68.825L79.059,68.825z M64.077,78.586l11.892-2.311c5.026-0.978,5.993-3.201,4.938-8.636
		c-1.137-5.844-2.787-7.135-7.75-6.17l-11.955,2.324L64.077,78.586L64.077,78.586z"/>
	
		<path fill="#00539F" stroke="#00539F" stroke-width="3" stroke-linecap="round" stroke-linejoin="round" stroke-miterlimit="3.8637" d="
		M85.921,74.447l2.289-0.322l1.41-3.416l11.956-1.678l2.298,2.893l2.288-0.321L95.201,57.923l-2.514,0.355L85.921,74.447
		L85.921,74.447z M100.375,67.517l-10.018,1.409l3.819-9.175L100.375,67.517L100.375,67.517z"/>
	
		<path fill="#00539F" stroke="#00539F" stroke-width="3" stroke-linecap="round" stroke-linejoin="round" stroke-miterlimit="3.8637" d="
		M109.524,67.312c0.401,3.265,3.067,3.462,6.022,3.099l5.619-0.69c2.997-0.368,5.98-1.006,5.528-4.683l-0.12-0.972
		c-0.311-2.541-2.104-3.475-6.05-2.99l-5.991,0.735c-3.161,0.39-3.793-0.142-4.011-1.919c-0.301-2.459,1.057-2.835,4.962-3.314
		l2.149-0.264c5.309-0.653,5.61-0.248,5.943,2.123l1.901-0.235l-0.063-0.515c-0.327-2.666-1.744-3.793-6.765-3.175l-4.359,0.535
		c-4.173,0.512-6.103,1.524-5.684,4.934c0.485,3.967,2.557,4.09,8.734,3.331l3.842-0.471c2.52-0.31,3.322,0.074,3.554,1.955
		c0.263,2.148-0.528,2.875-3.462,3.235l-6.28,0.771c-2.521,0.309-3.393-0.297-3.572-1.764l-0.129-1.055l-1.901,0.235L109.524,67.312
		L109.524,67.312z"/>
	
		<path fill="#00539F" stroke="#00539F" stroke-width="3" stroke-linecap="round" stroke-linejoin="round" stroke-miterlimit="3.8637" d="
		M160.455,59.332c0.314,4.506-1.351,5.165-3.821,5.337l-10.32,0.722l-0.818-11.71l10.652-0.746c2.49-0.173,3.896,0.521,4.2,4.859
		L160.455,59.332L160.455,59.332z M144.395,67.195l12.086-0.846c5.107-0.357,6.337-2.445,5.953-7.97
		c-0.416-5.938-1.896-7.42-6.941-7.068l-12.149,0.849L144.395,67.195L144.395,67.195z"/>
	
		<polygon fill="#00539F" stroke="#00539F" stroke-width="3" stroke-linecap="round" stroke-linejoin="round" stroke-miterlimit="3.8637" points="
		168.551,65.462 170.588,65.355 169.8,50.306 167.763,50.412 168.551,65.462 	"/>
	
		<path fill="#00539F" stroke="#00539F" stroke-width="3" stroke-linecap="round" stroke-linejoin="round" stroke-miterlimit="3.8637" d="
		M194.802,56.87l-9.754,0.342l0.057,1.663l7.72-0.269l0.052,1.518c0.072,2.081-1.149,2.832-3.189,2.903l-7.968,0.277
		c-1.957,0.068-3.558-0.458-3.649-3.08l-0.196-5.658c-0.092-2.62,1.467-3.259,3.423-3.326l5.282-0.185
		c5.038-0.176,5.894,0.001,5.995,2.81l1.911-0.066l-0.02-0.541c-0.12-3.474-3.03-4.039-5.736-3.945l-7.698,0.269
		c-4.078,0.143-5.303,2.018-5.169,5.825l0.144,4.118c0.131,3.807,1.484,5.593,5.562,5.452l8.406-0.294
		c3.764-0.132,5.043-1.633,4.898-5.732L194.802,56.87L194.802,56.87z"/>
	
		<polygon fill="#00539F" stroke="#00539F" stroke-width="3" stroke-linecap="round" stroke-linejoin="round" stroke-miterlimit="3.8637" points="
		200.683,64.216 202.722,64.181 202.459,49.113 200.418,49.148 200.683,64.216 	"/>
	
		<polygon fill="#00539F" stroke="#00539F" stroke-width="3" stroke-linecap="round" stroke-linejoin="round" stroke-miterlimit="3.8637" points="
		214.713,64.048 216.753,64.048 216.753,50.644 224.371,50.644 224.371,48.979 207.094,48.979 207.094,50.644 214.713,50.644 
		214.713,64.048 	"/>
	
		<path fill="#00539F" stroke="#00539F" stroke-width="3" stroke-linecap="round" stroke-linejoin="round" stroke-miterlimit="3.8637" d="
		M225.08,64.078l2.312,0.04l1.925-3.151l12.071,0.211l1.821,3.217l2.308,0.04l-8.687-15.225l-2.538-0.044L225.08,64.078
		L225.08,64.078z M240.441,59.495l-10.114-0.176l5.205-8.466L240.441,59.495L240.441,59.495z"/>
	
		<polygon fill="#00539F" stroke="#00539F" stroke-width="3" stroke-linecap="round" stroke-linejoin="round" stroke-miterlimit="3.8637" points="
		249.645,64.767 263.364,65.486 263.455,63.823 251.771,63.21 252.476,49.824 250.436,49.719 249.645,64.767 	"/>
	
		<path fill="#00539F" stroke="#00539F" stroke-width="3" stroke-linecap="round" stroke-linejoin="round" stroke-miterlimit="3.8637" d="
		M267.32,65.708l2.034,0.143l0.418-5.938l9.926,0.694c1.848,0.129,2.97,0.498,2.807,2.846l-0.23,3.3l1.905,0.135l0.273-3.841
		c0.097-1.372-0.329-2.485-2.379-3.004l0.004-0.041c1.567-0.039,2.811-0.534,2.959-2.653l0.088-1.223
		c0.195-2.826-0.389-4.305-4.728-4.609l-12.024-0.84L267.32,65.708L267.32,65.708z M269.887,58.251l0.407-5.772l9.261,0.647
		c2.988,0.209,3.678,0.801,3.557,2.482l-0.095,1.371c-0.11,1.578-1.106,2.112-3.371,1.954L269.887,58.251L269.887,58.251z"/>
	
		<path fill="#00539F" stroke="#00539F" stroke-width="3" stroke-linecap="round" stroke-linejoin="round" stroke-miterlimit="3.8637" d="
		M288.045,67.302l2.299,0.242l2.197-2.972l12.006,1.262l1.527,3.362l2.299,0.241l-7.327-15.922l-2.522-0.266L288.045,67.302
		L288.045,67.302z M303.747,64.076l-10.062-1.057l5.924-7.98L303.747,64.076L303.747,64.076z"/>
	
		<path fill="#00539F" stroke="#00539F" stroke-width="3" stroke-linecap="round" stroke-linejoin="round" stroke-miterlimit="3.8637" d="
		M329.701,65.607c-0.632,4.472-2.395,4.771-4.852,4.425l-10.242-1.44l1.633-11.625l10.572,1.485c2.478,0.349,3.707,1.32,3.101,5.627
		L329.701,65.607L329.701,65.607z M312.357,69.958l11.995,1.687c5.07,0.711,6.709-1.074,7.479-6.558
		c0.828-5.895-0.312-7.654-5.32-8.357l-12.058-1.694L312.357,69.958L312.357,69.958z"/>
	
		<polygon fill="#00539F" stroke="#00539F" stroke-width="3" stroke-linecap="round" stroke-linejoin="round" stroke-miterlimit="3.8637" points="
		336.291,73.422 338.302,73.74 340.662,58.858 338.646,58.537 336.291,73.422 	"/>
	
		<path fill="#00539F" stroke="#00539F" stroke-width="3" stroke-linecap="round" stroke-linejoin="round" stroke-miterlimit="3.8637" d="
		M361.669,73.271c-0.497,2.574-2.164,2.845-4.084,2.471l-8.113-1.578c-1.918-0.373-3.36-1.246-2.862-3.821l1.083-5.557
		c0.502-2.574,2.165-2.845,4.084-2.472l8.112,1.578c1.92,0.373,3.361,1.247,2.864,3.821L361.669,73.271L361.669,73.271z
		 M344.756,69.198c-0.728,3.739,0.193,5.784,4.195,6.562l8.519,1.656c4.009,0.778,5.622-0.773,6.35-4.512l0.786-4.045
		c0.727-3.741-0.187-5.785-4.195-6.563l-8.52-1.656c-4.003-0.779-5.621,0.773-6.349,4.512L344.756,69.198L344.756,69.198z"/>
</g>
<g>
	<path fill-rule="evenodd" clip-rule="evenodd" fill="#FFFFFF" stroke="#FFFFFF" stroke-miterlimit="10" d="M79.059,68.805
		c0.863,4.433-0.709,5.29-3.142,5.763l-10.154,1.975l-2.24-11.524l10.481-2.037c2.452-0.477,3.931,0.04,4.762,4.312L79.059,68.805
		L79.059,68.805z M64.077,78.565l11.892-2.31c5.026-0.977,5.993-3.202,4.938-8.637c-1.137-5.843-2.787-7.136-7.75-6.168
		l-11.955,2.323L64.077,78.565L64.077,78.565z"/>
	<path fill="#FFFFFF" stroke="#FFFFFF" stroke-miterlimit="10" d="M85.921,74.425l2.289-0.321l1.41-3.415l11.956-1.68l2.298,2.892
		l2.288-0.32L95.201,57.902l-2.514,0.354L85.921,74.425L85.921,74.425z M100.375,67.496l-10.018,1.408l3.819-9.175L100.375,67.496
		L100.375,67.496z"/>
	<path fill="#FFFFFF" stroke="#FFFFFF" stroke-miterlimit="10" d="M109.524,67.291c0.401,3.265,3.067,3.461,6.022,3.099l5.619-0.69
		c2.997-0.368,5.98-1.006,5.528-4.684l-0.12-0.971c-0.311-2.541-2.104-3.475-6.05-2.99l-5.991,0.736
		c-3.161,0.388-3.793-0.144-4.011-1.92c-0.301-2.458,1.057-2.835,4.962-3.313l2.149-0.264c5.309-0.652,5.61-0.249,5.943,2.121
		l1.901-0.233l-0.063-0.517c-0.327-2.665-1.744-3.791-6.765-3.174l-4.359,0.535c-4.173,0.512-6.103,1.525-5.684,4.933
		c0.485,3.968,2.557,4.091,8.734,3.333l3.842-0.471c2.52-0.312,3.322,0.074,3.554,1.953c0.263,2.148-0.528,2.876-3.462,3.235
		l-6.28,0.771c-2.521,0.309-3.393-0.295-3.572-1.762l-0.129-1.054l-1.901,0.233L109.524,67.291L109.524,67.291z"/>
	<path fill="#FFFFFF" stroke="#FFFFFF" stroke-miterlimit="10" d="M160.455,59.312c0.314,4.504-1.351,5.165-3.821,5.337
		l-10.32,0.722l-0.818-11.711l10.652-0.746c2.49-0.174,3.896,0.521,4.2,4.859L160.455,59.312L160.455,59.312z M144.395,67.173
		l12.086-0.845c5.107-0.357,6.337-2.445,5.953-7.968c-0.416-5.939-1.896-7.423-6.941-7.068l-12.149,0.848L144.395,67.173
		L144.395,67.173z"/>
	<polygon fill="#FFFFFF" stroke="#FFFFFF" stroke-miterlimit="10" points="168.551,65.442 170.588,65.334 169.8,50.286 
		167.763,50.392 168.551,65.442 	"/>
	<path fill="#FFFFFF" stroke="#FFFFFF" stroke-miterlimit="10" d="M194.802,56.85l-9.754,0.341l0.057,1.665l7.72-0.271l0.052,1.519
		c0.072,2.08-1.149,2.832-3.189,2.903l-7.968,0.278c-1.957,0.066-3.558-0.46-3.649-3.081l-0.196-5.659
		c-0.092-2.619,1.467-3.258,3.423-3.325l5.282-0.185c5.038-0.177,5.894,0.001,5.995,2.81l1.911-0.066l-0.02-0.541
		c-0.12-3.474-3.03-4.039-5.736-3.944l-7.698,0.269c-4.078,0.142-5.303,2.018-5.169,5.825l0.144,4.118
		c0.131,3.806,1.484,5.593,5.562,5.451l8.406-0.295c3.764-0.13,5.043-1.633,4.898-5.732L194.802,56.85L194.802,56.85z"/>
	<polygon fill="#FFFFFF" stroke="#FFFFFF" stroke-miterlimit="10" points="200.683,64.195 202.722,64.161 202.459,49.093 
		200.418,49.128 200.683,64.195 	"/>
	<polygon fill="#FFFFFF" stroke="#FFFFFF" stroke-miterlimit="10" points="214.713,64.027 216.753,64.027 216.753,50.624 
		224.371,50.624 224.371,48.957 207.094,48.957 207.094,50.624 214.713,50.624 214.713,64.027 	"/>
	<path fill-rule="evenodd" clip-rule="evenodd" fill="#FFFFFF" stroke="#FFFFFF" stroke-miterlimit="10" d="M225.08,64.058
		l2.312,0.04l1.925-3.152l12.071,0.21l1.821,3.219l2.308,0.041l-8.687-15.225l-2.538-0.043L225.08,64.058L225.08,64.058z
		 M240.441,59.476l-10.114-0.178l5.205-8.465L240.441,59.476L240.441,59.476z"/>
	<polygon fill="#FFFFFF" stroke="#FFFFFF" stroke-miterlimit="10" points="249.645,64.746 263.364,65.466 263.455,63.802 
		251.771,63.19 252.476,49.804 250.436,49.697 249.645,64.746 	"/>
	<path fill-rule="evenodd" clip-rule="evenodd" fill="#FFFFFF" stroke="#FFFFFF" stroke-miterlimit="10" d="M267.32,65.688
		l2.034,0.141l0.418-5.938l9.926,0.695c1.848,0.129,2.97,0.499,2.807,2.847l-0.23,3.3l1.905,0.133l0.273-3.84
		c0.097-1.372-0.329-2.485-2.379-3.005l0.004-0.041c1.567-0.037,2.811-0.534,2.959-2.652l0.088-1.225
		c0.195-2.825-0.389-4.305-4.728-4.608l-12.024-0.841L267.32,65.688L267.32,65.688z M269.887,58.23l0.407-5.773l9.261,0.65
		c2.988,0.208,3.678,0.799,3.557,2.479l-0.095,1.372c-0.11,1.579-1.106,2.113-3.371,1.954L269.887,58.23L269.887,58.23z"/>
	<path fill="#FFFFFF" stroke="#FFFFFF" stroke-miterlimit="10" d="M288.045,67.281l2.299,0.242l2.197-2.972l12.006,1.262
		l1.527,3.364l2.299,0.241l-7.327-15.924l-2.522-0.266L288.045,67.281L288.045,67.281z M303.747,64.056l-10.062-1.059l5.924-7.979
		L303.747,64.056L303.747,64.056z"/>
	<path fill="#FFFFFF" stroke="#FFFFFF" stroke-miterlimit="10" d="M329.701,65.586c-0.632,4.472-2.395,4.771-4.852,4.427
		l-10.242-1.442l1.633-11.624l10.572,1.487c2.478,0.347,3.707,1.318,3.101,5.626L329.701,65.586L329.701,65.586z M312.357,69.937
		l11.995,1.688c5.07,0.711,6.709-1.075,7.479-6.559c0.828-5.894-0.312-7.653-5.32-8.356l-12.058-1.694L312.357,69.937
		L312.357,69.937z"/>
	<polygon fill="#FFFFFF" stroke="#FFFFFF" stroke-miterlimit="10" points="336.291,73.401 338.302,73.72 340.662,58.836 
		338.646,58.516 336.291,73.401 	"/>
	<path fill="#FFFFFF" stroke="#FFFFFF" stroke-miterlimit="10" d="M361.669,73.25c-0.497,2.574-2.164,2.844-4.084,2.471
		l-8.113-1.577c-1.918-0.373-3.36-1.246-2.862-3.821l1.083-5.559c0.502-2.573,2.165-2.844,4.084-2.47l8.112,1.577
		c1.92,0.375,3.361,1.248,2.864,3.822L361.669,73.25L361.669,73.25z M344.756,69.177c-0.728,3.74,0.193,5.785,4.195,6.562
		l8.519,1.656c4.009,0.778,5.622-0.774,6.35-4.512l0.786-4.047c0.727-3.738-0.187-5.783-4.195-6.561l-8.52-1.655
		c-4.003-0.778-5.621,0.773-6.349,4.51L344.756,69.177L344.756,69.177z"/>
</g>
</svg>
