<?xml version="1.0" encoding="UTF-8" standalone="no"?>
<!-- Generator: Adobe Illustrator 20.0.0, SVG Export Plug-In . SVG Version: 6.00 Build 0)  -->

<svg
   xmlns:dc="http://purl.org/dc/elements/1.1/"
   xmlns:cc="http://creativecommons.org/ns#"
   xmlns:rdf="http://www.w3.org/1999/02/22-rdf-syntax-ns#"
   xmlns:svg="http://www.w3.org/2000/svg"
   xmlns="http://www.w3.org/2000/svg"
   xmlns:sodipodi="http://sodipodi.sourceforge.net/DTD/sodipodi-0.dtd"
   xmlns:inkscape="http://www.inkscape.org/namespaces/inkscape"
   version="1.1"
   id="Ebene_1"
   x="0px"
   y="0px"
   viewBox="0 0 342 90.9"
   style="enable-background:new 0 0 342 90.9;"
   xml:space="preserve"
   inkscape:version="0.91 r13725"
   sodipodi:docname="kiraka_logo.svg"><metadata
     id="metadata58"><rdf:RDF><cc:Work
         rdf:about=""><dc:format>image/svg+xml</dc:format><dc:type
           rdf:resource="http://purl.org/dc/dcmitype/StillImage" /><dc:title></dc:title></cc:Work></rdf:RDF></metadata><defs
     id="defs56" /><sodipodi:namedview
     pagecolor="#ffffff"
     bordercolor="#666666"
     borderopacity="1"
     objecttolerance="10"
     gridtolerance="10"
     guidetolerance="10"
     inkscape:pageopacity="0"
     inkscape:pageshadow="2"
     inkscape:window-width="1920"
     inkscape:window-height="1138"
     id="namedview54"
     showgrid="false"
     inkscape:zoom="1.0233918"
     inkscape:cx="171"
     inkscape:cy="45.450001"
     inkscape:window-x="-8"
     inkscape:window-y="-8"
     inkscape:window-maximized="1"
     inkscape:current-layer="Ebene_1" /><style
     type="text/css"
     id="style3">
	.st0{fill:#FFFF00;}
</style><path
     id="kiraka_7_"
     d="M43.9,34.6H56v28H43.9V34.6z M43.9,30.4H56v-9.2H43.9L43.9,30.4z M28.2,44.4c-1.2-1.3-2.7-2.2-4.1-3  l14.2-20.2H24.6l-13,17.9l0-17.9H0v41.3h11.7l0-14.7h1.2c0.4,0,3.7-0.1,5.7,3l7.5,11.7h14.1L33.5,52C31.2,48.2,29.4,45.6,28.2,44.4   M176.7,44.4c-1.2-1.3-2.7-2.2-4.1-3l14.2-20.2h-13.7l-13,17.9l0-17.9h-11.6v41.3h11.7l0-14.7h1.2c0.5,0,4.1,0,5.7,3l7.5,11.7h14.1  L182,52C179.7,48.2,177.8,45.6,176.7,44.4 M212.6,44.9h-1.4c-6,0-10.1,1.7-10.1,5.9c0,2.6,2.1,3.8,4.8,3.8c3.2,0,5.2-1.4,6.7-2.9  L212.6,44.9z M225.2,49.7c0,5.9,0.6,10.1,1.2,12.9H214c-0.3-1-0.7-3-0.8-4.2c-2.1,2.5-6.1,5.2-11.6,5.2c-7.3,0-12.5-4.2-12.5-11.7  c0-10.5,10.6-14.6,22-14.6h1.4v-1.9c0-3.3-1.5-4.7-6.4-4.7c-4.8,0-8.6,2.1-10.7,3.7l-5.6-7.6c3.2-2.7,9.2-6,17.9-6  c12.3,0,17.4,4.4,17.4,15.6V49.7 M81.7,39.4c3.6,0,5.3-1.9,5.3-4.8c0-2.9-1.7-4.5-5.9-4.5l-5.5,0l0,9.4H81.7 M90.6,45.2  c1.3,1.1,3.3,3,5.5,6.7l6.6,10.7H90l-7.5-11.7c-1.9-2.9-5.3-3-5.8-3h-1.2v14.7H63.9l0-41.3h18c10.9,0,17.2,4.3,17.2,12.5  C99.2,40.4,94.7,43.9,90.6,45.2 M127.9,44.9l-1.4,0c-6,0-10.1,1.7-10.1,5.9c0,2.6,2.1,3.8,4.8,3.8c3.2,0,5.2-1.4,6.7-2.9V44.9z   M140.6,49.7c0,5.9,0.6,10.2,1.2,12.9h-12.4c-0.4-1-0.7-3-0.8-4.3c-2.1,2.5-6.1,5.2-11.6,5.2c-7.3,0-12.5-4.2-12.5-11.7  c0-10.5,10.6-14.6,22-14.6l1.4,0v-1.9c0-3.2-1.5-4.7-6.4-4.7c-4.8,0-8.6,2.1-10.7,3.7l-5.5-7.6c3.2-2.7,9.2-6,17.9-6  c12.3,0,17.4,4.4,17.4,15.6L140.6,49.7z" /><polygon
     id="Slash_7_"
     points="250.4,0 296.4,0 271.7,90.9 225.7,90.9 " /><path
     id="Pfeil_Kreis_7_"
     class="st0"
     d="M280.7,41.9c0,10.1-8.2,18.4-18.4,18.4c-10.1,0-18.4-8.2-18.4-18.4  c0-10.1,8.2-18.4,18.4-18.4C272.5,23.6,280.7,31.8,280.7,41.9" /><polygon
     id="Pfeil_7_"
     points="257.2,52.6 257.2,31.2 272.3,41.9 " /><g
     id="Claim"><path
       d="M0,89.2c0.3-0.1,1-0.2,1.6-0.2V78.9c-0.6,0-1.3-0.1-1.6-0.2v-1.4h5.2c5.2,0,7.6,2.5,7.6,6.4c0,3.9-2.4,6.9-7.7,6.9H0V89.2z    M3.8,88.9h1.5c3.4,0,5.1-1.8,5.1-5.1c0-3.3-1.7-4.8-5.2-4.8H3.8V88.9z"
       id="path10" /><path
       d="M14.2,85.9c0-3.2,1.9-5.2,4.7-5.2c2.5,0,3.9,1.7,3.9,4.3c0,0.3,0,0.8-0.1,1.1h-6.3c0,2,1,3.2,2.9,3.2c1.1,0,2-0.5,2.5-0.8   l0.7,1.4c-0.6,0.3-1.7,1-3.5,1C15.9,90.9,14.2,88.9,14.2,85.9z M20.7,84.6c0-1.3-0.5-2.4-1.9-2.4c-1.3,0-2.1,1-2.3,2.4H20.7z"
       id="path12" /><path
       d="M24.6,89.2c0.3-0.1,1-0.2,1.5-0.2v-6.6c-0.6-0.1-1.2-0.1-1.5-0.1V81c0.6-0.1,2.1-0.2,3.7-0.2l-0.1,1.6v6.7   c0.5,0,1.2,0.1,1.5,0.2v1.4h-5.1V89.2z M25.8,78c0-0.7,0.6-1.4,1.4-1.4c0.8,0,1.4,0.6,1.4,1.4c0,0.7-0.6,1.4-1.4,1.4   C26.4,79.4,25.8,78.8,25.8,78z"
       id="path14" /><path
       d="M31.4,89.2c0.3-0.1,1-0.2,1.5-0.2v-6.6c-0.6-0.1-1.2-0.1-1.5-0.1V81c0.6-0.1,2.1-0.2,3.7-0.2L35,82.3h0   c0.7-1,1.7-1.6,3.1-1.6c2.1,0,2.9,1.4,2.9,3.1v5.3c0.5,0,1.2,0.1,1.5,0.2v1.4h-5v-1.4c0.3-0.1,0.9-0.2,1.4-0.2v-4.9   c0-1.1-0.4-1.7-1.5-1.7c-1,0-1.8,0.7-2.3,1.5v5.2c0.5,0,1.2,0.1,1.4,0.2v1.4h-5.1V89.2z"
       id="path16" /><path
       d="M48.8,89.2c0.3-0.1,1-0.2,1.6-0.2V78.9c-0.6,0-1.3-0.1-1.6-0.2v-1.4h5.3v1.4c-0.3,0.1-0.9,0.2-1.4,0.2v10.2   c0.5,0,1.2,0.1,1.4,0.2v1.4h-5.3V89.2z M56.1,89.2c0.2,0,0.7-0.1,1.2-0.2l-4.6-5.3l4.3-5c-0.4,0-0.9-0.1-1.1-0.2v-1.4h5v1.4   c-0.2,0.1-0.9,0.1-1.5,0.2l-4.3,4.7l4.9,5.5c0.5,0,1.1,0.1,1.3,0.2v1.4h-5.2V89.2z"
       id="path18" /><path
       d="M63.3,89.2c0.3-0.1,1-0.2,1.5-0.2v-6.6c-0.6-0.1-1.2-0.1-1.5-0.1V81c0.6-0.1,2.1-0.2,3.7-0.2L67,82.4v6.7   c0.5,0,1.2,0.1,1.5,0.2v1.4h-5.1V89.2z M64.5,78c0-0.7,0.6-1.4,1.4-1.4c0.8,0,1.4,0.6,1.4,1.4c0,0.7-0.6,1.4-1.4,1.4   C65.1,79.4,64.5,78.8,64.5,78z"
       id="path20" /><path
       d="M70.6,89.2c0.3-0.1,1-0.2,1.5-0.2v-6.6c-0.6-0.1-1.2-0.1-1.5-0.1V81c0.6-0.1,2.1-0.2,3.7-0.2l-0.1,1.5h0   c0.7-1,1.7-1.6,3.1-1.6c2.1,0,2.9,1.4,2.9,3.1v5.3c0.5,0,1.2,0.1,1.5,0.2v1.4h-5v-1.4c0.3-0.1,0.9-0.2,1.4-0.2v-4.9   c0-1.1-0.4-1.7-1.5-1.7c-1,0-1.8,0.7-2.3,1.5v5.2c0.5,0,1.2,0.1,1.4,0.2v1.4h-5.1V89.2z"
       id="path22" /><path
       d="M83.1,85.9c0-3.1,1.9-5.2,4.3-5.2c1.1,0,1.8,0.3,2.3,0.8h0v-3.7c-0.6-0.1-1.2-0.1-1.5-0.1v-1.4c0.6-0.1,2.1-0.2,3.7-0.2   l-0.1,1.6v10.6c0,0.3,0,0.6,0,0.8c0.6,0.1,1.1,0.1,1.4,0.1v1.4c-0.6,0.1-1.9,0.1-3.3,0.1c-0.1-0.2-0.2-0.9-0.2-1.2h0   c-0.7,0.8-1.6,1.4-2.8,1.4C84.6,90.9,83.1,89.1,83.1,85.9z M89.7,88.1v-5c-0.5-0.4-1.1-0.7-1.9-0.7c-1.6,0-2.4,1.4-2.4,3.4   c0,2,0.7,3.4,2.3,3.4C88.5,89.2,89.2,88.7,89.7,88.1z"
       id="path24" /><path
       d="M94.7,85.9c0-3.2,1.9-5.2,4.7-5.2c2.5,0,3.9,1.7,3.9,4.3c0,0.3,0,0.8-0.1,1.1H97c0,2,1,3.2,2.9,3.2c1.1,0,2-0.5,2.5-0.8   l0.7,1.4c-0.6,0.3-1.7,1-3.5,1C96.4,90.9,94.7,88.9,94.7,85.9z M101.2,84.6c0-1.3-0.5-2.4-1.9-2.4c-1.3,0-2.1,1-2.3,2.4H101.2z"
       id="path26" /><path
       d="M105.6,89.2c0.3-0.1,1-0.2,1.5-0.2v-6.6c-0.6-0.1-1.2-0.1-1.5-0.1V81c0.6-0.1,2.1-0.2,3.7-0.2l-0.1,1.7h0   c0.4-0.8,1.3-1.8,2.5-1.8c0.7,0,1,0.1,1.2,0.2l-0.5,1.9c-0.1-0.1-0.4-0.2-1-0.2c-1.2,0-2,1.2-2.2,1.6v4.8c0.5,0,1.4,0.1,1.7,0.2   v1.4h-5.3V89.2z"
       id="path28" /><path
       d="M115,89.2c0.3-0.1,1-0.2,1.5-0.2v-6.6c-0.6-0.1-1.2-0.1-1.5-0.1V81c0.6-0.1,2.1-0.2,3.7-0.2l-0.1,1.7h0   c0.4-0.8,1.3-1.8,2.5-1.8c0.7,0,1,0.1,1.2,0.2l-0.5,1.9c-0.1-0.1-0.4-0.2-1-0.2c-1.2,0-2,1.2-2.2,1.6v4.8c0.5,0,1.4,0.1,1.7,0.2   v1.4H115V89.2z"
       id="path30" /><path
       d="M123.5,88.2c0-2.5,2.6-3.3,5.2-3.3h0.4V84c0-1.2-0.5-1.7-1.7-1.7c-1,0-1.8,0.4-2.5,1l-0.9-1.3c0.9-0.8,2.1-1.4,3.7-1.4   c2.4,0,3.6,1,3.6,3.4v4.1c0,0.4,0,0.7,0,1c0.6,0.1,1.1,0.1,1.4,0.1v1.4c-0.6,0.1-1.9,0.1-3.3,0.1c-0.1-0.3-0.1-0.7-0.1-1.3h0   c-0.5,0.7-1.5,1.4-2.8,1.4C124.7,90.9,123.5,89.9,123.5,88.2z M129,88.2v-2h-0.4c-1.8,0-3.1,0.5-3.1,1.9c0,0.9,0.7,1.2,1.3,1.2   C127.9,89.3,128.6,88.8,129,88.2z"
       id="path32" /><path
       d="M134.3,85.9c0-3.1,1.9-5.2,4.3-5.2c1.1,0,1.8,0.3,2.3,0.8h0v-3.7c-0.6-0.1-1.2-0.1-1.5-0.1v-1.4c0.6-0.1,2.1-0.2,3.7-0.2   l-0.1,1.6v10.6c0,0.3,0,0.6,0,0.8c0.6,0.1,1.1,0.1,1.4,0.1v1.4c-0.6,0.1-1.9,0.1-3.3,0.1c-0.1-0.2-0.2-0.9-0.2-1.2h0   c-0.7,0.8-1.6,1.4-2.8,1.4C135.9,90.9,134.3,89.1,134.3,85.9z M141,88.1v-5c-0.5-0.4-1.1-0.7-1.9-0.7c-1.6,0-2.4,1.4-2.4,3.4   c0,2,0.7,3.4,2.3,3.4C139.8,89.2,140.5,88.7,141,88.1z"
       id="path34" /><path
       d="M146.9,89.2c0.3-0.1,1-0.2,1.5-0.2v-6.6c-0.6-0.1-1.2-0.1-1.5-0.1V81c0.6-0.1,2.1-0.2,3.7-0.2l-0.1,1.6v6.7   c0.5,0,1.2,0.1,1.5,0.2v1.4h-5.1V89.2z M148.1,78c0-0.7,0.6-1.4,1.4-1.4c0.8,0,1.4,0.6,1.4,1.4c0,0.7-0.6,1.4-1.4,1.4   C148.7,79.4,148.1,78.8,148.1,78z"
       id="path36" /><path
       d="M153.8,85.9c0-2.4,1.4-5.2,4.7-5.2c3.3,0,4.8,2.5,4.8,5c0,2.4-1.5,5.2-4.8,5.2C155.1,90.9,153.8,88.4,153.8,85.9z    M160.9,85.8c0-1.9-0.8-3.5-2.5-3.5c-1.7,0-2.4,1.5-2.4,3.4c0,1.9,0.7,3.5,2.4,3.5C160.2,89.3,160.9,87.7,160.9,85.8z"
       id="path38" /><path
       d="M164.5,89.2c0.3-0.1,0.9-0.2,1.5-0.2V77.8c-0.6-0.1-1.2-0.1-1.5-0.1v-1.4c0.6-0.1,2.1-0.2,3.7-0.2l-0.1,1.6v11.3   c0.5,0,0.9,0.1,1.2,0.2v1.4h-4.8V89.2z M170.5,89.2c0.2,0,0.5-0.1,0.9-0.1l-3.3-3.6l2.9-3c-0.4,0-0.9-0.1-1.1-0.1v-1.4h4.8v1.4   c-0.2,0.1-0.9,0.1-1.5,0.2l-2.8,2.8l3.5,3.8c0.6,0,1,0.1,1.3,0.2v1.4h-4.8V89.2z"
       id="path40" /><path
       d="M176.9,88.2c0-2.5,2.6-3.3,5.2-3.3h0.4V84c0-1.2-0.5-1.7-1.7-1.7c-1,0-1.8,0.4-2.5,1l-0.9-1.3c0.9-0.8,2.1-1.4,3.7-1.4   c2.4,0,3.6,1,3.6,3.4v4.1c0,0.4,0,0.7,0,1c0.6,0.1,1.1,0.1,1.4,0.1v1.4c-0.6,0.1-1.9,0.1-3.3,0.1c-0.1-0.3-0.1-0.7-0.1-1.3h0   c-0.5,0.7-1.5,1.4-2.8,1.4C178.1,90.9,176.9,89.9,176.9,88.2z M182.4,88.2v-2h-0.4c-1.8,0-3.1,0.5-3.1,1.9c0,0.9,0.7,1.2,1.3,1.2   C181.3,89.3,182,88.8,182.4,88.2z"
       id="path42" /><path
       d="M187.7,89.2c0.3-0.1,1-0.2,1.5-0.2v-6.6c-0.6-0.1-1.2-0.1-1.5-0.1V81c0.6-0.1,2.1-0.2,3.7-0.2l-0.1,1.5h0   c0.7-1,1.7-1.6,3.1-1.6c2.1,0,2.9,1.4,2.9,3.1v5.3c0.5,0,1.2,0.1,1.5,0.2v1.4h-5v-1.4c0.3-0.1,0.9-0.2,1.4-0.2v-4.9   c0-1.1-0.4-1.7-1.5-1.7c-1,0-1.8,0.7-2.3,1.5v5.2c0.5,0,1.2,0.1,1.4,0.2v1.4h-5.1V89.2z"
       id="path44" /><path
       d="M200,88.2c0-2.5,2.6-3.3,5.2-3.3h0.4V84c0-1.2-0.5-1.7-1.7-1.7c-1,0-1.8,0.4-2.5,1l-0.9-1.3c0.9-0.8,2.1-1.4,3.7-1.4   c2.4,0,3.6,1,3.6,3.4v4.1c0,0.4,0,0.7,0,1c0.6,0.1,1.1,0.1,1.4,0.1v1.4c-0.6,0.1-1.9,0.1-3.3,0.1c-0.1-0.3-0.1-0.7-0.1-1.3h0   c-0.5,0.7-1.5,1.4-2.8,1.4C201.2,90.9,200,89.9,200,88.2z M205.5,88.2v-2h-0.4c-1.8,0-3.1,0.5-3.1,1.9c0,0.9,0.7,1.2,1.3,1.2   C204.4,89.3,205.1,88.8,205.5,88.2z"
       id="path46" /><path
       d="M210.3,89.2c0.3-0.1,0.9-0.2,1.5-0.2V77.8c-0.6-0.1-1.2-0.1-1.5-0.1v-1.4c0.6-0.1,2.1-0.2,3.7-0.2l-0.1,1.6v11.3   c0.5,0,1.2,0.1,1.5,0.2v1.4h-5.1V89.2z"
       id="path48" /></g><g
     id="g50"><path
       d="M333.9,69.8h-2.5v-3.7h2.3c1.6,0,2.2,0.6,2.2,1.9C336,69.1,335.3,69.8,333.9,69.8 M317.9,75.4h-1.4v-9h1.3   c3,0,4.4,1.3,4.4,4.4C322.2,73.8,320.8,75.4,317.9,75.4 M337.4,72.2L337.4,72.2c1.5-0.6,3.2-1.9,3.2-4.6c0-3.3-2.4-5-6.6-5h-7.2   v5.7h0c-0.9-3.5-3.8-5.7-9.1-5.7h-10.1l-1.5,6.7c-0.3,1.4-0.6,3.2-0.6,3.2h0c0,0-0.3-2-0.7-3.3l-1.3-6.5h-5.5l-1.3,6.5   c-0.3,1.4-0.7,3.3-0.7,3.3h0c0,0-0.3-1.8-0.6-3.2l-1.5-6.7h-5l4.4,16.5h5l2.5-10.6h0.1l2.5,10.6h5l3.7-13.7h0v13.7h5.6   c5.4,0,8.4-2.5,9.3-6h0v6h4.6v-5.8h0.3c0.5,0,1.8,0,2.5,1.1l2.8,4.7h4.9l-2.6-4.3C338.6,73.4,337.9,72.6,337.4,72.2"
       id="path52" /></g></svg>