<?xml version="1.0" encoding="UTF-8" standalone="no"?>
<svg
   xmlns:dc="http://purl.org/dc/elements/1.1/"
   xmlns:cc="http://creativecommons.org/ns#"
   xmlns:rdf="http://www.w3.org/1999/02/22-rdf-syntax-ns#"
   xmlns:svg="http://www.w3.org/2000/svg"
   xmlns="http://www.w3.org/2000/svg"
   xmlns:sodipodi="http://sodipodi.sourceforge.net/DTD/sodipodi-0.dtd"
   xmlns:inkscape="http://www.inkscape.org/namespaces/inkscape"
   id="Ebene_3"
   viewBox="0 0 227.39962 67.299996"
   height="67.273499"
   width="227.31046"
   version="1.1"
   inkscape:version="0.91 r13725"
   sodipodi:docname="cosmo_logo_claim.svg">
  <metadata
     id="metadata69">
    <rdf:RDF>
      <cc:Work
         rdf:about="">
        <dc:format>image/svg+xml</dc:format>
        <dc:type
           rdf:resource="http://purl.org/dc/dcmitype/StillImage" />
        <dc:title />
      </cc:Work>
    </rdf:RDF>
  </metadata>
  <defs
     id="defs67" />
  <sodipodi:namedview
     pagecolor="#ffffff"
     bordercolor="#666666"
     borderopacity="1"
     objecttolerance="10"
     gridtolerance="10"
     guidetolerance="10"
     inkscape:pageopacity="0"
     inkscape:pageshadow="2"
     inkscape:window-width="1920"
     inkscape:window-height="1138"
     id="namedview65"
     showgrid="false"
     fit-margin-top="0"
     fit-margin-left="0"
     fit-margin-right="0"
     fit-margin-bottom="0"
     inkscape:zoom="2.8284271"
     inkscape:cx="148.41146"
     inkscape:cy="-30.631786"
     inkscape:window-x="-8"
     inkscape:window-y="-8"
     inkscape:window-maximized="1"
     inkscape:current-layer="Ebene_3" />
  <style
     id="style3">.st0{fill:#00a591}.st1{clip-path:url(#SVGID_2_)}.st2{clip-path:url(#SVGID_4_);fill:#181716}.st3{clip-path:url(#SVGID_6_)}.st4{clip-path:url(#SVGID_8_)}.st5{clip-path:url(#SVGID_10_)}</style>
  <g
     id="g3653"
     transform="matrix(0.21989985,0,0,0.21989985,88.40141,1.5210519)">
    <polygon
       transform="matrix(1.0003938,0,0,1.0003938,-442.72446,-86.510552)"
       class="st0"
       points="980.4,285.4 922.4,243.3 877.6,275.8 852.7,367.3 997,367.3 1074.4,82.2 930.2,82.2 923,108.7 944.5,175.1 1016.3,175.1 958.2,217.2 "
       id="polygon7"
       style="fill:#00a591" />
    <path
       inkscape:connector-curvature="0"
       id="path12"
       d="m -276.459,111.96758 c 0,-46.418272 33.71328,-88.334772 89.1351,-88.334772 22.6089,0 36.41433,5.50216 43.81725,11.40449 l -18.80741,30.51201 c -6.6026,-4.60181 -14.90587,-7.40291 -27.21071,-7.40291 -26.11028,0 -43.11698,22.6089 -43.11698,51.720362 0,19.3076 8.50335,30.71209 25.41001,30.71209 14.00551,0 23.70933,-6.6026 30.91217,-12.30485 l 16.0063,30.01182 c -7.40291,6.80268 -24.70973,16.60654 -51.02009,16.60654 -46.01811,0 -65.12564,-28.71131 -65.12564,-62.92478 z" />
    <path
       inkscape:connector-curvature="0"
       id="path14"
       d="m -156.11162,110.46699 c 0,-45.818032 35.01379,-86.734142 88.734942,-86.734142 43.81725,0 66.42615031,27.81095 66.42615031,62.92477 0,46.918472 -34.21347031,88.334782 -87.83458031,88.334782 -43.917292,-0.10004 -67.326512,-28.41119 -67.326512,-64.52541 z M -44.667738,87.457938 c 0,-17.70698 -6.80268,-30.41198 -25.81016,-30.41198 -28.01103,0 -42.016542,26.51044 -42.016542,52.820802 0,18.40724 7.70303,31.81252 26.710512,31.81252 27.81095,-0.10004 41.11619,-27.51083 41.11619,-54.221342 z" />
    <path
       inkscape:connector-curvature="0"
       id="path16"
       d="M -14.455848,159.28621 7.0526223,131.27519 c 4.4017297,3.70145 15.5060997,10.30405 30.2118897,10.30405 12.90508,0 20.60812,-2.40094 20.60812,-9.4037 0,-6.80268 -6.10241,-10.10398 -24.10949,-20.80819 C 18.657192,102.3638 5.2519123,90.559158 5.2519123,67.550098 c 0,-29.11146 25.6100797,-43.81725 56.9224097,-43.81725 25.81016,0 38.315078,7.90311 45.317838,13.40528 l -19.307598,28.2111 c -5.50217,-3.90153 -15.30603,-9.4037 -26.51044,-9.4037 -9.9039,0 -16.60653,2.8011 -16.60653,9.20362 0,7.20284 6.40252,11.60457 20.60811,19.3076 15.30602,8.30327 32.81292,19.707762 32.81292,44.017332 0,30.41198 -24.30957,46.41828 -62.42458,46.41828 -26.4103997,0 -42.8168597,-9.00355 -50.51989,-15.60615 z" />
    <path
       inkscape:connector-curvature="0"
       id="path18"
       d="m 138.10421,26.333868 40.1158,0 8.80346,82.832612 c 0.70028,5.30209 0.90036,12.90508 0.90036,17.30682 l 0,4.60181 0.40015,0 c 1.50059,-4.60181 4.40174,-12.30485 9.20363,-21.90863 l 40.51595,-82.832612 41.4163,0 -6.1024,145.957462 -41.01615,0 4.40174,-61.32414 c 0.70027,-10.70421 2.00078,-22.308782 2.00078,-22.608902 l -0.40015,0 c 0,0.20008 -4.40174,11.804652 -9.00355,21.908632 l -28.7113,62.02441 -39.41552,0 -5.70224,-61.82434 c -0.90036,-9.20362 -1.30052,-21.908622 -1.30052,-22.108702 l -0.40015,0 c 0,0.20008 -2.80111,12.905082 -5.70225,22.608902 l -18.20717,61.32414 -37.714838,0 45.918068,-145.957462 z" />
    <path
       inkscape:connector-curvature="0"
       id="path20"
       d="m 289.26372,110.46699 c 0,-45.818032 35.01379,-86.734142 88.73494,-86.734142 43.81725,0 66.42615,27.81095 66.42615,62.92477 0,46.918472 -34.21347,88.334782 -87.83458,88.334782 -43.91729,-0.10004 -67.32651,-28.41119 -67.32651,-64.52541 z M 400.7076,87.457938 c 0,-17.70698 -6.80268,-30.41198 -25.81016,-30.41198 -28.01103,0 -42.01655,26.51044 -42.01655,52.820802 0,18.40724 7.70304,31.81252 26.71052,31.81252 27.81095,-0.10004 41.11619,-27.51083 41.11619,-54.221342 z" />
    <path
       clip-path="url(#SVGID_2_)"
       style="fill:#1d1d1b"
       inkscape:connector-curvature="0"
       id="path24"
       d="m 289.06364,264.52765 c 0,-9.80386 -1.8007,-12.10477 -1.8007,-12.10477 0,0 -8.30327,-4.50177 -25.10989,-4.50177 -3.60142,0 -7.90311,0.30012 -12.20481,0.90035 l 0,-15.5061 -7.30287,0 0,46.21819 c 0,0 11.70461,1.40055 21.70855,1.40055 18.3072,0 23.00905,-3.80149 23.00905,-3.80149 0,-0.10004 1.70067,-2.50099 1.70067,-12.60496 l 0,0 0,0 z m -7.40291,0.30011 c 0,2.70107 -0.20008,5.30209 -0.40016,7.00276 -2.3009,0.60024 -7.60299,1.70067 -16.80661,1.70067 -4.10162,0 -8.90351,-0.30012 -14.50572,-0.80031 l 0,-16.5065 c 15.60615,-2.30091 26.9106,0.30012 31.21229,1.60063 0.20008,1.60063 0.5002,4.30169 0.5002,7.00275 l 0,0 0,0 z"
       class="st1" />
    <path
       clip-path="url(#SVGID_2_)"
       style="fill:#1d1d1b"
       inkscape:connector-curvature="0"
       id="path26"
       d="m 339.88365,264.52765 c 0,-9.80386 -1.80071,-12.10477 -1.80071,-12.10477 0,0 -8.30327,-4.50177 -25.10988,-4.50177 -3.60142,0 -7.90311,0.30012 -12.20481,0.90035 l 0,-15.5061 -7.30287,0 0,46.21819 c 0,0 11.7046,1.40055 21.70854,1.40055 18.30721,0 23.00906,-3.80149 23.00906,-3.80149 0,0 1.70067,-2.50099 1.70067,-12.60496 l 0,0 0,0 z m -7.40291,0.30011 c 0,2.70107 -0.20008,5.30209 -0.40016,7.00276 -2.30091,0.60024 -7.60299,1.70067 -16.80662,1.70067 -4.10161,0 -8.9035,-0.30012 -14.50571,-0.80031 l 0,-16.5065 c 15.60615,-2.30091 26.9106,0.30012 31.21229,1.60063 0.20008,1.60063 0.5002,4.30169 0.5002,7.00275 l 0,0 0,0 z"
       class="st1" />
    <path
       clip-path="url(#SVGID_2_)"
       style="fill:#1d1d1b"
       inkscape:connector-curvature="0"
       id="path28"
       d="m 237.84348,248.02115 c -28.21111,0.10004 -39.41552,6.80268 -39.41552,6.80268 l 0,25.61008 7.50296,0 0,-20.80819 c 3.60141,-1.20048 13.50531,-4.00158 31.91256,-4.3017 l 0,-7.30287 0,0 0,0 z"
       class="st1" />
    <path
       clip-path="url(#SVGID_4_)"
       style="clip-rule:evenodd;fill:#1d1d1b;fill-rule:evenodd"
       inkscape:connector-curvature="0"
       id="path30"
       d="m 353.38897,228.81359 c 6.00236,0 10.90429,4.90193 10.90429,10.90429 0,6.00236 -4.90193,10.90429 -10.90429,10.90429 -6.00236,0 -10.90429,-4.90193 -10.90429,-10.90429 -0.10004,-6.00236 4.80189,-10.90429 10.90429,-10.90429 l 0,0 0,0 z m 4.40173,15.40606 0,-11.00433 -11.00433,4.00157 0,2.70107 3.60142,-1.30051 0,8.20322 7.40291,-2.60102 0,0 0,0 z m -4.40173,-13.80543 c -5.20205,0 -9.30366,4.20165 -9.30366,9.30366 0,5.20205 4.20165,9.30366 9.30366,9.30366 5.20205,0 9.30366,-4.20165 9.30366,-9.30366 0,-5.10201 -4.20165,-9.30366 -9.30366,-9.30366 l 0,0 0,0 z"
       class="st2" />
    <path
       clip-path="url(#SVGID_2_)"
       style="fill:#1d1d1b"
       inkscape:connector-curvature="0"
       id="path34"
       d="m -272.85758,253.42327 -7.10279,0 0,-10.60417 6.70263,0 c 4.50178,0 6.30249,1.80071 6.30249,5.30209 -0.10004,3.3013 -2.00079,5.30208 -5.90233,5.30208 l 0,0 z m -45.718,16.00631 -4.00158,0 0,-25.81017 3.60142,0 c 8.60339,0 12.50492,3.8015 12.50492,12.60497 0.10004,8.60338 -3.80149,13.2052 -12.10476,13.2052 l 0,0 z m 55.6219,-9.00355 0,-0.10004 c 4.40173,-1.60063 9.20362,-5.30209 9.20362,-13.00512 0,-9.50374 -6.80267,-14.40567 -18.8074,-14.40567 l -20.40803,0 0,16.40646 -0.10004,0 c -2.50099,-9.9039 -10.80426,-16.40646 -26.01025,-16.40646 l -29.01142,0 -4.40173,19.3076 c -0.90036,4.00158 -1.70067,9.00355 -1.70067,9.00355 l -0.10004,0 c 0,0 -1.0004,-5.60221 -1.90075,-9.60378 l -3.8015,-18.70737 -15.80622,0 -3.8015,18.70737 c -0.90035,4.00157 -1.90074,9.60378 -1.90074,9.60378 l -0.10004,0 c 0,0 -0.80032,-5.00197 -1.70067,-9.00355 l -4.40174,-19.3076 -14.30563,0 12.60496,47.21859 14.40568,0 7.20283,-30.21189 0.10004,0 7.20284,30.21189 14.20559,0 10.50413,-39.21544 0.10004,0 0,39.21544 16.00631,0 c 15.40606,0 23.90941,-7.1028 26.51044,-17.20677 l 0.10004,0 0,17.20677 13.00512,0 0,-16.70658 1.00039,0 c 1.50059,0 5.20205,-0.10004 7.30288,3.20126 l 8.00315,13.50532 14.00551,0 -7.30288,-12.30484 c -2.40094,-4.10162 -4.40173,-6.30249 -5.90232,-7.40292 l 0,0 z m 27.11067,-9.60378 c -5.70224,0 -10.30405,-4.60181 -10.30405,-10.4041 0,-5.70224 4.60181,-10.40409 10.30405,-10.40409 5.70225,0 10.30406,4.60181 10.30406,10.40409 0,5.70225 -4.60181,10.4041 -10.30406,10.4041 l 0,0 z m 0,-22.50886 c -6.70263,0 -12.10476,5.40213 -12.10476,12.10476 0,6.70264 5.40213,12.10477 12.10476,12.10477 6.70264,0 12.10477,-5.40213 12.10477,-12.10477 0,-6.70263 -5.40213,-12.10476 -12.10477,-12.10476 l 0,0 z m -7.30287,12.30484 4.00157,-1.50059 0,9.10359 8.10319,-2.90115 0,-12.2048 -12.2048,4.40173 0,3.10122 0.10004,0 z"
       class="st1" />
    <path
       clip-path="url(#SVGID_2_)"
       style="fill:#1d1d1b"
       inkscape:connector-curvature="0"
       id="path38"
       d="m -158.6126,235.51622 c -10.4041,0 -18.90744,8.50335 -18.90744,18.90745 0,9.30366 6.70263,17.00669 15.5061,18.60732 l 0,-18.60732 6.90272,0 0,18.60732 c 8.80346,-1.60063 15.5061,-9.30366 15.5061,-18.60732 -0.10004,-10.4041 -8.50335,-18.90745 -19.00748,-18.90745 m 0,-6.90271 c 14.30563,0 25.81016,11.60457 25.81016,25.81016 0,14.30563 -11.60457,25.81016 -25.81016,25.81016 -14.30563,0 -25.81016,-11.60457 -25.81016,-25.81016 0,-14.20559 11.60457,-25.81016 25.81016,-25.81016"
       class="st1" />
    <path
       clip-path="url(#SVGID_2_)"
       style="fill:#1d1d1b"
       inkscape:connector-curvature="0"
       id="path40"
       d="m -119.79732,255.42406 c 0,-2.70106 -0.20008,-5.30209 -0.20008,-7.90311 l 2.70106,0 c 0.10004,1.50059 0.20008,3.00118 0.20008,4.10162 l 0.10004,0 c 1.90075,-3.70146 4.00158,-4.40174 6.80268,-4.40174 l 0,3.10122 c -4.60181,0 -6.70264,2.00079 -6.70264,6.70264 l 0,16.10634 -2.90114,0 0,-17.70697 z m 25.810162,4.80189 c -6.00236,0 -11.104372,0 -11.104372,5.80229 0,2.20086 1.60063,4.70185 4.70185,4.70185 1.400552,0 6.402522,-0.60024 6.402522,-7.50296 l 0,-3.00118 z m 2.70106,7.1028 c 0,1.90075 0.20008,3.8015 0.30012,5.70224 l -2.60102,0 -0.20008,-3.70145 -0.10004,0 c -1.80071,2.8011 -3.90154,4.00157 -7.202832,4.00157 -4.00158,0 -7.1028,-3.3013 -7.1028,-7.40291 0,-8.20323 8.703432,-8.30327 12.404882,-8.30327 l 1.90075,0 c 0,-3.20126 0,-7.80307 -5.30209,-7.80307 -3.401342,0 -6.102402,2.40094 -6.402522,2.70106 l -0.50019,-3.10122 c 2.40094,-1.30051 4.20165,-2.30091 7.002752,-2.30091 7.90311,0 7.90311,6.6026 7.90311,8.50335 l 0,11.70461 z m 9.00355,-7.00276 c 0,2.10083 0,10.4041 5.80228,10.4041 5.00197,0 6.30248,-4.90193 6.30248,-10.10398 0,-3.40134 0,-10.80425 -6.30248,-10.80425 -4.30169,0 -5.80228,4.50177 -5.80228,10.50413 m 14.90587,4.3017 c 0,4.00157 0.10004,6.30248 0.20008,8.50334 l -2.70107,0 0,-3.50138 -0.10004,0 c -1.90074,2.40095 -3.50137,3.90154 -6.70264,3.90154 -8.30326,0 -8.60338,-10.50413 -8.60338,-14.10555 0,-4.90193 2.10082,-12.20481 8.50335,-12.20481 3.3013,0 5.20204,1.30051 6.50256,3.70146 l 0.10003,0 0,-15.40607 2.90115,0 0,29.11147 z m 7.10279,-27.31076 3.50138,0 0,4.50178 -3.50138,0 0,-4.50178 z m 0.30012,10.20402 2.90114,0 0,25.61008 -2.90114,0 0,-25.61008 z m 18.70737,25.9102 c -7.50296,0 -9.60378,-6.70264 -9.60378,-13.2052 0,-6.40252 2.10082,-13.2052 9.60378,-13.2052 7.50295,0 9.60378,6.70264 9.60378,13.2052 0,6.50256 -2.10083,13.2052 -9.60378,13.2052 m 0,-2.70106 c 6.50256,0 6.50256,-8.40331 6.50256,-10.4041 0,-2.10083 0,-10.40409 -6.50256,-10.40409 -6.50256,0 -6.50256,8.4033 -6.50256,10.40409 0,2.00079 0,10.4041 6.50256,10.4041 m 21.80858,-10.60418 c 0,4.90193 1.30051,8.80347 4.90193,8.80347 3.60142,0 4.6018103,-3.00118 4.6018103,-9.00355 0,-5.20204 -1.2004703,-8.50334 -4.7018503,-8.50334 -3.40134,0 -4.80189,3.60141 -4.80189,8.70342 m 0,-24.70973 0,15.50611 0.10004,0 c 0.90036,-2.00079 3.00118,-4.10162 6.70264,-4.10162 5.6022103,0 8.9035103,4.90193 8.9035103,13.40528 0,7.20284 -2.70107,13.30524 -9.1035903,13.30524 -4.00157,0 -5.90232,-2.20087 -6.90272,-4.40173 l -0.20007,0 c 0,1.80071 -0.10004,3.3013 -0.20008,4.00157 l -5.80229,0 c 0.20008,-1.00039 0.20008,-2.60102 0.20008,-4.40173 l 0,-33.31312 6.30248,0 z m 21.3083903,37.71485 6.20244,0 0,-14.20559 c 0,-4.80189 2.8011097,-6.40252 5.4021297,-6.40252 0.70028,0 1.20047,0.10004 1.80071,0.20008 l 0,-5.80229 c -0.30012,-0.10004 -0.70028,-0.20007 -1.10043,-0.20007 -3.90154,0 -5.8022897,3.10122 -6.6025997,5.102 l -0.10004,0 c 0,-1.60063 -0.20008,-3.20126 -0.20008,-4.70185 l -5.60221,0 c 0.20008,1.20048 0.20008,2.70107 0.20008,4.3017 l 0,21.70854 z M 32.662702,257.92505 c 0,-4.60182 -1.50059,-6.90272 -4.30169,-6.90272 -3.3013,0 -4.60181,3.50138 -4.60181,6.90272 l 8.9035,0 z m 4.70185,13.90547 c -1.30051,0.60024 -4.00157,1.70067 -7.70303,1.70067 -8.30327,0 -12.00473,-6.00236 -12.00473,-13.00512 0,-7.70303 4.10162,-13.7054 10.70422,-13.7054 5.6022,0 10.30405,3.3013 10.30405,13.80544 l 0,1.20047 -15.0059,0 c 0,4.40174 1.80071,7.1028 6.6026,7.1028 3.80149,0 5.6022,-1.20047 6.80267,-2.00079 l 0.30012,4.90193 z m 7.00276,1.30051 6.20244,0 0,-15.70618 c 0,-2.90114 1.50059,-5.50217 4.20166,-5.50217 2.3009,0 3.3013,1.60063 3.3013,4.80189 l 0,16.30642 6.20244,0 0,-15.70618 c 0,-2.90114 1.50059,-5.50217 4.20165,-5.50217 2.30091,0 3.3013,1.60063 3.3013,4.80189 l 0,16.30642 6.20244,0 0,-16.0063 c 0,-6.30248 -1.80071,-10.30405 -7.40291,-10.30405 -3.8015,0 -5.70225,2.3009 -6.90272,4.10161 -0.80031,-1.40055 -2.20087,-4.10161 -6.50256,-4.10161 -3.60142,0 -5.6022,2.50098 -6.50256,4.50177 l -0.10004,0 c 0,-1.40055 -0.20008,-2.70107 -0.20008,-4.10162 l -6.20244,0 c 0.10004,1.0004 0.20008,2.40095 0.20008,4.20166 l 0,21.90862 z m 54.02127,-15.20598 c 0,-4.60182 -1.50059,-6.90272 -4.3017,-6.90272 -3.3013,0 -4.60181,3.50138 -4.60181,6.90272 l 8.90351,0 z m 4.701848,13.90547 c -1.30051,0.60024 -4.001578,1.70067 -7.703028,1.70067 -8.30327,0 -12.00473,-6.00236 -12.00473,-13.00512 0,-7.70303 4.10161,-13.7054 10.60417,-13.7054 5.60221,0 10.304058,3.3013 10.304058,13.80544 l 0,1.20047 -15.005908,0 c 0,4.40174 1.80071,7.1028 6.6026,7.1028 3.8015,0 5.602208,-1.20047 6.802678,-2.00079 l 0.40016,4.90193 z m 7.10279,1.30051 6.20245,0 0,-15.10594 c 0,-3.3013 1.20047,-6.10241 4.40173,-6.10241 2.60102,0 3.60142,1.70067 3.60142,5.60221 l 0,15.5061 6.20244,0 0,-16.70657 c 0,-5.20205 -1.80071,-9.60378 -7.60299,-9.60378 -4.20166,0 -6.00237,2.8011 -6.90272,4.40173 l 0.10004,0 -0.10004,0 c 0,-1.30051 -0.20008,-2.70107 -0.20008,-4.00158 l -5.80228,0 c 0.20007,1.20048 0.20007,2.70107 0.20007,4.3017 l 0,21.70854 z m 41.11619,-26.11028 -7.80307,2.80111 0,-8.70343 -3.90154,1.40055 0,-2.90114 11.70461,-4.20166 0,11.60457 0,0 z M 146.60756,232.415 c 5.50217,0 9.9039,4.40174 9.9039,9.9039 0,5.50217 -4.40173,9.9039 -9.9039,9.9039 -5.50217,0 -9.9039,-4.40173 -9.9039,-9.9039 0,-5.50216 4.40173,-9.9039 9.9039,-9.9039 l 0,0 z m 0,-1.70067 c -6.40252,0 -11.60457,5.20205 -11.60457,11.60457 0,6.40252 5.20205,11.60457 11.60457,11.60457 6.40252,0 11.60457,-5.20205 11.60457,-11.60457 0,-6.40252 -5.20205,-11.60457 -11.60457,-11.60457 l 0,0 z"
       class="st1" />
  </g>
</svg>
