<svg xmlns="http://www.w3.org/2000/svg" xmlns:xlink="http://www.w3.org/1999/xlink" width="118" height="44" viewBox="0 0 118 44">
    <defs>
        <path id="a" d="M58.934 43.714H0V.09h117.868v43.624z"/>
    </defs>
    <g fill="none" fill-rule="evenodd">
        <g transform="translate(0 .125)">
            <mask id="b" fill="#fff">
                <use xlink:href="#a"/>
            </mask>
            <path fill="#FFF" d="M8.93 10.929l4.377 21.984h9.055l2.439-8.424 2.53 8.424h8.916l1.794-8.826c1.56 9.323 10.967 9.68 13.686 9.68 2.72 0 7.133-.67 10.967-2.944v2.09H78.34c4.458 0 5.795-1.42 6.776-3.473v3.473h9.406v-7.755h4.459v7.755h9.183V10.956h-9.183v7.868h-4.414v-7.868h-9.45v4.077c-.893-2.632-2.63-4.077-7.134-4.077H62.738v3.23c-1.293-1.518-4.502-3.926-11.412-3.926-6.91 0-9.362 1.695-11.903 5.263l.834-4.567h-7.4l-1.993 8.002-1.872-7.985h-8.025l-2.05 8.119-1.828-8.163H8.93zm9.717-9.916h8.173l.864 4.028 4.19-4.104h7.49l.98 4.148L44.49.937h7.757L51.4 4.416C54.654 1.696 57.24.09 62.678.09c5.44 0 7.936 1.65 10.076 3.88L75.829.982H88c3.522 0 4.591 2.498 4.591 4.37l4.503-4.37h8.381v4.193l4.19-4.162h8.203v22.54l-19.86 19.526h-9.241l-.009-4.227-4.369 4.227h-9.183v-3.87c-2.586 3.524-4.904 3.87-7.936 3.87H53.228v-2.665c-1.204.936-5.885 3.3-12.215 3.3s-9.807-1.963-11.501-4.594l-4.224 3.959h-7.616l-1.044-3.959-4.101 4.014H4.68L0 19.404 18.647 1.013z" mask="url(#b)"/>
        </g>
        <path fill="#FFF" d="M54.58 17.834h8.159v2.408H51.638v4.327h2.809v2.409c0 1.248-.714 2.097-2.72 2.097-2.006 0-2.72-1.517-2.72-2.231s.046-8.208.046-9.1c0-.892.668-2.319 2.763-2.319 2.096 0 2.764 1.115 2.764 2.409M71.387 15.87v3.659s1.828.044 2.942.044 2.006-.669 2.006-1.829-.758-1.873-2.006-1.873h-2.942zM71.387 24.658v3.703s1.961.044 3.075.044c1.115 0 2.007-.669 2.007-1.828 0-1.16-.758-1.919-2.007-1.919h-3.075zM85.117 19.395v5.888c-.757-2.364-2.452-2.766-3.611-3.167 1.114-.179 2.942-1.16 3.611-2.721"/>
    </g>
</svg>
