<?xml version="1.0" encoding="UTF-8" standalone="no"?>
<!-- Generator: Adobe Illustrator 23.0.1, SVG Export Plug-In . SVG Version: 6.00 Build 0) -->

<svg
   xmlns:dc="http://purl.org/dc/elements/1.1/"
   xmlns:cc="http://creativecommons.org/ns#"
   xmlns:rdf="http://www.w3.org/1999/02/22-rdf-syntax-ns#"
   xmlns:svg="http://www.w3.org/2000/svg"
   xmlns="http://www.w3.org/2000/svg"
   xmlns:sodipodi="http://sodipodi.sourceforge.net/DTD/sodipodi-0.dtd"
   xmlns:inkscape="http://www.inkscape.org/namespaces/inkscape"
   id="Layer_1"
   x="0px"
   y="0px"
   viewBox="0 0 405 250"
   style="enable-background:new 0 0 405 250;"
   xml:space="preserve"
   version="1.1"
   sodipodi:docname="Mix 102.3.svg"
   inkscape:version="0.92.4 (5da689c313, 2019-01-14)"><metadata
   id="metadata33"><rdf:RDF><cc:Work
       rdf:about=""><dc:format>image/svg+xml</dc:format><dc:type
         rdf:resource="http://purl.org/dc/dcmitype/StillImage" /></cc:Work></rdf:RDF></metadata><defs
   id="defs31" /><sodipodi:namedview
   pagecolor="#ffffff"
   bordercolor="#666666"
   borderopacity="1"
   objecttolerance="10"
   gridtolerance="10"
   guidetolerance="10"
   inkscape:pageopacity="0"
   inkscape:pageshadow="2"
   inkscape:window-width="640"
   inkscape:window-height="480"
   id="namedview29"
   showgrid="false"
   inkscape:zoom="0.86419753"
   inkscape:cx="202.5"
   inkscape:cy="125"
   inkscape:window-x="0"
   inkscape:window-y="0"
   inkscape:window-maximized="0"
   inkscape:current-layer="Layer_1" /> <style
   type="text/css"
   id="style2"> .st0{fill:#E40084;} .st1{fill:#010101;} </style> <g
   id="g14"> <polygon
   class="st0"
   points="226.9,20.2 226.9,107.9 274,64.1 "
   id="polygon4" /> <g
   id="g12"> <rect
   x="178.3"
   y="0.9"
   class="st1"
   width="29.7"
   height="126.2"
   id="rect6"
   style="fill:#ffffff" /> <polygon
   class="st1"
   points="404,0.9 362.7,0.9 362.2,1.4 319,43.9 275.7,1.4 275.2,0.9 234,0.9 298.3,64.1 234,127.2 275.4,127.2 319,84.4 362.5,127.2 404,127.2 339.6,64.1 "
   id="polygon8"
   style="fill:#ffffff" /> <path
   class="st1"
   d="M155.9,15.7c0-9.5-7.1-15.3-18.1-15.3c-11.9,0-16.3,7.4-19.1,12c0,0-40.1,56.6-40.1,56.6S38.2,12.5,38.2,12.5 c-2.8-4.6-7.2-12-19.1-12C8.1,0.4,1,6.3,1,15.7l0,111.9l26.3,0l0-83.1L66.5,98c2.6,3.3,6.1,6,11.8,6.1c0,0,0,0,0.1,0 c0.1,0,0.1,0,0.2,0c0.1,0,0.1,0,0.2,0c0,0,0,0,0.1,0c5.6-0.1,9.2-2.8,11.8-6.1l39.1-53.5l0,83.1l26.3,0L155.9,15.7z"
   id="path10"
   style="fill:#ffffff" /> </g> </g> <g
   id="g26"> <path
   class="st0"
   d="M41.6,175.3v73.2H18.4v-73.2c0-6.3-3.2-9.4-9.7-9.4H1v-22.5h7.7C30.6,143.4,41.6,154,41.6,175.3z"
   id="path16" /> <path
   class="st0"
   d="M58.9,188.5c0-30,15.4-45,46.3-45c30.9,0,46.3,15,46.3,45v15c0,30-15.4,45-46.3,45c-30.9,0-46.3-15-46.3-45 V188.5z M105.3,165.9c-15.4,0-23.2,7.5-23.2,22.5v15c0,15,7.7,22.5,23.2,22.5s23.2-7.5,23.2-22.5v-15 C128.4,173.4,120.7,165.9,105.3,165.9z"
   id="path18" /> <path
   class="st0"
   d="M227.3,165.9h-59.2v-22.5h59.2c21.9,0,32.8,10.6,32.8,31.9c0,21.3-10.9,31.9-32.8,31.9h-27 c-6.4,0-9.7,3.1-9.7,9.4v9.4h65.6v22.5h-88.8v-31.9c0-21.3,10.9-31.9,32.8-31.9h27c6.4,0,9.7-3.1,9.7-9.4 C236.9,169.1,233.7,165.9,227.3,165.9z"
   id="path20" /> <path
   class="st0"
   d="M296.3,248.4h-23.6v-22.9h23.6V248.4z"
   id="path22" /> <path
   class="st0"
   d="M371.1,248.5h-59.8V226h59.8c6.4,0,9.7-3.1,9.7-9.4c0-6.3-3.2-9.4-9.7-9.4h-59.8v-22.5h59.8 c6.4,0,9.7-3.1,9.7-9.4c0-6.3-3.2-9.4-9.7-9.4h-59.8v-22.5h59.8c21.9,0,32.8,10.6,32.8,31.9c0,8.7-1.8,15.5-5.4,20.6 c3.6,5.1,5.4,12,5.4,20.6C404,237.9,393,248.5,371.1,248.5z"
   id="path24" /> </g> </svg>