<?xml version="1.0" encoding="UTF-8"?> <!-- Generator: Adobe Illustrator 23.0.1, SVG Export Plug-In . SVG Version: 6.00 Build 0) --> <svg xmlns="http://www.w3.org/2000/svg" xmlns:xlink="http://www.w3.org/1999/xlink" id="Layer_1" x="0px" y="0px" viewBox="0 0 600 260" style="enable-background:new 0 0 600 260;" xml:space="preserve"> <style type="text/css"> .st0{fill:#FFFFFF;} .st1{fill:#F7BE00;} .st2{fill:none;stroke:#27AAE1;stroke-width:11.3777;stroke-miterlimit:10;} </style> <g> <path class="st0" d="M83.2,117.5c-0.3,2.6-1.4,5-3.4,7.2c-2,2.2-4.7,3.3-8.1,3.3l8.3,38H55.9l-7.3-38h-3l-3.9,38H18.3L30.6,46.7 h44.1c5.5,0,9.3,1.4,11.5,4.2c2.2,2.8,3.1,6.6,2.6,11.3L83.2,117.5z M51.4,70.9l-3.5,34.6h11.4c1.5,0,2.3-0.8,2.5-2.5l3-29.6 c0.2-1.6-0.5-2.5-2-2.5H51.4z"></path> <path class="st0" d="M150.2,149.1c-0.2,2.3-0.7,4.5-1.5,6.5c-0.7,2-1.8,3.8-3.3,5.3c-1.4,1.5-3.3,2.8-5.5,3.7 c-2.2,0.9-5,1.4-8.2,1.4h-27c-3.2,0-5.8-0.5-7.9-1.4c-2-0.9-3.6-2.2-4.8-3.7c-1.1-1.5-1.9-3.3-2.2-5.3c-0.3-2-0.4-4.2-0.1-6.5 l8.9-86.9c0.5-4.7,2.1-8.5,4.9-11.3c2.8-2.8,6.9-4.2,12.4-4.2H145c5.5,0,9.3,1.4,11.5,4.2c2.2,2.8,3.1,6.6,2.6,11.3L150.2,149.1z M123.4,70.9c-1.4,0-2.2,0.8-2.3,2.3l-6.8,66.2c-0.1,0.9,0,1.5,0.2,1.9c0.2,0.4,0.8,0.6,1.8,0.6h8.8c1,0,1.6-0.2,1.9-0.6 c0.3-0.4,0.5-1,0.6-1.9l6.8-66.2c0.2-1.5-0.5-2.3-1.8-2.3H123.4z"></path> <path class="st0" d="M176.3,166.1c-6.7,0-11.3-1.4-13.7-4.3c-2.4-2.9-3.2-7.6-2.6-14.2l8.8-86.3c0.5-4.7,2.2-8.3,5-10.9 c2.9-2.5,6.2-3.8,10.1-3.8h29.7l2.4,25.5h-22.3c-1.4,0-2.2,0.8-2.3,2.3l-6.5,63.7c-0.2,1.5,0.5,2.3,1.9,2.3H209l-7.8,25.5H176.3z"></path> <path class="st0" d="M264.2,46.7h25.7l-24.5,71.4l10.5,47.9h-25.5l-8.2-39.3l-4,39.3h-23.8l12.2-119.3h23.8l-6.3,61.1L264.2,46.7z"></path> <path class="st0" d="M337.4,46.7h24.9l-9.6,93.8h7.9l-2.6,25.5h-48.6l7-25.5h12.4l7-68.3h-9.6L337.4,46.7z"></path> <path class="st0" d="M376,63.2c0.5-4.7,2.2-8.6,5.1-11.8s7-4.7,12.4-4.7H422c5.3,0,9.1,1.6,11.4,4.7s3.1,7.1,2.6,11.8l-8.9,86.4 c-0.5,4.7-2.2,8.6-5.1,11.8c-2.9,3.1-7,4.7-12.4,4.7h-28.6c-5.4,0-9.1-1.6-11.4-4.7c-2.2-3.1-3.1-7-2.6-11.8L376,63.2z M400.7,70.9 c-1.4,0-2.2,0.8-2.3,2.3l-6.8,66.2c-0.1,0.9,0,1.5,0.2,1.9c0.2,0.4,0.8,0.6,1.8,0.6h8.5c1,0,1.6-0.2,1.9-0.6c0.3-0.4,0.5-1,0.6-1.9 l6.8-66.2c0.2-1.5-0.5-2.3-1.9-2.3H400.7z"></path> <path class="st0" d="M451.4,46.7h28.1c6,0,10,1.2,12,3.7c2,2.5,2.7,6.4,2.1,11.9l-3.1,29.8c-0.3,2.7-1.3,6.7-2.6,8.7 c-1.3,2-3.9,3.1-7.7,3.5c4,0,6.4,1.2,7.4,3.5c1,2.4,1.2,6.8,0.8,10l-3.1,29.8c-0.7,6.6-2.5,11.3-5.5,14.2c-3,2.9-7.8,4.3-14.6,4.3 h-26.2l-3-25.5h23.3c1.1,0,1.9-0.1,2.4-0.4c0.6-0.3,0.9-1.1,1.1-2.6l1.7-16.3c0.1-0.9,0-1.6-0.3-2.1c-0.3-0.5-1-0.8-2.3-0.8h-17.8 l2.4-23.9h17.5c1.3,0,2.2-0.2,2.6-0.7c0.5-0.4,0.8-1.3,0.9-2.6l1.6-16c0.1-1.2,0-2-0.5-2.4c-0.4-0.4-1.1-0.6-1.9-0.6h-23.9 L451.4,46.7z"></path> <path class="st0" d="M489.8,155c0.4-3.5,1.9-6.5,4.6-9.1c2.7-2.5,5.8-3.8,9.2-3.8c3.4,0,6.2,1.3,8.4,3.8c2.2,2.5,3.1,5.5,2.8,9.1 c-0.4,3.5-1.9,6.5-4.6,9c-2.7,2.5-5.8,3.7-9.2,3.7c-3.4,0-6.2-1.2-8.4-3.7C490.4,161.5,489.5,158.5,489.8,155z"></path> <path class="st0" d="M534.9,46.7H563c6,0,10,1.2,12,3.7c2,2.5,2.7,6.4,2.1,11.9l-3.1,29.8c-0.3,2.7-1.3,6.7-2.6,8.7 c-1.3,2-3.9,3.1-7.7,3.5c4,0,6.4,1.2,7.4,3.5c1,2.4,1.2,6.8,0.8,10l-3.1,29.8c-0.7,6.6-2.5,11.3-5.5,14.2c-3,2.9-7.8,4.3-14.6,4.3 h-26.2l-3-25.5h23.3c1.1,0,1.9-0.1,2.4-0.4c0.6-0.3,0.9-1.1,1.1-2.6l1.7-16.3c0.1-0.9,0-1.6-0.3-2.1c-0.3-0.5-1-0.8-2.3-0.8h-17.8 l2.4-23.9h17.5c1.3,0,2.2-0.2,2.6-0.7c0.5-0.4,0.8-1.3,0.9-2.6l1.6-16c0.1-1.2,0-2-0.5-2.4c-0.4-0.4-1.1-0.6-1.9-0.6h-23.9 L534.9,46.7z"></path> </g> <polygon class="st1" points="312.9,15.8 277.5,118.8 294.4,118.8 287.2,202.6 322.1,85 308.1,84.9 339.4,15.4 "></polygon> <path class="st1" d="M272.1,260c-0.3,0-0.6-0.1-0.9-0.1c-1.1-0.3-2.9-1.3-2.7-4.8l2.9-73.3H6.6c-1.8,0-3.4-0.7-4.6-2.1 c-1.1-1.3-1.7-3.1-1.5-4.9L14.8,36.3c0.4-3.5,3.3-6.2,6.7-6.2h266.5c0.4,0,1.1-0.5,1.2-0.9l8-23.8c1-3,4.2-5.3,7.3-5.3h49.8 c1.9,0,3.6,0.9,4.6,2.4c1,1.5,1.1,3.4,0.3,5.2l-9.2,22.5h243.3c1.7,0,3.4,0.7,4.6,2.1c1.1,1.3,1.7,3.1,1.5,4.9l-14.3,138.6 c-0.4,3.5-3.3,6.2-6.7,6.2H313.8c-0.6,0-1.5,0.6-1.8,1.1l-36.2,74.2C274.7,259.4,273.2,260,272.1,260z M7,175.2h264.6 c1.7,0,3.3,0.7,4.5,2c1.2,1.3,1.8,3,1.7,4.7l-2.5,61.4l31-63.4c1.3-2.7,4.6-4.8,7.5-4.8h264.6c0.1,0,0.3-0.2,0.4-0.3L593,36.7H348.4 c-1.9,0-3.6-0.9-4.6-2.4s-1.1-3.4-0.3-5.2l9.2-22.5h-48.2c-0.4,0-1.1,0.5-1.2,0.9l-8,23.8c-1,3-4.2,5.3-7.3,5.3H21.5 c-0.1,0-0.3,0.2-0.4,0.3L7,175.2z"></path> <g> <path class="st0" d="M33.2,201.2l-0.1,1.3c-0.4,3.6-1.8,5.9-4.6,7.1l0,0.1c3.1,1.2,4.1,3.8,3.7,7.5l-0.3,2.9c-0.6,5.4-4,8.4-10,8.4 h-9.4l3.6-35.3h9.1C31.3,193,33.7,195.7,33.2,201.2z M21.6,198.1l-1,9.3h2.3c2.2,0,3.7-0.9,4-3.7l0.2-2c0.3-2.5-0.6-3.6-2.7-3.6 H21.6z M20.1,212.4L19,223.3h3.4c2,0,3.2-0.9,3.5-3.5l0.3-3.1c0.3-3.3-0.7-4.3-3.4-4.3H20.1z"></path> <path class="st0" d="M44.2,193l-2.8,27.2c-0.3,2.5,0.8,3.4,2.8,3.4s3.2-0.9,3.5-3.4l2.8-27.2h5.7l-2.8,26.8c-0.6,5.6-4,8.9-9.9,8.9 c-5.9,0-8.6-3.2-8-8.9l2.8-26.8H44.2z"></path> <path class="st0" d="M69.4,228.3c-0.2-0.9-0.4-1.5-0.1-4.3l0.6-5.5c0.3-3.3-0.7-4.5-3.5-4.5h-2.1l-1.5,14.4h-6l3.6-35.3h9.1 c6.2,0,8.6,2.7,8.1,8.1l-0.3,2.8c-0.4,3.6-1.9,5.9-4.7,7.1l0,0.1c2.9,1.2,3.6,3.8,3.2,7.5l-0.6,5.4c-0.2,1.7-0.2,3,0.2,4.3H69.4z M66,198.1l-1.1,10.8h2.3c2.2,0,3.7-0.9,4-3.7l0.4-3.5c0.3-2.5-0.6-3.6-2.7-3.6H66z"></path> <path class="st0" d="M83.2,193h6l-3.1,30.2H96l-0.5,5H79.6L83.2,193z"></path> <path class="st0" d="M103.1,193h6l-3.6,35.3h-6L103.1,193z"></path> <path class="st0" d="M118.2,202.8h-0.1l-2.6,25.5H110l3.6-35.3h7.5l3.9,21.1h0.1l2.2-21.1h5.3l-3.6,35.3h-6.2L118.2,202.8z"></path> <path class="st0" d="M144.7,208.7h8.4l-1.1,11.2c-0.6,5.6-4,8.9-9.9,8.9c-5.9,0-8.6-3.2-8-8.9l1.9-18.3c0.6-5.6,4-8.9,9.9-8.9 c5.9,0,8.6,3.2,8,8.9l-0.4,3.4h-5.7l0.4-3.8c0.3-2.5-0.8-3.5-2.8-3.5c-1.9,0-3.2,1-3.5,3.5l-2,19c-0.3,2.5,0.8,3.4,2.8,3.4 s3.2-0.9,3.5-3.4l0.7-6.5h-2.7L144.7,208.7z"></path> <path class="st0" d="M157.1,193h18.6l-0.5,5h-6.3l-3.1,30.2h-6l3.1-30.2h-6.3L157.1,193z"></path> <path class="st0" d="M177.2,201.5c0.6-5.6,4.1-8.9,10-8.9c5.9,0,8.8,3.2,8.2,8.9l-1.9,18.3c-0.6,5.6-4.1,8.9-10,8.9 c-5.9,0-8.8-3.2-8.2-8.9L177.2,201.5z M181.3,220.2c-0.3,2.5,0.8,3.5,2.8,3.5s3.2-1,3.5-3.5l2-19c0.3-2.5-0.8-3.5-2.8-3.5 c-1.9,0-3.2,1-3.5,3.5L181.3,220.2z"></path> <path class="st0" d="M204.9,202.8h-0.1l-2.6,25.5h-5.4l3.6-35.3h7.5l3.9,21.1h0.1L214,193h5.3l-3.6,35.3h-6.2L204.9,202.8z"></path> <path class="st0" d="M223.4,198.4l0.5-5.3h5.8l-0.5,4.8l-3.2,5.6h-2.5l2.1-5H223.4z"></path> <path class="st0" d="M242.2,192.6c5.8,0,8.5,3.2,7.9,8.9l-0.1,1.1h-5.7l0.1-1.5c0.3-2.5-0.7-3.5-2.6-3.5s-3.1,1-3.4,3.5 c-0.3,2.6,0.7,4.5,4.3,7.7c4.6,4.1,5.9,7,5.5,11c-0.6,5.6-4,8.9-9.9,8.9c-5.9,0-8.6-3.2-8-8.9l0.2-2.2h5.7l-0.3,2.5 c-0.3,2.5,0.8,3.4,2.8,3.4c1.9,0,3.2-0.9,3.5-3.4c0.3-2.6-0.7-4.5-4.3-7.7c-4.6-4.1-5.9-7-5.5-11 C233.1,195.9,236.4,192.6,242.2,192.6z"></path> </g> <g> <path class="st0" d="M332.9,228.3c-0.2-0.9-0.4-1.5-0.1-4.3l0.6-5.5c0.3-3.3-0.7-4.5-3.5-4.5h-2.1l-1.5,14.4h-6l3.6-35.3h9.1 c6.2,0,8.6,2.7,8.1,8.1l-0.3,2.8c-0.4,3.6-1.9,5.9-4.7,7.1l0,0.1c2.9,1.2,3.6,3.8,3.2,7.5l-0.6,5.4c-0.2,1.7-0.2,3,0.2,4.3H332.9z M329.4,198.1l-1.1,10.8h2.3c2.2,0,3.7-0.9,4-3.7l0.4-3.5c0.3-2.5-0.6-3.6-2.7-3.6H329.4z"></path> <path class="st0" d="M345.4,201.5c0.6-5.6,4.1-8.9,10-8.9c5.9,0,8.8,3.2,8.2,8.9l-1.9,18.3c-0.6,5.6-4.1,8.9-10,8.9 c-5.9,0-8.8-3.2-8.2-8.9L345.4,201.5z M349.5,220.2c-0.3,2.5,0.8,3.5,2.8,3.5c1.9,0,3.2-1,3.5-3.5l2-19c0.3-2.5-0.8-3.5-2.8-3.5 c-1.9,0-3.2,1-3.5,3.5L349.5,220.2z"></path> <path class="st0" d="M384.4,215.2l-0.5,4.7c-0.6,5.6-4,8.9-9.9,8.9c-5.9,0-8.6-3.2-8-8.9l1.9-18.3c0.6-5.6,4-8.9,9.9-8.9 c5.9,0,8.6,3.2,8,8.9l-0.4,3.4h-5.7l0.4-3.8c0.3-2.5-0.8-3.5-2.8-3.5s-3.2,1-3.5,3.5l-2,19c-0.3,2.5,0.8,3.4,2.8,3.4 s3.2-0.9,3.5-3.4l0.5-5H384.4z"></path> <path class="st0" d="M396.8,214.3l-2.2,3.2l-1.1,10.8h-6l3.6-35.3h6l-1.6,15.3h0.1L405,193h6l-10,15.7l6.3,19.5h-6.2L396.8,214.3z"></path> <path class="st0" d="M436.3,192.6c5.8,0,8.5,3.2,7.9,8.9l-0.1,1.1h-5.7l0.1-1.5c0.3-2.5-0.7-3.5-2.6-3.5c-1.9,0-3.1,1-3.4,3.5 c-0.3,2.6,0.7,4.5,4.3,7.7c4.6,4.1,5.9,7,5.5,11c-0.6,5.6-4,8.9-9.9,8.9c-5.9,0-8.6-3.2-8-8.9l0.2-2.2h5.7l-0.3,2.5 c-0.3,2.5,0.8,3.4,2.8,3.4c1.9,0,3.2-0.9,3.5-3.4c0.3-2.6-0.7-4.5-4.3-7.7c-4.6-4.1-5.9-7-5.5-11 C427.1,195.9,430.5,192.6,436.3,192.6z"></path> <path class="st0" d="M447.1,193h18.6l-0.5,5h-6.3l-3.1,30.2h-6l3.1-30.2h-6.3L447.1,193z"></path> <path class="st0" d="M482.3,228.3h-6.1l-0.4-6.4h-7.4l-1.7,6.4h-5.5L471,193h8.8L482.3,228.3z M469.7,217.1h5.8l-1-17.8h-0.1 L469.7,217.1z"></path> <path class="st0" d="M486.7,193h18.6l-0.5,5h-6.3l-3.1,30.2h-6l3.1-30.2h-6.3L486.7,193z"></path> <path class="st0" d="M509.8,193h6l-3.6,35.3h-6L509.8,193z"></path> <path class="st0" d="M519.1,201.5c0.6-5.6,4.1-8.9,10-8.9c5.9,0,8.8,3.2,8.2,8.9l-1.9,18.3c-0.6,5.6-4.1,8.9-10,8.9 c-5.9,0-8.8-3.2-8.2-8.9L519.1,201.5z M523.2,220.2c-0.3,2.5,0.8,3.5,2.8,3.5s3.2-1,3.5-3.5l2-19c0.3-2.5-0.8-3.5-2.8-3.5 c-1.9,0-3.2,1-3.5,3.5L523.2,220.2z"></path> <path class="st0" d="M547,202.8h-0.1l-2.6,25.5h-5.4l3.6-35.3h7.5l3.9,21.1h0.1l2.2-21.1h5.3l-3.6,35.3h-6.2L547,202.8z"></path> </g> <path class="st2" d="M537.5,75"></path> <path class="st2" d="M496.2,195.5"></path> </svg> 