<?xml version="1.0" encoding="utf-8"?>
<!-- Generator: Adobe Illustrator 15.0.0, SVG Export Plug-In . SVG Version: 6.00 Build 0)  -->
<!DOCTYPE svg PUBLIC "-//W3C//DTD SVG 1.1//EN" "http://www.w3.org/Graphics/SVG/1.1/DTD/svg11.dtd">
<svg version="1.1" id="Слой_1" xmlns="http://www.w3.org/2000/svg" xmlns:xlink="http://www.w3.org/1999/xlink" x="0px" y="0px"
	 width="1000px" height="400px" viewBox="0 0 1000 400" enable-background="new 0 0 1000 400" xml:space="preserve">
<g>
	<path d="M671.324,2.189c109.096,0,198.08,88.981,198.08,197.948c0,109.214-88.984,198.188-198.08,198.188
		c-109.08,0-198.063-88.979-198.063-198.188c0-109.088,88.983-198.069,198.063-198.069l0,0V2.189L671.324,2.189L671.324,2.189z
		 M671.324,311.692c61.392,0,111.432-50.163,111.432-111.555c0-61.26-50.04-111.421-111.432-111.421
		c-61.375-0.116-111.415,50.046-111.415,111.421C559.909,261.529,609.949,311.692,671.324,311.692L671.324,311.692L671.324,311.692
		L671.324,311.692z"/>
	<path fill="#939598" d="M181.186,240.125c-10.409,0-23.621-2.331-33.088-7.48l0,0v38.706l0,0
		c10.403,3.158,25.839,6.076,40.219,6.076c48.409,0,87.466-25.488,87.466-77.752c0-48.991-40.698-73.431-87.466-73.431
		c-15.554,0-25.026,1.523-39.869,4.677l0,0v38.352l0,0c8.299-4.327,21.161-6.902,30.983-6.902
		C233.563,162.38,231.345,240.125,181.186,240.125L181.186,240.125L181.186,240.125L181.186,240.125z"/>
	<polygon fill="#6F7173" points="301.848,202.247 216.497,324.432 315.765,324.432 357.389,243.871 402.171,324.432 
		508.339,324.432 422.283,202.247 502.258,86.26 405.912,86.26 367.679,156.533 332.132,86.26 226.781,86.26 301.848,202.247 	"/>
	<path d="M767.8,197.688c-0.823-8.296-6.318-13.328-16.372-13.328c-9.111,0-16.135,6.666-16.135,17.188
		c0,10.521,6.432,17.189,17.184,17.189c8.66,0,14.623-5.15,15.56-13.558l0,0h-10.29l0,0c-0.474,3.154-1.996,5.604-5.377,5.604
		c-5.495,0-6.437-4.322-6.437-8.887c0-6.314,2.223-9.471,5.969-9.471c3.272,0,5.376,1.873,5.727,5.263l0,0H767.8L767.8,197.688
		L767.8,197.688z"/>
	<polygon points="579.429,217.919 579.429,206.811 579.073,201.672 578.61,196.983 578.729,196.983 584.697,217.919 592.05,217.919 
		598.023,196.983 598.023,196.983 597.555,202.834 597.437,207.979 597.437,217.919 606.914,217.919 606.914,185.3 594.046,185.3 
		588.314,205.643 582.712,185.3 569.725,185.3 569.725,217.919 579.429,217.919 	"/>
	<polygon fill="#FFFFFF" points="810.704,217.919 821.458,217.919 821.458,207.511 823.922,204.819 831.876,217.919 
		844.615,217.919 831.402,197.57 843.329,185.3 830.815,185.3 821.458,195.821 821.458,185.3 810.704,185.3 810.704,217.919 	"/>
	<path fill="#ED1C24" d="M671.324,146.359c29.713,0,54.028,24.323,54.028,53.779c0,29.815-24.315,54.023-54.028,54.023
		c-29.696,0-54.013-24.208-54.013-54.023c0-29.577,24.316-53.895,54.013-53.895l0,0V146.359L671.324,146.359L671.324,146.359z
		 M671.324,220.491c11.113,0,20.235-9.117,20.235-20.343c0-10.993-9.117-20.107-20.235-20.107
		c-11.098-0.116-20.221,8.999-20.221,20.107C651.104,211.364,660.227,220.491,671.324,220.491L671.324,220.491L671.324,220.491
		L671.324,220.491z"/>
	<path d="M902.734,185.3h0.807l0,0c7.368,0,13.1,1.754,13.1,8.18c0,3.278-2.109,5.845-4.208,7.131
		c3.509,0.941,5.371,3.858,5.371,7.491c0,7.249-5.495,9.704-13.912,9.704l0,0h-1.163h-14.74v-32.502h14.746V185.3L902.734,185.3z
		 M902.734,198.396h0.463l0,0c1.985,0,3.508-0.939,3.508-2.93c0-2.333-1.985-2.454-3.971-2.454l0,0l-3.988-0.116v5.495h3.988
		V198.396L902.734,198.396z M902.734,210.314h0.571l0,0c2.571,0,4.567-0.699,4.567-3.035c0-2.691-2.223-2.934-5.145-2.934
		c-0.242,0-0.478-0.107-0.586-0.107l0,0h-3.401v6.076H902.734L902.734,210.314L902.734,210.314z"/>
	<path d="M981.88,185.3h10.646v32.501H981.88V185.3L981.88,185.3L981.88,185.3z M963.06,196.637h0.813l0,0
		c8.305,0,13.449,3.738,13.449,10.756s-5.145,10.414-13.676,10.414l0,0h-0.586h-14.972v-32.502h10.763v11.337h4.209V196.637
		L963.06,196.637z M963.06,210.314c2.454,0,4.322-0.699,4.322-3.035s-1.868-2.81-4.322-2.934c-0.581,0-1.173-0.107-1.636-0.107l0,0
		h-2.573v6.076h3.859H963.06L963.06,210.314L963.06,210.314z"/>
	<path fill="#EE2A27" d="M181.886,182.375c11.577,0,16.953,8.304,16.953,16.722c0,11.105-7.368,17.423-16.953,17.423
		c-10.172,0-17.071-6.432-17.071-17.423c0-10.172,7.018-16.837,16.953-16.837l0,0L181.886,182.375L181.886,182.375L181.886,182.375z
		 M181.886,208.561c4.564,0,6.313-4.091,6.313-9.47c0-4.209-1.754-8.772-6.313-8.772c-4.914-0.116-6.313,4.68-6.313,8.772
		c0,4.211,1.287,9.47,6.195,9.47l0,0H181.886L181.886,208.561L181.886,208.561z"/>
	<polygon points="124.009,183.19 134.176,183.19 134.176,193.48 133.713,201.672 145.407,183.19 155.466,183.19 155.466,215.578 
		145.175,215.578 145.175,205.287 145.757,196.983 133.949,215.578 124.009,215.578 124.009,183.19 	"/>
	<path d="M21.818,183.19h0.582l0,0c9.472,0,13.912,4.211,13.912,10.99c0,6.895-4.096,11.227-13.444,11.227l0,0h-1.055h-4.328v10.172
		H6.846V183.19H21.818L21.818,183.19L21.818,183.19z M21.818,197.923c2.567,0,4.322-0.939,4.322-3.743
		c0-2.454-2.336-3.154-4.322-3.275c-0.586,0-1.055-0.116-1.405-0.116l0,0h-2.922v7.134H21.818L21.818,197.923L21.818,197.923z"/>
	<path d="M56.192,183.19h5.382l11.689,32.388h-10.64l-1.287-4.327h-5.145h-5.495l-1.168,4.327H39.126l11.571-32.388H56.192
		L56.192,183.19L56.192,183.19z M56.192,204.47h3.272l-3.272-10.99l-0.119-0.468l-3.272,11.458H56.192L56.192,204.47L56.192,204.47z
		"/>
	<path d="M95.475,183.19h15.199v24.789h2.809v15.08H103.31v-7.48h-7.835h-7.362v7.48H77.822v-15.08h2.567l0,0
		c2.341-4.321,2.928-9.351,2.928-16.484l0,0v-8.304H95.475L95.475,183.19L95.475,183.19z M95.475,207.979h4.445v-17.184h-4.445
		h-1.868v3.509l0,0c0,5.264-0.587,10.291-2.691,13.681l0,0h4.559V207.979L95.475,207.979z"/>
</g>
</svg>
