<?xml version="1.0" encoding="UTF-8" standalone="no"?>
<svg xmlns:dc="http://purl.org/dc/elements/1.1/" xmlns:cc="http://creativecommons.org/ns#" xmlns:rdf="http://www.w3.org/1999/02/22-rdf-syntax-ns#" xmlns:svg="http://www.w3.org/2000/svg" xmlns="http://www.w3.org/2000/svg" version="1.1" id="svg2" viewBox="0 0 59 74" width="59" height="74">
  <metadata id="metadata10">
    <rdf:RDF>
      <cc:Work rdf:about="">
        <dc:format>image/svg+xml</dc:format>
        <dc:type rdf:resource="http://purl.org/dc/dcmitype/StillImage"/>
        <dc:title/>
      </cc:Work>
    </rdf:RDF>
  </metadata>
  <defs id="defs8"/>
  <g transform="translate(74.973744,-20.535918)" id="g3387">
    <g id="ENERGY_Kopie" transform="matrix(0.27580772,0,0,0.27580772,-122.86539,-22.613805)">
      <g id="g656">
        <path d="m 179.8,390.1 28.2,0 0,6.5 -17.7,0 0,3.6 16.5,0 0,6.5 -16.5,0 0,3.6 17.7,0 0,6.5 -28.2,0 0,-26.7 z" id="path658"/>
        <path d="m 211.4,390.1 12,0 10.6,14.7 0.1,0 0,-14.7 10,0 0,26.6 -11.5,0 -11.2,-14.9 -0.1,0 0,14.9 -10,0 0,-26.6 z" id="path660"/>
        <path d="m 248.4,390.1 28.2,0 0,6.5 -17.7,0 0,3.6 16.5,0 0,6.5 -16.5,0 0,3.6 17.7,0 0,6.5 -28.2,0 0,-26.7 z" id="path662"/>
        <path d="m 279.9,390.1 22.1,0 c 3,0 4.8,0.3 6.3,1 2,1 3.6,3.5 3.6,6.4 0,2.5 -1,5.2 -4.1,6.1 l 0,0.1 c 1.6,0.4 2.8,1.8 3,4.1 l 0.4,5.8 c 0.1,1.2 0.6,2.3 1.3,3.1 l -11.5,0 c -0.4,-0.8 -0.4,-1.9 -0.6,-5 -0.1,-2 -0.8,-3.2 -2.7,-3.2 l -7.4,0 0,8.2 -10.5,0 0,-26.6 z m 10.5,11.6 7.4,0 c 2,0 2.9,-0.8 2.9,-2.5 0,-2 -1.3,-2.5 -3.1,-2.5 l -7.3,0 0,5 z" id="path664"/>
        <path d="m 333.9,401.5 14.9,0 0,15.1 -4.5,0 -1.2,-2.4 c -2.7,2.4 -6.1,3.3 -12.2,3.3 -7.4,0 -17.4,-1.8 -17.4,-14.1 0,-11.6 9.3,-14.3 17.3,-14.3 11.7,0 17.2,3.2 18,10 l -11.8,0 c -0.3,-1.4 -1.1,-2.2 -2,-2.7 -1,-0.5 -2.2,-0.6 -3.6,-0.6 -4.3,0 -7,2.1 -7,7.5 0,4.9 2.6,7.5 7.8,7.5 3.4,0 5.1,-1.3 5.9,-3.3 l -4.3,0 0,-6 z" id="path666"/>
        <path d="m 359.2,409.1 -11.8,-19.1 12,0 5.1,10.4 5.1,-10.4 12,0 -11.8,19.1 0,7.5 -10.5,0 0,-7.5 z" id="path668"/>
      </g>
    </g>
    <g id="Ebene_3" transform="matrix(0.27580772,0,0,0.27580772,-122.86539,-22.613805)">
      <g id="g671">
        <path class="st32" d="m 334.1,220.9 0,19.5 13.3,-4.7 c 0,0 0.1,51.3 0,54 -1.4,15.6 -17.8,10.7 -23.1,6.7 -1.7,-1.2 -13.9,-9.8 -13.9,-9.8 11.9,-4.2 30.5,-19.4 21.3,-40.1 -11.5,-21.1 -31.8,-14.2 -31.8,-14.2 l -55.6,19.4 0,19.1 8,-2.8 0,26.7 -35.8,-33.6 -36.9,12.9 0,19.2 11.1,-4.1 0,54.6 -11,3.9 0,20.1 42,-14.6 0,-45.1 23,21 59.2,-15.7 c 0,0 7.8,6.2 13.7,10.5 10,7.3 22.1,8.9 35.7,5.2 14.9,-4.1 27.8,-17.3 27.8,-36.5 0,-6.9 0.1,-88 0.1,-88 l -47.1,16.4 z m -35.9,50.2 c -3.9,1.3 -15.6,5.7 -15.6,5.7 l 0,-18.5 c 0,0 8,-2.9 12,-4.2 3.9,-1.3 7.4,2.6 7.6,6.4 0.2,3.3 0.8,8.3 -4,10.6 z m 62.9,-67 c 11.1,0 20.2,-9 20.2,-20.2 0,-11.1 -9,-20.2 -20.2,-20.2 -11.1,0 -20.2,9 -20.2,20.2 0,11.2 9.1,20.2 20.2,20.2 z" id="path673" style="fill:#e3000b"/>
        <polygon class="st33" points="198,338.9 221.8,337.8 221.8,353.2 209.9,357.3 196.8,344.3 " id="polygon675" style="fill:#af1412"/>
        <path d="m 381.3,291 c -1,15.4 -10.8,28.1 -31.4,29.3 -9.6,0.8 -15.3,-2.7 -20.1,-5.3 -8.9,-4.4 -23.3,-17.4 -32.5,-21 -6.5,-2.7 -15.5,-3.7 -24.6,-1.6 -9.1,2.1 -14.1,5.3 -17.8,8.1 -3.7,2.8 -9.6,8.5 -11,10 -1.4,1.5 -5.5,6.2 -5.8,6.3 -0.3,0 -1.4,-1.2 -2,-1.9 -0.6,-0.7 -1.3,-2 -1.5,-2.1 -0.4,0.1 -2.6,3.3 -2.8,5 -0.2,1.7 0.7,4.2 0.8,4.8 0,0.6 -0.7,1.1 -0.9,1.1 -0.3,0 -2,-2.2 -2.2,-2.1 -0.2,0 -1,1.4 -1.3,2.4 -0.2,0.9 0.1,3.3 0.1,3.3 -2.2,1.8 -5.8,3.8 -10,4.9 -2.6,0.7 -15.2,1.9 -15.6,2.1 -0.4,0.2 -6.2,5.2 -6.2,5.2 l 0.2,4.8 1.3,-1.2 2.1,3.7 1.3,-2.4 c 0,0 1.8,2.4 2.8,3.6 0.4,-2 2.6,-6.1 5.9,-7.2 3.1,-1.2 19,-1.6 19.5,-1.6 0,0.4 -0.9,2.8 -0.9,3 0,0.1 3.5,3.8 3.7,3.9 0.2,0.1 1.9,-0.5 2.1,-0.6 0.1,-0.1 0.3,-0.5 0.4,-0.8 0.1,0 1.3,0.1 1.9,-0.3 -1.6,-0.5 -1.6,-1.5 -1.2,-2.3 0.4,-0.9 3,-1.2 4.3,-0.4 1.3,0.9 2.1,2.3 1.4,4 -0.6,1.4 -2.4,0.8 -2.8,0.7 0.1,0.3 1.4,1.1 1.5,1.2 0,0.1 0,0.4 0,0.4 0,0 0.4,0.5 0.6,0.5 0.3,0 5.6,-2.9 5.9,-3.2 0.4,-0.3 1.5,-1.3 2.2,-2.7 0,0 -1.8,-1.2 -1.7,-3.3 0.1,-2.1 2,-3.3 4.1,-3.1 2.1,0.3 3.2,2.1 2.6,4.5 -0.5,1.9 -10.2,13.2 -18.9,17.6 -5.7,3.3 -11,2.9 -11.4,3 -0.3,0.1 -5.5,4.5 -5.5,4.5 l -0.2,4.1 1,-0.5 1.5,4.2 1.1,-1.6 3.2,3.4 0.7,-2.9 4,3 c 0,0 0.2,-1.5 0.3,-2.8 0.5,-0.5 6.5,-5.8 7.1,-6.3 0.6,-0.6 9.3,-5 17,-10.1 8.8,-5.9 17.3,-12.1 17.4,-13.6 -1.1,-0.9 -5.3,-4.8 -5.2,-9.2 0.1,-4.4 5.1,-8.5 11,-11.1 5.9,-2.6 13.5,-1.7 18.6,2.1 3.5,2.5 18.4,12.8 38.4,11.7 21,-1.2 33.4,-8 40.7,-20.7 7.5,-12.7 6.9,-22.1 6.8,-24.5 z" id="path677"/>
        <polygon class="st2" points="232.7,334.9 234.1,328.8 236.1,329.5 233.6,334.6 " id="polygon679" style="fill:#ffffff"/>
      </g>
    </g>
  </g>
<style xmlns="" type="text/css" id="undefined"/></svg>