<?xml version="1.0" encoding="utf-8"?>
<!-- Generator: Adobe Illustrator 15.0.0, SVG Export Plug-In  -->
<!DOCTYPE svg PUBLIC "-//W3C//DTD SVG 1.1//EN" "http://www.w3.org/Graphics/SVG/1.1/DTD/svg11.dtd" [
	<!ENTITY ns_flows "http://ns.adobe.com/Flows/1.0/">
]>
<svg version="1.1"
	 xmlns="http://www.w3.org/2000/svg" xmlns:xlink="http://www.w3.org/1999/xlink" xmlns:a="http://ns.adobe.com/AdobeSVGViewerExtensions/3.0/"
	 x="0px" y="0px" width="708px" height="194px" viewBox="-0.047 -0.274 708 194"
	 overflow="visible" enable-background="new -0.047 -0.274 708 194" xml:space="preserve">
<defs>
</defs>
<path fill="#FFFFFF" d="M115.092,39.824l5.177-0.571c0.126,1.051,0.452,1.831,0.988,2.346c0.53,0.505,1.235,0.757,2.113,0.757
	c1.104,0,2.04-0.506,2.816-1.524c0.773-1.013,1.271-3.118,1.487-6.316c-1.35,1.559-3.029,2.343-5.047,2.336
	c-2.198,0.005-4.09-0.844-5.68-2.535c-1.594-1.692-2.391-3.905-2.391-6.615c0-2.832,0.838-5.111,2.522-6.847
	c1.683-1.727,3.823-2.598,6.424-2.596c2.831-0.002,5.151,1.094,6.968,3.286c1.816,2.185,2.724,5.789,2.724,10.799
	c-0.001,5.104-0.943,8.782-2.836,11.043c-1.888,2.257-4.353,3.387-7.385,3.387c-2.183,0-3.946-0.579-5.292-1.743
	C116.331,43.871,115.467,42.135,115.092,39.824z M127.195,28.142c0.003-1.733-0.399-3.072-1.192-4.022
	c-0.792-0.951-1.71-1.426-2.749-1.427c-0.991,0-1.812,0.39-2.464,1.168c-0.657,0.788-0.983,2.062-0.98,3.845
	c-0.001,1.798,0.353,3.122,1.063,3.963c0.711,0.839,1.603,1.265,2.667,1.265c1.03,0.002,1.894-0.409,2.602-1.216
	C126.845,30.899,127.195,29.706,127.195,28.142z"/>
<path fill="#FFFFFF" d="M147.415,46.772l-5.346-0.001V26.612c-1.958,1.827-4.258,3.18-6.909,4.056v-4.856
	c1.396-0.452,2.909-1.322,4.547-2.592c1.638-1.283,2.759-2.765,3.365-4.469h4.346L147.415,46.772z"/>
<path fill="#FFFFFF" d="M149.964,46.772v-5.351l5.348,0.001v5.349L149.964,46.772z"/>
<path fill="#FFFFFF" d="M154.405,24.22l0.006-4.969h18.29l0.002,3.884c-1.516,1.485-3.049,3.616-4.609,6.396
	c-1.563,2.778-2.751,5.729-3.567,8.863c-0.817,3.123-1.221,5.919-1.21,8.379h-5.16c0.091-3.853,0.887-7.79,2.389-11.799
	c1.505-4.012,3.516-7.595,6.022-10.751L154.405,24.22z"/>
<path fill="#FFFFFF" d="M175.093,31.828l2.196-0.005l-0.003-1.126c0-1.257,0.132-2.194,0.402-2.814
	c0.269-0.617,0.756-1.118,1.472-1.513c0.718-0.387,1.63-0.586,2.729-0.58c1.129-0.002,2.229,0.164,3.307,0.504l-0.537,2.757
	c-0.631-0.148-1.231-0.221-1.814-0.227c-0.569,0-0.977,0.137-1.231,0.4c-0.25,0.271-0.374,0.79-0.369,1.546l-0.002,1.058
	l2.958-0.005l-0.003,3.11h-2.957v11.839h-3.954V34.934h-2.198L175.093,31.828z"/>
<path fill="#FFFFFF" d="M186.125,31.823h3.644v2.042c1.305-1.588,2.86-2.381,4.661-2.381c0.953,0.008,1.785,0.198,2.488,0.593
	c0.704,0.395,1.285,0.993,1.733,1.788c0.653-0.798,1.363-1.394,2.124-1.791c0.756-0.392,1.574-0.589,2.44-0.59
	c1.093,0.001,2.021,0.227,2.778,0.666c0.761,0.451,1.33,1.103,1.708,1.968c0.27,0.634,0.408,1.67,0.406,3.095l-0.002,9.554
	l-3.953,0.006v-8.545c0-1.482-0.14-2.439-0.407-2.869c-0.367-0.566-0.929-0.852-1.689-0.846c-0.553,0-1.071,0.166-1.563,0.506
	c-0.487,0.337-0.842,0.83-1.052,1.486c-0.218,0.648-0.325,1.683-0.329,3.091l-0.001,7.174h-3.952v-8.19
	c0.003-1.453-0.068-2.394-0.211-2.815c-0.142-0.42-0.359-0.734-0.652-0.944c-0.296-0.204-0.698-0.306-1.205-0.307
	c-0.608-0.006-1.155,0.162-1.647,0.495c-0.487,0.326-0.837,0.799-1.048,1.419c-0.211,0.618-0.316,1.645-0.314,3.081l-0.002,7.259
	h-3.953L186.125,31.823z"/>
<path fill="#FFFFFF" d="M306.291,190.072V1.358h36.169v100.152l42.35-48.147h44.535l-46.728,49.948l50.076,86.761h-39.008
	l-34.367-61.4l-16.858,17.63v43.771H306.291z"/>
<path fill="#FFFFFF" d="M548.918,190.355h-32.701v-19.552c-5.435,7.609-11.847,13.266-19.236,16.98
	c-7.396,3.723-14.847,5.574-22.367,5.574c-15.287,0-28.387-6.162-39.284-18.478c-10.896-12.322-16.356-29.512-16.356-51.57
	c0-22.556,5.31-39.698,15.917-51.434c10.606-11.742,24.019-17.614,40.22-17.614c14.885,0,27.741,6.183,38.601,18.548V6.649h35.208
	V190.355z M454.943,120.931c0,14.201,1.959,24.482,5.885,30.824c5.682,9.196,13.614,13.787,23.81,13.787
	c8.1,0,14.999-3.451,20.678-10.337c5.68-6.892,8.52-17.187,8.52-30.895c0-15.287-2.759-26.296-8.27-33.019
	c-5.516-6.727-12.571-10.085-21.174-10.085c-8.356,0-15.361,3.319-20.99,9.962C457.76,97.81,454.943,107.729,454.943,120.931z"/>
<path fill="#FFFFFF" d="M645.282,190.308v-20.165c-4.902,7.193-11.355,12.858-19.344,16.997c-7.997,4.143-16.423,6.219-25.304,6.219
	c-9.048,0-17.161-1.993-24.347-5.964c-7.195-3.971-12.401-9.547-15.616-16.74c-3.203-7.186-4.809-17.124-4.809-29.811V55.605h35.631
	v61.896c0,18.945,0.67,30.555,1.974,34.822c1.308,4.275,3.694,7.652,7.167,10.145c3.461,2.497,7.862,3.748,13.188,3.748
	c6.094,0,11.549-1.673,16.365-5.013c4.82-3.341,8.119-7.487,9.896-12.434c1.772-4.945,2.662-17.059,2.662-36.342V55.605h35.646
	v134.702H645.282z"/>
<path fill="#FFFFFF" d="M224.715,190.072l-113.625-59.01l22.185-22.189l72.747,40.398l-41.696-71.442l22.025-22.017l70.951,42.172
	L217.235,24.92L239.75,2.403l58.602,114.03l-21.938,21.945l-70.391-40.638l40.884,70.14L224.715,190.072z"/>
<path fill="none" stroke="#FFFFFF" stroke-width="11.8886" d="M37.255,186.624C-4.196,145.591-4.537,78.71,36.509,37.255
	c20.519-20.726,47.5-31.171,74.535-31.311"/>
<path fill="none" stroke="#FFFFFF" stroke-width="11.8886" d="M111.214,41.154c-18.016,0.08-36.007,7.05-49.684,20.874
	c-27.364,27.638-27.142,72.222,0.498,99.581"/>
<path fill="none" stroke="#FFFFFF" stroke-width="11.8886" d="M111.396,76.356c-9.01,0.042-18.008,3.531-24.846,10.439
	c-13.684,13.821-13.571,36.111,0.254,49.787"/>
<path fill="#FFFFFF" d="M702.261,55.938v3.585h-2.13c0.728,0.465,1.319,1.093,1.777,1.889c0.45,0.791,0.683,1.675,0.683,2.638
	c0,1.688-0.663,3.116-1.986,4.289c-1.318,1.179-3.162,1.766-5.521,1.766c-2.423,0-4.308-0.593-5.651-1.779
	c-1.349-1.182-2.017-2.617-2.017-4.306c-0.002-0.802,0.155-1.522,0.479-2.176c0.319-0.655,0.863-1.339,1.641-2.06h-7.317
	l0.004-3.843L702.261,55.938z M695.245,59.739c-1.624,0.003-2.835,0.324-3.611,0.973c-0.777,0.646-1.172,1.433-1.172,2.367
	c0,0.891,0.359,1.635,1.075,2.226c0.713,0.596,1.888,0.888,3.523,0.888c1.518-0.001,2.65-0.308,3.388-0.916
	c0.74-0.608,1.108-1.364,1.108-2.268c0-0.94-0.362-1.715-1.09-2.335C697.742,60.053,696.669,59.744,695.245,59.739z"/>
<path fill="#FFFFFF" d="M707.781,74.646l-7.363-0.001c1.445,1.238,2.173,2.723,2.173,4.439c0,0.888-0.168,1.683-0.498,2.394
	c-0.321,0.714-0.743,1.247-1.254,1.607c-0.51,0.364-1.074,0.611-1.697,0.74c-0.621,0.129-1.583,0.199-2.885,0.199h-8.515v-3.847
	h7.67c1.522,0.003,2.489-0.068,2.899-0.218c0.407-0.146,0.735-0.402,0.979-0.772c0.24-0.366,0.36-0.829,0.36-1.388
	c0-0.641-0.155-1.204-0.462-1.706c-0.312-0.503-0.778-0.868-1.404-1.101c-0.623-0.237-1.55-0.349-2.766-0.349l-7.276,0.001
	l-0.001-3.844h20.044L707.781,74.646z"/>
<path fill="#FFFFFF" d="M704.233,84.996h3.548v3.844l-3.551,0.001L704.233,84.996z M687.742,84.996h14.519v3.844h-14.519V84.996z"/>
<path fill="#FFFFFF" d="M687.742,90.443h20.039v3.844h-20.039V90.443z"/>
<path fill="#FFFFFF" d="M697.83,99.339l0.631-3.485c1.409,0.395,2.441,1.07,3.117,2.022c0.677,0.96,1.013,2.383,1.013,4.27
	c0,1.714-0.205,2.986-0.61,3.822c-0.408,0.84-0.923,1.433-1.545,1.776c-0.623,0.339-1.771,0.51-3.439,0.51l-4.481-0.042
	c-1.276,0-2.216,0.063-2.824,0.185c-0.604,0.123-1.249,0.351-1.949,0.69l0.001-3.798c0.255-0.099,0.634-0.227,1.134-0.369
	c0.23-0.066,0.38-0.112,0.453-0.138c-0.638-0.658-1.115-1.357-1.431-2.104c-0.327-0.746-0.482-1.548-0.482-2.394
	c0-1.495,0.403-2.673,1.216-3.536c0.814-0.857,1.838-1.289,3.077-1.292c0.819,0.003,1.551,0.201,2.193,0.59
	c0.64,0.391,1.135,0.942,1.48,1.65c0.338,0.703,0.637,1.722,0.888,3.052c0.339,1.796,0.651,3.041,0.944,3.731l0.389-0.001
	c0.736,0,1.258-0.18,1.574-0.544c0.317-0.367,0.473-1.053,0.473-2.064c0-0.685-0.137-1.218-0.4-1.601
	C698.977,99.887,698.507,99.576,697.83,99.339z M694.714,104.482c-0.163-0.495-0.359-1.275-0.585-2.339
	c-0.229-1.063-0.451-1.766-0.673-2.093c-0.354-0.5-0.806-0.751-1.353-0.751c-0.538,0-1.003,0.199-1.394,0.602
	c-0.394,0.4-0.59,0.909-0.59,1.532c0,0.689,0.23,1.354,0.686,1.98c0.348,0.466,0.771,0.771,1.271,0.916
	c0.323,0.098,0.95,0.148,1.876,0.152H694.714z"/>
<path fill="#FFFFFF" d="M687.742,123.021v-3.566h2.134c-0.826-0.597-1.448-1.294-1.856-2.102c-0.403-0.806-0.604-1.621-0.604-2.438
	c0-1.664,0.668-3.098,2.017-4.285c1.344-1.191,3.216-1.784,5.628-1.784c2.457,0,4.324,0.58,5.609,1.734
	c1.284,1.158,1.921,2.621,1.921,4.387c0,1.629-0.681,3.025-2.025,4.212h7.22l-0.004,3.845L687.742,123.021z M695.315,112.767
	c-1.547,0.002-2.667,0.219-3.361,0.641c-0.998,0.62-1.502,1.487-1.502,2.601c0,0.887,0.372,1.634,1.122,2.258
	c0.755,0.616,1.88,0.928,3.373,0.925c1.664,0.003,2.865-0.299,3.602-0.899c0.734-0.599,1.102-1.373,1.102-2.312
	c0-0.911-0.36-1.674-1.087-2.291C697.838,113.075,696.756,112.767,695.315,112.767z"/>
<path fill="#FFFFFF" d="M692.362,133.459l-0.643,3.833c-1.403-0.495-2.474-1.269-3.202-2.333c-0.736-1.062-1.102-2.391-1.102-3.984
	c0-2.523,0.826-4.394,2.473-5.601c1.323-0.963,2.99-1.438,5.004-1.438c2.408,0,4.288,0.628,5.656,1.882
	c1.359,1.263,2.042,2.852,2.042,4.773c0,2.159-0.715,3.866-2.138,5.113c-1.427,1.247-3.615,1.844-6.557,1.79l0.003-9.623
	c-1.145,0.027-2.031,0.338-2.663,0.93c-0.633,0.592-0.951,1.331-0.95,2.213c-0.001,0.604,0.166,1.105,0.49,1.519
	C691.107,132.942,691.636,133.251,692.362,133.459z M696.242,133.682c1.118-0.025,1.959-0.312,2.536-0.86
	c0.576-0.548,0.872-1.214,0.872-1.994c0-0.843-0.307-1.538-0.918-2.08c-0.61-0.546-1.438-0.816-2.49-0.81V133.682z"/>
<path fill="#FFFFFF" d="M687.741,138.289l20.04,0.004v3.841h-20.039L687.741,138.289z"/>
<path fill="#FFFFFF" d="M702.261,142.862v3.584l-2.131-0.002c0.729,0.464,1.318,1.095,1.777,1.889
	c0.451,0.794,0.684,1.672,0.684,2.635c0,1.69-0.663,3.117-1.986,4.294c-1.318,1.173-3.162,1.767-5.521,1.765
	c-2.425,0-4.308-0.592-5.651-1.78c-1.351-1.183-2.017-2.618-2.017-4.301c0-0.811,0.155-1.535,0.482-2.187
	c0.315-0.649,0.857-1.338,1.638-2.057h-7.317v-3.84H702.261z M695.247,146.664c-1.626,0.003-2.837,0.322-3.617,0.969
	c-0.773,0.646-1.168,1.437-1.168,2.362c0,0.896,0.359,1.643,1.075,2.231c0.715,0.591,1.888,0.89,3.517,0.89
	c1.527,0,2.655-0.307,3.394-0.916c0.739-0.611,1.104-1.367,1.104-2.269c0-0.94-0.358-1.72-1.087-2.341
	C697.745,146.975,696.669,146.664,695.247,146.664z"/>
<path fill="#FFFFFF" d="M707.781,161.566h-7.365c1.447,1.236,2.175,2.721,2.175,4.443c0,0.883-0.168,1.682-0.498,2.392
	c-0.321,0.71-0.746,1.246-1.254,1.606c-0.514,0.358-1.074,0.605-1.697,0.736c-0.621,0.132-1.579,0.199-2.885,0.196l-8.516,0.003
	l0.001-3.836h7.67c1.522-0.002,2.49-0.081,2.897-0.226c0.412-0.144,0.737-0.403,0.977-0.774c0.244-0.369,0.364-0.827,0.364-1.383
	c0-0.64-0.155-1.207-0.464-1.712c-0.311-0.499-0.779-0.868-1.403-1.095c-0.62-0.235-1.549-0.352-2.764-0.352h-7.278v-3.843h20.039
	L707.781,161.566z"/>
<path fill="#FFFFFF" d="M704.23,171.921h3.551v3.84h-3.551V171.921z M687.742,171.921h14.519v3.837l-14.52,0.003L687.742,171.921z"
	/>
<path fill="#FFFFFF" d="M697.83,180.234l0.629-3.483c1.409,0.387,2.443,1.061,3.113,2.022c0.683,0.957,1.019,2.377,1.019,4.27
	c0,1.705-0.205,2.981-0.61,3.82c-0.408,0.84-0.923,1.433-1.545,1.768c-0.621,0.34-1.771,0.515-3.439,0.515l-4.481-0.04
	c-1.278,0-2.216,0.061-2.824,0.186c-0.604,0.121-1.249,0.352-1.948,0.689l-0.001-3.801c0.256-0.097,0.634-0.223,1.135-0.371
	c0.23-0.061,0.381-0.109,0.453-0.134c-0.638-0.657-1.115-1.358-1.431-2.105c-0.327-0.744-0.482-1.542-0.482-2.392
	c0-1.492,0.403-2.672,1.216-3.532c0.812-0.863,1.838-1.296,3.077-1.296c0.819,0,1.551,0.195,2.193,0.592
	c0.64,0.392,1.135,0.939,1.479,1.647c0.339,0.7,0.638,1.724,0.889,3.053c0.339,1.794,0.651,3.041,0.946,3.73h0.382
	c0.738,0,1.263-0.181,1.579-0.544c0.317-0.368,0.473-1.054,0.473-2.062c0-0.687-0.137-1.218-0.402-1.6
	C698.977,180.78,698.507,180.471,697.83,180.234z M694.714,185.372c-0.163-0.488-0.361-1.269-0.587-2.335
	c-0.228-1.065-0.449-1.764-0.671-2.095c-0.354-0.501-0.808-0.75-1.355-0.75c-0.532,0-0.999,0.202-1.391,0.6
	c-0.394,0.403-0.59,0.911-0.59,1.534c0,0.69,0.23,1.354,0.684,1.982c0.35,0.457,0.771,0.768,1.271,0.918
	c0.325,0.097,0.952,0.146,1.878,0.146H694.714z"/>
</svg>
