<?xml version="1.0" encoding="UTF-8"?>
<!-- Generator: Adobe Illustrator 18.0.0, SVG Export Plug-In . SVG Version: 6.00 Build 0)  -->
<!DOCTYPE svg PUBLIC "-//W3C//DTD SVG 1.1//EN" "http://www.w3.org/Graphics/SVG/1.1/DTD/svg11.dtd">
<svg version="1.1" id="Layer_1" xmlns="http://www.w3.org/2000/svg" xmlns:xlink="http://www.w3.org/1999/xlink" x="0px" y="0px" viewBox="0 0 160 70" style="enable-background:new 0 0 160 70;" xml:space="preserve">
<style type="text/css">
	.st0{fill:#D71921;}
	.st1{fill:#231F20;}
</style>
<g>
	<path class="st0" d="M160,25c-0.8-0.2-1.5-0.3-2.3-0.4c-1.2-0.1-4.5-0.6-7.9,1c0,0,0.1,0,0.1,0c-0.1,0-0.1,0.1-0.2,0.1c0,0,0,0,0,0   c-1.8,0.9-3.7,2.4-5.2,4.9c0-1.9,0-5.2,0-5.2h-14.5v0h0c0,0,0,0,0,0v0l0,0v33.2l0,0v0l0,0h0H145h0V44.2c0-8,6.2-9.3,11-8.8   c1,0.1,3,0.4,4,0.7v0v0l0,0V25z"/>
	<path class="st0" d="M80,27.4c-2.5-2-5.8-2.9-9.3-2.9c-5.6,0-10.5,1.7-13.1,5.3v0v-4.5H43.3l0,0h0l0,0v32.5L27.7,38.2l13.8-12.9   c0,0,0,0-0.1,0l0,0c0,0,0.1,0,0.1,0H24.2c0,0,0,0,0,0l0,0c0,0,0,0,0,0c0,0,0,0,0,0l0,0l-9.4,9.9c0,0,0,0,0,0.1c0,0,0,0,0,0   c0,0,0-0.1,0-0.1V0.7c0,0,0,0,0,0l0,0c0,0,0,0,0,0c0,0,0,0,0,0l0,0h0H0l0,0v57.8l0,0c0,0,0,0,0,0c0,0,0,0,0,0h14.8c0,0,0,0,0,0   c0,0,0,0,0,0c0,0,0,0,0,0c0,0,0,0,0,0v-9.3l2.8-2.5c0,0,0,0,0,0c0,0,0,0,0,0l7.9,11.8h17.8h0.6H58c0,0,0,0,0,0c0,0,0,0,0,0   c0,0,0,0,0,0V41.6c0-0.2,0-0.4,0-0.6c0-0.1,0-0.2,0-0.4c0,0,0,0,0,0c0-0.1,0-0.2,0-0.4c0-0.1,0-0.2,0-0.3c0,0,0-0.1,0-0.1   c0-0.1,0-0.2,0-0.3c0-0.1,0-0.2,0-0.3c0,0,0,0,0,0c0,0,0-0.1,0-0.1c0-0.1,0-0.2,0-0.2c0,0,0,0,0,0c0-0.1,0-0.2,0-0.2c0,0,0,0,0,0   c0,0,0-0.1,0-0.1c0-0.1,0-0.1,0.1-0.2c0-0.1,0-0.1,0.1-0.2c0-0.1,0-0.1,0-0.2c0-0.1,0-0.1,0.1-0.2c0-0.1,0-0.1,0.1-0.2   c0-0.1,0-0.1,0.1-0.1c0-0.1,0.1-0.1,0.1-0.2c0,0,0-0.1,0.1-0.1c0,0,0.1-0.1,0.1-0.1c0,0,0,0,0,0c0-0.1,0.1-0.1,0.1-0.2   c0,0,0.1-0.1,0.1-0.1c0,0,0.1-0.1,0.1-0.1c0,0,0,0,0-0.1c0-0.1,0.1-0.1,0.1-0.1c0,0,0.1-0.1,0.1-0.1c0,0,0.1-0.1,0.1-0.1   c0,0,0,0,0.1-0.1c0,0,0.1-0.1,0.1-0.1c0,0,0.1,0,0.1-0.1c0,0,0.1,0,0.1-0.1c0,0,0.1,0,0.1-0.1c0,0,0,0,0,0c0.1,0,0.1-0.1,0.2-0.1   c0,0,0.1,0,0.1-0.1c0,0,0.1,0,0.1,0c0,0,0,0,0.1,0c0,0,0,0,0.1,0c0.1,0,0.1-0.1,0.2-0.1c0,0,0,0,0.1,0c0,0,0,0,0.1,0c0,0,0,0,0.1,0   c0,0,0,0,0.1,0c0,0,0,0,0.1,0c0.1,0,0.2-0.1,0.2-0.1c0,0,0,0,0.1,0c0,0,0,0,0.1,0c0,0,0,0,0.1,0c0,0,0,0,0.1,0c0,0,0,0,0.1,0   c0,0,0,0,0.1,0c0,0,0,0,0,0c0.1,0,0.2,0,0.3-0.1c0,0,0,0,0,0c0,0,0,0,0.1,0c0,0,0,0,0,0c0,0,0,0,0,0c0,0,0,0,0,0c0,0,0,0,0,0   c0,0,0,0,0,0c0,0,0,0,0,0c0,0,0,0,0,0c0.1,0,0.3,0,0.4,0c0,0,0,0,0,0c0,0,0,0,0,0c0,0,0,0,0,0c0,0,0,0,0,0c0,0,0,0,0,0c0,0,0,0,0,0   c0,0,0,0,0,0c0,0,0,0,0,0c0,0,0,0,0,0c0,0,0,0,0,0c0,0,0,0,0,0c0,0,0,0,0,0c0.2,0,0.5,0,0.7,0c0.2,0,0.5,0,0.7,0c0,0,0.1,0,0.1,0   c0,0,0,0,0.1,0c0,0,0,0,0,0c0,0,0,0,0,0c0,0,0,0,0,0c0,0,0,0,0,0c0.1,0,0.2,0,0.4,0.1c0,0,0,0,0.1,0c0,0,0,0,0.1,0c0,0,0,0,0.1,0   c0,0,0,0,0.1,0c0,0,0,0,0.1,0c0.1,0,0.2,0,0.3,0.1c0,0,0,0,0.1,0c0,0,0.1,0,0.1,0c0,0,0.1,0,0.1,0c0,0,0.1,0,0.1,0   c0.1,0,0.2,0.1,0.2,0.1c0,0,0.1,0,0.1,0c0,0,0.1,0,0.1,0.1c0,0,0.1,0,0.1,0c0.1,0,0.1,0.1,0.2,0.1c0,0,0,0,0.1,0c0,0,0.1,0,0.1,0.1   c0,0,0.1,0,0.1,0.1c0.1,0,0.1,0.1,0.2,0.1c0,0,0.1,0.1,0.1,0.1c0,0,0.1,0.1,0.1,0.1c0.1,0,0.1,0.1,0.1,0.1c0,0,0.1,0.1,0.1,0.1   c0,0,0.1,0.1,0.1,0.1c0,0.1,0.1,0.1,0.1,0.2c0,0,0,0.1,0.1,0.1c0,0.1,0.1,0.1,0.1,0.2c0,0.1,0.1,0.1,0.1,0.2c0,0,0,0.1,0,0.1   c0,0.1,0.1,0.1,0.1,0.2c0,0.1,0.1,0.1,0.1,0.2c0,0,0,0,0,0c0,0.1,0.1,0.1,0.1,0.2c0,0.1,0.1,0.2,0.1,0.3c0,0,0,0,0,0   c0,0.1,0,0.2,0.1,0.2c0,0.1,0,0.2,0.1,0.3c0,0,0,0,0,0c0,0.1,0,0.2,0,0.2c0,0,0,0,0,0.1c0,0.1,0,0.2,0,0.3c0,0.1,0,0.2,0,0.2   c0,0,0,0.1,0,0.1c0,0.1,0,0.2,0,0.3c0,0.1,0,0.1,0,0.2c0,0,0,0.1,0,0.1c0,0.1,0,0.2,0,0.3c0,0.1,0,0.2,0,0.3c0,0.2,0,0.3,0,0.5   v17.5h15.2V36.6C84.1,32.4,82.5,29.4,80,27.4z M43.4,25.4C43.4,25.4,43.4,25.4,43.4,25.4C43.4,25.4,43.4,25.4,43.4,25.4   C43.4,25.4,43.4,25.4,43.4,25.4C43.4,25.4,43.4,25.4,43.4,25.4C43.4,25.4,43.4,25.4,43.4,25.4C43.4,25.4,43.4,25.4,43.4,25.4z    M43.3,25.4C43.3,25.4,43.3,25.4,43.3,25.4C43.3,25.4,43.3,25.4,43.3,25.4C43.3,25.4,43.3,25.4,43.3,25.4z M43.3,25.3   C43.3,25.3,43.3,25.3,43.3,25.3C43.3,25.3,43.3,25.3,43.3,25.3C43.3,25.3,43.3,25.3,43.3,25.3z"/>
	<path class="st0" d="M112,24.4c-4.3,0-9.7,1.1-11.7,5.2l-0.1-4.2c0,0,0,0,0,0c0,0,0,0,0,0l0,0c0,0,0,0,0,0H85.7l0,0V69h14.8V55.2v0   c2.5,2.8,6.8,4.2,10.8,4.2c8.3,0,17.4-4.7,17.4-17.8C128.6,32.5,123.2,24.4,112,24.4z M106.8,50.9c-3.8,0-6.3-3.8-6.3-9.4   c0-5.3,2.7-9,6.3-9c3.9,0,6.5,3,6.5,9.3C113.2,47.3,110.7,50.9,106.8,50.9z"/>
</g>
<g>
	<path class="st1" d="M25.4,10h1.8l6,7.8V10h1.9v11.3h-1.7l-6.2-8v8h-1.9V10z"/>
	<path class="st1" d="M39,10h8.4v1.8H41v2.9h5.7v1.8H41v3h6.5v1.8H39V10z"/>
	<path class="st1" d="M49.7,10h2.1l2.7,8.4l2.8-8.4H59l2.8,8.4l2.7-8.4h2.1l-3.9,11.4h-1.7l-2.8-8.1l-2.8,8.1h-1.7L49.7,10z"/>
	<path class="st1" d="M68.3,19.6l1.2-1.4c1.1,0.9,2.2,1.5,3.6,1.5c1.2,0,2-0.6,2-1.4v0c0-0.8-0.5-1.2-2.5-1.7   c-2.4-0.6-3.8-1.3-3.8-3.4v0c0-1.9,1.6-3.3,3.8-3.3c1.6,0,2.9,0.5,4.1,1.4l-1.1,1.5c-1-0.8-2-1.2-3.1-1.2c-1.2,0-1.8,0.6-1.8,1.3v0   c0,0.9,0.5,1.3,2.7,1.8c2.4,0.6,3.6,1.4,3.6,3.3v0c0,2.1-1.7,3.4-4,3.4C71.3,21.4,69.7,20.8,68.3,19.6z"/>
	<path class="st1" d="M84.4,15.6L84.4,15.6c0-2.5,1.3-4,3.5-5c-1.5-0.9-2.8-2.2-2.8-4.5V6.1c0-3.2,3.1-5.7,7.7-5.7s7.7,2.4,7.7,5.7   v0.1c0,2.2-1.2,3.6-2.8,4.5c2.1,1,3.5,2.3,3.5,4.8v0.1c0,3.7-3.5,6-8.4,6S84.4,19.2,84.4,15.6z M95.7,15.1L95.7,15.1   c0-1.4-1.2-2.3-2.9-2.3c-1.7,0-2.9,0.9-2.9,2.2v0.1c0,1.2,1,2.3,2.9,2.3C94.7,17.4,95.7,16.3,95.7,15.1z M95.3,6.9L95.3,6.9   c0-1.2-1-2.2-2.5-2.2c-1.5,0-2.5,1-2.5,2.2v0.1c0,1.3,1,2.2,2.5,2.2C94.3,9.1,95.3,8.2,95.3,6.9z"/>
	<path class="st1" d="M102.8,15.6L102.8,15.6c0-2.5,1.3-4,3.5-5c-1.5-0.9-2.8-2.2-2.8-4.5V6.1c0-3.2,3.1-5.7,7.7-5.7   c4.6,0,7.7,2.4,7.7,5.7v0.1c0,2.2-1.2,3.6-2.8,4.5c2.1,1,3.5,2.3,3.5,4.8v0.1c0,3.7-3.5,6-8.4,6C106.3,21.6,102.8,19.2,102.8,15.6z    M114.1,15.1L114.1,15.1c0-1.4-1.2-2.3-2.9-2.3c-1.7,0-2.9,0.9-2.9,2.2v0.1c0,1.2,1,2.3,2.9,2.3C113,17.4,114.1,16.3,114.1,15.1z    M113.7,6.9L113.7,6.9c0-1.2-1-2.2-2.5-2.2c-1.5,0-2.5,1-2.5,2.2v0.1c0,1.3,1,2.2,2.5,2.2C112.7,9.1,113.7,8.2,113.7,6.9z"/>
	<path class="st1" d="M121.6,15.6h5.7v5.7h-5.7V15.6z"/>
	<path class="st1" d="M141.1,12.7c-1.3,1.2-2.7,1.7-4.3,1.7c-3.9,0-6.9-2.5-6.9-6.5V7.8c0-4.5,3.5-7.4,8.1-7.4c3,0,4.7,0.8,6.3,2.4   c1.5,1.5,2.4,3.8,2.4,7.6v0.1c0,6.6-3.3,11.2-9.4,11.2c-3.1,0-5.2-1-7.1-2.4l2.7-3.9c1.4,1.1,2.8,1.6,4.4,1.6   C140.2,17,140.9,14.3,141.1,12.7z M141.1,7.7L141.1,7.7c0-1.6-1.1-2.9-2.9-2.9c-1.8,0-2.9,1.2-2.9,2.8v0.1c0,1.5,1.1,2.7,2.9,2.7   C140,10.3,141.1,9.1,141.1,7.7z"/>
</g>
<style xmlns="" type="text/css" id="undefined"/></svg>