<?xml version="1.0" encoding="utf-8"?>
<!-- Generator: Adobe Illustrator 17.1.0, SVG Export Plug-In . SVG Version: 6.00 Build 0)  -->
<!DOCTYPE svg PUBLIC "-//W3C//DTD SVG 1.1//EN" "http://www.w3.org/Graphics/SVG/1.1/DTD/svg11.dtd">
<svg version="1.1" id="Calque_1" xmlns="http://www.w3.org/2000/svg" xmlns:xlink="http://www.w3.org/1999/xlink" x="0px" y="0px"
	 viewBox="0 0 82.9 87" enable-background="new 0 0 82.9 87" xml:space="preserve">
<g id="_x2E_svg">
	<path fill="#E20917" d="M63.4,23.5v8l5.4-1.9c0,0,0,21.1,0,22.2c-0.6,6.4-7.3,4.4-9.5,2.7c-0.7-0.5-5.7-4-5.7-4
		c4.9-1.7,12.5-8,8.7-16.5c-4.7-8.7-13.1-5.8-13.1-5.8l-22.8,8V44l3.3-1.2v11L15.1,40L0,45.3l0,7.9l4.6-1.7V74l-4.5,1.6v8.3l17.2-6
		V59.3l9.5,8.6l24.3-6.5c0,0,3.2,2.6,5.6,4.3c4.1,3,9.1,3.6,14.7,2.1c6.1-1.7,11.4-7.1,11.4-15c0-2.8,0-36.1,0-36.1L63.4,23.5z
		 M48.7,44.1c-1.6,0.6-6.4,2.3-6.4,2.3v-7.6c0,0,3.3-1.2,4.9-1.7c1.6-0.6,3,1,3.1,2.6C50.4,41.1,50.7,43.1,48.7,44.1z M74.5,16.6
		c4.6,0,8.3-3.7,8.3-8.3c0-4.6-3.7-8.3-8.3-8.3c-4.6,0-8.3,3.7-8.3,8.3C66.3,12.9,70,16.6,74.5,16.6z"/>
	<polygon fill="#AF191B" points="12.4,79.5 7,74.1 7.5,71.9 17.3,71.5 17.3,77.8 	"/>
	<path fill="#1D1E1C" d="M82.8,52.3c-0.4,6.3-4.4,11.5-12.9,12c-4,0.3-6.3-1.1-8.3-2.2c-3.6-1.8-9.6-7.2-13.3-8.6
		c-2.7-1.1-6.4-1.5-10.1-0.7c-3.7,0.9-5.8,2.2-7.3,3.3c-1.5,1.2-3.9,3.5-4.5,4.1c-0.6,0.6-2.3,2.6-2.4,2.6c-0.1,0-0.6-0.5-0.8-0.8
		c-0.2-0.3-0.5-0.8-0.6-0.9c-0.2,0-1.1,1.3-1.1,2c-0.1,0.7,0.3,1.7,0.3,2c0,0.2-0.3,0.4-0.4,0.5c-0.1,0-0.8-0.9-0.9-0.9
		c-0.1,0-0.4,0.6-0.5,1c-0.1,0.4,0.1,1.4,0.1,1.4c-0.9,0.7-2.4,1.6-4.1,2c-1.1,0.3-6.3,0.8-6.4,0.9c-0.2,0.1-2.5,2.1-2.5,2.1l0.1,2
		l0.5-0.5l0.9,1.5l0.5-1c0,0,0.7,1,1.1,1.5c0.2-0.8,1.1-2.5,2.4-2.9c1.3-0.5,7.8-0.6,8-0.7c0,0.2-0.4,1.2-0.4,1.2
		c0,0.1,1.4,1.6,1.5,1.6c0.1,0,0.8-0.2,0.9-0.3c0.1,0,0.1-0.2,0.2-0.3c0,0,0.5,0,0.8-0.1c-0.7-0.2-0.7-0.6-0.5-1
		c0.2-0.4,1.2-0.5,1.8-0.1c0.6,0.4,0.9,1,0.6,1.6c-0.2,0.6-1,0.3-1.1,0.3c0.1,0.1,0.6,0.4,0.6,0.5c0,0,0,0.2,0,0.2s0.2,0.2,0.3,0.2
		c0.1,0,2.3-1.2,2.4-1.3c0.2-0.1,0.6-0.6,0.9-1.1c0,0-0.7-0.5-0.7-1.4c0-0.9,0.8-1.4,1.7-1.3c0.9,0.1,1.3,0.9,1.1,1.9
		c-0.2,0.8-4.2,5.4-7.8,7.2c-2.4,1.4-4.5,1.2-4.7,1.2c-0.1,0-2.3,1.9-2.3,1.9l-0.1,1.7l0.4-0.2l0.6,1.7l0.4-0.7l1.3,1.4l0.3-1.2
		l1.6,1.2c0,0,0.1-0.6,0.1-1.1c0.2-0.2,2.7-2.4,2.9-2.6c0.3-0.2,3.8-2,7-4.2c3.6-2.4,7.1-5,7.1-5.6c-0.4-0.4-2.2-2-2.1-3.8
		c0.1-1.8,2.1-3.5,4.5-4.6c2.4-1.1,5.5-0.7,7.6,0.9c1.4,1,7.6,5.2,15.8,4.8c8.6-0.5,13.7-3.3,16.7-8.5
		C83.1,57.1,82.9,53.2,82.8,52.3z"/>
	<polygon fill="#FFFFFF" points="21.8,70.3 22.4,67.8 23.2,68.1 22.2,70.2 	"/>
</g>
<g>
</g>
<g>
</g>
<g>
</g>
<g>
</g>
<g>
</g>
<g>
</g>
<g>
</g>
<g>
</g>
<g>
</g>
<g>
</g>
<g>
</g>
<g>
</g>
<g>
</g>
<g>
</g>
<g>
</g>
</svg>
