<?xml version="1.0" encoding="UTF-8"?>
<!-- Generator: Adobe Illustrator 17.0.0, SVG Export Plug-In . SVG Version: 6.00 Build 0)  -->
<!DOCTYPE svg PUBLIC "-//W3C//DTD SVG 1.1//EN" "http://www.w3.org/Graphics/SVG/1.1/DTD/svg11.dtd">
<svg version="1.1" id="Calque_1" xmlns="http://www.w3.org/2000/svg" xmlns:xlink="http://www.w3.org/1999/xlink" x="0px" y="0px" width="141.062px" height="141.058px" viewBox="0 0 141.062 141.058" enable-background="new 0 0 141.062 141.058" xml:space="preserve">
<rect x="0" y="0" fill="#E2001A" width="141.062" height="141.058"/>
<rect x="0" y="0" fill="none" stroke="#E2001A" stroke-miterlimit="10" width="141.062" height="141.058"/>
<g>
	<path fill="#FFFFFF" d="M70.032,123.435c-0.408,0-0.787-0.047-1.158-0.109c-0.371-0.061-0.725-0.158-1.024-0.305   c-0.312-0.158-0.603-0.369-0.841-0.611c-0.262-0.244-0.428-0.598-0.575-1.027c-0.285,0.109-0.578,0.145-0.865,0.186   c-0.31,0.023-0.615,0.061-0.891,0.061c-0.437,0-0.908-0.061-1.449-0.186c-0.568-0.146-1.074-0.367-1.574-0.695   c-0.48-0.33-0.914-0.795-1.236-1.381c-0.348-0.602-0.506-1.357-0.506-2.273c0-0.93,0.144-1.686,0.48-2.336   c0.311-0.635,0.733-1.125,1.239-1.539c0.511-0.402,1.078-0.67,1.718-0.857c0.61-0.182,1.219-0.291,1.823-0.291h4.244v7.467   c0,0.391,0.049,0.684,0.14,0.809c0.104,0.135,0.334,0.195,0.708,0.195h0.603c0.104,0,0.236,0.023,0.359,0.049   c0.127,0.023,0.225,0.084,0.311,0.158c0.098,0.098,0.172,0.244,0.219,0.44c0.037,0.158,0.068,0.43,0.068,0.734   c0,0.584-0.068,0.953-0.25,1.186c-0.135,0.195-0.396,0.328-0.707,0.328H70.032z M61.557,107.927c0-0.5,0.184-0.906,0.561-1.248   c0.33-0.354,0.75-0.512,1.232-0.512c0.483,0,0.891,0.158,1.233,0.512c0.359,0.342,0.541,0.748,0.541,1.248   c0,0.486-0.182,0.893-0.541,1.246c-0.342,0.342-0.75,0.523-1.233,0.523c-0.482,0-0.902-0.182-1.232-0.523   C61.741,108.819,61.557,108.413,61.557,107.927 M63.083,116.909c0,0.219,0.011,0.426,0.072,0.635   c0.037,0.223,0.135,0.43,0.275,0.611c0.11,0.158,0.317,0.305,0.53,0.428c0.22,0.121,0.5,0.158,0.873,0.158   c0.218,0,0.426,0,0.638-0.012c0.233-0.025,0.457-0.074,0.702-0.146v-3.42h-1.256c-0.616,0-1.073,0.147-1.389,0.475   C63.229,115.968,63.083,116.397,63.083,116.909 M65.655,107.927c0-0.5,0.141-0.906,0.518-1.248   c0.347-0.354,0.755-0.512,1.232-0.512c0.506,0,0.914,0.158,1.25,0.512c0.348,0.342,0.529,0.748,0.529,1.248   c0,0.486-0.181,0.893-0.529,1.246c-0.336,0.342-0.744,0.523-1.25,0.523c-0.477,0-0.885-0.182-1.232-0.523   C65.796,108.819,65.655,108.413,65.655,107.927"/>
	<path fill="#FFFFFF" d="M79.786,123.435c-0.225,0-0.492-0.023-0.742-0.061c-0.264-0.023-0.531-0.109-0.781-0.195   c-0.244-0.097-0.482-0.242-0.701-0.381c-0.213-0.182-0.414-0.389-0.572-0.658c-0.19,0.305-0.434,0.512-0.721,0.699   c-0.285,0.182-0.578,0.305-0.889,0.389c-0.312,0.063-0.641,0.146-0.982,0.146c-0.359,0.037-0.701,0.061-1.012,0.061h-2.518   c-0.135,0-0.256-0.023-0.379-0.061c-0.115,0-0.225-0.083-0.322-0.17c-0.074-0.098-0.158-0.221-0.207-0.406   c-0.043-0.182-0.069-0.438-0.069-0.744c0-0.562,0.069-0.979,0.238-1.186c0.146-0.219,0.385-0.327,0.738-0.327h1.986   c0.555,0,0.939-0.075,1.184-0.233c0.225-0.197,0.322-0.576,0.322-1.209v-5.613h3.275v5.342c0,0.611,0.145,1.062,0.469,1.332   c0.322,0.258,0.877,0.382,1.682,0.382c0.141,0,0.264,0.022,0.385,0.048c0.115,0.023,0.227,0.084,0.311,0.159   c0.086,0.097,0.172,0.243,0.215,0.439c0.035,0.158,0.072,0.43,0.072,0.734c0,0.584-0.092,0.953-0.238,1.186   C80.384,123.302,80.122,123.435,79.786,123.435 M71.501,127.603c0-0.488,0.184-0.902,0.531-1.246   c0.353-0.354,0.762-0.524,1.244-0.524c0.48,0,0.889,0.171,1.244,0.524c0.365,0.344,0.535,0.758,0.535,1.246   c0,0.479-0.17,0.906-0.535,1.246c-0.355,0.354-0.764,0.541-1.244,0.541c-0.482,0-0.891-0.188-1.244-0.541   C71.685,128.509,71.501,128.082,71.501,127.603 M75.567,127.603c0-0.488,0.172-0.902,0.52-1.246   c0.365-0.354,0.773-0.524,1.262-0.524c0.48,0,0.891,0.171,1.238,0.524c0.346,0.344,0.529,0.758,0.529,1.246   c0,0.479-0.184,0.906-0.529,1.246c-0.348,0.354-0.758,0.541-1.238,0.541c-0.488,0-0.896-0.188-1.262-0.541   C75.739,128.509,75.567,128.082,75.567,127.603"/>
	<path fill="#FFFFFF" d="M82.677,120.54v-14.949h3.219v17.845h-6.109c-0.127,0-0.262-0.024-0.383-0.062   c-0.109,0-0.213-0.084-0.287-0.17c-0.098-0.098-0.184-0.221-0.219-0.406c-0.062-0.182-0.074-0.438-0.074-0.744   c0-0.562,0.074-0.979,0.232-1.186c0.158-0.219,0.396-0.328,0.731-0.328H82.677z"/>
	<path fill="#FFFFFF" d="M98.009,121.921c0,1.16-0.158,2.16-0.463,3.029c-0.299,0.809-0.756,1.504-1.408,2.055   c-0.621,0.561-1.451,0.963-2.457,1.234c-1.029,0.244-2.213,0.365-3.652,0.365h-0.756v-3.029h0.592c0.885,0,1.629-0.072,2.244-0.186   c0.604-0.123,1.078-0.281,1.439-0.488c0.371-0.207,0.627-0.451,0.791-0.73c0.158-0.309,0.256-0.639,0.305-0.992   c-0.506,0.172-1.109,0.256-1.834,0.256c-0.652,0-1.281-0.084-1.865-0.268c-0.58-0.158-1.08-0.441-1.512-0.807   c-0.422-0.379-0.764-0.857-1.014-1.443c-0.256-0.598-0.371-1.318-0.371-2.127c0-0.684,0.115-1.332,0.348-1.99   c0.219-0.637,0.543-1.199,0.951-1.738c0.42-0.512,0.957-0.914,1.598-1.231c0.621-0.309,1.359-0.467,2.207-0.467   c0.902,0,1.658,0.158,2.305,0.467c0.627,0.328,1.115,0.756,1.492,1.356c0.373,0.549,0.635,1.248,0.805,2.027   c0.158,0.795,0.256,1.674,0.256,2.615V121.921z M91.243,118.485c0,0.855,0.17,1.418,0.492,1.686   c0.336,0.309,0.805,0.455,1.379,0.455c0.67,0,1.238-0.123,1.646-0.367v-1.209c0-0.832-0.117-1.531-0.373-2.006   c-0.25-0.525-0.695-0.771-1.334-0.771c-0.672,0-1.117,0.223-1.414,0.648C91.376,117.372,91.243,117.888,91.243,118.485"/>
	<path fill="#FFFFFF" d="M111.062,123.435c-0.486,0-0.92-0.023-1.242-0.084c-0.348-0.061-0.629-0.123-0.891-0.221   c-0.25-0.109-0.469-0.23-0.695-0.404c-0.201-0.158-0.434-0.342-0.67-0.561c-0.482,0.561-0.988,0.916-1.555,1.039   c-0.574,0.147-1.158,0.231-1.81,0.231h-4.359v-2.895h4.949c0.41,0,0.709-0.061,0.879-0.172c0.213-0.122,0.305-0.295,0.305-0.465   c0-0.16-0.08-0.379-0.238-0.646c-0.176-0.27-0.451-0.723-0.883-1.332l-2.281-3.375l2.963-1.904l3.012,5.072   c0.311,0.535,0.581,0.986,0.818,1.381c0.242,0.34,0.443,0.633,0.639,0.854c0.178,0.207,0.359,0.367,0.531,0.465   c0.164,0.086,0.348,0.123,0.529,0.123c0.146,0,0.258,0.023,0.379,0.049c0.115,0.023,0.213,0.084,0.299,0.157   c0.098,0.099,0.17,0.245,0.219,0.441c0.043,0.158,0.068,0.43,0.068,0.734c0,0.584-0.068,0.953-0.238,1.186   C111.63,123.302,111.403,123.435,111.062,123.435"/>
	<path fill="#FFFFFF" d="M113.921,120.54v-14.949h3.244v17.845h-6.104c-0.127,0-0.256-0.024-0.389-0.062   c-0.104,0-0.215-0.084-0.313-0.17c-0.071-0.098-0.157-0.221-0.218-0.406c-0.037-0.182-0.066-0.438-0.066-0.744   c0-0.562,0.092-0.979,0.25-1.186c0.146-0.219,0.383-0.328,0.736-0.328H113.921z"/>
	<rect x="120.194" y="105.591" fill="#FFFFFF" width="3.244" height="17.844"/>
	<path fill="#FFFFFF" d="M26.54,92.445c-0.238,1.799-0.988,3.107-2.244,3.949c-1.244,0.818-3.133,1.221-5.666,1.221h-0.797v-3.029   h0.589c0.905,0,1.624-0.049,2.21-0.158c0.592-0.086,1.049-0.245,1.42-0.43c0.373-0.184,0.652-0.428,0.83-0.672   c0.201-0.242,0.311-0.562,0.365-0.881h-1.554c-0.725,0-1.403-0.084-2.006-0.268c-0.647-0.158-1.191-0.426-1.639-0.809   c-0.465-0.377-0.818-0.853-1.068-1.441c-0.23-0.598-0.371-1.32-0.371-2.125c0-0.686,0.127-1.332,0.347-1.992   c0.201-0.623,0.544-1.199,0.981-1.734c0.446-0.516,0.982-0.918,1.617-1.223c0.639-0.318,1.365-0.479,2.187-0.479   c0.903,0,1.665,0.16,2.293,0.479c0.633,0.316,1.104,0.744,1.506,1.344c0.377,0.549,0.653,1.246,0.823,2.027   c0.152,0.795,0.261,1.676,0.261,2.615v0.711h1.812c0.133,0,0.242,0.023,0.365,0.049c0.115,0.023,0.225,0.085,0.311,0.158   c0.097,0.109,0.183,0.244,0.212,0.439c0.049,0.16,0.075,0.43,0.075,0.734c0,0.588-0.075,0.953-0.227,1.186   c-0.158,0.195-0.396,0.328-0.736,0.328H26.54z M19.845,87.496c0,0.795,0.178,1.32,0.506,1.627c0.355,0.293,0.812,0.428,1.367,0.428   h1.652v-1.49c0-0.797-0.123-1.443-0.379-1.982c-0.261-0.512-0.707-0.793-1.408-0.793c-0.604,0-1.06,0.221-1.316,0.635   C19.986,86.35,19.845,86.861,19.845,87.496"/>
	<path fill="#FFFFFF" d="M31.319,89.551V74.602h3.244v17.844h-6.115c-0.129,0-0.256-0.023-0.379-0.061   c-0.109,0-0.213-0.086-0.299-0.17c-0.084-0.098-0.158-0.221-0.207-0.402c-0.072-0.184-0.072-0.443-0.072-0.748   c0-0.561,0.072-0.979,0.219-1.186c0.17-0.219,0.408-0.328,0.738-0.328H31.319z"/>
	<path fill="#FFFFFF" d="M39.317,83.598h3.244v7.432c0,1.209-0.109,2.214-0.275,3.053c-0.182,0.834-0.506,1.506-0.963,2.02   c-0.463,0.535-1.104,0.904-1.897,1.148c-0.816,0.219-1.834,0.365-3.078,0.365v-3.029c0.678-0.037,1.207-0.098,1.592-0.244   c0.385-0.121,0.695-0.344,0.908-0.637c0.184-0.281,0.311-0.621,0.36-1.076c0.06-0.451,0.109-0.988,0.109-1.6V83.598z"/>
	<path fill="#FFFFFF" d="M51.425,90.932c0,0.588-0.072,0.953-0.225,1.186c-0.146,0.195-0.408,0.328-0.75,0.328h-1.023   c-0.592,0-1.086-0.061-1.555-0.207c-0.482-0.121-0.902-0.327-1.244-0.609c-0.342-0.295-0.615-0.697-0.799-1.174   c-0.177-0.49-0.273-1.076-0.273-1.773v-14.08h3.242V88.23c0,0.572,0.098,0.941,0.305,1.1c0.22,0.158,0.519,0.221,0.89,0.221h0.457   c0.147,0,0.268,0.023,0.397,0.049c0.109,0.023,0.207,0.084,0.316,0.158c0.086,0.109,0.153,0.244,0.19,0.439   C51.402,90.357,51.425,90.627,51.425,90.932"/>
	<path fill="#FFFFFF" d="M56.267,89.551c0.348,0,0.676-0.062,0.994-0.195c0.322-0.123,0.457-0.43,0.457-0.869   c0-0.305-0.172-0.707-0.555-1.197c-0.373-0.514-0.859-1.064-1.488-1.613c-0.603-0.572-1.299-1.137-2.084-1.711   c-0.787-0.551-1.58-1.039-2.367-1.441c0.092-0.562,0.25-1.014,0.402-1.359c0.155-0.365,0.313-0.646,0.483-0.853   c0.164-0.231,0.336-0.391,0.494-0.49c0.152-0.109,0.287-0.195,0.385-0.244l8.705-3.85v3.361L55.81,81.51v0.109   c0.994,0.633,1.834,1.271,2.457,1.904c0.652,0.637,1.188,1.26,1.572,1.836c0.385,0.598,0.664,1.174,0.805,1.723   c0.158,0.523,0.219,1.039,0.219,1.514c0,0.395-0.047,0.82-0.159,1.271c-0.097,0.454-0.31,0.858-0.632,1.245   c-0.305,0.392-0.762,0.7-1.336,0.944c-0.573,0.242-1.336,0.389-2.256,0.389h-6.041c-0.129,0-0.262-0.023-0.373-0.061   c-0.11,0-0.225-0.086-0.311-0.17c-0.084-0.098-0.17-0.221-0.218-0.402c-0.038-0.184-0.075-0.443-0.075-0.748   c0-0.561,0.075-0.979,0.244-1.186c0.147-0.219,0.409-0.328,0.733-0.328H56.267z"/>
	<path fill="#FFFFFF" d="M91.735,92.445c-0.469,0-0.949-0.084-1.443-0.242c-0.477-0.147-0.873-0.514-1.166-1.053   c-0.201,0.305-0.457,0.516-0.718,0.697c-0.263,0.184-0.567,0.307-0.884,0.391c-0.324,0.061-0.652,0.146-0.977,0.146   c-0.359,0.037-0.701,0.061-1.023,0.061H74.556c-0.975,0-1.816-0.084-2.486-0.23c-0.652-0.123-1.184-0.367-1.592-0.695   c-0.408-0.309-0.67-0.697-0.854-1.197c-0.158-0.492-0.244-1.09-0.244-1.836v-4.105h3.25v3.654c0,0.342,0.037,0.598,0.127,0.781   c0.086,0.186,0.232,0.355,0.439,0.453c0.227,0.123,0.512,0.207,0.865,0.244c0.373,0.037,0.836,0.037,1.416,0.037h9.498   c0.561,0,0.957-0.074,1.188-0.232c0.215-0.195,0.324-0.576,0.324-1.211V82.5h3.268v5.34c0,0.609,0.121,1.061,0.371,1.332   c0.275,0.256,0.805,0.379,1.609,0.379c0.135,0,0.25,0.023,0.373,0.049c0.121,0.023,0.23,0.084,0.322,0.158   c0.074,0.109,0.146,0.244,0.207,0.439c0.049,0.16,0.074,0.43,0.074,0.734c0,0.588-0.074,0.953-0.232,1.186   C92.327,92.313,92.083,92.445,91.735,92.445 M75.665,79.625c0-0.488,0.184-0.891,0.531-1.234c0.348-0.354,0.756-0.537,1.23-0.537   c0.482,0,0.922,0.184,1.27,0.537c0.348,0.344,0.529,0.746,0.529,1.234c0,0.479-0.182,0.893-0.529,1.26   c-0.348,0.344-0.787,0.514-1.27,0.514c-0.475,0-0.883-0.17-1.23-0.514C75.849,80.518,75.665,80.104,75.665,79.625 M79.72,79.625   c0-0.488,0.207-0.891,0.531-1.234c0.354-0.354,0.773-0.537,1.268-0.537c0.482,0,0.891,0.184,1.23,0.537   c0.361,0.344,0.531,0.746,0.531,1.234c0,0.479-0.17,0.893-0.531,1.26c-0.34,0.344-0.748,0.514-1.23,0.514   c-0.494,0-0.914-0.17-1.268-0.514C79.927,80.518,79.72,80.104,79.72,79.625"/>
	<path fill="#FFFFFF" d="M94.56,89.551V82.5h3.242v9.945H91.7c-0.135,0-0.281-0.023-0.373-0.061c-0.121,0-0.23-0.086-0.316-0.17   c-0.092-0.098-0.164-0.221-0.213-0.402c-0.049-0.184-0.074-0.443-0.074-0.748c0-0.561,0.074-0.979,0.232-1.186   c0.152-0.219,0.408-0.328,0.744-0.328H94.56z M94.376,78.184c0-0.463,0.17-0.906,0.506-1.248c0.348-0.354,0.775-0.512,1.256-0.512   c0.469,0,0.885,0.158,1.244,0.512c0.348,0.342,0.518,0.785,0.518,1.248c0,0.49-0.17,0.904-0.518,1.246   c-0.359,0.342-0.775,0.539-1.244,0.539c-0.48,0-0.908-0.197-1.256-0.539C94.546,79.088,94.376,78.674,94.376,78.184"/>
	<path fill="#FFFFFF" d="M109.831,92.445c-0.227,1.799-0.988,3.107-2.232,3.949c-1.248,0.818-3.133,1.221-5.645,1.221h-0.793v-3.029   h0.574c0.883,0,1.609-0.049,2.176-0.158c0.586-0.086,1.049-0.245,1.457-0.43c0.365-0.184,0.652-0.428,0.822-0.672   c0.178-0.242,0.312-0.562,0.348-0.881h-1.56c-0.719,0-1.396-0.084-2-0.268c-0.639-0.158-1.158-0.426-1.604-0.809   c-0.443-0.377-0.822-0.853-1.055-1.441c-0.236-0.598-0.371-1.32-0.371-2.125c0-0.686,0.109-1.332,0.348-1.992   c0.207-0.623,0.537-1.199,0.969-1.734c0.428-0.516,0.977-0.918,1.592-1.223c0.635-0.318,1.354-0.479,2.17-0.479   c0.908,0,1.684,0.16,2.293,0.479c0.627,0.316,1.141,0.744,1.512,1.344c0.385,0.549,0.676,1.246,0.828,2.027   c0.172,0.795,0.244,1.676,0.244,2.615v0.711h1.836c0.121,0,0.238,0.023,0.371,0.049c0.109,0.023,0.207,0.085,0.305,0.158   c0.092,0.109,0.152,0.244,0.201,0.439c0.049,0.16,0.086,0.43,0.086,0.734c0,0.588-0.086,0.953-0.244,1.186   c-0.164,0.195-0.383,0.328-0.719,0.328H109.831z M103.149,87.496c0,0.795,0.158,1.32,0.506,1.627   c0.353,0.293,0.787,0.428,1.359,0.428h1.646v-1.49c0-0.797-0.123-1.443-0.373-1.982c-0.244-0.512-0.719-0.793-1.402-0.793   c-0.603,0-1.047,0.221-1.334,0.635C103.271,86.35,103.149,86.861,103.149,87.496"/>
	<path fill="#FFFFFF" d="M113.038,89.551c0.195,0,0.463-0.158,0.744-0.488c0.299-0.32,0.56-0.82,0.791-1.457   c0.361-0.939,0.769-1.734,1.166-2.344c0.432-0.637,0.889-1.125,1.346-1.49c0.471-0.395,0.939-0.639,1.408-0.809   c0.465-0.135,0.934-0.219,1.379-0.219c0.635,0,1.25,0.146,1.811,0.389c0.572,0.221,1.043,0.598,1.457,1.041   c0.408,0.451,0.725,0.99,0.969,1.611c0.227,0.65,0.336,1.332,0.336,2.08c0,1.514-0.348,2.676-1.092,3.553   c-0.719,0.881-1.84,1.309-3.34,1.309c-0.672,0-1.336-0.098-2.037-0.281c-0.676-0.206-1.371-0.561-2.103-1.027   c-0.42,0.467-0.877,0.76-1.334,0.857c-0.434,0.109-0.939,0.17-1.463,0.17h-1.324c-0.135,0-0.262-0.023-0.371-0.061   c-0.109,0-0.221-0.086-0.318-0.17c-0.078-0.098-0.152-0.221-0.207-0.402c-0.049-0.184-0.072-0.443-0.072-0.748   c0-0.561,0.072-0.979,0.238-1.186c0.152-0.219,0.395-0.328,0.73-0.328H113.038z M121.298,87.803c0-0.258-0.049-0.514-0.104-0.758   c-0.061-0.244-0.158-0.488-0.279-0.658c-0.129-0.211-0.287-0.346-0.482-0.492c-0.213-0.121-0.482-0.182-0.779-0.182   c-0.434,0-0.867,0.244-1.342,0.697c-0.457,0.488-0.83,1.309-1.086,2.479c0.408,0.234,0.799,0.441,1.172,0.601   c0.389,0.171,0.797,0.231,1.219,0.231c0.529,0,0.951-0.17,1.225-0.537C121.134,88.84,121.298,88.377,121.298,87.803"/>
	<polygon fill="#FFFFFF" points="17.64,17.661 35.463,17.661 39.09,44.519 39.213,44.519 43.208,17.661 60.663,17.661    60.663,61.545 49.108,61.545 49.108,29.585 48.985,29.585 43.577,61.545 34.726,61.545 29.317,29.585 29.195,29.585 29.195,61.545    17.64,61.545  "/>
	<path fill="#FFFFFF" d="M92.157,45.884c-0.059,0.821-0.117,1.701-0.176,2.522c-0.411,8.037-3.109,14.195-12.259,14.195   c-13.491,0-14.372-8.564-14.372-20.295V36.03c0.353-11.203,1.233-19.532,14.372-19.532c7.332,0.117,11.438,3.871,12.024,11.379   c0.117,1.114,0.234,2.23,0.176,3.344h-8.095c-0.352-2.816-0.059-8.095-4.106-8.095c-6.452,0-5.925,7.684-5.925,11.086v12.2   c0,3.637,0.295,9.561,5.925,9.561c4.517,0,3.988-7.274,4.163-10.089H92.157z"/>
	<path fill="#FFFFFF" d="M124.248,39.628c-0.001-0.005-0.001-0.075-0.001-0.081c-0.281-8.589-1.695-17.511-8.351-20.735   c-1.876-0.804-4.146-1.259-6.898-1.259H96.915v43.99h12.082c2.761,0,5.036-0.457,6.916-1.266   C122.551,57.05,123.965,48.208,124.248,39.628 M109.585,57.146h-7.802v-0.001h-0.001V21.953h7.802c0.479,0,0.938,0.028,1.381,0.077   c0.039,0.005,0.073,0.013,0.111,0.017c5.91,0.716,8.131,5.942,8.146,17.478c-0.015,11.588-2.229,16.82-8.161,17.528   c-0.032,0.004-0.061,0.012-0.094,0.016C110.524,57.118,110.065,57.146,109.585,57.146"/>
</g>
</svg>