<?xml version="1.0" encoding="UTF-8"?>
<!-- Generator: Adobe Illustrator 24.2.1, SVG Export Plug-In . SVG Version: 6.00 Build 0)  -->
<svg version="1.1" id="Layer_1" xmlns="http://www.w3.org/2000/svg" xmlns:xlink="http://www.w3.org/1999/xlink" x="0px" y="0px" viewBox="0 0 163.25 56" style="enable-background:new 0 0 163.25 56;" xml:space="preserve">
<style type="text/css">
	.st0{fill:#5C666F;}
	.st1{fill:#EA6903;}
</style>
<g id="georgian">
	<g id="Georgian_RGB">
		<path class="st0" d="M50.46,30.56h-2.28l0.12-0.19c0.85-1.24,1.36-2.69,1.46-4.2c0.03-0.53-0.11-1.06-0.39-1.51    c-0.25-0.4-0.68-0.63-1.15-0.61c-0.4-0.02-0.8,0.13-1.08,0.42c-0.28,0.29-0.43,0.69-0.41,1.1v2.33h-2.12v-2.33    c0.02-0.41-0.13-0.81-0.41-1.1c-0.28-0.29-0.67-0.44-1.07-0.42c-0.47-0.02-0.92,0.22-1.16,0.62c-0.27,0.45-0.4,0.97-0.38,1.5    c0.1,1.51,0.61,2.96,1.46,4.2l0.11,0.19h-2.28V30.5c-0.94-1.44-1.48-3.12-1.55-4.84c0-3,1.76-5.12,5.24-6.39    c0.54-0.16,1.39-0.47,2.53-0.93c1-0.45,1.46-1,1.46-1.64v-0.12h2.42v0.13c-0.08,1.1-0.62,2.11-1.5,2.77    c-0.89,0.56-1.85,0.98-2.86,1.26c-0.9,0.3-1.54,0.52-1.9,0.67c-0.5,0.2-0.99,0.45-1.44,0.75l0,0c0.94,0,1.83,0.41,2.44,1.13    c0.69-0.76,1.68-1.17,2.7-1.13c1.06-0.04,2.07,0.42,2.74,1.23c0.66,0.76,1.01,1.73,1,2.74c-0.1,1.58-0.65,3.09-1.58,4.37    L50.46,30.56z M57.17,30.93c-0.95,0.02-1.87-0.25-2.66-0.78c-0.84-0.53-1.35-1.46-1.34-2.45c0.01-0.63,0.17-1.25,0.47-1.8v-0.07    h2.45L56,26c-0.32,0.51-0.51,1.09-0.55,1.69c-0.03,0.39,0.14,0.76,0.45,1c0.35,0.25,0.78,0.38,1.22,0.36    c0.48,0.01,0.95-0.17,1.3-0.5c0.36-0.3,0.58-0.74,0.58-1.21c-0.01-0.69-0.39-1.33-1-1.66l-1.84-1c-0.66-0.4-1.06-1.12-1.06-1.89    c0.01-0.36,0.07-0.71,0.16-1.06v-0.1h2.34v0.14c-0.08,0.55-0.09,0.69-0.09,0.72c-0.01,0.3,0.13,0.58,0.37,0.76    c0.27,0.18,0.55,0.33,0.84,0.47c0.68,0.31,1.29,0.75,1.81,1.28c0.51,0.62,0.78,1.41,0.75,2.21c0.04,1.08-0.43,2.12-1.28,2.79    C59.19,30.63,58.19,30.96,57.17,30.93z M74.69,35.78h-2.55v-0.09c-0.09-0.66-0.42-1.27-0.94-1.69c-1.31-0.89-2.88-1.32-4.46-1.21    c-1.25,0.01-2.49,0.15-3.71,0.4h-0.15v-2.31H64c-1.04-1.07-1.59-2.51-1.53-4c-0.03-1.12,0.28-2.23,0.89-3.17    c0.65-1.02,1.79-1.62,3-1.57c0.87-0.03,1.72,0.34,2.29,1c0.75-0.67,1.73-1.02,2.74-1c1.14-0.04,2.24,0.42,3,1.27    c0.7,0.84,1.06,1.91,1,3c0.04,1.12-0.38,2.21-1.18,3c-0.83,0.77-1.94,1.18-3.07,1.13c-1.03,0.03-2.03-0.36-2.78-1.07    c-0.74-0.7-1.14-1.68-1.12-2.69c0.01-0.6,0.06-1.19,0.16-1.78c-0.07-0.25-0.22-0.47-0.41-0.64c-0.19-0.19-0.45-0.29-0.72-0.3    c-1,0-1.52,0.91-1.52,2.78c-0.14,1.34,0.51,2.63,1.66,3.32c1.22,0.41,2.46,0.75,3.72,1c1.42,0.26,2.71,0.99,3.67,2.07    c0.49,0.71,0.79,1.53,0.87,2.39L74.69,35.78z M71.36,24.05c-1.21,0-1.79,0.8-1.79,2.46c0,1.44,0.54,2.14,1.66,2.14    c0.55,0.02,1.07-0.22,1.41-0.65c0.34-0.47,0.5-1.04,0.47-1.62C73.11,24.83,72.53,24.05,71.36,24.05z M83.36,30.56h-2.54l0.15-0.2    c0.91-1.11,1.43-2.5,1.46-3.94c0.03-0.59-0.12-1.18-0.43-1.68c-0.32-0.45-0.84-0.71-1.39-0.69c-0.55-0.02-1.08,0.25-1.4,0.7    c-0.33,0.49-0.5,1.08-0.48,1.67c0.04,1.44,0.55,2.83,1.46,3.94l0.15,0.2h-2.61l0,0c-0.85-1.19-1.31-2.61-1.31-4.07    c-0.02-1.11,0.4-2.19,1.17-3c1.67-1.67,4.39-1.67,6.06,0c0.74,0.82,1.15,1.89,1.12,3c0.01,1.46-0.45,2.89-1.32,4.07L83.36,30.56z     M96.87,30.56h-2.25l0.11-0.19c0.85-1.24,1.36-2.69,1.47-4.2c0.03-0.53-0.11-1.06-0.39-1.51c-0.25-0.39-0.69-0.63-1.16-0.61    c-0.4-0.02-0.79,0.14-1.08,0.42c-0.28,0.3-0.42,0.69-0.4,1.1v2.33h-2.12v-2.33c0.02-0.41-0.13-0.8-0.41-1.1    c-0.28-0.29-0.67-0.44-1.07-0.42c-0.47-0.02-0.92,0.22-1.16,0.62c-0.27,0.45-0.4,0.97-0.38,1.5c0.1,1.5,0.6,2.95,1.45,4.2    l0.11,0.19h-2.28V30.5c-0.89-1.3-1.43-2.8-1.56-4.37c-0.02-1.02,0.33-2.01,1-2.78c1.4-1.49,3.74-1.57,5.23-0.17    c0.06,0.05,0.12,0.11,0.17,0.17c0.74-0.79,1.77-1.22,2.85-1.19c1.04-0.03,2.03,0.44,2.65,1.28c0.59,0.77,0.9,1.72,0.88,2.69    c-0.1,1.58-0.65,3.09-1.57,4.37L96.87,30.56z M43.66,50.36c-2.46-0.05-4.42-2.08-4.37-4.55c0.02-1.14,0.48-2.22,1.27-3.03    c0.89-0.81,2.05-1.23,3.25-1.19c0.98,0,1.92,0.33,2.68,0.95c0.74-0.63,1.68-0.96,2.65-0.95C50.22,41.56,51.27,42,52,42.8    c0.68,0.78,1.04,1.8,1,2.84c-0.01,1.62-0.64,3.18-1.76,4.36l0,0h-2.71l0.19-0.21c1.19-1.1,1.91-2.62,2-4.24    c0.03-0.52-0.13-1.04-0.43-1.47c-0.28-0.39-0.75-0.61-1.23-0.59c-0.53-0.02-1.05,0.19-1.42,0.58c0.23,0.62,0.35,1.27,0.36,1.93    c0.05,1.16-0.38,2.3-1.17,3.15C45.99,49.99,44.84,50.43,43.66,50.36z M43.72,43.48c-1.43,0-2.13,0.82-2.13,2.51    s0.68,2.47,2.07,2.47s2-0.92,2-2.81c0.03-0.57-0.15-1.12-0.51-1.56C44.79,43.68,44.27,43.45,43.72,43.48z M58.12,50.36    c-0.95,0.02-1.88-0.26-2.66-0.79c-0.85-0.52-1.36-1.45-1.34-2.45c0.01-0.62,0.17-1.24,0.46-1.79v-0.07h2.45l-0.1,0.18    c-0.31,0.51-0.5,1.08-0.55,1.68c-0.03,0.39,0.14,0.77,0.46,1c0.35,0.26,0.78,0.39,1.21,0.37c0.48,0.01,0.95-0.17,1.3-0.5    c0.34-0.3,0.54-0.73,0.53-1.19c0.02-0.68-0.31-1.32-0.88-1.69l-1.84-1c-0.63-0.42-1.01-1.13-1-1.89c0.01-0.36,0.06-0.72,0.15-1.07    v-0.09h2.28v0.14c-0.08,0.55-0.09,0.69-0.09,0.72c-0.01,0.3,0.13,0.58,0.37,0.76c0,0,0.19,0.12,0.84,0.47    c0.69,0.32,1.32,0.77,1.84,1.33c0.51,0.62,0.78,1.41,0.75,2.21c0.01,1.06-0.47,2.06-1.3,2.71C60.19,50.06,59.16,50.4,58.12,50.36z     M67.17,55.57c-1.06,0.04-2.11-0.31-2.92-1c-0.83-0.7-1.29-1.75-1.25-2.84c0.02-0.93,0.26-1.84,0.71-2.65v-0.06h2.4l-0.09,0.17    c-0.43,0.8-0.68,1.68-0.74,2.58c-0.03,0.51,0.16,1.01,0.52,1.38c0.38,0.35,0.88,0.53,1.39,0.51c0.62,0.06,1.21-0.27,1.48-0.83    c0.25-0.66,0.37-1.36,0.33-2.06v-1.13c0-0.93-0.4-1.39-1.24-1.39h-1v-1.89h1.11c0.32-0.01,0.62-0.18,0.8-0.45    c0.22-0.31,0.34-0.69,0.33-1.07c0.02-0.38-0.12-0.74-0.4-1c-0.28-0.24-0.63-0.37-1-0.36c-1.16,0-1.73,0.52-1.73,1.59    c0.03,0.45,0.13,0.89,0.3,1.31l0.06,0.17h-2.46v-0.09c-0.14-0.43-0.23-0.88-0.25-1.33c-0.05-1.04,0.41-2.05,1.23-2.69    c0.81-0.59,1.79-0.89,2.79-0.85c0.92-0.03,1.82,0.25,2.56,0.79c1.36,1.04,1.61,2.98,0.58,4.33c-0.17,0.22-0.36,0.41-0.58,0.58    c0.85,0.61,1.28,1.78,1.28,3.48C71.34,54,69.94,55.57,67.17,55.57z M79.5,50h-2.57l0.15-0.2c0.92-1.11,1.44-2.5,1.47-3.94    c0.02-0.6-0.14-1.19-0.48-1.68c-0.31-0.45-0.83-0.71-1.38-0.69c-0.56-0.02-1.09,0.24-1.41,0.7c-0.33,0.49-0.49,1.08-0.47,1.67    c0.04,1.44,0.55,2.82,1.45,3.94l0.15,0.2h-2.56v-0.06c-0.85-1.18-1.31-2.6-1.31-4.06c-0.01-1.12,0.41-2.19,1.18-3    c1.67-1.67,4.39-1.67,6.06,0c0.74,0.82,1.14,1.89,1.11,3c0.01,1.46-0.45,2.89-1.32,4.07L79.5,50z M86.32,50.37    c-2.72,0-4.11-1.51-4.11-4.49V37.4c-0.05-0.42-0.16-0.84-0.33-1.23L81.82,36h2.51v9.87c-0.06,0.69,0.09,1.39,0.43,2    c0.43,0.47,1.07,0.7,1.7,0.63c1.02,0.09,1.91-0.67,2-1.69c0.01-0.1,0.01-0.21,0-0.31c0.01-0.47-0.15-0.93-0.46-1.28l-0.87-0.81    c-0.3-0.25-0.49-0.61-0.52-1c0.01-0.6,0.2-1.18,0.55-1.67v-0.05l2.25-0.1l-0.09,0.18c-0.19,0.31-0.34,0.65-0.44,1    c0.01,0.4,0.17,0.79,0.44,1.09l0.89,1c0.34,0.49,0.51,1.07,0.5,1.66c0.04,1.14-0.47,2.22-1.37,2.92    C88.47,50.08,87.4,50.4,86.32,50.37L86.32,50.37z M99,55.57c-1.21,0.02-2.4-0.33-3.4-1c-1.07-0.66-1.72-1.84-1.71-3.1    c0.01-0.84,0.25-1.66,0.71-2.37v-0.06h2.31l-0.1,0.18c-0.4,0.68-0.63,1.46-0.65,2.25c-0.02,0.64,0.28,1.25,0.8,1.62    c0.55,0.41,1.22,0.62,1.9,0.59c0.76,0.04,1.5-0.28,2-0.85c0.47-0.62,0.71-1.38,0.67-2.16v-6.15c0-0.71-0.29-1-0.92-1    c-0.38,0-0.88,0.12-0.88,1.18v3.07h-2.1v-3.11c0-1.12-0.23-1.18-0.27-1.18s-0.16,0-0.55,0.61c-0.28,0.46-0.62,0.88-1,1.26    c-0.49,0.45-1.13,0.7-1.79,0.7c-0.68,0.02-1.34-0.22-1.84-0.69c-0.49-0.46-0.76-1.12-0.73-1.79c0.03-0.78,0.39-1.51,1-2l0,0h2.59    l-0.18,0.2c-0.93,1.05-1.12,1.54-1.12,1.78c0,0.57,0.2,0.57,0.26,0.57c0.27,0,0.55-0.2,0.84-0.61c0.28-0.43,0.59-0.84,0.91-1.24    c0.41-0.45,0.98-0.7,1.59-0.7c0.61-0.02,1.19,0.26,1.55,0.75c0.59-0.52,1.35-0.79,2.13-0.75c0.77-0.03,1.52,0.3,2,0.91    c0.42,0.58,0.64,1.28,0.61,2v6c0,0.65-0.09,1.29-0.27,1.91C102.88,54.37,101.03,55.72,99,55.57z M113.24,55.57    c-1.21,0.06-2.4-0.26-3.42-0.91c-1.01-0.71-1.57-1.9-1.5-3.13c0.02-0.61,0.2-1.2,0.51-1.72v-0.07h2.24l-0.06,0.17    c-0.24,0.53-0.38,1.1-0.41,1.68c0,1.4,0.82,2.07,2.52,2.07c0.71,0.07,1.42-0.17,1.93-0.67c0.42-0.58,0.61-1.29,0.55-2    c0.05-0.53-0.13-1.05-0.49-1.44c-0.5-0.34-1.11-0.49-1.71-0.44h-0.12v-2.06h0.12c1.48,0,2.2-0.6,2.2-1.84s-0.43-1.73-1.3-1.73    s-1.31,0.68-1.35,2.08c0,1.05-0.46,2.05-1.25,2.74c-0.79,0.67-1.8,1.03-2.83,1c-1.07,0.03-2.1-0.37-2.87-1.12    c-0.75-0.74-1.17-1.76-1.14-2.81c-0.03-1.06,0.42-2.07,1.21-2.77c0.8-0.68,1.82-1.03,2.86-1c1.09-0.05,2.16,0.37,2.93,1.14    c0.73-0.77,1.75-1.18,2.81-1.14c0.96-0.04,1.88,0.4,2.45,1.18c0.54,0.71,0.82,1.59,0.79,2.48c0.05,1.08-0.46,2.12-1.35,2.74    c0.95,0.69,1.46,1.83,1.34,3c0.06,1.25-0.41,2.46-1.3,3.34c-0.92,0.84-2.14,1.28-3.39,1.23H113.24z M108.97,43.48    c-0.48-0.02-0.95,0.16-1.3,0.49c-0.33,0.34-0.51,0.8-0.49,1.28c0,1.46,0.61,2.17,1.86,2.17c1.1,0,1.63-0.72,1.63-2.19    c0.03-0.43-0.1-0.86-0.36-1.21c-0.36-0.37-0.86-0.57-1.37-0.54H108.97z M132.9,55.19h-2.54v-0.1c-0.06-0.94-0.67-1.76-1.55-2.09    c-1.28-0.45-2.64-0.65-4-0.59h-5.34v-2h0.82c-0.92-1.17-1.38-2.64-1.29-4.13c-0.03-1.08,0.24-2.15,0.78-3.08    c0.58-1.03,1.68-1.65,2.86-1.61c0.8-0.03,1.57,0.32,2.08,0.94c0.6-0.64,1.45-0.98,2.32-0.94c0.83,0,1.61,0.37,2.15,1    c0.58-0.67,1.44-1.04,2.32-1c0.93-0.02,1.82,0.37,2.43,1.07c0.59,0.66,0.9,1.52,0.89,2.41c-0.04,1.21-0.38,2.4-1,3.44v0.06h-2.5    l0.11-0.19c0.69-0.98,1.09-2.13,1.15-3.33c0.01-0.4-0.1-0.79-0.31-1.12c-0.17-0.28-0.47-0.45-0.79-0.45    c-0.73,0-1.08,0.5-1.08,1.52v2.24H128V45c0-1-0.35-1.52-1.06-1.52c-0.31-0.02-0.62,0.1-0.83,0.34c-0.21,0.26-0.32,0.59-0.3,0.92    v2.5h-2.31v-2.37c0-1.39-0.65-1.39-0.87-1.39c-0.9,0-1.35,0.93-1.35,2.76c0,2.39,0.88,3.69,2.69,4l3.67,0.41    c1.19,0.12,2.34,0.5,3.36,1.11c1.07,0.77,1.73,1.98,1.82,3.3L132.9,55.19z M139.42,55.57c-1.05,0.04-2.08-0.32-2.88-1    c-0.78-0.7-1.22-1.7-1.19-2.75c0.04-0.99,0.39-1.94,1-2.72l0,0H139l-0.17,0.2c-0.69,0.68-1.13,1.58-1.23,2.55    c-0.02,0.51,0.18,1.01,0.55,1.36c0.36,0.36,0.86,0.55,1.37,0.53c1.33,0,2-0.86,2-2.63v-5.72c0.04-0.51-0.08-1.02-0.35-1.46    c-0.35-0.33-0.83-0.5-1.31-0.45c-0.37-0.01-0.73,0.14-1,0.4c-0.26,0.26-0.41,0.63-0.4,1c0.03,0.67,0.25,1.32,0.61,1.88l0.1,0.18    h-2.47v-0.06c-0.33-0.62-0.51-1.3-0.52-2c-0.03-0.96,0.39-1.88,1.15-2.47c0.72-0.59,1.64-0.9,2.57-0.87    c0.97-0.04,1.92,0.28,2.68,0.89c0.73,0.65,1.12,1.6,1.05,2.57v6.25c0.07,1.16-0.33,2.31-1.1,3.18c-0.85,0.8-1.98,1.21-3.14,1.14    H139.42z M149.6,50.36c-1.17,0.03-2.32-0.37-3.22-1.12c-0.9-0.75-1.41-1.88-1.38-3.05c-0.02-1.11,0.38-2.18,1.13-3    c0.71-0.77,1.62-1.31,2.64-1.55v-2.55h-1.65c-1.1,0-1.33-0.6-1.33-1.11V36h2.31v1h3.07l-0.22,4.69c0.89,0.36,1.66,0.94,2.25,1.7    c0.62,0.78,0.96,1.75,0.95,2.75c0.03,1.18-0.48,2.32-1.4,3.07c-0.88,0.76-2.01,1.17-3.18,1.15H149.6z M149.54,43.54    c-0.62,0.11-1.19,0.43-1.6,0.92c-0.41,0.48-0.63,1.1-0.62,1.73c0,1.26,1.03,2.28,2.28,2.28c0.6,0,1.18-0.24,1.61-0.67    c0.43-0.43,0.66-1.01,0.65-1.61c0.01-0.66-0.22-1.29-0.66-1.78c-0.44-0.49-1.04-0.79-1.69-0.87H149.54z M159.17,50.36    c-0.95,0.02-1.88-0.26-2.66-0.79c-0.85-0.52-1.36-1.45-1.34-2.45c0.01-0.62,0.17-1.24,0.46-1.79v-0.07h2.45l-0.1,0.18    c-0.31,0.51-0.5,1.08-0.55,1.68c-0.03,0.39,0.14,0.77,0.46,1c0.35,0.26,0.78,0.39,1.21,0.37c0.48,0.01,0.95-0.17,1.3-0.5    c0.34-0.3,0.54-0.73,0.53-1.19c0.01-0.68-0.35-1.31-0.94-1.66l-1.84-1c-0.63-0.42-1.01-1.13-1-1.89c0.01-0.36,0.06-0.72,0.15-1.07    v-0.09h2.28v0.14c-0.07,0.55-0.09,0.69-0.09,0.72c-0.01,0.3,0.13,0.58,0.37,0.76l0.85,0.47c0.69,0.33,1.31,0.78,1.83,1.33    c0.51,0.62,0.78,1.41,0.75,2.21c0.01,1.04-0.47,2.03-1.29,2.68c-0.81,0.65-1.82,0.99-2.86,0.96H159.17z"/>
	</g>
	<path id="M" class="st1" d="M36.32,16.92c-4.8,0.56-6.14,5.54-9.75,9.84c-4.83,5.74-12,2.79-12,2.79c4.83-0.6,6.21-5.62,9.91-9.9   C29.4,14,36.32,16.92,36.32,16.92z M18.93,25.34c0,0,6-4.77,3.42-11.8c-2-5.3-5.71-9.06-3.72-13.48c0,0-5.94,4.84-3.47,11.8   C17.05,17.18,20.93,20.92,18.93,25.34z M18.59,24.34c0,0,0.57-7.73-6.07-10.67C7.34,11.37,1.89,11.58,0,7.1   c0,0-0.74,7.69,6.31,10.66c5.24,2.24,10.41,2.09,12.28,6.57V24.34z M10.69,37.34h13.48L27.32,31H10.69L10.69,37.34z M12.84,55.97   H14l7.74-17.78h-8.9V55.97z"/>
</g>
</svg>