<svg xmlns="http://www.w3.org/2000/svg" fill-rule="evenodd" clip-rule="evenodd" image-rendering="optimizeQuality" shape-rendering="geometricPrecision" text-rendering="geometricPrecision" viewBox="0 0 692.4 346.2"><defs><clipPath id="id0"><path d="M0 0h692.4v346.2H0V0z"/></clipPath><style>.fil16{fill:none}.fil14,.fil2,.fil3,.fil4,.fil5{fill:#e6003c;fill-rule:nonzero}.fil2,.fil3,.fil4,.fil5{fill-opacity:.301961}.fil2,.fil3,.fil4{fill-opacity:.34902}.fil2,.fil3{fill-opacity:.4}.fil2{fill-opacity:.45098}.fil1,.fil10,.fil15,.fil8,.fil9{fill:#e6003c;fill-rule:nonzero;fill-opacity:.501961}.fil10,.fil15,.fil8,.fil9{fill-opacity:.54902}.fil10,.fil15,.fil8{fill-opacity:.6}.fil15,.fil8{fill-opacity:.65098}.fil8{fill-opacity:.701961}.fil11,.fil12,.fil13,.fil6,.fil7{fill:#e6003c;fill-rule:nonzero;fill-opacity:.74902}.fil11,.fil12,.fil13,.fil6{fill-opacity:.8}.fil12,.fil13,.fil6{fill-opacity:.85098}.fil12,.fil13{fill-opacity:.901961}.fil13{fill-opacity:.94902}</style></defs><g id="Layer_x0020_1"><g clip-path="url(#id0)"><path fill="#242425" fill-rule="nonzero" d="M1096 907.7H-398.2V-406.8H1096z"/><g id="_2886449064048"><path d="M566.5 646l-62.9 63 62.9 62.9z" class="fil1"/><path d="M566.5 771.9l63-62.9-63-63z" class="fil2"/><path d="M629.5 709l-63 62.9 63 63zM629.5 583l-63 63 63 63zM566.5 897.9l-62.9 62.9 62.9 63z" class="fil1"/><path d="M566.5 1023.8l63-63-63-62.9z" class="fil2"/><path d="M629.5 960.8l-63 63 63 63zM629.5 834.9l-63 63 63 62.9z" class="fil1"/><path d="M692.5 771.9l62.9-62.9-62.9-63z" class="fil2"/><path d="M692.5 646l-63 63 63 62.9z" class="fil1"/><path d="M629.5 709l63-63-63-63zM629.5 834.9l63-63-63-62.9zM692.5 1023.8l62.9-63-62.9-62.9z" class="fil2"/><path d="M692.5 897.9l-63 62.9 63 63z" class="fil1"/><path d="M629.5 960.8l63-62.9-63-63zM629.5 1086.8l63-63-63-63z" class="fil2"/><path d="M692.5 771.9l-63 63 63 63z" class="fil1"/><path d="M692.5 897.9l62.9-63-62.9-63z" class="fil2"/><path d="M755.4 834.9l-62.9 63 62.9 62.9zM755.4 709l-62.9 62.9 62.9 63z" class="fil1"/><path d="M818.4 897.9l63-63-63-63z" class="fil3"/><path d="M818.4 771.9l-63 63 63 63z" class="fil2"/><path d="M755.4 834.9l63-63-63-62.9zM755.4 960.8l63-62.9-63-63z" class="fil3"/><path d="M786.9 677.5L755.4 709l31.5 31.5z" class="fil2"/><path d="M786.9 740.5l31.5-31.5-31.5-31.5z" class="fil3"/><path d="M818.4 709l-31.5 31.5 31.5 31.4zM818.4 646l-31.5 31.5 31.5 31.5z" class="fil2"/><path d="M849.9 740.5l31.5-31.5-31.5-31.5z" class="fil3"/><path d="M849.9 677.5L818.4 709l31.5 31.5z" class="fil4"/><path d="M818.4 709l31.5-31.5-31.5-31.5zM818.4 771.9l31.5-31.4-31.5-31.5z" class="fil3"/><path d="M849.9 740.5l-31.5 31.4 31.5 31.5z" class="fil4"/><path d="M849.9 803.4l31.5-31.5-31.5-31.4z" class="fil3"/><path d="M881.4 771.9l-31.5 31.5 31.5 31.5zM881.4 709l-31.5 31.5 31.5 31.4z" class="fil4"/><path d="M912.9 803.4l31.4-31.5-31.4-31.4z" class="fil5"/><path d="M912.9 740.5l-31.5 31.4 31.5 31.5z" class="fil4"/><path d="M881.4 771.9l31.5-31.4-31.5-31.5zM881.4 834.9l31.5-31.5-31.5-31.5z" class="fil3"/><path d="M849.9 614.5L818.4 646l31.5 31.5z" class="fil4"/><path d="M849.9 677.5l31.5-31.5-31.5-31.5z" class="fil3"/><path d="M881.4 646l-31.5 31.5 31.5 31.5zM881.4 583l-31.5 31.5 31.5 31.5z" class="fil4"/><path d="M912.9 677.5l31.4-31.5-31.4-31.5z" class="fil5"/><path d="M912.9 614.5L881.4 646l31.5 31.5z" class="fil4"/><path d="M881.4 646l31.5-31.5-31.5-31.5zM881.4 709l31.5-31.5-31.5-31.5z" class="fil3"/><path d="M786.9 929.4l-31.5 31.4 31.5 31.5z" class="fil2"/><path d="M786.9 992.3l31.5-31.5-31.5-31.4z" class="fil3"/><path d="M818.4 960.8l-31.5 31.5 31.5 31.5zM818.4 897.9l-31.5 31.5 31.5 31.4z" class="fil2"/><path d="M849.9 992.3l31.5-31.5-31.5-31.4z" class="fil3"/><path d="M849.9 929.4l-31.5 31.4 31.5 31.5z" class="fil4"/><path d="M818.4 960.8l31.5-31.4-31.5-31.5zM818.4 1023.8l31.5-31.5-31.5-31.5z" class="fil3"/><path d="M849.9 992.3l-31.5 31.5 31.5 31.5z" class="fil4"/><path d="M849.9 1055.3l31.5-31.5-31.5-31.5z" class="fil3"/><path d="M881.4 1023.8l-31.5 31.5 31.5 31.5zM881.4 960.8l-31.5 31.5 31.5 31.5z" class="fil4"/><path d="M912.9 1055.3l31.4-31.5-31.4-31.5z" class="fil5"/><path d="M912.9 992.3l-31.5 31.5 31.5 31.5z" class="fil4"/><path d="M881.4 1023.8l31.5-31.5-31.5-31.5zM881.4 1086.8l31.5-31.5-31.5-31.5z" class="fil3"/><path d="M849.9 866.4l-31.5 31.5 31.5 31.5z" class="fil4"/><path d="M849.9 929.4l31.5-31.5-31.5-31.5z" class="fil3"/><path d="M881.4 897.9l-31.5 31.5 31.5 31.4zM881.4 834.9l-31.5 31.5 31.5 31.5z" class="fil4"/><path d="M912.9 929.4l31.4-31.5-31.4-31.5z" class="fil5"/><path d="M912.9 866.4l-31.5 31.5 31.5 31.5z" class="fil4"/><path d="M881.4 897.9l31.5-31.5-31.5-31.5zM881.4 960.8l31.5-31.4-31.5-31.5z" class="fil3"/><path d="M897.1 945.1l-15.7 15.7 15.7 15.8z" class="fil4"/><path d="M897.1 976.6l15.8-15.8-15.8-15.7z" class="fil5"/><path d="M912.9 960.8l-15.8 15.8 15.8 15.7z" class="fil4"/><path d="M912.9 929.4l-15.8 15.7 15.8 15.7z" class="fil4"/><path d="M928.6 976.6l15.7-15.8-15.7-15.7z" class="fil5"/><path d="M928.6 945.1l-15.7 15.7 15.7 15.8z" class="fil4"/><path d="M912.9 960.8l15.7-15.7-15.7-15.7zM912.9 992.3l15.7-15.7-15.7-15.8z" class="fil5"/><path d="M928.6 976.6l-15.7 15.7 15.7 15.8z" class="fil4"/><path d="M928.6 1008.1l15.7-15.8-15.7-15.7z" class="fil5"/><path d="M944.3 992.3l-15.7 15.7 15.7 15.8zM944.3 960.8l-15.7 15.8 15.7 15.7z" class="fil4"/><path d="M960.1 1008l15.7-15.7-15.7-15.7z" class="fil5"/><path d="M960.1 976.6l-15.8 15.7 15.8 15.7z" class="fil4"/><path d="M944.3 992.3l15.8-15.7-15.8-15.8zM944.3 1023.8l15.8-15.8-15.8-15.7z" class="fil5"/><path d="M928.6 913.6l-15.7 15.8 15.7 15.7z" class="fil4"/><path d="M928.6 945.1l15.7-15.7-15.7-15.8z" class="fil5"/><path d="M944.3 929.4l-15.7 15.7 15.7 15.7zM944.3 897.9l-15.7 15.7 15.7 15.8z" class="fil4"/><path d="M960.1 945.1l15.7-15.7-15.7-15.8z" class="fil5"/><path d="M960.1 913.6l-15.8 15.8 15.8 15.7z" class="fil4"/><path d="M944.3 929.4l15.8-15.8-15.8-15.7z" class="fil5"/><path d="M944.3 960.8l15.8-15.7-15.8-15.7z" class="fil5"/><path d="M897.1 819.2l-15.7 15.7 15.7 15.7z" class="fil4"/><path d="M897.1 850.6l15.8-15.7-15.8-15.7z" class="fil5"/><path d="M912.9 834.9l-15.8 15.7 15.8 15.8zM912.9 803.4l-15.8 15.8 15.8 15.7z" class="fil4"/><path d="M928.6 850.6l15.7-15.7-15.7-15.8z" class="fil5"/><path d="M928.6 819.1l-15.7 15.8 15.7 15.7z" class="fil4"/><path d="M912.9 834.9l15.7-15.7-15.7-15.8zM912.9 866.4l15.7-15.8-15.7-15.7z" class="fil5"/><path d="M928.6 850.6l-15.7 15.8 15.7 15.7z" class="fil4"/><path d="M928.6 882.1l15.7-15.7-15.7-15.8z" class="fil5"/><path d="M944.3 866.4l-15.7 15.7 15.7 15.8zM944.3 834.9l-15.7 15.7 15.7 15.8z" class="fil4"/><path d="M960.1 882.1l15.7-15.7-15.7-15.8z" class="fil5"/><path d="M960.1 850.6l-15.8 15.8 15.8 15.7z" class="fil4"/><path d="M944.3 866.4l15.8-15.8-15.8-15.7zM944.3 897.9l15.8-15.8-15.8-15.7z" class="fil5"/><path d="M928.6 787.7l-15.7 15.7 15.7 15.8z" class="fil4"/><path d="M928.6 819.2l15.7-15.8-15.7-15.7z" class="fil5"/><path d="M944.3 803.4l-15.7 15.7 15.7 15.8zM944.3 771.9l-15.7 15.8 15.7 15.7z" class="fil4"/><path d="M960.1 819.1l15.7-15.7-15.7-15.7z" class="fil5"/><path d="M960.1 787.7l-15.8 15.7 15.8 15.7z" class="fil4"/><path d="M944.3 803.4l15.8-15.7-15.8-15.8zM944.3 834.9l15.8-15.8-15.8-15.7z" class="fil5"/><path d="M897.1 693.2L881.4 709l15.7 15.7z" class="fil4"/><path d="M897.1 724.7l15.8-15.7-15.8-15.8z" class="fil5"/><path d="M912.9 709l-15.8 15.7 15.8 15.8zM912.9 677.5l-15.8 15.7 15.8 15.8z" class="fil4"/><path d="M928.6 724.7l15.7-15.7-15.7-15.8z" class="fil5"/><path d="M928.6 693.2L912.9 709l15.7 15.7z" class="fil4"/><path d="M912.9 709l15.7-15.8-15.7-15.7zM912.9 740.5l15.7-15.8-15.7-15.7z" class="fil5"/><path d="M928.6 724.7l-15.7 15.8 15.7 15.7z" class="fil4"/><path d="M928.6 756.2l15.7-15.7-15.7-15.8z" class="fil5"/><path d="M944.3 740.5l-15.7 15.7 15.7 15.7zM944.3 709l-15.7 15.7 15.7 15.8z" class="fil4"/><path d="M960.1 756.2l15.7-15.7-15.7-15.8z" class="fil5"/><path d="M960.1 724.7l-15.8 15.8 15.8 15.7z" class="fil4"/><path d="M944.3 740.5l15.8-15.8-15.8-15.7z" class="fil5"/><path d="M944.3 771.9l15.8-15.7-15.8-15.7z" class="fil5"/><path d="M928.6 661.7l-15.7 15.8 15.7 15.7z" class="fil4"/><path d="M928.6 693.2l15.7-15.7-15.7-15.8z" class="fil5"/><path d="M944.3 677.5l-15.7 15.7 15.7 15.8zM944.3 646l-15.7 15.7 15.7 15.8z" class="fil4"/><path d="M960.1 693.2l15.7-15.7-15.7-15.8z" class="fil5"/><path d="M960.1 661.7l-15.8 15.8 15.8 15.7z" class="fil4"/><path d="M944.3 677.5l15.8-15.8-15.8-15.7zM944.3 709l15.8-15.8-15.8-15.7z" class="fil5"/><path d="M960.1 693.2L944.3 709l15.8 15.7z" class="fil4"/><path d="M960.1 724.7l15.7-15.7-15.7-15.8z" class="fil5"/><path d="M975.8 709l-15.7 15.7 15.7 15.8zM975.8 677.5l-15.7 15.7 15.7 15.8z" class="fil4"/><path d="M991.6 724.7l15.7-15.7-15.7-15.8z" class="fil5"/><path d="M991.6 693.2L975.8 709l15.8 15.7z" class="fil4"/><path d="M975.8 709l15.8-15.8-15.8-15.7zM975.8 740.5l15.8-15.8-15.8-15.7z" class="fil5"/><path d="M960.1 756.2l-15.8 15.7 15.8 15.8z" class="fil4"/><path d="M960.1 787.7l15.7-15.8-15.7-15.7z" class="fil5"/><path d="M975.8 771.9l-15.7 15.8 15.7 15.7z" class="fil4"/><path d="M975.8 740.5l-15.7 15.7 15.7 15.7z" class="fil4"/><path d="M991.6 787.7l15.7-15.8-15.7-15.7z" class="fil5"/><path d="M991.6 756.2l-15.8 15.7 15.8 15.8z" class="fil4"/><path d="M975.8 771.9l15.8-15.7-15.8-15.7zM975.8 803.4l15.8-15.7-15.8-15.8z" class="fil5"/><path d="M960.1 819.1l-15.8 15.8 15.8 15.7z" class="fil4"/><path d="M960.1 850.6l15.7-15.7-15.7-15.8v.1z" class="fil5"/><path d="M975.8 834.9l-15.7 15.7 15.7 15.8z" class="fil4"/><path d="M975.8 803.4l-15.7 15.7v.1l15.7 15.7z" class="fil4"/><path d="M991.6 850.6l15.7-15.7-15.7-15.8z" class="fil5"/><path d="M991.6 819.1l-15.8 15.8 15.8 15.7z" class="fil4"/><path d="M975.8 834.9l15.8-15.8-15.8-15.7zM975.8 866.4l15.8-15.8-15.8-15.7z" class="fil5"/><path d="M960.1 882.1l-15.8 15.8 15.8 15.7z" class="fil4"/><path d="M960.1 913.6l15.7-15.7-15.7-15.8z" class="fil5"/><path d="M975.8 897.9l-15.7 15.7 15.7 15.8zM975.8 866.4l-15.7 15.7 15.7 15.8zM983.7 921.5l-7.9 7.9 7.9 7.8z" class="fil4"/><path d="M983.7 937.2l7.9-7.8-7.9-7.9z" class="fil5"/><path d="M991.6 929.4l-7.9 7.8 7.9 7.9zM991.6 913.6l-7.9 7.9 7.9 7.9zM999.4 937.2l-7.8 7.9 7.8 7.9z" class="fil4"/><path d="M999.4 953l7.9-7.9-7.9-7.9z" class="fil5"/><path d="M1007.3 945.1l-7.9 7.9 7.9 7.8zM1007.3 929.4l-7.9 7.8 7.9 7.9zM999.4 905.7l-7.8 7.9 7.8 7.9z" class="fil4"/><path d="M999.4 921.5l7.9-7.9-7.9-7.9z" class="fil5"/><path d="M1007.3 913.6l-7.9 7.9 7.9 7.9v-.1zM1007.3 897.9l-7.9 7.8 7.9 7.9z" class="fil4"/><path d="M991.6 913.6l15.7-15.7-15.7-15.8z" class="fil5"/><path d="M991.6 882.1l-15.8 15.8 15.8 15.7z" class="fil4"/><path d="M975.8 897.9l15.8-15.8-15.8-15.7zM975.8 929.4l15.8-15.8-15.8-15.7z" class="fil5"/><path d="M960.1 945.1l-15.8 15.7 15.8 15.8z" class="fil4"/><path d="M960.1 976.6l15.7-15.8-15.7-15.7z" class="fil5"/><path d="M975.8 960.8l-15.7 15.8 15.7 15.7z" class="fil4"/><path d="M975.8 929.4l-15.7 15.7 15.7 15.7z" class="fil4"/><path d="M991.6 976.6l15.7-15.8-15.7-15.7z" class="fil5"/><path d="M991.6 945.1l-15.8 15.7 15.8 15.8z" class="fil4"/><path d="M975.8 960.8l15.8-15.7-15.8-15.7zM975.8 992.3l15.8-15.7-15.8-15.8z" class="fil5"/><path d="M251.8 709l-126 125.9 126 125.9z" class="fil6"/><path d="M377.7 834.9L251.8 960.8h125.9zM377.7 834.9L251.8 709h125.9z" class="fil7"/><path d="M377.7 1086.8l-125.9-126h125.9z" class="fil8"/><path d="M503.6 960.8L377.7 834.9h125.9z" class="fil9"/><path d="M503.6 709L377.7 834.9h125.9z" class="fil10"/><path d="M251.8 960.8l125.9-125.9L251.8 709z" class="fil11"/><path d="M125.8 834.9l126-125.9-126-126zM-.1 960.8l125.9 126 126-126z" class="fil12"/><path d="M251.8 960.8l-126-125.9L-.1 960.8zM125.8 583L-.1 709l125.9 125.9z" class="fil13"/><path d="M-.1 709L-126 834.9-.1 960.8z" class="fil14"/><path d="M377.7 834.9l125.9 125.9H377.7z" class="fil15"/><path d="M377.7 1086.8l125.9-126H377.7zM377.7 583l125.9 126H377.7z" class="fil10"/><path d="M377.7 583L251.8 709h125.9z" class="fil8"/><path d="M377.7 834.9L503.6 709H377.7z" class="fil15"/><path d="M503.6 709l125.9 125.9H503.6z" class="fil9"/><path d="M503.6 960.8l125.9-125.9H503.6z" class="fil10"/><path d="M999.4 937.2l7.9-7.8-7.9-7.9z" class="fil5"/><path d="M999.4 921.5l-7.8 7.9 7.8 7.8z" class="fil4"/><path d="M991.6 929.4l7.8-7.9-7.8-7.9zM991.6 945.1l7.8-7.9-7.8-7.8z" class="fil5"/><path d="M983.7 858.5l-7.9 7.9 7.9 7.9z" class="fil4"/><path d="M983.7 874.3l7.9-7.9-7.9-7.9z" class="fil5"/><path d="M991.6 866.4l-7.9 7.9 7.9 7.8zM991.6 850.6l-7.9 7.9 7.9 7.9zM999.4 874.3l-7.8 7.8 7.8 7.9z" class="fil4"/><path d="M999.4 890l7.9-7.9-7.9-7.8z" class="fil5"/><path d="M1007.3 882.1l-7.9 7.9 7.9 7.9zM1007.3 866.4l-7.9 7.9 7.9 7.8zM999.4 842.8l-7.8 7.8 7.8 7.9z" class="fil4"/><path d="M999.4 858.5l7.9-7.9-7.9-7.8z" class="fil5"/><path d="M1007.3 850.6l-7.9 7.9 7.9 7.9zM1007.3 834.9l-7.9 7.9 7.9 7.8z" class="fil4"/><path d="M999.4 874.3l7.9-7.9-7.9-7.9z" class="fil5"/><path d="M999.4 858.5l-7.8 7.9 7.8 7.9z" class="fil4"/><path d="M991.6 866.4l7.8-7.9-7.8-7.9zM991.6 882.1l7.8-7.8-7.8-7.9z" class="fil5"/><path d="M983.7 795.5l-7.9 7.9 7.9 7.9z" class="fil4"/><path d="M983.7 811.3l7.9-7.9-7.9-7.9z" class="fil5"/><path d="M991.6 803.4l-7.9 7.9 7.9 7.9zM991.6 787.7l-7.9 7.8 7.9 7.9zM999.4 811.3l-7.8 7.8 7.8 7.9z" class="fil4"/><path d="M999.4 827l7.9-7.9-7.9-7.8z" class="fil5"/><path d="M1007.3 819.1l-7.9 7.9 7.9 7.9zM1007.3 803.4l-7.9 7.9 7.9 7.8zM999.4 779.8l-7.8 7.9 7.8 7.8z" class="fil4"/><path d="M999.4 795.5l7.9-7.8-7.9-7.9z" class="fil5"/><path d="M1007.3 787.7l-7.9 7.8 7.9 7.9zM1007.3 771.9l-7.9 7.9 7.9 7.9z" class="fil4"/><path d="M999.4 811.3l7.9-7.9-7.9-7.9z" class="fil5"/><path d="M999.4 795.5l-7.8 7.9 7.8 7.9z" class="fil4"/><path d="M991.6 803.4l7.8-7.9-7.8-7.8zM991.6 819.2l7.8-7.9-7.8-7.9z" class="fil5"/><path d="M983.7 732.6l-7.9 7.9 7.9 7.8z" class="fil4"/><path d="M983.7 748.3l7.9-7.8-7.9-7.9z" class="fil5"/><path d="M991.6 740.5l-7.9 7.8 7.9 7.9zM991.6 724.7l-7.9 7.9 7.9 7.9zM999.4 748.3l-7.8 7.9 7.8 7.9z" class="fil4"/><path d="M999.4 764.1l7.9-7.9-7.9-7.9z" class="fil5"/><path d="M1007.3 756.2l-7.9 7.9 7.9 7.8zM1007.3 740.5l-7.9 7.8 7.9 7.9zM999.4 716.8l-7.8 7.9 7.8 7.9z" class="fil4"/><path d="M999.4 732.6l7.9-7.9-7.9-7.9z" class="fil5"/><path d="M1007.3 724.7l-7.9 7.9 7.9 7.9zM1007.3 709l-7.9 7.8 7.9 7.9z" class="fil4"/><path d="M999.4 748.3l7.9-7.8-7.9-7.9z" class="fil5"/><path d="M999.4 732.6l-7.8 7.9 7.8 7.8z" class="fil4"/><path d="M991.6 740.5l7.8-7.9-7.8-7.9zM991.6 756.2l7.8-7.9-7.8-7.8z" class="fil5"/><path d="M566.5 394.1l-62.9 63 62.9 63z" class="fil1"/><path d="M566.5 520.1l63-63-63-63z" class="fil2"/><path d="M629.5 457.1l-63 63 63 62.9zM629.5 331.2l-63 62.9 63 63z" class="fil1"/><path d="M692.5 520.1l62.9-63-62.9-63z" class="fil2"/><path d="M692.5 394.1l-63 63 63 63z" class="fil1"/><path d="M629.5 457.1l63-63-63-62.9zM629.5 583l63-62.9-63-63z" class="fil2"/><path d="M692.5 520.1l-63 62.9 63 63z" class="fil1"/><path d="M692.5 646l62.9-63-62.9-62.9z" class="fil2"/><path d="M755.4 583l-62.9 63 62.9 63zM755.4 457.1l-62.9 63 62.9 62.9z" class="fil1"/><path d="M818.4 646l63-63-63-62.9z" class="fil3"/><path d="M818.4 520.1l-63 62.9 63 63z" class="fil2"/><path d="M755.4 583l63-62.9-63-63zM755.4 709l63-63-63-63z" class="fil3"/><path d="M786.9 425.6l-31.5 31.5 31.5 31.5z" class="fil2"/><path d="M786.9 488.6l31.5-31.5-31.5-31.5z" class="fil3"/><path d="M818.4 457.1l-31.5 31.5 31.5 31.5zM818.4 394.1l-31.5 31.5 31.5 31.5z" class="fil2"/><path d="M849.9 488.6l31.5-31.5-31.5-31.5z" class="fil3"/><path d="M849.9 425.6l-31.5 31.5 31.5 31.5z" class="fil4"/><path d="M818.4 457.1l31.5-31.5-31.5-31.5zM818.4 520.1l31.5-31.5-31.5-31.5z" class="fil3"/><path d="M849.9 488.6l-31.5 31.5 31.5 31.4z" class="fil4"/><path d="M849.9 551.5l31.5-31.4-31.5-31.5z" class="fil3"/><path d="M881.4 520.1l-31.5 31.4 31.5 31.5zM881.4 457.1l-31.5 31.5 31.5 31.5z" class="fil4"/><path d="M912.9 551.5l31.4-31.4-31.4-31.5z" class="fil5"/><path d="M912.9 488.6l-31.5 31.5 31.5 31.4z" class="fil4"/><path d="M881.4 520.1l31.5-31.5-31.5-31.5zM881.4 583l31.5-31.5-31.5-31.4z" class="fil3"/><path d="M849.9 362.6l-31.5 31.5 31.5 31.5z" class="fil4"/><path d="M849.9 425.6l31.5-31.5-31.5-31.5z" class="fil3"/><path d="M881.4 394.1l-31.5 31.5 31.5 31.5zM881.4 331.2l-31.5 31.4 31.5 31.5z" class="fil4"/><path d="M912.9 425.6l31.4-31.5-31.4-31.5z" class="fil5"/><path d="M912.9 362.6l-31.5 31.5 31.5 31.5z" class="fil4"/><path d="M881.4 394.1l31.5-31.5-31.5-31.4zM881.4 457.1l31.5-31.5-31.5-31.5z" class="fil3"/><path d="M897.1 567.3L881.4 583l15.7 15.8z" class="fil4"/><path d="M897.1 598.8l15.8-15.8-15.8-15.7z" class="fil5"/><path d="M912.9 583l-15.8 15.8 15.8 15.7zM912.9 551.5l-15.8 15.8 15.8 15.7z" class="fil4"/><path d="M928.6 598.8l15.7-15.8-15.7-15.7z" class="fil5"/><path d="M928.6 567.3L912.9 583l15.7 15.8z" class="fil4"/><path d="M912.9 583l15.7-15.7-15.7-15.8zM912.9 614.5l15.7-15.7-15.7-15.8z" class="fil5"/><path d="M928.6 598.8l-15.7 15.7 15.7 15.8z" class="fil4"/><path d="M928.6 630.3l15.7-15.8-15.7-15.7z" class="fil5"/><path d="M944.3 614.5l-15.7 15.8 15.7 15.7zM944.3 583l-15.7 15.8 15.7 15.7z" class="fil4"/><path d="M960.1 630.3l15.7-15.8-15.7-15.7z" class="fil5"/><path d="M960.1 598.8l-15.8 15.7 15.8 15.8z" class="fil4"/><path d="M944.3 614.5l15.8-15.7-15.8-15.8zM944.3 646l15.8-15.7-15.8-15.8z" class="fil5"/><path d="M928.6 535.8l-15.7 15.7 15.7 15.8z" class="fil4"/><path d="M928.6 567.3l15.7-15.8-15.7-15.7z" class="fil5"/><path d="M944.3 551.5l-15.7 15.8 15.7 15.7z" class="fil4"/><path d="M944.3 520.1l-15.7 15.7 15.7 15.7z" class="fil4"/><path d="M960.1 567.3l15.7-15.8-15.7-15.7z" class="fil5"/><path d="M960.1 535.8l-15.8 15.7 15.8 15.8z" class="fil4"/><path d="M944.3 551.5l15.8-15.7-15.8-15.7zM944.3 583l15.8-15.7-15.8-15.8z" class="fil5"/><path d="M897.1 441.4l-15.7 15.7 15.7 15.7z" class="fil4"/><path d="M897.1 472.8l15.8-15.7-15.8-15.7z" class="fil5"/><path d="M912.9 457.1l-15.8 15.7 15.8 15.8zM912.9 425.6l-15.8 15.8 15.8 15.7z" class="fil4"/><path d="M928.6 472.8l15.7-15.7-15.7-15.7z" class="fil5"/><path d="M928.6 441.4l-15.7 15.7 15.7 15.7z" class="fil4"/><path d="M912.9 457.1l15.7-15.7-15.7-15.8zM912.9 488.6l15.7-15.8-15.7-15.7z" class="fil5"/><path d="M928.6 472.8l-15.7 15.8 15.7 15.7z" class="fil4"/><path d="M928.6 504.3l15.7-15.7-15.7-15.8z" class="fil5"/><path d="M944.3 488.6l-15.7 15.7 15.7 15.8zM944.3 457.1l-15.7 15.7 15.7 15.8z" class="fil4"/><path d="M960.1 504.3l15.7-15.7-15.7-15.8z" class="fil5"/><path d="M960.1 472.8l-15.8 15.8 15.8 15.7z" class="fil4"/><path d="M944.3 488.6l15.8-15.8-15.8-15.7zM944.3 520.1l15.8-15.8-15.8-15.7z" class="fil5"/><path d="M928.6 409.9l-15.7 15.7 15.7 15.8z" class="fil4"/><path d="M928.6 441.4l15.7-15.8-15.7-15.7z" class="fil5"/><path d="M944.3 425.6l-15.7 15.8 15.7 15.7zM944.3 394.1l-15.7 15.8 15.7 15.7z" class="fil4"/><path d="M960.1 441.4l15.7-15.8-15.7-15.7z" class="fil5"/><path d="M960.1 409.9l-15.8 15.7 15.8 15.8z" class="fil4"/><path d="M944.3 425.6l15.8-15.7-15.8-15.8zM944.3 457.1l15.8-15.7-15.8-15.8z" class="fil5"/><path d="M960.1 441.4l-15.8 15.7 15.8 15.7z" class="fil4"/><path d="M960.1 472.8l15.7-15.7-15.7-15.7z" class="fil5"/><path d="M975.8 457.1l-15.7 15.7 15.7 15.8zM975.8 425.6l-15.7 15.8 15.7 15.7z" class="fil4"/><path d="M991.6 472.8l15.7-15.7-15.7-15.7z" class="fil5"/><path d="M991.6 441.4l-15.8 15.7 15.8 15.7z" class="fil4"/><path d="M975.8 457.1l15.8-15.7-15.8-15.8zM975.8 488.6l15.8-15.8-15.8-15.7z" class="fil5"/><path d="M960.1 504.3l-15.8 15.8 15.8 15.7z" class="fil4"/><path d="M960.1 535.8l15.7-15.7-15.7-15.8z" class="fil5"/><path d="M975.8 520.1l-15.7 15.7 15.7 15.7zM975.8 488.6l-15.7 15.7 15.7 15.8z" class="fil4"/><path d="M991.6 535.8l15.7-15.7-15.7-15.8z" class="fil5"/><path d="M991.6 504.3l-15.8 15.8 15.8 15.7z" class="fil4"/><path d="M975.8 520.1l15.8-15.8-15.8-15.7z" class="fil5"/><path d="M975.8 551.5l15.8-15.7-15.8-15.7z" class="fil5"/><path d="M960.1 567.3L944.3 583l15.8 15.8z" class="fil4"/><path d="M960.1 598.8l15.7-15.8-15.7-15.7z" class="fil5"/><path d="M975.8 583l-15.7 15.8 15.7 15.7zM975.8 551.5l-15.7 15.8 15.7 15.7z" class="fil4"/><path d="M991.6 598.8l15.7-15.8-15.7-15.7z" class="fil5"/><path d="M991.6 567.3L975.8 583l15.8 15.8z" class="fil4"/><path d="M975.8 583l15.8-15.7-15.8-15.8zM975.8 614.5l15.8-15.7-15.8-15.8z" class="fil5"/><path d="M960.1 630.3L944.3 646l15.8 15.7z" class="fil4"/><path d="M960.1 661.7l15.7-15.7-15.7-15.7z" class="fil5"/><path d="M975.8 646l-15.7 15.7 15.7 15.8zM975.8 614.5l-15.7 15.8 15.7 15.7zM983.7 669.6l-7.9 7.9 7.9 7.9z" class="fil4"/><path d="M983.7 685.4l7.9-7.9-7.9-7.9z" class="fil5"/><path d="M991.6 677.5l-7.9 7.9 7.9 7.8zM991.6 661.7l-7.9 7.9 7.9 7.9zM999.4 685.4l-7.8 7.8 7.8 7.9z" class="fil4"/><path d="M999.4 701.1l7.9-7.9-7.9-7.8z" class="fil5"/><path d="M1007.3 693.2l-7.9 7.9 7.9 7.9zM1007.3 677.5l-7.9 7.9 7.9 7.8zM999.4 653.9l-7.8 7.8 7.8 7.9z" class="fil4"/><path d="M999.4 669.6l7.9-7.9-7.9-7.8z" class="fil5"/><path d="M1007.3 661.7l-7.9 7.9 7.9 7.9zM1007.3 646l-7.9 7.9 7.9 7.8z" class="fil4"/><path d="M991.6 661.7l15.7-15.7-15.7-15.7z" class="fil5"/><path d="M991.6 630.3L975.8 646l15.8 15.7z" class="fil4"/><path d="M975.8 646l15.8-15.7-15.8-15.8zM975.8 677.5l15.8-15.8-15.8-15.7z" class="fil5"/><path d="M251.8 457.1L125.8 583l126 126z" class="fil6"/><path d="M377.7 583L251.8 457.1h125.9z" class="fil7"/><path d="M503.6 709L377.7 583h125.9z" class="fil9"/><path d="M503.6 457.1L377.7 583h125.9z" class="fil10"/><path d="M251.8 709l125.9-126-125.9-125.9z" class="fil11"/><path d="M-.1 457.1L125.8 583l126-125.9z" class="fil12"/><path d="M251.8 457.1l-126-125.9L-.1 457.1z" class="fil13"/><path d="M-.1 709l125.9-126L-.1 457.1z" class="fil14"/><path d="M377.7 331.2l125.9 125.9H377.7z" class="fil10"/><path d="M377.7 331.2L251.8 457.1h125.9z" class="fil8"/><path d="M377.7 583l125.9-125.9H377.7z" class="fil15"/><path d="M503.6 457.1L629.5 583H503.6z" class="fil9"/><path d="M503.6 709l125.9-126H503.6z" class="fil10"/><path d="M999.4 685.4l7.9-7.9-7.9-7.9z" class="fil5"/><path d="M999.4 669.6l-7.8 7.9 7.8 7.9z" class="fil4"/><path d="M991.6 677.5l7.8-7.9-7.8-7.9zM991.6 693.2l7.8-7.8-7.8-7.9z" class="fil5"/><path d="M983.7 606.6l-7.9 7.9 7.9 7.9z" class="fil4"/><path d="M983.7 622.4l7.9-7.9-7.9-7.9z" class="fil5"/><path d="M991.6 614.5l-7.9 7.9 7.9 7.9zM991.6 598.8l-7.9 7.8 7.9 7.9zM999.4 622.4l-7.8 7.9 7.8 7.8z" class="fil4"/><path d="M999.4 638.1l7.9-7.8-7.9-7.9z" class="fil5"/><path d="M1007.3 630.3l-7.9 7.8 7.9 7.9zM1007.3 614.5l-7.9 7.9 7.9 7.9zM999.4 590.9l-7.8 7.9 7.8 7.8z" class="fil4"/><path d="M999.4 606.6l7.9-7.8-7.9-7.9z" class="fil5"/><path d="M1007.3 598.8l-7.9 7.8 7.9 7.9zM1007.3 583l-7.9 7.9 7.9 7.9z" class="fil4"/><path d="M999.4 622.4l7.9-7.9-7.9-7.9z" class="fil5"/><path d="M999.4 606.6l-7.8 7.9 7.8 7.9z" class="fil4"/><path d="M991.6 614.5l7.8-7.9-7.8-7.8zM991.6 630.3l7.8-7.9-7.8-7.9z" class="fil5"/><path d="M983.7 543.7l-7.9 7.8 7.9 7.9z" class="fil4"/><path d="M983.7 559.4l7.9-7.9-7.9-7.8z" class="fil5"/><path d="M991.6 551.5l-7.9 7.9 7.9 7.9zM991.6 535.8l-7.9 7.9 7.9 7.8zM999.4 559.4l-7.8 7.9 7.8 7.9z" class="fil4"/><path d="M999.4 575.2l7.9-7.9-7.9-7.9z" class="fil5"/><path d="M1007.3 567.3l-7.9 7.9 7.9 7.8zM1007.3 551.5l-7.9 7.9 7.9 7.9zM999.4 527.9l-7.8 7.9 7.8 7.9z" class="fil4"/><path d="M999.4 543.7l7.9-7.9-7.9-7.9z" class="fil5"/><path d="M1007.3 535.8l-7.9 7.9 7.9 7.8zM1007.3 520.1l-7.9 7.8 7.9 7.9z" class="fil4"/><path d="M999.4 559.4l7.9-7.9-7.9-7.8z" class="fil5"/><path d="M999.4 543.7l-7.8 7.8 7.8 7.9z" class="fil4"/><path d="M991.6 551.5l7.8-7.8-7.8-7.9zM991.6 567.3l7.8-7.9-7.8-7.9z" class="fil5"/><path d="M983.7 480.7l-7.9 7.9 7.9 7.9z" class="fil4"/><path d="M983.7 496.5l7.9-7.9-7.9-7.9z" class="fil5"/><path d="M991.6 488.6l-7.9 7.9 7.9 7.8zM991.6 472.9l-7.9 7.8 7.9 7.9zM999.4 496.4l-7.8 7.9 7.8 7.9z" class="fil4"/><path d="M999.4 512.2l7.9-7.9-7.9-7.9z" class="fil5"/><path d="M1007.3 504.3l-7.9 7.9 7.9 7.9zM1007.3 488.6l-7.9 7.8 7.9 7.9zM999.4 465l-7.8 7.8 7.8 7.9z" class="fil4"/><path d="M999.4 480.7l7.9-7.9-7.9-7.8z" class="fil5"/><path d="M1007.3 472.8l-7.9 7.9 7.9 7.9zM1007.3 457.1l-7.9 7.9 7.9 7.8z" class="fil4"/><path d="M999.4 496.5l7.9-7.9-7.9-7.9z" class="fil5"/><path d="M999.4 480.7l-7.8 7.9 7.8 7.9z" class="fil4"/><path d="M991.6 488.6l7.8-7.9-7.8-7.8zM991.6 504.3l7.8-7.8-7.8-7.9z" class="fil5"/><path d="M566.5 142.3l-62.9 62.9 62.9 63z" class="fil1"/><path d="M566.5 268.2l63-63-63-62.9z" class="fil2"/><path d="M629.5 205.2l-63 63 63 63z" class="fil1"/><path d="M629.5 79.3l-63 63 63 62.9z" class="fil1"/><path d="M692.5 268.2l62.9-63-62.9-62.9z" class="fil2"/><path d="M692.5 142.3l-63 62.9 63 63z" class="fil1"/><path d="M629.5 205.2l63-62.9-63-63zM629.5 331.2l63-63-63-63z" class="fil2"/><path d="M692.5 268.2l-63 63 63 62.9z" class="fil1"/><path d="M692.5 394.1l62.9-62.9-62.9-63z" class="fil2"/><path d="M755.4 331.2l-62.9 62.9 62.9 63zM755.4 205.2l-62.9 63 62.9 63z" class="fil1"/><path d="M818.4 394.1l63-62.9-63-63z" class="fil3"/><path d="M818.4 268.2l-63 63 63 62.9z" class="fil2"/><path d="M755.4 331.2l63-63-63-63zM755.4 457.1l63-63-63-62.9z" class="fil3"/><path d="M786.9 173.7l-31.5 31.5 31.5 31.5z" class="fil2"/><path d="M786.9 236.7l31.5-31.5-31.5-31.5z" class="fil3"/><path d="M818.4 205.2l-31.5 31.5 31.5 31.5z" class="fil2"/><path d="M818.4 142.3l-31.5 31.4 31.5 31.5z" class="fil2"/><path d="M849.9 236.7l31.5-31.5-31.5-31.5z" class="fil3"/><path d="M849.9 173.7l-31.5 31.5 31.5 31.5z" class="fil4"/><path d="M818.4 205.2l31.5-31.5-31.5-31.4zM818.4 268.2l31.5-31.5-31.5-31.5z" class="fil3"/><path d="M849.9 236.7l-31.5 31.5 31.5 31.5z" class="fil4"/><path d="M849.9 299.7l31.5-31.5-31.5-31.5z" class="fil3"/><path d="M881.4 268.2l-31.5 31.5 31.5 31.5zM881.4 205.2l-31.5 31.5 31.5 31.5z" class="fil4"/><path d="M912.9 299.7l31.4-31.5-31.4-31.5z" class="fil5"/><path d="M912.9 236.7l-31.5 31.5 31.5 31.5z" class="fil4"/><path d="M881.4 268.2l31.5-31.5-31.5-31.5zM881.4 331.2l31.5-31.5-31.5-31.5z" class="fil3"/><path d="M849.9 110.8l-31.5 31.5 31.5 31.4z" class="fil4"/><path d="M849.9 173.7l31.5-31.4-31.5-31.5z" class="fil3"/><path d="M881.4 142.3l-31.5 31.4 31.5 31.5zM881.4 79.3l-31.5 31.5 31.5 31.5z" class="fil4"/><path d="M912.9 173.7l31.4-31.4-31.4-31.5z" class="fil5"/><path d="M912.9 110.8l-31.5 31.5 31.5 31.4z" class="fil4"/><path d="M881.4 142.3l31.5-31.5-31.5-31.5z" class="fil3"/><path d="M881.4 205.2l31.5-31.5-31.5-31.4z" class="fil3"/><path d="M897.1 315.4l-15.7 15.7 15.7 15.8z" class="fil4"/><path d="M897.1 346.9l15.8-15.8-15.8-15.7z" class="fil5"/><path d="M912.9 331.1l-15.8 15.8 15.8 15.7zM912.9 299.7l-15.8 15.7 15.8 15.7z" class="fil4"/><path d="M928.6 346.9l15.7-15.8-15.7-15.7z" class="fil5"/><path d="M928.6 315.4l-15.7 15.7 15.7 15.8z" class="fil4"/><path d="M912.9 331.1l15.7-15.7-15.7-15.7zM912.9 362.6l15.7-15.7-15.7-15.8z" class="fil5"/><path d="M928.6 346.9l-15.7 15.7 15.7 15.8z" class="fil4"/><path d="M928.6 378.4l15.7-15.8-15.7-15.7z" class="fil5"/><path d="M944.3 362.6l-15.7 15.8 15.7 15.7zM944.3 331.1l-15.7 15.8 15.7 15.7z" class="fil4"/><path d="M960.1 378.4l15.7-15.8-15.7-15.7z" class="fil5"/><path d="M960.1 346.9l-15.8 15.7 15.8 15.8z" class="fil4"/><path d="M944.3 362.6l15.8-15.7-15.8-15.8zM944.3 394.1l15.8-15.7-15.8-15.8z" class="fil5"/><path d="M928.6 283.9l-15.7 15.8 15.7 15.7z" class="fil4"/><path d="M928.6 315.4l15.7-15.7-15.7-15.8z" class="fil5"/><path d="M944.3 299.7l-15.7 15.7 15.7 15.7zM944.3 268.2l-15.7 15.7 15.7 15.8z" class="fil4"/><path d="M960.1 315.4l15.7-15.7-15.7-15.8z" class="fil5"/><path d="M960.1 283.9l-15.8 15.8 15.8 15.7z" class="fil4"/><path d="M944.3 299.7l15.8-15.8-15.8-15.7zM944.3 331.1l15.8-15.7-15.8-15.7z" class="fil5"/><path d="M897.1 189.5l-15.7 15.7 15.7 15.8z" class="fil4"/><path d="M897.1 221l15.8-15.8-15.8-15.7z" class="fil5"/><path d="M912.9 205.2L897.1 221l15.8 15.7zM912.9 173.7l-15.8 15.8 15.8 15.7z" class="fil4"/><path d="M928.6 221l15.7-15.8-15.7-15.7z" class="fil5"/><path d="M928.6 189.5l-15.7 15.7 15.7 15.8z" class="fil4"/><path d="M912.9 205.2l15.7-15.7-15.7-15.8zM912.9 236.7l15.7-15.7-15.7-15.8z" class="fil5"/><path d="M928.6 221l-15.7 15.7 15.7 15.7z" class="fil4"/><path d="M928.6 252.4l15.7-15.7-15.7-15.7z" class="fil5"/><path d="M944.3 236.7l-15.7 15.7 15.7 15.8zM944.3 205.2L928.6 221l15.7 15.7z" class="fil4"/><path d="M960.1 252.4l15.7-15.7-15.7-15.7z" class="fil5"/><path d="M960.1 221l-15.8 15.7 15.8 15.7z" class="fil4"/><path d="M944.3 236.7l15.8-15.7-15.8-15.8zM944.3 268.2l15.8-15.8-15.8-15.7z" class="fil5"/><path d="M928.6 158l-15.7 15.7 15.7 15.8z" class="fil4"/><path d="M928.6 189.5l15.7-15.8-15.7-15.7z" class="fil5"/><path d="M944.3 173.7l-15.7 15.8 15.7 15.7zM944.3 142.3L928.6 158l15.7 15.7z" class="fil4"/><path d="M960.1 189.5l15.7-15.8-15.7-15.7z" class="fil5"/><path d="M960.1 158l-15.8 15.7 15.8 15.8z" class="fil4"/><path d="M944.3 173.7l15.8-15.7-15.8-15.7zM944.3 205.2l15.8-15.7-15.8-15.8z" class="fil5"/><path d="M960.1 189.5l-15.8 15.7 15.8 15.8z" class="fil4"/><path d="M960.1 221l15.7-15.8-15.7-15.7z" class="fil5"/><path d="M975.8 205.2L960.1 221l15.7 15.7zM975.8 173.7l-15.7 15.8 15.7 15.7z" class="fil4"/><path d="M991.6 221l15.7-15.8-15.7-15.7z" class="fil5"/><path d="M991.6 189.5l-15.8 15.7 15.8 15.8z" class="fil4"/><path d="M975.8 205.2l15.8-15.7-15.8-15.8zM975.8 236.7l15.8-15.7-15.8-15.8z" class="fil5"/><path d="M960.1 252.4l-15.8 15.8 15.8 15.7z" class="fil4"/><path d="M960.1 283.9l15.7-15.7-15.7-15.8z" class="fil5"/><path d="M975.8 268.2l-15.7 15.7 15.7 15.8zM975.8 236.7l-15.7 15.7 15.7 15.8z" class="fil4"/><path d="M991.6 283.9l15.7-15.7-15.7-15.8z" class="fil5"/><path d="M991.6 252.4l-15.8 15.8 15.8 15.7z" class="fil4"/><path d="M975.8 268.2l15.8-15.8-15.8-15.7zM975.8 299.7l15.8-15.8-15.8-15.7z" class="fil5"/><path d="M960.1 315.4l-15.8 15.7 15.8 15.8z" class="fil4"/><path d="M960.1 346.9l15.7-15.8-15.7-15.7z" class="fil5"/><path d="M975.8 331.1l-15.7 15.8 15.7 15.7zM975.8 299.7l-15.7 15.7 15.7 15.7z" class="fil4"/><path d="M991.6 346.9l15.7-15.8-15.7-15.7z" class="fil5"/><path d="M991.6 315.4l-15.8 15.7 15.8 15.8z" class="fil4"/><path d="M975.8 331.1l15.8-15.7-15.8-15.7zM975.8 362.6l15.8-15.7-15.8-15.8z" class="fil5"/><path d="M960.1 378.4l-15.8 15.7 15.8 15.8z" class="fil4"/><path d="M960.1 409.9l15.7-15.8-15.7-15.7z" class="fil5"/><path d="M975.8 394.1l-15.7 15.8 15.7 15.7zM975.8 362.6l-15.7 15.8 15.7 15.7zM983.7 417.7l-7.9 7.9 7.9 7.9z" class="fil4"/><path d="M983.7 433.5l7.9-7.9-7.9-7.9z" class="fil5"/><path d="M991.6 425.6l-7.9 7.9 7.9 7.9zM991.6 409.9l-7.9 7.8 7.9 7.9zM999.4 433.5l-7.8 7.8 7.8 7.9z" class="fil4"/><path d="M999.4 449.2l7.9-7.9-7.9-7.8z" class="fil5"/><path d="M1007.3 441.3l-7.9 7.9 7.9 7.9zM1007.3 425.6l-7.9 7.9 7.9 7.8zM999.4 402l-7.8 7.9 7.8 7.8z" class="fil4"/><path d="M999.4 417.7l7.9-7.8-7.9-7.9z" class="fil5"/><path d="M1007.3 409.9l-7.9 7.8 7.9 7.9zM1007.3 394.1l-7.9 7.9 7.9 7.9z" class="fil4"/><path d="M991.6 409.9l15.7-15.8-15.7-15.7z" class="fil5"/><path d="M991.6 378.4l-15.8 15.7 15.8 15.8z" class="fil4"/><path d="M975.8 394.1l15.8-15.7-15.8-15.8zM975.8 425.6l15.8-15.7-15.8-15.8z" class="fil5"/><path d="M251.8 205.2l-126 126 126 125.9z" class="fil6"/><path d="M377.7 331.2l-125.9-126h125.9z" class="fil7"/><path d="M503.6 457.1L377.7 331.2h125.9z" class="fil9"/><path d="M503.6 205.2l-125.9 126h125.9z" class="fil10"/><path d="M251.8 457.1l125.9-125.9-125.9-126z" class="fil11"/><path d="M125.8 331.2l126-126-126-125.9z" class="fil12"/><path d="M125.8 79.3L-.1 205.2l125.9 126z" class="fil13"/><path d="M-.1 205.2l-125.9 126L-.1 457.1z" class="fil14"/><path d="M377.7 79.3l125.9 125.9H377.7z" class="fil10"/><path d="M377.7 79.3L251.8 205.2h125.9z" class="fil8"/><path d="M377.7 331.2l125.9-126H377.7z" class="fil15"/><path d="M503.6 205.2l125.9 126H503.6z" class="fil9"/><path d="M503.6 457.1l125.9-125.9H503.6z" class="fil10"/><path d="M999.4 433.5l7.9-7.9-7.9-7.9z" class="fil5"/><path d="M999.4 417.7l-7.8 7.9 7.8 7.9z" class="fil4"/><path d="M991.6 425.6l7.8-7.9-7.8-7.8zM991.6 441.4l7.8-7.9-7.8-7.9z" class="fil5"/><path d="M983.7 354.8l-7.9 7.8 7.9 7.9z" class="fil4"/><path d="M983.7 370.5l7.9-7.9-7.9-7.8z" class="fil5"/><path d="M991.6 362.6l-7.9 7.9 7.9 7.9zM991.6 346.9l-7.9 7.9 7.9 7.8zM999.4 370.5l-7.8 7.9 7.8 7.9z" class="fil4"/><path d="M999.4 386.3l7.9-7.9-7.9-7.9z" class="fil5"/><path d="M1007.3 378.4l-7.9 7.9 7.9 7.8zM1007.3 362.6l-7.9 7.9 7.9 7.9zM999.4 339l-7.8 7.9 7.8 7.9z" class="fil4"/><path d="M999.4 354.8l7.9-7.9-7.9-7.9z" class="fil5"/><path d="M1007.3 346.9l-7.9 7.9 7.9 7.8zM1007.3 331.1l-7.9 7.9 7.9 7.9z" class="fil4"/><path d="M999.4 370.5l7.9-7.9-7.9-7.8z" class="fil5"/><path d="M999.4 354.8l-7.8 7.8 7.8 7.9z" class="fil4"/><path d="M991.6 362.6l7.8-7.8-7.8-7.9zM991.6 378.4l7.8-7.9-7.8-7.9z" class="fil5"/><path d="M983.7 291.8l-7.9 7.9 7.9 7.8z" class="fil4"/><path d="M983.7 307.5l7.9-7.8-7.9-7.9z" class="fil5"/><path d="M991.6 299.7l-7.9 7.8 7.9 7.9zM991.6 283.9l-7.9 7.9 7.9 7.9zM999.4 307.5l-7.8 7.9 7.8 7.9z" class="fil4"/><path d="M999.4 323.3l7.9-7.9-7.9-7.9z" class="fil5"/><path d="M1007.3 315.4l-7.9 7.9 7.9 7.8zM1007.3 299.7l-7.9 7.8 7.9 7.9zM999.4 276.1l-7.8 7.8 7.8 7.9z" class="fil4"/><path d="M999.4 291.8l7.9-7.9-7.9-7.8z" class="fil5"/><path d="M1007.3 283.9l-7.9 7.9 7.9 7.9zM1007.3 268.2l-7.9 7.9 7.9 7.8z" class="fil4"/><path d="M999.4 307.5l7.9-7.8-7.9-7.9z" class="fil5"/><path d="M999.4 291.8l-7.8 7.9 7.8 7.8z" class="fil4"/><path d="M991.6 299.7l7.8-7.9-7.8-7.9zM991.6 315.4l7.8-7.9-7.8-7.8z" class="fil5"/><path d="M983.7 228.8l-7.9 7.9 7.9 7.9z" class="fil4"/><path d="M983.7 244.6l7.9-7.9-7.9-7.9z" class="fil5"/><path d="M991.6 236.7l-7.9 7.9 7.9 7.8z" class="fil4"/><path d="M991.6 221l-7.9 7.8 7.9 7.9zM999.4 244.6l-7.8 7.8 7.8 7.9z" class="fil4"/><path d="M999.4 260.3l7.9-7.9-7.9-7.8z" class="fil5"/><path d="M1007.3 252.4l-7.9 7.9 7.9 7.9zM1007.3 236.7l-7.9 7.9 7.9 7.8zM999.4 213.1l-7.8 7.9 7.8 7.8z" class="fil4"/><path d="M999.4 228.8l7.9-7.8-7.9-7.9z" class="fil5"/><path d="M1007.3 221l-7.9 7.8 7.9 7.9zM1007.3 205.2l-7.9 7.9 7.9 7.9z" class="fil4"/><path d="M999.4 244.6l7.9-7.9-7.9-7.9z" class="fil5"/><path d="M999.4 228.8l-7.8 7.9 7.8 7.9z" class="fil4"/><path d="M991.6 236.7l7.8-7.9-7.8-7.8zM991.6 252.4l7.8-7.8-7.8-7.9z" class="fil5"/><path d="M566.5-109.6l-62.9 63 62.9 62.9z" class="fil1"/><path d="M566.5 16.3l63-62.9-63-63z" class="fil2"/><path d="M629.5-46.6l-63 62.9 63 63z" class="fil1"/><path d="M629.5-172.6l-63 63 63 63z" class="fil1"/><path d="M692.5 16.3l62.9-62.9-62.9-63z" class="fil2"/><path d="M692.5-109.6l-63 63 63 62.9z" class="fil1"/><path d="M629.5-46.6l63-63-63-63zM629.5 79.3l63-63-63-62.9z" class="fil2"/><path d="M692.5 16.3l-63 63 63 63z" class="fil1"/><path d="M692.5 142.3l62.9-63-62.9-63z" class="fil2"/><path d="M755.4 79.3l-62.9 63 62.9 62.9zM755.4-46.6l-62.9 62.9 62.9 63z" class="fil1"/><path d="M818.4 142.3l63-63-63-63z" class="fil3"/><path d="M818.4 16.3l-63 63 63 63z" class="fil2"/><path d="M755.4 79.3l63-63-63-62.9z" class="fil3"/><path d="M755.4 205.2l63-62.9-63-63z" class="fil3"/><path d="M786.9-78.1l-31.5 31.5 31.5 31.4z" class="fil2"/><path d="M786.9-15.2l31.5-31.4-31.5-31.5z" class="fil3"/><path d="M818.4-46.6l-31.5 31.4 31.5 31.5z" class="fil2"/><path d="M818.4-109.6l-31.5 31.5 31.5 31.5z" class="fil2"/><path d="M849.9-15.2l31.5-31.4v-.1l-31.5-31.4z" class="fil3"/><path d="M849.9-78.1l-31.5 31.5 31.5 31.4z" class="fil4"/><path d="M818.4-46.6l31.5-31.5-31.5-31.5zM818.4 16.3l31.5-31.5-31.5-31.4z" class="fil3"/><path d="M849.9-15.2l-31.5 31.5 31.5 31.5z" class="fil4"/><path d="M849.9 47.8l31.5-31.5-31.5-31.5z" class="fil3"/><path d="M881.4 16.3l-31.5 31.5 31.5 31.5zM881.4-46.6l-31.5 31.4 31.5 31.5z" class="fil4"/><path d="M912.9 47.8l31.4-31.5-31.4-31.5z" class="fil5"/><path d="M912.9-15.2l-31.5 31.5 31.5 31.5z" class="fil4"/><path d="M881.4 16.3l31.5-31.5-31.5-31.4z" class="fil3"/><path d="M881.4 79.3l31.5-31.5-31.5-31.5z" class="fil3"/><path d="M849.9-141.1l-31.5 31.5 31.5 31.5z" class="fil4"/><path d="M849.9-78.1l31.5-31.5-31.5-31.5z" class="fil3"/><path d="M881.4-109.6l-31.5 31.5 31.5 31.5zM881.4-172.6l-31.5 31.5 31.5 31.5z" class="fil4"/><path d="M912.9-78.1l31.4-31.5-31.4-31.5z" class="fil5"/><path d="M912.9-141.1l-31.5 31.5 31.5 31.5z" class="fil4"/><path d="M881.4-109.6l31.5-31.5-31.5-31.5zM881.4-46.6l31.5-31.5-31.5-31.5z" class="fil3"/><path d="M897.1 63.5l-15.7 15.8L897.1 95z" class="fil4"/><path d="M897.1 95l15.8-15.7-15.8-15.8z" class="fil5"/><path d="M912.9 79.3L897.1 95l15.8 15.8zM912.9 47.8l-15.8 15.7 15.8 15.8z" class="fil4"/><path d="M928.6 95l15.7-15.7-15.7-15.8z" class="fil5"/><path d="M928.6 63.5l-15.7 15.8L928.6 95z" class="fil4"/><path d="M912.9 79.3l15.7-15.8-15.7-15.7zM912.9 110.8L928.6 95l-15.7-15.7z" class="fil5"/><path d="M928.6 95l-15.7 15.8 15.7 15.7z" class="fil4"/><path d="M928.6 126.5l15.7-15.7L928.6 95z" class="fil5"/><path d="M944.3 110.8l-15.7 15.7 15.7 15.8zM944.3 79.3L928.6 95l15.7 15.8z" class="fil4"/><path d="M960.1 126.5l15.7-15.7L960.1 95z" class="fil5"/><path d="M960.1 95l-15.8 15.8 15.8 15.7z" class="fil4"/><path d="M944.3 110.8L960.1 95l-15.8-15.7zM944.3 142.3l15.8-15.8-15.8-15.7z" class="fil5"/><path d="M928.6 32l-15.7 15.8 15.7 15.7z" class="fil4"/><path d="M928.6 63.5l15.7-15.7L928.6 32z" class="fil5"/><path d="M944.3 47.8l-15.7 15.7 15.7 15.8zM944.3 16.3L928.6 32l15.7 15.8z" class="fil4"/><path d="M960.1 63.5l15.7-15.7L960.1 32z" class="fil5"/><path d="M960.1 32l-15.8 15.8 15.8 15.7z" class="fil4"/><path d="M944.3 47.8L960.1 32l-15.8-15.7zM944.3 79.3l15.8-15.8-15.8-15.7z" class="fil5"/><path d="M897.1-62.4l-15.7 15.8 15.7 15.7z" class="fil4"/><path d="M897.1-30.9l15.8-15.7-15.8-15.8z" class="fil5"/><path d="M912.9-46.7l-15.8 15.8 15.8 15.7z" class="fil4"/><path d="M912.9-78.1l-15.8 15.7 15.8 15.8z" class="fil4"/><path d="M928.6-30.9l15.7-15.8-15.7-15.7z" class="fil5"/><path d="M928.6-62.4l-15.7 15.7v.1l15.7 15.7z" class="fil4"/><path d="M912.9-46.6l15.7-15.8-15.7-15.7z" class="fil5"/><path d="M912.9-15.2l15.7-15.7-15.7-15.8v.1z" class="fil5"/><path d="M928.6-30.9l-15.7 15.7L928.6.6z" class="fil4"/><path d="M928.6.6l15.7-15.8-15.7-15.7z" class="fil5"/><path d="M944.3-15.2L928.6.6l15.7 15.7zM944.3-46.6l-15.7 15.7 15.7 15.7z" class="fil4"/><path d="M960.1.6l15.7-15.8-15.7-15.7z" class="fil5"/><path d="M960.1-30.9l-15.8 15.7L960.1.6z" class="fil4"/><path d="M944.3-15.2l15.8-15.7-15.8-15.7zM944.3 16.3L960.1.6l-15.8-15.8z" class="fil5"/><path d="M928.6-93.9l-15.7 15.8 15.7 15.7z" class="fil4"/><path d="M928.6-62.4l15.7-15.7-15.7-15.8z" class="fil5"/><path d="M944.3-78.1l-15.7 15.7 15.7 15.7zM944.3-109.6l-15.7 15.7 15.7 15.8z" class="fil4"/><path d="M960.1-62.4l15.7-15.7-15.7-15.8z" class="fil5"/><path d="M960.1-93.9l-15.8 15.8 15.8 15.7z" class="fil4"/><path d="M944.3-78.1l15.8-15.8-15.8-15.7z" class="fil5"/><path d="M944.3-46.7l15.8-15.7-15.8-15.7z" class="fil5"/><path d="M960.1-62.4l-15.8 15.8 15.8 15.7z" class="fil4"/><path d="M960.1-30.9l15.7-15.7-15.7-15.8z" class="fil5"/><path d="M975.8-46.7l-15.7 15.8 15.7 15.7z" class="fil4"/><path d="M975.8-78.1l-15.7 15.7 15.7 15.8z" class="fil4"/><path d="M991.6-30.9l15.7-15.8-15.7-15.7z" class="fil5"/><path d="M991.6-62.4l-15.8 15.7 15.8 15.8z" class="fil4"/><path d="M975.8-46.6l15.8-15.8-15.8-15.7z" class="fil5"/><path d="M975.8-15.2l15.8-15.7-15.8-15.8z" class="fil5"/><path d="M960.1.6l-15.8 15.7L960.1 32z" class="fil4"/><path d="M960.1 32l15.7-15.7L960.1.6z" class="fil5"/><path d="M975.8 16.3L960.1 32l15.7 15.8zM975.8-15.2L960.1.6l15.7 15.7z" class="fil4"/><path d="M991.6 32l15.7-15.7L991.6.6z" class="fil5"/><path d="M991.6.6l-15.8 15.7L991.6 32z" class="fil4"/><path d="M975.8 16.3L991.6.6l-15.8-15.8zM975.8 47.8L991.6 32l-15.8-15.7z" class="fil5"/><path d="M960.1 63.5l-15.8 15.8L960.1 95z" class="fil4"/><path d="M960.1 95l15.7-15.7-15.7-15.8z" class="fil5"/><path d="M975.8 79.3L960.1 95l15.7 15.8zM975.8 47.8l-15.7 15.7 15.7 15.8z" class="fil4"/><path d="M991.6 95l15.7-15.7-15.7-15.8z" class="fil5"/><path d="M991.6 63.5l-15.8 15.8L991.6 95z" class="fil4"/><path d="M975.8 79.3l15.8-15.8-15.8-15.7zM975.8 110.8L991.6 95l-15.8-15.7z" class="fil5"/><path d="M960.1 126.5l-15.8 15.8 15.8 15.7z" class="fil4"/><path d="M960.1 158l15.7-15.7-15.7-15.8z" class="fil5"/><path d="M975.8 142.2L960.1 158l15.7 15.7z" class="fil4"/><path d="M975.8 110.8l-15.7 15.7 15.7 15.8zM983.7 165.9l-7.9 7.8 7.9 7.9z" class="fil4"/><path d="M983.7 181.6l7.9-7.9-7.9-7.8z" class="fil5"/><path d="M991.6 173.7l-7.9 7.9 7.9 7.9z" class="fil4"/><path d="M991.6 158l-7.9 7.9 7.9 7.8zM999.4 181.6l-7.8 7.9 7.8 7.8z" class="fil4"/><path d="M999.4 197.3l7.9-7.8-7.9-7.9z" class="fil5"/><path d="M1007.3 189.5l-7.9 7.8 7.9 7.9zM1007.3 173.7l-7.9 7.9 7.9 7.9zM999.4 150.1l-7.8 7.9 7.8 7.9z" class="fil4"/><path d="M999.4 165.9l7.9-7.9-7.9-7.9z" class="fil5"/><path d="M1007.3 158l-7.9 7.9 7.9 7.8zM1007.3 142.2l-7.9 7.9 7.9 7.9z" class="fil4"/><path d="M991.6 158l15.7-15.8-15.7-15.7z" class="fil5"/><path d="M991.6 126.5l-15.8 15.7v.1l15.8 15.7z" class="fil4"/><path d="M975.8 142.3l15.8-15.8-15.8-15.7z" class="fil5"/><path d="M975.8 173.7l15.8-15.7-15.8-15.8v.1z" class="fil5"/><path d="M251.8-46.6l-126 125.9 126 125.9z" class="fil6"/><path d="M377.7 79.3L251.8-46.6h125.9z" class="fil7"/><path d="M503.6 205.2L377.7 79.3h125.9z" class="fil9"/><path d="M503.6-46.6L377.7 79.3h125.9z" class="fil10"/><path d="M251.8 205.2L377.7 79.3 251.8-46.6z" class="fil11"/><path d="M-.1-46.6L125.8 79.3l126-125.9z" class="fil12"/><path d="M251.8-46.6l-126-126L-.1-46.6z" class="fil13"/><path d="M-.1 205.2L125.8 79.3-.1-46.6z" class="fil14"/><path d="M377.7-172.6l125.9 126H377.7z" class="fil10"/><path d="M377.7-172.6l-125.9 126h125.9z" class="fil8"/><path d="M377.7 79.3L503.6-46.6H377.7z" class="fil15"/><path d="M503.6-46.6L629.5 79.3H503.6z" class="fil9"/><path d="M503.6 205.2L629.5 79.3H503.6z" class="fil10"/><path d="M999.4 181.6l7.9-7.9-7.9-7.8z" class="fil5"/><path d="M999.4 165.9l-7.8 7.8 7.8 7.9z" class="fil4"/><path d="M991.6 173.7l7.8-7.8-7.8-7.9zM991.6 189.5l7.8-7.9-7.8-7.9z" class="fil5"/><path d="M983.7 102.9l-7.9 7.9 7.9 7.8z" class="fil4"/><path d="M983.7 118.6l7.9-7.8-7.9-7.9z" class="fil5"/><path d="M991.6 110.8l-7.9 7.8 7.9 7.9z" class="fil4"/><path d="M991.6 95l-7.9 7.9 7.9 7.9zM999.4 118.6l-7.8 7.9 7.8 7.9z" class="fil4"/><path d="M999.4 134.4l7.9-7.9-7.9-7.9z" class="fil5"/><path d="M1007.3 126.5l-7.9 7.9 7.9 7.9zM1007.3 110.8l-7.9 7.8 7.9 7.9zM999.4 87.2l-7.8 7.8 7.8 7.9z" class="fil4"/><path d="M999.4 102.9l7.9-7.9-7.9-7.8z" class="fil5"/><path d="M1007.3 95l-7.9 7.9 7.9 7.9zM1007.3 79.3l-7.9 7.9 7.9 7.8z" class="fil4"/><path d="M999.4 118.6l7.9-7.8-7.9-7.9z" class="fil5"/><path d="M999.4 102.9l-7.8 7.9 7.8 7.8z" class="fil4"/><path d="M991.6 110.8l7.8-7.9-7.8-7.9zM991.6 126.5l7.8-7.9-7.8-7.8z" class="fil5"/><path d="M983.7 39.9l-7.9 7.9 7.9 7.9z" class="fil4"/><path d="M983.7 55.7l7.9-7.9-7.9-7.9z" class="fil5"/><path d="M991.6 47.8l-7.9 7.9 7.9 7.8zM991.6 32.1l-7.9 7.8 7.9 7.9zM999.4 55.7l-7.8 7.8 7.8 7.9z" class="fil4"/><path d="M999.4 71.4l7.9-7.9-7.9-7.8z" class="fil5"/><path d="M1007.3 63.5l-7.9 7.9 7.9 7.9zM1007.3 47.8l-7.9 7.9 7.9 7.8zM999.4 24.2l-7.8 7.8 7.8 7.9z" class="fil4"/><path d="M999.4 39.9l7.9-7.9-7.9-7.8z" class="fil5"/><path d="M1007.3 32l-7.9 7.9 7.9 7.9zM1007.3 16.3l-7.9 7.9 7.9 7.8z" class="fil4"/><path d="M999.4 55.7l7.9-7.9-7.9-7.9z" class="fil5"/><path d="M999.4 39.9l-7.8 7.9 7.8 7.9z" class="fil4"/><path d="M991.6 47.8l7.8-7.9-7.8-7.8zM991.6 63.5l7.8-7.8-7.8-7.9z" class="fil5"/><path d="M983.7-23l-7.9 7.8 7.9 7.9z" class="fil4"/><path d="M983.7-7.3l7.9-7.9-7.9-7.8z" class="fil5"/><path d="M991.6-15.2l-7.9 7.9 7.9 7.9zM991.6-30.9l-7.9 7.9 7.9 7.8zM999.4-7.3L991.6.6l7.8 7.8z" class="fil4"/><path d="M999.4 8.4l7.9-7.8-7.9-7.9z" class="fil5"/><path d="M1007.3.6l-7.9 7.8 7.9 7.9z" class="fil4"/><path d="M1007.3-15.2l-7.9 7.9 7.9 7.9zM999.4-38.8l-7.8 7.9 7.8 7.9z" class="fil4"/><path d="M999.4-23l7.9-7.9-7.9-7.9z" class="fil5"/><path d="M1007.3-30.9l-7.9 7.9 7.9 7.8zM1007.3-46.6l-7.9 7.8 7.9 7.9z" class="fil4"/><path d="M999.4-7.3l7.9-7.9-7.9-7.8z" class="fil5"/><path d="M999.4-23l-7.8 7.8 7.8 7.9z" class="fil4"/><path d="M991.6-15.2l7.8-7.8-7.8-7.9z" class="fil5"/><path d="M991.6.6l7.8-7.9-7.8-7.9z" class="fil5"/><path d="M566.5-361.5l-62.9 63 62.9 63z" class="fil1"/><path d="M566.5-235.5l63-63-63-63z" class="fil2"/><path d="M629.5-298.5l-63 62.9 63 63zM629.5-424.4l-63 62.9 63 63z" class="fil1"/><path d="M692.5-235.5l62.9-63-62.9-63z" class="fil2"/><path d="M692.5-361.5l-63 63 63 63z" class="fil1"/><path d="M629.5-298.5l63-63-63-62.9zM629.5-172.6l63-62.9-63-63z" class="fil2"/><path d="M692.5-235.5l-63 62.9 63 63z" class="fil1"/><path d="M692.5-109.6l62.9-63-62.9-62.9z" class="fil2"/><path d="M755.4-172.6l-62.9 63 62.9 63zM755.4-298.5l-62.9 63 62.9 62.9z" class="fil1"/><path d="M818.4-109.6l63-63-63-63z" class="fil3"/><path d="M818.4-235.6l-63 63 63 63z" class="fil2"/><path d="M755.4-172.6l63-62.9-63-63zM755.4-46.6l63-63-63-63z" class="fil3"/><path d="M786.9-330l-31.5 31.5 31.5 31.5z" class="fil2"/><path d="M786.9-267l31.5-31.5-31.5-31.5z" class="fil3"/><path d="M818.4-298.5L786.9-267l31.5 31.4zM818.4-361.5L786.9-330l31.5 31.5z" class="fil2"/><path d="M849.9-267l31.5-31.5-31.5-31.5z" class="fil3"/><path d="M849.9-330l-31.5 31.5 31.5 31.5z" class="fil4"/><path d="M818.4-298.5l31.5-31.5-31.5-31.5zM818.4-235.6l31.5-31.4-31.5-31.5z" class="fil3"/><path d="M849.9-267l-31.5 31.5 31.5 31.4z" class="fil4"/><path d="M849.9-204.1l31.5-31.4-31.5-31.5z" class="fil3"/><path d="M881.4-235.5l-31.5 31.4 31.5 31.5zM881.4-298.5L849.9-267l31.5 31.5z" class="fil4"/><path d="M912.9-204.1l31.4-31.4-31.4-31.5z" class="fil5"/><path d="M912.9-267l-31.5 31.5 31.5 31.4z" class="fil4"/><path d="M881.4-235.5l31.5-31.5-31.5-31.5zM881.4-172.6l31.5-31.5-31.5-31.4z" class="fil3"/><path d="M849.9-393l-31.5 31.5 31.5 31.5z" class="fil4"/><path d="M849.9-330l31.5-31.5-31.5-31.5z" class="fil3"/><path d="M881.4-361.5L849.9-330l31.5 31.5zM881.4-424.4L849.9-393l31.5 31.5z" class="fil4"/><path d="M912.9-330l31.4-31.5-31.4-31.5z" class="fil5"/><path d="M912.9-393l-31.5 31.5 31.5 31.5z" class="fil4"/><path d="M881.4-361.5l31.5-31.5-31.5-31.4zM881.4-298.5l31.5-31.5-31.5-31.5z" class="fil3"/><path d="M897.1-188.3l-15.7 15.7 15.7 15.8z" class="fil4"/><path d="M897.1-156.8l15.8-15.8-15.8-15.7z" class="fil5"/><path d="M912.9-172.6l-15.8 15.8 15.8 15.7zM912.9-204.1l-15.8 15.8 15.8 15.7z" class="fil4"/><path d="M928.6-156.8l15.7-15.8-15.7-15.7z" class="fil5"/><path d="M928.6-188.3l-15.7 15.7 15.7 15.8z" class="fil4"/><path d="M912.9-172.6l15.7-15.7-15.7-15.8zM912.9-141.1l15.7-15.7-15.7-15.8z" class="fil5"/><path d="M928.6-156.8l-15.7 15.7 15.7 15.7z" class="fil4"/><path d="M928.6-125.4l15.7-15.7-15.7-15.7z" class="fil5"/><path d="M944.3-141.1l-15.7 15.7 15.7 15.8zM944.3-172.6l-15.7 15.8 15.7 15.7z" class="fil4"/><path d="M960.1-125.4l15.7-15.7-15.7-15.7z" class="fil5"/><path d="M960.1-156.8l-15.8 15.7 15.8 15.7z" class="fil4"/><path d="M944.3-141.1l15.8-15.7-15.8-15.8zM944.3-109.6l15.8-15.8-15.8-15.7z" class="fil5"/><path d="M928.6-219.8l-15.7 15.7 15.7 15.8z" class="fil4"/><path d="M928.6-188.3l15.7-15.8-15.7-15.7z" class="fil5"/><path d="M944.3-204.1l-15.7 15.8 15.7 15.7zM944.3-235.6l-15.7 15.8 15.7 15.7z" class="fil4"/><path d="M960.1-188.3l15.7-15.8-15.7-15.7z" class="fil5"/><path d="M960.1-219.8l-15.8 15.7 15.8 15.8z" class="fil4"/><path d="M944.3-204.1l15.8-15.7-15.8-15.8zM944.3-172.6l15.8-15.7-15.8-15.8z" class="fil5"/><path d="M897.1-314.3l-15.7 15.8 15.7 15.7z" class="fil4"/><path d="M897.1-282.8l15.8-15.7-15.8-15.8z" class="fil5"/><path d="M912.9-298.5l-15.8 15.7 15.8 15.8zM912.9-330l-15.8 15.7 15.8 15.8z" class="fil4"/><path d="M928.6-282.8l15.7-15.7-15.7-15.8z" class="fil5"/><path d="M928.6-314.3l-15.7 15.8 15.7 15.7z" class="fil4"/><path d="M912.9-298.5l15.7-15.8-15.7-15.7zM912.9-267l15.7-15.8-15.7-15.7z" class="fil5"/><path d="M928.6-282.8L912.9-267l15.7 15.7z" class="fil4"/><path d="M928.6-251.3l15.7-15.7-15.7-15.8z" class="fil5"/><path d="M944.3-267l-15.7 15.7 15.7 15.7zM944.3-298.5l-15.7 15.7 15.7 15.8z" class="fil4"/><path d="M960.1-251.3l15.7-15.7-15.7-15.8z" class="fil5"/><path d="M960.1-282.8L944.3-267l15.8 15.7z" class="fil4"/><path d="M944.3-267l15.8-15.8-15.8-15.7zM944.3-235.6l15.8-15.7-15.8-15.7z" class="fil5"/><path d="M928.6-345.7L912.9-330l15.7 15.7z" class="fil4"/><path d="M928.6-314.3l15.7-15.7-15.7-15.7z" class="fil5"/><path d="M944.3-330l-15.7 15.7 15.7 15.8zM944.3-361.5l-15.7 15.8 15.7 15.7z" class="fil4"/><path d="M960.1-314.3l15.7-15.7-15.7-15.7z" class="fil5"/><path d="M960.1-345.7L944.3-330l15.8 15.7z" class="fil4"/><path d="M944.3-330l15.8-15.7-15.8-15.8zM944.3-298.5l15.8-15.8-15.8-15.7z" class="fil5"/><path d="M960.1-314.3l-15.8 15.8 15.8 15.7z" class="fil4"/><path d="M960.1-282.8l15.7-15.7-15.7-15.8z" class="fil5"/><path d="M975.8-298.5l-15.7 15.7 15.7 15.8zM975.8-330l-15.7 15.7 15.7 15.8z" class="fil4"/><path d="M991.6-282.8l15.7-15.7-15.7-15.8z" class="fil5"/><path d="M991.6-314.3l-15.8 15.8 15.8 15.7z" class="fil4"/><path d="M975.8-298.5l15.8-15.8-15.8-15.7zM975.8-267l15.8-15.8-15.8-15.7z" class="fil5"/><path d="M960.1-251.3l-15.8 15.7 15.8 15.8z" class="fil4"/><path d="M960.1-219.8l15.7-15.8-15.7-15.7z" class="fil5"/><path d="M975.8-235.6l-15.7 15.8 15.7 15.7zM975.8-267l-15.7 15.7 15.7 15.7z" class="fil4"/><path d="M991.6-219.8l15.7-15.8-15.7-15.7z" class="fil5"/><path d="M991.6-251.3l-15.8 15.7 15.8 15.8z" class="fil4"/><path d="M975.8-235.6l15.8-15.7-15.8-15.7zM975.8-204.1l15.8-15.7-15.8-15.8z" class="fil5"/><path d="M960.1-188.3l-15.8 15.7 15.8 15.8z" class="fil4"/><path d="M960.1-156.8l15.7-15.8-15.7-15.7z" class="fil5"/><path d="M975.8-172.6l-15.7 15.8 15.7 15.7zM975.8-204.1l-15.7 15.8 15.7 15.7z" class="fil4"/><path d="M991.6-156.8l15.7-15.8-15.7-15.7z" class="fil5"/><path d="M991.6-188.3l-15.8 15.7 15.8 15.8z" class="fil4"/><path d="M975.8-172.6l15.8-15.7-15.8-15.8zM975.8-141.1l15.8-15.7-15.8-15.8z" class="fil5"/><path d="M960.1-125.4l-15.8 15.8 15.8 15.7z" class="fil4"/><path d="M960.1-93.9l15.7-15.7-15.7-15.8z" class="fil5"/><path d="M975.8-109.6l-15.7 15.7 15.7 15.8zM975.8-141.1l-15.7 15.7 15.7 15.8zM983.7-86l-7.9 7.9 7.9 7.8z" class="fil4"/><path d="M983.7-70.3l7.9-7.8-7.9-7.9z" class="fil5"/><path d="M991.6-78.1l-7.9 7.8 7.9 7.9zM991.6-93.9l-7.9 7.9 7.9 7.9zM999.4-70.3l-7.8 7.9 7.8 7.9z" class="fil4"/><path d="M999.4-54.5l7.9-7.9-7.9-7.9z" class="fil5"/><path d="M1007.3-62.4l-7.9 7.9 7.9 7.9zM1007.3-78.1l-7.9 7.8 7.9 7.9zM999.4-101.8l-7.8 7.9 7.8 7.9z" class="fil4"/><path d="M999.4-86l7.9-7.9-7.9-7.9z" class="fil5"/><path d="M1007.3-93.9l-7.9 7.9 7.9 7.9z" class="fil4"/><path d="M1007.3-109.6l-7.9 7.8 7.9 7.9z" class="fil4"/><path d="M991.6-93.9l15.7-15.7-15.7-15.8z" class="fil5"/><path d="M991.6-125.4l-15.8 15.8 15.8 15.7z" class="fil4"/><path d="M975.8-109.6l15.8-15.8-15.8-15.7zM975.8-78.1l15.8-15.8-15.8-15.7z" class="fil5"/><path d="M251.8-298.5l-126 125.9 126 126z" class="fil6"/><path d="M377.7-172.6L251.8-298.5h125.9z" class="fil7"/><path d="M503.6-46.6l-125.9-126h125.9z" class="fil9"/><path d="M503.6-298.5L377.7-172.6h125.9z" class="fil10"/><path d="M251.8-46.6l125.9-126-125.9-125.9z" class="fil11"/><path d="M125.8-172.6l126-125.9-126-125.9z" class="fil12"/><path d="M125.8-424.4L-.1-298.5l125.9 125.9z" class="fil13"/><path d="M-.1-298.5L-126-172.6-.1-46.6z" class="fil14"/><path d="M-.1 960.8l125.9-125.9L-.1 709z" class="fil6"/><path d="M-252 709l126 125.9L-.1 709zM-126 1086.8l125.9-126L-126 834.9z" class="fil12"/><path d="M-126 834.9l-126 125.9 126 126zM-.1 709L-126 583l-126 126z" class="fil13"/><path d="M-252 960.8l126-125.9L-252 709z" class="fil14"/><path d="M-.1 457.1L-126 583-.1 709z" class="fil6"/><path d="M-126 583L-.1 457.1-126 331.2z" class="fil12"/><path d="M-126 331.2l-126 125.9L-126 583z" class="fil13"/><path d="M-252 457.1L-377.9 583-252 709z" class="fil14"/><path d="M-.1 457.1l125.9-125.9-125.9-126z" class="fil6"/><path d="M-252 205.2l126 126 125.9-126z" class="fil12"/><path d="M-.1 205.2L-126 79.3l-126 125.9z" class="fil13"/><path d="M-252 457.1l126-125.9-126-126z" class="fil14"/><path d="M-.1-46.6L-126 79.3-.1 205.2z" class="fil6"/><path d="M-126 79.3L-.1-46.6l-125.9-126z" class="fil12"/><path d="M-126-172.6l-126 126 126 125.9z" class="fil13"/><path d="M-252-46.6L-377.9 79.3-252 205.2z" class="fil14"/><path d="M-.1-46.6l125.9-126L-.1-298.5z" class="fil6"/><path d="M-252-298.5l126 125.9L-.1-298.5z" class="fil12"/><path d="M-.1-298.5L-126-424.4l-126 125.9z" class="fil13"/><path d="M-252-46.6l126-126-126-125.9z" class="fil14"/><path d="M-252 709l-125.9 125.9L-252 960.8z" class="fil6"/><path d="M-377.9 834.9L-252 709l-125.9-126zM-503.8 960.8l125.9 126 125.9-126z" class="fil12"/><path d="M-252 960.8l-125.9-125.9-125.9 125.9zM-377.9 583l-125.9 126 125.9 125.9z" class="fil13"/><path d="M-503.8 960.8l125.9-125.9L-503.8 709z" class="fil14"/><path d="M-252 709l126-126-126-125.9z" class="fil6"/><path d="M-503.8 457.1L-377.9 583-252 457.1z" class="fil12"/><path d="M-252 457.1l-125.9-125.9-125.9 125.9z" class="fil13"/><path d="M-503.8 709l125.9-126-125.9-125.9z" class="fil14"/><path d="M-252 205.2l-125.9 126L-252 457.1z" class="fil6"/><path d="M-377.9 331.2l125.9-126-125.9-125.9z" class="fil12"/><path d="M-377.9 79.3l-125.9 125.9 125.9 126z" class="fil13"/><path d="M-503.8 457.1l125.9-125.9-125.9-126z" class="fil14"/><path d="M-252 205.2l126-125.9-126-125.9z" class="fil6"/><path d="M-503.8-46.6l125.9 125.9L-252-46.6z" class="fil12"/><path d="M-252-46.6l-125.9-126-125.9 126z" class="fil13"/><path d="M-503.8 205.2l125.9-125.9-125.9-125.9z" class="fil14"/><path d="M-252-298.5l-125.9 125.9 125.9 126z" class="fil6"/><path d="M-377.9-172.6L-252-298.5l-125.9-125.9z" class="fil12"/><path d="M-377.9-424.4l-125.9 125.9 125.9 125.9z" class="fil13"/><path d="M-503.8-46.6l125.9-126-125.9-125.9zM-503.8 960.8l-126-125.9 126-125.9zM-503.8 709l-126-126 126-125.9zM-503.8 457.1l-126-125.9 126-126zM-503.8 205.2l-126-125.9 126-125.9z" class="fil14"/><path d="M-503.8-46.6l-126-126 126-125.9z" class="fil14"/><path d="M377.7-424.4l125.9 125.9H377.7z" class="fil10"/><path d="M377.7-424.4L251.8-298.5h125.9z" class="fil8"/><path d="M377.7-172.6l125.9-125.9H377.7z" class="fil15"/><path d="M503.6-298.5l125.9 125.9H503.6z" class="fil9"/><path d="M503.6-46.6l125.9-126H503.6z" class="fil10"/><path d="M999.4-70.3l7.9-7.8-7.9-7.9z" class="fil5"/><path d="M999.4-86l-7.8 7.9 7.8 7.8z" class="fil4"/><path d="M991.6-78.1l7.8-7.9-7.8-7.9zM991.6-62.4l7.8-7.9-7.8-7.8z" class="fil5"/><path d="M983.7-149l-7.9 7.9 7.9 7.9z" class="fil4"/><path d="M983.7-133.2l7.9-7.9-7.9-7.9z" class="fil5"/><path d="M991.6-141.1l-7.9 7.9 7.9 7.9zM991.6-156.8l-7.9 7.8 7.9 7.9zM999.4-133.2l-7.8 7.8 7.8 7.9z" class="fil4"/><path d="M999.4-117.5l7.9-7.9-7.9-7.8z" class="fil5"/><path d="M1007.3-125.4l-7.9 7.9 7.9 7.9z" class="fil4"/><path d="M1007.3-141.1l-7.9 7.9 7.9 7.8zM999.4-164.7l-7.8 7.9 7.8 7.8z" class="fil4"/><path d="M999.4-149l7.9-7.8-7.9-7.9z" class="fil5"/><path d="M1007.3-156.8l-7.9 7.8 7.9 7.9z" class="fil4"/><path d="M1007.3-172.6l-7.9 7.9 7.9 7.9z" class="fil4"/><path d="M999.4-133.2l7.9-7.9-7.9-7.9z" class="fil5"/><path d="M999.4-149l-7.8 7.9 7.8 7.9z" class="fil4"/><path d="M991.6-141.1l7.8-7.9-7.8-7.8zM991.6-125.3l7.8-7.9-7.8-7.9z" class="fil5"/><path d="M983.7-211.9l-7.9 7.8 7.9 7.9z" class="fil4"/><path d="M983.7-196.2l7.9-7.9-7.9-7.8z" class="fil5"/><path d="M991.6-204.1l-7.9 7.9 7.9 7.9zM991.6-219.8l-7.9 7.9 7.9 7.8zM999.4-196.2l-7.8 7.9 7.8 7.8z" class="fil4"/><path d="M999.4-180.5l7.9-7.8-7.9-7.9z" class="fil5"/><path d="M1007.3-188.3l-7.9 7.8 7.9 7.9z" class="fil4"/><path d="M1007.3-204.1l-7.9 7.9 7.9 7.9zM999.4-227.7l-7.8 7.9 7.8 7.9z" class="fil4"/><path d="M999.4-211.9l7.9-7.9-7.9-7.9z" class="fil5"/><path d="M1007.3-219.8l-7.9 7.9 7.9 7.8z" class="fil4"/><path d="M1007.3-235.6l-7.9 7.9 7.9 7.9z" class="fil4"/><path d="M999.4-196.2l7.9-7.9-7.9-7.8z" class="fil5"/><path d="M999.4-211.9l-7.8 7.8 7.8 7.9z" class="fil4"/><path d="M991.6-204.1l7.8-7.8-7.8-7.9z" class="fil5"/><path d="M991.6-188.3l7.8-7.9-7.8-7.9z" class="fil5"/><path d="M983.7-274.9l-7.9 7.9 7.9 7.9z" class="fil4"/><path d="M983.7-259.1l7.9-7.9-7.9-7.9z" class="fil5"/><path d="M991.6-267l-7.9 7.9 7.9 7.8zM991.6-282.8l-7.9 7.9 7.9 7.9zM999.4-259.2l-7.8 7.9 7.8 7.9z" class="fil4"/><path d="M999.4-243.4l7.9-7.9-7.9-7.9z" class="fil5"/><path d="M1007.3-251.3l-7.9 7.9 7.9 7.9z" class="fil4"/><path d="M1007.3-267l-7.9 7.8 7.9 7.9zM999.4-290.6l-7.8 7.8 7.8 7.9z" class="fil4"/><path d="M999.4-274.9l7.9-7.9-7.9-7.8z" class="fil5"/><path d="M1007.3-282.8l-7.9 7.9 7.9 7.9zM1007.3-298.5l-7.9 7.9 7.9 7.8z" class="fil4"/><path d="M999.4-259.1l7.9-7.9-7.9-7.9z" class="fil5"/><path d="M999.4-274.9l-7.8 7.9 7.8 7.9z" class="fil4"/><path d="M991.6-267l7.8-7.9-7.8-7.9zM991.6-251.3l7.8-7.8-7.8-7.9zM1023.4 724.7l15.8-15.7-15.8-15.8z" class="fil5"/><path d="M1023.4 693.2l-15.7 15.8 15.7 15.7z" class="fil4"/><path d="M1007.7 709l15.7-15.8-15.7-15.7zM1007.7 740.5l15.7-15.8-15.7-15.7zM1023.4 787.7l15.8-15.8-15.8-15.7z" class="fil5"/><path d="M1023.4 756.2l-15.7 15.7 15.7 15.8z" class="fil4"/><path d="M1007.7 771.9l15.7-15.7-15.7-15.7zM1007.7 803.4l15.7-15.7-15.7-15.8zM1023.4 850.6l15.8-15.7-15.8-15.8z" class="fil5"/><path d="M1023.4 819.1l-15.7 15.8 15.7 15.7z" class="fil4"/><path d="M1007.7 834.9l15.7-15.8-15.7-15.7zM1007.7 866.4l15.7-15.8-15.7-15.7z" class="fil5"/><path d="M1015.5 921.5l-7.8 7.9 7.8 7.8z" class="fil4"/><path d="M1015.5 937.2l7.9-7.8-7.9-7.9z" class="fil5"/><path d="M1023.4 929.4l-7.9 7.8 7.9 7.9zM1023.4 913.6l-7.9 7.9 7.9 7.9zM1031.3 937.2l-7.9 7.9 7.9 7.9z" class="fil4"/><path d="M1031.3 953l7.9-7.9-7.9-7.9z" class="fil5"/><path d="M1039.2 945.1l-7.9 7.9 7.9 7.8zM1039.2 929.4l-7.9 7.8 7.9 7.9zM1031.3 905.7l-7.9 7.9 7.9 7.9z" class="fil4"/><path d="M1031.3 921.5l7.9-7.9-7.9-7.9z" class="fil5"/><path d="M1039.2 913.6l-7.9 7.9 7.9 7.9v-.1zM1039.2 897.9l-7.9 7.8 7.9 7.9z" class="fil4"/><path d="M1023.4 913.6l15.8-15.7-15.8-15.8z" class="fil5"/><path d="M1023.4 882.1l-15.7 15.8 15.7 15.7z" class="fil4"/><path d="M1007.7 897.9l15.7-15.8-15.7-15.7zM1007.7 929.4l15.7-15.8-15.7-15.7zM1023.4 976.6l15.8-15.8-15.8-15.7z" class="fil5"/><path d="M1023.4 945.1l-15.7 15.7 15.7 15.8z" class="fil4"/><path d="M1007.7 960.8l15.7-15.7-15.7-15.7zM1007.7 992.3l15.7-15.7-15.7-15.8zM1031.3 937.2l7.9-7.8-7.9-7.9z" class="fil5"/><path d="M1031.3 921.5l-7.9 7.9 7.9 7.8z" class="fil4"/><path d="M1023.4 929.4l7.9-7.9-7.9-7.9zM1023.4 945.1l7.9-7.9-7.9-7.8z" class="fil5"/><path d="M1015.5 858.5l-7.8 7.9 7.8 7.9z" class="fil4"/><path d="M1015.5 874.3l7.9-7.9-7.9-7.9z" class="fil5"/><path d="M1023.4 866.4l-7.9 7.9 7.9 7.8zM1023.4 850.6l-7.9 7.9 7.9 7.9zM1031.3 874.3l-7.9 7.8 7.9 7.9z" class="fil4"/><path d="M1031.3 890l7.9-7.9-7.9-7.8z" class="fil5"/><path d="M1039.2 882.1l-7.9 7.9 7.9 7.9zM1039.2 866.4l-7.9 7.9 7.9 7.8zM1031.3 842.8l-7.9 7.8 7.9 7.9z" class="fil4"/><path d="M1031.3 858.5l7.9-7.9-7.9-7.8z" class="fil5"/><path d="M1039.2 850.6l-7.9 7.9 7.9 7.9zM1039.2 834.9l-7.9 7.9 7.9 7.8z" class="fil4"/><path d="M1031.3 874.3l7.9-7.9-7.9-7.9z" class="fil5"/><path d="M1031.3 858.5l-7.9 7.9 7.9 7.9z" class="fil4"/><path d="M1023.4 866.4l7.9-7.9-7.9-7.9zM1023.4 882.1l7.9-7.8-7.9-7.9z" class="fil5"/><path d="M1015.5 795.5l-7.8 7.9 7.8 7.9z" class="fil4"/><path d="M1015.5 811.3l7.9-7.9-7.9-7.9z" class="fil5"/><path d="M1023.4 803.4l-7.9 7.9 7.9 7.9zM1023.4 787.7l-7.9 7.8 7.9 7.9zM1031.3 811.3l-7.9 7.8 7.9 7.9z" class="fil4"/><path d="M1031.3 827l7.9-7.9-7.9-7.8z" class="fil5"/><path d="M1039.2 819.1l-7.9 7.9 7.9 7.9zM1039.2 803.4l-7.9 7.9 7.9 7.8zM1031.3 779.8l-7.9 7.9 7.9 7.8z" class="fil4"/><path d="M1031.3 795.5l7.9-7.8-7.9-7.9z" class="fil5"/><path d="M1039.2 787.7l-7.9 7.8 7.9 7.9zM1039.2 771.9l-7.9 7.9 7.9 7.9z" class="fil4"/><path d="M1031.3 811.3l7.9-7.9-7.9-7.9z" class="fil5"/><path d="M1031.3 795.5l-7.9 7.9 7.9 7.9z" class="fil4"/><path d="M1023.4 803.4l7.9-7.9-7.9-7.8zM1023.4 819.2l7.9-7.9-7.9-7.9z" class="fil5"/><path d="M1015.5 732.6l-7.8 7.9 7.8 7.8z" class="fil4"/><path d="M1015.5 748.3l7.9-7.8-7.9-7.9z" class="fil5"/><path d="M1023.4 740.5l-7.9 7.8 7.9 7.9zM1023.4 724.7l-7.9 7.9 7.9 7.9zM1031.3 748.3l-7.9 7.9 7.9 7.9z" class="fil4"/><path d="M1031.3 764.1l7.9-7.9-7.9-7.9z" class="fil5"/><path d="M1039.2 756.2l-7.9 7.9 7.9 7.8zM1039.2 740.5l-7.9 7.8 7.9 7.9zM1031.3 716.8l-7.9 7.9 7.9 7.9z" class="fil4"/><path d="M1031.3 732.6l7.9-7.9-7.9-7.9z" class="fil5"/><path d="M1039.2 724.7l-7.9 7.9 7.9 7.9zM1039.2 709l-7.9 7.8 7.9 7.9z" class="fil4"/><path d="M1031.3 748.3l7.9-7.8-7.9-7.9z" class="fil5"/><path d="M1031.3 732.6l-7.9 7.9 7.9 7.8z" class="fil4"/><path d="M1023.4 740.5l7.9-7.9-7.9-7.9zM1023.4 756.2l7.9-7.9-7.9-7.8zM1023.4 472.8l15.8-15.7-15.8-15.7z" class="fil5"/><path d="M1023.4 441.4l-15.7 15.7 15.7 15.7z" class="fil4"/><path d="M1007.7 457.1l15.7-15.7-15.7-15.8zM1007.7 488.6l15.7-15.8-15.7-15.7zM1023.4 535.8l15.8-15.7-15.8-15.8z" class="fil5"/><path d="M1023.4 504.3l-15.7 15.8 15.7 15.7z" class="fil4"/><path d="M1007.7 520.1l15.7-15.8-15.7-15.7z" class="fil5"/><path d="M1007.7 551.5l15.7-15.7-15.7-15.7zM1023.4 598.8l15.8-15.8-15.8-15.7z" class="fil5"/><path d="M1023.4 567.3l-15.7 15.7 15.7 15.8z" class="fil4"/><path d="M1007.7 583l15.7-15.7-15.7-15.8zM1007.7 614.5l15.7-15.7-15.7-15.8z" class="fil5"/><path d="M1015.5 669.6l-7.8 7.9 7.8 7.9z" class="fil4"/><path d="M1015.5 685.4l7.9-7.9-7.9-7.9z" class="fil5"/><path d="M1023.4 677.5l-7.9 7.9 7.9 7.8zM1023.4 661.7l-7.9 7.9 7.9 7.9zM1031.3 685.4l-7.9 7.8 7.9 7.9z" class="fil4"/><path d="M1031.3 701.1l7.9-7.9-7.9-7.8z" class="fil5"/><path d="M1039.2 693.2l-7.9 7.9 7.9 7.9zM1039.2 677.5l-7.9 7.9 7.9 7.8zM1031.3 653.9l-7.9 7.8 7.9 7.9z" class="fil4"/><path d="M1031.3 669.6l7.9-7.9-7.9-7.8z" class="fil5"/><path d="M1039.2 661.7l-7.9 7.9 7.9 7.9zM1039.2 646l-7.9 7.9 7.9 7.8z" class="fil4"/><path d="M1023.4 661.7l15.8-15.7-15.8-15.7z" class="fil5"/><path d="M1023.4 630.3l-15.7 15.7 15.7 15.7z" class="fil4"/><path d="M1007.7 646l15.7-15.7-15.7-15.8zM1007.7 677.5l15.7-15.8-15.7-15.7zM1031.3 685.4l7.9-7.9-7.9-7.9z" class="fil5"/><path d="M1031.3 669.6l-7.9 7.9 7.9 7.9z" class="fil4"/><path d="M1023.4 677.5l7.9-7.9-7.9-7.9zM1023.4 693.2l7.9-7.8-7.9-7.9z" class="fil5"/><path d="M1015.5 606.6l-7.8 7.9 7.8 7.9z" class="fil4"/><path d="M1015.5 622.4l7.9-7.9-7.9-7.9z" class="fil5"/><path d="M1023.4 614.5l-7.9 7.9 7.9 7.9zM1023.4 598.8l-7.9 7.8 7.9 7.9zM1031.3 622.4l-7.9 7.9 7.9 7.8z" class="fil4"/><path d="M1031.3 638.1l7.9-7.8-7.9-7.9z" class="fil5"/><path d="M1039.2 630.3l-7.9 7.8 7.9 7.9zM1039.2 614.5l-7.9 7.9 7.9 7.9zM1031.3 590.9l-7.9 7.9 7.9 7.8z" class="fil4"/><path d="M1031.3 606.6l7.9-7.8-7.9-7.9z" class="fil5"/><path d="M1039.2 598.8l-7.9 7.8 7.9 7.9zM1039.2 583l-7.9 7.9 7.9 7.9z" class="fil4"/><path d="M1031.3 622.4l7.9-7.9-7.9-7.9z" class="fil5"/><path d="M1031.3 606.6l-7.9 7.9 7.9 7.9z" class="fil4"/><path d="M1023.4 614.5l7.9-7.9-7.9-7.8zM1023.4 630.3l7.9-7.9-7.9-7.9z" class="fil5"/><path d="M1015.5 543.7l-7.8 7.8 7.8 7.9z" class="fil4"/><path d="M1015.5 559.4l7.9-7.9-7.9-7.8z" class="fil5"/><path d="M1023.4 551.5l-7.9 7.9 7.9 7.9zM1023.4 535.8l-7.9 7.9 7.9 7.8zM1031.3 559.4l-7.9 7.9 7.9 7.9z" class="fil4"/><path d="M1031.3 575.2l7.9-7.9-7.9-7.9z" class="fil5"/><path d="M1039.2 567.3l-7.9 7.9 7.9 7.8zM1039.2 551.5l-7.9 7.9 7.9 7.9zM1031.3 527.9l-7.9 7.9 7.9 7.9z" class="fil4"/><path d="M1031.3 543.7l7.9-7.9-7.9-7.9z" class="fil5"/><path d="M1039.2 535.8l-7.9 7.9 7.9 7.8zM1039.2 520.1l-7.9 7.8 7.9 7.9z" class="fil4"/><path d="M1031.3 559.4l7.9-7.9-7.9-7.8z" class="fil5"/><path d="M1031.3 543.7l-7.9 7.8 7.9 7.9z" class="fil4"/><path d="M1023.4 551.5l7.9-7.8-7.9-7.9zM1023.4 567.3l7.9-7.9-7.9-7.9z" class="fil5"/><path d="M1015.5 480.7l-7.8 7.9 7.8 7.9z" class="fil4"/><path d="M1015.5 496.5l7.9-7.9-7.9-7.9z" class="fil5"/><path d="M1023.4 488.6l-7.9 7.9 7.9 7.8zM1023.4 472.9l-7.9 7.8 7.9 7.9zM1031.3 496.4l-7.9 7.9 7.9 7.9z" class="fil4"/><path d="M1031.3 512.2l7.9-7.9-7.9-7.9z" class="fil5"/><path d="M1039.2 504.3l-7.9 7.9 7.9 7.9zM1039.2 488.6l-7.9 7.8 7.9 7.9zM1031.3 465l-7.9 7.8 7.9 7.9z" class="fil4"/><path d="M1031.3 480.7l7.9-7.9-7.9-7.8z" class="fil5"/><path d="M1039.2 472.8l-7.9 7.9 7.9 7.9zM1039.2 457.1l-7.9 7.9 7.9 7.8z" class="fil4"/><path d="M1031.3 496.5l7.9-7.9-7.9-7.9z" class="fil5"/><path d="M1031.3 480.7l-7.9 7.9 7.9 7.9z" class="fil4"/><path d="M1023.4 488.6l7.9-7.9-7.9-7.8zM1023.4 504.3l7.9-7.8-7.9-7.9zM1023.4 221l15.8-15.8-15.8-15.7z" class="fil5"/><path d="M1023.4 189.5l-15.7 15.7 15.7 15.8z" class="fil4"/><path d="M1007.7 205.2l15.7-15.7-15.7-15.8zM1007.7 236.7l15.7-15.7-15.7-15.8zM1023.4 283.9l15.8-15.7-15.8-15.8z" class="fil5"/><path d="M1023.4 252.4l-15.7 15.8 15.7 15.7z" class="fil4"/><path d="M1007.7 268.2l15.7-15.8-15.7-15.7zM1007.7 299.7l15.7-15.8-15.7-15.7zM1023.4 346.9l15.8-15.8-15.8-15.7z" class="fil5"/><path d="M1023.4 315.4l-15.7 15.7 15.7 15.8z" class="fil4"/><path d="M1007.7 331.1l15.7-15.7-15.7-15.7zM1007.7 362.6l15.7-15.7-15.7-15.8z" class="fil5"/><path d="M1015.5 417.7l-7.8 7.9 7.8 7.9z" class="fil4"/><path d="M1015.5 433.5l7.9-7.9-7.9-7.9z" class="fil5"/><path d="M1023.4 425.6l-7.9 7.9 7.9 7.9zM1023.4 409.9l-7.9 7.8 7.9 7.9zM1031.3 433.5l-7.9 7.8 7.9 7.9z" class="fil4"/><path d="M1031.3 449.2l7.9-7.9-7.9-7.8z" class="fil5"/><path d="M1039.2 441.3l-7.9 7.9 7.9 7.9zM1039.2 425.6l-7.9 7.9 7.9 7.8zM1031.3 402l-7.9 7.9 7.9 7.8z" class="fil4"/><path d="M1031.3 417.7l7.9-7.8-7.9-7.9z" class="fil5"/><path d="M1039.2 409.9l-7.9 7.8 7.9 7.9zM1039.2 394.1l-7.9 7.9 7.9 7.9z" class="fil4"/><path d="M1023.4 409.9l15.8-15.8-15.8-15.7z" class="fil5"/><path d="M1023.4 378.4l-15.7 15.7 15.7 15.8z" class="fil4"/><path d="M1007.7 394.1l15.7-15.7-15.7-15.8zM1007.7 425.6l15.7-15.7-15.7-15.8zM1031.3 433.5l7.9-7.9-7.9-7.9z" class="fil5"/><path d="M1031.3 417.7l-7.9 7.9 7.9 7.9z" class="fil4"/><path d="M1023.4 425.6l7.9-7.9-7.9-7.8zM1023.4 441.4l7.9-7.9-7.9-7.9z" class="fil5"/><path d="M1015.5 354.8l-7.8 7.8 7.8 7.9z" class="fil4"/><path d="M1015.5 370.5l7.9-7.9-7.9-7.8z" class="fil5"/><path d="M1023.4 362.6l-7.9 7.9 7.9 7.9zM1023.4 346.9l-7.9 7.9 7.9 7.8zM1031.3 370.5l-7.9 7.9 7.9 7.9z" class="fil4"/><path d="M1031.3 386.3l7.9-7.9-7.9-7.9z" class="fil5"/><path d="M1039.2 378.4l-7.9 7.9 7.9 7.8zM1039.2 362.6l-7.9 7.9 7.9 7.9zM1031.3 339l-7.9 7.9 7.9 7.9z" class="fil4"/><path d="M1031.3 354.8l7.9-7.9-7.9-7.9z" class="fil5"/><path d="M1039.2 346.9l-7.9 7.9 7.9 7.8zM1039.2 331.1l-7.9 7.9 7.9 7.9z" class="fil4"/><path d="M1031.3 370.5l7.9-7.9-7.9-7.8z" class="fil5"/><path d="M1031.3 354.8l-7.9 7.8 7.9 7.9z" class="fil4"/><path d="M1023.4 362.6l7.9-7.8-7.9-7.9zM1023.4 378.4l7.9-7.9-7.9-7.9z" class="fil5"/><path d="M1015.5 291.8l-7.8 7.9 7.8 7.8z" class="fil4"/><path d="M1015.5 307.5l7.9-7.8-7.9-7.9z" class="fil5"/><path d="M1023.4 299.7l-7.9 7.8 7.9 7.9zM1023.4 283.9l-7.9 7.9 7.9 7.9zM1031.3 307.5l-7.9 7.9 7.9 7.9z" class="fil4"/><path d="M1031.3 323.3l7.9-7.9-7.9-7.9z" class="fil5"/><path d="M1039.2 315.4l-7.9 7.9 7.9 7.8zM1039.2 299.7l-7.9 7.8 7.9 7.9zM1031.3 276.1l-7.9 7.8 7.9 7.9z" class="fil4"/><path d="M1031.3 291.8l7.9-7.9-7.9-7.8z" class="fil5"/><path d="M1039.2 283.9l-7.9 7.9 7.9 7.9zM1039.2 268.2l-7.9 7.9 7.9 7.8z" class="fil4"/><path d="M1031.3 307.5l7.9-7.8-7.9-7.9z" class="fil5"/><path d="M1031.3 291.8l-7.9 7.9 7.9 7.8z" class="fil4"/><path d="M1023.4 299.7l7.9-7.9-7.9-7.9zM1023.4 315.4l7.9-7.9-7.9-7.8z" class="fil5"/><path d="M1015.5 228.8l-7.8 7.9 7.8 7.9z" class="fil4"/><path d="M1015.5 244.6l7.9-7.9-7.9-7.9z" class="fil5"/><path d="M1023.4 236.7l-7.9 7.9 7.9 7.8z" class="fil4"/><path d="M1023.4 221l-7.9 7.8 7.9 7.9zM1031.3 244.6l-7.9 7.8 7.9 7.9z" class="fil4"/><path d="M1031.3 260.3l7.9-7.9-7.9-7.8z" class="fil5"/><path d="M1039.2 252.4l-7.9 7.9 7.9 7.9zM1039.2 236.7l-7.9 7.9 7.9 7.8zM1031.3 213.1l-7.9 7.9 7.9 7.8z" class="fil4"/><path d="M1031.3 228.8l7.9-7.8-7.9-7.9z" class="fil5"/><path d="M1039.2 221l-7.9 7.8 7.9 7.9zM1039.2 205.2l-7.9 7.9 7.9 7.9z" class="fil4"/><path d="M1031.3 244.6l7.9-7.9-7.9-7.9z" class="fil5"/><path d="M1031.3 228.8l-7.9 7.9 7.9 7.9z" class="fil4"/><path d="M1023.4 236.7l7.9-7.9-7.9-7.8zM1023.4 252.4l7.9-7.8-7.9-7.9zM1023.4-30.9l15.8-15.8-15.8-15.7z" class="fil5"/><path d="M1023.4-62.4l-15.7 15.7 15.7 15.8z" class="fil4"/><path d="M1007.7-46.6l15.7-15.8-15.7-15.7z" class="fil5"/><path d="M1007.7-15.2l15.7-15.7-15.7-15.8zM1023.4 32l15.8-15.7L1023.4.6z" class="fil5"/><path d="M1023.4.6l-15.7 15.7 15.7 15.7z" class="fil4"/><path d="M1007.7 16.3L1023.4.6l-15.7-15.8z" class="fil5"/><path d="M1007.7 47.8l15.7-15.8-15.7-15.7zM1023.4 95l15.8-15.7-15.8-15.8z" class="fil5"/><path d="M1023.4 63.5l-15.7 15.8 15.7 15.7z" class="fil4"/><path d="M1007.7 79.3l15.7-15.8-15.7-15.7zM1007.7 110.8l15.7-15.8-15.7-15.7z" class="fil5"/><path d="M1015.5 165.9l-7.8 7.8 7.8 7.9z" class="fil4"/><path d="M1015.5 181.6l7.9-7.9-7.9-7.8z" class="fil5"/><path d="M1023.4 173.7l-7.9 7.9 7.9 7.9z" class="fil4"/><path d="M1023.4 158l-7.9 7.9 7.9 7.8zM1031.3 181.6l-7.9 7.9 7.9 7.8z" class="fil4"/><path d="M1031.3 197.3l7.9-7.8-7.9-7.9z" class="fil5"/><path d="M1039.2 189.5l-7.9 7.8 7.9 7.9zM1039.2 173.7l-7.9 7.9 7.9 7.9zM1031.3 150.1l-7.9 7.9 7.9 7.9z" class="fil4"/><path d="M1031.3 165.9l7.9-7.9-7.9-7.9z" class="fil5"/><path d="M1039.2 158l-7.9 7.9 7.9 7.8zM1039.2 142.2l-7.9 7.9 7.9 7.9z" class="fil4"/><path d="M1023.4 158l15.8-15.8-15.8-15.7z" class="fil5"/><path d="M1023.4 126.5l-15.7 15.7v.1l15.7 15.7z" class="fil4"/><path d="M1007.7 142.3l15.7-15.8-15.7-15.7z" class="fil5"/><path d="M1007.7 173.7l15.7-15.7-15.7-15.8v.1zM1031.3 181.6l7.9-7.9-7.9-7.8z" class="fil5"/><path d="M1031.3 165.9l-7.9 7.8 7.9 7.9z" class="fil4"/><path d="M1023.4 173.7l7.9-7.8-7.9-7.9zM1023.4 189.5l7.9-7.9-7.9-7.9z" class="fil5"/><path d="M1015.5 102.9l-7.8 7.9 7.8 7.8z" class="fil4"/><path d="M1015.5 118.6l7.9-7.8-7.9-7.9z" class="fil5"/><path d="M1023.4 110.8l-7.9 7.8 7.9 7.9z" class="fil4"/><path d="M1023.4 95l-7.9 7.9 7.9 7.9zM1031.3 118.6l-7.9 7.9 7.9 7.9z" class="fil4"/><path d="M1031.3 134.4l7.9-7.9-7.9-7.9z" class="fil5"/><path d="M1039.2 126.5l-7.9 7.9 7.9 7.9zM1039.2 110.8l-7.9 7.8 7.9 7.9zM1031.3 87.2l-7.9 7.8 7.9 7.9z" class="fil4"/><path d="M1031.3 102.9l7.9-7.9-7.9-7.8z" class="fil5"/><path d="M1039.2 95l-7.9 7.9 7.9 7.9zM1039.2 79.3l-7.9 7.9 7.9 7.8z" class="fil4"/><path d="M1031.3 118.6l7.9-7.8-7.9-7.9z" class="fil5"/><path d="M1031.3 102.9l-7.9 7.9 7.9 7.8z" class="fil4"/><path d="M1023.4 110.8l7.9-7.9-7.9-7.9zM1023.4 126.5l7.9-7.9-7.9-7.8z" class="fil5"/><path d="M1015.5 39.9l-7.8 7.9 7.8 7.9z" class="fil4"/><path d="M1015.5 55.7l7.9-7.9-7.9-7.9z" class="fil5"/><path d="M1023.4 47.8l-7.9 7.9 7.9 7.8zM1023.4 32.1l-7.9 7.8 7.9 7.9zM1031.3 55.7l-7.9 7.8 7.9 7.9z" class="fil4"/><path d="M1031.3 71.4l7.9-7.9-7.9-7.8z" class="fil5"/><path d="M1039.2 63.5l-7.9 7.9 7.9 7.9zM1039.2 47.8l-7.9 7.9 7.9 7.8zM1031.3 24.2l-7.9 7.8 7.9 7.9z" class="fil4"/><path d="M1031.3 39.9l7.9-7.9-7.9-7.8z" class="fil5"/><path d="M1039.2 32l-7.9 7.9 7.9 7.9zM1039.2 16.3l-7.9 7.9 7.9 7.8z" class="fil4"/><path d="M1031.3 55.7l7.9-7.9-7.9-7.9z" class="fil5"/><path d="M1031.3 39.9l-7.9 7.9 7.9 7.9z" class="fil4"/><path d="M1023.4 47.8l7.9-7.9-7.9-7.8zM1023.4 63.5l7.9-7.8-7.9-7.9z" class="fil5"/><path d="M1015.5-23l-7.8 7.8 7.8 7.9z" class="fil4"/><path d="M1015.5-7.3l7.9-7.9-7.9-7.8z" class="fil5"/><path d="M1023.4-15.2l-7.9 7.9 7.9 7.9zM1023.4-30.9l-7.9 7.9 7.9 7.8zM1031.3-7.3l-7.9 7.9 7.9 7.8z" class="fil4"/><path d="M1031.3 8.4l7.9-7.8-7.9-7.9z" class="fil5"/><path d="M1039.2.6l-7.9 7.8 7.9 7.9z" class="fil4"/><path d="M1039.2-15.2l-7.9 7.9 7.9 7.9zM1031.3-38.8l-7.9 7.9 7.9 7.9z" class="fil4"/><path d="M1031.3-23l7.9-7.9-7.9-7.9z" class="fil5"/><path d="M1039.2-30.9l-7.9 7.9 7.9 7.8zM1039.2-46.6l-7.9 7.8 7.9 7.9z" class="fil4"/><path d="M1031.3-7.3l7.9-7.9-7.9-7.8z" class="fil5"/><path d="M1031.3-23l-7.9 7.8 7.9 7.9z" class="fil4"/><path d="M1023.4-15.2l7.9-7.8-7.9-7.9z" class="fil5"/><path d="M1023.4.6l7.9-7.9-7.9-7.9zM1023.4-282.8l15.8-15.7-15.8-15.8z" class="fil5"/><path d="M1023.4-314.3l-15.7 15.8 15.7 15.7z" class="fil4"/><path d="M1007.7-298.5l15.7-15.8-15.7-15.7zM1007.7-267l15.7-15.8-15.7-15.7zM1023.4-219.8l15.8-15.8-15.8-15.7z" class="fil5"/><path d="M1023.4-251.3l-15.7 15.7 15.7 15.8z" class="fil4"/><path d="M1007.7-235.6l15.7-15.7-15.7-15.7zM1007.7-204.1l15.7-15.7-15.7-15.8zM1023.4-156.8l15.8-15.8-15.8-15.7z" class="fil5"/><path d="M1023.4-188.3l-15.7 15.7 15.7 15.8z" class="fil4"/><path d="M1007.7-172.6l15.7-15.7-15.7-15.8zM1007.7-141.1l15.7-15.7-15.7-15.8z" class="fil5"/><path d="M1015.5-86l-7.8 7.9 7.8 7.8z" class="fil4"/><path d="M1015.5-70.3l7.9-7.8-7.9-7.9z" class="fil5"/><path d="M1023.4-78.1l-7.9 7.8 7.9 7.9zM1023.4-93.9l-7.9 7.9 7.9 7.9zM1031.3-70.3l-7.9 7.9 7.9 7.9z" class="fil4"/><path d="M1031.3-54.5l7.9-7.9-7.9-7.9z" class="fil5"/><path d="M1039.2-62.4l-7.9 7.9 7.9 7.9zM1039.2-78.1l-7.9 7.8 7.9 7.9zM1031.3-101.8l-7.9 7.9 7.9 7.9z" class="fil4"/><path d="M1031.3-86l7.9-7.9-7.9-7.9z" class="fil5"/><path d="M1039.2-93.9l-7.9 7.9 7.9 7.9z" class="fil4"/><path d="M1039.2-109.6l-7.9 7.8 7.9 7.9z" class="fil4"/><path d="M1023.4-93.9l15.8-15.7-15.8-15.8z" class="fil5"/><path d="M1023.4-125.4l-15.7 15.8 15.7 15.7z" class="fil4"/><path d="M1007.7-109.6l15.7-15.8-15.7-15.7zM1007.7-78.1l15.7-15.8-15.7-15.7zM1031.3-70.3l7.9-7.8-7.9-7.9z" class="fil5"/><path d="M1031.3-86l-7.9 7.9 7.9 7.8z" class="fil4"/><path d="M1023.4-78.1l7.9-7.9-7.9-7.9zM1023.4-62.4l7.9-7.9-7.9-7.8z" class="fil5"/><path d="M1015.5-149l-7.8 7.9 7.8 7.9z" class="fil4"/><path d="M1015.5-133.2l7.9-7.9-7.9-7.9z" class="fil5"/><path d="M1023.4-141.1l-7.9 7.9 7.9 7.9zM1023.4-156.8l-7.9 7.8 7.9 7.9zM1031.3-133.2l-7.9 7.8 7.9 7.9z" class="fil4"/><path d="M1031.3-117.5l7.9-7.9-7.9-7.8z" class="fil5"/><path d="M1039.2-125.4l-7.9 7.9 7.9 7.9z" class="fil4"/><path d="M1039.2-141.1l-7.9 7.9 7.9 7.8zM1031.3-164.7l-7.9 7.9 7.9 7.8z" class="fil4"/><path d="M1031.3-149l7.9-7.8-7.9-7.9z" class="fil5"/><path d="M1039.2-156.8l-7.9 7.8 7.9 7.9z" class="fil4"/><path d="M1039.2-172.6l-7.9 7.9 7.9 7.9z" class="fil4"/><path d="M1031.3-133.2l7.9-7.9-7.9-7.9z" class="fil5"/><path d="M1031.3-149l-7.9 7.9 7.9 7.9z" class="fil4"/><path d="M1023.4-141.1l7.9-7.9-7.9-7.8zM1023.4-125.3l7.9-7.9-7.9-7.9z" class="fil5"/><path d="M1015.5-211.9l-7.8 7.8 7.8 7.9z" class="fil4"/><path d="M1015.5-196.2l7.9-7.9-7.9-7.8z" class="fil5"/><path d="M1023.4-204.1l-7.9 7.9 7.9 7.9zM1023.4-219.8l-7.9 7.9 7.9 7.8zM1031.3-196.2l-7.9 7.9 7.9 7.8z" class="fil4"/><path d="M1031.3-180.5l7.9-7.8-7.9-7.9z" class="fil5"/><path d="M1039.2-188.3l-7.9 7.8 7.9 7.9z" class="fil4"/><path d="M1039.2-204.1l-7.9 7.9 7.9 7.9zM1031.3-227.7l-7.9 7.9 7.9 7.9z" class="fil4"/><path d="M1031.3-211.9l7.9-7.9-7.9-7.9z" class="fil5"/><path d="M1039.2-219.8l-7.9 7.9 7.9 7.8z" class="fil4"/><path d="M1039.2-235.6l-7.9 7.9 7.9 7.9z" class="fil4"/><path d="M1031.3-196.2l7.9-7.9-7.9-7.8z" class="fil5"/><path d="M1031.3-211.9l-7.9 7.8 7.9 7.9z" class="fil4"/><path d="M1023.4-204.1l7.9-7.8-7.9-7.9z" class="fil5"/><path d="M1023.4-188.3l7.9-7.9-7.9-7.9z" class="fil5"/><path d="M1015.5-274.9l-7.8 7.9 7.8 7.9z" class="fil4"/><path d="M1015.5-259.1l7.9-7.9-7.9-7.9z" class="fil5"/><path d="M1023.4-267l-7.9 7.9 7.9 7.8zM1023.4-282.8l-7.9 7.9 7.9 7.9zM1031.3-259.2l-7.9 7.9 7.9 7.9z" class="fil4"/><path d="M1031.3-243.4l7.9-7.9-7.9-7.9z" class="fil5"/><path d="M1039.2-251.3l-7.9 7.9 7.9 7.9z" class="fil4"/><path d="M1039.2-267l-7.9 7.8 7.9 7.9zM1031.3-290.6l-7.9 7.8 7.9 7.9z" class="fil4"/><path d="M1031.3-274.9l7.9-7.9-7.9-7.8z" class="fil5"/><path d="M1039.2-282.8l-7.9 7.9 7.9 7.9zM1039.2-298.5l-7.9 7.9 7.9 7.8z" class="fil4"/><path d="M1031.3-259.1l7.9-7.9-7.9-7.9z" class="fil5"/><path d="M1031.3-274.9l-7.9 7.9 7.9 7.9z" class="fil4"/><path d="M1023.4-267l7.9-7.9-7.9-7.9zM1023.4-251.3l7.9-7.8-7.9-7.9z" class="fil5"/><path d="M-629.8 834.9l126-125.9h-.1.1l-126-126zM-629.8 583l126-125.9h-.1.1l-126-126zM-629.8 331.1l126-125.9h-.1.1l-126-125.9zM-629.8 79.3l126-126h-.1.1l-126-125.9z" class="fil14"/></g></g><path d="M0 0h692.4v346.2H0z" class="fil16"/><path fill="#fefefe" d="M377.7 78.6l-63.2 63.2v126.3l63.2-63.1z"/><path d="M343.3 143.6h79v20.8h-79z" class="fil16"/><path fill="#666" d="M343.3 142.2h79v20.7h-79z"/><path fill="#fefefe" fill-rule="nonzero" d="M353.7 157h3v-3.4h.6c.9 0 1.2.5 1.2 1.5v3.5h3.2v-3.7c0-3.3-1-4.1-4.4-4.1h-5.8c0-1.1.5-1.5 1.6-1.5h7.3v-2.8H353c-3.3 0-4.7 1.6-4.7 4.9v7.2h3.2v-5h2.2v3.4zm13.9-1.2c-.9 0-1-.2-1-1.2V153h-3.3v1.6c0 3.1 1 4 4.1 4h5.3v-10c-4.9-.7-4.9-1.6-5-2.1h-3c0 1.3-.1 3.4 4.8 4.2v5h-2zm10.8-6.7h2.6v1.7c0 2.2 1.6 2.9 4 2.9h.8c2.8 0 3.9-.9 3.9-3.2v-.7c0-2.4-1.1-3.3-4-3.3h-10.4v5.7c0 1.7.6 2.3 1 2.7h-1.5v2.2l4-.1c3.5 0 7.2.1 7.3 1.6h3c0-3.3-3-3.7-5.9-4-2.5-.2-4.8-.3-4.8-2.4v-3zm7.3 0c.5 0 .7.3.7.7v.6c0 .5 0 .8-.7.8h-.9c-.6 0-.7-.3-.7-.8v-1.3h1.6zm16 9.5v-8.1c0-3.2-2.3-4-5.2-4-2.9 0-5 .8-5 4v8h3.1v-7.7c0-.8.4-1.5 1.9-1.5s2 .7 2 1.5v7.8h3.1zm2 0h3.3v-7.8c0-1.4.4-1.6 1.6-1.6h1v6h2.9v-6h.8c1.2 0 1.6.2 1.6 1.6v7.8h3.2v-7.8c0-3.3-1.5-4.3-4.8-4.3h-4.7c-3.3 0-4.8 1-4.8 4.3v7.8z"/></g></svg>