<svg xmlns="http://www.w3.org/2000/svg" width="363.857" height="158.461" viewBox="0 0 363.857 158.461">
  <g id="Group_1" data-name="Group 1" transform="translate(-123.424 -216.332)">
    <path id="Path_1" data-name="Path 1" d="M437.156,268.68a63.8,63.8,0,0,0,7.348-4.251,22.51,22.51,0,0,0,6.211-7.083,23.048,23.048,0,0,0,3.083-12.007,27.5,27.5,0,0,0-3.416-12.816q-3.4-6.747-11.307-11.47t-20.334-4.721H367.784v79.776c9.843-.076,20.071-.147,30.222-.211V273.333l9.687-.034c1.325.457,9.924,12.7,16.6,22.441l29.741-.174C448.806,287.13,439.122,271.554,437.156,268.68Zm-18.367-14.1q-4.076,2.226-15.132,2.225h-5.651V234.275h5.731q10.264,0,14.792,2.565t4.464,9.038Q422.933,252.289,418.789,254.581Z" fill="#2b71a7" fill-rule="evenodd"/>
    <path id="Path_2" data-name="Path 2" d="M324.17,216.332h33.264v79.86c-10.886.1-21.045.2-29.779.315l-4.461-2.847a66.254,66.254,0,0,0-10.485-3.045c-2.151-.331-5.56-.484-5.56-.484s-.467-.187-1.656-.752l7.53-9.364A13.715,13.715,0,0,0,317.8,279c3.3-1.857,4.758-10.58,4.758-10.58l1.022-1.293.641-1.284a8.495,8.495,0,0,1,2.016-2.47,50.413,50.413,0,0,0,3.914-3.345,103.463,103.463,0,0,0,12.6-13.953,5.134,5.134,0,0,0,1.357-2.7c0-.967-.6-1.207-1.312-1.353a17.921,17.921,0,0,0-2.017-.337,4.425,4.425,0,0,0-2.475.412,6.545,6.545,0,0,0-1.989,1.744,76.007,76.007,0,0,0-6.191,8.052c-1.585,2.16-2.935,4.277-3.358,4.98-1.134,1.89-2.911,5.546-3.244,6l-.54.72c-1-.246-4.186-.867-5.177.921l-.617,5.553c-.5.247-2.814,2.178-3.333,2.3-4.8,1.152-16.068-1.068-16.068-1.068l-.308-2.466,2.16-.309,1.357-4.823s-.684-5.659-1.155-6.155c-.434-.459-1.6-1.19-3.9-1.347a10.085,10.085,0,0,0-5.535.924c-2.673,1.219-3.931,5.274-3.352,9.038.531,3.456-2.768,4.057-3.186,7.53a29.508,29.508,0,0,1-1.775,6.848,50.9,50.9,0,0,0-2.469,7.7,34.411,34.411,0,0,0-.7,5.808,9.233,9.233,0,0,1-4.279-1.617c-1.793-1.386-7.349-5.336-17.111-1.711a13.2,13.2,0,0,0-6.847,6.039s-6.692.193-18.2.193c-2.7,0-15.142-.045-18.8-.059l-22.26-23.808v23.57l-37.628-.408V216.332h37.628v31l28.846-31h62.716l41.184,37.715ZM248.633,290.41l-26.288-30.3,26.288-30.495Zm54.483-2.267a12.588,12.588,0,0,1-1.683-1.191c-.781-.76-.706-1.767-.857-2.647l1.943-2.792,6.648-.936Z" fill="#2b71a7" fill-rule="evenodd"/>
    <path id="Path_3" data-name="Path 3" d="M250.519,319.694a13.2,13.2,0,0,0,6.847,6.038c9.763,3.623,15.317-.326,17.112-1.712a9.255,9.255,0,0,1,4.278-1.615,34.346,34.346,0,0,0,.706,5.807,51.03,51.03,0,0,0,2.468,7.7,29.519,29.519,0,0,1,1.776,6.848c.417,3.474,3.717,4.073,3.186,7.53-.579,3.765.679,7.819,3.352,9.039a10.081,10.081,0,0,0,5.536.922,5.954,5.954,0,0,0,3.9-1.344c.469-.5,1.156-6.156,1.156-6.156l-1.358-4.823-2.16-.31.308-2.464s11.264-2.221,16.068-1.068c.517.125,2.839,2.056,3.333,2.3l.619,5.552c.988,1.788,4.178,1.166,5.175.921l.541.719c.332.449,2.109,4.107,3.244,6,.422.7,1.769,2.818,3.354,4.979a76.816,76.816,0,0,0,6.191,8.054,6.564,6.564,0,0,0,1.994,1.742,4.387,4.387,0,0,0,2.472.412,18.118,18.118,0,0,0,2.015-.335c.714-.148,1.317-.386,1.317-1.353a5.157,5.157,0,0,0-1.358-2.7A103.654,103.654,0,0,0,330,356.423a49.94,49.94,0,0,0-3.918-3.345,8.6,8.6,0,0,1-2.014-2.471l-.641-1.287-1.02-1.289s-1.461-8.725-4.757-10.58a13.725,13.725,0,0,0-4.782-1.015l-7.53-9.364c1.187-.564,1.656-.752,1.656-.752s3.411-.15,5.562-.482a65.9,65.9,0,0,0,10.482-3.047l4.46-2.846c6.1.081,20.086.09,27.339.159,61.725.334,124.636.884,131.059,1.022,2.516.049.919-.859.506-1.017-8.434-3.213-26.185-9.936-26.185-9.936s11.687-5.413,20.646-9.877c3.427-1.494,5.386-2.715,5.828-3.24a1.642,1.642,0,0,0,.312-.529,2.272,2.272,0,0,0,.082-.968.186.186,0,0,0-.355-.027,2.8,2.8,0,0,1-1.721,1.435c-8.551,2.995-32.259,11.241-32.259,11.241H153.162L123.771,319.67s-1.3.932,1.118.882c10.166-.217,53.866-.648,88.776-1.028Zm58.546,16.167-6.652-.938-1.939-2.792c.57-1.018.072-1.887.854-2.647a12.622,12.622,0,0,1,1.686-1.19Z" fill="#2b71a7" fill-rule="evenodd"/>
  </g>
</svg>