<?xml version="1.0" encoding="UTF-8" standalone="no"?>
<!-- Created with Inkscape (http://www.inkscape.org/) -->
<svg
   xmlns:svg="http://www.w3.org/2000/svg"
   xmlns="http://www.w3.org/2000/svg"
   version="1.0"
   width="921.25983"
   height="283.46457"
   id="svg2880">
  <defs
     id="defs2882">
  
  
  
  
  
  
  
 </defs>
  <g
     id="layer1">
    <g
       id="g2918">
      <path
         d="M 17.717247,17.59589 L 17.717247,86.437739 L 54.670396,123.39939 L 17.717247,160.36104 L 17.717247,229.2036 L 122.59524,123.39939 L 17.717247,17.59589 z M 111.93768,17.59589 L 111.93768,86.437739 L 148.90748,123.39939 L 111.93768,160.36104 L 111.93768,229.2036 L 216.87236,123.39939 L 111.93768,17.59589 z M 856.97431,128.09534 L 856.97431,128.47022 C 877.39262,133.80608 887.98073,154.769 887.98073,174.96904 C 887.98073,222.93655 844.48486,274.08703 758.85447,274.08703 C 744.81802,274.08703 729.26219,271.7984 717.50514,268.39612 L 734.5729,208.90435 C 743.6877,213.08368 753.93034,215.36734 766.06333,215.36734 C 797.16435,215.36734 812.33609,202.40592 812.33609,185.64112 C 812.33609,168.86746 792.99317,163.53478 750.12554,169.64061 L 759.99081,113.98199 C 806.65971,113.98199 828.61262,99.890967 828.61262,83.116597 C 828.61333,72.843133 821.41333,66.376597 807.02609,66.376597 C 789.57742,66.376597 776.68652,70.563015 766.82727,75.506637 L 766.82798,18.383213 C 783.51199,12.750418 807.78754,9.3775437 828.97333,9.3775437 C 875.11392,9.3775437 903.54258,27.754905 903.54258,63.742503 C 903.54329,89.224904 886.46951,115.13498 856.97431,128.09534 L 856.97431,128.09534 z "
         style="fill:#e20030;fill-rule:evenodd"
         id="path2912" />
      <path
         d="M 341.63681,75.442857 C 334.37196,72.935259 322.39063,70.972267 314.03976,70.972267 C 296.47488,70.972267 290.33468,77.394865 290.33468,86.33392 C 290.33468,106.42341 339.6561,107.2653 339.6561,153.03384 C 339.6561,191.821 305.1085,223.88191 255.79452,223.88191 C 241.31232,223.88191 227.37189,222.49896 217.07504,220.53242 L 225.98787,172.29384 C 234.90708,175.64935 249.94594,178.16297 260.8161,178.16297 C 276.39779,178.16297 283.66157,172.58191 283.66157,162.52919 C 283.66157,142.42801 234.6183,142.99034 234.6183,95.809431 C 234.6183,59.85585 260.54256,27.844551 315.70511,27.844551 C 328.247,27.844551 339.6561,28.962464 350.25944,30.625693 L 341.63681,75.442857 L 341.63681,75.442857 z M 522.28062,219.89817 L 464.4209,219.89817 L 462.58511,149.41223 C 462.33424,135.7666 463.11554,119.33203 464.68948,101.50246 L 464.4209,101.50246 C 460.24724,117.93384 455.5357,132.69561 449.76791,147.46341 L 421.49763,219.89817 L 367.29283,219.89817 L 359.4235,31.860181 L 408.13228,31.860181 L 410.48751,108.75207 C 410.75043,120.73022 409.97373,135.48951 408.40653,149.70349 L 408.65669,149.70349 C 412.8431,136.05112 416.76306,122.9501 422.27078,109.58227 L 454.21617,31.860181 L 502.38743,31.860181 L 506.57385,106.52404 C 507.1018,117.38321 507.1018,132.43128 505.79999,148.02325 L 506.06255,148.02325 C 511.03381,131.86825 516.00472,117.38321 520.98696,104.29317 L 548.20629,31.860181 L 597.96601,31.860181 L 522.28062,219.89817 L 522.28062,219.89817 z M 734.09951,76.322306 C 734.09951,46.72896 714.00825,30.527898 669.65668,30.527898 C 647.64176,30.527898 625.08046,30.804984 607.517,31.923606 L 571.84404,219.89817 L 622.5718,219.89817 L 635.66361,151.44219 L 637.61491,151.44219 L 659.06574,219.89817 L 717.92006,219.89817 L 696.70203,164.79408 C 693.91558,157.57388 690.84566,150.33526 688.06487,143.93569 C 721.25538,131.13337 734.0988,106.38337 734.09951,76.322306 L 734.09951,76.322306 z M 679.42203,86.901203 C 679.42203,100.81294 668.82719,114.72219 650.99798,114.72219 C 648.21719,114.72219 644.86133,114.43943 642.90719,114.17191 L 650.42892,73.820377 C 652.0964,73.549314 656.83416,73.264078 661.00782,73.264078 C 673.84274,73.264078 679.42133,78.559904 679.42203,86.901203 L 679.42203,86.901203 z "
         style="fill:#003257;fill-rule:evenodd"
         id="path2869" />
    </g>
  </g>
</svg>
