<?xml version="1.0" encoding="UTF-8"?>
<!-- Generator: Adobe Illustrator 21.1.0, SVG Export Plug-In . SVG Version: 6.00 Build 0)  -->
<svg version="1.1" id="Layer_1" xmlns="http://www.w3.org/2000/svg" xmlns:xlink="http://www.w3.org/1999/xlink" x="0px" y="0px" viewBox="0 0 460.9 139.1" style="enable-background:new 0 0 460.9 139.1;" xml:space="preserve">
<style type="text/css">
	.st0{fill:#E82C30;}
</style>
<g>
	<path d="M460.5,136.7h-17.1c-2.4,0-4.6-0.8-6.5-2.5c-2.3-2-3.4-4.4-3.4-7.3c0-0.4,0-0.8,0.1-1.3l4.4,0c0,0.3,0,0.7,0,1.2   c0.3,2.9,1.8,4.6,4.6,5c0.5,0.1,0.8,0.1,1,0.1h16.7V136.7z"/>
	<path d="M448.3,92.6h12.2v4.8h-12c-3,0-5.5,0.8-7.4,2.3c-2.1,1.7-3.2,3.9-3.2,6.7c0,2.6,1,4.8,2.9,6.6c1.8,1.7,3.9,2.5,6.3,2.5   c2.6,0,4.7-0.9,6.5-2.6c1.8-1.7,2.7-3.9,2.9-6.4c0.1-2.2-0.4-4.3-1.7-6.3l4.8,0c0.8,1.9,1.3,4,1.3,6.3c0,4-1.3,7.3-4,10   c-2.6,2.6-5.8,4-9.5,4c-1.8,0-3.6-0.3-5.4-1c-2.6-1-4.7-2.7-6.3-5c-1.6-2.3-2.4-4.9-2.5-7.8c-0.1-4.1,1.3-7.5,4-10   C440,93.9,443.7,92.6,448.3,92.6 M431.6,111.3l-7.9-3.5v-7.3l7.9,6.6V111.3z"/>
	<path d="M434.7,63.1l5,0c-0.9,1.7-1.4,3.5-1.4,5.3c0,2.4,0.7,4.6,2.2,6.4c1.8,2.3,4.1,3.4,7,3.4c2.4,0,4.5-0.8,6.2-2.5   c1.9-1.8,2.8-4,2.8-6.5c0-2.5-0.9-4.7-2.8-6.5c-1.9-1.8-4.3-2.6-7.3-2.7l-25.2,0v-4.7h25.2c4.5,0,8.1,1.3,10.7,3.8   c2.6,2.5,3.9,5.9,3.8,10.1c-0.1,4-1.4,7.3-3.9,9.8c-2.5,2.5-5.8,3.8-9.7,3.8c-4,0-7.3-1.3-9.8-3.9c-2.6-2.6-3.9-5.9-3.9-10   C433.6,66.8,433.9,64.8,434.7,63.1"/>
	<path d="M460.5,44.4l-26.3,0v-4.7l26.3,0V44.4z M424.2,45.6c-1,0-1.8-0.3-2.5-1c-0.7-0.7-1-1.5-1-2.5c0-1,0.3-1.8,1-2.5   c0.7-0.7,1.5-1,2.5-1c0.9,0,1.8,0.3,2.5,1c0.7,0.7,1,1.5,1,2.5c0,1-0.3,1.8-1,2.5C426,45.2,425.1,45.6,424.2,45.6"/>
	<path d="M447,24.9c2.4,0,4.5-0.7,6.3-2.4c2-1.8,3-3.9,3-6.5c0-2.5-1-4.6-3-6.4c-1.8-1.6-3.9-2.4-6.2-2.4c-2.7,0-4.9,0.9-6.8,2.8   c-1.7,1.7-2.5,3.7-2.5,6c0,1.6,0.5,3.2,1.4,4.6c0.9,1.4,2.3,2.5,4,3.3C444.4,24.6,445.7,24.8,447,24.9 M446.9,29.8   c-3.9,0-7.1-1.4-9.7-4.2c-2.6-2.6-3.8-5.8-3.8-9.4c0-1.8,0.4-3.6,1.1-5.4c1.1-2.6,2.8-4.7,5.2-6.2c2.3-1.4,4.7-2.1,7.4-2.1   c3.7,0,6.9,1.3,9.6,3.9c2.8,2.7,4.3,6,4.3,9.9c0,3.9-1.4,7.2-4.3,9.8C453.8,28.6,450.6,29.8,446.9,29.8"/>
	<path class="st0" d="M0,138V54.5c0-11.1,2.9-21.1,8.7-30c5.8-8.8,13.7-15.3,23.5-19.3C39,2.5,46,1.1,53.3,1.1   c15.1,0,27.4,5.3,36.9,15.9c7.3-6.7,14.9-11.2,22.9-13.6c5.1-1.5,10.3-2.2,15.6-2.2c14.2,0,26.4,5.1,36.7,15.3   c10.3,10.2,15.4,22.9,15.4,38V138l-32,0l0-83.3c0-11.1-4.6-18.1-13.7-21c-2.9-0.9-5.7-1.4-8.5-1.4c-6,0-11,2.1-14.9,6.3   c-3.9,4.2-5.9,9.6-5.9,16.1l0,83.3l-31.4,0V54.7c0-6.6-2-11.9-5.9-16.1c-3.9-4.2-8.8-6.3-14.6-6.3c-2.7,0-5.5,0.5-8.4,1.4   c-9.3,3.1-13.9,10.1-13.9,21V138H0z"/>
	<path d="M240.6,75.3c-5.1,0.6-9.4,2.8-12.9,6.6c-3.5,3.8-5.3,8.3-5.3,13.5c0,6,2.3,11.3,6.8,16c4.5,4.7,9.7,7.1,15.5,7.1   c5.5,0,10.3-2,14.5-6c4.2-4,6.6-9.1,7.1-15.3c0.5-6.2-1-11.4-4.6-15.5c-3.5-4.1-8.1-6.1-13.7-6.1V55.2c4.1-0.6,7.5-2.5,10.1-5.7   c2.7-3.2,4-6.8,4-10.9c0-2.5-0.6-4.9-1.7-7.3c-3.1-6.8-8.4-10.2-16-10.2c-2.2,0-4.4,0.4-6.5,1.3c-7.3,2.9-11,8.1-11,15.8   c0,4.5,1.6,8.4,4.8,11.9c2.4,2.5,5.3,4.2,8.7,5.2V75.3z M217.1,63.7c-7.4-6.5-11.2-15-11.2-25.5c0-4.8,0.9-9.5,2.6-14   c1.7-4.5,4.2-8.4,7.3-11.9C223.4,4.1,232.7,0,243.8,0c5.2,0,10.2,1,15.1,3c7.8,3.2,13.9,8,18.2,14.4c4.3,6.4,6.4,13.2,6.4,20.4   c0,7.8-2.4,14.8-7.1,21c-1.2,1.7-2.7,3.3-4.3,4.7c10.7,8.2,16,19.1,16,32.8c0,5.8-1.1,11.5-3.3,16.9c-4.5,10.7-12.2,18.2-23.1,22.5   c-5.7,2.2-11.5,3.3-17.5,3.4c-8.9,0-17-2.4-24.3-7.3c-7.3-4.8-12.4-11.2-15.4-19.2c-2.1-5.6-3.2-11.2-3.2-16.8   C201.3,82,206.6,71.2,217.1,63.7"/>
	<path d="M327.6,69.5c0,13.7,2.1,25,6.4,34c4.3,9,11.2,13.5,20.8,13.5c4.5,0,8.6-1.3,12.5-3.9c6.7-4.6,11-12.6,13-24   c1.4-7.7,2-14.9,2-21.6c0-20.6-5.1-34.1-15.4-40.6c-3.7-2.4-7.8-3.5-12.1-3.5c-9.4,0-16.3,4.2-20.7,12.6   C329.8,44.3,327.6,55.5,327.6,69.5 M303.8,69.3c0.1-32.3,9.1-53.3,26.8-63.1c7.4-4.1,15.4-6.1,24-6.1c8.1,0,15.7,1.8,22.8,5.5   c7.1,3.7,12.8,8.8,17,15.4c3.5,5.5,6,11.4,7.4,17.9c3,13.2,4.5,25.3,4.5,36.5c0,20.7-5,36.7-14.9,48c-9.2,10.7-21.5,15.9-37,15.8   c-16.3-0.1-28.7-5.8-37.2-17.1C308.2,110,303.7,92.5,303.8,69.3"/>
</g>
</svg>