<?xml version="1.0" encoding="UTF-8" standalone="no"?>
<!-- Created with Inkscape (http://www.inkscape.org/) -->
<svg
   xmlns:svg="http://www.w3.org/2000/svg"
   xmlns="http://www.w3.org/2000/svg"
   version="1.0"
   width="602.36218"
   height="319.67715"
   id="svg4081">
  <defs
     id="defs4083" />
  <g
     transform="translate(-123.78125,-239.1292)"
     id="layer1">
    <g
       id="g4670">
      <path
         d="M 234.02767,256.84488 L 234.02767,369.71821 L 248.24621,369.71821 L 248.24621,256.84488 L 234.02767,256.84488 z M 248.24621,369.71821 L 248.24621,489.77893 L 290.74558,489.77893 C 319.90632,489.77893 335.74492,478.07568 335.74491,447.65456 L 335.74491,411.46759 C 335.74491,382.12551 318.82729,369.71822 290.74558,369.71821 L 248.24621,369.71821 z M 248.24621,489.77893 L 234.02767,489.77893 L 234.02767,541.09067 L 248.24621,541.09067 L 248.24621,489.77893 z M 234.02767,489.77893 L 234.02767,369.71821 L 208.65304,369.71821 L 208.65304,444.43585 L 168.12239,369.71821 L 141.49779,369.71821 L 141.49779,489.77893 L 166.87241,489.77893 L 166.87241,419.74872 L 205.77809,489.77893 L 234.02767,489.77893 z M 347.99473,369.71821 L 347.99473,489.77893 L 374.61934,489.77893 L 374.61934,443.71712 L 389.02537,443.71712 L 410.43131,489.77893 L 439.05588,489.77893 L 413.68126,438.84219 C 427.72665,433.43803 433.49346,421.73552 433.49347,407.15516 C 433.49347,378.34804 416.20892,369.71822 389.93161,369.71821 L 347.99473,369.71821 z M 374.08809,390.9679 L 390.99409,390.9679 C 401.61201,390.9679 407.93133,394.01167 407.93134,405.71768 C 407.93134,416.15424 401.07704,421.93619 390.99409,421.93619 L 374.08809,421.93619 L 374.08809,390.9679 z M 275.6208,392.40537 L 288.40186,392.40537 C 303.15451,392.40537 309.80781,399.60595 309.8078,414.1863 L 309.8078,445.15459 C 309.8078,459.73496 303.1545,467.12302 288.40186,467.12302 L 275.6208,467.12302 L 275.6208,392.40537 z"
         id="path2494"
         style="fill:#003366;fill-opacity:1;fill-rule:evenodd;stroke:none" />
      <path
         d="M 617.74074,367.53074 C 596.15125,367.53075 592.74111,380.27764 592.74111,396.78031 L 592.74111,401.87398 L 579.46006,401.87398 L 579.46006,417.68625 L 592.89736,417.68625 L 592.89736,489.96643 L 612.80331,489.96643 L 612.80331,417.49875 L 629.30307,417.49875 L 629.30307,401.68649 L 612.61581,401.68649 L 612.61581,396.78031 C 612.61579,389.46292 614.00032,382.49927 623.86565,382.49927 C 626.24129,382.49927 628.95863,383.00669 631.33429,383.68675 L 632.70927,368.87447 C 627.77661,368.19441 622.6734,367.53074 617.74074,367.53074 z M 461.49305,369.46821 L 461.49305,489.96643 L 482.24274,489.96643 L 482.24274,369.46821 L 461.49305,369.46821 z M 671.36494,398.71778 C 643.24697,398.71779 632.33427,419.24694 632.33427,444.99835 C 632.33427,472.95311 643.94825,491.15391 669.70872,491.15391 C 699.34098,491.15393 708.4269,471.11034 708.4269,444.8421 C 708.42689,414.87437 695.77437,398.71778 671.36494,398.71778 z M 546.67929,399.99901 C 538.01084,399.99901 529.49855,404.07992 519.46094,411.90509 L 518.96095,401.68649 L 500.24248,401.68649 L 500.24248,489.96643 L 520.14843,489.96643 L 520.14843,424.84239 C 527.29355,418.88512 533.903,415.65503 538.83566,415.65503 C 546.15307,415.65502 549.74174,419.71178 549.74174,429.40483 L 549.74174,489.96643 L 569.61645,489.96643 L 569.61645,428.0611 C 569.61643,408.33046 562.83739,399.99901 546.67929,399.99901 z M 670.36496,414.3738 C 682.65128,414.37379 687.8647,423.7897 687.8647,444.99835 C 687.86469,466.38832 682.65129,475.46665 670.36496,475.46665 C 658.40506,475.46665 652.86522,466.06027 652.86522,445.68584 C 652.86521,423.63393 658.06957,414.3738 670.36496,414.3738 z"
         id="path2504"
         style="fill:#ffc300;fill-opacity:1;fill-rule:nonzero;stroke:none" />
    </g>
  </g>
</svg>
