<?xml version="1.0" encoding="UTF-8"?>
<!-- Generator: Adobe Illustrator 16.0.0, SVG Export Plug-In . SVG Version: 6.00 Build 0)  -->
<!DOCTYPE svg PUBLIC "-//W3C//DTD SVG 1.1//EN" "http://www.w3.org/Graphics/SVG/1.1/DTD/svg11.dtd">
<svg version="1.1" id="Layer_1" xmlns="http://www.w3.org/2000/svg" xmlns:xlink="http://www.w3.org/1999/xlink" x="0px" y="0px" width="877px" height="360px" viewBox="0 0 877 360" enable-background="new 0 0 877 360" xml:space="preserve">
<g>
	<path fill="#EE3048" d="M337.144,307.981c2.791,2.436,6.091,4.196,9.904,5.278c3.81,1.082,7.946,1.623,12.404,1.623   c4.588,0,8.638-0.475,12.15-1.418c3.51-0.943,6.816-2.294,9.923-4.05v-20.048c-4.86,2.43-9.923,3.645-15.188,3.645   c-4.186,0-7.426-1.047-9.72-3.148c-2.297-2.098-3.443-5.519-3.443-10.259v-52.611h28.756v-20.858h-28.756v-18.497h-24.706v18.497   H314.9v20.858h13.568v56.427c0,5.955,0.747,10.929,2.247,14.92C332.211,302.333,334.354,305.545,337.144,307.981 M49.68,169.946   h6.926v-56.684H49.68v24.876H18.5v-24.876h-6.925v56.684H18.5V144.75h31.18V169.946z M86.839,208.97   c-6.683-3.373-15.087-5.063-25.213-5.063c-7.967,0-15.359,1.488-22.181,4.456c-6.822,2.971-12.717,7.021-17.684,12.15   c-4.968,5.132-8.847,11.072-11.638,17.821c-2.791,6.752-4.186,13.973-4.186,21.668c0,7.696,1.395,14.885,4.186,21.567   c2.791,6.683,6.67,12.556,11.638,17.619c4.967,5.062,10.828,9.046,17.583,11.948c6.752,2.901,14.112,4.353,22.08,4.353   c10.394,0,18.966-1.857,25.718-5.568c6.75-3.712,12.758-8.537,18.024-14.48l-14.783-14.58c-3.918,3.917-8.069,7.122-12.455,9.619   c-4.388,2.499-9.486,3.746-15.289,3.746c-4.727,0-9.047-0.911-12.961-2.734c-3.917-1.822-7.29-4.284-10.125-7.391   c-2.835-3.104-5.031-6.749-6.582-10.936c-1.553-4.183-2.328-8.708-2.328-13.568c0-4.724,0.775-9.144,2.328-13.264   c1.551-4.117,3.677-7.727,6.379-10.834c2.699-3.104,5.94-5.569,9.721-7.392c3.778-1.822,7.898-2.734,12.353-2.734   c6.208,0,11.442,1.25,15.694,3.747c4.253,2.499,8.268,5.705,12.049,9.619l15.189-16.403   C99.359,216.802,93.521,212.346,86.839,208.97 M69.837,169.946h6.926v-56.684h-6.926V169.946z M109.88,119.794h18.54v-6.532H84.415   v6.532h18.54v50.152h6.925V119.794z M154.436,223.956c4.05,0,7.66,0.743,10.834,2.227c3.17,1.488,5.904,3.478,8.202,5.974   c2.294,2.5,4.116,5.468,5.467,8.911c1.348,3.441,2.228,7.122,2.633,11.036h-54.88c1.079-8.369,4.082-15.153,9.012-20.352   C140.63,226.557,146.873,223.956,154.436,223.956 M154.638,203.907c-7.695,0-14.716,1.488-21.061,4.456   c-6.347,2.971-11.846,6.986-16.504,12.049c-4.658,5.062-8.271,10.97-10.834,17.719c-2.566,6.753-3.848,13.973-3.848,21.669   c0,8.372,1.418,15.966,4.253,22.782c2.835,6.819,6.714,12.657,11.644,17.517c4.927,4.86,10.733,8.641,17.416,11.34   c6.683,2.699,13.872,4.05,21.567,4.05c9.853,0,18.327-1.822,25.415-5.467c7.088-3.645,13.194-8.506,18.327-14.581l-14.378-12.758   c-4.323,4.186-8.708,7.36-13.163,9.518c-4.456,2.161-9.721,3.24-15.796,3.24c-7.968,0-14.717-2.329-20.251-6.986   c-5.537-4.658-9.046-11.372-10.53-20.15h78.573c0.133-1.215,0.234-2.36,0.304-3.443c0.066-1.079,0.101-2.158,0.101-3.24   c0-7.695-1.082-15.052-3.24-22.073c-2.161-7.018-5.367-13.163-9.619-18.428c-4.253-5.266-9.588-9.449-15.999-12.556   C170.602,205.461,163.144,203.907,154.638,203.907 M165.011,141.111c-1.696,0.521-3.572,0.786-5.578,0.786h-16.615v-22.104h16.695   c4.368,0,7.799,0.96,10.198,2.854c2.373,1.877,3.577,4.554,3.577,7.956c0,1.758-0.347,3.354-1.031,4.746   c-0.683,1.391-1.646,2.579-2.861,3.531C168.17,139.842,166.695,140.592,165.011,141.111 M182.555,169.946l-17.041-22.967   c1.969-0.388,3.826-1.009,5.528-1.849c1.865-0.921,3.499-2.089,4.858-3.469c1.365-1.387,2.436-3.041,3.185-4.917   c0.749-1.872,1.128-4.029,1.128-6.41c0-2.544-0.487-4.895-1.449-6.987c-0.963-2.091-2.345-3.908-4.107-5.401   c-1.758-1.488-3.903-2.655-6.378-3.466c-2.464-0.809-5.269-1.218-8.337-1.218h-24.05v56.684h6.926v-21.757h15.221l15.999,21.757   H182.555z M227.586,148.856h-24.103l12.089-27.35L227.586,148.856z M236.805,169.946h7.466l-25.476-57.084h-6.287l-25.477,57.084   h7.151l6.548-14.798h29.606L236.805,169.946z M293.188,141.684c0,3.084-0.535,5.976-1.592,8.59   c-1.056,2.609-2.57,4.927-4.502,6.886c-1.926,1.954-4.314,3.501-7.098,4.599c-2.786,1.1-5.928,1.656-9.341,1.656h-12.591v-43.62   h12.591c3.411,0,6.552,0.57,9.338,1.695c2.787,1.126,5.175,2.687,7.101,4.64c1.931,1.958,3.445,4.301,4.501,6.964   C292.652,135.761,293.188,138.651,293.188,141.684 M298.194,152.734c1.431-3.466,2.156-7.237,2.156-11.21   c0-3.974-0.725-7.732-2.156-11.172c-1.432-3.439-3.489-6.465-6.115-8.994c-2.623-2.526-5.794-4.529-9.424-5.953   c-3.628-1.422-7.665-2.143-12-2.143h-19.517v56.684h19.517c4.337,0,8.375-0.736,12.002-2.185c3.63-1.451,6.8-3.466,9.422-5.991   C294.705,159.242,296.762,156.203,298.194,152.734 M311.216,245.017c0-12.556-3.317-22.545-9.946-29.972   c-6.629-7.423-16.033-11.138-28.208-11.138c-4.196,0-7.949,0.513-11.262,1.535c-3.316,1.022-6.36,2.417-9.132,4.189   c-2.775,1.772-5.211,3.782-7.306,6.028c-2.098,2.247-4.025,4.664-5.784,7.252l0.152-16.776h-24.706v106.924h24.706v-60.208   c0-8.347,2.218-14.846,6.654-19.495c4.437-4.644,10.214-6.97,17.34-6.97c7.259,0,12.869,2.256,16.837,6.768   c3.965,4.512,5.948,10.945,5.948,19.295v60.61h24.707V245.017z M310.607,169.946h6.926v-56.684h-6.926V169.946z M377.933,141.684   c0,3.142-0.536,6.127-1.594,8.874c-1.057,2.746-2.535,5.173-4.389,7.21c-1.853,2.034-4.112,3.661-6.712,4.837   c-2.598,1.174-5.483,1.769-8.574,1.769c-3.095,0-5.979-0.609-8.573-1.808c-2.603-1.201-4.89-2.844-6.796-4.881   c-1.907-2.038-3.409-4.477-4.465-7.247c-1.059-2.772-1.595-5.771-1.595-8.914c0-3.144,0.536-6.128,1.595-8.874   c1.054-2.742,2.532-5.168,4.389-7.21c1.852-2.034,4.11-3.661,6.711-4.836c2.597-1.174,5.483-1.77,8.575-1.77   c3.091,0,5.975,0.608,8.573,1.808c2.602,1.202,4.889,2.845,6.795,4.881c1.905,2.037,3.408,4.475,4.465,7.245   C377.397,135.543,377.933,138.542,377.933,141.684 M383.02,152.728c1.378-3.517,2.076-7.285,2.076-11.203   c0-3.917-0.684-7.687-2.035-11.202c-1.352-3.52-3.3-6.653-5.791-9.311c-2.492-2.661-5.516-4.8-8.986-6.359   c-3.475-1.56-7.384-2.35-11.62-2.35c-4.238,0-8.162,0.804-11.663,2.391c-3.497,1.584-6.533,3.751-9.026,6.438   c-2.49,2.688-4.451,5.832-5.827,9.347c-1.377,3.514-2.075,7.284-2.075,11.205c0,3.917,0.684,7.687,2.035,11.203   c1.352,3.523,3.302,6.655,5.791,9.311c2.491,2.662,5.515,4.802,8.986,6.359c3.473,1.559,7.382,2.35,11.62,2.35   c4.234,0,8.158-0.805,11.661-2.391c3.496-1.582,6.532-3.749,9.026-6.439C379.681,159.392,381.642,156.247,383.02,152.728    M460.218,252.104h-54.88c1.079-8.369,4.082-15.153,9.012-20.352c4.926-5.195,11.169-7.796,18.732-7.796   c4.05,0,7.66,0.743,10.834,2.227c3.17,1.488,5.904,3.478,8.201,5.974c2.295,2.5,4.117,5.468,5.468,8.911   C458.934,244.51,459.813,248.19,460.218,252.104 M484.418,264.862c0.066-1.079,0.102-2.158,0.102-3.24   c0-7.695-1.082-15.052-3.24-22.073c-2.161-7.018-5.367-13.163-9.619-18.428c-4.253-5.266-9.588-9.449-15.999-12.556   c-6.413-3.104-13.871-4.658-22.377-4.658c-7.695,0-14.716,1.488-21.061,4.456c-6.347,2.971-11.846,6.986-16.504,12.049   c-4.658,5.062-8.271,10.97-10.834,17.719c-2.566,6.753-3.848,13.973-3.848,21.669c0,8.372,1.418,15.966,4.253,22.782   c2.835,6.819,6.714,12.657,11.644,17.517c4.927,4.86,10.733,8.641,17.416,11.34c6.682,2.699,13.872,4.05,21.567,4.05   c9.854,0,18.327-1.822,25.415-5.467c7.087-3.645,13.194-8.506,18.327-14.581l-14.378-12.758c-4.323,4.186-8.708,7.36-13.164,9.518   c-4.455,2.161-9.72,3.24-15.795,3.24c-7.968,0-14.717-2.329-20.251-6.986c-5.537-4.658-9.046-11.372-10.53-20.15h78.573   C484.247,267.09,484.348,265.945,484.418,264.862 M556.245,230.031V204.11c-9.452-0.405-17.283,1.822-23.491,6.683   c-6.211,4.86-11.005,11.34-14.378,19.441v-24.099H493.67v106.924h24.706v-40.704c0-7.018,0.876-13.194,2.632-18.529   c1.753-5.332,4.253-9.752,7.493-13.265c3.24-3.509,7.088-6.141,11.543-7.897c4.455-1.753,9.382-2.633,14.783-2.633H556.245z"/>
</g>
<g>
	<defs>
		<path id="SVGID_1_" d="M685.146,53.375c-8.379,16.101-14.483,29.059-17.948,36.595c58.333,5.23,100.989,18.146,100.989,18.146    s-38.419-8.312-108.528-10.563c-28.852-0.929-59.74,0.848-86.419,3.219c-18.766,1.879-34.87,3.697-45.806,5.002    c-6.508,0.854-11.8,1.578-15.419,2.114L622,206.879l-42.528,148.704l0.757-0.402c-0.012,0.042-0.046,0.143-0.078,0.247    c2.581-1.203,47.066-22.02,94.712-48.02c2.359-1.299,4.734-2.653,7.104-3.976c4.877-2.694,9.755-5.402,14.602-8.176    c7.521-4.314,14.945-8.689,22.151-13.073c1.617-0.985,3.341-1.954,4.93-2.935c35.063-21.679,83.961-62.639,83.961-62.639    s-24.301,38.965-71.389,76.263l83.604,56.142c0,0,2.449-34.111-1.675-72.015c-4.123-37.902-9.281-61.273-9.281-61.273    s15.468-10.992,34.799-32.85c19.331-21.858,28.351-39.042,28.351-39.042s-16.753-13.39-48.715-22.867    c-31.962-9.475-48.974-11.494-48.974-11.494S766.6,87.49,745.977,54.008c-20.62-33.479-34.537-47.126-34.537-47.126    S698.035,28.614,685.146,53.375"/>
	</defs>
	<clipPath id="SVGID_2_">
		<use xlink:href="#SVGID_1_" overflow="visible"/>
	</clipPath>
	
		<linearGradient id="SVGID_3_" gradientUnits="userSpaceOnUse" x1="-150.0005" y1="2242.4844" x2="-149.0005" y2="2242.4844" gradientTransform="matrix(360.0029 0 0 -360.0029 54512.6836 807482.25)">
		<stop offset="0" style="stop-color:#FFD400"/>
		<stop offset="0.1264" style="stop-color:#FFD400"/>
		<stop offset="1" style="stop-color:#F7941E"/>
	</linearGradient>
	<rect x="512.016" y="6.882" clip-path="url(#SVGID_2_)" fill="url(#SVGID_3_)" width="360.002" height="348.701"/>
</g>
<style xmlns="" type="text/css" id="undefined"/></svg>