<svg id="Logo" xmlns="http://www.w3.org/2000/svg" xmlns:xlink="http://www.w3.org/1999/xlink" viewBox="0 0 283.46 140.75"><defs><style>.cls-1{fill:#b9d300;}.cls-2{fill:url(#linear-gradient);}.cls-3{fill:#fff;}</style><linearGradient id="linear-gradient" x1="1.92" y1="68.65" x2="285.36" y2="68.65" gradientUnits="userSpaceOnUse"><stop offset="0" stop-color="#009de0"/><stop offset="0.7" stop-color="#0b2265"/></linearGradient></defs><title>logo_skyradio</title><path class="cls-1" d="M44.31,2.36C19,2.36,6.61,13,2.74,26.52-4.9,53.19,42,117.51,54.41,128.66c13,11.63,27.53,16.45,47.75,13.69C137,137.59,257.09,111.32,279,92c8.84-7.81,12.38-31.5-15.53-40.57C192.92,28.53,77.87,2.36,44.31,2.36Z" transform="translate(-1.9 -2.36)"/><path class="cls-2" d="M44.31,2.36C19,2.36,6.61,13,2.74,26.52-4.9,53.19,43,112.59,56.71,122.1c15.36,10.63,32.15,15.76,59.79,11.16C160.81,125.88,263.28,105.86,279,92c8.84-7.81,12.38-31.5-15.53-40.57C192.92,28.53,77.87,2.36,44.31,2.36Z" transform="translate(-1.9 -2.36)"/><path class="cls-3" d="M139.74,34.88c-4.35,20.64-7.62,31.17-11.48,40.36-4.18,10-8.41,14-16.62,15.64,0,0-3.67-9-3.67-9a11.9,11.9,0,0,0,9-8.16c-4.48-12.49-9.76-24.41-13.43-38.79H115C117.75,45.12,123,60.24,123,60.24s3.37-8.63,6-25.36h10.8ZM40.48,37.39c-0.84-3.31.71-6.88,6.45-6.88,3.47,0,5.81,2.41,8.53,6.88,2.2-1.87,5.13-4.34,7.07-5.9C57.8,23.51,51.94,21,46.15,21c-11.65,0-18,7.87-18,15.74,0,15.68,21.87,15.9,22.57,22.83,0.4,3.94-2.32,7.36-8,6.59a17.24,17.24,0,0,1-8.62-3.39L27.55,70.4c4.3,3,9.12,6.17,16.65,6.17,12.68,0,19.09-6.31,19.09-16.5C63.29,46.46,42,43.28,40.48,37.39Zm63,38.11c-2.27-8.88-5.77-16.83-9-24.55a99.33,99.33,0,0,0,6.16-16.16H90.59A76.27,76.27,0,0,1,79.91,56.92V21.5H68.59v54h9.35a83.6,83.6,0,0,0,9.28-11.79A69.67,69.67,0,0,1,91.31,75.5h12.2Z" transform="translate(-1.9 -2.36)"/><path class="cls-1" d="M187.8,64.05l-0.49-.17a29.76,29.76,0,0,0-9.1-1.71c-8.67,0-13.65,5.25-13.65,14.42,0,3.74.8,7.06,2.38,9.13,1.79,2.34,4.51,3.52,8.09,3.52a9.25,9.25,0,0,0,6.44-2.38l0.63,1.77h6.59L187.8,83.3V64.05Zm-7.36,16.29c0,1.66-1.44,3.42-4.11,3.42-1.09,0-4.41-.38-4.41-7.36,0-3.95,1-8.65,5.55-8.65a10.74,10.74,0,0,1,3,.39v12.2Zm-24-7.27a9.34,9.34,0,0,0,4.84-8.42c0-6.37-4.14-9.47-12.66-9.47h-6.89l-4.92,16.87V88.62h7.55v-13h4.16c1.2,0,1.88.54,2.59,2.05l3.65,11h8.59l-4.62-13A7.53,7.53,0,0,0,156.47,73.07Zm-7.86-3.43H144.4V61.23h2.72c4.83,0,6.54.58,6.54,3.85C153.66,69,150.91,69.64,148.61,69.64Zm95.81-7.47c-6,0-12.31,3.51-12.31,13.37,0,8.65,4.09,13.79,11.52,13.79a11.8,11.8,0,0,0,8.81-3.47c2.35-2.47,3.54-6.4,3.54-10.95C256,66.7,251.87,62.17,244.42,62.17ZM244,83.71c-3,0-4.41-3.06-4.41-8.84,0-2.65.59-7.08,4.51-7.08,2,0,4.31.9,4.31,7.89C248.43,79.17,247.66,83.71,244,83.71Zm-29.12-30h-7.36v8.77a13.34,13.34,0,0,0-3.12-.35c-7.87,0-12.76,5.49-12.76,14.33,0,8.15,3.64,12.84,10.52,12.84a9,9,0,0,0,6.41-2.52l0.67,1.81h6.53l-0.91-5.41V53.75Zm-7.36,26.73c0,1.35-1.44,3.23-4.16,3.23-1.08,0-4.36-.37-4.36-7.74,0-3.07.72-8.22,5.55-8.22a8.75,8.75,0,0,1,3,.52V80.48Zm20.7-23.73a3.94,3.94,0,0,1-4.18,3.86,3.85,3.85,0,0,1-4.17-3.86A4.18,4.18,0,0,1,228.23,56.75Zm-7.85,6.13h7.4V88.62h-7.4V62.88Z" transform="translate(-1.9 -2.36)"/></svg>