<?xml version="1.0" encoding="UTF-8" standalone="no"?>
<svg
   xmlns:dc="http://purl.org/dc/elements/1.1/"
   xmlns:cc="http://creativecommons.org/ns#"
   xmlns:rdf="http://www.w3.org/1999/02/22-rdf-syntax-ns#"
   xmlns:svg="http://www.w3.org/2000/svg"
   xmlns="http://www.w3.org/2000/svg"
   version="1.1"
   id="svg2"
   xml:space="preserve"
   width="327.79108"
   height="200"
   viewBox="0 0 327.79108 200"><metadata
     id="metadata8"><rdf:RDF><cc:Work
         rdf:about=""><dc:format>image/svg+xml</dc:format><dc:type
           rdf:resource="http://purl.org/dc/dcmitype/StillImage" /><dc:title></dc:title></cc:Work></rdf:RDF></metadata><defs
     id="defs6"><clipPath
       clipPathUnits="userSpaceOnUse"
       id="clipPath74"><path
         d="M 2608.4,2685.97 C 1960.8,2604.46 727.219,2286.84 794.492,1491.47 934.688,597.699 2628.03,437.5 2628.03,437.5 c 0,0 -1847.557,59.039 -1990.538,1056.79 C 511.348,2469.56 2412.15,2730.93 2608.4,2685.97"
         id="path72" /></clipPath><linearGradient
       x1="0"
       y1="0"
       x2="1"
       y2="0"
       gradientUnits="userSpaceOnUse"
       gradientTransform="matrix(1996.54,0,0,-1996.54,631.495,1564.13)"
       spreadMethod="pad"
       id="linearGradient82"><stop
         style="stop-opacity:1;stop-color:#ffffff"
         offset="0"
         id="stop76" /><stop
         style="stop-opacity:1;stop-color:#1a64b7"
         offset="0.63019"
         id="stop78" /><stop
         style="stop-opacity:1;stop-color:#1a64b7"
         offset="1"
         id="stop80" /></linearGradient><clipPath
       clipPathUnits="userSpaceOnUse"
       id="clipPath94"><path
         d="M 2661.38,2706.65 C 3295.29,2624.37 4502.76,2303.76 4436.91,1500.85 4299.69,598.621 2642.16,436.91 2642.16,436.91 c 0,0 1808.46,59.578 1948.44,1066.75 123.46,984.51 -1737.13,1248.36 -1929.22,1202.99"
         id="path92" /></clipPath><linearGradient
       x1="0"
       y1="0"
       x2="1"
       y2="0"
       gradientUnits="userSpaceOnUse"
       gradientTransform="matrix(-1954.32,0,0,-1954.32,4596.47,1574.2)"
       spreadMethod="pad"
       id="linearGradient102"><stop
         style="stop-opacity:1;stop-color:#ffffff"
         offset="0"
         id="stop96" /><stop
         style="stop-opacity:1;stop-color:#e51636"
         offset="0.63019"
         id="stop98" /><stop
         style="stop-opacity:1;stop-color:#e51636"
         offset="1"
         id="stop100" /></linearGradient><clipPath
       clipPathUnits="userSpaceOnUse"
       id="clipPath186"><path
         d="m 5488.11,2783.2 c -238.7,-29.14 -693.34,-142.62 -668.53,-426.8 51.66,-319.35 675.77,-376.56 675.77,-376.56 0,0 -680.95,21.08 -733.64,377.57 -46.49,348.46 654.08,441.82 726.4,425.79"
         id="path184" /></clipPath><linearGradient
       x1="0"
       y1="0"
       x2="1"
       y2="0"
       gradientUnits="userSpaceOnUse"
       gradientTransform="matrix(735.865,0,0,-735.865,4759.49,2382.37)"
       spreadMethod="pad"
       id="linearGradient194"><stop
         style="stop-opacity:1;stop-color:#ffffff"
         offset="0"
         id="stop188" /><stop
         style="stop-opacity:1;stop-color:#1a64b7"
         offset="0.63019"
         id="stop190" /><stop
         style="stop-opacity:1;stop-color:#1a64b7"
         offset="1"
         id="stop192" /></linearGradient><clipPath
       clipPathUnits="userSpaceOnUse"
       id="clipPath206"><path
         d="m 5507.63,2790.57 c 233.64,-29.4 678.68,-143.96 654.42,-430.82 -50.59,-322.36 -661.48,-380.13 -661.48,-380.13 0,0 666.54,21.3 718.12,381.14 45.49,351.76 -640.24,446.02 -711.06,429.81"
         id="path204" /></clipPath><linearGradient
       x1="0"
       y1="0"
       x2="1"
       y2="0"
       gradientUnits="userSpaceOnUse"
       gradientTransform="matrix(-720.294,0,0,-720.294,6220.86,2385.95)"
       spreadMethod="pad"
       id="linearGradient214"><stop
         style="stop-opacity:1;stop-color:#ffffff"
         offset="0"
         id="stop208" /><stop
         style="stop-opacity:1;stop-color:#e51636"
         offset="0.63019"
         id="stop210" /><stop
         style="stop-opacity:1;stop-color:#e51636"
         offset="1"
         id="stop212" /></linearGradient><clipPath
       clipPathUnits="userSpaceOnUse"
       id="clipPath288"><path
         d="m 5488.11,1162.98 c -238.7,-29.13 -693.34,-142.62 -668.53,-426.789 51.66,-319.339 675.77,-376.562 675.77,-376.562 0,0 -680.95,21.09 -733.64,377.57 -46.49,348.461 654.08,441.821 726.4,425.781"
         id="path286" /></clipPath><linearGradient
       x1="0"
       y1="0"
       x2="1"
       y2="0"
       gradientUnits="userSpaceOnUse"
       gradientTransform="matrix(735.865,0,0,-735.865,4759.49,762.16)"
       spreadMethod="pad"
       id="linearGradient296"><stop
         style="stop-opacity:1;stop-color:#ffffff"
         offset="0"
         id="stop290" /><stop
         style="stop-opacity:1;stop-color:#1a64b7"
         offset="0.63019"
         id="stop292" /><stop
         style="stop-opacity:1;stop-color:#1a64b7"
         offset="1"
         id="stop294" /></linearGradient><clipPath
       clipPathUnits="userSpaceOnUse"
       id="clipPath308"><path
         d="m 5507.63,1170.36 c 233.64,-29.4 678.68,-143.96 654.42,-430.821 -50.59,-322.359 -661.48,-380.121 -661.48,-380.121 0,0 666.54,21.301 718.12,381.133 45.49,351.769 -640.24,446.019 -711.06,429.809"
         id="path306" /></clipPath><linearGradient
       x1="0"
       y1="0"
       x2="1"
       y2="0"
       gradientUnits="userSpaceOnUse"
       gradientTransform="matrix(-720.294,0,0,-720.294,6220.86,765.75)"
       spreadMethod="pad"
       id="linearGradient316"><stop
         style="stop-opacity:1;stop-color:#ffffff"
         offset="0"
         id="stop310" /><stop
         style="stop-opacity:1;stop-color:#e51636"
         offset="0.63019"
         id="stop312" /><stop
         style="stop-opacity:1;stop-color:#e51636"
         offset="1"
         id="stop314" /></linearGradient></defs><path
     d="m 326.99876,99.999922 c 0,54.789808 -73.02224,99.207748 -163.10215,99.207748 -90.080701,0 -163.1042812,-44.41794 -163.1042812,-99.207748 0,-54.790517 73.0235802,-99.20759292 163.1042812,-99.20759292 90.07991,0 163.10215,44.41707592 163.10215,99.20759292"
     style="fill:#231f20;fill-opacity:1;fill-rule:nonzero;stroke:none;stroke-width:0.0787956"
     id="path18" /><path
     d="m 121.73309,49.285501 h -14.86873 v 4.659184 h 14.86873 z m 3.5915,-10.402594 c 3.44258,0.03388 5.88051,0.764317 7.31302,2.195245 1.43329,1.43014 2.13063,3.325962 2.09281,5.691406 v 22.391344 c -0.0977,2.831914 -1.06374,4.734827 -2.89968,5.700073 -1.8383,0.966034 -3.98706,1.426989 -6.44784,1.375771 H 95.73054 V 65.933435 h 26.00255 V 61.17812 h -18.45945 c -2.72239,0.06461 -4.957817,-0.321486 -6.703139,-1.159871 -1.743747,-0.837597 -2.645956,-2.567948 -2.702689,-5.186326 v -8.481557 c 0.05673,-2.463939 0.981005,-4.324303 2.774393,-5.58188 1.794963,-1.258366 4.109975,-1.885579 6.948985,-1.885579 h 21.7334"
     style="fill:#e51636;fill-opacity:1;fill-rule:nonzero;stroke:none;stroke-width:0.0787956"
     id="path20" /><path
     d="m 121.73309,49.285501 h -14.86873 v 4.659184 h 14.86873 z m 3.5915,-10.402594 c 3.44258,0.03388 5.88051,0.764317 7.31302,2.195245 1.43329,1.43014 2.13063,3.325962 2.09281,5.691406 v 22.391344 c -0.0977,2.831914 -1.06374,4.734827 -2.89968,5.700073 -1.8383,0.966034 -3.98706,1.426989 -6.44784,1.375771 H 95.73054 V 65.933435 h 26.00255 V 61.17812 h -18.45945 c -2.72239,0.06461 -4.957817,-0.321486 -6.703139,-1.159871 -1.743747,-0.837597 -2.645956,-2.567948 -2.702689,-5.186326 v -8.481557 c 0.05673,-2.463939 0.981005,-4.324303 2.774393,-5.58188 1.794963,-1.258366 4.109975,-1.885579 6.948985,-1.885579 z"
     style="fill:none;stroke:#ffffff;stroke-width:1.57591188;stroke-linecap:butt;stroke-linejoin:miter;stroke-miterlimit:4;stroke-dasharray:none;stroke-opacity:1"
     id="path22" /><path
     d="m 148.34472,58.995483 h 11.25595 v -8.51544 z m 22.51821,-20.112576 v 20.014869 h 4.10682 v 9.01658 h -4.10682 v 8.32239 h -11.26226 v -8.32239 H 137.72465 V 56.27861 l 22.99492,-17.395703 h 10.14336"
     style="fill:#e51636;fill-opacity:1;fill-rule:nonzero;stroke:none;stroke-width:0.0787956"
     id="path24" /><path
     d="m 148.34472,58.995483 h 11.25595 v -8.51544 z m 22.51821,-20.112576 v 20.014869 h 4.10682 v 9.01658 h -4.10682 v 8.32239 h -11.26226 v -8.32239 H 137.72465 V 56.27861 l 22.99492,-17.395703 z"
     style="fill:none;stroke:#ffffff;stroke-width:1.57591188;stroke-linecap:butt;stroke-linejoin:miter;stroke-miterlimit:4;stroke-dasharray:none;stroke-opacity:1"
     id="path26" /><path
     d="m 177.34465,75.675722 h 9.25384 V 63.073076 h -9.25384 z"
     style="fill:#e51636;fill-opacity:1;fill-rule:nonzero;stroke:none;stroke-width:0.0787956"
     id="path28" /><path
     d="m 177.34465,75.675722 h 9.25384 V 63.073076 h -9.25384 z"
     style="fill:none;stroke:#ffffff;stroke-width:1.57591188;stroke-linecap:butt;stroke-linejoin:miter;stroke-miterlimit:4;stroke-dasharray:none;stroke-opacity:1"
     id="path30" /><path
     d="m 204.59138,50.343726 v 4.096583 h 17.35946 c 2.8847,0.03309 4.86641,0.207233 5.94197,0.531083 1.07478,0.323061 1.79339,0.656367 2.14876,0.999128 0.62327,0.46253 1.10708,1.085803 1.44984,1.872971 0.34276,0.784016 0.51532,1.606642 0.51532,2.469454 v 9.193082 c 0.041,1.049557 -0.62879,2.304771 -2.00535,3.768005 -1.37892,1.463234 -3.79164,2.264586 -7.2358,2.403266 h -32.68047 v -9.687919 h 27.53355 V 61.79903 H 190.20173 V 40.562829 h 40.0912 v 9.780897 h -25.70155"
     style="fill:#e51636;fill-opacity:1;fill-rule:nonzero;stroke:none;stroke-width:0.0787956"
     id="path32" /><path
     d="m 204.59138,50.343726 v 4.096583 h 17.35946 c 2.8847,0.03309 4.86641,0.207233 5.94197,0.531083 1.07478,0.323061 1.79339,0.656367 2.14876,0.999128 0.62327,0.46253 1.10708,1.085803 1.44984,1.872971 0.34276,0.784016 0.51532,1.606642 0.51532,2.469454 v 9.193082 c 0.041,1.049557 -0.62879,2.304771 -2.00535,3.768005 -1.37892,1.463234 -3.79164,2.264586 -7.2358,2.403266 h -32.68047 v -9.687919 h 27.53355 V 61.79903 H 190.20173 V 40.562829 h 40.0912 v 9.780897 z"
     style="fill:none;stroke:#ffffff;stroke-width:1.57591188;stroke-linecap:butt;stroke-linejoin:miter;stroke-miterlimit:4;stroke-dasharray:none;stroke-opacity:1"
     id="path34" /><path
     d="m 98.541967,114.87811 0.340397,-13.86409 c -2.6562,-0.25057 -5.448716,-0.41368 -8.375972,-0.41368 -0.613818,0 -2.316591,0.0812 -5.109106,0.0812 v 14.36523 z m -29.08109,6.68738 0.203292,-31.780629 c 7.084512,-0.743043 14.235212,-1.155931 21.454465,-1.155931 15.391926,0 22.611976,4.705672 22.611976,16.51162 0,8.1711 -4.15411,13.78529 -11.64599,15.35411 7.1507,1.23945 10.69098,6.51954 10.69098,16.09794 v 5.28324 c 0,3.46614 0.13711,6.68407 1.29461,9.82179 l -16.617199,-1.23859 c -0.885662,-6.02549 -1.362375,-12.05336 -1.362375,-18.32549 0,-1.23945 0.06698,-2.56007 0.06698,-3.79794 l -14.437717,-0.41289 0.340397,22.04141 h -13.68995 c 0.816322,-10.31899 1.021191,-19.72955 1.090531,-28.39864"
     style="fill:#1a64b7;fill-opacity:1;fill-rule:nonzero;stroke:none;stroke-width:0.0787956"
     id="path36" /><path
     d="m 98.541967,114.87811 0.340397,-13.86409 c -2.6562,-0.25057 -5.448716,-0.41368 -8.375972,-0.41368 -0.613818,0 -2.316591,0.0812 -5.109106,0.0812 v 14.36523 z m -29.08109,6.68738 0.203292,-31.780629 c 7.084512,-0.743043 14.235212,-1.155931 21.454465,-1.155931 15.391926,0 22.611976,4.705672 22.611976,16.51162 0,8.1711 -4.15411,13.78529 -11.64599,15.35411 7.1507,1.23945 10.69098,6.51954 10.69098,16.09794 v 5.28324 c 0,3.46614 0.13711,6.68407 1.29461,9.82179 l -16.617199,-1.23859 c -0.885662,-6.02549 -1.362375,-12.05336 -1.362375,-18.32549 0,-1.23945 0.06698,-2.56007 0.06698,-3.79794 l -14.437717,-0.41289 0.340397,22.04141 h -13.68995 c 0.816322,-10.31899 1.021191,-19.72955 1.090531,-28.39864 z"
     style="fill:none;stroke:#1a64b7;stroke-width:5.07940006;stroke-linecap:butt;stroke-linejoin:miter;stroke-miterlimit:4;stroke-dasharray:none;stroke-opacity:1"
     id="path38" /><path
     d="m 152.85735,137.70598 1.05349,-32.75769 -18.81717,-0.87542 v 17.81095 l 0.91166,14.78678 c 5.82851,0.71547 11.44585,1.03538 16.85202,1.03538 z m -34.0531,-18.6848 c 0,-9.14423 1.33401,-15.50382 3.86178,-19.161514 5.05552,-7.315383 12.35672,-10.734324 22.18805,-10.734324 15.72681,0 24.99475,10.496361 24.99475,29.340328 0,10.33562 -2.59711,18.68086 -8.00406,25.27999 -4.77501,5.80416 -9.19781,7.95197 -15.7276,7.95197 -16.85123,0 -27.31292,-11.84684 -27.31292,-32.67645"
     style="fill:#1a64b7;fill-opacity:1;fill-rule:nonzero;stroke:none;stroke-width:0.0787956"
     id="path40" /><path
     d="m 152.85735,137.70598 1.05349,-32.75769 -18.81717,-0.87542 v 17.81095 l 0.91166,14.78678 c 5.82851,0.71547 11.44585,1.03538 16.85202,1.03538 z m -34.0531,-18.6848 c 0,-9.14423 1.33401,-15.50382 3.86178,-19.161514 5.05552,-7.315383 12.35672,-10.734324 22.18805,-10.734324 15.72681,0 24.99475,10.496361 24.99475,29.340328 0,10.33562 -2.59711,18.68086 -8.00406,25.27999 -4.77501,5.80416 -9.19781,7.95197 -15.7276,7.95197 -16.85123,0 -27.31292,-11.84684 -27.31292,-32.67645 z"
     style="fill:none;stroke:#1a64b7;stroke-width:4.90857124;stroke-linecap:butt;stroke-linejoin:miter;stroke-miterlimit:4;stroke-dasharray:none;stroke-opacity:1"
     id="path42" /><path
     d="m 182.64129,123.13904 c 0.63352,-1.34032 1.26546,-2.59396 2.17712,-3.68055 l -10.04013,-18.24354 c -3.1597,-5.774141 -5.54879,-9.119802 -5.89943,-11.045567 l 18.04498,-0.671338 8.91888,18.412955 9.47753,-17.072642 14.25333,1.004644 -3.58125,5.60473 -12.21647,20.923378 c 5.12565,11.12988 10.95258,21.58763 16.92135,31.96572 l -17.76289,0.41864 c -5.82772,-9.87561 -8.91809,-16.65203 -9.61937,-20.00084 l -7.58486,16.48491 c -0.63194,1.34007 -1.33322,3.01298 -2.66723,4.68739 h -14.67489 l 14.25333,-28.78789"
     style="fill:#1a64b7;fill-opacity:1;fill-rule:nonzero;stroke:none;stroke-width:0.0787956"
     id="path44" /><path
     d="m 182.64129,123.13904 c 0.63352,-1.34032 1.26546,-2.59396 2.17712,-3.68055 l -10.04013,-18.24354 c -3.1597,-5.774141 -5.54879,-9.119802 -5.89943,-11.045567 l 18.04498,-0.671338 8.91888,18.412955 9.47753,-17.072642 14.25333,1.004644 -3.58125,5.60473 -12.21647,20.923378 c 5.12565,11.12988 10.95258,21.58763 16.92135,31.96572 l -17.76289,0.41864 c -5.82772,-9.87561 -8.91809,-16.65203 -9.61937,-20.00084 l -7.58486,16.48491 c -0.63194,1.34007 -1.33322,3.01298 -2.66723,4.68739 h -14.67489 z"
     style="fill:none;stroke:#1a64b7;stroke-width:5.06159258;stroke-linecap:butt;stroke-linejoin:miter;stroke-miterlimit:4;stroke-dasharray:none;stroke-opacity:1"
     id="path46" /><path
     d="m 236.06707,130.1219 c 0,-1.20557 -0.0701,-2.56795 -0.13947,-4.25181 l -14.95698,-36.253064 16.36033,-0.161531 5.89627,17.083675 c 0.21196,0.64218 0.77535,2.80827 1.61531,6.49748 l 8.70692,-23.819905 12.64039,1.203208 -15.44709,36.653347 0.63194,25.0232 c -5.7576,-0.80206 -11.16534,-1.36262 -16.22086,-1.68395 0.70285,-9.86599 0.91324,-16.68417 0.91324,-20.29065"
     style="fill:#1a64b7;fill-opacity:1;fill-rule:nonzero;stroke:none;stroke-width:0.0787956"
     id="path48" /><path
     d="m 236.06707,130.1219 c 0,-1.20557 -0.0701,-2.56795 -0.13947,-4.25181 l -14.95698,-36.253064 16.36033,-0.161531 5.89627,17.083675 c 0.21196,0.64218 0.77535,2.80827 1.61531,6.49748 l 8.70692,-23.819905 12.64039,1.203208 -15.44709,36.653347 0.63194,25.0232 c -5.7576,-0.80206 -11.16534,-1.36262 -16.22086,-1.68395 0.70285,-9.86599 0.91324,-16.68417 0.91324,-20.29065 z"
     style="fill:none;stroke:#1a64b7;stroke-width:4.99367094;stroke-linecap:butt;stroke-linejoin:miter;stroke-miterlimit:4;stroke-dasharray:none;stroke-opacity:1"
     id="path50" /><path
     d="m 96.04651,112.35822 0.339609,-13.865658 c -2.655411,-0.249782 -5.448715,-0.413677 -8.37676,-0.413677 -0.613029,0 -2.315802,0.08116 -5.108318,0.08116 v 14.366015 z m -29.082666,6.6866 0.204081,-31.779842 c 7.084512,-0.743043 14.235212,-1.157507 21.453676,-1.157507 15.393509,0 22.611969,4.70646 22.611969,16.510829 0,8.17347 -4.15331,13.78765 -11.645986,15.35568 7.151486,1.2371 10.694136,6.52113 10.694136,16.09716 v 5.28245 c 0,3.46859 0.13474,6.68739 1.29304,9.82345 l -16.617993,-1.23788 c -0.884875,-6.02471 -1.361588,-12.05336 -1.361588,-18.32549 0,-1.23945 0.06698,-2.55849 0.06698,-3.79795 l -14.437716,-0.41052 0.339609,22.03991 H 65.874889 c 0.81711,-10.31907 1.021191,-19.73041 1.088955,-28.40029"
     style="fill:#fee264;fill-opacity:1;fill-rule:nonzero;stroke:none;stroke-width:0.0787956"
     id="path52" /><path
     d="m 96.04651,112.35822 0.339609,-13.865658 c -2.655411,-0.249782 -5.448715,-0.413677 -8.37676,-0.413677 -0.613029,0 -2.315802,0.08116 -5.108318,0.08116 v 14.366015 z m -29.082666,6.6866 0.204081,-31.779842 c 7.084512,-0.743043 14.235212,-1.157507 21.453676,-1.157507 15.393509,0 22.611969,4.70646 22.611969,16.510829 0,8.17347 -4.15331,13.78765 -11.645986,15.35568 7.151486,1.2371 10.694136,6.52113 10.694136,16.09716 v 5.28245 c 0,3.46859 0.13474,6.68739 1.29304,9.82345 l -16.617993,-1.23788 c -0.884875,-6.02471 -1.361588,-12.05336 -1.361588,-18.32549 0,-1.23945 0.06698,-2.55849 0.06698,-3.79795 l -14.437716,-0.41052 0.339609,22.03991 H 65.874889 c 0.81711,-10.31907 1.021191,-19.73041 1.088955,-28.40029 z"
     style="fill:none;stroke:#fee264;stroke-width:5.07940006;stroke-linecap:butt;stroke-linejoin:miter;stroke-miterlimit:4;stroke-dasharray:none;stroke-opacity:1"
     id="path54" /><path
     d="m 150.3611,135.18531 1.0535,-32.75691 -18.81639,-0.87463 v 17.80781 l 0.91167,14.78993 c 5.82851,0.71389 11.44506,1.0338 16.85122,1.0338 z m -34.05309,-18.6848 c 0,-9.14344 1.33401,-15.50382 3.86177,-19.161516 5.05553,-7.315382 12.35751,-10.733535 22.18726,-10.733535 15.72761,0 24.99633,10.496361 24.99633,29.338751 0,10.33562 -2.59789,18.68322 -8.00484,25.28235 -4.77423,5.80488 -9.19781,7.95048 -15.7276,7.95048 -16.85123,0 -27.31292,-11.84692 -27.31292,-32.67653"
     style="fill:#fee264;fill-opacity:1;fill-rule:nonzero;stroke:none;stroke-width:0.0787956"
     id="path56" /><path
     d="m 150.3611,135.18531 1.0535,-32.75691 -18.81639,-0.87463 v 17.80781 l 0.91167,14.78993 c 5.82851,0.71389 11.44506,1.0338 16.85122,1.0338 z m -34.05309,-18.6848 c 0,-9.14344 1.33401,-15.50382 3.86177,-19.161516 5.05553,-7.315382 12.35751,-10.733535 22.18726,-10.733535 15.72761,0 24.99633,10.496361 24.99633,29.338751 0,10.33562 -2.59789,18.68322 -8.00484,25.28235 -4.77423,5.80488 -9.19781,7.95048 -15.7276,7.95048 -16.85123,0 -27.31292,-11.84692 -27.31292,-32.67653 z"
     style="fill:none;stroke:#fee264;stroke-width:4.90857124;stroke-linecap:butt;stroke-linejoin:miter;stroke-miterlimit:4;stroke-dasharray:none;stroke-opacity:1"
     id="path58" /><path
     d="m 180.14662,120.61836 c 0.63194,-1.33794 1.2631,-2.59395 2.17713,-3.68133 l -10.0425,-18.241175 c -3.15813,-5.774929 -5.54642,-9.122166 -5.89785,-11.047143 l 18.04419,-0.668186 8.91887,18.408224 9.47832,-17.071851 14.25255,1.005432 -3.57968,5.607882 -12.21726,20.921017 c 5.12487,11.1283 10.95338,21.58921 16.92214,31.96572 l -17.76447,0.41769 c -5.82851,-9.87466 -8.91887,-16.65108 -9.62094,-20.00068 l -7.58171,16.4864 c -0.63194,1.33779 -1.33322,3.01314 -2.66881,4.68605 h -14.67331 l 14.25333,-28.78805"
     style="fill:#fee264;fill-opacity:1;fill-rule:nonzero;stroke:none;stroke-width:0.0787956"
     id="path60" /><path
     d="m 180.14662,120.61836 c 0.63194,-1.33794 1.2631,-2.59395 2.17713,-3.68133 l -10.0425,-18.241175 c -3.15813,-5.774929 -5.54642,-9.122166 -5.89785,-11.047143 l 18.04419,-0.668186 8.91887,18.408224 9.47832,-17.071851 14.25255,1.005432 -3.57968,5.607882 -12.21726,20.921017 c 5.12487,11.1283 10.95338,21.58921 16.92214,31.96572 l -17.76447,0.41769 c -5.82851,-9.87466 -8.91887,-16.65108 -9.62094,-20.00068 l -7.58171,16.4864 c -0.63194,1.33779 -1.33322,3.01314 -2.66881,4.68605 h -14.67331 z"
     style="fill:none;stroke:#fee264;stroke-width:5.06159258;stroke-linecap:butt;stroke-linejoin:miter;stroke-miterlimit:4;stroke-dasharray:none;stroke-opacity:1"
     id="path62" /><path
     d="m 233.57161,127.60202 c 0,-1.20479 -0.0685,-2.56953 -0.13947,-4.2526 l -14.95698,-36.253065 16.36033,-0.159955 5.89707,17.08446 c 0.21274,0.64218 0.77456,2.80591 1.61531,6.49433 l 8.70612,-23.820692 12.63881,1.203208 -15.4463,36.654924 0.63037,25.02461 c -5.75523,-0.80277 -11.16297,-1.36292 -16.2185,-1.68457 0.70207,-9.86757 0.91324,-16.68418 0.91324,-20.29065"
     style="fill:#fee264;fill-opacity:1;fill-rule:nonzero;stroke:none;stroke-width:0.0787956"
     id="path64" /><path
     d="m 233.57161,127.60202 c 0,-1.20479 -0.0685,-2.56953 -0.13947,-4.2526 l -14.95698,-36.253065 16.36033,-0.159955 5.89707,17.08446 c 0.21274,0.64218 0.77456,2.80591 1.61531,6.49433 l 8.70612,-23.820692 12.63881,1.203208 -15.4463,36.654924 0.63037,25.02461 c -5.75523,-0.80277 -11.16297,-1.36292 -16.2185,-1.68457 0.70207,-9.86757 0.91324,-16.68418 0.91324,-20.29065 z"
     style="fill:none;stroke:#fee264;stroke-width:4.99367094;stroke-linecap:butt;stroke-linejoin:miter;stroke-miterlimit:4;stroke-dasharray:none;stroke-opacity:1"
     id="path66" /><g
     transform="matrix(0.07879559,0,0,-0.07879559,-46.824873,223.85714)"
     id="g68"><g
       id="g70"
       clip-path="url(#clipPath74)"><path
         d="M 2608.4,2685.97 C 1960.8,2604.46 727.219,2286.84 794.492,1491.47 934.688,597.699 2628.03,437.5 2628.03,437.5 c 0,0 -1847.557,59.039 -1990.538,1056.79 C 511.348,2469.56 2412.15,2730.93 2608.4,2685.97"
         style="fill:url(#linearGradient82);fill-opacity:1;fill-rule:nonzero;stroke:none"
         id="path84" /></g></g><path
     d="M 25.233067,150.415 C 76.154562,194.57504 168.13345,195.65234 199.32705,188.3825 390.13294,146.6436 283.57451,42.15844 252.38248,32.197889 225.45488,19.538589 186.79776,-4.4263031 92.417185,13.078138 176.13278,-10.079887 232.12099,10.115424 258.78147,20.888357 324.63253,47.277002 325.69863,95.209938 326.49998,95.480206 326.7671,178.68757 200.92817,195.65297 200.92817,195.65297 107.61449,210.46346 40.163887,168.18648 25.233067,150.415"
     style="fill:#1a64b7;fill-opacity:1;fill-rule:nonzero;stroke:none;stroke-width:0.0787956"
     id="path86" /><g
     transform="matrix(0.07879559,0,0,-0.07879559,-46.824873,223.85714)"
     id="g88"><g
       id="g90"
       clip-path="url(#clipPath94)"><path
         d="M 2661.38,2706.65 C 3295.29,2624.37 4502.76,2303.76 4436.91,1500.85 4299.69,598.621 2642.16,436.91 2642.16,436.91 c 0,0 1808.46,59.578 1948.44,1066.75 123.46,984.51 -1737.13,1248.36 -1929.22,1202.99"
         style="fill:url(#linearGradient102);fill-opacity:1;fill-rule:nonzero;stroke:none"
         id="path104" /></g></g><path
     d="m 20.101819,60.728986 c 0,0 51.258819,-46.829798 128.273631,-47.8699 77.27327,0 131.10563,30.698764 131.10563,30.698764 0,0 -32.71121,-40.0651959 -131.10563,-38.2442297 C 48.69351,8.4355017 20.101819,60.728986 20.101819,60.728986"
     style="fill:#fee264;fill-opacity:1;fill-rule:nonzero;stroke:none;stroke-width:0.0787956"
     id="path106" /><path
     d="m 326.99876,99.999922 c 0,54.789808 -73.02224,99.207748 -163.10215,99.207748 -90.080701,0 -163.1042812,-44.41794 -163.1042812,-99.207748 0,-54.790517 73.0235802,-99.20759292 163.1042812,-99.20759292 90.07991,0 163.10215,44.41707592 163.10215,99.20759292 z"
     style="fill:none;stroke:#231f20;stroke-width:1.58465827;stroke-linecap:butt;stroke-linejoin:miter;stroke-miterlimit:4;stroke-dasharray:none;stroke-opacity:1"
     id="path110" /></svg>