<?xml version="1.0" encoding="UTF-8" standalone="no"?>
<!-- Created with Inkscape (http://www.inkscape.org/) -->
<svg
   xmlns:dc="http://purl.org/dc/elements/1.1/"
   xmlns:cc="http://web.resource.org/cc/"
   xmlns:rdf="http://www.w3.org/1999/02/22-rdf-syntax-ns#"
   xmlns:svg="http://www.w3.org/2000/svg"
   xmlns="http://www.w3.org/2000/svg"
   xmlns:sodipodi="http://sodipodi.sourceforge.net/DTD/sodipodi-0.dtd"
   xmlns:inkscape="http://www.inkscape.org/namespaces/inkscape"
   width="950"
   height="73"
   id="svg2"
   sodipodi:version="0.32"
   inkscape:version="0.45.1"
   version="1.0"
   inkscape:output_extension="org.inkscape.output.svg.inkscape">
  <g
     inkscape:label="Layer 1"
     inkscape:groupmode="layer"
     id="layer1"
     transform="translate(100,-232.10916)">
    <path
       style="fill:#221e1f;fill-rule:nonzero;stroke:none"
       d="M -100,303.51151 L -75.472985,303.51151 L -75.472985,233.55647 L -100,233.55647 L -100,303.51151 z "
       id="path2511" />
    <path
       style="fill:#221e1f;fill-rule:nonzero;stroke:none"
       d="M -30.055259,303.51151 L -5.5385459,303.51151 L -5.5385459,233.55647 L -30.055259,233.55647 L -30.055259,303.51151 z "
       id="path2513" />
    <path
       style="fill:#221e1f;fill-rule:nonzero;stroke:none"
       d="M 25.220658,303.51151 L 49.72707,303.51151 L 49.72707,233.55647 L 25.220658,233.55647 L 25.220658,303.51151 z "
       id="path2515" />
    <path
       id="path2517"
       d="M 9.8328152,232.10916 C 2.2099716,232.10916 -3.9913147,238.35165 -3.9913147,246.0569 C -3.9913147,253.75186 2.2099716,259.99435 9.8328152,259.99435 C 17.476261,259.99435 23.677547,253.75186 23.677547,246.0569 C 23.677547,238.35165 17.476261,232.10916 9.8328152,232.10916"
       style="fill:#221e1f;fill-rule:nonzero;stroke:none" />
    <path
       id="path2519"
       d="M 80.391504,271.8046 C 78.918441,269.30143 78.866935,267.77686 80.26789,265.38699 L 99.706141,233.55647 L 72.748058,233.55647 C 72.748058,233.55647 56.554666,260.0304 54.339921,263.70791 C 52.125176,267.38541 52.228187,269.68257 54.42233,273.45279 C 56.626774,277.2333 72.748058,303.51151 72.748058,303.51151 L 99.706141,303.51151 C 99.706141,303.51151 80.618129,272.18575 80.391504,271.8046"
       style="fill:#221e1f;fill-rule:nonzero;stroke:none" />
    <path
       id="path2521"
       d="M -31.593219,303.47237 L -44.727173,244.78677 C -45.973611,238.38977 -51.56713,233.55853 -58.293774,233.55853 L -74.044217,233.55853 L -58.211365,303.51357 L -31.572617,303.51357 L -31.593219,303.47237 z "
       style="fill:#221e1f;fill-rule:nonzero;stroke:none" />
    <path
       id="path2523"
       d="M 144.89415,247.26935 L 144.89415,260.45481 L 165.98059,260.45481 L 165.98059,274.04201 L 144.89415,274.04201 L 144.89415,303.51357 L 130.91551,303.51357 L 130.91551,233.58943 L 180.95844,233.58943 L 180.95844,247.26935 L 144.89415,247.26935 z "
       style="fill:#221e1f;fill-rule:nonzero;stroke:none" />
    <path
       id="path2525"
       d="M 216.63026,246.37418 C 205.35051,246.37418 200.64289,256.04695 200.64289,268.54223 C 200.64289,281.03752 205.35051,290.73089 216.63026,290.73089 C 227.93061,290.73089 232.61763,281.03752 232.61763,268.54223 C 232.61763,256.04695 227.93061,246.37418 216.63026,246.37418 M 216.63026,304.61683 C 197.54225,304.61683 186.2625,289.83469 186.2625,268.54223 C 186.2625,247.27038 197.54225,232.47794 216.63026,232.47794 C 235.71827,232.47794 246.99802,247.27038 246.99802,268.54223 C 246.99802,289.83469 235.71827,304.61683 216.63026,304.61683"
       style="fill:#221e1f;fill-rule:nonzero;stroke:none" />
    <path
       id="path2527"
       d="M 261.28467,303.51254 L 261.28467,233.5884 L 275.26332,233.5884 L 275.26332,289.72962 L 310.3387,289.72962 L 310.3387,303.51254 L 261.28467,303.51254 z "
       style="fill:#221e1f;fill-rule:nonzero;stroke:none" />
    <path
       id="path2529"
       d="M 367.38435,303.51254 L 348.39935,269.75571 L 337.21232,282.93087 L 337.21232,303.51254 L 323.22337,303.51254 L 323.22337,233.5884 L 337.21232,233.5884 L 337.21232,253.4696 C 337.21232,256.05519 337.11961,262.34919 337.01659,264.55363 C 337.9952,262.94665 340.59109,259.7533 342.5071,257.45615 L 362.07927,233.5884 L 378.96284,233.5884 L 358.48417,257.76518 L 384.15461,303.51254 L 367.38435,303.51254 z "
       style="fill:#221e1f;fill-rule:nonzero;stroke:none" />
    <path
       id="path2531"
       d="M 395.14902,303.51254 L 395.14902,233.5884 L 443.70859,233.5884 L 443.70859,247.26832 L 409.12766,247.26832 L 409.12766,259.35156 L 429.22519,259.35156 L 429.22519,272.94906 L 409.12766,272.94906 L 409.12766,289.83263 L 445.19196,289.83263 L 445.19196,303.51254 L 395.14902,303.51254 z "
       style="fill:#221e1f;fill-rule:nonzero;stroke:none" />
    <path
       id="path2533"
       d="M 511.53027,303.51254 L 511.53027,277.8421 C 511.53027,274.04098 511.73629,265.1408 511.73629,262.4522 C 510.74738,265.05839 508.64595,270.04414 506.83295,274.04098 L 492.65858,305.10922 L 478.47391,274.04098 C 476.66091,270.04414 474.56978,265.05839 473.56026,262.4522 C 473.56026,265.1408 473.76629,274.04098 473.76629,277.8421 L 473.76629,303.51254 L 460.08637,303.51254 L 460.08637,233.5884 L 473.56026,233.5884 L 488.14668,265.24381 C 489.95968,269.14794 492.05081,274.44273 492.95731,276.9356 C 493.85351,274.35002 495.85193,269.25095 497.64433,265.24381 L 511.73629,233.5884 L 525.50891,233.5884 L 525.50891,303.51254 L 511.53027,303.51254 z "
       style="fill:#221e1f;fill-rule:nonzero;stroke:none" />
    <path
       id="path2535"
       d="M 571.27482,304.61992 C 554.40155,304.61992 542.99819,293.23716 542.99819,272.8409 L 542.99819,233.58325 L 556.98714,233.58325 L 556.98714,272.64518 C 556.98714,283.83221 562.38493,290.9297 571.27482,290.9297 C 580.1647,290.9297 585.66551,284.03824 585.66551,272.8409 L 585.66551,233.58325 L 599.65446,233.58325 L 599.65446,272.64518 C 599.65446,292.92812 589.05459,304.61992 571.27482,304.61992"
       style="fill:#221e1f;fill-rule:nonzero;stroke:none" />
    <path
       id="path2537"
       d="M 640.89816,304.61992 C 629.20637,304.61992 619.02884,299.70627 613.73406,291.92891 L 623.81887,282.93602 C 628.71191,288.62225 635.00591,290.9297 641.70165,290.9297 C 650.00437,290.9297 653.8982,288.62225 653.8982,283.33776 C 653.8982,278.83616 651.48774,276.83774 638.30228,273.84011 C 625.41555,270.85278 616.43296,266.75292 616.43296,252.9597 C 616.43296,240.279 627.61999,232.48103 641.40292,232.48103 C 652.28092,232.48103 660.28491,236.58089 666.86734,243.47235 L 656.79282,253.25843 C 652.28092,248.66412 647.29517,246.06824 640.89816,246.06824 C 633.40923,246.06824 630.91636,249.27189 630.91636,252.37253 C 630.91636,256.76082 633.90369,258.15147 644.99802,260.75766 C 656.09235,263.35355 668.38161,267.15467 668.38161,282.33855 C 668.38161,295.61672 659.98618,304.61992 640.89816,304.61992"
       style="fill:#221e1f;fill-rule:nonzero;stroke:none" />
    <path
       style="fill:#221e1f;fill-rule:nonzero;stroke:none"
       d="M 684.15368,233.58737 L 698.13233,233.58737 L 698.13233,303.51151 L 684.15368,303.51151 L 684.15368,233.58737 z "
       id="path2539" />
    <path
       id="path2541"
       d="M 761.29274,303.51254 L 742.29744,269.75571 L 731.1104,282.93087 L 731.1104,303.51254 L 717.13175,303.51254 L 717.13175,233.5884 L 731.1104,233.5884 L 731.1104,253.4696 C 731.1104,256.05519 731.01769,262.34919 730.92498,264.55363 C 731.91389,262.94665 734.49947,259.7533 736.41548,257.45615 L 755.97735,233.5884 L 772.87122,233.5884 L 752.40285,257.76518 L 778.07329,303.51254 L 761.29274,303.51254 z "
       style="fill:#221e1f;fill-rule:nonzero;stroke:none" />
    <path
       id="path2543"
       d="M 833.20912,303.51254 L 814.23442,269.75571 L 803.03708,282.93087 L 803.03708,303.51254 L 789.05843,303.51254 L 789.05843,233.5884 L 803.03708,233.5884 L 803.03708,253.4696 C 803.03708,256.05519 802.94437,262.34919 802.84136,264.55363 C 803.84057,262.94665 806.43645,259.7533 808.33186,257.45615 L 827.91433,233.5884 L 844.8082,233.5884 L 824.32953,257.76518 L 849.99997,303.51254 L 833.20912,303.51254 z "
       style="fill:#221e1f;fill-rule:nonzero;stroke:none" />
  </g>
</svg>
