<?xml version="1.0" encoding="UTF-8" standalone="no"?>
<!-- Created with Inkscape (http://www.inkscape.org/) -->

<svg
   xmlns:dc="http://purl.org/dc/elements/1.1/"
   xmlns:cc="http://creativecommons.org/ns#"
   xmlns:rdf="http://www.w3.org/1999/02/22-rdf-syntax-ns#"
   xmlns:svg="http://www.w3.org/2000/svg"
   xmlns="http://www.w3.org/2000/svg"
   xmlns:sodipodi="http://sodipodi.sourceforge.net/DTD/sodipodi-0.dtd"
   xmlns:inkscape="http://www.inkscape.org/namespaces/inkscape"
   width="1000"
   height="328.97354"
   id="svg10292"
   version="1.1"
   inkscape:version="0.48.2 r9819"
   sodipodi:docname="A.svg">
  <defs
     id="defs10294">
    <clipPath
       clipPathUnits="userSpaceOnUse"
       id="clipPath9431">
      <path
         inkscape:connector-curvature="0"
         d="m 70.441,523.275 63.07,0 0,31.89 -63.07,0 0,-31.89 z"
         id="path9433" />
    </clipPath>
    <clipPath
       clipPathUnits="userSpaceOnUse"
       id="clipPath9919">
      <path
         inkscape:connector-curvature="0"
         d="m 68.74,331.511 63.071,0 0,31.891 -63.071,0 0,-31.891 z"
         id="path9921" />
    </clipPath>
    <clipPath
       clipPathUnits="userSpaceOnUse"
       id="clipPath9683">
      <path
         inkscape:connector-curvature="0"
         d="m 74.551,203.981 59.005,0 0,30.443 -59.005,0 0,-30.443 z"
         id="path9685" />
    </clipPath>
    <clipPath
       clipPathUnits="userSpaceOnUse"
       id="clipPath9667">
      <path
         inkscape:connector-curvature="0"
         d="m 88.388,206.107 27.088,0 0,27.071 -27.088,0 0,-27.071 z"
         id="path9669" />
    </clipPath>
    <clipPath
       clipPathUnits="userSpaceOnUse"
       id="clipPath9469">
      <path
         inkscape:connector-curvature="0"
         d="m 73.701,430.771 69.449,0 0,24.473 -69.449,0 0,-24.473 z"
         id="path9471" />
    </clipPath>
  </defs>
  <sodipodi:namedview
     id="base"
     pagecolor="#ffffff"
     bordercolor="#666666"
     borderopacity="1.0"
     inkscape:pageopacity="0.0"
     inkscape:pageshadow="2"
     inkscape:zoom="0.49497475"
     inkscape:cx="545.11876"
     inkscape:cy="-506.59301"
     inkscape:document-units="px"
     inkscape:current-layer="layer1"
     showgrid="false"
     fit-margin-left="0.5"
     fit-margin-bottom="0.5"
     fit-margin-top="0.5"
     fit-margin-right="0.5"
     inkscape:window-width="1920"
     inkscape:window-height="1028"
     inkscape:window-x="-8"
     inkscape:window-y="-8"
     inkscape:window-maximized="1" />
  <metadata
     id="metadata10297">
    <rdf:RDF>
      <cc:Work
         rdf:about="">
        <dc:format>image/svg+xml</dc:format>
        <dc:type
           rdf:resource="http://purl.org/dc/dcmitype/StillImage" />
        <dc:title></dc:title>
      </cc:Work>
    </rdf:RDF>
  </metadata>
  <g
     inkscape:label="Layer 1"
     inkscape:groupmode="layer"
     id="layer1"
     transform="translate(-562.33744,894.03475)">
    <path
       inkscape:connector-curvature="0"
       d="m 562.83744,-645.77489 58.72219,0 0,-167.54267 -58.72219,0 0,167.54267 z"
       style="fill:#231f20;fill-opacity:1;fill-rule:nonzero;stroke:none"
       id="path9459" />
    <path
       inkscape:connector-curvature="0"
       d="m 730.34688,-645.77489 58.68896,0 0,-167.54267 -58.68896,0 0,167.54267 z"
       style="fill:#231f20;fill-opacity:1;fill-rule:nonzero;stroke:none"
       id="path9461" />
    <path
       inkscape:connector-curvature="0"
       d="m 862.67951,-645.77489 58.72219,0 0,-167.54267 -58.72219,0 0,167.54267 z"
       style="fill:#231f20;fill-opacity:1;fill-rule:nonzero;stroke:none"
       id="path9463" />
    <g
       transform="matrix(16.616352,0,0,-16.616352,-751.43291,6595.598)"
       id="g9465">
      <g
         id="g9467"
         clip-path="url(#clipPath9469)">
        <g
           id="g9473"
           transform="translate(94.9226,446.0885)">
          <path
             inkscape:connector-curvature="0"
             d="m 0,0 c -1.1,0 -1.99,-0.899 -1.99,-2.008 0,-1.109 0.89,-2.01 1.99,-2.01 1.102,0 1.996,0.901 1.996,2.01 C 1.996,-0.899 1.102,0 0,0"
             style="fill:#231f20;fill-opacity:1;fill-rule:nonzero;stroke:none"
             id="path9475" />
        </g>
        <g
           id="g9477"
           transform="translate(105.0934,440.37)">
          <path
             inkscape:connector-curvature="0"
             d="m 0,0 c -0.211,0.358 -0.224,0.579 -0.02,0.925 l 2.801,4.587 -3.885,0 c 0,0 -2.335,-3.817 -2.654,-4.347 -0.316,-0.53 -0.303,-0.86 0.013,-1.404 0.319,-0.544 2.641,-4.333 2.641,-4.333 l 3.885,0 c 0,0 -2.75,4.516 -2.781,4.572"
             style="fill:#231f20;fill-opacity:1;fill-rule:nonzero;stroke:none"
             id="path9479" />
        </g>
        <g
           id="g9481"
           transform="translate(88.9531,435.8048)">
          <path
             inkscape:connector-curvature="0"
             d="m 0,0 -1.891,8.457 c -0.181,0.924 -0.989,1.62 -1.957,1.62 l -2.271,0 2.282,-10.084 3.838,0 L 0,0 z"
             style="fill:#231f20;fill-opacity:1;fill-rule:nonzero;stroke:none"
             id="path9483" />
        </g>
        <g
           id="g9485"
           transform="translate(119.8082,450.7086)">
          <path
             inkscape:connector-curvature="0"
             d="m 0,0 c -5.452,0 -9.87,-4.418 -9.87,-9.869 0,-5.45 4.418,-9.869 9.87,-9.869 5.449,0 9.869,4.419 9.869,9.869 C 9.869,-4.418 5.449,0 0,0"
             style="fill:#7a1d90;fill-opacity:1;fill-rule:nonzero;stroke:none"
             id="path9487" />
        </g>
        <g
           id="g9489"
           transform="translate(135.4075,442.071)">
          <path
             inkscape:connector-curvature="0"
             d="m 0,0 0,3.812 -2.461,0 0,-3.812 -2.437,0 c 0.046,-0.405 0.072,-0.815 0.072,-1.231 0,-0.417 -0.026,-0.827 -0.072,-1.231 l 2.437,0 0,-3.81 2.461,0 0,3.81 3.809,0 L 3.809,0 0,0 z"
             style="fill:#7a1d90;fill-opacity:1;fill-rule:nonzero;stroke:none"
             id="path9491" />
        </g>
        <g
           id="g9493"
           transform="translate(123.4988,435.7991)">
          <path
             inkscape:connector-curvature="0"
             d="m 0,0 2.462,0 0,10.084 -0.694,0 -3.239,0 0,-2.135 L 0,7.947 0,0 z"
             style="fill:#ffffff;fill-opacity:1;fill-rule:nonzero;stroke:none"
             id="path9495" />
        </g>
        <g
           id="g9497"
           transform="translate(116.0647,443.7537)">
          <path
             inkscape:connector-curvature="0"
             d="m 0,0 1.276,0 c 0.995,0 1.442,-0.532 1.442,-1.373 0,-0.855 -0.49,-1.374 -1.499,-1.374 l -0.454,0 0,-2.018 0.595,0 c 2.563,0 3.811,1.331 3.811,3.503 0,2.13 -1.359,3.392 -3.686,3.392 l -3.965,0 0,-10.085 2.48,0 L 0,0 z"
             style="fill:#ffffff;fill-opacity:1;fill-rule:nonzero;stroke:none"
             id="path9499" />
        </g>
      </g>
    </g>
  </g>
</svg>
