<?xml version="1.0" encoding="UTF-8" standalone="no"?>
<!-- Created with Inkscape (http://www.inkscape.org/) -->

<svg
   xmlns:dc="http://purl.org/dc/elements/1.1/"
   xmlns:cc="http://creativecommons.org/ns#"
   xmlns:rdf="http://www.w3.org/1999/02/22-rdf-syntax-ns#"
   xmlns:svg="http://www.w3.org/2000/svg"
   xmlns="http://www.w3.org/2000/svg"
   xmlns:sodipodi="http://sodipodi.sourceforge.net/DTD/sodipodi-0.dtd"
   xmlns:inkscape="http://www.inkscape.org/namespaces/inkscape"
   width="1000"
   height="389.4827"
   id="svg10292"
   version="1.1"
   inkscape:version="0.48.2 r9819"
   sodipodi:docname="A.svg">
  <defs
     id="defs10294">
    <clipPath
       clipPathUnits="userSpaceOnUse"
       id="clipPath9431">
      <path
         inkscape:connector-curvature="0"
         d="m 70.441,523.275 63.07,0 0,31.89 -63.07,0 0,-31.89 z"
         id="path9433" />
    </clipPath>
    <clipPath
       clipPathUnits="userSpaceOnUse"
       id="clipPath9919">
      <path
         inkscape:connector-curvature="0"
         d="m 68.74,331.511 63.071,0 0,31.891 -63.071,0 0,-31.891 z"
         id="path9921" />
    </clipPath>
    <clipPath
       clipPathUnits="userSpaceOnUse"
       id="clipPath9683">
      <path
         inkscape:connector-curvature="0"
         d="m 74.551,203.981 59.005,0 0,30.443 -59.005,0 0,-30.443 z"
         id="path9685" />
    </clipPath>
    <clipPath
       clipPathUnits="userSpaceOnUse"
       id="clipPath9667">
      <path
         inkscape:connector-curvature="0"
         d="m 88.388,206.107 27.088,0 0,27.071 -27.088,0 0,-27.071 z"
         id="path9669" />
    </clipPath>
    <clipPath
       clipPathUnits="userSpaceOnUse"
       id="clipPath9469">
      <path
         inkscape:connector-curvature="0"
         d="m 73.701,430.771 69.449,0 0,24.473 -69.449,0 0,-24.473 z"
         id="path9471" />
    </clipPath>
    <clipPath
       clipPathUnits="userSpaceOnUse"
       id="clipPath10225">
      <path
         inkscape:connector-curvature="0"
         d="m 76.001,238.365 61.937,0 0,24.095 -61.937,0 0,-24.095 z"
         id="path10227" />
    </clipPath>
  </defs>
  <sodipodi:namedview
     id="base"
     pagecolor="#ffffff"
     bordercolor="#666666"
     borderopacity="1.0"
     inkscape:pageopacity="0.0"
     inkscape:pageshadow="2"
     inkscape:zoom="0.49497475"
     inkscape:cx="674.63964"
     inkscape:cy="-446.56456"
     inkscape:document-units="px"
     inkscape:current-layer="layer1"
     showgrid="false"
     fit-margin-left="0.5"
     fit-margin-bottom="0.5"
     fit-margin-top="0.5"
     fit-margin-right="0.5"
     inkscape:window-width="1920"
     inkscape:window-height="1028"
     inkscape:window-x="-8"
     inkscape:window-y="-8"
     inkscape:window-maximized="1" />
  <metadata
     id="metadata10297">
    <rdf:RDF>
      <cc:Work
         rdf:about="">
        <dc:format>image/svg+xml</dc:format>
        <dc:type
           rdf:resource="http://purl.org/dc/dcmitype/StillImage" />
        <dc:title></dc:title>
      </cc:Work>
    </rdf:RDF>
  </metadata>
  <g
     inkscape:label="Layer 1"
     inkscape:groupmode="layer"
     id="layer1"
     transform="translate(-432.81656,1228.4653)">
    <g
       transform="matrix(19.483559,0,0,-19.483559,-1102.6893,3858.3483)"
       id="g10221">
      <g
         id="g10223"
         clip-path="url(#clipPath10225)">
        <g
           id="g10229"
           transform="translate(120.141,261.0567)">
          <path
             inkscape:connector-curvature="0"
             d="m 0,0 c -5.508,0 -9.97,-4.464 -9.97,-9.97 0,-5.505 4.462,-9.969 9.97,-9.969 5.506,0 9.969,4.464 9.969,9.969 C 9.969,-4.464 5.506,0 0,0"
             style="fill:#231f20;fill-opacity:1;fill-rule:nonzero;stroke:none"
             id="path10231" />
        </g>
        <g
           id="g10233"
           transform="translate(115.8119,254.6468)">
          <path
             inkscape:connector-curvature="0"
             d="m 0,0 -2.802,0 0,-7.13 1.751,0 0,5.624 0.902,0 c 0.704,0 1.02,-0.376 1.02,-0.971 0,-0.604 -0.348,-0.971 -1.059,-0.971 l -0.321,0 0,-1.426 0.42,0 c 1.81,0 2.694,0.941 2.694,2.477 C 2.605,-0.891 1.644,0 0,0"
             style="fill:#ffffff;fill-opacity:1;fill-rule:nonzero;stroke:none"
             id="path10235" />
        </g>
        <g
           id="g10237"
           transform="translate(120.0805,247.5172)">
          <path
             inkscape:connector-curvature="0"
             d="m 0,0 1.743,0 0,7.138 -2.784,0 0,-1.513 L 0,5.625 0,0 z"
             style="fill:#ffffff;fill-opacity:1;fill-rule:nonzero;stroke:none"
             id="path10239" />
        </g>
        <path
           inkscape:connector-curvature="0"
           d="m 78.836,245.981 3.579,0 0,10.213 -3.579,0 0,-10.213 z"
           style="fill:#231f20;fill-opacity:1;fill-rule:nonzero;stroke:none"
           id="path10241" />
        <path
           inkscape:connector-curvature="0"
           d="m 89.047,245.981 3.577,0 0,10.213 -3.577,0 0,-10.213 z"
           style="fill:#231f20;fill-opacity:1;fill-rule:nonzero;stroke:none"
           id="path10243" />
        <path
           inkscape:connector-curvature="0"
           d="m 97.116,245.981 3.579,0 0,10.213 -3.579,0 0,-10.213 z"
           style="fill:#231f20;fill-opacity:1;fill-rule:nonzero;stroke:none"
           id="path10245" />
        <g
           id="g10247"
           transform="translate(94.8687,256.4047)">
          <path
             inkscape:connector-curvature="0"
             d="m 0,0 c -1.114,0 -2.017,-0.911 -2.017,-2.035 0,-1.123 0.903,-2.036 2.017,-2.036 1.117,0 2.024,0.913 2.024,2.036 C 2.024,-0.911 1.117,0 0,0"
             style="fill:#231f20;fill-opacity:1;fill-rule:nonzero;stroke:none"
             id="path10249" />
        </g>
        <g
           id="g10251"
           transform="translate(105.1714,250.6117)">
          <path
             inkscape:connector-curvature="0"
             d="m 0,0 c -0.213,0.363 -0.226,0.586 -0.018,0.935 l 2.836,4.648 -3.936,0 c 0,0 -2.365,-3.866 -2.688,-4.403 -0.321,-0.537 -0.306,-0.871 0.013,-1.422 0.323,-0.552 2.675,-4.389 2.675,-4.389 l 3.936,0 c 0,0 -2.786,4.573 -2.818,4.631"
             style="fill:#231f20;fill-opacity:1;fill-rule:nonzero;stroke:none"
             id="path10253" />
        </g>
        <g
           id="g10255"
           transform="translate(88.8217,245.9866)">
          <path
             inkscape:connector-curvature="0"
             d="m 0,0 -1.915,8.567 c -0.184,0.936 -1.002,1.642 -1.983,1.642 l -2.299,0 2.311,-10.215 3.888,0 L 0,0 z"
             style="fill:#231f20;fill-opacity:1;fill-rule:nonzero;stroke:none"
             id="path10257" />
        </g>
        <g
           id="g10259"
           transform="translate(126.2639,252.5645)">
          <path
             inkscape:connector-curvature="0"
             d="m 0,0 1.447,2.091 -5.062,0 0,-1.512 2.149,0 -1.051,-1.545 -0.242,-0.357 1.502,0 c 0.61,0 1.105,-0.495 1.105,-1.104 0,-0.61 -0.495,-1.106 -1.105,-1.106 l -2.358,0 0,-1.514 2.566,0 c 1.452,0 2.633,1.181 2.633,2.633 C 1.584,-1.335 0.931,-0.406 0,0"
             style="fill:#ffffff;fill-opacity:1;fill-rule:nonzero;stroke:none"
             id="path10261" />
        </g>
      </g>
    </g>
  </g>
</svg>
