<?xml version="1.0" encoding="UTF-8" standalone="no"?>
<!-- Created with Inkscape (http://www.inkscape.org/) -->

<svg
   xmlns:dc="http://purl.org/dc/elements/1.1/"
   xmlns:cc="http://creativecommons.org/ns#"
   xmlns:rdf="http://www.w3.org/1999/02/22-rdf-syntax-ns#"
   xmlns:svg="http://www.w3.org/2000/svg"
   xmlns="http://www.w3.org/2000/svg"
   xmlns:sodipodi="http://sodipodi.sourceforge.net/DTD/sodipodi-0.dtd"
   xmlns:inkscape="http://www.inkscape.org/namespaces/inkscape"
   width="1000.0001"
   height="164.33307"
   id="svg10292"
   version="1.1"
   inkscape:version="0.48.2 r9819"
   sodipodi:docname="A.svg">
  <defs
     id="defs10294">
    <clipPath
       clipPathUnits="userSpaceOnUse"
       id="clipPath9431">
      <path
         inkscape:connector-curvature="0"
         d="m 70.441,523.275 63.07,0 0,31.89 -63.07,0 0,-31.89 z"
         id="path9433" />
    </clipPath>
    <clipPath
       clipPathUnits="userSpaceOnUse"
       id="clipPath9919">
      <path
         inkscape:connector-curvature="0"
         d="m 68.74,331.511 63.071,0 0,31.891 -63.071,0 0,-31.891 z"
         id="path9921" />
    </clipPath>
    <clipPath
       clipPathUnits="userSpaceOnUse"
       id="clipPath9683">
      <path
         inkscape:connector-curvature="0"
         d="m 74.551,203.981 59.005,0 0,30.443 -59.005,0 0,-30.443 z"
         id="path9685" />
    </clipPath>
    <clipPath
       clipPathUnits="userSpaceOnUse"
       id="clipPath9667">
      <path
         inkscape:connector-curvature="0"
         d="m 88.388,206.107 27.088,0 0,27.071 -27.088,0 0,-27.071 z"
         id="path9669" />
    </clipPath>
    <clipPath
       clipPathUnits="userSpaceOnUse"
       id="clipPath9469">
      <path
         inkscape:connector-curvature="0"
         d="m 73.701,430.771 69.449,0 0,24.473 -69.449,0 0,-24.473 z"
         id="path9471" />
    </clipPath>
    <clipPath
       clipPathUnits="userSpaceOnUse"
       id="clipPath10225">
      <path
         inkscape:connector-curvature="0"
         d="m 76.001,238.365 61.937,0 0,24.095 -61.937,0 0,-24.095 z"
         id="path10227" />
    </clipPath>
    <clipPath
       id="clipPath10981"
       clipPathUnits="userSpaceOnUse">
      <path
         inkscape:connector-curvature="0"
         id="path10983"
         d="m 59.528,381.289 102.756,0 0,27.07 -102.756,0 0,-27.07 z" />
    </clipPath>
    <clipPath
       id="clipPath11401"
       clipPathUnits="userSpaceOnUse">
      <path
         inkscape:connector-curvature="0"
         id="path11403"
         d="m 60.236,444.926 102.756,0 0,27.071 -102.756,0 0,-27.071 z" />
    </clipPath>
  </defs>
  <sodipodi:namedview
     id="base"
     pagecolor="#ffffff"
     bordercolor="#666666"
     borderopacity="1.0"
     inkscape:pageopacity="0.0"
     inkscape:pageshadow="2"
     inkscape:zoom="0.49497475"
     inkscape:cx="359.405"
     inkscape:cy="-205.28831"
     inkscape:document-units="px"
     inkscape:current-layer="layer1"
     showgrid="false"
     fit-margin-left="0.5"
     fit-margin-bottom="0.5"
     fit-margin-top="0.5"
     fit-margin-right="0.5"
     inkscape:window-width="1044"
     inkscape:window-height="1039"
     inkscape:window-x="868"
     inkscape:window-y="-21"
     inkscape:window-maximized="0" />
  <metadata
     id="metadata10297">
    <rdf:RDF>
      <cc:Work
         rdf:about="">
        <dc:format>image/svg+xml</dc:format>
        <dc:type
           rdf:resource="http://purl.org/dc/dcmitype/StillImage" />
        <dc:title></dc:title>
      </cc:Work>
    </rdf:RDF>
  </metadata>
  <g
     inkscape:label="Layer 1"
     inkscape:groupmode="layer"
     id="layer1"
     transform="translate(-814.11709,1372.603)">
    <g
       id="g11381"
       transform="matrix(6.9704677,0,0,6.7474597,4285.1802,1136.5214)">
      <g
         id="g11383"
         transform="translate(-497.8953,-347.9697)">
        <path
           inkscape:connector-curvature="0"
           d="m 0,0 0,-1.796 0.007,-21.536 8.223,0 L 8.227,0.002 0,0 z"
           style="fill:#231f20;fill-opacity:1;fill-rule:nonzero;stroke:none"
           id="path11385" />
      </g>
    </g>
    <g
       id="g11387"
       transform="matrix(6.9704677,0,0,6.7474597,4285.1802,1136.5214)">
      <path
         inkscape:connector-curvature="0"
         d="m -474.433,-371.301 8.226,0 0,23.333 -8.226,0 0,-23.333 z"
         style="fill:#231f20;fill-opacity:1;fill-rule:nonzero;stroke:none"
         id="path11389" />
    </g>
    <g
       id="g11391"
       transform="matrix(6.9704677,0,0,6.7474597,4285.1802,1136.5214)">
      <g
         id="g11393"
         transform="translate(-455.8932,-347.9697)">
        <path
           inkscape:connector-curvature="0"
           d="m 0,0 0,-23.332 8.226,0 0,23.334 L 0,0 z"
           style="fill:#231f20;fill-opacity:1;fill-rule:nonzero;stroke:none"
           id="path11395" />
      </g>
    </g>
    <g
       id="g11397"
       transform="matrix(15.256544,0,0,-15.256544,-396.29632,5710.3118)">
      <g
         id="g11399"
         clip-path="url(#clipPath11401)">
        <g
           id="g11405"
           transform="matrix(0.4568838,0,0,-0.4422666,306.85037,299.79211)">
          <g
             id="g11407"
             transform="translate(-461.0437,-371.7878)">
            <path
               inkscape:connector-curvature="0"
               d="m 0,0 c -2.571,0 -4.645,2.085 -4.645,4.646 0,2.574 2.074,4.658 4.637,4.658 C 2.557,9.302 4.64,7.22 4.64,4.646 4.64,2.085 2.557,0 0,0"
               style="fill:#231f20;fill-opacity:1;fill-rule:nonzero;stroke:none"
               id="path11409" />
          </g>
        </g>
        <g
           id="g11411"
           transform="matrix(0.4568838,0,0,-0.4422666,306.85037,299.79211)">
          <g
             id="g11413"
             transform="translate(-437.3759,-358.55)">
            <path
               inkscape:connector-curvature="0"
               d="m 0,0 c -0.492,-0.83 -0.525,-1.342 -0.052,-2.141 l 6.521,-10.61 -9.037,0 c 0,0 -5.437,8.82 -6.174,10.053 -0.748,1.228 -0.715,1.991 0.026,3.247 0.74,1.262 6.148,10.033 6.148,10.033 l 9.037,0 C 6.469,10.582 0.073,0.135 0,0"
               style="fill:#231f20;fill-opacity:1;fill-rule:nonzero;stroke:none"
               id="path11415" />
          </g>
        </g>
        <g
           id="g11417"
           transform="matrix(0.4568838,0,0,-0.4422666,306.85037,299.79211)">
          <g
             id="g11419"
             transform="translate(-479.3504,-367.5652)">
            <path
               inkscape:connector-curvature="0"
               d="m 0,0 c -0.421,-2.126 -2.301,-3.736 -4.559,-3.736 l -5.285,-0.004 5.305,23.337 8.951,0 L 0,0 z"
               style="fill:#231f20;fill-opacity:1;fill-rule:nonzero;stroke:none"
               id="path11421" />
          </g>
        </g>
        <g
           id="g11423"
           transform="matrix(0.4568838,0,0,-0.4422666,306.85037,299.79211)">
          <g
             id="g11425"
             transform="translate(-415.33,-353.1242)">
            <path
               inkscape:connector-curvature="0"
               d="m 0,0 c 0,3.793 -1.62,5.543 -5.056,5.543 -1.426,0 -3.274,-0.26 -4.538,-0.875 l 0.583,-2.043 c 1.102,0.486 2.204,0.746 3.534,0.746 2.139,0 2.981,-0.875 2.981,-3.889 l 0,-17.664 2.496,0 L 0,0 z"
               style="fill:#231f20;fill-opacity:1;fill-rule:nonzero;stroke:none"
               id="path11427" />
          </g>
        </g>
        <g
           id="g11429"
           transform="matrix(0.4568838,0,0,-0.4422666,306.85037,299.79211)">
          <g
             id="g11431"
             transform="translate(-398.6062,-356.9153)">
            <path
               inkscape:connector-curvature="0"
               d="M 0,0 -3.986,-11.571 -7.974,0 0,0 z m -2.69,-14.391 8.525,23.336 -2.658,0 -2.463,-6.677 -9.4,0 -2.398,6.677 -2.691,0 8.459,-23.336 2.626,0 z"
               style="fill:#231f20;fill-opacity:1;fill-rule:nonzero;stroke:none"
               id="path11433" />
          </g>
        </g>
        <g
           id="g11435"
           transform="matrix(0.4568838,0,0,-0.4422666,306.85037,299.79211)">
          <g
             id="g11437"
             transform="translate(-390.4464,-349.6223)">
            <path
               inkscape:connector-curvature="0"
               d="m 0,0 12.802,-19.448 -11.895,0 0,-2.236 15.59,0 0,1.103 -13.223,19.997 13.19,0 0,2.236 L 0,1.652 0,0 z"
               style="fill:#231f20;fill-opacity:1;fill-rule:nonzero;stroke:none"
               id="path11439" />
          </g>
        </g>
        <g
           id="g11441"
           transform="matrix(0.4568838,0,0,-0.4422666,306.85037,299.79211)">
          <g
             id="g11443"
             transform="translate(-371.0733,-349.6223)">
            <path
               inkscape:connector-curvature="0"
               d="m 0,0 12.803,-19.448 -11.895,0 0,-2.236 15.589,0 0,1.103 -13.223,19.997 13.191,0 0,2.236 L 0,1.652 0,0 z"
               style="fill:#231f20;fill-opacity:1;fill-rule:nonzero;stroke:none"
               id="path11445" />
          </g>
        </g>
      </g>
    </g>
  </g>
</svg>
