<svg xmlns="http://www.w3.org/2000/svg" viewBox="0 0 343.57 47.46"><defs><style>.cls-1{stroke:#fff;stroke-miterlimit:10;stroke-width:3px;}.cls-2{fill:#fff;}.cls-3{fill:#ea3630;}.cls-4{fill:#eb3630;}</style></defs><title>Asset 1</title><g id="Layer_2" data-name="Layer 2"><g id="Layer_1_copy" data-name="Layer 1 copy"><path class="cls-1" d="M329.89,46H8.38L1.68,21,22.16,1.5H333L341.91,26Z"/><path class="cls-2" d="M172.36,10.12H165.8L151,22.22l4.55-12.1H150l-3.14,7.78-7.31-7.78h-6.07l-5.1,12.62h5.49l3.29-8.16L145,22.71v0H147l3.82,0v0h5.46l0,0h15.33v0h5.92ZM160,19.74l7.58-6.09,2.71,6.09Z"/><path class="cls-2" d="M62.74,10h-19l1.14,2.89-3.44,8.6-4.7-11.36H30.15L14.75,22.75h5.9l0,0H36v0H46.54L50.43,13H60.58c.53,0,.85.15,1,.43a1.29,1.29,0,0,1,0,1l-.15.36a2,2,0,0,1-.74,1,2.42,2.42,0,0,1-1.34.32H50.35l8.36,6.63h6.66l-4.49-3.44c2.39-.09,4.24-.77,5-2.21l1.46-3.59C67.89,11.85,67.22,10,62.74,10ZM24.4,19.74,32,13.65l2.71,6.09Z"/><path class="cls-3" d="M43,31.6c-.2-.07-.41-.17-.64-.24A14.63,14.63,0,0,0,40.53,31a18.82,18.82,0,0,0-2.45-.14H30.88c-.92,0-1.44-.08-1.56-.26a.69.69,0,0,1,0-.59,1.66,1.66,0,0,1,.22-.34,2,2,0,0,1,.37-.34,1.91,1.91,0,0,1,.49-.26,1.7,1.7,0,0,1,.55-.09l13.32-.09,1.19-2.65H29.92l-.57,0c-2.53,0-3.44.8-3.68,1a5.41,5.41,0,0,0-1.43,1.5,4.14,4.14,0,0,0-.27.47c-.07.15-.14.3-.2.45l-.1.23-.06.19a3.24,3.24,0,0,0-.16,1.17,1.62,1.62,0,0,0,.42,1,2.42,2.42,0,0,0,.36.35,3,3,0,0,0,.39.28,8,8,0,0,0,1.78.37c.46.07.91.12,1.33.15s.83,0,1.21,0h9a.72.72,0,0,1,.66.28.59.59,0,0,1,0,.58,1.58,1.58,0,0,1-.22.35A1.88,1.88,0,0,1,38,35a2.5,2.5,0,0,1-1.25.34H21.95l-1.11,2.76H37.47c.32,0,.68,0,1.1-.05a11.55,11.55,0,0,0,1.28-.18,8.87,8.87,0,0,0,1.33-.37,5.51,5.51,0,0,0,1.23-.61,4.31,4.31,0,0,0,1-1,4.7,4.7,0,0,0,.6-1c0-.12.09-.24.12-.35s.07-.23.09-.34a2.7,2.7,0,0,0-.09-1.33A2.13,2.13,0,0,0,43,31.6Z"/><path class="cls-4" d="M71.81,27.82a1.51,1.51,0,0,0-.38-.65,3.08,3.08,0,0,0-1.08-.61,6,6,0,0,0-2.1-.3H49l1.13,2.88h0L49,32h0L46.5,38.11h5.39l1.24-3.06H64.69A8.08,8.08,0,0,0,67,34.74a7.52,7.52,0,0,0,1.59-.64,4.65,4.65,0,0,0,.9-.64,2.33,2.33,0,0,0,.44-.51l1.86-4.61A1.07,1.07,0,0,0,71.81,27.82Zm-6,2.66-.14.34a1.93,1.93,0,0,1-.7.91,2.21,2.21,0,0,1-1.26.3H54.37l1.11-2.89H65c.5,0,.8.14.91.41A1.22,1.22,0,0,1,65.83,30.48Z"/><path class="cls-4" d="M119.81,26.07H102l1,2.67-3.86,9.37h5.32l3.77-9.16h9.45q.74,0,.91.41a1.19,1.19,0,0,1,0,.93l-.14.34a1.86,1.86,0,0,1-.7.92,2.25,2.25,0,0,1-1.26.3h-8.4L116,38.09h6.27l-4.23-3.24c2.25-.09,4-.72,4.74-2.08l1.38-3.38C124.66,27.83,124,26.07,119.81,26.07Z"/><path class="cls-4" d="M98.85,29.12a2.43,2.43,0,0,0-.34-1.48,2.71,2.71,0,0,0-1.3-1,6.32,6.32,0,0,0-2.42-.37H81.89a9.08,9.08,0,0,0-2.73.37,7.87,7.87,0,0,0-2.13,1,6.83,6.83,0,0,0-1.55,1.48,7.79,7.79,0,0,0-1,1.79h0C73.17,34.09,73,34.67,73,35.22a2.46,2.46,0,0,0,.36,1.49,2.78,2.78,0,0,0,1.31,1,6.36,6.36,0,0,0,2.42.38H90a9.08,9.08,0,0,0,2.73-.38,7.73,7.73,0,0,0,2.12-1,6.89,6.89,0,0,0,1.54-1.49c.42-.56.7-.86,2.09-4.43h0A5.61,5.61,0,0,0,98.85,29.12Zm-7.51,5.17a3.2,3.2,0,0,1-2.4.76H80.28a1.56,1.56,0,0,1-1.23-.39.75.75,0,0,1-.22-.37c-.1-.24-.11-.52,1.12-3.63h0c.47-.88,1.16-1.37,3-1.37h8.3c1.34,0,1.76.48,1.84.71s0,.6-.11.91h0C91.83,33.8,91.59,34.05,91.34,34.29Z"/><path class="cls-2" d="M129.49,13.17a2.58,2.58,0,0,0-.37-1.57,2.88,2.88,0,0,0-1.38-1.08,6.73,6.73,0,0,0-2.57-.4H111.45a9.67,9.67,0,0,0-2.91.4,8.35,8.35,0,0,0-2.26,1.08,7.23,7.23,0,0,0-1.65,1.57,8.31,8.31,0,0,0-1.05,1.9h0c-1.4,3.39-1.55,4-1.58,4.59,0,0,0,.06,0,.09H85l22-9.62H80.75l-1.24,3H91.09l-16.9,7.62,4.29-10.63H72.94l-5.1,12.62h52.24a9.66,9.66,0,0,0,2.9-.4,8.2,8.2,0,0,0,2.26-1.09,7.31,7.31,0,0,0,1.63-1.58c.45-.6.75-.92,2.22-4.71h0A6,6,0,0,0,129.49,13.17Zm-6.22,1.91c-1.24,3.06-1.49,3.33-1.76,3.58a3.41,3.41,0,0,1-2.55.81h-9.21a1.66,1.66,0,0,1-1.31-.41.81.81,0,0,1-.24-.4c-.1-.26-.12-.55,1.19-3.86h0c.5-.93,1.23-1.45,3.23-1.45h8.83c1.42,0,1.88.51,2,.76s0,.64-.11,1Z"/><polygon class="cls-4" points="146.88 26.26 126.74 26.26 125.58 29.13 133.16 29.13 129.37 38.11 134.69 38.11 138.48 29.13 145.72 29.13 146.88 26.26"/><path class="cls-4" d="M166.61,31.6c-.2-.07-.41-.17-.65-.24a14.48,14.48,0,0,0-1.81-.33,18.82,18.82,0,0,0-2.45-.14h-7.21c-.92,0-1.44-.08-1.56-.26a.69.69,0,0,1,0-.59,1.86,1.86,0,0,1,.22-.34,2,2,0,0,1,.37-.34,1.9,1.9,0,0,1,.49-.26,1.67,1.67,0,0,1,.54-.09H168l1.72-2.74H153.54l-.56,0c-2.53,0-3.44.8-3.68,1a5.44,5.44,0,0,0-1.43,1.5,5,5,0,0,0-.26.47c-.07.15-.14.3-.2.45l-.1.23s0,.1-.05.19a3.27,3.27,0,0,0-.16,1.17,1.62,1.62,0,0,0,.43,1,2.49,2.49,0,0,0,.35.35,3.2,3.2,0,0,0,.39.28,8,8,0,0,0,1.78.37c.46.07.91.12,1.34.15s.83,0,1.21,0h9a.71.71,0,0,1,.66.28.59.59,0,0,1,0,.58,1.66,1.66,0,0,1-.22.35,1.73,1.73,0,0,1-.37.34,2.49,2.49,0,0,1-1.25.34H145.18l-1.11,2.76h17c.32,0,.68,0,1.09-.05a11.44,11.44,0,0,0,1.28-.18,8.8,8.8,0,0,0,1.33-.37,5.5,5.5,0,0,0,1.23-.61,4.29,4.29,0,0,0,1-1,4.58,4.58,0,0,0,.6-1,3.23,3.23,0,0,0,.13-.35,3.37,3.37,0,0,0,.09-.34,2.71,2.71,0,0,0-.09-1.33A2.14,2.14,0,0,0,166.61,31.6Z"/><path class="cls-2" d="M209.12,26.18a5.73,5.73,0,0,1-2.73.68h-4.93A4.2,4.2,0,0,1,197.22,22l.68-5.12A5.78,5.78,0,0,1,203.43,12h8.66a4.2,4.2,0,0,1,4.25,4.88l-1.8,13.76A5.78,5.78,0,0,1,209,35.5h-8.66a4.2,4.2,0,0,1-4.25-4.88l.28-2h5.77l-.12.72a.56.56,0,0,0,.6.64H208a.75.75,0,0,0,.76-.64Zm-4.61-8.64a.75.75,0,0,0-.76.64l-.48,3.6a.56.56,0,0,0,.6.64H209a.75.75,0,0,0,.76-.64l.48-3.6a.56.56,0,0,0-.6-.64Z"/><path class="cls-2" d="M235.7,31.06a5.22,5.22,0,0,1-5,4.44h-9.54a3.84,3.84,0,0,1-3.89-4.44l.56-4a4.43,4.43,0,0,1,3.89-3.84,3.21,3.21,0,0,1-2.49-3.72l.4-3a5.23,5.23,0,0,1,5-4.44h8.74a3.82,3.82,0,0,1,3.89,4.44l-.4,3a4.52,4.52,0,0,1-3.53,3.72A3.22,3.22,0,0,1,236.26,27Zm-6.33-1.12a.75.75,0,0,0,.76-.64l.44-3.36a.56.56,0,0,0-.6-.64h-5.45a.75.75,0,0,0-.76.64l-.44,3.36a.56.56,0,0,0,.6.64Zm.6-9.08a.75.75,0,0,0,.76-.64l.32-2.44a.56.56,0,0,0-.6-.64H226.2a.75.75,0,0,0-.76.64l-.32,2.44a.56.56,0,0,0,.6.64Z"/><path class="cls-2" d="M243.77,35.1h-6l.76-6h6Z"/><path class="cls-2" d="M245.37,12.38h19.32l-.28,2.24L252.58,35.1H246l10.3-17.52H244.69Z"/><path class="cls-2" d="M279.33,18.46l-.5,3.76h7.27L285.46,27h-7.27l-1.07,8.13h-5.67l2.86-21.58h15.39L289,18.46Z"/><path class="cls-2" d="M300.27,35.1l-3.62-8.62-1.14,8.62h-5.45l2.86-21.58H297l5.45,12.92,8.87-12.92h4.08L312.53,35.1h-5.45l1.14-8.62-5.9,8.62Z"/></g></g></svg>