<svg xmlns="http://www.w3.org/2000/svg" viewBox="0 0 331.2 80"><defs><style>.cls-1{fill:#e31b23;}.cls-2{fill:#fff;}</style></defs><title>Asset 3</title><g id="Layer_2" data-name="Layer 2"><g id="Layer_1-2" data-name="Layer 1"><path class="cls-1" d="M148.9,0H8.5A8.5,8.5,0,0,0,0,8.5V59.2a8.5,8.5,0,0,0,8.5,8.5H21.9L31,80V67.7H148.9a8.5,8.5,0,0,0,8.5-8.5V8.5A8.5,8.5,0,0,0,148.9,0Z"/><path class="cls-2" d="M166,16h9.9l15.7,20.2V16H202V54.2h-9.3l-16.3-21v21H166Z"/><path class="cls-2" d="M206.8,16h30.7v9H217.3v5.8h18.3v8.3H217.3v6.1h20.5v9h-31Z"/><path class="cls-2" d="M240.2,16h11.2l6.7,22.1,7.4-22.2h9.1l7.4,22.2L288.6,16h11L286.8,54.5h-9.2l-7.7-22-7.6,22H253Z"/><path class="cls-2" d="M297.8,48.5l5.9-7A19.7,19.7,0,0,0,316.1,46c2.8,0,4.4-1,4.4-2.6h0c0-1.6-1.3-2.5-6.4-3.7-8.1-1.9-14.4-4.1-14.4-12h0c0-7.1,5.6-12.2,14.8-12.2,6.5,0,11.6,1.7,15.7,5.1l-5.3,7.5a19.2,19.2,0,0,0-10.7-3.8c-2.6,0-3.8,1.1-3.8,2.5h0c0,1.7,1.3,2.5,6.6,3.7,8.8,1.9,14.2,4.7,14.2,11.9h0c0,7.8-6.2,12.4-15.4,12.4A26.7,26.7,0,0,1,297.8,48.5Z"/><path class="cls-2" d="M138.6,40.3l1.3-.9a12.5,12.5,0,0,0,4.4-10,12.6,12.6,0,0,0-3.5-9.2c-2.6-2.6-6.6-4-11.4-4H112V54.4h10.8V42.8h5L134,54.4h12.3Zm-9.6-7.1h-6.3v-7h6.1c4.5,0,4.5,2.6,4.5,3.6C133.4,32.9,130.4,33.2,129.1,33.2Z"/><path class="cls-2" d="M82.7,54.4l1.7-4.4H99.2l1.8,4.4h11.5L96.2,16.1H87L71.3,54.4ZM88,40.3l.3-.8,3.2-8.4,2.3,5.7,1.8,4.4H87.7Z"/><polygon class="cls-2" points="57.4 54.4 68.3 54.4 68.3 26.5 79.5 26.5 79.5 16.1 46.2 16.1 46.2 26.5 57.4 26.5 57.4 54.4"/><polygon class="cls-2" points="24.7 54.4 24.7 34.8 38.3 54.4 51.3 54.4 36.4 32.7 48.8 16.1 43.2 16.1 35.7 16.1 24.7 30.9 24.7 28.8 24.7 28.1 24.7 16.1 13.7 16.1 13.7 54.4 24.7 54.4"/><path class="cls-2" d="M242,77.8l1.9-2.8a5.4,5.4,0,0,0,3.6,1.4c2,0,3.1-1.5,3.4-3.8a5.1,5.1,0,0,1-3.4,1.1c-3.6,0-5.9-2-5.9-5.4h0c0-3.4,2.6-5.8,6.3-5.8a6,6,0,0,1,4.8,1.8c1.2,1.2,2,3,2,6.3h0c0,5.4-2.5,9.1-7.3,9.1A8,8,0,0,1,242,77.8Zm9-9.5h0c0-1.5-1.1-2.5-2.9-2.5s-2.8,1-2.8,2.5h0c0,1.5,1.1,2.5,2.9,2.5S251,69.7,251,68.3Z"/><path class="cls-2" d="M255.8,76.5l5.5-4.5c2.1-1.7,2.9-2.6,2.9-4a2,2,0,0,0-2.2-2.2c-1.3,0-2.2.7-3.4,2.2L256,66c1.6-2.2,3.2-3.4,6.2-3.4s5.7,2,5.7,5.1h0c0,2.8-1.4,4.2-4.4,6.4l-2.7,2.1h7.2v3.2H255.8Z"/><path class="cls-2" d="M271.1,75.6h3.8v3.8h-3.8Z"/><path class="cls-2" d="M277.3,76.9l2.5-2.4a5.1,5.1,0,0,0,4,2,2.1,2.1,0,0,0,2.4-2h0c0-1.4-1.2-2.1-3.3-2.1h-1.5l-.6-2.3,4-4h-6.5V62.8h11.2v2.8l-4.2,4c2.3.4,4.5,1.6,4.5,4.7h0c0,3.1-2.3,5.4-6,5.4A8.1,8.1,0,0,1,277.3,76.9Z"/><path class="cls-2" d="M296.8,62.8h12.7v3.3h-9v3.5h7.9V73h-7.9v6.4h-3.7Z"/><path class="cls-2" d="M311.8,62.8h3.9l4.4,7,4.4-7h3.9V79.4h-3.6V68.6l-4.7,7.1H320l-4.6-7V79.4h-3.6Z"/></g></g></svg>