<?xml version="1.0" encoding="UTF-8" standalone="no"?>
<svg xmlns:dc="http://purl.org/dc/elements/1.1/" xmlns:cc="http://creativecommons.org/ns#" xmlns:rdf="http://www.w3.org/1999/02/22-rdf-syntax-ns#" xmlns:svg="http://www.w3.org/2000/svg" xmlns="http://www.w3.org/2000/svg" xmlns:xlink="http://www.w3.org/1999/xlink" version="1.1" id="svg2" height="630" width="685">
  <metadata id="metadata58">
    <rdf:RDF>
      <cc:Work rdf:about="">
        <dc:format>image/svg+xml</dc:format>
        <dc:type rdf:resource="http://purl.org/dc/dcmitype/StillImage"/>
        <dc:title/>
      </cc:Work>
    </rdf:RDF>
  </metadata>
  <defs id="defs56"/>
  <rect id="rect4" fill="#fec500" height="630" width="685"/>
  <rect id="rect6" fill="#fff" y="25" height="580" width="660"/>
  <g stroke-width="1.5" fill="#fec500" id="anchor">
    <path id="path9" d="m325.777 210.517s-1.05476 118.226-1.05476 126.825c0 8.59835 0 20.4209-9.49345 18.2714-9.49346-2.14956-21.0966-2.14956-37.9739-13.9723-16.8772-11.8226-16.8772-13.9722-16.8772-13.9722l15.8224-5.37394s-15.8224-3.22439-26.3707-10.7479c-10.5483-7.52349-18.987-13.9722-18.987-13.9722s-1.05488 16.1218 4.21942 27.9445c5.27414 11.8226 15.8224 22.5705 15.8224 22.5705v-13.9723s14.7676 13.9723 20.0418 17.1967c5.27417 3.22428 26.3708 11.8226 34.8095 17.1966 8.43858 5.37397 25.3159 20.421 25.3159 20.421s14.7677-17.1966 25.3159-21.4957c10.5483-4.29921 24.2612-10.748 30.5901-15.0471 6.32903-4.29911 23.2063-20.421 23.2063-20.421v18.2714s11.6032-13.9723 14.7676-23.6453c3.16454-9.67306 4.21928-26.8696 4.21928-26.8696s-8.43856 6.44866-15.8224 9.67306c-7.38382 3.22438-28.4805 11.8226-28.4805 11.8226l16.8773 4.29924s-27.4256 21.4957-36.919 25.7949c-9.49342 4.29913-29.5352 6.44866-29.5352-4.29921s1.05477-136.498 1.05477-136.498h-10.5484z" stroke="#fec500"/>
    <rect id="rect11" y="170.75" x="326.832" height="32.2436" width="7.38382" stroke="#fec500"/>
    <path id="path13" d="m274.091 202.994s29.5352-6.44879 56.9608-6.44879 55.906 6.44879 55.906 6.44879v11.8226s-37.9739 5.37395-60.1253 5.37395-53.7963-6.4488-53.7963-6.4488l1.05477-10.7478z" stroke="#fff"/>
    <path id="path15" d="m341.6 197.62c0 7.12305-4.95888 12.8974-11.0758 12.8974-6.11696 0-11.0758-5.7744-11.0758-12.8974 0-7.12306 4.95883-12.8974 11.0758-12.8974 6.11691 0 11.0758 5.77438 11.0758 12.8974zm5.27414-0.5373c0 9.79427-7.55623 17.734-16.8772 17.734-9.32118 0-16.8774-7.9397-16.8774-17.734 0-9.79426 7.55619-17.734 16.8774-17.734 9.32101 0 16.8772 7.93971 16.8772 17.734z" fill-rule="evenodd" stroke="#fff"/>
  </g>
  <g stroke-linejoin="round" stroke="#fff" fill="#003271" id="ribbon">
    <path id="path18" d="m427.626 403.37s-14.0105 12.7921-27.7204 14.623c-13.7099 1.83089-35.2966 8.26704-35.2966 8.26704s-0.56708 19.7161 0.10436 21.4305c0.67147 1.71439 1.09787 2.15585 3.06555 2.22651 6.38975 0.22945 21.9518 0.25307 38.8761-3.68575 22.1359-5.15173 43.8453-18.4699 43.8453-18.4699-5.05939-2.07661-17.3029-3.91336-25.2044-5.87004z"/>
    <path id="path20" d="m386.598 433.819c1.50255 3.99251-22.1736 7.70545-21.8851 13.8714"/>
    <path id="path22" d="m232.374 403.37s14.0105 12.7921 27.7204 14.623c13.7099 1.83089 35.2966 8.26704 35.2966 8.26704s0.56705 19.7161-0.10437 21.4305c-0.67149 1.71439-1.09789 2.15585-3.06556 2.22651-6.38976 0.22945-21.9519 0.25307-38.8761-3.68575-22.1359-5.15173-43.8453-18.4699-43.8453-18.4699 5.05939-2.07661 17.3029-3.91336 25.2044-5.87004z"/>
    <path id="path24" d="m273.402 433.819c-1.50255 3.99251 22.1736 7.70545 21.8851 13.8714"/>
    <path id="path26" d="m277.262 432.989c-2.44328-0.76017-3.8598 0.82961-3.8598 0.82961v-34.1601s1.47993-1.33554 4.06231-0.20952c9.10087 3.96826 32.5541 12.0214 52.536 12.0214s43.435-8.05316 52.5359-12.0214c2.58239-1.12602 4.06231 0.20952 4.06231 0.20952v34.1601s-1.41651-1.58978-3.85979-0.82961c-9.69335 3.01592-35.0588 10.5064-52.7384 10.5064s-43.0451-7.49051-52.7385-10.5064z"/>
  </g>
  <g transform="translate(330,315)" fill="#fec500" id="stars">
    <path d="M0,-245 10.580135,-219.562306 38.042261,-217.36068 17.119017,-199.437694 23.51141,-172.63932 0,-187 -23.51141,-172.63932 -17.119017,-199.437694 -38.042261,-217.36068 -10.580135,-219.562306z" id="star"/>
    <g id="star6">
      <use id="use40" transform="rotate(27.692308)" xlink:href="#star"/>
      <use id="use42" transform="rotate(55.384615)" xlink:href="#star"/>
      <use id="use44" transform="rotate(83.076923)" xlink:href="#star"/>
      <use id="use46" transform="rotate(110.769231)" xlink:href="#star"/>
      <use id="use48" transform="rotate(138.461538)" xlink:href="#star"/>
      <use id="use50" transform="rotate(166.153846)" xlink:href="#star"/>
    </g>
    <use id="use52" transform="scale(-1,1)" xlink:href="#star6"/>
  </g>
  <path d="m 362.29336,423.68145 0,-11.26294 8.12864,-2.20311 8.12864,-2.2031 0,2.26163 0,2.26165 -5.30129,1.43681 -5.30128,1.4368 0,2.26163 0,2.26163 4.00541,-1.08559 4.00542,-1.08558 0,2.26163 0,2.26163 -4.06432,1.10155 -4.06433,1.10156 0,2.2164 0,2.21641 5.3602,-1.45278 5.36019,-1.45277 0,2.26162 0,2.26164 -8.12864,2.2031 -8.12864,2.20311 0,-11.26293 z m -15.69961,0.48939 c 1.9294,-0.61365 2.85642,-1.66916 2.51688,-2.86575 -0.32032,-1.12886 -2.06437,-1.61444 -5.13807,-1.43055 l -1.32532,0.0793 0,2.42365 0,2.42364 1.67874,-0.22137 c 0.92331,-0.12178 1.9438,-0.30576 2.26777,-0.40882 z m -9.36561,3.08488 0,-11.27683 3.68145,-0.31713 c 4.53829,-0.39092 6.06523,-0.38545 8.07996,0.0296 3.50217,0.72151 5.43688,2.60116 5.63728,5.47693 0.13279,1.90523 -0.51319,3.41591 -2.02223,4.72921 -1.72706,1.50303 -4.13443,2.41894 -7.98411,3.03765 l -1.85545,0.29821 0,4.36944 0,4.36942 -2.76845,0.28018 -2.76845,0.28016 0,-11.27682 z m -18.27981,6.89221 c 0.70677,-0.37908 1.41395,-1.49383 1.7326,-2.73117 0.63157,-2.45231 0.46409,-6.59638 -0.34797,-8.61059 -0.79021,-1.96001 -2.49658,-2.62422 -4.02234,-1.56569 -1.30426,0.90484 -1.84046,2.92459 -1.72484,6.49703 0.1254,3.87464 0.82642,5.89974 2.26321,6.53793 0.63955,0.28406 1.42044,0.23664 2.09934,-0.12751 z m -2.74728,4.62091 c -2.53168,-0.41905 -4.83815,-2.15042 -6.01597,-4.51592 -1.00548,-2.01938 -1.33752,-3.74908 -1.33752,-6.96774 0,-3.22325 0.33857,-5.0063 1.3181,-6.94188 1.48168,-2.92783 4.62692,-4.39764 8.65976,-4.04683 4.35942,0.37924 6.88404,2.85972 7.68534,7.55102 0.23936,1.40131 0.2702,4.59568 0.0604,6.24211 -0.56373,4.42108 -2.37791,7.18588 -5.42476,8.26726 -1.45883,0.51776 -3.35284,0.67556 -4.94522,0.41198 z m -34.49882,-19.4936 0,-11.26294 2.76844,0.68122 2.76846,0.68123 0,4.52327 0,4.52326 3.35748,0.82617 3.35748,0.82616 0,-4.52326 0,-4.52327 2.82735,0.69571 2.82736,0.69572 0,11.26294 0,11.26293 -2.82736,-0.69572 -2.82735,-0.69571 0,-4.52326 0,-4.52328 -3.35748,-0.82616 -3.35748,-0.82617 0,4.52328 0,4.52326 -2.76846,-0.68123 -2.76844,-0.68122 0,-11.26293 z" style="fill:#fec500;fill-opacity:1" id="path4197"/>
</svg>