<?xml version="1.0" encoding="UTF-8" standalone="no"?>
<svg
   xmlns:dc="http://purl.org/dc/elements/1.1/"
   xmlns:cc="http://creativecommons.org/ns#"
   xmlns:rdf="http://www.w3.org/1999/02/22-rdf-syntax-ns#"
   xmlns:svg="http://www.w3.org/2000/svg"
   xmlns="http://www.w3.org/2000/svg"
   xmlns:sodipodi="http://sodipodi.sourceforge.net/DTD/sodipodi-0.dtd"
   xmlns:inkscape="http://www.inkscape.org/namespaces/inkscape"
   viewBox="0 0 268.4 110.4"
   version="1.1"
   id="svg20"
   sodipodi:docname="LIFE 97.9.svg"
   inkscape:version="0.92.4 (5da689c313, 2019-01-14)">
  <metadata
     id="metadata24">
    <rdf:RDF>
      <cc:Work
         rdf:about="">
        <dc:format>image/svg+xml</dc:format>
        <dc:type
           rdf:resource="http://purl.org/dc/dcmitype/StillImage" />
      </cc:Work>
    </rdf:RDF>
  </metadata>
  <sodipodi:namedview
     pagecolor="#ffffff"
     bordercolor="#666666"
     borderopacity="1"
     objecttolerance="10"
     gridtolerance="10"
     guidetolerance="10"
     inkscape:pageopacity="0"
     inkscape:pageshadow="2"
     inkscape:window-width="640"
     inkscape:window-height="480"
     id="namedview22"
     showgrid="false"
     inkscape:zoom="1.3040239"
     inkscape:cx="134.2"
     inkscape:cy="55.200001"
     inkscape:window-x="0"
     inkscape:window-y="0"
     inkscape:window-maximized="0"
     inkscape:current-layer="svg20" />
  <defs
     id="defs4">
    <style
       id="style2">.cls-1{fill:#483665;}</style>
  </defs>
  <title
     id="title6">logo-life979</title>
  <g
     id="Layer_2"
     data-name="Layer 2">
    <g
       id="Artwork">
      <path
         d="M171.8,68.2c-1.7,9.2-9.1,15.5-19.1,15.5h-2.6c-4,0-7.1-.9-9.5-2.9s-4-5.5-4-7.4c0-.5.2-.6.7-.9l8.1-3.8a.76.76,0,0,1,.4-.1c.6,0,.7.9,1.3,2.7a4.74,4.74,0,0,0,4.6,3.1h2.6a8,8,0,0,0,7.4-6.3l.9-5V63c0-.4-.2-.7-.6-.7-.7,0-3,1.8-6.6,1.8h-2.6c-7.9,0-13-5.1-13-12.4a16,16,0,0,1,.3-3l1.1-6.3c1.7-9.3,9.2-15.5,19-15.5h2.6c8.7,0,13.9,4.8,13.9,12.3a17.33,17.33,0,0,1-.3,3.2Zm-5.3-26.9a5.27,5.27,0,0,0-5.3-5.3h-2.6a7.56,7.56,0,0,0-7.3,6.3l-1.1,6.3a4.48,4.48,0,0,0-.1,1.1,4.91,4.91,0,0,0,5.2,5.1h2.6a7.51,7.51,0,0,0,7.4-6.2l1.1-6.3A3.4,3.4,0,0,0,166.5,41.3Z"
         id="path8"
         style="fill:#ffffff" />
      <path
         d="M218.5,38.7a23.87,23.87,0,0,1-8.2,14.4c-3.1,2.5-6.9,4.6-10.9,7.1-4.2,2.6-6.6,5-7.1,8.1L190,82a1,1,0,0,1-1.1.9h-8.2c-.5,0-.7-.2-.7-.6V82l2.4-13.7c1.8-10.1,8.8-14.2,18.3-20.1,4.6-2.7,7.1-5.7,7.9-9.5l.2-.9v-.3c0-.3-.2-.6-.7-.6H187.3c-.5,0-.8-.2-.8-.7V36l1.3-7.4c.2-.6.5-.9,1.1-.9h30.8c.5,0,.7.2.7.6v.3Z"
         id="path10"
         style="fill:#ffffff" />
      <path
         d="M210.8,83.7a4.81,4.81,0,0,1-4.9-5,7.1,7.1,0,0,1,7-6.7,4.75,4.75,0,0,1,4.9,5A7.18,7.18,0,0,1,210.8,83.7Z"
         id="path12"
         style="fill:#ffffff" />
      <path
         d="M263.5,68.2c-1.7,9.2-9.1,15.5-19.1,15.5h-2.6c-4,0-7.1-.9-9.5-2.9s-4-5.5-4-7.4c0-.5.2-.6.7-.9l8.1-3.8a.76.76,0,0,1,.4-.1c.6,0,.7.9,1.3,2.7a4.74,4.74,0,0,0,4.6,3.1H246a8,8,0,0,0,7.4-6.3l.9-5V63c0-.4-.2-.7-.6-.7-.7,0-3,1.8-6.6,1.8h-2.6c-7.9,0-13-5.1-13-12.4a16,16,0,0,1,.3-3l1.1-6.3c1.7-9.3,9.2-15.5,19-15.5h2.6c8.7,0,13.9,4.8,13.9,12.3a17.33,17.33,0,0,1-.3,3.2Zm-5.3-26.9a5.27,5.27,0,0,0-5.3-5.3h-2.6a7.56,7.56,0,0,0-7.3,6.3l-1.1,6.3a4.48,4.48,0,0,0-.1,1.1,4.91,4.91,0,0,0,5.2,5.1h2.6a7.51,7.51,0,0,0,7.4-6.2l1.1-6.3A3.4,3.4,0,0,0,258.2,41.3Z"
         id="path14"
         style="fill:#ffffff" />
      <path
         class="cls-1"
         d="M110.5,55.2A55.25,55.25,0,1,1,55.2,0,55.2,55.2,0,0,1,110.5,55.2Zm-89.3-13a14.89,14.89,0,0,1,1.7-.1c.5,0,1.1.1,1.1.8a4.12,4.12,0,0,1-.3,1.6L17.2,67.4a9.82,9.82,0,0,0-.3,2.3,3.18,3.18,0,0,0,3.5,3.4,10.59,10.59,0,0,0,6-2l1.4-4.9a1.47,1.47,0,0,1-.4.2,6.16,6.16,0,0,1-2.4,1,.79.79,0,0,1-.8-.8,7.38,7.38,0,0,1,.2-1.2l8-28.2L22.3,38.4ZM35.9,67a2.57,2.57,0,0,1-.2.5,8,8,0,0,0-.3,2.2c0,.6.2,3.4,3.8,3.4A10.82,10.82,0,0,0,44.9,71l1.3-4.9-.5.3a5.52,5.52,0,0,1-2.3.9.78.78,0,0,1-.8-.8,8.87,8.87,0,0,1,.3-1.4l4.8-16.5L37.5,49.7l-1.1,3.8c.3,0,1.5-.1,1.8-.1.9,0,1.1.6,1.1.8a15.69,15.69,0,0,1-.3,1.6ZM53.7,54h3.9L54.4,70.3c0,.2-.3,1.2-.3,1.3-.5,2.8-1.7,7.7-4.1,7.7-1.4,0-1.3-1.2-1.2-2.3H45.3l-.9,5.6a13.72,13.72,0,0,0,5.1,1c8.4,0,10.9-9.5,11.9-14.1L64.5,54h4l1.3-4.9H65.5l.2-1c.5-2.4,1.6-6.9,4.4-6.9a1.48,1.48,0,0,1,1.6,1.6,6.25,6.25,0,0,1-.1,1.2h3.7l1.4-5.4a15.11,15.11,0,0,0-6.4-1.4c-9.1,0-11,8.8-11.7,11.9H55ZM89.9,64.8c-1.4.9-4.8,2.9-7.8,2.9-1,0-3.8-.4-3.6-4.4,7.8.5,15-3.6,15-9.6,0-4.1-3.4-5.4-6.6-5.4-9.2,0-15.6,8.3-15.6,16.2,0,4,2.2,8.6,8.3,8.6a17.75,17.75,0,0,0,8.9-2.5ZM79.2,59.2c2-5.4,4.9-6.4,6-6.4,1.7,0,1.9,1.2,1.9,1.7C87.1,57.7,82.3,59.3,79.2,59.2ZM51.6,22.4,47.8,36.1a6.92,6.92,0,0,0-2.8-.5c-2.1,0-5.4,1.1-5.4,4.6,0,3.2,3.2,4.5,5.5,4.5a5.75,5.75,0,0,0,4.7-2.2c.8-1.4,4.6-14.9,5.3-17.3a1.39,1.39,0,0,1,.8-.7,14.89,14.89,0,0,1,1.7-.1l.8-2.8Z"
         id="path16" />
    </g>
  </g>
</svg>
