<?xml version="1.0" encoding="UTF-8" standalone="no"?>
<svg width="511px" height="172px" viewBox="0 0 511 172" version="1.1" xmlns="http://www.w3.org/2000/svg" xmlns:xlink="http://www.w3.org/1999/xlink" xmlns:sketch="http://www.bohemiancoding.com/sketch/ns">
    <!-- Generator: Sketch 3.4.3 (16044) - http://www.bohemiancoding.com/sketch -->
    <title>Untitled</title>
    <desc>Created with Sketch.</desc>
    <defs></defs>
    <g id="Page-1" stroke="none" stroke-width="1" fill="none" fill-rule="evenodd" sketch:type="MSPage">
        <g id="radio-nova" sketch:type="MSLayerGroup" fill="#D42531">
            <path d="M64.165,47.051 C49.237,47.051 35.485,51.918 25.136,60.808 L25.136,52.012 L0,52.012 L0,171.91 L25.376,171.91 L25.376,106.432 C25.376,85.939 41.325,70.486 62.475,70.486 C84.645,70.486 97.881,83.836 97.881,106.199 L97.881,171.91 L123.499,171.91 L123.499,106.199 C123.499,70.268 100.208,47.051 64.165,47.051 L64.165,47.051 Z M246.809,119.366 L246.809,99.591 C246.809,97.08 244.772,95.045 242.262,95.045 C239.751,95.045 237.716,97.08 237.716,99.591 L237.716,119.366 C237.716,121.877 239.751,123.912 242.262,123.912 C244.772,123.912 246.809,121.877 246.809,119.366 L246.809,119.366 Z M226.688,83.664 C226.688,81.153 224.651,79.118 222.141,79.118 C219.63,79.118 217.595,81.153 217.595,83.664 L217.595,120.118 C217.595,122.629 219.63,124.664 222.141,124.664 C224.651,124.664 226.688,122.629 226.688,120.118 L226.688,83.664 L226.688,83.664 Z M206.566,73.255 C206.566,70.745 204.53,68.708 202.02,68.708 C199.51,68.708 197.474,70.745 197.474,73.255 L197.474,145.704 C197.474,148.215 199.51,150.25 202.02,150.25 C204.53,150.25 206.566,148.215 206.566,145.704 L206.566,73.255 L206.566,73.255 Z M186.446,94.869 C186.446,92.358 184.411,90.322 181.899,90.322 C179.389,90.322 177.352,92.358 177.352,94.869 L177.352,136.076 C177.352,138.587 179.389,140.622 181.899,140.622 C184.411,140.622 186.446,138.587 186.446,136.076 L186.446,94.869 L186.446,94.869 Z M166.325,102.475 C166.325,99.964 164.29,97.928 161.779,97.928 C159.268,97.928 157.233,99.964 157.233,102.475 L157.233,124.114 C157.233,126.625 159.268,128.66 161.779,128.66 C164.29,128.66 166.325,126.625 166.325,124.114 L166.325,102.475 L166.325,102.475 Z M264.501,109.48 C264.501,143.987 236.528,171.961 202.021,171.961 C167.513,171.961 139.54,143.987 139.54,109.48 C139.54,74.972 167.513,46.999 202.021,46.999 C236.528,46.999 264.501,74.972 264.501,109.48 L264.501,109.48 Z M486.3,109.57 C486.3,104.333 485.292,99.313 483.304,94.646 C481.304,89.965 478.517,85.812 475.022,82.31 C471.526,78.821 467.376,76.036 462.691,74.037 C458.025,72.048 453.005,71.038 447.771,71.038 C442.537,71.038 437.517,72.048 432.85,74.037 C428.159,76.038 424.011,78.823 420.518,82.313 C417.022,85.812 414.236,89.96 412.242,94.646 C410.251,99.307 409.241,104.327 409.241,109.57 C409.241,114.809 410.251,119.831 412.24,124.489 C414.24,129.183 417.026,133.332 420.517,136.82 C424.008,140.314 428.155,143.098 432.85,145.099 C437.51,147.089 442.529,148.098 447.771,148.098 C453.014,148.098 458.033,147.089 462.691,145.101 C467.382,143.1 471.532,140.314 475.024,136.822 C478.521,133.324 481.309,129.203 483.313,124.573 C485.022,120.419 486.036,115.941 486.3,111.333 L486.3,109.57 L486.3,109.57 Z M505.306,85.249 C508.555,92.808 510.202,100.988 510.202,109.57 L510.202,171.91 L486.3,171.91 L486.3,158.718 C482.018,162.07 477.263,164.879 472.092,167.104 C464.53,170.354 456.349,172 447.771,172 C439.188,172 431.009,170.352 423.453,167.104 C415.943,163.875 409.268,159.375 403.616,153.724 C397.964,148.071 393.462,141.395 390.237,133.885 C386.987,126.342 385.341,118.159 385.341,109.57 C385.341,100.98 386.987,92.798 390.237,85.249 C393.466,77.737 397.966,71.064 403.616,65.413 C409.261,59.769 415.935,55.269 423.453,52.034 C431.009,48.786 439.188,47.136 447.771,47.136 C456.349,47.136 464.53,48.786 472.089,52.034 C479.613,55.271 486.286,59.773 491.927,65.413 C497.569,71.054 502.069,77.729 505.306,85.249 L505.306,85.249 Z M387.714,52.012 L336.855,171.91 L314.486,171.91 L263.63,52.012 L289.921,52.012 L325.575,136.198 L361.429,52.012 L387.714,52.012 L387.714,52.012 Z" id="Fill-1" sketch:type="MSShapeGroup"></path>
            <path d="M18.409,17.453 C19.313,17.453 19.793,17.293 20.325,16.495 C20.91,15.591 21.123,13.941 21.123,12.877 C21.123,11.6 20.697,10.323 20.112,9.738 C19.261,8.94 17.931,8.727 15.589,8.727 L9.471,8.727 L9.471,17.453 L18.409,17.453 L18.409,17.453 Z M9.471,36.076 L0,36.076 L0,0.799 L15.43,0.799 C21.336,0.799 25.22,1.757 27.667,4.151 C29.583,6.067 30.7,8.887 30.7,12.398 C30.7,17.4 28.093,21.231 24.848,23.306 L32.775,36.076 L23.357,36.076 C22.506,36.076 22.24,35.969 21.762,35.171 L16.388,26.019 C15.802,25.061 15.695,24.956 14.685,24.956 L9.471,24.956 L9.471,36.076 L9.471,36.076 Z" id="Fill-2" sketch:type="MSShapeGroup"></path>
            <path d="M57.452,9.791 C57.08,11.707 56.016,14.952 54.313,19.848 L53.355,22.827 L61.975,22.827 L60.91,19.848 C58.942,14.633 57.931,11.76 57.506,9.791 L57.452,9.791 L57.452,9.791 Z M52.397,0.799 L61.815,0.799 C62.454,0.799 62.666,0.852 62.933,1.597 L76.98,36.076 L67.934,36.076 C67.296,36.076 67.029,35.969 66.764,35.277 L64.848,30.223 L50.748,30.223 L49.045,35.277 C48.833,35.969 48.566,36.076 47.928,36.076 L39.202,36.076 L52.397,0.799 L52.397,0.799 Z" id="Fill-3" sketch:type="MSShapeGroup"></path>
            <path d="M95.984,27.935 C100.082,27.935 102.955,27.509 104.87,25.807 C106.52,24.37 107.478,22.082 107.478,18.464 C107.478,14.846 106.52,12.505 104.87,11.068 C102.955,9.366 100.082,8.94 95.984,8.94 L92.846,8.94 L92.846,27.935 L95.984,27.935 L95.984,27.935 Z M83.375,36.076 L83.375,0.799 L96.251,0.799 C103.487,0.799 109.127,2.342 112.852,6.067 C115.672,8.887 117.321,13.037 117.321,18.464 C117.321,23.891 115.672,27.988 112.852,30.808 C109.127,34.533 103.487,36.076 96.251,36.076 L83.375,36.076 L83.375,36.076 Z" id="Fill-4" sketch:type="MSShapeGroup"></path>
            <path d="M126.047,0.799 L135.518,0.799 L135.518,36.075 L126.047,36.075 L126.047,0.799 Z" id="Fill-5" sketch:type="MSShapeGroup"></path>
            <path d="M162.439,9.525 C157.118,9.525 154.139,12.877 154.139,18.464 C154.139,24.051 157.118,27.35 162.439,27.35 C167.76,27.35 170.739,24.051 170.739,18.464 C170.739,12.877 167.76,9.525 162.439,9.525 L162.439,9.525 Z M162.439,36.608 C152.543,36.608 144.242,29.478 144.242,18.464 C144.242,7.45 152.543,0.267 162.439,0.267 C172.336,0.267 180.636,7.45 180.636,18.464 C180.636,29.478 172.336,36.608 162.439,36.608 L162.439,36.608 Z" id="Fill-6" sketch:type="MSShapeGroup"></path>
        </g>
    </g>
</svg>