<?xml version="1.0" encoding="utf-8"?>
<!-- Generator: Adobe Illustrator 17.1.0, SVG Export Plug-In . SVG Version: 6.00 Build 0)  -->
<!DOCTYPE svg PUBLIC "-//W3C//DTD SVG 1.1//EN" "http://www.w3.org/Graphics/SVG/1.1/DTD/svg11.dtd">
<svg version="1.1" id="Layer_1" xmlns="http://www.w3.org/2000/svg" xmlns:xlink="http://www.w3.org/1999/xlink" x="0px" y="0px"
	 viewBox="0 0 528 381" enable-background="new 0 0 528 381" xml:space="preserve">
<g>
	<defs>
		<rect id="SVGID_1_" x="-43" y="-137" width="595.28" height="841.89"/>
	</defs>
	<clipPath id="SVGID_2_">
		<use xlink:href="#SVGID_1_"  overflow="visible"/>
	</clipPath>
	<path clip-path="url(#SVGID_2_)" fill="#FFFFFF" d="M54.123,103.072h25.202h447.162v125.334c0,26.703-7.4,41.531-12.182,47.061
		c-10.51,12.15-20.83,17.337-32.82,18.125c-6.943,0.457-25.278,0-25.278,0H1.347V157.167c0-7.556,5.244-30.777,17.781-40.978
		C27.269,109.563,37.552,103.072,54.123,103.072"/>
	<path clip-path="url(#SVGID_2_)" fill-rule="evenodd" clip-rule="evenodd" fill="#FFFFFF" d="M77.399,192.54
		c0-102.377,82.992-185.369,185.371-185.369c102.379,0,185.369,82.992,185.369,185.369c0,102.379-82.99,185.372-185.369,185.372
		C160.391,377.912,77.399,294.92,77.399,192.54"/>
	<path clip-path="url(#SVGID_2_)" fill="none" stroke="#FFFFFF" stroke-width="6.089" stroke-miterlimit="3.864" d="M77.399,192.54
		c0-102.377,82.992-185.369,185.371-185.369c102.379,0,185.369,82.992,185.369,185.369c0,102.379-82.99,185.372-185.369,185.372
		C160.391,377.912,77.399,294.92,77.399,192.54z"/>
	<path clip-path="url(#SVGID_2_)" fill-rule="evenodd" clip-rule="evenodd" d="M80.659,192.54
		c0-100.484,81.457-181.942,181.943-181.942c100.486,0,181.943,81.458,181.943,181.942c0,100.487-81.457,181.944-181.943,181.944
		C162.116,374.484,80.659,293.027,80.659,192.54"/>
	<path clip-path="url(#SVGID_2_)" fill="none" stroke="#000000" stroke-width="5.987" stroke-miterlimit="3.864" d="M80.659,192.54
		c0-100.484,81.457-181.942,181.943-181.942c100.486,0,181.943,81.458,181.943,181.942c0,100.487-81.457,181.944-181.943,181.944
		C162.116,374.484,80.659,293.027,80.659,192.54z"/>
	<path clip-path="url(#SVGID_2_)" fill-rule="evenodd" clip-rule="evenodd" d="M98.038,192.869
		c0-90.976,73.75-164.725,164.726-164.725c90.978,0,164.728,73.749,164.728,164.725c0,90.979-73.75,164.729-164.728,164.729
		C171.788,357.598,98.038,283.848,98.038,192.869"/>
	<path clip-path="url(#SVGID_2_)" fill="none" stroke="#FFFFFF" stroke-width="10.787" stroke-miterlimit="3.864" d="
		M98.038,192.869c0-90.976,73.75-164.725,164.726-164.725c90.978,0,164.728,73.749,164.728,164.725
		c0,90.979-73.75,164.729-164.728,164.729C171.788,357.598,98.038,283.848,98.038,192.869z"/>
	<path clip-path="url(#SVGID_2_)" fill-rule="evenodd" clip-rule="evenodd" d="M263.129,377.307
		c-101.988,0-184.96-82.973-184.96-184.962c0-101.988,82.972-184.961,184.96-184.961c101.988,0,184.963,82.973,184.963,184.961
		C448.092,294.334,365.117,377.307,263.129,377.307"/>
	<path clip-path="url(#SVGID_2_)" fill-rule="evenodd" clip-rule="evenodd" fill="#FFFFFF" d="M263.129,362.938
		c-94.064,0-170.591-76.527-170.591-170.593c0-94.064,76.527-170.591,170.591-170.591c94.064,0,170.594,76.527,170.594,170.591
		C433.723,286.41,357.193,362.938,263.129,362.938"/>
	<path clip-path="url(#SVGID_2_)" fill-rule="evenodd" clip-rule="evenodd" d="M263.129,351.441
		c-87.726,0-159.095-71.371-159.095-159.097S175.403,33.25,263.129,33.25c87.727,0,159.098,71.369,159.098,159.095
		S350.855,351.441,263.129,351.441"/>
	<path clip-path="url(#SVGID_2_)" fill-rule="evenodd" clip-rule="evenodd" fill="#DB0812" d="M124.151,192.344
		c0-76.757,62.222-138.979,138.978-138.979c76.758,0,138.98,62.222,138.98,138.979s-62.223,138.98-138.98,138.98
		C186.373,331.324,124.151,269.101,124.151,192.344"/>
	<path clip-path="url(#SVGID_2_)" d="M57.144,106.472h24.839h440.722v120.864c0,25.754-7.295,40.051-12.008,45.381
		c-10.358,11.72-20.531,16.722-32.35,17.484c-6.842,0.437-24.912,0-24.912,0H5.127V158.638c0-7.287,5.169-29.681,17.526-39.52
		C30.675,112.73,40.811,106.472,57.144,106.472"/>
	<path clip-path="url(#SVGID_2_)" fill="#FFFFFF" d="M36.615,122.069c5.296-3.024,9.681-3.776,12.071-4.158
		c4.678-0.748,9.438-0.849,16.133-0.831l447.4-0.002v102.035c-0.074,10.006,0.912,35.084-12.381,49.024
		c-5.127,5.377-18.633,12.256-30.639,11.381h-18.479H15.612V163.213c-0.002-10.301,2.11-18.393,6.934-27.61
		C23.661,133.468,29.526,126.119,36.615,122.069"/>
	<path clip-path="url(#SVGID_2_)" d="M54.215,124.132h24.871l425.873,0.121l0.078,106.155c-0.09,11.324-3.313,23.779-8.037,30.287
		c-5.119,7.053-15.127,11.566-23.381,11.844h-24.947l-425.8-0.119l-0.077-106.155c0.088-11.326,3.314-23.781,8.039-30.289
		C35.95,128.923,45.959,124.409,54.215,124.132"/>
	<path clip-path="url(#SVGID_2_)" fill="#DB0812" d="M67.229,140.841h23.447l401.471,0.092l0.076,81.994
		c-0.086,8.748-3.125,18.368-7.578,23.397c-4.826,5.445-14.262,8.934-22.043,9.146h-23.516l-401.402-0.091l-0.073-81.995
		c0.084-8.749,3.123-18.369,7.577-23.397C50.012,144.542,59.448,141.054,67.229,140.841"/>
	<path clip-path="url(#SVGID_2_)" fill-rule="evenodd" clip-rule="evenodd" fill="#FFFFFF" d="M59.96,157.329h14.81
		c9.872,0,16.547,0.383,20.028,1.143c3.512,0.765,6.359,2.719,8.548,5.865c2.219,3.116,3.328,8.102,3.329,14.959
		c0,6.261-0.779,10.471-2.335,12.623c-1.558,2.155-4.623,3.446-9.193,3.878c4.14,1.027,6.922,2.402,8.347,4.125
		c1.425,1.722,2.303,3.314,2.635,4.769c0.363,1.426,0.545,5.385,0.546,11.879v21.221H87.244v-26.737
		c0-4.306-0.348-6.974-1.044-8.001c-0.664-1.026-2.435-1.541-5.317-1.543v36.281H59.96V157.329z M80.883,171.096v17.892
		c2.352,0,3.991-0.314,4.92-0.946c0.959-0.662,1.439-2.764,1.441-6.31v-4.424c0-2.551-0.465-4.224-1.391-5.018
		C84.957,171.494,83.301,171.096,80.883,171.096"/>
	<path clip-path="url(#SVGID_2_)" fill-rule="evenodd" clip-rule="evenodd" fill="#FFFFFF" d="M134.157,197.387h-18.835v-4.423
		c0-5.103,0.579-9.028,1.738-11.78c1.193-2.782,3.562-5.233,7.107-7.354c3.545-2.12,8.15-3.18,13.817-3.182
		c6.791,0,11.91,1.212,15.356,3.629c3.444,2.387,5.514,5.334,6.212,8.846c0.696,3.478,1.044,10.67,1.044,21.569v33.099h-19.531
		v-5.865c-1.228,2.354-2.818,4.125-4.772,5.317c-1.921,1.16-4.223,1.738-6.908,1.74c-3.512,0-6.742-0.979-9.69-2.932
		c-2.916-1.988-4.373-6.31-4.373-12.973v-5.416c0-4.935,0.778-8.296,2.336-10.087c1.555-1.788,5.416-3.875,11.579-6.262
		c6.593-2.584,10.121-4.324,10.586-5.219c0.463-0.894,0.693-2.715,0.695-5.465c0-3.446-0.266-5.683-0.795-6.712
		c-0.496-1.059-1.342-1.588-2.535-1.59c-1.358,0-2.203,0.447-2.535,1.342c-0.332,0.863-0.496,3.131-0.496,6.808V197.387z
		 M140.518,206.43c-3.214,2.354-5.086,4.326-5.616,5.916c-0.496,1.59-0.745,3.877-0.745,6.857c0,3.415,0.215,5.618,0.646,6.61
		c0.462,0.994,1.358,1.49,2.683,1.49c1.259,0,2.07-0.379,2.436-1.143c0.397-0.794,0.596-2.845,0.596-6.16V206.43z"/>
	<path clip-path="url(#SVGID_2_)" fill-rule="evenodd" clip-rule="evenodd" fill="#FFFFFF" d="M215.212,157.33v80.461h-20.078
		v-4.771c-1.923,1.988-3.943,3.478-6.063,4.472c-2.122,0.994-4.34,1.491-6.659,1.491c-3.117,0-5.814-0.813-8.101-2.436
		c-2.286-1.654-3.762-3.561-4.422-5.715c-0.633-2.152-0.946-5.664-0.946-10.535v-30.862c0-5.07,0.313-8.663,0.946-10.785
		c0.66-2.12,2.151-3.975,4.472-5.565c2.318-1.624,5.084-2.435,8.298-2.437c2.486,0,4.755,0.448,6.81,1.343
		c2.088,0.895,3.975,2.237,5.665,4.025V157.33H215.212z M195.134,188.441c0-2.418-0.216-4.043-0.646-4.87
		c-0.397-0.829-1.21-1.241-2.435-1.243c-1.192,0-2.006,0.383-2.435,1.142c-0.398,0.732-0.596,2.387-0.596,4.971v32.303
		c0,2.684,0.198,4.457,0.596,5.317c0.397,0.83,1.159,1.242,2.286,1.242c1.292,0,2.153-0.463,2.584-1.391
		c0.43-0.959,0.644-3.279,0.646-6.957V188.441z"/>
	<path clip-path="url(#SVGID_2_)" fill-rule="evenodd" clip-rule="evenodd" fill="#FFFFFF" d="M245.128,167.815h-20.674v-10.486
		h20.674V167.815z M245.128,237.79h-20.674v-65.95h20.674V237.79z"/>
	<path clip-path="url(#SVGID_2_)" fill-rule="evenodd" clip-rule="evenodd" fill="#FFFFFF" d="M299.793,195.002v16.153
		c0,5.929-0.297,10.285-0.893,13.066c-0.598,2.752-1.873,5.338-3.828,7.756c-1.955,2.385-4.473,4.156-7.555,5.314
		c-3.047,1.129-6.559,1.69-10.535,1.692c-4.439,0-8.199-0.481-11.281-1.44c-3.082-0.996-5.484-2.469-7.207-4.424
		c-1.689-1.986-2.898-4.373-3.626-7.156c-0.731-2.816-1.094-7.021-1.094-12.623v-16.898c0-6.128,0.661-10.916,1.988-14.362
		c1.326-3.445,3.711-6.211,7.156-8.299c3.445-2.088,7.852-3.133,13.221-3.133c4.504,0,8.363,0.682,11.578,2.038
		c3.248,1.327,5.748,3.066,7.506,5.22c1.754,2.153,2.947,4.373,3.576,6.658C299.461,186.851,299.793,190.329,299.793,195.002
		 M279.717,190.031c0-3.379-0.184-5.498-0.547-6.361c-0.365-0.895-1.143-1.342-2.336-1.342c-1.193,0-1.988,0.447-2.385,1.342
		c-0.398,0.863-0.598,2.982-0.598,6.361v29.77c0,3.113,0.199,5.152,0.598,6.111c0.397,0.928,1.174,1.391,2.334,1.391
		c1.193,0,1.971-0.43,2.338-1.291c0.396-0.859,0.596-2.717,0.596-5.564V190.031z"/>
	<path clip-path="url(#SVGID_2_)" fill-rule="evenodd" clip-rule="evenodd" fill="#FFFFFF" d="M357.889,192.417h-20.922v-14.015
		c0-4.076-0.232-6.611-0.697-7.603c-0.43-1.028-1.408-1.539-2.932-1.541c-1.723,0-2.816,0.613-3.279,1.839
		c-0.465,1.226-0.697,3.876-0.697,7.952v37.371c0,3.913,0.232,6.461,0.697,7.655c0.463,1.193,1.506,1.789,3.131,1.789
		c1.557,0,2.566-0.596,3.031-1.789c0.498-1.194,0.746-3.991,0.746-8.399v-10.09h20.922v3.131c0,8.317-0.596,14.213-1.789,17.694
		c-1.16,3.478-3.762,6.527-7.801,9.142c-4.012,2.617-8.963,3.926-14.861,3.926c-6.131,0-11.182-1.109-15.158-3.33
		c-3.975-2.217-6.609-5.281-7.902-9.193c-1.291-3.942-1.938-9.854-1.938-17.741v-23.506c0-5.799,0.199-10.139,0.598-13.022
		c0.397-2.916,1.572-5.714,3.527-8.398c1.988-2.684,4.723-4.789,8.201-6.312c3.512-1.555,7.537-2.334,12.076-2.334
		c6.162,0,11.246,1.191,15.256,3.576c4.01,2.386,6.643,5.369,7.904,8.946c1.256,3.545,1.885,9.079,1.887,16.599V192.417z"/>
	<path clip-path="url(#SVGID_2_)" fill-rule="evenodd" clip-rule="evenodd" fill="#FFFFFF" d="M387.508,167.815h-20.676v-10.486
		h20.676V167.815z M387.508,237.79h-20.676v-65.95h20.676V237.79z"/>
	<path clip-path="url(#SVGID_2_)" fill-rule="evenodd" clip-rule="evenodd" fill="#FFFFFF" d="M417.92,163.044v10.389h5.416v10.435
		h-5.416v35.284c0,4.344,0.215,6.76,0.646,7.258c0.464,0.496,2.335,0.744,5.616,0.744v10.637h-8.1c-4.574,0-7.838-0.182-9.789-0.549
		c-1.957-0.397-3.68-1.274-5.172-2.633c-1.49-1.393-2.418-2.965-2.781-4.721c-0.365-1.791-0.547-5.963-0.547-12.523v-33.497h-4.324
		v-10.435h4.324v-10.389H417.92z"/>
	<path clip-path="url(#SVGID_2_)" fill-rule="evenodd" clip-rule="evenodd" fill="#FFFFFF" d="M473.875,171.841l-5.766,47.709
		c-0.895,7.555-1.656,12.709-2.285,15.458c-0.596,2.75-1.607,5.015-3.031,6.808c-1.426,1.789-3.414,3.096-5.965,3.926
		c-2.518,0.859-6.559,1.289-12.125,1.291h-12.176v-10.535c3.113,0,5.117-0.149,6.014-0.448c0.893-0.332,1.34-1.042,1.34-2.136
		c0-0.53-0.414-2.83-1.24-6.908l-10.984-55.165h18.238l6.563,44.481l3.18-44.481H473.875z"/>
</g>
</svg>
