<?xml version="1.0" encoding="UTF-8" standalone="no"?>
<!-- Created with Inkscape (http://www.inkscape.org/) -->
<svg
   xmlns:dc="http://purl.org/dc/elements/1.1/"
   xmlns:cc="http://web.resource.org/cc/"
   xmlns:rdf="http://www.w3.org/1999/02/22-rdf-syntax-ns#"
   xmlns:svg="http://www.w3.org/2000/svg"
   xmlns="http://www.w3.org/2000/svg"
   xmlns:xlink="http://www.w3.org/1999/xlink"
   xmlns:sodipodi="http://sodipodi.sourceforge.net/DTD/sodipodi-0.dtd"
   xmlns:inkscape="http://www.inkscape.org/namespaces/inkscape"
   width="720"
   height="300"
   id="svg2"
   sodipodi:version="0.32"
   inkscape:version="0.45.1"
   version="1.0">
  <g
     inkscape:label="Layer 1"
     inkscape:groupmode="layer"
     id="layer1"
     transform="translate(-318.19187,-209.04168)">
    <path
       id="path4792"
       d="M 110.027,145.508 L 110.863,145.508 L 110.863,146.716 L 110.027,146.716 L 110.027,151.135 L 108.618,151.135 L 108.618,146.716 L 107.897,146.716 L 107.897,145.508 L 108.618,145.508 L 108.618,143.431 L 110.027,143.431 L 110.027,145.508 z M 116.911,149.99 C 116.032,149.99 115.396,149.28 115.396,148.316 C 115.396,147.395 115.979,146.652 116.911,146.652 C 117.801,146.652 118.458,147.32 118.458,148.305 C 118.458,149.333 117.78,149.99 116.911,149.99 M 118.395,145.508 L 118.395,146.122 C 117.886,145.614 117.303,145.36 116.625,145.36 C 115.163,145.36 113.976,146.568 113.976,148.326 C 113.976,150.054 115.226,151.282 116.657,151.282 C 117.366,151.282 117.896,151.028 118.395,150.541 L 118.395,151.134 L 119.804,151.134 L 119.804,145.508 L 118.395,145.508 L 118.395,145.508 z M 114.367,145.508 L 113.933,146.716 C 113.827,146.662 113.668,146.599 113.52,146.599 C 113.118,146.599 112.799,147.065 112.767,147.892 C 112.757,148.2 112.757,148.549 112.757,148.856 L 112.757,151.134 L 111.348,151.134 L 111.348,145.508 L 112.566,145.508 L 112.566,146.218 C 112.831,145.635 113.286,145.36 113.752,145.36 C 114.049,145.36 114.23,145.445 114.367,145.508 M 99.71,157.082 L 96.134,157.082 L 96.134,147.362 L 94.605,147.362 L 96.716,143.446 L 99.71,143.446 L 99.71,157.082 L 99.71,157.082 z M 104.559,149.123 C 104.124,149.788 103.235,151.15 103.235,151.15 L 100.685,151.15 C 100.685,151.15 103.009,147.607 103.289,147.18 C 103.011,146.758 100.826,143.438 100.826,143.438 L 103.367,143.438 C 103.367,143.438 104.15,144.628 104.559,145.251 C 104.85,144.809 105.327,144.083 105.58,143.698 C 103.718,141.506 100.943,140.113 97.842,140.113 C 92.234,140.113 87.689,144.661 87.689,150.271 C 87.689,155.882 92.234,160.429 97.842,160.429 C 103.154,160.429 107.509,156.349 107.955,151.15 L 105.883,151.15 C 105.883,151.15 104.994,149.788 104.559,149.123 M 106.863,145.61 C 107.584,147.007 107.995,148.591 107.995,150.271 C 107.995,150.344 107.991,150.415 107.989,150.488 C 107.306,149.442 106.031,147.49 105.829,147.181 C 105.943,147.007 106.384,146.337 106.863,145.61 M 83.208,148.398 C 82.494,148.398 81.963,147.877 81.963,147.177 C 81.963,146.472 82.494,145.956 83.208,145.956 C 83.927,145.956 84.458,146.472 84.458,147.177 C 84.458,147.877 83.927,148.398 83.208,148.398 M 83.208,145.533 C 82.169,145.533 81.488,146.289 81.488,147.177 C 81.488,148.046 82.151,148.82 83.198,148.82 C 84.283,148.82 84.932,148.041 84.932,147.177 C 84.932,146.285 84.265,145.533 83.208,145.533 M 80.497,145.574 L 80.957,145.574 L 80.957,148.778 L 80.497,148.778 L 80.497,145.574 z M 78.211,148.365 L 77.478,148.365 L 77.478,145.988 L 78.186,145.988 C 79.084,145.988 79.493,146.533 79.493,147.177 C 79.493,147.572 79.253,148.365 78.211,148.365 M 78.262,145.574 L 77.017,145.574 L 77.017,148.778 L 78.266,148.778 C 79.324,148.778 79.966,147.999 79.966,147.177 C 79.966,146.421 79.445,145.574 78.262,145.574 M 73.528,148.778 L 73.502,148.778 L 73.511,148.755 C 73.517,148.763 73.522,148.77 73.528,148.778 M 73.528,148.778 L 73.502,148.778 L 73.511,148.755 C 73.517,148.763 73.522,148.77 73.528,148.778 M 74.554,147.421 L 75.034,146.261 L 75.551,147.421 L 74.554,147.421 z M 74.878,145.556 L 73.511,148.755 C 73.517,148.763 73.522,148.77 73.528,148.778 L 73.502,148.778 L 73.501,148.778 L 73.971,148.778 L 74.376,147.835 L 75.738,147.835 L 76.165,148.778 L 76.635,148.778 L 75.202,145.556 L 74.878,145.556 z M 71.81,146.975 L 71.513,146.975 L 71.513,145.969 L 71.81,145.969 C 72.254,145.969 72.434,146.152 72.438,146.453 C 72.443,146.721 72.302,146.975 71.81,146.975 M 73.09,148.144 C 72.847,147.745 72.668,147.449 72.377,147.257 C 72.72,147.12 72.913,146.843 72.913,146.472 C 72.913,145.918 72.509,145.574 71.861,145.574 L 71.053,145.574 L 71.053,148.778 L 71.513,148.778 L 71.513,147.388 L 71.706,147.388 C 71.941,147.388 72.132,147.463 72.556,148.121 L 72.979,148.778 L 73.502,148.778 L 73.511,148.755 C 73.304,148.469 73.224,148.359 73.09,148.144 M 73.979,143.805 C 73.697,144.087 73.184,144.074 73.184,144.074 L 72.133,144.074 L 72.133,141.282 L 73.04,141.282 C 73.527,141.282 73.742,141.538 73.742,141.538 C 73.742,141.538 73.94,141.708 73.94,142.004 C 73.94,142.298 73.806,142.419 73.768,142.457 C 73.688,142.538 73.583,142.586 73.583,142.586 C 73.583,142.586 73.814,142.635 73.996,142.816 C 74.209,143.03 74.193,143.308 74.193,143.308 C 74.193,143.308 74.209,143.575 73.979,143.805 M 75.171,140.739 L 71.053,140.739 L 71.053,144.614 L 75.171,144.614 L 75.171,140.739 z M 72.873,142.445 L 72.633,142.445 L 72.633,141.723 L 72.964,141.723 C 72.984,141.723 73.011,141.724 73.038,141.726 C 73.104,141.73 73.181,141.741 73.248,141.772 C 73.284,141.787 73.316,141.808 73.344,141.835 C 73.365,141.856 73.382,141.879 73.394,141.903 C 73.419,141.951 73.424,142.003 73.428,142.034 L 73.428,142.065 C 73.428,142.065 73.428,142.08 73.425,142.106 C 73.423,142.134 73.417,142.173 73.4,142.214 C 73.385,142.248 73.365,142.283 73.333,142.314 C 73.294,142.354 73.242,142.381 73.19,142.4 C 73.175,142.405 73.163,142.409 73.15,142.413 C 73.082,142.432 73.013,142.438 72.964,142.442 C 72.946,142.443 72.926,142.444 72.91,142.445 L 72.873,142.445 L 72.873,142.445 z M 73.67,143.172 C 73.677,143.202 73.679,143.231 73.681,143.246 L 73.681,143.265 C 73.681,143.265 73.681,143.273 73.679,143.289 C 73.677,143.323 73.667,143.385 73.629,143.446 C 73.617,143.465 73.603,143.483 73.585,143.502 C 73.538,143.548 73.478,143.58 73.416,143.6 C 73.347,143.623 73.277,143.633 73.223,143.638 C 73.195,143.64 73.17,143.641 73.154,143.642 C 73.138,143.642 73.128,143.643 73.128,143.643 L 72.633,143.643 L 72.633,142.882 L 73.112,142.882 C 73.129,142.882 73.147,142.882 73.164,142.883 C 73.183,142.884 73.202,142.885 73.221,142.888 C 73.251,142.89 73.281,142.895 73.308,142.9 C 73.363,142.911 73.413,142.925 73.458,142.944 C 73.491,142.958 73.522,142.975 73.55,142.995 C 73.565,143.007 73.579,143.02 73.594,143.035 C 73.6,143.041 73.607,143.048 73.612,143.054 C 73.643,143.094 73.661,143.135 73.67,143.172 M 78.725,143.805 C 78.442,144.087 77.929,144.074 77.929,144.074 L 76.878,144.074 L 76.878,141.282 L 77.785,141.282 C 78.272,141.282 78.488,141.538 78.488,141.538 C 78.488,141.538 78.685,141.708 78.685,142.004 C 78.685,142.298 78.551,142.419 78.514,142.457 C 78.432,142.538 78.328,142.586 78.328,142.586 C 78.328,142.586 78.559,142.635 78.742,142.816 C 78.955,143.03 78.939,143.308 78.939,143.308 C 78.939,143.308 78.955,143.575 78.725,143.805 M 79.916,140.739 L 75.798,140.739 L 75.798,144.614 L 79.916,144.614 L 79.916,140.739 z M 77.617,142.445 L 77.379,142.445 L 77.379,141.723 L 77.708,141.723 C 77.73,141.723 77.755,141.724 77.785,141.726 C 77.849,141.73 77.926,141.741 77.994,141.772 C 78.029,141.787 78.061,141.808 78.088,141.835 C 78.111,141.856 78.127,141.879 78.139,141.903 C 78.164,141.951 78.171,142.003 78.172,142.034 C 78.172,142.053 78.172,142.065 78.172,142.065 C 78.172,142.065 78.172,142.08 78.171,142.106 C 78.168,142.134 78.162,142.173 78.145,142.214 C 78.131,142.248 78.111,142.283 78.079,142.314 C 78.038,142.354 77.987,142.381 77.934,142.4 C 77.922,142.405 77.908,142.409 77.894,142.413 C 77.827,142.432 77.758,142.438 77.709,142.442 C 77.691,142.443 77.673,142.444 77.655,142.445 L 77.617,142.445 L 77.617,142.445 z M 78.416,143.172 C 78.423,143.202 78.425,143.231 78.425,143.246 C 78.426,143.257 78.425,143.265 78.425,143.265 C 78.425,143.265 78.425,143.273 78.424,143.289 C 78.422,143.323 78.412,143.385 78.374,143.446 C 78.362,143.465 78.347,143.483 78.329,143.502 C 78.283,143.548 78.223,143.58 78.161,143.6 C 78.092,143.623 78.021,143.633 77.968,143.638 C 77.939,143.64 77.915,143.641 77.898,143.642 C 77.883,143.642 77.873,143.643 77.873,143.643 L 77.379,143.643 L 77.379,142.882 L 77.856,142.882 C 77.874,142.882 77.891,142.882 77.909,142.883 C 77.928,142.884 77.946,142.885 77.966,142.888 C 77.995,142.89 78.026,142.895 78.052,142.9 C 78.108,142.911 78.158,142.925 78.202,142.944 C 78.236,142.958 78.266,142.975 78.294,142.995 C 78.31,143.007 78.325,143.02 78.338,143.035 C 78.345,143.041 78.352,143.048 78.358,143.054 C 78.389,143.094 78.406,143.135 78.416,143.172 M 83.845,143.855 C 83.835,143.859 83.825,143.864 83.817,143.868 C 83.796,143.877 83.773,143.889 83.755,143.898 C 83.732,143.908 83.71,143.918 83.689,143.926 C 83.655,143.942 83.625,143.954 83.6,143.963 C 83.582,143.97 83.566,143.976 83.554,143.981 L 83.531,143.988 C 83.506,143.997 83.482,144.006 83.455,144.013 C 83.432,144.02 83.409,144.027 83.386,144.032 C 83.354,144.041 83.32,144.049 83.284,144.057 C 83.261,144.061 83.237,144.067 83.213,144.071 C 83.174,144.078 83.135,144.084 83.092,144.089 C 83.064,144.092 83.037,144.096 83.007,144.098 L 82.992,144.1 C 82.918,144.106 82.838,144.109 82.751,144.109 L 82.717,144.109 C 82.694,144.108 82.67,144.108 82.646,144.106 C 82.598,144.104 82.552,144.1 82.507,144.094 C 82.462,144.089 82.417,144.082 82.374,144.074 C 82.323,144.064 82.273,144.051 82.225,144.038 C 82.197,144.03 82.171,144.022 82.145,144.012 C 82.118,144.003 82.092,143.994 82.068,143.985 C 82.002,143.958 81.941,143.929 81.887,143.898 C 81.86,143.883 81.835,143.866 81.809,143.851 C 81.785,143.836 81.765,143.822 81.743,143.806 C 81.727,143.794 81.71,143.781 81.694,143.769 C 81.677,143.755 81.661,143.742 81.647,143.73 C 81.624,143.711 81.606,143.692 81.587,143.674 L 81.576,143.664 C 81.555,143.642 81.533,143.619 81.512,143.594 C 81.493,143.573 81.474,143.553 81.457,143.53 C 81.441,143.509 81.424,143.487 81.408,143.463 C 81.396,143.446 81.384,143.427 81.373,143.41 C 81.358,143.385 81.344,143.36 81.33,143.335 C 81.307,143.292 81.285,143.247 81.265,143.2 C 81.252,143.169 81.241,143.139 81.23,143.108 C 81.221,143.082 81.214,143.055 81.206,143.03 C 81.202,143.008 81.196,142.987 81.192,142.967 C 81.19,142.956 81.188,142.947 81.186,142.936 C 81.182,142.912 81.177,142.886 81.174,142.859 L 81.173,142.843 C 81.17,142.821 81.167,142.799 81.165,142.777 C 81.165,142.755 81.165,142.734 81.165,142.712 C 81.165,142.683 81.165,142.653 81.167,142.625 C 81.17,142.587 81.174,142.55 81.178,142.513 C 81.193,142.4 81.22,142.292 81.259,142.192 C 81.291,142.112 81.328,142.036 81.372,141.967 C 81.378,141.955 81.385,141.944 81.393,141.932 C 81.405,141.914 81.415,141.897 81.429,141.881 C 81.445,141.859 81.46,141.838 81.477,141.816 C 81.493,141.797 81.51,141.778 81.527,141.76 C 81.542,141.74 81.561,141.722 81.578,141.706 C 81.598,141.687 81.619,141.667 81.641,141.647 C 81.664,141.627 81.69,141.606 81.716,141.585 C 81.729,141.576 81.741,141.567 81.753,141.558 C 81.769,141.546 81.785,141.537 81.8,141.526 C 81.827,141.508 81.855,141.491 81.884,141.474 C 81.915,141.457 81.946,141.44 81.979,141.424 C 82.018,141.404 82.06,141.386 82.103,141.369 C 82.186,141.337 82.276,141.31 82.374,141.289 C 82.389,141.286 82.406,141.282 82.423,141.28 C 82.434,141.277 82.446,141.275 82.457,141.273 L 82.484,141.269 L 82.507,141.265 L 82.527,141.263 C 82.552,141.259 82.575,141.257 82.6,141.255 C 82.616,141.254 82.633,141.252 82.65,141.251 C 82.679,141.25 82.709,141.248 82.741,141.247 C 82.757,141.247 82.768,141.246 82.785,141.246 C 82.822,141.246 82.86,141.248 82.899,141.25 C 82.92,141.251 82.943,141.252 82.965,141.255 C 82.997,141.258 83.029,141.262 83.06,141.266 L 83.082,141.269 C 83.101,141.272 83.12,141.275 83.138,141.279 C 83.16,141.282 83.181,141.286 83.203,141.291 C 83.224,141.295 83.244,141.299 83.265,141.304 C 83.277,141.308 83.291,141.31 83.302,141.313 C 83.322,141.318 83.341,141.324 83.361,141.328 C 83.375,141.332 83.391,141.336 83.406,141.341 L 83.42,141.344 C 83.437,141.349 83.452,141.355 83.469,141.358 C 83.489,141.365 83.509,141.372 83.529,141.379 C 83.547,141.384 83.563,141.39 83.58,141.396 C 83.601,141.403 83.62,141.41 83.638,141.416 C 83.672,141.428 83.701,141.439 83.726,141.448 C 83.782,141.469 83.814,141.482 83.814,141.482 L 83.814,142.002 L 83.76,141.973 C 83.74,141.961 83.716,141.948 83.687,141.933 C 83.671,141.925 83.653,141.915 83.634,141.905 C 83.611,141.896 83.587,141.883 83.562,141.871 C 83.531,141.857 83.499,141.843 83.465,141.829 C 83.44,141.82 83.414,141.809 83.389,141.799 C 83.389,141.799 83.371,141.794 83.343,141.783 C 83.326,141.778 83.303,141.771 83.278,141.764 C 83.261,141.758 83.242,141.752 83.223,141.748 C 83.191,141.739 83.156,141.731 83.119,141.722 C 83.094,141.718 83.068,141.714 83.041,141.71 C 83.011,141.705 82.977,141.701 82.946,141.698 C 82.928,141.696 82.91,141.696 82.891,141.694 C 82.865,141.692 82.839,141.691 82.812,141.691 C 82.799,141.69 82.788,141.69 82.774,141.69 C 82.737,141.69 82.7,141.692 82.662,141.696 C 82.641,141.697 82.621,141.699 82.601,141.702 C 82.58,141.705 82.56,141.708 82.539,141.711 C 82.522,141.715 82.503,141.718 82.484,141.722 C 82.466,141.727 82.446,141.732 82.428,141.737 C 82.408,141.743 82.388,141.748 82.37,141.755 C 82.351,141.761 82.334,141.768 82.315,141.775 C 82.298,141.782 82.28,141.789 82.262,141.797 C 82.15,141.848 82.041,141.921 81.943,142.018 C 81.937,142.025 81.931,142.031 81.924,142.038 C 81.912,142.051 81.9,142.065 81.889,142.078 C 81.881,142.089 81.872,142.099 81.864,142.111 C 81.842,142.14 81.822,142.17 81.805,142.2 C 81.797,142.213 81.789,142.227 81.782,142.241 C 81.773,142.259 81.764,142.277 81.756,142.295 C 81.75,142.308 81.745,142.32 81.741,142.333 C 81.732,142.354 81.727,142.373 81.72,142.391 C 81.713,142.412 81.708,142.432 81.704,142.452 C 81.696,142.481 81.691,142.51 81.687,142.536 C 81.681,142.58 81.677,142.619 81.677,142.649 L 81.677,142.682 C 81.677,142.696 81.677,142.715 81.677,142.735 C 81.679,142.75 81.679,142.765 81.681,142.782 C 81.686,142.825 81.693,142.876 81.706,142.93 C 81.712,142.949 81.717,142.97 81.724,142.989 C 81.732,143.015 81.741,143.042 81.752,143.068 C 81.759,143.083 81.766,143.1 81.773,143.115 C 81.783,143.134 81.793,143.152 81.804,143.17 C 81.811,143.183 81.819,143.196 81.827,143.208 C 81.836,143.221 81.844,143.235 81.853,143.247 C 81.864,143.261 81.875,143.275 81.885,143.287 C 81.906,143.312 81.927,143.336 81.951,143.359 L 81.957,143.365 L 81.963,143.37 L 81.972,143.378 L 81.989,143.394 C 82.002,143.404 82.016,143.416 82.031,143.428 C 82.045,143.44 82.061,143.451 82.075,143.46 C 82.088,143.47 82.101,143.478 82.113,143.487 C 82.127,143.493 82.138,143.501 82.15,143.508 C 82.175,143.522 82.201,143.536 82.227,143.548 C 82.24,143.554 82.252,143.558 82.263,143.564 C 82.271,143.567 82.278,143.57 82.285,143.572 C 82.296,143.577 82.307,143.582 82.319,143.586 C 82.393,143.613 82.47,143.632 82.546,143.645 C 82.594,143.652 82.64,143.659 82.687,143.662 C 82.726,143.664 82.765,143.666 82.802,143.666 C 82.82,143.666 82.838,143.664 82.859,143.664 C 82.889,143.662 82.923,143.66 82.959,143.657 C 82.984,143.654 83.008,143.651 83.034,143.647 C 83.045,143.645 83.056,143.644 83.067,143.642 C 83.16,143.624 83.265,143.599 83.381,143.557 C 83.441,143.536 83.505,143.51 83.569,143.48 C 83.606,143.461 83.646,143.441 83.683,143.422 C 83.718,143.402 83.753,143.381 83.789,143.359 L 83.825,143.338 C 83.831,143.336 83.838,143.331 83.845,143.327 L 83.845,143.855 L 83.845,143.855 z M 84.662,140.739 L 80.543,140.739 L 80.543,144.614 L 84.662,144.614 L 84.662,140.739 z "
       clip-path="url(#SVGID_165_)"
       transform="matrix(14.766686,0,0,14.766686,-731.02547,-1859.963)" />
  </g>
</svg>
