<?xml version="1.0" encoding="utf-8"?>
<!-- Generator: Adobe Illustrator 19.2.1, SVG Export Plug-In . SVG Version: 6.00 Build 0)  -->
<svg version="1.1" xmlns="http://www.w3.org/2000/svg" xmlns:xlink="http://www.w3.org/1999/xlink" x="0px" y="0px"
	 viewBox="0 0 904.3 482.1" style="enable-background:new 0 0 904.3 482.1;" xml:space="preserve">
<style type="text/css">
	.st0{fill:#FFFFFF;}
	.st1{fill:#EF7D00;}
</style>
<g id="Outline-White-sep-50ptKontur">
</g>
<g id="Outline-Black-sep-250ptKontur">
</g>
<g id="FM">
</g>
<g id="Logo-Orange-neu">
	<g>
		<g>
			<g>
				<path class="st0" d="M454.9,130.5L454.9,130.5L454.9,130.5c-16.6,0-32,2.9-46,8.7c-14.4,6-27.2,14.9-38,26.7
					c-10.9,11.8-19.1,26.2-24.3,42.8c-4.8,15.1-7.2,32.3-7.2,51.2c0,16.4,1.8,31.7,5.5,45.4c0.9,3.4,1.9,6.7,3.1,9.9l-2.7,54.6
					c-0.3,5-0.4,8.8-0.4,11.9c0,15,3,29.1,8.8,41.6c6,12.8,14.9,24.1,26.5,33.4c11.8,9.5,26.8,16.1,46,20.3
					c16.2,3.5,35,5.3,57.6,5.3c19.8,0,38-1.9,54-5.5c18.5-4.3,34.3-11.6,47.1-21.7l0,0l0,0l0,0c13.3-10.6,23.7-25.2,30.2-42.2
					c6.1-16.2,6.8-33,6.9-47.5l0-0.1v0v0l0-8.8V144.6v-10h-10H489.4C481.8,132.6,470,130.5,454.9,130.5L454.9,130.5z"/>
			</g>
		</g>
		<g>
			<g>
				<path class="st0" d="M379.8,134.6h-10H243.4h-10v10v235.3v10h10h126.4h10v-10V144.6V134.6L379.8,134.6z"/>
			</g>
		</g>
		<g>
			<g>
				<path class="st0" d="M306.6,32.8c-40.7,0-73.7,33.1-73.7,73.7c0,40.7,33.1,73.7,73.7,73.7c40.7,0,73.7-33.1,73.7-73.7
					C380.3,65.9,347.2,32.8,306.6,32.8L306.6,32.8z"/>
			</g>
		</g>
		<g>
			<g>
				<path class="st0" d="M141.7,64.2h-10H10H0v10v305.8v10h10h120.4c7.2,2,17.9,4.2,30.7,4.2c21.2,0,40.9-5.7,58.5-16.9
					c17.8-11.4,31.7-28.2,41.2-50c8.7-19.8,13.1-42.5,13.1-67.5c0-19.3-2.6-36.9-7.7-52.4c-5.2-15.8-13.2-29.6-23.6-41
					c-10.7-11.8-23.1-20.8-37-26.8c-13.7-6-28.8-9-44.9-9c-6.5,0-12.9,0.5-19.1,1.5V74.2V64.2L141.7,64.2z"/>
			</g>
		</g>
		<g>
			<path class="st0" d="M726.8,0c-12,0-24.1,1.2-35.8,3.6c-11.4,2.3-22.6,5.8-33.3,10.3c-10.5,4.4-20.7,10-30.1,16.4
				c-9.4,6.3-18.2,13.6-26.3,21.7c-8,8-15.3,16.9-21.7,26.3c-6.4,9.5-11.9,19.6-16.4,30.1c-4.5,10.7-8,21.9-10.3,33.3
				c-2.4,11.7-3.6,23.7-3.6,35.8c0,12,1.2,24.1,3.6,35.8c2.3,11.4,5.8,22.6,10.3,33.3c4.4,10.5,10,20.7,16.4,30.1
				c6.3,9.4,13.6,18.2,21.7,26.3c8,8,16.9,15.3,26.3,21.7c9.5,6.4,19.6,11.9,30.1,16.4c10.7,4.5,21.9,8,33.3,10.3
				c11.7,2.4,23.7,3.6,35.8,3.6c12,0,24.1-1.2,35.8-3.6c11.4-2.3,22.6-5.8,33.3-10.3c10.5-4.4,20.7-10,30.1-16.4
				c9.4-6.3,18.2-13.6,26.3-21.7c8-8,15.3-16.9,21.7-26.3c6.4-9.5,11.9-19.6,16.4-30.1c4.5-10.7,8-21.9,10.3-33.3
				c2.4-11.7,3.6-23.7,3.6-35.8c0-12-1.2-24.1-3.6-35.8c-2.3-11.4-5.8-22.6-10.3-33.3c-4.4-10.5-10-20.7-16.4-30.1
				c-6.3-9.4-13.6-18.2-21.7-26.3c-8-8-16.9-15.3-26.3-21.7c-9.5-6.4-19.6-11.9-30.1-16.4c-10.7-4.5-21.9-8-33.3-10.3
				C750.9,1.2,738.9,0,726.8,0L726.8,0z"/>
		</g>
		<g>
			<path d="M483.5,472.1c-21.8,0-39.9-1.6-55.4-5c-17.6-3.8-31.3-9.8-41.8-18.3c-10.4-8.3-18.3-18.4-23.7-29.8
				c-5.2-11.2-7.9-23.8-7.9-37.4c0-2.9,0.1-6.5,0.4-11.4l2.8-56.6c-1.3-3.6-2.5-7.2-3.5-11c-3.4-12.8-5.2-27.2-5.2-42.8
				c0-17.8,2.3-34,6.7-48.1c4.8-15.2,12.3-28.3,22.2-39c9.9-10.7,21.5-18.8,34.5-24.2c12.7-5.3,26.9-7.9,42.1-7.9
				c15.4,0,26.9,2.4,33.2,4.2h123.6v211.5l0,8.8v0.1c-0.1,13.6-0.7,29.4-6.2,44c-5.8,15.4-15.2,28.5-27,37.9l0,0
				c-11.6,9.2-26.2,15.9-43.2,19.8C520,470.3,502.6,472.1,483.5,472.1z"/>
		</g>
		<g>
			<path d="M369.8,379.9H243.4V144.6h126.4V379.9z"/>
		</g>
		<g>
			<path d="M306.6,170.3c-35.1,0-63.7-28.6-63.7-63.7c0-35.1,28.6-63.7,63.7-63.7s63.7,28.6,63.7,63.7
				C370.3,141.7,341.7,170.3,306.6,170.3z"/>
		</g>
		<g>
			<path d="M161.1,384.1c-12.8,0-23.3-2.4-29.3-4.2H10V74.2h121.7v70.2c9.1-2.6,18.9-3.9,29.1-3.9c14.7,0,28.4,2.7,40.9,8.2
				c12.6,5.5,23.9,13.7,33.6,24.4c19,20.9,28.7,50.1,28.7,86.7c0,23.6-4.1,45-12.2,63.5c-8.7,19.9-21.3,35.3-37.4,45.6
				C198.3,378.9,180.4,384.1,161.1,384.1z"/>
		</g>
		<g>
			<circle cx="726.8" cy="177.5" r="167.5"/>
		</g>
		<g>
			<path class="st0" d="M626,240.3h-39.3V81.8h107.7v34.7h-68.8v27.8h58.7v34.7H626V240.3z"/>
		</g>
		<g>
			<path class="st0" d="M867,240.3h-39v-75.8l-22.5,39.1h-24.9l0,0l-22.4-39.1v75.8h-39v0l0.1-158.4h38.3l0,0l35.6,69.8l35.6-69.9
				H867V240.3z"/>
		</g>
		<path class="st0" d="M133.9,282.1c-3.3,0-6-7.2-6-19.4c0-12.6,2.7-19.4,6-19.4c3.3,0,6,2.3,6,19.4
			C139.9,280.5,137.3,282.1,133.9,282.1z"/>
		<path class="st0" d="M484.6,282.1c3.3,0,6-7.2,6-19.4c0-12.6-2.7-19.4-6-19.4c-3.3,0-6,2.3-6,19.4
			C478.6,280.5,481.3,282.1,484.6,282.1z"/>
		<rect x="271.1" y="169.6" class="st1" width="71" height="185.3"/>
		<path class="st1" d="M306.6,67.8c-21.4,0-38.7,17.4-38.7,38.7c0,21.4,17.4,38.7,38.7,38.7s38.7-17.4,38.7-38.7
			C345.3,85.2,327.9,67.8,306.6,67.8z"/>
		<g>
			<path class="st1" d="M586.6,356.1V169.6h-65.9v29.4c-8.7-12-18-20.6-28-25.8c-10-5.2-22.6-7.8-38-7.8c-24,0-43.4,8-58.3,24.1
				c-14.9,16.1-22.3,39.5-22.3,70.2c0,26.9,5.8,48.5,17.3,64.8c16.2,23,37.5,34.5,63.9,34.5c13.5,0,26-3.1,37.7-9.3
				c7.4-4,14.9-10.3,22.3-19.1v29.9c0,14.5-2.7,24.6-8.1,30.4c-5.4,5.8-13.5,8.7-24.4,8.7c-8.4,0-15.4-1.9-21-5.8
				c-3.8-2.6-6.7-7.3-8.5-14.1l-73.3-8.4c-0.2,4.2-0.4,7.6-0.4,10c0,19.9,7.4,35.8,22.2,47.7c14.8,11.9,42,17.8,81.6,17.8
				c17.3,0,32.7-1.6,46.1-4.6c13.4-3.1,24.5-8.1,33.2-15c8.7-6.9,15.2-16.6,19.2-27.2c3.9-10.4,4.5-22.8,4.6-35.4L586.6,356.1z
				 M506.4,296.4c-6,7.2-13.6,10.7-22.8,10.7c-8.5,0-15.6-3.5-21.4-10.6c-5.8-7-8.6-18.9-8.6-35.5c0-14.7,2.8-25.4,8.5-32.3
				c5.6-6.9,12.5-10.3,20.5-10.3c9.7,0,17.5,3.6,23.6,10.7c6.1,7.2,9.2,18,9.2,32.5C515.3,277.7,512.3,289.2,506.4,296.4z"/>
			<path class="st1" d="M160.8,165.5c-10.9,0-20.9,1.9-29.9,5.6c-9,3.7-17.1,9.3-24.2,16.8V99.2H35v255.8h66.5v-27.4
				c9.2,11.5,17.7,19.4,25.5,23.6c10.4,5.3,21.8,8,34.2,8c14.5,0,27.8-3.8,39.7-11.4c11.9-7.6,21.3-19.1,28-34.5
				c6.8-15.4,10.1-33.2,10.1-53.5c0-30.4-7.4-53.6-22.2-69.9C202,173.6,183.4,165.5,160.8,165.5z M156.3,296.6
				c-5.8,7-12.9,10.6-21.4,10.6c-9.2,0-16.8-3.6-22.8-10.7c-6-7.2-9-18.7-9-34.6c0-14.5,3.1-25.4,9.2-32.5
				c6.1-7.2,14-10.7,23.6-10.7c8,0,14.9,3.4,20.5,10.3c5.6,6.9,8.5,17.6,8.5,32.3C165,277.7,162.1,289.5,156.3,296.6z"/>
		</g>
	</g>
</g>
</svg>
