<?xml version="1.0" encoding="UTF-8"?>
<!-- Generator: Adobe Illustrator 15.1.0, SVG Export Plug-In . SVG Version: 6.00 Build 0)  -->
<svg version="1.2" baseProfile="tiny" id="Ebene_1" xmlns="http://www.w3.org/2000/svg" xmlns:xlink="http://www.w3.org/1999/xlink" x="0px" y="0px" width="453px" height="413px" viewBox="0 0 453 413" xml:space="preserve">
<g>
	<path fill-rule="evenodd" d="M49.861,318.295c4.061,0,4.517,2.875,3.33,9.443c-1.186,6.569-2.6,9.444-6.66,9.444   c-0.273,0-0.867,0-0.867,0l3.33-18.888H49.861L49.861,318.295z M60.674,328.423c1.733-9.899-0.776-16.424-10.903-16.424h-6.98   l-5.565,31.479c0,0,7.071,0,7.892,0C55.245,343.478,58.94,338.322,60.674,328.423L60.674,328.423z"/>
	<path fill-rule="evenodd" d="M80.137,334.582l1.277-7.072c0.958-5.291-1.688-7.298-7.026-7.298c-6.614,0-9.397,3.01-10.948,11.86   c-1.734,9.945,1.779,11.861,6.751,11.861c3.193,0,6.067-0.775,7.938-1.322l1.05-6.067c-2.829,1.14-4.927,1.733-6.524,1.733   c-2.099,0-2.919-1.141-2.51-3.695H80.137L80.137,334.582z M74.435,329.791h-3.103c0.821-3.832,1.186-4.516,2.509-4.516   C75.027,325.275,75.119,325.914,74.435,329.791L74.435,329.791z"/>
	<path d="M92.482,322.994c-0.547-1.141-1.368-1.962-2.098-2.327h-3.969c0.229,1.324-0.091,4.106-0.501,6.388l-2.874,16.423h7.344   l2.691-15.191c2.738,1.186,2.965,4.744,2.965,4.744h2.327l2.189-12.409c-0.365-0.228-1.049-0.409-1.916-0.409   C96.771,320.212,94.445,321.534,92.482,322.994L92.482,322.994z"/>
	<path fill-rule="evenodd" d="M114.22,341.334c1.506,1.505,3.284,2.6,5.109,2.6c4.334,0,7.117-2.737,8.713-11.861   s-0.593-11.86-4.517-11.86c-1.186,0-2.737,0.547-4.151,1.368l1.688-9.581h-7.345l-4.425,25.092   c-0.411,2.281-1.095,5.063-1.779,6.387h3.969C112.258,343.113,113.308,342.383,114.22,341.334L114.22,341.334z M116.638,336.908   l1.734-9.672l0.501-0.364c0.502-0.365,1.186-0.64,1.552-0.64c0.684,0,1.186,0.184,0.182,5.84c-1.003,5.657-1.551,5.84-2.235,5.84   c-0.366,0-0.959-0.319-1.324-0.639L116.638,336.908L116.638,336.908z"/>
	<path fill-rule="evenodd" d="M148.007,334.582l1.277-7.072c0.958-5.291-1.688-7.298-7.026-7.298c-6.615,0-9.397,3.01-10.949,11.86   c-1.734,9.945,1.779,11.861,6.752,11.861c3.193,0,6.067-0.775,7.938-1.322l1.05-6.067c-2.829,1.14-4.927,1.733-6.524,1.733   c-2.099,0-2.919-1.141-2.509-3.695H148.007L148.007,334.582z M142.304,329.791h-3.103c0.821-3.832,1.186-4.516,2.51-4.516   C142.897,325.275,142.988,325.914,142.304,329.791L142.304,329.791z"/>
	<path d="M168.884,321.489c-1.78-0.594-4.973-1.277-6.98-1.277c-4.973,0-8.486,2.28-9.307,7.024   c-1.003,5.658,1.369,7.665,5.793,7.665c1.825,0,2.829,0.365,2.601,1.597c-0.274,1.46-1.642,1.688-3.194,1.688   c-2.144,0-3.923-0.364-5.794-1.141l-1.049,5.748c1.825,0.594,3.923,1.141,6.935,1.141c5.93,0,9.033-2.326,9.945-7.481   c1.003-5.794-1.733-7.664-6.478-7.664c-1.505,0-2.189-0.229-1.962-1.414c0.229-1.187,1.232-1.46,2.601-1.46   c2.281,0,3.969,0.593,5.885,1.277L168.884,321.489L168.884,321.489z"/>
	<path d="M182.099,342.793l0.867-4.972c-0.457,0.183-1.004,0.364-1.597,0.364c-1.916,0-2.326-0.273-2.053-1.87l1.733-9.945h3.923   l1.003-5.703h-3.923l0.913-5.2h-7.345l-0.913,5.2h-2.327l-1.003,5.703h2.327l-1.962,11.086c-0.913,5.063,0.867,6.25,5.247,6.25   C179.726,343.706,181.231,343.158,182.099,342.793L182.099,342.793z"/>
	<path fill-rule="evenodd" d="M203.159,334.582l1.278-7.072c0.958-5.291-1.688-7.298-7.026-7.298c-6.615,0-9.398,3.01-10.949,11.86   c-1.734,9.945,1.779,11.861,6.751,11.861c3.193,0,6.067-0.775,7.938-1.322l1.05-6.067c-2.829,1.14-4.927,1.733-6.524,1.733   c-2.099,0-2.92-1.141-2.51-3.695H203.159L203.159,334.582z M197.457,329.791h-3.103c0.821-3.832,1.186-4.516,2.509-4.516   C198.05,325.275,198.141,325.914,197.457,329.791L197.457,329.791z"/>
	<path fill-rule="evenodd" d="M238.215,321.625c0,0-1.46,6.022-1.734,7.573l-2.509,14.279h6.296l5.565-31.479h-7.71l-6.843,14.918   c-1.14,2.51-1.779,5.155-1.779,5.155s0.274-2.691,0-5.155l-1.551-14.918h-7.163l-5.565,31.479h5.474l2.509-14.279   c0.183-1.095,0.913-7.573,0.913-7.573s0.046,6.342,0.137,7.573l1.323,14.279h3.514l6.341-14.279   C236.116,327.602,238.215,321.625,238.215,321.625L238.215,321.625z"/>
	<path d="M259.509,343.523h5.84l1.003-5.702h-2.691l3.011-17.154h-7.345l-2.737,15.507l-0.548,0.55   c-0.729,0.731-1.322,1.052-1.732,1.052c-0.503,0-0.64-0.366-0.456-1.556l2.736-15.553h-7.345l-2.829,16.147   c-0.729,4.063-0.729,7.165,4.334,7.165c1.779,0,3.285-0.502,5.247-1.825l1.597-1.094   C258.003,342.291,258.824,343.113,259.509,343.523L259.509,343.523z"/>
	<path d="M285.64,321.489c-1.778-0.594-4.973-1.277-6.979-1.277c-4.973,0-8.485,2.28-9.307,7.024   c-1.004,5.658,1.368,7.665,5.793,7.665c1.826,0,2.829,0.365,2.601,1.597c-0.273,1.46-1.642,1.688-3.193,1.688   c-2.144,0-3.923-0.364-5.794-1.141l-1.049,5.748c1.825,0.594,3.924,1.141,6.935,1.141c5.931,0,9.033-2.326,9.945-7.481   c1.003-5.794-1.733-7.664-6.479-7.664c-1.505,0-2.189-0.229-1.962-1.414c0.229-1.187,1.232-1.46,2.601-1.46   c2.281,0,3.969,0.593,5.886,1.277L285.64,321.489L285.64,321.489z"/>
	<path fill-rule="evenodd" d="M296.163,337.775l3.011-17.108h-10.037l-1.003,5.703h2.691l-3.011,17.107h10.036l1.004-5.702H296.163   L296.163,337.775z M293.197,314.874c-0.364,1.87,0.867,3.33,2.737,3.33s3.649-1.46,3.969-3.33c0.32-1.871-0.957-3.331-2.828-3.331   C295.205,311.543,293.562,313.003,293.197,314.874L293.197,314.874z"/>
	<path d="M312.668,343.478h7.254l1.003-5.702h-2.691l-2.008-7.893l7.711-9.216h-7.3l-4.151,4.973   c-1.004,1.187-2.281,3.239-2.281,3.239s0.502-2.145,0.685-3.147l2.418-13.732h-6.889l-5.565,31.479h6.888l0.776-4.334l2.646-3.285   L312.668,343.478L312.668,343.478z"/>
	<path d="M341.852,343.478h9.854l1.004-5.702h-2.692l1.825-10.401c0.729-4.061,0.547-7.162-3.741-7.162   c-1.688,0-3.74,0.911-6.021,2.463c-0.411-1.505-1.506-2.463-3.878-2.463c-1.871,0-4.151,1.095-6.798,2.964   c-0.547-1.231-1.322-2.098-2.099-2.509h-3.878c0.229,1.324-0.091,4.106-0.501,6.388l-2.874,16.423h7.162l2.737-15.647l0.593-0.456   c0.594-0.457,1.277-0.821,1.643-0.821c0.502,0,0.73,0.228,0.502,1.414l-2.737,15.511h7.162l2.783-15.693l0.548-0.41   c0.593-0.457,1.277-0.821,1.642-0.821c0.502,0,0.73,0.228,0.502,1.414L341.852,343.478L341.852,343.478z"/>
	<path fill-rule="evenodd" d="M363.506,337.775l3.011-17.108h-10.037l-1.003,5.703h2.691l-3.011,17.107h10.036l1.004-5.702H363.506   L363.506,337.775z M360.54,314.874c-0.364,1.87,0.867,3.33,2.737,3.33s3.649-1.46,3.97-3.33c0.319-1.871-0.958-3.331-2.829-3.331   C362.548,311.543,360.905,313.003,360.54,314.874L360.54,314.874z"/>
	<polygon points="374.491,332.118 365.595,343.478 372.621,343.478 377,337.593 379.099,343.478 386.17,343.478 387.174,337.775    384.436,337.775 381.836,331.57 390.366,320.667 383.341,320.667 379.326,326.097 377.41,320.667 370.385,320.667 369.381,326.37    372.072,326.37 374.491,332.118  "/>
	<path fill-rule="evenodd" d="M61.336,381.271l-0.502,0.364c-0.41,0.273-1.14,0.639-1.505,0.639c-0.685,0-1.232-0.183-0.229-5.839   c1.004-5.657,1.597-5.84,2.281-5.84c0.365,0,0.913,0.319,1.277,0.639l0.411,0.365L61.336,381.271L61.336,381.271z M65.488,367.173   c-1.506-1.505-3.285-2.6-5.109-2.6c-4.379,0-7.118,2.737-8.713,11.861c-1.597,9.124,0.684,11.86,4.516,11.86   c1.825,0,3.969-1.095,6.021-2.6c0.548,1.049,1.323,1.779,2.008,2.144h6.022l1.004-5.702h-2.692l1.871-10.721   c0.41-2.281,1.095-5.063,1.779-6.387h-3.97C67.449,365.394,66.4,366.124,65.488,367.173L65.488,367.173z"/>
	<path d="M86.553,387.886h5.84l1.003-5.703h-2.691l3.011-17.153h-7.345l-2.737,15.507l-0.548,0.549   c-0.729,0.731-1.323,1.052-1.733,1.052c-0.502,0-0.639-0.366-0.456-1.555l2.737-15.553h-7.346l-2.828,16.146   c-0.729,4.063-0.729,7.165,4.334,7.165c1.779,0,3.285-0.502,5.247-1.824l1.597-1.095C85.047,386.653,85.868,387.475,86.553,387.886   L86.553,387.886z"/>
	<path d="M112.684,365.851c-1.779-0.594-4.973-1.277-6.98-1.277c-4.973,0-8.485,2.28-9.307,7.025   c-1.003,5.657,1.368,7.664,5.793,7.664c1.825,0,2.829,0.365,2.601,1.597c-0.273,1.46-1.642,1.688-3.194,1.688   c-2.144,0-3.923-0.365-5.793-1.142l-1.049,5.749c1.825,0.593,3.923,1.14,6.935,1.14c5.93,0,9.033-2.326,9.945-7.481   c1.003-5.794-1.733-7.664-6.479-7.664c-1.505,0-2.189-0.228-1.961-1.414c0.228-1.187,1.232-1.46,2.601-1.46   c2.281,0,3.969,0.594,5.885,1.277L112.684,365.851L112.684,365.851z"/>
	<path fill-rule="evenodd" fill="#D51317" d="M144.272,380.197l4.519-25.789h-8.66l-20.644,26.417l-1.192,6.84h14.872l-1.82,10.039   h9.79l1.819-10.039h3.828l1.317-7.468H144.272L144.272,380.197z M137.245,367.647c0,0-1.192,3.577-1.505,5.459l-1.255,7.091h-6.275   l5.836-7.467C135.3,371.036,137.245,367.647,137.245,367.647L137.245,367.647z"/>
	<path d="M164.506,356.361l-4.015,22.628c-0.365,2.053-1.004,2.235-2.555,2.235c-0.867,0-2.235-0.183-3.148-0.411l-1.186,6.889   c1.597,0.274,4.061,0.502,5.247,0.502c5.748,0,7.573-1.187,8.485-6.25l4.517-25.593H164.506L164.506,356.361z"/>
	<path fill-rule="evenodd" d="M182.368,381.271l-0.502,0.364c-0.41,0.273-1.14,0.639-1.505,0.639c-0.685,0-1.232-0.183-0.229-5.839   c1.004-5.657,1.597-5.84,2.281-5.84c0.365,0,0.913,0.319,1.277,0.639l0.411,0.365L182.368,381.271L182.368,381.271z    M186.52,367.173c-1.506-1.505-3.285-2.6-5.109-2.6c-4.379,0-7.117,2.737-8.713,11.861c-1.597,9.124,0.685,11.86,4.517,11.86   c1.825,0,3.969-1.095,6.021-2.6c0.548,1.049,1.323,1.779,2.007,2.144h6.022l1.004-5.702h-2.692l1.871-10.721   c0.411-2.281,1.095-5.063,1.779-6.387h-3.969C188.481,365.394,187.433,366.124,186.52,367.173L186.52,367.173z"/>
	<path d="M203.89,387.839h10.037l1.003-5.702h-2.691l1.825-10.401c0.73-4.061,0.548-7.162-3.877-7.162   c-1.871,0-4.107,1.095-5.521,2.098l1.825-10.31h-7.345l-5.566,31.478h7.345l2.737-15.557l0.775-0.547   c0.593-0.41,1.277-0.821,1.688-0.821c0.501,0,0.73,0.229,0.501,1.414L203.89,387.839L203.89,387.839z"/>
	<path d="M225.684,367.355c-0.547-1.141-1.369-1.962-2.098-2.326h-3.969c0.228,1.323-0.091,4.105-0.502,6.387l-2.874,16.423h7.345   l2.691-15.19c2.738,1.186,2.965,4.743,2.965,4.743h2.328l2.189-12.408c-0.364-0.228-1.049-0.41-1.916-0.41   C229.973,364.573,227.646,365.896,225.684,367.355L225.684,367.355z"/>
	<polygon points="250.944,365.029 235.616,365.029 234.612,370.731 240.406,370.731 231.054,385.969 230.734,387.839    247.204,387.839 248.207,382.137 241.272,382.137 250.625,366.899 250.944,365.029  "/>
	<path fill-rule="evenodd" d="M267.814,378.943l1.277-7.071c0.958-5.292-1.688-7.299-7.026-7.299   c-6.614,0-9.397,3.011-10.948,11.861c-1.734,9.945,1.779,11.86,6.752,11.86c3.192,0,6.067-0.775,7.938-1.322l1.05-6.067   c-2.829,1.141-4.927,1.733-6.524,1.733c-2.099,0-2.919-1.141-2.509-3.695H267.814L267.814,378.943z M262.111,374.153h-3.103   c0.821-3.832,1.187-4.517,2.51-4.517C262.705,369.637,262.796,370.275,262.111,374.153L262.111,374.153z"/>
	<path d="M281.027,387.839h10.037l1.003-5.702h-2.691l1.824-10.401c0.73-4.061,0.548-7.162-3.877-7.162   c-1.871,0-4.106,1.095-5.521,2.098l1.824-10.31h-7.345l-5.565,31.478h7.345l2.737-15.557l0.775-0.547   c0.594-0.41,1.277-0.821,1.688-0.821c0.502,0,0.73,0.229,0.502,1.414L281.027,387.839L281.027,387.839z"/>
	<path d="M303.688,387.839h10.037l1.003-5.702h-2.691l1.824-10.401c0.73-4.061,0.548-7.162-3.877-7.162   c-1.962,0-4.289,1.14-7.025,3.057c-0.594-1.277-1.415-2.19-2.236-2.601h-3.969c0.229,1.323-0.092,4.105-0.502,6.387l-2.873,16.423   h7.344l2.737-15.557l0.776-0.547c0.593-0.41,1.277-0.821,1.688-0.821c0.502,0,0.73,0.229,0.502,1.414L303.688,387.839   L303.688,387.839z"/>
	<path d="M328.221,387.155l0.866-4.973c-0.457,0.183-1.004,0.365-1.597,0.365c-1.915,0-2.326-0.274-2.053-1.87l1.733-9.946h3.924   l1.003-5.702h-3.923l0.912-5.201h-7.344l-0.913,5.201h-2.327l-1.003,5.702h2.326l-1.962,11.086c-0.912,5.064,0.867,6.25,5.247,6.25   C325.848,388.067,327.354,387.52,328.221,387.155L328.221,387.155z"/>
	<path fill-rule="evenodd" d="M349.281,378.943l1.277-7.071c0.958-5.292-1.688-7.299-7.025-7.299   c-6.614,0-9.397,3.011-10.948,11.861c-1.734,9.945,1.779,11.86,6.751,11.86c3.193,0,6.067-0.775,7.938-1.322l1.049-6.067   c-2.828,1.141-4.927,1.733-6.523,1.733c-2.099,0-2.92-1.141-2.51-3.695H349.281L349.281,378.943z M343.579,374.153h-3.103   c0.821-3.832,1.186-4.517,2.509-4.517C344.172,369.637,344.263,370.275,343.579,374.153L343.579,374.153z"/>
	<path d="M362.495,387.839h10.036l1.003-5.702h-2.691l1.825-10.401c0.729-4.061,0.547-7.162-3.878-7.162   c-1.962,0-4.289,1.14-7.025,3.057c-0.594-1.277-1.415-2.19-2.235-2.601h-3.97c0.229,1.323-0.091,4.105-0.502,6.387l-2.873,16.423   h7.345l2.737-15.557l0.775-0.547c0.593-0.41,1.277-0.821,1.688-0.821c0.502,0,0.73,0.229,0.502,1.414L362.495,387.839   L362.495,387.839z"/>
	<path fill="none" stroke="#FFCC00" stroke-width="8.2206" stroke-miterlimit="3.8637" d="M315.071,182.326l89.035-9.649   c12.562-1.478,16.197-18.571,16.436-27.802l2.979-89.202c0.214-11.038-9.591-22.646-21.647-21.001L172.227,78.337   c-8.826,1.98-17.808,10.139-15.794,21.629l3.795,38.158"/>
	<path fill="#D51317" d="M165.697,106.21l6.939,71.738c1.159,6.936,5.479,10.15,12.959,9.644l213.508-23.114   c7.097-0.705,10.876-8.058,11.099-16.685l3.01-88.015c0.2-10.315-5.314-15.416-16.582-13.878L175.033,88.095   C166.786,89.946,163.815,95.473,165.697,106.21L165.697,106.21z"/>
	<path fill-rule="evenodd" fill="#D51317" d="M76.71,173.545l-0.972,0.707c-0.794,0.53-2.209,1.238-2.916,1.238   c-1.326,0-2.387-0.354-0.443-11.315c1.944-10.96,3.093-11.315,4.419-11.315c0.707,0,1.769,0.62,2.475,1.239l0.796,0.707   L76.71,173.545L76.71,173.545z M90.676,175.225l8.837-49.942l-14.232-0.001l-3.27,18.564c-2.209-1.592-4.861-2.652-7.16-2.652   c-8.485,0-13.789,5.303-16.88,22.981c-3.093,17.678,1.327,22.982,8.752,22.982c3.535,0,7.689-2.121,11.666-5.037   c1.062,2.033,2.564,3.447,3.89,4.154l11.668,0.001l1.944-11.05H90.676L90.676,175.225z"/>
	<path fill-rule="evenodd" fill="#D51317" d="M116.818,175.226l5.832-33.147l-19.446-0.001l-1.943,11.049h5.214l-5.832,33.148   l19.446,0.001l1.944-11.049L116.818,175.226L116.818,175.226z M111.07,130.852c-0.707,3.625,1.68,6.453,5.304,6.453   c3.624,0,7.071-2.828,7.69-6.452c0.619-3.624-1.856-6.453-5.48-6.453S111.776,127.228,111.07,130.852L111.07,130.852z"/>
	<path fill-rule="evenodd" fill="#D51317" d="M160.907,169.041l2.474-13.701c1.855-10.253-3.271-14.142-13.614-14.143   c-12.815-0.001-18.208,5.832-21.211,22.981c-3.358,19.27,3.449,22.982,13.083,22.982c6.187,0,11.755-1.501,15.379-2.562   l2.034-11.756c-5.481,2.209-9.546,3.358-12.64,3.357c-4.066,0-5.657-2.211-4.863-7.161L160.907,169.041L160.907,169.041z    M149.857,159.759l-6.011,0c1.591-7.425,2.297-8.751,4.861-8.75C151.006,151.008,151.183,152.246,149.857,159.759L149.857,159.759z   "/>
	<path fill="#FFFFFF" d="M211.334,160.823l24.397-3.428l0.49-14.205l-6.542,0.919l0.88-25.908   c0.387-10.12-1.116-17.598-11.874-16.086c-4.769,0.669-10.036,4.236-16.035,9.83c-1.878-2.902-4.187-4.84-6.322-5.558l-9.649,1.355   c1.007,3.139,1.182,10.012,0.963,15.697l-1.372,40.905l17.854-2.508l1.336-38.751l1.698-1.595c1.301-1.201,2.824-2.433,3.823-2.573   c1.22-0.171,1.853,0.306,1.703,3.267L211.334,160.823L211.334,160.823z"/>
	<path fill-rule="evenodd" fill="#FFFFFF" d="M282.233,128.809l0.688-17.625c0.521-13.191-6.598-17.166-19.573-15.343   c-16.079,2.259-21.815,10.528-22.561,32.572c-0.816,24.769,8.379,28.226,20.466,26.527c7.763-1.091,14.484-3.957,18.845-5.926   l0.478-15.108c-6.487,3.738-11.385,5.896-15.267,6.442c-5.102,0.716-7.487-1.776-7.363-8.127L282.233,128.809L282.233,128.809z    M266.733,119.113l-7.542,1.059c0.688-9.595,1.34-11.383,4.557-11.835C266.632,107.931,267.071,109.454,266.733,119.113   L266.733,119.113z"/>
	<path fill="#FFFFFF" d="M326.391,144.772l14.196-1.995l0.488-14.205l-6.541,0.919l1.455-42.727l-17.854,2.508l-1.354,38.63   l-1.145,1.522c-1.523,2.027-2.855,3.008-3.854,3.148c-1.22,0.171-1.679-0.672-1.64-3.625l1.338-38.741l-17.855,2.508l-1.356,40.218   c-0.385,10.125,0.676,17.667,12.984,15.938c4.325-0.607,7.813-2.342,12.13-6.229l3.508-3.206   C322.31,142.291,324.587,144.007,326.391,144.772L326.391,144.772z"/>
	<path fill-rule="evenodd" fill="#FFFFFF" d="M387.078,114.079l0.688-17.625c0.52-13.191-6.598-17.166-19.573-15.343   c-16.079,2.259-21.815,10.528-22.561,32.572c-0.816,24.769,8.379,28.226,20.466,26.527c7.762-1.091,14.484-3.958,18.845-5.926   l0.478-15.107c-6.487,3.737-11.385,5.896-15.267,6.441c-5.103,0.717-7.487-1.776-7.363-8.126L387.078,114.079L387.078,114.079z    M371.579,104.383l-7.542,1.06c0.687-9.596,1.34-11.384,4.557-11.836C371.478,93.201,371.917,94.724,371.579,104.383   L371.579,104.383z"/>
	<path fill="#C6C6C6" stroke="#FFFFFF" stroke-width="2.154" stroke-miterlimit="3.8637" d="M93.695,200.371H57.864l-3.647,20.735   h9.786l-6.635,37.82c-2.655,14.764,2.321,26.043,23.555,26.043c10.616,0,19.242-3.151,23.056-7.629   c2.488,4.478,9.624,7.629,20.239,7.629c21.398,0,28.531-11.279,31.186-26.043l10.284-58.555h-26.043l-10.119,57.892   c-0.831,4.313-2.655,5.64-5.971,5.64c-3.151,0-4.812-1.326-3.981-5.64l10.12-57.892h-26.045L93.53,258.263   c-0.831,4.313-2.82,5.64-5.974,5.64c-3.315,0-4.809-1.326-3.979-5.64L93.695,200.371L93.695,200.371z"/>
	<path fill-rule="evenodd" fill="#C6C6C6" d="M226.52,250.963l4.645-25.711c3.483-19.242-6.138-26.539-25.546-26.539   c-24.051,0-34.17,10.947-39.81,43.128c-6.305,36.162,6.47,43.128,24.549,43.128c11.61,0,22.062-2.82,28.862-4.81l3.817-22.061   c-10.287,4.146-17.915,6.302-23.722,6.302c-7.631,0-10.615-4.148-9.125-13.438H226.52L226.52,250.963z M205.785,233.547h-11.281   c2.987-13.935,4.313-16.422,9.125-16.422C207.942,217.125,208.273,219.448,205.785,233.547L205.785,233.547z"/>
	<path fill="none" stroke="#FFFFFF" stroke-width="2.154" stroke-miterlimit="3.8637" d="M226.52,250.963l4.645-25.711   c3.483-19.242-6.138-26.539-25.546-26.539c-24.051,0-34.17,10.947-39.81,43.128c-6.305,36.162,6.47,43.128,24.549,43.128   c11.61,0,22.062-2.82,28.862-4.81l3.817-22.061c-10.287,4.146-17.915,6.302-23.722,6.302c-7.631,0-10.615-4.148-9.125-13.438   H226.52L226.52,250.963z M205.785,233.547h-11.281c2.987-13.935,4.313-16.422,9.125-16.422   C207.942,217.125,208.273,219.448,205.785,233.547L205.785,233.547z"/>
	<polygon fill="#C6C6C6" stroke="#FFFFFF" stroke-width="2.154" stroke-miterlimit="3.8637" points="261.657,262.576    278.246,168.853 241.752,168.853 238.103,189.588 247.891,189.588 231.301,283.311 267.795,283.311 271.444,262.576    261.657,262.576  "/>
	<polygon fill="#C6C6C6" stroke="#FFFFFF" stroke-width="2.154" stroke-miterlimit="3.8637" points="303.223,262.576    319.812,168.853 283.318,168.853 279.668,189.588 289.456,189.588 272.867,283.311 309.36,283.311 313.011,262.576    303.223,262.576  "/>
	<path fill-rule="evenodd" fill="#C6C6C6" d="M379.293,250.963l4.645-25.711c3.483-19.242-6.138-26.539-25.547-26.539   c-24.05,0-34.17,10.947-39.81,43.128c-6.305,36.162,6.47,43.128,24.55,43.128c11.61,0,22.062-2.82,28.862-4.81l3.816-22.061   c-10.286,4.146-17.915,6.302-23.721,6.302c-7.632,0-10.616-4.148-9.125-13.438H379.293L379.293,250.963z M358.559,233.547h-11.282   c2.987-13.935,4.313-16.422,9.125-16.422C360.715,217.125,361.046,219.448,358.559,233.547L358.559,233.547z"/>
	<path fill="none" stroke="#FFFFFF" stroke-width="2.154" stroke-miterlimit="3.8637" d="M379.293,250.963l4.645-25.711   c3.483-19.242-6.138-26.539-25.547-26.539c-24.05,0-34.17,10.947-39.81,43.128c-6.305,36.162,6.47,43.128,24.55,43.128   c11.61,0,22.062-2.82,28.862-4.81l3.816-22.061c-10.286,4.146-17.915,6.302-23.721,6.302c-7.632,0-10.616-4.148-9.125-13.438   H379.293L379.293,250.963z M358.559,233.547h-11.282c2.987-13.935,4.313-16.422,9.125-16.422   C360.715,217.125,361.046,219.448,358.559,233.547L358.559,233.547z"/>
	<path fill="#9B130C" stroke="#FFFFFF" stroke-width="2.154" stroke-miterlimit="3.8637" d="M87.227,193.902h-35.83l-3.647,20.735   h9.785l-6.634,37.82c-2.655,14.764,2.321,26.042,23.554,26.042c10.616,0,19.242-3.15,23.056-7.628   c2.489,4.478,9.624,7.628,20.239,7.628c21.398,0,28.531-11.278,31.186-26.042l10.284-58.556h-26.043l-10.119,57.893   c-0.83,4.313-2.655,5.639-5.971,5.639c-3.151,0-4.812-1.326-3.981-5.639l10.119-57.893H97.179l-10.117,57.893   c-0.83,4.313-2.82,5.639-5.973,5.639c-3.316,0-4.809-1.326-3.979-5.639L87.227,193.902L87.227,193.902z"/>
	<path fill-rule="evenodd" fill="#9B130C" d="M220.052,244.495l4.645-25.711c3.483-19.242-6.138-26.539-25.547-26.539   c-24.05,0-34.17,10.947-39.809,43.128c-6.305,36.162,6.47,43.127,24.549,43.127c11.61,0,22.061-2.819,28.862-4.809l3.817-22.062   c-10.287,4.146-17.915,6.303-23.722,6.303c-7.631,0-10.616-4.148-9.125-13.438H220.052L220.052,244.495z M199.317,227.078h-11.281   c2.986-13.934,4.313-16.422,9.125-16.422C201.474,210.656,201.805,212.979,199.317,227.078L199.317,227.078z"/>
	<path fill="none" stroke="#FFFFFF" stroke-width="2.154" stroke-miterlimit="3.8637" d="M220.052,244.495l4.645-25.711   c3.483-19.242-6.138-26.539-25.547-26.539c-24.05,0-34.17,10.947-39.809,43.128c-6.305,36.162,6.47,43.127,24.549,43.127   c11.61,0,22.061-2.819,28.862-4.809l3.817-22.062c-10.287,4.146-17.915,6.303-23.722,6.303c-7.631,0-10.616-4.148-9.125-13.438   H220.052L220.052,244.495z M199.317,227.078h-11.281c2.986-13.934,4.313-16.422,9.125-16.422   C201.474,210.656,201.805,212.979,199.317,227.078L199.317,227.078z"/>
	<polygon fill="#9B130C" stroke="#FFFFFF" stroke-width="2.154" stroke-miterlimit="3.8637" points="255.188,256.107    271.778,162.385 235.284,162.385 231.635,183.12 241.422,183.12 224.833,276.843 261.327,276.843 264.977,256.107 255.188,256.107     "/>
	<polygon fill="#9B130C" stroke="#FFFFFF" stroke-width="2.154" stroke-miterlimit="3.8637" points="296.755,256.107    313.344,162.385 276.851,162.385 273.2,183.12 282.988,183.12 266.399,276.843 302.893,276.843 306.543,256.107 296.755,256.107     "/>
	<path fill-rule="evenodd" fill="#9B130C" d="M372.825,244.495l4.645-25.711c3.483-19.242-6.138-26.539-25.547-26.539   c-24.05,0-34.17,10.947-39.81,43.128c-6.305,36.162,6.47,43.127,24.55,43.127c11.61,0,22.062-2.819,28.862-4.809l3.816-22.062   c-10.286,4.146-17.915,6.303-23.721,6.303c-7.632,0-10.616-4.148-9.125-13.438H372.825L372.825,244.495z M352.09,227.078h-11.281   c2.987-13.934,4.313-16.422,9.125-16.422C354.247,210.656,354.578,212.979,352.09,227.078L352.09,227.078z"/>
	<path fill="none" stroke="#FFFFFF" stroke-width="2.154" stroke-miterlimit="3.8637" d="M372.825,244.495l4.645-25.711   c3.483-19.242-6.138-26.539-25.547-26.539c-24.05,0-34.17,10.947-39.81,43.128c-6.305,36.162,6.47,43.127,24.55,43.127   c11.61,0,22.062-2.819,28.862-4.809l3.816-22.062c-10.286,4.146-17.915,6.303-23.721,6.303c-7.632,0-10.616-4.148-9.125-13.438   H372.825L372.825,244.495z M352.09,227.078h-11.281c2.987-13.934,4.313-16.422,9.125-16.422   C354.247,210.656,354.578,212.979,352.09,227.078L352.09,227.078z"/>
</g>
</svg>