<?xml version="1.0" encoding="UTF-8" standalone="no"?>
<svg
   xmlns:dc="http://purl.org/dc/elements/1.1/"
   xmlns:cc="http://creativecommons.org/ns#"
   xmlns:rdf="http://www.w3.org/1999/02/22-rdf-syntax-ns#"
   xmlns:svg="http://www.w3.org/2000/svg"
   xmlns="http://www.w3.org/2000/svg"
   xmlns:sodipodi="http://sodipodi.sourceforge.net/DTD/sodipodi-0.dtd"
   xmlns:inkscape="http://www.inkscape.org/namespaces/inkscape"
   id="Layer_1"
   data-name="Layer 1"
   viewBox="0 0 570.14 323.19"
   version="1.1"
   sodipodi:docname="QXFM 97.9.svg"
   inkscape:version="0.92.4 (5da689c313, 2019-01-14)">
  <metadata
     id="metadata93">
    <rdf:RDF>
      <cc:Work
         rdf:about="">
        <dc:format>image/svg+xml</dc:format>
        <dc:type
           rdf:resource="http://purl.org/dc/dcmitype/StillImage" />
      </cc:Work>
    </rdf:RDF>
  </metadata>
  <sodipodi:namedview
     pagecolor="#ffffff"
     bordercolor="#666666"
     borderopacity="1"
     objecttolerance="10"
     gridtolerance="10"
     guidetolerance="10"
     inkscape:pageopacity="0"
     inkscape:pageshadow="2"
     inkscape:window-width="971"
     inkscape:window-height="782"
     id="namedview91"
     showgrid="false"
     inkscape:zoom="0.61388429"
     inkscape:cx="352.07283"
     inkscape:cy="191.22898"
     inkscape:window-x="0"
     inkscape:window-y="0"
     inkscape:window-maximized="0"
     inkscape:current-layer="Layer_1" />
  <defs
     id="defs4">
    <style
       id="style2">.cls-1,.cls-5{fill:#f50014;}.cls-2{fill:#949696;}.cls-3,.cls-4,.cls-5,.cls-6{font-size:207.04px;font-family:Teko-Bold, Teko;font-weight:700;}.cls-3,.cls-4{letter-spacing:-0.06em;}.cls-4,.cls-6{fill:none;stroke:#000;stroke-width:7px;}.cls-4{stroke-miterlimit:10;}.cls-5,.cls-6{letter-spacing:-0.06em;}</style>
  </defs>
  <title
     id="title6">QXFM Large</title>
  <path
     class="cls-1"
     d="M101.21,140.53a45.56,45.56,0,0,0,12.08,5.62,46.18,46.18,0,0,0,13.44,2,43.21,43.21,0,0,0,10.89-1.34,24,24,0,0,0,8.25-3.66,16.16,16.16,0,0,0,4.33-4.77,31.73,31.73,0,0,0,2.87-7.54l1.45.18a35.52,35.52,0,0,1-2.23,11.35,28.51,28.51,0,0,1-6,9q-10.84,11.4-31.35,11.4-11.94,0-20-4.34-7.31-4-15.59-14.33l-.55-.65a59.13,59.13,0,0,1-16.63-2.51A67.86,67.86,0,0,1,46,133.87,63.63,63.63,0,0,1,22.8,110.43a62.71,62.71,0,0,1-8.25-31.55,62.36,62.36,0,0,1,6.56-28.32A66.49,66.49,0,0,1,40.25,27.72,70.56,70.56,0,0,1,60.39,16.64a65.2,65.2,0,0,1,22-3.88A63.52,63.52,0,0,1,107.5,18a72.14,72.14,0,0,1,31,26.54,60.55,60.55,0,0,1,9.84,33.37,62.07,62.07,0,0,1-4.15,22.39,66.31,66.31,0,0,1-12,19.84,67.07,67.07,0,0,1-13.67,12.22A76.45,76.45,0,0,1,101.21,140.53ZM50.36,124.67a47.51,47.51,0,0,1,13.22-1.92,39.41,39.41,0,0,1,15.58,3.19,44.51,44.51,0,0,1,6.56,3.56q3.38,2.19,10.94,7.65l.82.64a44.39,44.39,0,0,0,10.25-7.48,55.72,55.72,0,0,0,8.43-11.21q10.11-16.69,10.11-39a96.42,96.42,0,0,0-4-27.81A65.37,65.37,0,0,0,111.15,30a37.53,37.53,0,0,0-13-10.86,37.94,37.94,0,0,0-16.72-3.46A38.64,38.64,0,0,0,64.62,19.1a36.67,36.67,0,0,0-13,10.9A66.34,66.34,0,0,0,40.57,52.21,95.61,95.61,0,0,0,36.6,80a81.91,81.91,0,0,0,3.28,24.12A70.53,70.53,0,0,0,50.36,124.67ZM76.7,140.89l-.64-.73q-6.37-7.65-10.84-10.75a15.82,15.82,0,0,0-9.12-3.1,11.59,11.59,0,0,0-3.82.73,43.69,43.69,0,0,0,11.25,9.75A36.3,36.3,0,0,0,76.7,140.89Z"
     id="path8" />
  <path
     class="cls-1"
     d="M159.44,16H219.5v2.1a32.91,32.91,0,0,0-9.66,1.09q-5.47,1.72-5.47,6.56,0,5,7.48,15.86l15.94,23.33,14-17.23A157.46,157.46,0,0,0,252.4,33.49,14.69,14.69,0,0,0,254.86,26c0-3.22-1.7-5.43-5.1-6.65a31.75,31.75,0,0,0-8.3-1.27V16h41.83v2.1q-6.93,0-10.75,1.82Q266.61,22.6,256.77,35l-6.92,8.74L230.07,68.26l31.35,46.57q8.29,12.39,15,18a23.17,23.17,0,0,0,6.79,4,32,32,0,0,0,8.88,1.46v2.09H228.79v-2.09q7.4-.83,10.76-2.56Q245,133,245,128a9.65,9.65,0,0,0-1.09-4,65.12,65.12,0,0,0-4.09-6.83L217.59,83.48,195.9,109.91a65.18,65.18,0,0,0-7.16,10.16,16.33,16.33,0,0,0-2.14,7.51,8.85,8.85,0,0,0,3.69,7.61c2.46,1.8,6.12,2.81,11,3.06v2.09H157v-2.09a30.86,30.86,0,0,0,8.34-2.6,35.34,35.34,0,0,0,7.79-5.88q6.57-6,18.5-20.5l23.7-29L187.06,37.91l-4.83-7q-5.29-7.75-8.93-10c-2.19-1.33-5.9-2.22-11.12-2.64-.61,0-1.52-.06-2.74-.18Z"
     id="path10" />
  <path
     d="M335.69,75.37v36.36a67.69,67.69,0,0,0,1,13.71,15.69,15.69,0,0,0,3.83,7.43,14.85,14.85,0,0,0,5.79,3.87,29.64,29.64,0,0,0,8.52,1.51v2.09H296.6v-2.09a24.07,24.07,0,0,0,8.29-1.42,15,15,0,0,0,6.1-3.78,16.74,16.74,0,0,0,3.65-7.74,65.74,65.74,0,0,0,1.09-13.58V44.57q0-5.84-.63-12.12a14.94,14.94,0,0,0-7.84-11.94q-3.83-2.1-10.66-2.46V16h95.23l2.64,29.62-2.1.45a64.28,64.28,0,0,0-4.19-10.39,30.44,30.44,0,0,0-12-12.3,31.34,31.34,0,0,0-10.3-3.55,99.45,99.45,0,0,0-16-1H335.69V72.54h3.65q16.13,0,23.42-7.2A20.46,20.46,0,0,0,367.59,58a40.24,40.24,0,0,0,2.18-11.08l2.1.1-.55,55.22h-2.18q-1-9.3-3.42-14.35a19.42,19.42,0,0,0-7.34-8.16,26.46,26.46,0,0,0-9-3.33A74.29,74.29,0,0,0,335.69,75.37Z"
     id="path12"
     style="fill:#ffffff" />
  <path
     d="M555.59,18.05a29.65,29.65,0,0,0-8.34,1.41,15.76,15.76,0,0,0-5.79,3.78,12.92,12.92,0,0,0-3,4.24,20.05,20.05,0,0,0-1.37,5.88,84.43,84.43,0,0,0-.64,11.21v67.16q0,9.39,1.09,13.94a14.62,14.62,0,0,0,3.92,7.29q5,4.83,14.13,5.29v2.09H497.36v-2.09a28.93,28.93,0,0,0,8.52-1.51,16.36,16.36,0,0,0,5.78-3.78,15.38,15.38,0,0,0,3.88-7.43,67,67,0,0,0,1-13.8V30.26L469.65,140.34h-1.91L421.08,31.9v79.83q0,9.39,1.05,13.85a15.34,15.34,0,0,0,9.66,11.21,29.71,29.71,0,0,0,8.43,1.46v2.09h-42v-2.09a29.84,29.84,0,0,0,8.43-1.46,15.35,15.35,0,0,0,9.66-11.26,67,67,0,0,0,1-13.8V44.57q0-4.2-.27-7.93-.45-6.75-2.1-9.85a14.68,14.68,0,0,0-6.24-6.33,26.12,26.12,0,0,0-10.52-2.41V16h39.55l39.46,97.42L518.13,16h37.46Z"
     id="path14"
     style="fill:#ffffff" />
  <path
     class="cls-1"
     d="M53.72,201.88a3.15,3.15,0,0,1,2.31,1,3.18,3.18,0,0,1,1,2.34,3.27,3.27,0,0,1-6.54,0,3.18,3.18,0,0,1,1-2.34A3.15,3.15,0,0,1,53.72,201.88Z"
     id="path16" />
  <path
     class="cls-1"
     d="M67.23,201.88a3.15,3.15,0,0,1,2.31,1,3.18,3.18,0,0,1,1,2.34,3.27,3.27,0,0,1-6.54,0,3.18,3.18,0,0,1,1-2.34A3.15,3.15,0,0,1,67.23,201.88Z"
     id="path18" />
  <path
     class="cls-1"
     d="M80.74,201.88a3.15,3.15,0,0,1,2.31,1,3.18,3.18,0,0,1,1,2.34,3.27,3.27,0,0,1-6.54,0,3.18,3.18,0,0,1,1-2.34A3.15,3.15,0,0,1,80.74,201.88Z"
     id="path20" />
  <path
     class="cls-1"
     d="M88.82,208v-.65A5.6,5.6,0,0,0,93,205.77a4.59,4.59,0,0,0,1.14-2.2,19.53,19.53,0,0,0,.31-4.1V179.56a19.65,19.65,0,0,0-.33-4.23,4.52,4.52,0,0,0-1.26-2.23,4.78,4.78,0,0,0-1.69-1,8.72,8.72,0,0,0-2.39-.38v-.62h17.27v.62a9.25,9.25,0,0,0-2.43.41,4.45,4.45,0,0,0-2.92,3.27,19.29,19.29,0,0,0-.33,4.19v15.59c0,2.4.07,4.18.19,5.35a8.74,8.74,0,0,0,.73,2.86,6,6,0,0,0,2.81,2.86,11.5,11.5,0,0,0,5,.9,15.08,15.08,0,0,0,5.42-.85,8.38,8.38,0,0,0,3.6-2.63,11.41,11.41,0,0,0,1.56-2.76,25.51,25.51,0,0,0,1.12-4l.65,0L121.08,208Z"
     id="path22" />
  <path
     class="cls-1"
     d="M122.27,185.56l7.79-1v15.57l0,2a12.09,12.09,0,0,0,.22,2.68,2.75,2.75,0,0,0,.84,1.42,5.59,5.59,0,0,0,2.78,1.1V208H122v-.57a7,7,0,0,0,2.32-.6,2.82,2.82,0,0,0,1.14-1.33,6.16,6.16,0,0,0,.41-1.87c.09-.84.13-2,.13-3.62v-6.64a37.29,37.29,0,0,0-.14-3.89,4.29,4.29,0,0,0-.59-1.81,3,3,0,0,0-1.11-1.09,5.07,5.07,0,0,0-1.87-.42Zm5.64-10.68a2.39,2.39,0,0,1-1.75-.67,2.39,2.39,0,0,1,0-3.39,2.54,2.54,0,0,1,3.48,0,2.41,2.41,0,0,1,0,3.39A2.41,2.41,0,0,1,127.91,174.88Z"
     id="path24" />
  <path
     class="cls-1"
     d="M137.24,208v-7.65h.44a15,15,0,0,0,1.88,4.49c1.39,2,3,3,4.86,3a4.41,4.41,0,0,0,2.93-1,3.94,3.94,0,0,0,1.35-3.21,4.71,4.71,0,0,0-1-3,6.34,6.34,0,0,0-1.36-1.25,29.85,29.85,0,0,0-2.76-1.59,18.61,18.61,0,0,1-4.53-3,5.66,5.66,0,0,1-1.62-4,6,6,0,0,1,1.62-4.19,6.45,6.45,0,0,1,4.95-2,6.75,6.75,0,0,1,2.56.49l.92.41a2.41,2.41,0,0,0,.76.16c.34,0,.67-.27,1-.81h.54l.3,6.13h-.57a13.24,13.24,0,0,0-.63-2.08,5.9,5.9,0,0,0-1-1.51,6.08,6.08,0,0,0-1.94-1.61,4.6,4.6,0,0,0-2.18-.58,3.44,3.44,0,0,0-2.57,1.09,3.72,3.72,0,0,0-1.07,2.69,3.47,3.47,0,0,0,1,2.39,8.53,8.53,0,0,0,2.95,2l2.86,1.3a9.45,9.45,0,0,1,3.83,2.89,6.73,6.73,0,0,1,1.26,4.08,6.43,6.43,0,0,1-1.83,4.7,7.24,7.24,0,0,1-5.41,2.16,10.06,10.06,0,0,1-3.62-.7c-.79-.3-1.27-.48-1.43-.52a2.16,2.16,0,0,0-.62-.07,1.56,1.56,0,0,0-1.43.81Z"
     id="path26" />
  <path
     class="cls-1"
     d="M161.94,185h6.87v1h-6.87v15.72a6.56,6.56,0,0,0,1,4.06,3.38,3.38,0,0,0,1.35,1,4.33,4.33,0,0,0,1.8.38,3.8,3.8,0,0,0,2-.5,6.89,6.89,0,0,0,1.78-1.83l.4.36a5.55,5.55,0,0,1-2.49,2.4,9.2,9.2,0,0,1-4,.78,7.12,7.12,0,0,1-4.65-1.24,3,3,0,0,1-1-1.55,14.63,14.63,0,0,1-.25-3.26V186h-2.89v-.44a7.51,7.51,0,0,0,3.25-2.18,10.68,10.68,0,0,0,1.44-2,14,14,0,0,0,1-2.55l.28-.9h1Z"
     id="path28" />
  <path
     class="cls-1"
     d="M175,193.26c-.07.88-.11,1.52-.11,1.92a15.52,15.52,0,0,0,.69,4.59,11.15,11.15,0,0,0,1.87,3.73,8.69,8.69,0,0,0,6.76,3.24,7.93,7.93,0,0,0,2.76-.48,6,6,0,0,0,2.17-1.36,7.47,7.47,0,0,0,1.67-3l.57.19a7.54,7.54,0,0,1-3,4.77,10.57,10.57,0,0,1-6.14,1.6,14.1,14.1,0,0,1-5.71-1.05,10.12,10.12,0,0,1-4-3.24,12.16,12.16,0,0,1-2.3-7.51,11.5,11.5,0,0,1,4.35-9.54,11.26,11.26,0,0,1,7.22-2.52,10.15,10.15,0,0,1,4,.78,8.25,8.25,0,0,1,3.1,2.22,8.35,8.35,0,0,1,2,5.68Zm11.78-1.06a10.15,10.15,0,0,0-1-4.16,5.66,5.66,0,0,0-1.94-2.09,4.77,4.77,0,0,0-2.58-.77,5.25,5.25,0,0,0-4,2,8.9,8.9,0,0,0-2.06,5Z"
     id="path30" />
  <path
     class="cls-1"
     d="M201.93,184.58a12.29,12.29,0,0,1,.38,2.94V188a10.9,10.9,0,0,1,8-3.37,8.87,8.87,0,0,1,5.56,1.62,5.39,5.39,0,0,1,2.08,4.54v11.44a11.6,11.6,0,0,0,.22,2.69,2.72,2.72,0,0,0,.84,1.41,5.49,5.49,0,0,0,2.78,1.11V208H209.83v-.57a6.91,6.91,0,0,0,2.32-.61,2.7,2.7,0,0,0,1.13-1.33,5.84,5.84,0,0,0,.42-1.88c.08-.83.13-2,.13-3.6v-5.72a31.75,31.75,0,0,0-.21-4.32,5.18,5.18,0,0,0-.77-2.21,4,4,0,0,0-1.77-1.47,6.19,6.19,0,0,0-2.57-.53,6.8,6.8,0,0,0-2.81.59,5.28,5.28,0,0,0-2.07,1.62,5.94,5.94,0,0,0-1.06,2.44,27.72,27.72,0,0,0-.26,4.53v5.29l0,2a11.6,11.6,0,0,0,.22,2.69,2.77,2.77,0,0,0,.83,1.41,5.57,5.57,0,0,0,2.79,1.11V208h-12v-.57a7,7,0,0,0,2.33-.6,2.8,2.8,0,0,0,1.13-1.33,5.83,5.83,0,0,0,.42-1.87c.08-.84.12-2,.12-3.62v-6.64a38.11,38.11,0,0,0-.13-3.89,4.16,4.16,0,0,0-.6-1.81,2.87,2.87,0,0,0-1.1-1.09,5.12,5.12,0,0,0-1.87-.42v-.56Z"
     id="path32" />
  <path
     class="cls-1"
     d="M229.28,201.88a3.15,3.15,0,0,1,2.31,1,3.18,3.18,0,0,1,1,2.34,3.27,3.27,0,0,1-6.54,0,3.18,3.18,0,0,1,1-2.34A3.15,3.15,0,0,1,229.28,201.88Zm.3-3.35h-.49l-2.54-20.21a33.12,33.12,0,0,1-.32-3.84,4,4,0,0,1,.89-2.78,3.11,3.11,0,0,1,2.46-1,3,3,0,0,1,2.36,1,3.83,3.83,0,0,1,.88,2.68,26.82,26.82,0,0,1-.32,3.43Z"
     id="path34" />
  <path
     d="M265.51,171.07h.63V200.7a13.1,13.1,0,0,0,.36,3.39,3.86,3.86,0,0,0,1.13,1.95,7.25,7.25,0,0,0,4.13,1.35V208H256.14v-.57a12.12,12.12,0,0,0,2.72-.44,4.07,4.07,0,0,0,2.56-2.88,14.09,14.09,0,0,0,.26-3.21V175.07a20.79,20.79,0,0,1-2.19.17,12.81,12.81,0,0,1-3.21-.33v-.49h.62a11.59,11.59,0,0,0,4-.68,18.83,18.83,0,0,0,4.07-2.23Z"
     id="path36"
     style="fill:#ffffff" />
  <path
     d="M291.15,170.59a7.29,7.29,0,0,1,5.3,2.56,17.46,17.46,0,0,1,2.41,3.25,29.8,29.8,0,0,1,2,4.08,23.13,23.13,0,0,1,0,18.08,28.7,28.7,0,0,1-2,4.08,18.1,18.1,0,0,1-2.41,3.21,6.72,6.72,0,0,1-10.6,0,18.59,18.59,0,0,1-2.4-3.21,25.72,25.72,0,0,1-2-4.08,25,25,0,0,1-1.87-9.06,24.61,24.61,0,0,1,1.87-9,26.59,26.59,0,0,1,2-4.08,17.91,17.91,0,0,1,2.4-3.25A7.34,7.34,0,0,1,291.15,170.59Zm0,.65a3.38,3.38,0,0,0-2.12.82,7.59,7.59,0,0,0-1.85,2.28,18.57,18.57,0,0,0-1.24,3c-.41,1.25-.75,2.49-1,3.71a42,42,0,0,0,0,16.92,36.76,36.76,0,0,0,1,3.76,17.41,17.41,0,0,0,1.24,2.94,7.36,7.36,0,0,0,1.88,2.31,3.51,3.51,0,0,0,2.17.8,3.37,3.37,0,0,0,2-.83,7.34,7.34,0,0,0,1.86-2.28,19.34,19.34,0,0,0,1.23-2.94,30.33,30.33,0,0,0,1-3.76,40.65,40.65,0,0,0,0-16.92,31.58,31.58,0,0,0-1-3.71,20.72,20.72,0,0,0-1.23-3,7.59,7.59,0,0,0-1.85-2.28A3.39,3.39,0,0,0,291.15,171.24Z"
     id="path38"
     style="fill:#ffffff" />
  <path
     d="M318.36,170.59a7.29,7.29,0,0,1,5.3,2.56,17,17,0,0,1,2.41,3.25,29.8,29.8,0,0,1,2,4.08,23.13,23.13,0,0,1,0,18.08,28.7,28.7,0,0,1-2,4.08,17.63,17.63,0,0,1-2.41,3.21,6.72,6.72,0,0,1-10.6,0,19.11,19.11,0,0,1-2.4-3.21,25.72,25.72,0,0,1-2-4.08,25,25,0,0,1-1.87-9.06,24.61,24.61,0,0,1,1.87-9,26.59,26.59,0,0,1,2-4.08,18.39,18.39,0,0,1,2.4-3.25A7.34,7.34,0,0,1,318.36,170.59Zm0,.65a3.38,3.38,0,0,0-2.12.82,7.59,7.59,0,0,0-1.85,2.28,18.57,18.57,0,0,0-1.24,3c-.41,1.25-.75,2.49-1,3.71a42,42,0,0,0,0,16.92,36.76,36.76,0,0,0,1,3.76,17.41,17.41,0,0,0,1.24,2.94,7.36,7.36,0,0,0,1.88,2.31,3.51,3.51,0,0,0,2.17.8,3.34,3.34,0,0,0,2.05-.83,7.34,7.34,0,0,0,1.86-2.28,18.37,18.37,0,0,0,1.23-2.94,30.33,30.33,0,0,0,1-3.76,40.65,40.65,0,0,0,0-16.92,31.58,31.58,0,0,0-1-3.71,19.64,19.64,0,0,0-1.23-3,7.44,7.44,0,0,0-1.85-2.28A3.39,3.39,0,0,0,318.36,171.24Z"
     id="path40"
     style="fill:#ffffff" />
  <path
     d="M338.72,201.88a3.15,3.15,0,0,1,2.31,1,3.18,3.18,0,0,1,1,2.34,3.27,3.27,0,0,1-6.54,0,3.18,3.18,0,0,1,1-2.34A3.15,3.15,0,0,1,338.72,201.88Z"
     id="path42"
     style="fill:#ffffff" />
  <path
     d="M362.45,188.15q8.08,2.19,8.08,9.11A10.8,10.8,0,0,1,365,206.7a14.21,14.21,0,0,1-7.11,1.74,14.56,14.56,0,0,1-4.55-.68,9.27,9.27,0,0,1-3.43-1.91,6.64,6.64,0,0,1-1.61-2.24,6.34,6.34,0,0,1-.58-2.62,5.37,5.37,0,0,1,1.54-3.89,5,5,0,0,1,3.78-1.6l.11.49a6.43,6.43,0,0,0-1.78,2.09,5.79,5.79,0,0,0-.52,2.58,7,7,0,0,0,1.32,4.14,6.66,6.66,0,0,0,2.59,2.2,7.86,7.86,0,0,0,3.45.77,7,7,0,0,0,5.83-2.84,10.47,10.47,0,0,0,1.66-3.25,12.71,12.71,0,0,0,.61-3.83,12.08,12.08,0,0,0-.75-4.2,8.31,8.31,0,0,0-2-3.23,4.5,4.5,0,0,0-3.16-1.4,2.39,2.39,0,0,0-.92.17,6.5,6.5,0,0,0-1.16.72,4.38,4.38,0,0,1-2.4,1,1.94,1.94,0,0,1-1.31-.46,1.45,1.45,0,0,1-.53-1.16,1.64,1.64,0,0,1,.66-1.34,2.62,2.62,0,0,1,1.68-.53,3.63,3.63,0,0,1,.92.11l1,.27a4.09,4.09,0,0,0,1.05.14,5.07,5.07,0,0,0,3.56-1.68,8.33,8.33,0,0,0,2.34-6.19,11.33,11.33,0,0,0-.59-3.61,9.26,9.26,0,0,0-1.67-3,5.73,5.73,0,0,0-4.57-2.21,5.08,5.08,0,0,0-3.71,1.4,4.81,4.81,0,0,0-1.46,3.62,4.92,4.92,0,0,0,.79,2.81,3.64,3.64,0,0,0,2.13,1.52l.08.48a5.42,5.42,0,0,1-1.92.38,4.35,4.35,0,0,1-3.14-1.16,4,4,0,0,1-1.21-3,5.76,5.76,0,0,1,2.58-4.71,10,10,0,0,1,6.23-2,13.11,13.11,0,0,1,4.23.69,10.14,10.14,0,0,1,3.47,1.93,8,8,0,0,1,2.12,2.82,8.24,8.24,0,0,1,.75,3.47,8,8,0,0,1-3,6.41A15.09,15.09,0,0,1,362.45,188.15Z"
     id="path44"
     style="fill:#ffffff" />
  <path
     d="M398.85,166.78h3.08v54.69h-3.08Z"
     id="path46"
     style="fill:#ffffff" />
  <path
     d="M448.13,192a13.28,13.28,0,0,1-3.48,2.15,9.59,9.59,0,0,1-3.54.66,10,10,0,0,1-4.14-.94A11.09,11.09,0,0,1,432,189.6a12.1,12.1,0,0,1-1.79-6.5,13.92,13.92,0,0,1,.94-5.07,12.26,12.26,0,0,1,2.66-4.15,10.44,10.44,0,0,1,7.77-3.29,9.92,9.92,0,0,1,8.57,4.54q2.9,4.1,2.9,10.7a28.6,28.6,0,0,1-1.75,10.06,23.16,23.16,0,0,1-5,8.12,14.74,14.74,0,0,1-4.41,3.35,11.21,11.21,0,0,1-4.89,1.08,8.94,8.94,0,0,1-4.67-1.1,3.22,3.22,0,0,1-1.85-2.79,2.12,2.12,0,0,1,.52-1.47,1.72,1.72,0,0,1,1.34-.58,2.25,2.25,0,0,1,1,.22,2.09,2.09,0,0,1,.82.74,9.14,9.14,0,0,1,.77,1.69A4.19,4.19,0,0,0,436.2,207a3.25,3.25,0,0,0,2,.57c2.36,0,4.46-1.51,6.32-4.52A26,26,0,0,0,448.13,192Zm.49-9.43a15.55,15.55,0,0,0-1.89-8.16q-1.94-3.16-4.91-3.16a5,5,0,0,0-2.79.85,7.5,7.5,0,0,0-2.28,2.47,14.4,14.4,0,0,0-1.59,4,19.73,19.73,0,0,0-.59,4.71,16.87,16.87,0,0,0,.62,4.61,11.09,11.09,0,0,0,1.67,3.66,5.62,5.62,0,0,0,4.75,2.46,5.43,5.43,0,0,0,4.31-2.11,10.87,10.87,0,0,0,2-4A19.19,19.19,0,0,0,448.62,182.61Z"
     id="path48"
     style="fill:#ffffff" />
  <path
     d="M479.67,171.59,466.51,205l-.54,1.38a4.29,4.29,0,0,1-1,1.6,2.12,2.12,0,0,1-1.45.5,2.35,2.35,0,0,1-1.62-.59,1.85,1.85,0,0,1-.68-1.43,5,5,0,0,1,.68-2.08l.57-1.06,14.4-27.37H465.05a12.68,12.68,0,0,0-2.24.15,3.68,3.68,0,0,0-1.38.53,4.73,4.73,0,0,0-1.35,1.36,21,21,0,0,0-1.41,2.82l-.13.33H458l2.43-10.78H461a1.59,1.59,0,0,0,.59,1.12,4.31,4.31,0,0,0,1.76.23Z"
     id="path50"
     style="fill:#ffffff" />
  <path
     d="M489.21,201.88a3.15,3.15,0,0,1,2.31,1,3.18,3.18,0,0,1,1,2.34,3.27,3.27,0,0,1-6.54,0,3.18,3.18,0,0,1,1-2.34A3.15,3.15,0,0,1,489.21,201.88Z"
     id="path52"
     style="fill:#ffffff" />
  <path
     d="M516.07,192a13.32,13.32,0,0,1-3.49,2.15,9.59,9.59,0,0,1-3.54.66,9.88,9.88,0,0,1-4.13-.94,11.06,11.06,0,0,1-5-4.31,12.09,12.09,0,0,1-1.78-6.5,13.91,13.91,0,0,1,.93-5.07,12.13,12.13,0,0,1,2.67-4.15,10.4,10.4,0,0,1,7.76-3.29,9.93,9.93,0,0,1,8.58,4.54q2.89,4.1,2.89,10.7a28.83,28.83,0,0,1-1.74,10.06,23.45,23.45,0,0,1-5,8.12,15,15,0,0,1-4.41,3.35,11.29,11.29,0,0,1-4.9,1.08,9,9,0,0,1-4.67-1.1,3.24,3.24,0,0,1-1.85-2.79,2.12,2.12,0,0,1,.53-1.47,1.7,1.7,0,0,1,1.33-.58,2.22,2.22,0,0,1,1,.22,2.12,2.12,0,0,1,.83.74,9.88,9.88,0,0,1,.77,1.69,4,4,0,0,0,1.23,1.89,3.2,3.2,0,0,0,2,.57q3.54,0,6.32-4.52A26.18,26.18,0,0,0,516.07,192Zm.48-9.43a15.65,15.65,0,0,0-1.88-8.16q-1.95-3.16-4.91-3.16a5,5,0,0,0-2.79.85,7.29,7.29,0,0,0-2.28,2.47,14.1,14.1,0,0,0-1.6,4,19.73,19.73,0,0,0-.59,4.71,17.26,17.26,0,0,0,.62,4.61,11.3,11.3,0,0,0,1.67,3.66,5.63,5.63,0,0,0,4.75,2.46,5.46,5.46,0,0,0,4.32-2.11,11,11,0,0,0,2-4A19.19,19.19,0,0,0,516.55,182.61Z"
     id="path54"
     style="fill:#ffffff" />
  <path
     class="cls-2"
     d="M47.33,226.23v1.12a16.19,16.19,0,0,0-4.52.78,7.74,7.74,0,0,0-3.07,2,8.08,8.08,0,0,0-2.11,4.09,46.62,46.62,0,0,0-.51,8.36v27.53a64.79,64.79,0,0,0,.51,9.71,15.37,15.37,0,0,0,2.07,5.52A14.27,14.27,0,0,0,45.46,291a19.14,19.14,0,0,0,8.63,1.72,30.35,30.35,0,0,0,9.66-1.53,21.76,21.76,0,0,0,7.66-4.25,11.16,11.16,0,0,0,2.8-3.7,16.3,16.3,0,0,0,1.19-5.06c.13-1.33.19-4.47.19-9.44V241.5a34.84,34.84,0,0,0-.56-7.39,8.15,8.15,0,0,0-5.15-6,15.9,15.9,0,0,0-4.5-.78v-1.12H87.8v1.12a15.9,15.9,0,0,0-4.5.78,8.18,8.18,0,0,0-3.09,2,8.27,8.27,0,0,0-2.06,4,35,35,0,0,0-.56,7.37v30.7c0,4.54-.35,7.88-1,10a13.15,13.15,0,0,1-4.16,5.91q-7.09,6.14-20.28,6.13-13.77,0-20.28-5.79a15.17,15.17,0,0,1-5.06-9.73,66.22,66.22,0,0,1-.29-7.73V241.5a36.57,36.57,0,0,0-.54-7.39,7.88,7.88,0,0,0-2.09-3.94,7.78,7.78,0,0,0-3-2,16.09,16.09,0,0,0-4.55-.78v-1.12Z"
     id="path56" />
  <path
     class="cls-2"
     d="M104.73,250.55a22.9,22.9,0,0,1,.68,5.28v.78a19.56,19.56,0,0,1,14.35-6.06q6.22,0,10,2.92a9.66,9.66,0,0,1,3.75,8.16v20.6a21.47,21.47,0,0,0,.39,4.83,5,5,0,0,0,1.5,2.55q1.37,1.32,5,2v1h-21.5v-1a12.46,12.46,0,0,0,4.19-1.09,5,5,0,0,0,2-2.4,10.37,10.37,0,0,0,.75-3.38q.23-2.26.22-6.49v-10.3a59.79,59.79,0,0,0-.36-7.77,9.6,9.6,0,0,0-1.38-4,7.42,7.42,0,0,0-3.21-2.65,11.05,11.05,0,0,0-4.61-.95,12.16,12.16,0,0,0-5.07,1.07,9.17,9.17,0,0,0-3.71,2.92,10.47,10.47,0,0,0-1.92,4.39,49.55,49.55,0,0,0-.46,8.14v9.52l0,3.6a21.47,21.47,0,0,0,.39,4.83,5,5,0,0,0,1.51,2.55q1.35,1.32,5,2v1H90.87v-1a12.68,12.68,0,0,0,4.18-1.08,5,5,0,0,0,2-2.4,10.45,10.45,0,0,0,.76-3.36c.14-1.5.22-3.67.22-6.51v-12a64.78,64.78,0,0,0-.25-7A7.55,7.55,0,0,0,96.75,256a5.18,5.18,0,0,0-2-2,8.89,8.89,0,0,0-3.36-.75v-1Z"
     id="path58" />
  <path
     class="cls-2"
     d="M157.26,253.13v25.41l.05,3.69a21.47,21.47,0,0,0,.39,4.83,5,5,0,0,0,1.51,2.55q1.36,1.32,5,2v1h-21.5v-1a12.39,12.39,0,0,0,4.18-1.09,5,5,0,0,0,2-2.4,10.92,10.92,0,0,0,.75-3.38c.15-1.51.22-3.68.22-6.53V253.13h-7v-1.85h7V239.41a17.06,17.06,0,0,1,1.1-6.76,11.72,11.72,0,0,1,3.94-4.57,19.79,19.79,0,0,1,6.22-2.9,28.46,28.46,0,0,1,7.76-1,12.24,12.24,0,0,1,6.08,1.31,3.94,3.94,0,0,1,2.28,3.5,3.32,3.32,0,0,1-1,2.44,3.13,3.13,0,0,1-2.31,1,3.79,3.79,0,0,1-2.28-.71,7.84,7.84,0,0,1-1.95-2.31,12.37,12.37,0,0,0-2.23-2.94,3.72,3.72,0,0,0-2.39-.71,8.38,8.38,0,0,0-3.5.76,6.62,6.62,0,0,0-2.58,2A8.31,8.31,0,0,0,157.7,232a39.55,39.55,0,0,0-.39,6.4v12.89h9.58v1.85Z"
     id="path60" />
  <path
     class="cls-2"
     d="M172.24,272.1A19.94,19.94,0,0,1,178.08,258,22.94,22.94,0,0,1,212,258a20,20,0,0,1,.29,28,23.6,23.6,0,0,1-34.49,0,21.26,21.26,0,0,1-4.11-6.52A19.72,19.72,0,0,1,172.24,272.1Zm8.86-.56a25.86,25.86,0,0,0,3.79,14.33q4.28,6.56,10.46,6.56a10,10,0,0,0,5.11-1.46,13.47,13.47,0,0,0,4.28-4.08,22.92,22.92,0,0,0,3.06-6.82,29,29,0,0,0,1.17-7.95,27.34,27.34,0,0,0-1.24-8,24,24,0,0,0-3.33-7q-4-5.49-9.78-5.49-5.51,0-9.49,5.78A24.11,24.11,0,0,0,181.1,271.54Z"
     id="path62" />
  <path
     class="cls-2"
     d="M236.06,258a14,14,0,0,1,3.94-4.62,15.51,15.51,0,0,1,9.2-2.87A7.23,7.23,0,0,1,254,252a3.89,3.89,0,0,1,1.51,3.11,3,3,0,0,1-.9,2.24,3.19,3.19,0,0,1-2.31.87,3.73,3.73,0,0,1-2.87-1.36l-1.51-1.65a5.66,5.66,0,0,0-4.23-1.89c-2.21,0-3.92,1.42-5.16,4.27s-1.85,6.82-1.85,11.9v9.09l.05,3.69a21.47,21.47,0,0,0,.39,4.83,5,5,0,0,0,1.51,2.55q1.37,1.32,5,2v1h-21.5v-1a12.61,12.61,0,0,0,4.18-1.08,5,5,0,0,0,2-2.4,10.49,10.49,0,0,0,.75-3.36q.23-2.25.22-6.51v-12a68.41,68.41,0,0,0-.24-7A7.69,7.69,0,0,0,228,256a5.27,5.27,0,0,0-2-2,8.84,8.84,0,0,0-3.35-.75v-1l12.54-1.75A41.35,41.35,0,0,1,236.06,258Z"
     id="path64" />
  <path
     class="cls-2"
     d="M268.94,296.76l-.87.24a5.68,5.68,0,0,0-1.66-1.89,3.65,3.65,0,0,0-2-.54,4.12,4.12,0,0,0-3.33,1.56,6.11,6.11,0,0,0-1.29,4q0,3.94,3.94,6.47a18.3,18.3,0,0,0,10.07,2.53c4.34,0,7.86-.93,10.53-2.79a8.51,8.51,0,0,0,4-7.27,6.4,6.4,0,0,0-2.67-5.53c-1.79-1.28-4.33-1.92-7.64-1.92h-7.73a12.33,12.33,0,0,1-7.69-2.24,6.92,6.92,0,0,1-3-5.61,6.17,6.17,0,0,1,3.21-5.47,25.92,25.92,0,0,1,6-2.1,16.42,16.42,0,0,1-6.57-5.12,11.62,11.62,0,0,1-2.33-7,12.29,12.29,0,0,1,3.65-8.74,15.31,15.31,0,0,1,11.05-4.81,17,17,0,0,1,9.54,3.31,18.25,18.25,0,0,1,4.12-2.56,10.32,10.32,0,0,1,4-.75,6.59,6.59,0,0,1,3.85,1,3.75,3.75,0,0,1,1.76,3.12,2.67,2.67,0,0,1-.69,1.87,2.24,2.24,0,0,1-1.72.75,3.62,3.62,0,0,1-2.85-1.65l-1.11-1.46a3.15,3.15,0,0,0-2.62-1.17,5.79,5.79,0,0,0-3.78,1.8,15.51,15.51,0,0,1,4,9.92,11.45,11.45,0,0,1-5.65,10.07,16.8,16.8,0,0,1-6.1,2.48q-1,.15-6.2.49c-4.76.29-7.15,1.62-7.15,4q0,3.11,6.09,3.11h8a28.65,28.65,0,0,1,7.16.76,14.77,14.77,0,0,1,5.12,2.35,10.43,10.43,0,0,1,4.29,8.91,11.47,11.47,0,0,1-5,9.87q-5.12,3.64-15,3.65-10.62,0-15.05-4.28a9.31,9.31,0,0,1-2.83-6.91,7.82,7.82,0,0,1,2.1-5.52,6.66,6.66,0,0,1,5.1-2.26,5,5,0,0,1,3.58,1.31,4.56,4.56,0,0,1,1.38,3.46Zm-2.09-32.32a15.1,15.1,0,0,0,2.21,8.54,6.58,6.58,0,0,0,5.65,3.3,6,6,0,0,0,5.43-3.27c1.29-2.19,1.94-5.22,1.94-9.11s-.84-7.21-2.52-9.61a5.57,5.57,0,0,0-4.75-2.67q-3.49,0-5.63,3.5a15.28,15.28,0,0,0-1.7,4.27A20.73,20.73,0,0,0,266.85,264.44Z"
     id="path66" />
  <path
     class="cls-2"
     d="M308.1,266.16c-.13,1.59-.19,2.74-.19,3.46a28.22,28.22,0,0,0,1.23,8.27,20.2,20.2,0,0,0,3.37,6.71,15.76,15.76,0,0,0,12.17,5.84,14,14,0,0,0,5-.88,10.61,10.61,0,0,0,3.9-2.43,13.75,13.75,0,0,0,3-5.45l1,.34a13.56,13.56,0,0,1-5.43,8.59q-4.15,2.89-11.06,2.89a25.18,25.18,0,0,1-10.27-1.9,18.18,18.18,0,0,1-7.24-5.83,21.85,21.85,0,0,1-4.14-13.53q0-10.94,7.83-17.17a20.36,20.36,0,0,1,13-4.52,18.37,18.37,0,0,1,7.2,1.39,14.67,14.67,0,0,1,9.14,14.22Zm21.21-1.89a18.63,18.63,0,0,0-1.79-7.49A10.23,10.23,0,0,0,324,253a8.46,8.46,0,0,0-4.65-1.39,9.39,9.39,0,0,0-7.28,3.6,16,16,0,0,0-3.71,9Z"
     id="path68" />
  <path
     class="cls-2"
     d="M355.28,251.28h12.36v1.85H355.28v28.31c0,3.4.58,5.84,1.75,7.29a6,6,0,0,0,2.42,1.9,7.7,7.7,0,0,0,3.25.68,6.8,6.8,0,0,0,3.64-.9,12.63,12.63,0,0,0,3.2-3.28l.72.63a10.07,10.07,0,0,1-4.5,4.33,16.38,16.38,0,0,1-7.22,1.41q-5.73,0-8.36-2.24a5.31,5.31,0,0,1-1.85-2.79,26.28,26.28,0,0,1-.44-5.86V253.13h-5.21v-.78a13.66,13.66,0,0,0,5.85-3.94,19.78,19.78,0,0,0,2.59-3.57,25.94,25.94,0,0,0,1.86-4.6l.49-1.61h1.81Z"
     id="path70" />
  <path
     class="cls-2"
     d="M381.11,251.28h12.36v1.85H381.11v28.31c0,3.4.58,5.84,1.75,7.29a6,6,0,0,0,2.42,1.9,7.7,7.7,0,0,0,3.25.68,6.82,6.82,0,0,0,3.64-.9,12.63,12.63,0,0,0,3.2-3.28l.72.63a10.07,10.07,0,0,1-4.5,4.33,16.41,16.41,0,0,1-7.22,1.41c-3.83,0-6.61-.75-8.37-2.24a5.35,5.35,0,0,1-1.84-2.79,25.67,25.67,0,0,1-.44-5.86V253.13h-5.21v-.78a13.57,13.57,0,0,0,5.84-3.94,19.38,19.38,0,0,0,2.6-3.57,25.94,25.94,0,0,0,1.86-4.6l.49-1.61h1.81Z"
     id="path72" />
  <path
     class="cls-2"
     d="M436,287.91l.83.48q-1.76,5.12-8,5.11a9.4,9.4,0,0,1-5.75-1.7,13.12,13.12,0,0,1-3.12-3.89,32.2,32.2,0,0,1-4.92,3.84,14.91,14.91,0,0,1-7.35,1.75c-3.57,0-6.41-.86-8.5-2.58A8.5,8.5,0,0,1,396,284a9.43,9.43,0,0,1,2.57-6.76,11.58,11.58,0,0,1,3.36-2.41,32.27,32.27,0,0,1,5.5-1.83q4.23-1.07,6.25-1.8a12.9,12.9,0,0,0,3.38-1.75,5.82,5.82,0,0,0,2.14-2.62,12,12,0,0,0,.58-4.19q0-5.69-2.14-8.31a7.07,7.07,0,0,0-2.5-2,7.33,7.33,0,0,0-3.19-.73,6.33,6.33,0,0,0-3.55,1,6.25,6.25,0,0,0-2.34,2.82l-1.21,2.82a3.51,3.51,0,0,1-3.5,2.29,3.82,3.82,0,0,1-2.78-1.09,3.72,3.72,0,0,1-1.12-2.75c0-1.66,1.17-3.05,3.51-4.19a21.53,21.53,0,0,1,4.7-1.43,28.26,28.26,0,0,1,5.49-.56,27,27,0,0,1,6.28.78,21.67,21.67,0,0,1,5.46,2,7.73,7.73,0,0,1,3.94,4.67,21.49,21.49,0,0,1,.39,4.92v18a32.31,32.31,0,0,0,.39,6.23q.83,3.45,4,3.45a4.48,4.48,0,0,0,2.36-.53A8.45,8.45,0,0,0,436,287.91Zm-16.1-19.17a33.13,33.13,0,0,1-5.77,3.85,52.58,52.58,0,0,0-4.9,2.86,13,13,0,0,0-2.47,2.34,10.14,10.14,0,0,0-2.28,6.57,7.93,7.93,0,0,0,1.77,5.3,5.62,5.62,0,0,0,4.48,2.09,7.66,7.66,0,0,0,4.49-1.48,9.19,9.19,0,0,0,3.18-4c1-2.17,1.5-5.32,1.5-9.43Z"
     id="path74" />
  <path
     class="cls-2"
     d="M451.11,256.67a18,18,0,0,1,3.88-3.74,16.34,16.34,0,0,1,8.94-2.38,19.15,19.15,0,0,1,12.87,4.71q6.79,5.79,6.8,16.33t-6.52,16.62q-5.64,5.3-14.45,5.29a21.49,21.49,0,0,1-7.83-1.26l-2.72-1.12a5.62,5.62,0,0,0-2-.44q-2.49,0-4.38,4h-1.95V237.66q0-5.44-1.72-7.81c-1.16-1.57-3.09-2.36-5.82-2.36v-1.16l14.89-2.05Zm0,14.72a72.63,72.63,0,0,0,.58,9.58,24.07,24.07,0,0,0,1.5,6.36,8.55,8.55,0,0,0,3.32,3.74,9.32,9.32,0,0,0,5,1.36q5.91,0,9.76-5.63t3.86-14.34a29.42,29.42,0,0,0-1.26-8.67,20.51,20.51,0,0,0-3.59-7,13.47,13.47,0,0,0-4.07-3.62,9.2,9.2,0,0,0-4.55-1.24,8.82,8.82,0,0,0-5.23,1.73,10.28,10.28,0,0,0-3.59,4.49Q451.11,262.26,451.11,271.39Z"
     id="path76" />
  <path
     class="cls-2"
     d="M488.41,226l14-1.76v54.25l.05,3.69a21.51,21.51,0,0,0,.39,4.84,5,5,0,0,0,1.51,2.55q1.36,1.32,5,2v1h-21.5v-1a12.32,12.32,0,0,0,4.18-1.09,5,5,0,0,0,2.05-2.4,10.92,10.92,0,0,0,.75-3.38q.22-2.25.22-6.53V240.07a69,69,0,0,0-.24-7,7.6,7.6,0,0,0-1.08-3.3,5,5,0,0,0-2-1.95,9.16,9.16,0,0,0-3.36-.72Z"
     id="path78" />
  <path
     class="cls-2"
     d="M522.32,266.16c-.13,1.59-.2,2.74-.2,3.46a28.23,28.23,0,0,0,1.24,8.27,20,20,0,0,0,3.37,6.71,15.72,15.72,0,0,0,12.17,5.84,13.93,13.93,0,0,0,5-.88,10.65,10.65,0,0,0,3.91-2.43,13.75,13.75,0,0,0,3-5.45l1,.34a13.55,13.55,0,0,1-5.42,8.59q-4.15,2.89-11.06,2.89A25.18,25.18,0,0,1,525,291.6a18.27,18.27,0,0,1-7.25-5.83,21.9,21.9,0,0,1-4.13-13.53q0-10.94,7.83-17.17a20.34,20.34,0,0,1,13-4.52,18.37,18.37,0,0,1,7.2,1.39,14.67,14.67,0,0,1,9.14,14.22Zm21.21-1.89a18.45,18.45,0,0,0-1.8-7.49,10.13,10.13,0,0,0-3.48-3.77,8.48,8.48,0,0,0-4.65-1.39,9.4,9.4,0,0,0-7.29,3.6,16.06,16.06,0,0,0-3.7,9Z"
     id="path80" />
  <text
     class="cls-3"
     transform="translate(209.84 493.03)"
     id="text82">DOK</text>
  <text
     class="cls-4"
     transform="translate(209.84 493.03)"
     id="text84">DOK</text>
  <text
     class="cls-5"
     transform="translate(108.92 493.03)"
     id="text86">K</text>
  <text
     class="cls-6"
     transform="translate(108.92 493.03)"
     id="text88">K</text>
</svg>
