<svg id="Layer_1" data-name="Layer 1" xmlns="http://www.w3.org/2000/svg" xmlns:xlink="http://www.w3.org/1999/xlink" viewBox="0 0 680.19 384.08"><defs><style>.cls-1{fill:url(#New_Gradient_Swatch_1);}.cls-2{fill:url(#New_Gradient_Swatch_1-2);}.cls-3{fill:url(#New_Gradient_Swatch_1-3);}.cls-4{fill:url(#New_Gradient_Swatch_1-4);}.cls-5{fill:url(#New_Gradient_Swatch_1-5);}.cls-6{fill:url(#New_Gradient_Swatch_1-6);}.cls-7{fill:url(#New_Gradient_Swatch_1-7);}.cls-8{fill:url(#New_Gradient_Swatch_1-8);}.cls-9{fill:#2e67b1;}.cls-10{fill:url(#radial-gradient);}.cls-11,.cls-12,.cls-13{fill-rule:evenodd;}.cls-11{fill:url(#New_Gradient_Swatch_2);}.cls-12{fill:url(#New_Gradient_Swatch_2-2);}.cls-13{fill:url(#New_Gradient_Swatch_2-3);}.cls-14{fill:#005193;}.cls-15{fill:#fff;}.cls-16{fill:#fddc0d;}.cls-17{fill:#06c;}.cls-18{fill:#51b8f2;}</style><radialGradient id="New_Gradient_Swatch_1" cx="297.04" cy="421.64" r="0.44" gradientTransform="matrix(1.16, 0.21, -0.19, 1.1, 40.61, -175.96)" gradientUnits="userSpaceOnUse"><stop offset="0" stop-color="#2e67b1"/><stop offset="0.31" stop-color="#255694"/><stop offset="0.69" stop-color="#2e67b1"/><stop offset="1" stop-color="#245592"/></radialGradient><radialGradient id="New_Gradient_Swatch_1-2" cx="354.55" cy="159.77" r="0.29" xlink:href="#New_Gradient_Swatch_1"/><radialGradient id="New_Gradient_Swatch_1-3" cx="355.35" cy="162.11" r="0.09" xlink:href="#New_Gradient_Swatch_1"/><radialGradient id="New_Gradient_Swatch_1-4" cx="430.7" cy="184.58" r="0.37" xlink:href="#New_Gradient_Swatch_1"/><radialGradient id="New_Gradient_Swatch_1-5" cx="209.42" cy="187.84" r="0.01" xlink:href="#New_Gradient_Swatch_1"/><radialGradient id="New_Gradient_Swatch_1-6" cx="473.82" cy="396.84" r="0.24" xlink:href="#New_Gradient_Swatch_1"/><radialGradient id="New_Gradient_Swatch_1-7" cx="484.33" cy="392.96" r="0.14" xlink:href="#New_Gradient_Swatch_1"/><radialGradient id="New_Gradient_Swatch_1-8" cx="432.43" cy="194.63" r="0.13" xlink:href="#New_Gradient_Swatch_1"/><radialGradient id="radial-gradient" cx="378.86" cy="220.47" r="232.24" gradientUnits="userSpaceOnUse"><stop offset="0" stop-color="#06c"/><stop offset="0.31" stop-color="#255594"/><stop offset="0.69" stop-color="#06c"/><stop offset="1" stop-color="#255493"/></radialGradient><radialGradient id="New_Gradient_Swatch_2" cx="571.93" cy="287.24" r="103.67" xlink:href="#radial-gradient"/><radialGradient id="New_Gradient_Swatch_2-2" cx="515.11" cy="172.12" r="68.75" xlink:href="#radial-gradient"/><radialGradient id="New_Gradient_Swatch_2-3" cx="253.41" cy="110.37" r="102.02" xlink:href="#radial-gradient"/></defs><title>Magic_991_rgb</title><path class="cls-1" d="M305.67,350.66a3.6,3.6,0,0,1,0,.56v0l.31.09a2.41,2.41,0,0,1,.59-1.06l0,0A8.29,8.29,0,0,1,305.67,350.66Z" transform="translate(-13 -10.73)"/><path class="cls-2" d="M422.26,74.51a2.62,2.62,0,0,0,.16.92A4.93,4.93,0,0,0,422.26,74.51Z" transform="translate(-13 -10.73)"/><path class="cls-3" d="M422.79,77.81l.07,0a1.61,1.61,0,0,1,0-.26.64.64,0,0,0-.06.18Z" transform="translate(-13 -10.73)"/><path class="cls-4" d="M506.29,118a3.27,3.27,0,0,1-.56.89,3.86,3.86,0,0,1,.72-.32C506.39,118.33,506.33,118.14,506.29,118Z" transform="translate(-13 -10.73)"/><path class="cls-5" d="M248.42,75v0Z" transform="translate(-13 -10.73)"/><path class="cls-6" d="M516.05,361.2c.13-.06.25-.12.39-.17-.21-.11-.4-.21-.59-.33C515.92,360.87,516,361,516.05,361.2Z" transform="translate(-13 -10.73)"/><path class="cls-7" d="M529,358.81c0,.08-.07.16-.11.23l.36.06Z" transform="translate(-13 -10.73)"/><path class="cls-8" d="M506.26,129.94l.18-.17h-.37Z" transform="translate(-13 -10.73)"/><path class="cls-9" d="M481.2,90.62c2.41.44,4.6-.57,4.89-2.26s-1.43-3.41-3.84-3.85-4.61.57-4.9,2.25S478.78,90.18,481.2,90.62Z" transform="translate(-13 -10.73)"/><path class="cls-9" d="M154.36,101.91c1.82.34,3.48-.43,3.7-1.7s-1.08-2.57-2.9-2.9-3.48.43-3.7,1.7S152.54,101.58,154.36,101.91Z" transform="translate(-13 -10.73)"/><path class="cls-9" d="M118.61,198.6c.39-2.26-1.92-4.58-5.17-5.17s-6.18.76-6.57,3,1.92,4.58,5.16,5.17S118.22,200.87,118.61,198.6Z" transform="translate(-13 -10.73)"/><path class="cls-9" d="M174.22,310.51c-2.77-.51-5.29.65-5.62,2.59s1.64,3.92,4.41,4.43,5.29-.66,5.63-2.59S177,311,174.22,310.51Z" transform="translate(-13 -10.73)"/><ellipse class="cls-9" cx="285.19" cy="42.5" rx="0.94" ry="1.35" transform="translate(176.44 303.76) rotate(-79.08)"/><path class="cls-9" d="M294.65,40.71c2.43.45,4.65-.57,4.94-2.27s-1.45-3.45-3.88-3.89-4.65.57-4.94,2.27S292.21,40.27,294.65,40.71Z" transform="translate(-13 -10.73)"/><path class="cls-9" d="M115.92,182.29c5.19,1,9.91-1.23,10.53-4.85s-3.08-7.34-8.27-8.29-9.91,1.22-10.53,4.85S110.73,181.34,115.92,182.29Z" transform="translate(-13 -10.73)"/><path class="cls-9" d="M462.48,376c.52.09,1-.12,1-.48s-.31-.73-.82-.83-1,.12-1,.48S462,375.89,462.48,376Z" transform="translate(-13 -10.73)"/><path class="cls-9" d="M170.45,319.64c-2.22-.4-4.25.53-4.51,2.08a2,2,0,0,0,.11,1.09c-1.29-.13-2.41.44-2.56,1.36a1.32,1.32,0,0,0,0,.56,2.4,2.4,0,0,0-.57,1.15c-.29,1.7,1.44,3.43,3.87,3.87s4.62-.57,4.92-2.26a2.68,2.68,0,0,0-.7-2.14c1.55-.15,2.76-1,3-2.15C174.27,321.64,172.68,320.05,170.45,319.64Z" transform="translate(-13 -10.73)"/><path class="cls-9" d="M399.9,378.57a1.77,1.77,0,0,0-1,.09,5.54,5.54,0,0,0-1-.59A1.51,1.51,0,0,0,397,377c.92,0,1.67-.48,1.78-1.17.15-.85-.71-1.71-1.92-1.93s-2.31.28-2.46,1.13.47,1.42,1.37,1.77a1.4,1.4,0,0,0-1.15.65c-1.78.15-3.2,1.07-3.46,2.41-.62,0-1.15.23-1.23.67s.42,1,1.13,1.13a1.37,1.37,0,0,0,.45,0,5.36,5.36,0,0,0,3.7,2.33c2.56.47,4.88-.6,5.19-2.39a2.37,2.37,0,0,0-.1-1.15,1,1,0,0,0,.8-.68C401.21,379.26,400.66,378.71,399.9,378.57Z" transform="translate(-13 -10.73)"/><path class="cls-9" d="M393.83,384.41c-1.22-.23-2.33.29-2.48,1.14s.73,1.73,1.95,1.95,2.33-.29,2.48-1.14S395.06,384.63,393.83,384.41Z" transform="translate(-13 -10.73)"/><path class="cls-9" d="M313.28,375.51a1,1,0,0,0-.71.12,5,5,0,0,0-3.43-2.38,4.82,4.82,0,0,0-5.67,3.87c0,.14,0,.27-.05.41a4.64,4.64,0,0,0-2.55-1.41,4.43,4.43,0,0,0-5.2,3.55,4.53,4.53,0,0,0,3.7,5.17,4.41,4.41,0,0,0,5.19-3.54,1.52,1.52,0,0,0,0-.21,5.06,5.06,0,0,0,2.92,1.67,4.77,4.77,0,0,0,5.53-6.07l0,0c.47.08.9-.12.95-.45S313.75,375.6,313.28,375.51Z" transform="translate(-13 -10.73)"/><path class="cls-9" d="M240.68,340.46c-.47-.09-.89.11-1,.44s.28.66.75.75.89-.11,1-.44S241.15,340.54,240.68,340.46Z" transform="translate(-13 -10.73)"/><path class="cls-9" d="M145.69,314.57c-2.13-.39-4.06.5-4.32,2s1.27,3,3.39,3.39,4.06-.5,4.32-2S147.82,315,145.69,314.57Z" transform="translate(-13 -10.73)"/><path class="cls-9" d="M147.87,309.52c-2-.36-3.79.47-4,1.85s1.17,2.8,3.16,3.16,3.78-.46,4-1.85S149.85,309.88,147.87,309.52Z" transform="translate(-13 -10.73)"/><path class="cls-10" d="M651.4,226.69c1.93-3.13,3.55-6.72,5.81-9.4a4.42,4.42,0,0,1-.55-5.71c-1.93-2.49-3.84-5.32-4.36-7.9-1.31-.48-1.55.53-2.71.25-1-1-2-2-2-3.73-3.93,1.24-7.9.32-11.9.44-.69.37-.47,2-1.17,2.4a9.91,9.91,0,0,0-3.09.19c-1,.29,0,1.84-.68,1.74l-.15,0a8.52,8.52,0,0,0-2.06-.92,7.42,7.42,0,0,0,1.65-3.52,7.63,7.63,0,0,0-.93-5.06,7.77,7.77,0,0,0,6-6.18,7.62,7.62,0,0,0-.55-4.34,15,15,0,0,0,1.79-2.43,31.27,31.27,0,0,1,.32-6.3c-1.15-3.91-4.85-6.08-6.77-9.46-1,1.33-3.75.59-4.87-.51-4.51,1.32-9,2.74-11.17,7.3-5.54-1-4.81-6.31-8-8.94,1.94-5.23,4.45-9.66,6.69-14.48-3.09,1.65-4.87,5.9-6.43,10.79-1.61.15-2.82.86-4.38,1.07-.78-1.07-2.3-1.63-2.09-3.37.2-1.37,1.58-1.09,1.91-2.27-4.37-.32-11.35-1.19-9.72-7.76-2-1-1.66,1.28-3.21.91-3.08-3.15-2.08-13.6.58-16.71,1.75,3.1.72,7.33,5.17,7.67s6.27-5.63,4-9.74c-3.57-1.92-6.54-4.9-9.37-1-3.33-4.09.55-11.84,4.59-13.36,1.57-.06,3.11-.15,3.7-1.57-.28-.14-.38-.38-.24-.79-1.2-1-4-.92-5.86-1.45-.7-2-1.91-3.6-1.59-6.27,1.23-1,4.54-1.43,4-3.38-1.29,1.67-5.41,1.47-7.21-.19a33.23,33.23,0,0,0-.12-3.77c-2.5-1.45-4.21-4.18-7.7-4-.76-1.29.13-3.71-1.1-4.69-2.11-.55-1.9,2.14-4.07,1.51-.67-1.25,1.1-4.17-1.16-4.33-1.57.2-1.35,2.91-2.54,3.65-3.22.23-4.88-1-7.76-1.42-.34-.62-.2-1.57-.8-2-.33.6.83,1.7-.31,1.81-1.54-.34-1.39-1.83-3.51-1.76-.23,1.55.29,2.79-.68,4-7.18-.88-9,5.69-13.34,8.78-4.66,0-7.23-3.16-10.1-3.34,1.18,1,3.28,1.39,3.69,2.92-.94.82-2.93.87-2.34,2.56,2.33.57,3.31-.76,4.81-1.36,1,1,3.46,1,3.75,2.55,0,2.79-1.82,3.15-3,4.31,0,1.82,1.09,2.88.68,5-.51,1.4-2.83.24-3,2.07a.89.89,0,0,0,.27.78,8.38,8.38,0,0,0-1.55-.1c1.57.66,2.89,1.51,4.33,2.27-.13,1.91-.74,2.3-1.27,4.47,2.37,1.15,4.43,2.52,3.56,5.89a9.83,9.83,0,0,1,3.32,1.65c-1.07,1.65-2.08,3.34-3,5v0c-1.92-.28-2-1.83-2.52-3.07-2-.12-3.2-.8-3.45-2.13-.06-2,1.16-2.27,1.43-3.85-1.89.5-3.47,1.45-5.92,1.16-1.43-1.47-2.22-3.39-5.91-3.32a2.64,2.64,0,0,1-1.34,1.52c-.07-.15-.13-.31-.21-.45a3.76,3.76,0,0,0,.13-.48c0-.06,0-.12,0-.17a2.53,2.53,0,0,0,1.67-1.94,2.63,2.63,0,0,0-2.15-3,2.55,2.55,0,0,0-2.46.9l-.1,0a3.61,3.61,0,0,0-4.26,2.91,4,4,0,0,0,0,.49,4.52,4.52,0,0,0-1.56,2.69,5.48,5.48,0,0,0,0,.57,7.23,7.23,0,0,0-.09,1.86,8.87,8.87,0,0,0-2.52-1,3.37,3.37,0,0,0-2.35-1.7,3.26,3.26,0,0,0-3.64,2,1.94,1.94,0,0,0-1.6-2.06,1.89,1.89,0,0,0-2.23,1.52,1.91,1.91,0,0,0,.16,1.11,9.14,9.14,0,0,0-2.7-1,8.84,8.84,0,0,0-5,.54,8,8,0,0,0-2.23-6.55,6.32,6.32,0,0,0-1.6-4.54,4.72,4.72,0,0,1,2.24,1.08,16,16,0,0,1,1.41-.76,3.66,3.66,0,0,0,2.53,1.83,3.71,3.71,0,0,0,1.79-.14,3.58,3.58,0,0,0,1.66.8,3.39,3.39,0,0,0,2.23-.35,3.73,3.73,0,0,0-.94,1.89,4,4,0,0,0,3.25,4.54,3.88,3.88,0,0,0,4.43-2.66c.23.07.47.12.71.17a7.2,7.2,0,0,0,8.47-5.79,7.38,7.38,0,0,0-6-8.43,7.2,7.2,0,0,0-8.47,5.78c0,.05,0,.09,0,.13a3.55,3.55,0,0,0-.75-1c1.29-.42,1.32-2.24,3.25-3.44-.24-.67-1-1.22-1-2,3-2.8.39-4.52,1-6.85,2.18-1.55,4.57-1.41,5.24-4.48-1.75-1-2.52,2.49-4.13,2.13-2.19-3-4.92-6-6.57-9.12a4.62,4.62,0,0,1-5.54-1.86c-3.06.72-6.43,1.28-9,.68-.95,1-.1,1.62-.8,2.56-1.33.5-2.67,1-4.26.29a18.68,18.68,0,0,1-2.15,6.66A1.93,1.93,0,0,0,481,99a5.31,5.31,0,0,0-3.52-2.38l-.41,0a9,9,0,0,0-4.24-2,8.78,8.78,0,0,0-1-.12,8.15,8.15,0,0,0-5.1-7.68A7.58,7.58,0,0,0,463,84.91a7.41,7.41,0,0,0-6.32,1.79,6.12,6.12,0,0,0-3.37-1.86,5.89,5.89,0,0,0-6.93,4.73,5.55,5.55,0,0,0-.07,1.07,5.55,5.55,0,0,0-1.24.79,3,3,0,0,0-.68.43,8.2,8.2,0,0,0-2.47-.9,7.64,7.64,0,0,0-8.44,4.45,1.56,1.56,0,0,0-1.42,1.27,1.59,1.59,0,0,0,.83,1.65,7.33,7.33,0,0,0,.09,1.15,2.4,2.4,0,0,0-.44,1,2.63,2.63,0,0,0,2.15,3,1.14,1.14,0,0,0,.26,0c.88,1-2.56.86-1.27,1.29-3.1-.45-1.66-.11-4.77-.62a4.5,4.5,0,0,0-3.69-4,4.39,4.39,0,0,0-4.87,2.61l-1-.17a6.69,6.69,0,0,0-2.14-4.51A7.1,7.1,0,0,0,420,93.53,7.42,7.42,0,0,0,414,85.05h-.12c.37-.83-.43-1.42.68-2.39a4.22,4.22,0,0,1,2.46-.4,2.85,2.85,0,0,0-.14.5A3,3,0,0,0,419,86.09a2.51,2.51,0,0,0,2.06,2.68,2.39,2.39,0,0,0,1.13-.07,1.85,1.85,0,0,0,1.52,2,1.81,1.81,0,0,0,2.12-1.45,1.85,1.85,0,0,0-1.51-2.11,1.93,1.93,0,0,0-.48,0,3.18,3.18,0,0,0,.09-.33,2.48,2.48,0,0,0-1.34-2.61,2.24,2.24,0,0,0,.1-.37,3,3,0,0,0-2.44-3.41,2.88,2.88,0,0,0-1.17,0c1.2-1.2,2.68-1.13,4-1.83a1.42,1.42,0,0,0-.12-.4,2.6,2.6,0,0,0,1.05-.48c-.31-.36-.56-.67-.79-1-.14.29-.29.59-.38.84a1.61,1.61,0,0,0,0,.26l-.07,0v0a1.72,1.72,0,0,0-.92-.27,3.12,3.12,0,0,0,.57-2.09,2.62,2.62,0,0,1-.16-.92,5.76,5.76,0,0,1-.34-2.83c2.19-1.56,4.57-1.41,5.24-4.48-1.75-1-2.52,2.49-4.12,2.13-2.2-3-4.93-6-6.57-9.12a4.62,4.62,0,0,1-5.54-1.86l-.85.19a6.24,6.24,0,0,0,.13-2.14c3.14.37,3.19-3.7,1.59-5.1-2-1.77-4.19.27-6.15-.95-3.81,3,.67,5.81,1.82,8.68a15.59,15.59,0,0,1-5.58,0c-.95,1-.1,1.62-.79,2.55a8.29,8.29,0,0,1-5.4.09c-.34,4-.79-3.89-2.2-.23.08.76,1.63,1.24,1.78,2,0,0,0,.08,0,.13a8.62,8.62,0,0,0-.85,2.28c-.79.28-1.61.43-2.39.75a6.79,6.79,0,0,0,1.12-2.74,7.18,7.18,0,0,0-5.86-8.2h0a8.93,8.93,0,0,0-11.72-4.8,8.37,8.37,0,0,0-4.44-2.37,8.17,8.17,0,0,0-4.87.61,4.06,4.06,0,0,0-4.3,3,13.44,13.44,0,0,1-2.21.39,2.33,2.33,0,0,1-.3,2.44,2.48,2.48,0,0,0-2-2,2.4,2.4,0,0,0-2.82,1.93,2.45,2.45,0,0,0,2,2.8,2.51,2.51,0,0,0,.67,0c-.07.67-.12,1.34-.16,2a3.22,3.22,0,0,0-.65.68,8.16,8.16,0,0,0-1.13-.31,6.92,6.92,0,0,0-5.86,1.62,9,9,0,0,0-4.2-2.4A7.5,7.5,0,0,0,346.72,56a8.06,8.06,0,0,0-12.57-7.83h-.1a7,7,0,0,0-3.67-1.9,6.65,6.65,0,0,0-6.05,11.2,11.69,11.69,0,0,1-2.69-.19,2.77,2.77,0,0,0,.52-1.2,3,3,0,0,0-2.46-3.45,2.91,2.91,0,0,0-3.2,4.13l-.06,0c-2.84-.52-4-7.6-4.48-4.82a5.13,5.13,0,0,0,.88,3.83A3.4,3.4,0,0,0,311,60.8c-.92,1.15-1.16,2.52.07,4.5-5.09,1.32-10.85-5.37-10.74-9.65.55-1.44,1.05-2.87-.05-4-.23.19-.5.18-.83-.11a6.61,6.61,0,0,0-2.19,2.58l-.2-.31a34,34,0,0,1-5.76-2.88,9.18,9.18,0,0,0-2.4,0,1.43,1.43,0,0,0-1.12-.86,2.61,2.61,0,0,1,.29,1c-2.77.5-5.35,1.85-8.18,2.1.6,1-.06,2.34-1,3.26-1.76.87-3.49,1.76-4.29,4-1.49.16-3.42-1.64-4.79-.94-1.21,1.53.84,2.44.12,3.88a5.37,5.37,0,0,0-1.55,0c-1.19-.66-2.47-1.74-3.2-.3a1.58,1.58,0,0,0,.53,1.5,5.35,5.35,0,0,0-.91,1,9,9,0,0,0-3.68-1.59,9.32,9.32,0,0,0-1.56-.14,1.53,1.53,0,0,0-.5-.32c-.43-.49-.86-1-1.31-1.47a.29.29,0,0,1,0,.09,6.61,6.61,0,0,0-3.31-1.67,6.51,6.51,0,0,0-4.37.73,3.37,3.37,0,0,0,.1-.34,3,3,0,0,0-2.46-3.44,2.93,2.93,0,0,0-3.46,2.36,2.63,2.63,0,0,0,0,.49,8.43,8.43,0,0,0-4.82,1,7.36,7.36,0,0,0-2.64-3,14.65,14.65,0,0,0,2.39-.59,4.43,4.43,0,0,0,.65.18,4.16,4.16,0,0,0,2.92-.54l.18.05a1.86,1.86,0,0,0,2.22-1.46,1.83,1.83,0,0,0-.63-1.7,4,4,0,0,0-3.39-3.92,4,4,0,0,0-4.46,2.35c-.8.53-1.59,1.19-2.39,1.84a5.18,5.18,0,0,0-4-3.45,5,5,0,0,0-5.15,2.12,3.32,3.32,0,0,0-1.18-.47,2.94,2.94,0,0,0-3.51,2.3,3,3,0,0,0,2.53,3.4,3.39,3.39,0,0,0,1.1,0c-.94,1.09-2,2.16-2.85,3.3a7.2,7.2,0,0,0-2.45-1,6.83,6.83,0,0,0-5,1,6.86,6.86,0,0,0-3.8-2.1,6.67,6.67,0,0,0-3.09.17,1.52,1.52,0,0,0-.38-.11,1.67,1.67,0,0,1,.08.2,6.44,6.44,0,0,0-4.29,5c0,.21,0,.42-.06.64-.74-.3-1.47-.56-2.21-.84-2.31,1.65-5.51,2.07-6.68,5.29-1.5.16-3.42-1.64-4.8-.94-1.32,1.68,1.27,2.6-.15,4.3-.77,0-1.74-.77-2.62-1.19a8.85,8.85,0,0,0-4.87-2.64A8.67,8.67,0,0,0,173,72a8.58,8.58,0,0,0-6.23,6.75,7.28,7.28,0,0,0-.89,1.16,19.22,19.22,0,0,0-1.94-5.63A21.68,21.68,0,0,0,165.27,81a7.52,7.52,0,0,0-.48,1.59,7.79,7.79,0,0,0,13,6.9,7.23,7.23,0,0,0,1.77,2.24l-.93,0a4.43,4.43,0,0,0-1.76,2.5A8.48,8.48,0,0,0,174.94,98a4.16,4.16,0,0,0-2,2.76,4.62,4.62,0,0,0,1.57,4c-4.59-.64-8.65,1.34-9.21,4.57s2.86,6.8,7.67,7.68c.37.06.75.11,1.12.14a1.78,1.78,0,0,0-.73,1.12,2.52,2.52,0,0,0,1.74,2.48,4.13,4.13,0,0,0-.66,1.61,4.81,4.81,0,0,0,1.35,4,3.29,3.29,0,0,0-.84,3.77c-2.62-.37-4.95.75-5.27,2.59a3,3,0,0,0,0,.6,5.48,5.48,0,0,0-3.74,4,4.9,4.9,0,0,0,.81,3.5,4,4,0,0,0-2.95,2.93,2.92,2.92,0,0,0,0,.66h-.2a5.61,5.61,0,0,0-1.52-2.31c1.78-.21,3.17-1.17,3.4-2.54.32-1.84-1.56-3.73-4.2-4.21l-.24,0c.08-2-1.16-4-3.22-5.47,0-.11.06-.22.08-.33.53-3.06-2.6-6.2-7-7s-8.38,1-8.91,4.1a4.91,4.91,0,0,0,1.4,4.07,4.55,4.55,0,0,0-.79,1.88,5,5,0,0,0,.22,2.4c-2.86-.14-5.28,1.18-5.64,3.24-.32,1.91,1.22,3.82,3.6,4.8-3.17.11-5.73,1.69-6.13,4-.5,2.89,2.45,5.84,6.59,6.6a9.36,9.36,0,0,0,5.47-.54c3.41.33,6.39-1,7.19-3.32a10.29,10.29,0,0,0,1.5.38c.2,0,.4,0,.6.08a6.17,6.17,0,0,0,2.37,3.77,4.21,4.21,0,0,0-2.32,1.31,5.85,5.85,0,0,0-3.24-1.66c-2.61-.48-5,.61-5.29,2.43a2.46,2.46,0,0,0,.08,1.08c-4.45-.74-8.45,1.14-9,4.26s2.69,6.4,7.22,7.22c.12,0,.24,0,.37.06-.29,1.9.75,3.81,2.59,5.23,0,0,0,0,0,0a4.92,4.92,0,0,0,.17,2.25,8.92,8.92,0,0,0-1.5-.4,9.23,9.23,0,0,0-1.71-.16,6.82,6.82,0,0,0-2.58-.8,8.61,8.61,0,0,0,1.39.86c-2.63.3-4.68,1.72-5,3.75a4.31,4.31,0,0,0,1.21,3.59,3.28,3.28,0,0,0-.28.87,3.77,3.77,0,0,0,.15,1.79,6.83,6.83,0,0,0-4.7,2.78c-2.18.75-3.76,2.22-4.09,4.14-.38,2.25,1,4.54,3.47,6.06a3,3,0,0,0-.75,1.51,2.09,2.09,0,0,0,0,.25l-.16,0a5.75,5.75,0,0,0-1.94,0,2.32,2.32,0,0,0-1.89-1.42c-1.22-.23-2.32.28-2.46,1.13s.67,1.65,1.82,1.9a2.45,2.45,0,0,0-.18.54c-.27,1.61,1.36,3.24,3.66,3.66,2,.36,3.79-.3,4.43-1.52a7.62,7.62,0,0,0,1.77.55,7.72,7.72,0,0,0,3.19-.07,5.79,5.79,0,0,0-3.29,3.43,3.37,3.37,0,0,0-.74.44A10.75,10.75,0,0,0,133,206.2c-4.67-.85-8.92,1.11-9.48,4.37-.43,2.5,1.43,5,4.42,6.48a4.53,4.53,0,0,0-1,2.12.49.49,0,0,0,0,.12,4.28,4.28,0,0,0-1.28,2.36c-.54,3.11,2.64,6.3,7.11,7.12a10.19,10.19,0,0,0,5.95-.61,8.76,8.76,0,0,0,.71,1.8.28.28,0,0,1,0,.09c-.12.18-.23.37-.34.56l-.23-.07c-1-.19-1.94.24-2.07,1a1.25,1.25,0,0,0,.55,1.15,5.45,5.45,0,0,0-1.28,1.72c-3.53-2.05-7-4.13-11.66-3.43-4.22,9.55,14.59,10.85,14,18.26-.35,4.58-4.26,2.44-7.4,3.13.4,3,5.17,1.62,6.22,3.75-.38,3.22-3.53,2.57-5.56,3.48,0,3.64-2.94,3.37-4.75,5.48.31,1.15,1.54,1.68,2.59,2.33,0,0,0,.05,0,.08a3.53,3.53,0,0,0,.9,2.84c-2.51,2.69-6.11,7-9.9,3.3-2.4,1.28-3.56-.71-4.93-2.39-1.59,1.37-2.9.26-4.87-.52-3,2.68-9.36,4-8.15,9.73-.37,1.42-1.81,1.36-2,3,2.35,2.55,1.91,7,5.78,8.53l-.25,1.45c2,1,1.67.71,3.82-.05,1.21,1.27,2.34.68,3.51,1.76.9-1.45,2.15-2.4,4.81-1.36,1.81-2.77,5.73-4.33,6.37-8.19.34-2-1.47-4.43.26-5.93,4.58,6.75,17.91,4,25.64,6.16a6.15,6.15,0,0,0-1,2.4,6.07,6.07,0,0,0,.22,2.91c-.62.91-1.24,1.84-1.79,2.84l-.21,0c0-.38,0-.76-.08-1.12-1-.62-1.14-1.89-2.24-2.46,1.57-.28,2.95-.83,3.33-2.76-3.67-2.68-5.05,3.89-9.13,2.07-1.17,1.75-3.49,3.05-2.69,5.68-.3.39-1,.24-1.11.92.42.19,1.38,0,1.45.45-.16.65-.37.65-.22,1.27,1,.18,1.39,1.25,2.37,1.74s2.29.25,2.83,1.26c.46-.63,1.27-.67,2.13-.17.51-1.46,2.38-1,2.6-2.89a1.08,1.08,0,0,0,.77-.05c.23-.53-.45-.44-.22-1s1-.26,1.11-.92l-.13-.1a16.29,16.29,0,0,0,2.53-2.52,5.79,5.79,0,0,0,.48.51,7.16,7.16,0,0,0,3.58,4.63,5.14,5.14,0,0,0-4.35,4.08c2.87,1.14,6.56,0,7.71-2.7a.47.47,0,0,1-.29-.45,7.36,7.36,0,0,0,4.46-1.06,2.41,2.41,0,0,0-.16.54,3.16,3.16,0,0,0,1,2.82c.63,2.1,1.6,3.91,2.35,5.9.57,1.51-.06,3.38,2,3.73a1.85,1.85,0,0,1,1.29-.88c.66-2-.58-2.81.07-4.85,4.16-1.34,10.14,2.43,14,5.17.64-1.67.09-2.52,0-3.68.33.1.67.19,1,.26a8.11,8.11,0,0,0,5.07-.69,7.05,7.05,0,0,0,4.11.36c1.82,1.64,2.16,4.29,4.8,5.37,2.11,2.5,1.75,6.69,4.6,8.69.52-2.46-.67-3-1.47-4.76a32.86,32.86,0,0,1-1.19-3.49,9.43,9.43,0,0,0,3,2,9.28,9.28,0,0,0,7.8,9.24c.36.06.72.1,1.08.13a4.27,4.27,0,0,0-.29.94,4.61,4.61,0,0,0,3.85,5.18,4.36,4.36,0,0,0,3-8.13,7.85,7.85,0,0,0,1.42-1.46,5.9,5.9,0,0,0,1.23,1.58,1.6,1.6,0,0,0-.72,1c-.18,1.05.9,2.13,2.4,2.4s2.87-.35,3.05-1.4a1.34,1.34,0,0,0,0-.49,5.74,5.74,0,0,0,1.18-.24,4.88,4.88,0,0,0,1.18.69,7.32,7.32,0,0,0,.89,2,3.2,3.2,0,0,0-2.82,2.33,2.87,2.87,0,0,0,1.06,2.57,4.47,4.47,0,0,0,3.49,3.28,9.77,9.77,0,0,0,2.88,1.79c1.54-.26,3.09-.47,4.63-.7a8.92,8.92,0,0,0,4.18,2,8.47,8.47,0,0,0,8.49-3.32,2.64,2.64,0,0,0-.13.46,5.47,5.47,0,0,0,8.68,5.22,5.09,5.09,0,0,0,4.1.44,5.65,5.65,0,0,0,4.27,3.54,5.52,5.52,0,0,0,5.78-2.64,2.68,2.68,0,0,0,.62.59,3.75,3.75,0,0,0-.88,1.81,3.89,3.89,0,0,0,.86,3.12,5.42,5.42,0,0,0-1,2.37,5.86,5.86,0,0,0,4.78,6.69c.22,0,.43,0,.64.06a8.46,8.46,0,0,0-.23.9,6.63,6.63,0,0,0-.09,1.4,2.4,2.4,0,0,0-1.39,1.67c-.26,1.52,1.29,3.07,3.46,3.47.24,0,.49.06.73.08a7,7,0,0,0,2.94,1.28,6.74,6.74,0,0,0,7.93-5.42v0a6.85,6.85,0,0,0,3-4.54,6.42,6.42,0,0,0,.09-.87,8.54,8.54,0,0,0,4.16-1.44,3.08,3.08,0,0,0,.42.47,5.76,5.76,0,0,0-1.63,3.12,6.36,6.36,0,0,0,5.31,7.16,6.5,6.5,0,0,0,5.48-1.49,7.68,7.68,0,0,0,.81.41,6.48,6.48,0,0,0-1.35,2.52,2,2,0,0,0-2.22,1.68,2.11,2.11,0,0,0,1.73,2.42,1.88,1.88,0,0,0,.71,0l0,.08a2.13,2.13,0,0,0-1.17,1.56,2.26,2.26,0,0,0,4,1.82,7.58,7.58,0,0,0,2.81,1.12,7.72,7.72,0,0,0,1.17.11,6.75,6.75,0,0,0-.38,1.33,7,7,0,0,0,1.13,5.1,3.1,3.1,0,0,0-1.34,2.07,3.28,3.28,0,0,0,2.67,3.75,3.2,3.2,0,0,0,3.77-2.57c0-.05,0-.1,0-.15a6.94,6.94,0,0,0,7.78-5.64l0-.32a6.55,6.55,0,0,0,3.19,1.55,6.44,6.44,0,0,0,3.47-.32,6.9,6.9,0,0,0-.75,2.17,7.2,7.2,0,0,0,.31,3.61c0,.19-.09.38-.13.58a8.82,8.82,0,0,0,7.21,10.07,8.6,8.6,0,0,0,10.12-6.91,8.5,8.5,0,0,0-1.13-5.85,40.59,40.59,0,0,1,6.57.51c2.13-3.62,4.64-6.69,8.88-7.35-1.87-3.63-.25-7.11,2.49-10-1.7-1.24-2.41-3.16-2.94-5.2a7,7,0,0,0,6.08-5.2,37.39,37.39,0,0,0,6.67,2.17,8.27,8.27,0,0,0,6.74,7.1,8,8,0,0,0,8.85-4.62l1.07.2a8.7,8.7,0,0,0,0,.89,6,6,0,0,0-4.45,4.78,6.26,6.26,0,0,0,9.27,6.41,6,6,0,0,0,4.81,4.59,5.82,5.82,0,0,0,6.85-4.68,5.71,5.71,0,0,0-.42-3.31,8.86,8.86,0,0,0,6.67-4.16,6.41,6.41,0,0,0,1.35-5.39l.35-.14a9,9,0,0,0,3.8,2.09,8.72,8.72,0,0,0-1.47,1.31,1.8,1.8,0,0,0-.33-.1c-2.77,0-1.93,5.09-2.85,7.7a3.21,3.21,0,0,1,1.35.52,9,9,0,0,0,7.06,6.33,9.46,9.46,0,0,0,1.39.13,8.65,8.65,0,0,0,5.42,3.1,10.41,10.41,0,0,0,1.33.15,5.25,5.25,0,0,0,3.52,2.15,3.91,3.91,0,0,0,.48.05,6,6,0,0,0,.71,2.23,3.33,3.33,0,0,0-.13.45,3.84,3.84,0,0,0,3.14,4.39,3.78,3.78,0,0,0,3.87-1.64,6.05,6.05,0,0,0,4.78-4.89,6.32,6.32,0,0,0-9.74-6.22c0-.13.07-.25.09-.38a3.61,3.61,0,0,0-.05-1.35,5.9,5.9,0,0,0,.54-1.58,6,6,0,0,0-4.94-6.9l-.24,0a8.94,8.94,0,0,0-1.26-2.94,7.86,7.86,0,0,0,3.14,1.29c3.22.59,6.14-.76,6.53-3s-1.82-4.44-4.93-5.08a7,7,0,0,0,2.75-4.46,4.1,4.1,0,0,0,.06-.49,3.14,3.14,0,0,0,2.54-1c.17,1.69.32,3.39,1.88,4.76-.32,1.19-2.31,2.08-2.16,3.36.93,1.55,2.43-.14,3.35,1.5-.34,1.11-3.17,1.78-1.9,3.19,1.06.8,2.56-.91,3.72-.65a11.17,11.17,0,0,1,2.72,3.62,2,2,0,0,0-.72,1.2,2.16,2.16,0,0,0,.41,1.62,2,2,0,0,0-.63,1.09,1.91,1.91,0,0,0,0,.63,2.42,2.42,0,0,0-1.83,1.78c-.25,1.43,1.2,2.88,3.24,3.25s3.81-.45,4.11-1.82H459c1.47.27,2.81-.34,3-1.37v-.14l.17.05a4.83,4.83,0,0,0,1.94-.05,10,10,0,0,0,1.53.18,2.67,2.67,0,0,0,.64.21,2.08,2.08,0,0,0,1.58-.27,23.56,23.56,0,0,1,5.3-.09c2.79,2.72,2.45,6.05,4.07,7.82-.1-1.27-1.14-2.72-.47-3.85,1.06.08,2.29,1.21,2.95-.12-1.06-1.68-2.45-1.48-3.71-2,0-1.16-1.39-2.57-.75-3.61a4.75,4.75,0,0,0,.55-.28,1.48,1.48,0,0,0-.08-.13c1.49-1.09,2.67-.42,4-.39,1.1-1.05,1.08-2.31,2.59-3.29,1.14-.52,1.85,1.51,3.06.56,1-.78-.64-2-.61-3,1.64-1.6,2.15-1.28,4-2.37-.52-1.45-.88-2.87-.13-4.1a2.16,2.16,0,0,0,3.37.05c1.92,2.12,5.32,1.87,5.5-3.6-1-2.14-5-2.88-6.66-1.21a5.79,5.79,0,0,0-.13,1.41h0a2.12,2.12,0,0,0-1.3.16,3.05,3.05,0,0,1,1.56-4c.31-.9-.66-2-.18-2.9.3.23,1.74.11,1.46-.62-1.46.37-2.36-1.62-2.69-3.18a1.87,1.87,0,0,0,1.61-.9c.24.27.49.53.73.78a3.46,3.46,0,0,0,.83,2.6c-.28,1.93,1.69,3.88,4.45,4.39a7.33,7.33,0,0,0,1.14.11c-.25,2.05,1.06,4.09,3.26,5.48a3.52,3.52,0,0,0-3.58,2.89,3.57,3.57,0,0,0,1.16,3.25s0,0,0,0a8.89,8.89,0,0,0,14.47,8.18,6.72,6.72,0,0,0,4.32,2.8,6.37,6.37,0,0,0,5.42-11.08,9.88,9.88,0,0,0,2.19-.52c.76,2.13,3.24,3.08,5.18,4.39a10.38,10.38,0,0,0-.17-6,5.6,5.6,0,0,0,8.4-3.72,5.67,5.67,0,0,0-4.63-6.48,5.56,5.56,0,0,0-6.26,3.54,9.21,9.21,0,0,0-2.82-2.22c-.25-1.23-.62-2.5-1-3.75l.29,0a7.41,7.41,0,0,0,3.68,0,2.56,2.56,0,0,1-.68-2.13s0-.08,0-.13a1.15,1.15,0,0,0,0-.26,3.66,3.66,0,0,0,0-1.58,6,6,0,0,1,2.51-1.85,6,6,0,0,0,1,.8,1.66,1.66,0,0,0,.38-1c2.11.11,3.92,1.87,6.15,1.25.75-1.34-.88-3.11-.13-4.45.51-.36,1-.73,1.53-1.08a6.59,6.59,0,0,0,2.17.28,2.18,2.18,0,0,0,.15-1.63,2.74,2.74,0,0,1,2.85.12c1,1.35,1.88,3,3.06,3.21,2.48-.26,1.77-1.43,3.13-2.86a1.94,1.94,0,0,1,.36.15l.84.72c.55.87.27,2.11.14,3.32,1.79.13,1.91,1.54,2.62,3.13,3.41.19,8,3.13,10.75-.91,1.08-.61,1.91.27,3-.55.12-2.85,3.07-5.19,1.65-8.32l1-.7c-.55-1.73-.57-1.38-2.33-2.19a2.57,2.57,0,0,0-.48-1.57,6.22,6.22,0,0,0,1.2-4c-1-2.14-5-2.88-6.65-1.22a6.29,6.29,0,0,0-.12,1.81c-.67,0-1.36,0-2.06-.05.48-1.18.62-2.59,1-3.23a29.55,29.55,0,0,1,6.57-6.76c7-4.44,10.79.68,12.06,7.23-.21.23-.41.45-.6.68.51,1.94-.9,3.52-.26,5.48-2.22-1.51-4.54-2.48-7.33-.68,1.2,7.39,10.76,1.35,13.48,8.21,3.51-.66,7.87.52,10.06-3.46a1.17,1.17,0,0,1,.56.07c1,1.63,3.13,2.5,4.83,3.65a9.21,9.21,0,0,0,.14-4.69,15.48,15.48,0,0,0,9.16-4.38c1.72-1.67,1.2-4.25,3.14-5.18,3.66-1.74,6.05,2.3,8.89.74-2.64-1.24-5.49-1.28-7.94-3.65-.48-5.4,3.52-10-1.71-16.23-2.56-1.46-4.26-1-5.53-4.54,1.86-1,4.92-1.32,2.48-4-4.64,1.68-9.84,4.64-14.43,0-1.65.89-3.57,3.28-4.81,1.77a24.93,24.93,0,0,0-2-6.81,20.48,20.48,0,0,1,2.79-.53,2,2,0,0,0,1.52.69,2.6,2.6,0,0,1-.59-.8c1.44-.16,2.91-.28,4.4-.56a6.4,6.4,0,0,0,3.61-1.08,15.62,15.62,0,0,0,4.59-3.14c1.73-1.67,1.2-4.25,3.15-5.17,2.59-1.24,4.55.43,6.48.95a6.1,6.1,0,0,0-2.11.3c-.37,5.06,4.29,8.23,8.24,5.24.18-2.57-2.2-4.83-5-5.4a2.85,2.85,0,0,0,1.25-.35c-2.64-1.25-5.49-1.29-7.93-3.66a10.23,10.23,0,0,1,0-1.46c1.53.44,3.39,1.41,3.71-.1,0-1.23-2.25-1.78-3.37-2.67a32.5,32.5,0,0,0,.68-4.51c.13-.25.27-.49.4-.75h0a3,3,0,0,0,3.54-2.32,2.86,2.86,0,0,0-.47-2.08,1.78,1.78,0,0,0,.46-1.16c-1.2-.42-2.27-.49-3.23-.88a7.29,7.29,0,0,0,.42-1.42,8.62,8.62,0,0,0,4.57.79,2.26,2.26,0,0,0-.5,1.07,2.47,2.47,0,0,0,.12,1.24,8.09,8.09,0,0,0-.61,4.91,1.52,1.52,0,0,0-1.6,1.21,1.61,1.61,0,0,0,1.34,1.8,1.64,1.64,0,0,0,1.25-.29,9.56,9.56,0,0,0,6.63,4.67,8.9,8.9,0,0,0,10.59-7,8.78,8.78,0,0,0-3.19-8.22,5.66,5.66,0,0,1,4.15-.37c.32-1.34-1.37-1.31-1.48-2.36-.06-2,1.14-2.3,1.57-3.65a14.24,14.24,0,0,1-.68-5.69c-1.19-.18-1.24-1.13-1.56-1.91-1.25-.07-2-.49-2.14-1.31,0-1.27.72-1.41.89-2.39-1.18.31-2.15.9-3.67.72-.68-.7-1.13-1.56-2.33-1.9a8,8,0,0,0,4.65-5.93,8.25,8.25,0,0,0-2.83-7.61,8.92,8.92,0,0,0-3-5.41,5.91,5.91,0,0,0,.82-2.13,6.84,6.84,0,0,0,.08-.91,8.17,8.17,0,0,0,1.31.36,8.54,8.54,0,0,0,3.23,0,4.45,4.45,0,0,1-.22,1.67c.24.16.47.33.69.5a7.8,7.8,0,0,0-3.17,2.34,6.18,6.18,0,0,0,4.37-1.34,6.62,6.62,0,0,1,2.23,5.61c1.76.65,1.33-1.74,3.21-.91.48,3.19,2.66,1.51,5.17,3.19.53-.47.72-1.4,1.42-1.62,3.84,1.63,4.38-1.37,6.79-1.75,2.35,1.38,3.2,3.59,6.34,3C655.33,227.64,651.73,228.28,651.4,226.69ZM506.29,118c0,.19.1.38.16.57a3.86,3.86,0,0,0-.72.32A3.27,3.27,0,0,0,506.29,118ZM202.06,303.82a5.53,5.53,0,0,0-1.18,1.65,4.64,4.64,0,0,0-2.35,3.16c0,.1,0,.19,0,.28-1.06-1.7-2.42-2.74-2.73-4a6.27,6.27,0,0,0,3.41-3.57c.57-.12,1.17-.23,1.77-.37a8,8,0,0,0,1.53,1.3,1.72,1.72,0,0,0-.7.12A1.64,1.64,0,0,0,202.06,303.82ZM248.42,75h0v0ZM314,66.33c.21,0,.42,0,.64,0-.06.22-.1.45-.14.67a.41.41,0,0,0,0,.16A5,5,0,0,1,314,66.33Zm1.87,2-.14.16c-.28-.26-.53-.52-.76-.78C315.48,67.91,316.12,67.93,315.9,68.31Zm4.67-8.54-.21.08a5.28,5.28,0,0,0-.89-1.4,3,3,0,0,0,1.46-.51C320.76,58.56,321.08,59.09,320.57,59.77ZM285.73,346.45a7.55,7.55,0,0,0-1.88.69,5.94,5.94,0,0,0-2.19-2,4.08,4.08,0,0,0-3.2-4.53c0-.05,0-.1.05-.15a8.59,8.59,0,0,0,1.43.05,8.09,8.09,0,0,0,6.22,1.43l.33.2a7.46,7.46,0,0,0-.71,2.12A7.84,7.84,0,0,0,285.73,346.45ZM352,63.86l.12-.14.18.1Zm-46,287.47-.31-.09v0a3.6,3.6,0,0,0,0-.56,8.29,8.29,0,0,0,.84-.43l0,0A2.41,2.41,0,0,0,305.94,351.33Zm20,19a7.41,7.41,0,0,0-2.19-1,5.32,5.32,0,0,0,2-3.28,4.63,4.63,0,0,0,.06-1.11,8.19,8.19,0,0,0,1.06-1.35,3.48,3.48,0,0,0,.72.6,8.44,8.44,0,0,0-1.57,3.63A8.82,8.82,0,0,0,325.92,370.3Zm53.6-302.91a8.2,8.2,0,0,0,1.32-.14h0C380.39,67.59,379.93,67.72,379.52,67.39Zm6.29,3.32a6.16,6.16,0,0,0-1.53-1.39c.21.06.41.13.62.17a7.2,7.2,0,0,0,1.12.11,2.59,2.59,0,0,0,.79.6A8.57,8.57,0,0,1,385.81,70.71Zm2.87-5.28a18.57,18.57,0,0,1,2.06,1.49c-.55.6-1.13,1.16-1.71,1.68C388.92,67.42,388.82,66.24,388.68,65.43Zm.49,4.58.05,0a2.76,2.76,0,0,1,.72,2.59C389.56,72.82,389.34,71.59,389.17,70Zm6.19,15.57a6.26,6.26,0,0,0-1.14-1.22c-.08-.44-.16-.87-.26-1.31a6.08,6.08,0,0,0,1.28-.28,4.51,4.51,0,0,0,.48.82,7,7,0,0,0,.26,1.22Zm.88,1.76a6.22,6.22,0,0,0-.52-1.22c.18-.18.37-.35.56-.51A6.43,6.43,0,0,0,397,86.9Zm2.11,7.42a4.2,4.2,0,0,0-1.09,2.17,3.58,3.58,0,0,0,0,.73c-1.5-3.14-.61-6.27,1.39-9.19a6.83,6.83,0,0,0,3.95,1.36A8.32,8.32,0,0,0,398.35,94.76Zm10.79-9a7.34,7.34,0,0,0,.36-1.06,5.87,5.87,0,0,1,2.07.28A7.29,7.29,0,0,0,409.14,85.78Zm32,20.28a8.06,8.06,0,0,0,2.09-.4c0,.23.08.46.13.69ZM431.4,359.3a8.55,8.55,0,0,0,2.29-2.39,7.52,7.52,0,0,0,1.89.64,3.11,3.11,0,0,0-.91,1.67,3.14,3.14,0,0,0,.35,2A9,9,0,0,0,431.4,359.3ZM480.27,108a7.63,7.63,0,0,0-1.07-.62,9.48,9.48,0,0,0,.7-1.7,4.85,4.85,0,0,0,1-1.07,1,1,0,0,1,.35.59A8.7,8.7,0,0,0,480.27,108Zm.66,17a6.16,6.16,0,0,0-1.35.39l.08-.15-.13-.1c-.17-1-.37-2-.58-3,.71-.53,1.47-1,2.24-1.47a4.29,4.29,0,0,0,.45,2.58A8,8,0,0,0,480.93,125ZM446.6,348.06a3.92,3.92,0,0,0-2.29-1.31c-.05-.17-.12-.34-.18-.51a8.62,8.62,0,0,0,.88,0,2,2,0,0,0,1.35.84,2.19,2.19,0,0,0,1.24-.12C447.26,347.33,446.93,347.7,446.6,348.06Zm1.59-1.68a.88.88,0,0,0,.05-.15.91.91,0,0,0-.14-.61l.26-.1.08,0a2.64,2.64,0,0,0,.06.55Zm58.07-216.44-.19-.17h.37ZM529,358.81l.25.29-.36-.06C528.91,359,528.94,358.89,529,358.81Zm-14.56-7.54a6,6,0,0,0-1.19-1.95,13.53,13.53,0,0,0,1.46.36,11.47,11.47,0,0,0,2.58.19l.07.24A8.47,8.47,0,0,0,514.42,351.27Zm1.63,9.93c-.06-.17-.13-.33-.2-.5.19.12.38.22.59.33C516.3,361.08,516.18,361.14,516.05,361.2Zm33-220.12a39.22,39.22,0,0,0-.28,5,9.09,9.09,0,0,0-2-1.7,2.29,2.29,0,0,0,1.94-1.68,2,2,0,0,0-.39-1.47,6.17,6.17,0,0,0,4.26-3.49,9.14,9.14,0,0,1,3.15,2c1.49,0,1.77-1.71,3.64-1.2,0,.72.64,1.06.42,1.95C557,141.68,552,140,549,141.08Zm17.74-.38a1.12,1.12,0,0,0,0,.48,1.65,1.65,0,0,1-.7-1.84,1.88,1.88,0,0,1,1.82.25A1.53,1.53,0,0,0,566.78,140.7Zm52.54,50.85a7.78,7.78,0,0,0-4.94,4.38c-.11-.07-.24-.13-.36-.19-.15-3.09.21-6.05,2.23-8.7a5.25,5.25,0,0,0,2.72,2.3,7.55,7.55,0,0,0,.52,1.47,3.44,3.44,0,0,0-.15.55A1.37,1.37,0,0,0,619.32,191.55Z" transform="translate(-13 -10.73)"/><path class="cls-9" d="M438.71,90.12a4,4,0,0,0,4.74-3.24,4.12,4.12,0,0,0-3.37-4.71,4,4,0,0,0-4.74,3.23A4.14,4.14,0,0,0,438.71,90.12Z" transform="translate(-13 -10.73)"/><path class="cls-9" d="M354.41,47.58a2.71,2.71,0,0,0,3.19-2.18,2.78,2.78,0,0,0-2.27-3.18,2.72,2.72,0,0,0-3.2,2.18A2.79,2.79,0,0,0,354.41,47.58Z" transform="translate(-13 -10.73)"/><path class="cls-9" d="M345.07,44.21a1.91,1.91,0,0,0,2.25-1.53,2,2,0,0,0-1.6-2.23A1.91,1.91,0,0,0,343.48,42,2,2,0,0,0,345.07,44.21Z" transform="translate(-13 -10.73)"/><path class="cls-9" d="M381.52,364.48a2,2,0,0,0-2.33,1.59,2,2,0,0,0,1.66,2.31,2,2,0,0,0,2.32-1.58A2,2,0,0,0,381.52,364.48Z" transform="translate(-13 -10.73)"/><path class="cls-9" d="M472.26,383a2.49,2.49,0,0,0-2.93,2,2.56,2.56,0,0,0,2.08,2.91,2.5,2.5,0,0,0,2.93-2A2.55,2.55,0,0,0,472.26,383Z" transform="translate(-13 -10.73)"/><path class="cls-9" d="M460.92,380.65a5.52,5.52,0,0,0-6.49,4.44,5.67,5.67,0,0,0,4.62,6.47,5.53,5.53,0,0,0,6.5-4.44A5.66,5.66,0,0,0,460.92,380.65Z" transform="translate(-13 -10.73)"/><path class="cls-9" d="M408.72,377.15a3.31,3.31,0,0,0-3.89,2.66,3.36,3.36,0,0,0,2,3.61,1.19,1.19,0,0,0-.59.83,1.28,1.28,0,0,0,1,1.46,1.22,1.22,0,0,0,1.18-2,3.28,3.28,0,0,0,3.05-2.7A3.39,3.39,0,0,0,408.72,377.15Z" transform="translate(-13 -10.73)"/><path class="cls-9" d="M419.92,375.9a3.65,3.65,0,0,0-4,2,2.15,2.15,0,0,0-1.58-1.24,2.07,2.07,0,0,0-2.43,1.66,2.11,2.11,0,0,0,1.73,2.41,2.07,2.07,0,0,0,2-.69,3.76,3.76,0,0,0,3,3.05,3.63,3.63,0,0,0,4.26-2.91A3.72,3.72,0,0,0,419.92,375.9Z" transform="translate(-13 -10.73)"/><path class="cls-9" d="M287.36,380a1.4,1.4,0,0,0-1.64,1.12,1.44,1.44,0,0,0,1.17,1.64,1.4,1.4,0,0,0,1.64-1.12A1.44,1.44,0,0,0,287.36,380Z" transform="translate(-13 -10.73)"/><path class="cls-9" d="M290.69,367.4a2.46,2.46,0,0,0-2.89,2,2.52,2.52,0,0,0,2.06,2.88,2.45,2.45,0,0,0,2.89-2A2.52,2.52,0,0,0,290.69,367.4Z" transform="translate(-13 -10.73)"/><path class="cls-9" d="M450.69,79.68c2.24-1.54-.1-4-1.84-4.83C449.48,76.44,449.07,78.76,450.69,79.68Z" transform="translate(-13 -10.73)"/><path class="cls-9" d="M478.08,66.73c0-1.43-1.51-3.05-3-2.42C474.6,66.23,476.89,66.88,478.08,66.73Z" transform="translate(-13 -10.73)"/><path class="cls-9" d="M251.68,51.22c-.8-1.49-3.93-1.48-4.26.34C247.94,53.6,251.37,53.29,251.68,51.22Z" transform="translate(-13 -10.73)"/><path class="cls-9" d="M522.58,98.28c.95,3,4.77,1.48,5.43-.5.82-2.48-2-3.68-1.66-5.91-4.61-2.46-5.23,3.49-7.77,5.31.1.57.39,1,.49,1.59C520.77,99.35,521.59,98.69,522.58,98.28Z" transform="translate(-13 -10.73)"/><path class="cls-9" d="M275.86,374.64c-3.27-1.66-4.61-1.89-4.61,1.33,2.63,1.95,3.71,2.2,4.86-.53C275.83,375.3,275.73,375.05,275.86,374.64Z" transform="translate(-13 -10.73)"/><path class="cls-9" d="M240.73,346.48c-1.15,2.88,4.2,3.44,3,.54C242,346.89,241.94,346.19,240.73,346.48Z" transform="translate(-13 -10.73)"/><path class="cls-9" d="M258.09,354.62c-.78-.38-1.61-.57-.93-1.54a3.72,3.72,0,0,1-2.55-1.45,4.77,4.77,0,0,1-3.24-1c-.71,1.52-2.4,1.67-3.78,2.25.17,1-.19,1.71-1.11,1.76-.58,1.8.71,2.81-.36,4.44,1.88.79,2.17,2.66,3.55,3.79a1,1,0,0,1,1.1-.59c.51.22.35.89,1,1,.41-.85,1.48-.91,2.45-.34a5.92,5.92,0,0,1,3.4-2.32c-.85-1.08.48-2.24,1.08-2.75C258.56,356.55,257.67,356.1,258.09,354.62Z" transform="translate(-13 -10.73)"/><path class="cls-9" d="M260,353.23c.67,2,1.62,1.13,3.61,2C263.86,353,261.48,353.16,260,353.23Z" transform="translate(-13 -10.73)"/><path class="cls-9" d="M116.94,304.48c.52,2,4,1.73,4.25-.34C120.4,302.65,117.26,302.66,116.94,304.48Z" transform="translate(-13 -10.73)"/><path class="cls-9" d="M101.56,225.41c-1.4-.84-1.53-2.54-3-3.32,2.11-.36,4-1.1,4.48-3.7-4.94-3.6-6.79,5.23-12.26,2.78-1.58,2.35-4.7,4.1-3.62,7.63-.41.53-1.35.33-1.49,1.23.57.26,1.85,0,1.94.61-.2.88-.5.87-.29,1.7,1.38.26,1.86,1.68,3.18,2.34s3.08.33,3.81,1.7c.61-.85,1.7-.9,2.86-.23.68-2,3.2-1.36,3.48-3.88a1.47,1.47,0,0,0,1-.07c.31-.71-.6-.59-.29-1.3s1.33-.36,1.49-1.24C101.49,228.89,101.75,227,101.56,225.41Z" transform="translate(-13 -10.73)"/><path class="cls-9" d="M139.91,112.93c-1.39-3-4.63-1.69-8.62-3.07C131.93,112.4,137,113,139.91,112.93Z" transform="translate(-13 -10.73)"/><path class="cls-9" d="M82.37,166c.51,2,3.95,1.73,4.25-.34C85.83,164.15,82.69,164.15,82.37,166Z" transform="translate(-13 -10.73)"/><path class="cls-9" d="M111.36,256.88c-.27-.14-.37-.38-.24-.8a5.11,5.11,0,0,0-7.47,3.5C106.53,260.72,110.22,259.61,111.36,256.88Z" transform="translate(-13 -10.73)"/><path class="cls-9" d="M147.67,83.32c.27-2.08-3.35-2.93-4.43-3C143.59,82.05,145.82,82.55,147.67,83.32Z" transform="translate(-13 -10.73)"/><path class="cls-9" d="M467.19,373c-2.77,0-1.93,5.09-2.85,7.7a3.58,3.58,0,0,1,2.09,1.13C468,380.78,471.25,373.75,467.19,373Z" transform="translate(-13 -10.73)"/><path class="cls-9" d="M532.45,364.86c-2.77,0-1.93,5.1-2.85,7.71a3.53,3.53,0,0,1,2.09,1.13C533.22,372.61,536.52,365.57,532.45,364.86Z" transform="translate(-13 -10.73)"/><path class="cls-9" d="M296.05,360.18a1.47,1.47,0,0,0-1.75,1.15,1.51,1.51,0,0,0,1.26,1.71,1.49,1.49,0,0,0,1.76-1.15A1.51,1.51,0,0,0,296.05,360.18Z" transform="translate(-13 -10.73)"/><path class="cls-11" d="M659.05,337.92c1.53-.47,1.48-3,1.81-4.27C658.8,332.89,656.79,337.06,659.05,337.92Zm-4.78,2.56c1,.37,1.37-.44,2.09-.57.08.43.08.9.76,1.12a5.35,5.35,0,0,0,.77-3.29c-.94-.05-.61-.21-1.59-.61C655.39,337.6,654.05,339.1,654.27,340.48Zm.32,2.88c0,1.23-1.19,1.81-.47,2.57.2-1.21,2.27-1.75,1.2-2.84C655.15,343.33,654.87,343.34,654.59,343.36Zm2.54-6.73a7.84,7.84,0,0,0-.21-3.12c-.71.32-.92,1.66-1.37,2.5C656.54,336.17,656.48,336.88,657.13,336.63Zm-30,40.22c.58.3,1,.33,1.26-.06-.33-.21-.36-.54-1-.65Zm-2.91-1.12c-.82-.51-1.07.15-1.62.2.31.64.54,0,1.32.51Zm-5.67-39.67c-.34.65-.58,1.28.29,1.49A1.33,1.33,0,0,0,618.58,336.06Zm-21.22,39.19c1.75.5,2.8-.42,3.91-1.24C599.57,374.59,598.24,373.37,597.36,375.25Zm-7.23,1.07c1.18-.08,2.51.14,3.35-.64A4.28,4.28,0,0,0,590.13,376.32Zm-3.47-.52c-.3.58.09.9.39,1.26.75-.67,2.29.28,2.82-.84C588.16,375.65,588,376.28,586.66,375.8ZM602,331.58l-.3.71c.67.33,1.18.35,1.36-.3ZM586.2,366c-.82-2.29,1.18-1.83,2-3.92a2.08,2.08,0,0,1-.6-.78c-3.15-.47-1.86,2.77-3,4.9-1.55-.84-1.47,1.69-2.75,1.42-.11-1.42-1.22-1.38-2.61-1.84-.07,1.49-1.42.32-1.76,1.25.63.5.55,1.26,1.09,1.8.78-.07.08-1,.66-.85.2.39.82.63,1.49.85,2.36-.58,4.76-.71,7.09-2.22C587.5,366,587,366.53,586.2,366Zm-1.85,7.28c-1.25-.35-.7.72-1,1.55C583.7,374.29,584.18,374.08,584.35,373.26Zm1.13-17.2c.53.13.25.71.29,1.49.32.08.73.33.89.07-.65-.55-.57-1.06.08-1.63C586.24,355.86,585.51,355.24,585.48,356.06Zm-2,3.92c.58.42,1.41,1,2,.48-.35-.14-.07-.51-.33-.68-.23.34-.65-.06-.79-.31C584.22,360,583.78,359.8,583.51,360Zm-3.93,3.45c.34.73.95.12,1.23.74.3-.4.82-.37,1-1-.94-.12-.29-.82-.76-1.12-.16.26-.53.1-.89-.07C579.68,363.1,581.22,363.44,579.58,363.43Zm35-108c1.15-7.62-13.81-6.76-10.8.78C605.43,260.35,613.72,261,614.56,255.41ZM556.43,363.57c.18.13.22.32.06.58.74.48,1.07.13,1.69.37.38-.8.36-1.46-.82-1.69C557.35,363.69,556.7,363.24,556.43,363.57Zm-32.13-108c-1.58-.24-3.59.86-5.17,1.31-3.45,1-5.87,1.71-8.33,3.67-9.87,7.92-6,23.42,4.72,28.83,4.31,2.18,11.76,1.73,15,.85,4.71-1.26,10.84-6.06,12.53-11.41.81-2.59,0-4.07.29-6.5.14-1.33.83-2.47.78-3.29-.12-1.61-2-4.65-3.59-6.07-.65-.56-1.86-.87-2.44-1.49-.81-.85-1-2.31-1.85-2.92a15.09,15.09,0,0,0-7.87-2.49c-.69-.07-1.4.38-2,.33S525,255.63,524.3,255.52ZM501,354.83c-.28.45-.79.43-1.19.64a6.85,6.85,0,0,0,1.39,1.09C501.22,356,501.6,355.21,501,354.83ZM555.68,212c-.64-.16,0-.8-.49-1-.58.71-.61-.2-1.26.07-.34.72.54,1-.18,1.86.58.3,1,.33,1.26-.06,0-.45-.68-.68-.39-1.26C554.75,211.7,555.39,212.56,555.68,212Zm-.79-10.5c-.75-.85-1-1.79-1.88-2.1C553,200.2,553.74,201.76,554.89,201.48Zm-66.3,138.35c1.55.43.29-.5.87-1.32-.57-.51-1.72-.08-1.1.41C488.73,338.36,489,339.44,488.59,339.83ZM523,243.43c-.14.31-.56,0-.73.27.57.08,0,1.54.86.88C522.67,244.33,523.64,243.94,523,243.43Zm-44.11,95.39c.2-.81-1.23-2.92-1.28-1.32C478.18,337,477.63,339.58,478.85,338.82Zm-3.1-2.85a5.42,5.42,0,0,0,1,3.43C476.73,338.14,476.75,336.87,475.75,336Zm1.6-9.58c.19-.33.27-.91.66-.84.17.05.33.08.37-.14-.37-.62-.6,0-1-.64C477.16,325.4,476.68,326.1,477.35,326.39Zm37.1-99.2-.8-.31c-.3.51-.31.92.13,1.15C514,227.75,514.35,227.73,514.45,227.19ZM499.11,243c-.9-.52-1.25.09-1.56.78C498.29,244,498.71,243.53,499.11,243ZM475.3,324Zm43.79,50c1.21-2.66,5.2-2.68,8.13-3.19.28.43-.11,1.1.66,1.35.3-.1.39-1,1.13-1.22-.41-.18-.93-.32-.6-.77a28.26,28.26,0,0,1,3.22-1.79c.33.61,1.61.87,1.82,1.53,2.79-1.38,3.4,2.3,4.63,2.89.35.13.41-.32.72-.27.16,1.09-1.23,1.51-.37,2.33.71-.43.05-.94.77-1.08,1.12,1,3.67,1.76,4.89,3-.8-.51-.61.32-.2.48.71-.43.05-.95.76-1.08.68.21.68.68.76,1.11-.33,0-1.41.56-.76,1.09,1,0,.74-.57,1.29-.88-.5.65.53.73,0,1.39-1.5.57-2.19-.27-3.18-1.23-1.28,2.76,2,1.88,2.9,3.33.37-.74-.36-1.07.18-1.87.43.86,1.2-.13,2,.25.5,1.08,1.89,1.83,3.2,2.61,12.92.78,23.8-2.66,35.14-5.16-2-1.2-7.63-1.91-10.65-4.66.49-.81-.38-1.54-.42-2.65,1.25-.32,0-1.39,1.76-1.25-.25-.37-.88-.61-1.12-1-1.06,1.65-1.63,2.1-1.71,4-2,.11-3.16-1.86-4.16-3.26.21-.6.44-1.17,1-1,.19.33-.29.91.49,1,.42-.95.7-1.86.11-2.44a1.9,1.9,0,0,1-.83.51c-.24-.58-1-1-.82-1.7.85-.46,2.16,0,2.82-.84-.23-.51-1.27-.73-2-1.05.32-.85-.31-1.35,0-2.2a6.6,6.6,0,0,1,7.92-.53c2.17-1.15.1-3.64,2.27-4.63,2.69.24,3.65-.72,5.48-2-2.95-.87-4.77.57-6.93.36a28.19,28.19,0,0,0-5.93.18c-5.22.37-10.24,2-15,1.93-2.06,0-4.05-1-5.93.19-1.06-1-2.64.09-3.74-.62-.22.61.19.94-.66.85.16-2.33-1-5.1-3.53-5.5-1.84-.29-3.44,2.28-5.37,1.78-2,2.82-4.59,6.78-7.54,6.18-1.1,2.14-5,1.47-5.93.19-.38.11-.45.84-1.1.4.81-2.36-3.81-2.72-4.55-4.51.09-1.05,1.49-1.34.54-2-.59.28-.85,1.22-1.5,1.35-.08-.91-.84-.64-1.75-.95-1.54-1.84-3.32-2.74-5.81-4.45-.8-3-4.55-4.85-5.3-7.84-3-1.76-3-4.64-5.54-6.54-4.52-9.73-9-19.47-12-29.74-.77-5.78-2-10.43-1.86-16.7a7.27,7.27,0,0,1,.14-1.05c.67-2.86.17-4.6.76-6.87a179.85,179.85,0,0,1,7.2-20.64c2.73-3,4.8-7.53,7.23-11.26,2.06-3.15,6.09-4.78,7.39-8.72,2.78-.79,3.88-5,7.05-5,1.74-1,2.79-3.41,5.08-3.28,1.71-2.68,4.92-2.27,6.84-4.52a1.68,1.68,0,0,0,1.16.17c1.91-1.37,4.34-1.69,6.24-3.1,4.28-.75,7.81-2.8,12.6-2.84,3.71,0,7.49.77,11.45.57,3.61,1.26,8,2.64,11.45,2.77,3.17,1.34,6.26,1.24,10.13,2.26a2.81,2.81,0,0,0,1.73-2.64c1-.19,1-.52,1.69.38.88-1,0-.67.44-1.76.78.73.5-.74,1.09-.41-.12.42.06,2.27,0,1.39l.8-1.89c.34.72.87.3,1.43.27-.22.09-1.1.89-.5,1.19,1.42-1-.22-2,.14-3.25,5.44,1,13.87,4,16.46,9.11.18-1.1,1.06-.76,2-.33-.16.26-.7.35-.3.71,0-.82.77-.19,1.26-.07a7.82,7.82,0,0,0,1.15,2.38c2.11-.06,4,3.1,4.35,5a4.65,4.65,0,0,1,2,6.27c.39.65,1.77.94,1.72,1.76-.68,1.57-2.18,1.43-3.16,2.37.51,4.34,6,6.84,5.95,11.39-1.92,1.69,0,3.38,1.14,4.57,2.53,0,3.67,2,5.52,3,1.81,3.87,1.71,8.43,3.4,12.34-.1,4.17,1.47,7.71,2.9,11.32.37,5.58,3.73,10,.79,16.29.59.45.27,1.24.46,1.83-2.92,11.23-7.83,22.11-15.45,28.48,1.58.75.6,2.72-.54,2a1.85,1.85,0,0,1,.6.78c-1.3-.11-.85.68-1.23,1.45-1.48,2.89-5.92,5.56-7.13,8.82-3.36.62-6,4.49-8,6.55-2.3.82-5.66,3.87-7.56,2.59-.39,1.21-1.72,1-2.19.81-.44,1.16-3.08,1.61-4.25,2.76a14.63,14.63,0,0,0,2.08,1.63c-1.26-.3-1.23,1.94.09,2l.7-1.66c1.88.19,2.84-1.49,4.81-1.17.55.08.72.79,1.12,1,3.93,1.88,6.73-3.18,10.5-.07-.67.56-1.11-1.16-1.52,0,1.72,1.35,2.88-1.3,5.07-1.07,3.34.34,5.38,2.36,7.07,4.38-4.13,2.86-9.12,4-13.31,6.71,5.07-.49,9.11-3.1,13.83-4.3-.17,1.31,2.5,1.91.69,2.74,1,.91,1.9-.46,2,.25-.42.16-.65.72-.87,1.31.94.06.81.14.86.89-.54.33-1.2-1-1.79-.14,1,1-.5,2,2.11,3,.07-1,.72-3.19,1.61-3.79a2.52,2.52,0,0,0,.62,2.17c.85-.79.54-1.23,1.76-1.25-.11,1-.72,1.84-.31,2.91a1.06,1.06,0,0,1,1.46-.54c.44-.69-.59-.85.07-1.62,1.8-.14,3.51,1.84,5.86,1.44,4.6-5.9,8.56-14.34,11-22.23.58-1.91.45-4.09,1.51-5.75.62-1,2.52-1.77,3.46-3.08,2.91-4,6.6-8.66,6.21-12.48-3.31,2.93-7.28,9.58-9.66,13.36-1.62-4.07-.65-9.09.46-14.16-.45-3.34.11-8.81,2.23-11.81,1.31.85.56,2.45.55,3.79,1.43,1.2,1.89,2.77,2.5,4.27,1-4.09,1.81-8.12.87-11.51,2.44-5,4.16-11.53,8.8-12,.5,3.14.75,7.45-.84,10.7-1.91-.83-1.76-2.42-2.8-3.57-1.43-.18-3.47.41-3.16,2.37a8.22,8.22,0,0,1,6.32,3.26,17.27,17.27,0,0,1-3.11,7.35c2.85,2.2,2.85-.9,3.32-2,.16-.39.93-.82,1.13-1.22.47-.94.17-2.5.54-4.19.46-2.07,1.65-4.36,2.08-6.37.33-1.51-.12-3.24.12-4.63.44-2.57,1.78-4.65,1.65-6.81,10-2.47,19.49-15.25,17.43-26.61-3.42-5-3.68-11.16-11-14.72-2.62-3.42-8.75-3.75-12.57-6-.49-.29-.64-.77-1.12-1-3.57-1.61-6-.14-8.91.69-4.68-3.6-6.08-8.41-12-11.54a57.78,57.78,0,0,1-7-9.6c-3.48-2-4.35-4.93-6.76-7.3-5.4-3.61-7.9-8.28-14.2-11.55a5.28,5.28,0,0,0-4.56-2.31,1.19,1.19,0,0,0-1-1.23c-.14.62-.7.33-.77,1.09.7.72,1,.33,2.12.81,0,.6.34,1.08-.18,1.87,3.37,3.42,7.71,6.48,8.67,10.79,1.82.64,3.38,3.33,2.2,5l.3-.71a3.89,3.89,0,0,1-2.32-.34c.08-.5-.31-.82,0-1.39-2-.81-2.56-2-4.34-1.4-5.15-6.36-16.84-9-24.13-12.08a97.76,97.76,0,0,0-19.49-5.61c-.54-.39.07-1.22-.55-1.59-.53.24-.74,1.14-1.4,1.11-.46-.87-.41-2.38-1.78-2.34-1.05.73.21,1.25-.37,2.34-.43-.44,0-1.21-.92-1.46-.45.7.58.85-.08,1.63-3,.17-2-2.47-2.33-3.94-1.4-.2-1.49.86-1.8,2.06-.47-.29.18-1-.76-1.12-.43.84.77,2.11.26,2.31-.17,0-.33-.09-.37.13-.52-.28.67-.49-.22-.91-.44,1.31-1.86.61-2.33,1.85-.27,1.23.47,2,.06,2.78,1.68,1.43,3.17.15,5.32,1.24,0,1,.8,1.7,0,3-.39-.07-.65.14-1.16-.17.25-1.08-1.68-.91-.36-2.07-1.64-.51-1.27,1.79-.64,2.23-4.29,2.08-10.86-3.35-14.27.27a22.22,22.22,0,0,1-2.42-.11c.07-.5,1.25-.7.14-1-.95-.26-.15,1.45-.77,1.08-.67-.15.61-1-.49-1,.07,2.71-3.54.89-2.87,3.85a24.87,24.87,0,0,1-3.47-.51c-.32-1.07.7-1.55-.52-2.41,1.07-.54.65-1.39,1.86-1.48.78.83.16,1.6,1.71,1.76.61-1.25-1.83-.48-.62-2.17,1.29-.23,1,.43,2,.48.19-.34.27-.91.66-.85,1.26.37,1.55-.27,1.75,1,.19-2.46,3.78-1.25,5.31-2.36.89.21-.4,1.21.66,1.36.46.06.54-.66,1.26-.07.32-.65-.56-.86-.29-1.49,1.49.28,1.74.75,3.07,1.47a4.14,4.14,0,0,0,2.16-2.2c-.79-.15-1.09.71-2,.33-.46-1.6,1.12-2.42,1.87-3.68-1.35-.59-1-1.63-.88-2.27.7-.6,1,1.42,1.42.27.15-1.32.15-4.32-1.27-5.73-.85,0-1.26.94-2.35.47.1-.24-.1-.36-.06-.57,2.71-2.7,8.15.25,9.88-4.45-6.78-2-13.42-.44-19.41.76-3.95.8-7.93,1.62-11.27,3.36-1.89-.34-3,.83-4.71.94l-.51,1.18c-2.66-.32-4.95.13-6.63,1.85-.75-.53-1,.06-1.52,0-.13.61-.7.33-.77,1.08-4.17.64-8,3.23-11,5.67-2.89,2.31-6.15,3.73-8.8,6.24a36.58,36.58,0,0,0-4.82,5.58c-.49-.28-.66.11-1,.16-2.89,4.53-6.92,8.4-8.56,12.95-7.2,7.89-9.12,19.05-14.06,27.37a155.45,155.45,0,0,0-5,30.6,3.07,3.07,0,0,1,1.22,2.95c-.74-.19-1.19.2-1.4,1.11a1.35,1.35,0,0,0,1.49.85c.48,3.69-.42,7.88-.71,11.85a1.94,1.94,0,0,1,1.32.52c-.87,2.38.85,3.81.18,6.13a3,3,0,0,0,2.78,0c1.59,2.94,0,7.06,1.25,10.13a.74.74,0,0,0-.83.5c1.33,1,.62,2.47,2.41,2.31.25.51-.49,1.38.55,1.6.7.39.34-1.37,1-1-.28,1,.75,1.45,1.61,2,.71-.43.05-.95.77-1.08.58.81-.13,1.78-.9,2.13-.71,2.11,1.59,2.17.51,4.61.63.48,2.6,2.34,3.27,1-1.73-1.23-2-4.07-1.37-5.49,1.34,1.24,1,4.15,3.4,4.34-.2-2.13-2.67-3.41-2.53-5.66,1.31-.25,2.19-1.39,3.32-2-1.94-1.06-1.12-3.12-2.7-3.8a1.55,1.55,0,0,1,.36-.13c-1.67-.65-.51-2.34-2.47-2.89-.33.36-.27,1.52-.87,1.32-1-.75-1.65-2.86-.12-3.35,0-.65-.75-1.06-.82-1.7,1.14-.83,2,.67,2.18,1.4,1.9.22,3.07-1.07,4.65-1.51,1,1.9,3.48,3.24,3.16,5.62-1.72.93-.22,3.16-.12,4.65,2.06-1.36,4.69-1.56,6.6-3.24a20.18,20.18,0,0,0,4.66,4.28c.59-.46-.11-1.38.5-1.19.23,2.65,3.49,4.18,3.55,6.89,3.23,2.72,3.88,7.28,7.84,9.09-.16,1.39,1,2.28.55,3.8-3.4,2.76-6.36-2.6-9.46-3.11.25-1.46-1.56-1-1.52-2.24-.37.26-.71.6-1.36.31.36-.53-.26-.71.24-1.29-1.6-.06-1.57-.52-2.08-1.63-1.37.1-.58,2.09-.07,1.62-.1.24.1.37.06.58-.32-.08-.73-.33-.89-.07.55.45,1,.28,1,1.22.53-.44,1.82.51,1.75,1s-.44.86-.93.74c-2.33-1.76-3.14-3.7-4.71-4.86l.79.31c-1.39-1.19.85-2.59-.28-3.69-.16.26-.24.69-.57.6-.84-3-3.49-4.19-5.44-6.78-.8.36.21,1.25-.64,2.23-1.51-1.1-1.7,1-2.35.47.73.93,1.92,2,.75,3.32a6.74,6.74,0,0,1,1.81,3.73c-.36.3-1,0-1.2.64-.62.83.29,1.09.19,1.73,1,.1,2-.64,1.69.37,1.35-.24.86-2.29,2.2-3,.86.44-.95,1.14-.24,1.28.56-.1.61,1.24-.17,1.87,1.16,1.49,1.95,4,2.46,5.08-.25.66-.64.31-.4.95,2.37.26,0,2.27,1.58,2.81-.26-1.28,1.29-1,1.33-1.69-.24,1.2.32,2.25-.51,3.39.81.7,1.42,1.47,2.14,2.21-.39,1.17,0,1.17-.47,2.57,2.6,1,3.38,3.79,5.85,3.64-.21-.16-.26-1.32.14-1.05.67.28-.15,1.12,1,1.22.51-1.45-1.15-2.11-1-3.42a2.44,2.44,0,0,0,.64-2.24c.52-.27.94-.72,1.73-.43.44-.7-.59-.85.07-1.63a3,3,0,0,1,3.11.65c.34-.48.89-.54,1.3-.88-.84,1.44.7.69.75,1.12-.2,1.53-.81-.53-1.19.64.55,1.2.12,2.75.45,4,2.81-.26,2.17,3.82,3.36,2.95.67.29.19,1-.07,1.63,3.11.53,3,3.61,2.66,4.61,1.22.19,1.63,1.3,1.79,2.34C513.63,373.26,516,372.06,519.09,373.94ZM542.19,363a78.83,78.83,0,0,1,7-7.2c.14.25.57.65.79.31.78.18-.12,1,.4,1.25.07-.52,3.22-1.07,2.58.45.77-.92,2-1,2.85.55-.58.42-.16.45-.77,1.08,1.12-.25,2.11-1.34,3.75-1.58.27.43,1.09.66.66,1.35.73.63.52-.69,1.25-.06-.07.29.4.38.7.54l-.51,1.19c1.68.64,2.4-.68,4-.1-.61,1.36-1.19,2.71-1,3.76-1,.64-1.18.13-2.35.47a2.9,2.9,0,0,1-1.52-2.24,4.59,4.59,0,0,0-1,2.37,25.94,25.94,0,0,1-4.64-.69c.09-1.42,1.92-.72,1.44-1.93-1-.36-.78,1.66-1.93.91-.17,2.25-5.71,1.23-6.82.12C545.92,364,543.44,364,542.19,363Zm8.9-162.74c-.83,1-.63,1.89-.05,3-1.35-.1-2-2-2.37-3.12C549.56,200.39,550.1,199.86,551.09,200.29Zm-32.8,9.09a5,5,0,0,0-1.47-3c4.07-1.51,7.23-4.9,12.14-4.68-.55.94-.07,1.49,0,2.21a3.9,3.9,0,0,0,.64-2.24c.51-.42,1.47.09,2-.33.34.25-.24.26-.31.71.69.23.86-.59,1.13-1.22,1.48.78,2.6.51,3.82-1,1.61,1.57,4.54-.8,5.06,1.14a8,8,0,0,1,6-.43,4,4,0,0,0,1.52,2.24c-.19.79-1,.35-1.3.88.76.53,1,0,1.36-.31.57.71,1.35,1.9,0,2.21-.35-.26.23-.27.3-.72-1.21-.6-2.75,1.66-3.67,0-.72,1.64-4.34.7-6.34,1.14.09-1.43-1.89-2.47-.54-3.8-.46-.05-.54.66-1.26.07-.63,1.09.53,1.54-.81,1.89,0,.85,1,.1,1.59.62-.8,2.93-4,1-5.57,2.25-.85-.54-.59-1-1.59-.61,1.84.94-1.87,1.14-3,1.31a1.09,1.09,0,0,1,0,.81c.69-.24.39-.35,1.15.18-.36.73-.78,1.34-1.66,1,.74-3.9-4.89,1.37-5.49-1.57C521.06,208.39,520.48,210.57,518.29,209.38Zm-8.55,2.76c0-.8-.1-1.23-1-1.22l.51-1.19c1.29.37,2.43-1.18,4.79,1-.08.41-.42.31-.56.61s.24.31.43.44c0,.43-1.61-.17-1.32-.51-.43.13-.49.65-.61,1.42-1.38-.34-2.05.79-3.35.64C508.78,212.53,509.19,212.19,509.74,212.14Zm-24.91,15.18c1.73-.78,1.88-4.27,4.82-3.38.89-1.56,2.91-4.23,6-2.62-.57.74-1.55.65-2,1.72-.73-1.35-.73.49-1.85-.72,0,.48-.28,1,0,1.39-.55.37-2,1.12-2.19.81-.33,1.11-1.91,3.83-4.38,3.81C485.14,228,485.61,227.43,484.83,227.32Zm-17.31,80.12c.82.36,1.51.77,1.19,1.56C468.15,308.54,467.27,308.19,467.52,307.44Zm3.79,3.39c.07-1.17,0-2.19,1.21-2.84a11.49,11.49,0,0,0,2.81,1.36c.11,1,.82,1.5-.11,2.44-1.19-.41.41-.62-.13-1.15-1,0-.34.43-1,1A8.13,8.13,0,0,1,471.31,310.83Zm6.05-4.83c-1.14.16-1.36,2.23-3.18,1,.16-1.2.87-1.38.74-2.47l-1.06-.41c-.12,1.33-2.47-.34-2.69,2,.05.65,1.09-.37,1.78.14-.55.92-1.54.95-2.88.27l.51-1.19c-.6-.34-.76.21-1.43-.27-.56.8,0,1.19-.54,2-.87-.21-.42-.9-1-1.22.25-1.12,1.27-.64,1.76-1.25-.41-.19-3-1.57-3.47-.51a5.71,5.71,0,0,0-1.85-2.92c-1.4-4.75.5-9.79-.7-14.33,3.86-4.46.2-9.14,3.44-14.65a6.64,6.64,0,0,1,2.48.68c1.66-3.82,2.94-6.6,2.59-9.75a4,4,0,0,0,1.37-4.7c.61-.23,1-.84,1.66-1,.63-3.51,3.84-6,6-8.42,1.11-1.23,1.56-3.1,2.71-4.19,1.38-1.33,4.26-4.69,5.91-6,0,0,3.06-1.31,2.43-2.1-.15-.18-.58-.24.4-1,0-.82-.59.78-1.26.07-.15-1,.59-1.37,1-2.37a4.77,4.77,0,0,1,1.85.72c1.23-1.77-1.66-2.93-.09-4.17.65.25.52,1.79,1.66,1.19,0-.09.19,2.92-.81,1.9.13.68-.09,1.5,1.09,1.79.63.13.6-1.12,1-1.55,8.44-4.32,17.49-7.39,26.57-10.4.33-.66.9-.8,1.23-1.45,1.58.25,3-.4,3.06-2.13.23.69.85,1.94.25,2.3,1,.2,1.74,0,2.68.21-3.72,2.07-7.21,4.64-11.22,6.14a1.47,1.47,0,0,1-.23,1.28c-2,.57-3.35,2.57-5.35,3.18-1.9,3.37-6.36,3.66-7.74,6.65-.7.48-1.59.56-2,1.72-1-.22-1.69.36-2.46.71-.56.73,0,1.06-.43,1.76-2.25.08-1.13,1.4-2,2.53-.59-.38-1.28-.73-.92-1.46-.45,0-.82.09-1.26.07-.7,1.12.38,1.59.52,2.4-.65.89-1.73.88-2.82.84-1.22,2-3,6.43-4.87,8.59.22,1.52,0,3.94-1.48,4.94.27,1.5-1.51,3.76-.58,5-.53,3.15-2.32,5.73-2.82,8.84-.14.84.58,1.61.52,2.4-.1,1.43-1.1,3.06-1.11,4.81-.06,5.44-.42,12.52.72,17.91.56,2.63.58,5.27,1.16,8.17.16.79,1,1.59,1.15,2.37.24,1.3-.29,2.62-.08,3.83.48,2.8,2.31,5.33,2.68,8.2C484.78,318.56,481.12,311.85,477.36,306Zm6.35,28.64c.69.74,1.14,1.57,1.78,2.34-.19.65-.7.63-1.36.3C484.06,336.06,483.1,335.7,483.71,334.64Zm-1.5,1.35.79.31c-.38,1-1,1.13-.9,2.13C481,337.6,483,336.72,482.21,336Zm24.33,11.61c4.1,1.75,5.36,4.55,7.86,6.89-3.6,1.07-6.37-1.63-9-3.48-.6.16-2.71.24-1.65-1.18.26.1.09.36.07.57C504.71,350.16,505,347.61,506.54,347.6Zm-20.74-5.54c.83.28.83,1.29.29,1.49C485.93,343.07,485.57,342.68,485.8,342.06Zm7.57,3.2c.25,1.43.58,1,2.18,1.4-.06,1,.54,2-.58,2.8C493.76,348.36,491.82,346.75,493.37,345.26Zm-16.61-21.85a1.94,1.94,0,0,0-.62-2.17c-.15.28-.31.53-.73.27-.42,1.1.38,1.74-.56.61-.76.95,1.37.82.45,1.83C475.81,323.82,476.41,323.86,476.76,323.41Zm109.34,50.8c-.48-.25-.7,0-1.16-.17-.25.42.08.64-.14,1,1.23.6,1.56-.64,2.29-1-.05.13.1.36.27.1-1-1-.66-2.38-1-2.84C585.3,372.33,586,373.12,586.1,374.21Zm-8.57-11c-.47-.42-.48-1-1.28-1.32.27,1.09-1.45,1.95-1,3.18-.87.09-1.44.77-2,.33.06.65.51,1.75-.28,2.1.53.14.47.49,1,.65,0-.87-.57-1.67.17-1.86.34.14.24.44.7.54C575.63,365.09,576.39,364.7,577.53,363.18Zm-40,13.75c-1.24.78-1.93-.25-2.18-1.39a9.38,9.38,0,0,1-4-.72,2.29,2.29,0,0,1,1.17-2,20.15,20.15,0,0,0-2.44-1.5c-.68.23,0,.69-.61,1.42a1.49,1.49,0,0,0-2.25.24c.43.44.23,1.11.56,1.59,1.54.32.8-1.84,2-1.72-.21,1.36,0,2.34-.18,4.06,1.56.78,3.33,1.87,4.7,1.27C535.34,379.5,537.15,378.53,537.53,376.93Zm50.33-152.24c-.7-.9,1-.59,1-1.55-1.07-.44-1.49.46-2,1.14C587,224.54,588.22,225.2,587.86,224.69ZM479.28,331.27c-.68-1.24,1.22-1.55.58-2.81-1.07.24-1.49-.51-2.16,0,1,.66.48.59.07.57.72.7-.8.37-.77,1.09.11.25,1.26,1.09,1.59.61-.28-.16-.3-.42-.33-.68.27.1.4-.07.63,0C478.59,330.6,479,330.92,479.28,331.27Zm24.8-94.86c.41-.33,1.13,0,1.45-.54-.1-.72-1,.12-.95-.65.14.06.38-.07.1-.23-.75.21-2,2.64-2.19,3C503.32,237.72,505.11,236.65,504.08,236.41Zm-1.6,1.58c0,.07,0,.06,0,0Z" transform="translate(-13 -10.73)"/><path class="cls-12" d="M587.18,166.67c-2.27-1.58-4.33-1-4.66.87C581.83,171.54,589.55,170.42,587.18,166.67Zm-59.79-51.25c-.57-.85-2.34-.55-3.28-.6C523.91,116.1,527.16,116.82,527.39,115.42Zm2.58,2.51c.11-.61-.53-.75-.74-1.16.29-.09.62-.14.66-.56a4.66,4.66,0,0,0-2.43-.1c.12.56,0,.38-.17,1A3.24,3.24,0,0,0,530,117.93Zm2-.49c.86-.14,1.46.5,1.88,0-.88,0-1.6-1.14-2.19-.4C531.83,117.11,531.88,117.28,531.94,117.44Zm-5.14-.77a6.52,6.52,0,0,0-2.15.46c.34.38,1.32.35,2,.53C526.58,117.06,527.09,117,526.8,116.67Zm33.11,13.19c.12-.36.06-.63-.25-.72-.1.21-.32.26-.3.62Zm-.31,1.82c-.23.53.28.61.4.92.4-.25,0-.31.15-.82Zm-26.88,7.51c.51.13,1,.21,1-.33C533.28,138.84,532.9,138.89,532.72,139.19Zm30.95,8.21c.07-1.07-.76-1.59-1.51-2.15C562.84,146.18,562.21,147.08,563.67,147.4Zm1.93,4.1c-.25-.69-.31-1.48-1-1.89A2.47,2.47,0,0,0,565.6,151.5Zm.21,2.07c.45.12.61-.14.81-.36-.59-.37-.17-1.36-1-1.55C565.46,152.71,565.92,152.74,565.81,153.57Zm-33.52-4.24.55.1c.13-.43.06-.73-.43-.76ZM559,154.88c-1.48.72-1.48-.49-3.08-.73a1.1,1.1,0,0,1-.45.43c.19,1.89,2.26.79,3.93,1.23-.33,1,1.43.68,1.45,1.45-1,.22-.77.86-.86,1.72,1-.12.46.79,1.16.89.25-.42.79-.45,1.08-.82-.17-.45-.71.06-.7-.3.24-.16.31-.55.35-1-.79-1.31-1.27-2.69-2.71-3.9C558.78,154.12,559.24,154.34,559,154.88Zm5.4.31c0,.76.62.33,1.25.4A3.34,3.34,0,0,0,564.4,155.19Zm-12.24,1.17c0-.33.46-.23,1-.33,0-.2.11-.46-.1-.53-.28.44-.65.45-1.15.13C551.9,155.93,551.58,156.42,552.16,156.36Zm3.07.73c.2-.39.45-.93,0-1.19,0,.22-.35.09-.42.26.27.1.06.39-.09.5C555.11,156.67,555.06,157,555.23,157.09Zm3.06,1.92c.46-.27-.07-.56.32-.79-.33-.14-.39-.44-.85-.5.07.56-.54.26-.66.56.2.07.15.3.09.53C558,159,558,158.05,558.29,159Zm-81.45-8.92c-5.52.14-2.47,8.77,2.32,6.21C481.81,154.89,480.92,150,476.84,150.09Zm85.34,22.39c.06-.12.19-.16.4-.1.21-.48-.09-.63,0-1-.63-.14-1.08-.05-1,.66C562.12,171.94,561.91,172.36,562.18,172.48Zm-70.47,30.19c.09,1,1.18,2,1.76,2.87a14.24,14.24,0,0,0,3.94,4.47c7.16,4.91,17.4,1,19.43-5.81.82-2.75-.71-7-1.86-8.85a15.37,15.37,0,0,0-10.06-6.1c-1.94-.2-2.86.41-4.6.52-.95.07-1.87-.22-2.43-.1a7.79,7.79,0,0,0-3.67,2.74c-.29.43-.3,1.17-.65,1.58-.46.56-1.45.81-1.74,1.38a7.35,7.35,0,0,0-.46,4.85c.07.41.5.78.56,1.13S491.67,202.26,491.71,202.67Zm73.42,3c.36.11.43.41.65.62a3.7,3.7,0,0,0,.53-.92C565.88,205.46,565.3,205.32,565.13,205.7ZM456.05,189c0,.39-.56.08-.64.39.59.26,0,.38.26.73.56.12.61-.42,1.33-.1.11-.37.06-.63-.25-.72-.31.07-.37.47-.82.36C456,189.58,456.5,189.12,456.05,189Zm-7.24,1.57c-.47.53-1.08.8-1.16,1.32C448.24,191.84,449.2,191.22,448.81,190.58Zm107.84,23.95c.05-.95-.4-.12-1.06-.37-.27.39.22,1,.46.6C555.6,214.6,556.3,214.32,556.65,214.53Zm-73.2-9.8c.24.05.12.32.31.4,0-.34,1.07-.19.48-.59C484.13,204.81,483.7,204.28,483.45,204.73Zm74.09,15.58c-.6,0-1.85,1-.72.89C556.35,220.9,558.27,220.94,557.54,220.31Zm-1.49,2.11a4,4,0,0,0,2.23-1A3.18,3.18,0,0,0,556.05,222.42Zm-7,.08c-.27-.07-.68-.06-.7-.29s0-.21-.15-.2c-.38.28.08.35-.3.62C548.4,222.72,549,222.92,549.07,222.5Zm-75.61-11.08-.09.49c.41.13.7.09.79-.19C473.92,211.62,473.85,211.42,473.46,211.42Zm13.62,7.25c-.22.58.26.72.79.83C487.89,219.05,487.49,218.85,487.08,218.67ZM547.69,224Zm27.88-30.81c-2.07-.42-2.74-2.75-3.57-4.4.25-.21.79-.06.84-.53-.12-.16-.75-.12-1-.53-.06.26-.07.58-.45.43a21.89,21.89,0,0,1-1.78-1.68c.38-.26.35-1,.77-1.22-1.41-1.48,1.06-2.23,1.27-3,0-.22-.29-.21-.31-.39.74-.21,1.26.56,1.7,0-.41-.37-.67.07-.88-.33.5-.76.63-2.33,1.3-3.17-.23.52.32.32.36.07-.42-.37-.67.07-.88-.34,0-.41.37-.46.66-.56,0,.2.62.76.88.34-.16-.6-.51-.38-.83-.67.54.23.43-.39,1-.16.65.81.17,1.3-.34,2,2.14.45,1-1.39,1.86-2-.57-.14-.68.32-1.33.09.52-.34-.29-.68-.17-1.22a4,4,0,0,0,1.31-2.14c-1.58-7.61-5.77-13.58-9.37-19.92-.52,1.29-.09,4.64-1.53,6.7-.64-.2-1,.38-1.78.52-.43-.69-1,.14-1.17-.89-.22.18-.28.57-.5.76a5.65,5.65,0,0,0,3.1.56c.4,1.17-.79,2-1.61,2.77-.45-.06-.89-.13-.85-.49.2-.15.68.07.63-.4-.73-.14-1.42-.21-1.73.2a1.37,1.37,0,0,1,.49.43c-.36.2-.51.69-1.05.65-.47-.44-.34-1.26-1-1.55-.32.19-.31.82-.41,1.29-.65-.1-.9.32-1.55.23-1.36-1-2.56-2.65-1.66-4.56-1.16-1.14-2.57.33-3.62-.83-.27-1.59-1.1-2-2.31-3-.13,1.81,1.18,2.72,1.38,4a14.55,14.55,0,0,0,1.11,3.43c1.11,3,3.07,5.76,3.8,8.53.32,1.2-.06,2.46,1.1,3.43-.51.73.5,1.53.18,2.25.46.06.63-.21.7.29-1.66.16-3.41,1.11-3.27,2.64.1,1.11,2.16,1.77,2.13,2.94,2.3.88,5.5,2,5.56,3.74a2.26,2.26,0,0,1,1.11,3.44c.14.2.66.17.46.59-1.79-.22-1.29,2.51-2.42,3.13-.75.06-1.18-.73-1.49-.1.29.31,1,.36,1.19.73-.62.14-.31.56-.38,1.12a14.24,14.24,0,0,0-2.17,3.86c-1.95.78-2.65,3.16-4.62,3.92-.75,1.93-2.77,2.21-3.68,3.92a154.33,154.33,0,0,1-18.87,10.17c-3.93,1.06-7,2.26-11.41,2.85a5.22,5.22,0,0,1-.75,0c-2.12-.08-3.26.39-5,.29-5-.29-10.29-1.14-15.64-2-2.58-1.27-6.07-2-9.08-3-2.54-.87-4.35-3-7.32-3.38-1-1.53-4.16-1.73-4.66-3.57-1-.91-2.84-1.27-3.12-2.62-2.16-.71-2.4-2.62-4.29-3.5a.89.89,0,0,0-.07-.7c-1.28-1-1.9-2.35-3.2-3.3-1.23-2.42-3.24-4.26-4.06-7-.63-2.16-.68-4.45-1.47-6.74a21.16,21.16,0,0,0,.07-7c.42-2-.16-3.78-.08-6.14a2.33,2.33,0,0,0-2.13-.73c-.3-.59-.54-.55,0-1-.83-.4-.48,0-1.31-.06.39-.54-.6-.22-.46-.6.31,0,1.58-.27,1-.16l-1.46-.27c.45-.27.07-.54,0-.86.09.12.8.55.91.17-.95-.72-1.38.34-2.3.26-.18-3.28.54-8.51,3.69-10.56-.8,0-.71-.54-.56-1.12.22.06.37.37.55.1-.58.06-.26-.43-.25-.73a5.44,5.44,0,0,0,1.47-.92c-.38-1.22,1.52-2.67,2.79-3.07.68-1.63,2.26-2.15,4.07-1.8.4-.3.38-1.13,1-1.19,1.21.23,1.36,1.11,2.17,1.59,3-.76,3.82-4.23,7-4.68,1.5.94,2.37-.36,3-1.15-.37-1.48.83-2.35,1.18-3.53,2.41-1.46,5.62-1.89,8.09-3.29,2.93-.38,5.16-1.68,7.46-2.89,3.85-.81,6.39-3.23,11.29-2.19.21-.39.82-.28,1.2-.46,8.35.51,16.79,2.21,22.5,6,.27-1,1.81-.64,1.48.1a1.16,1.16,0,0,1,.45-.43c.14.77.62.42,1.22.57,2.27.55,4.87,2.85,7.35,3.21,1,1.89,4.14,3,5.91,4,.94,1.26,3.64,2.89,3,4.13a1,1,0,0,1,.92,1.19c.89.14,1.64,1.63,2.64,2.19a7.72,7.72,0,0,0,.8-1.39c0,.77,1.56.51,1.36-.26l-1.27-.23c-.18-1.12-1.51-1.5-1.61-2.68,0-.33.43-.5.5-.76.68-2.49-3.33-3.58-1.77-6.11.5.34-.63.77.22.89.67-1.14-1.38-1.54-1.58-2.84-.31-2,.77-3.38,1.92-4.58,2.68,2.1,4.27,4.89,6.88,7-1.17-2.9-3.67-5-5.28-7.6.95,0,.93-1.66,1.81-.69.48-.66-.64-1.06-.16-1.22a1.77,1.77,0,0,0,1.06.36c-.11-.55,0-.49.48-.59.32.28-.52.8.2,1,.52-.7,1.51.08,1.77-1.55a5.51,5.51,0,0,1-2.92-.53,1.87,1.87,0,0,0,1.42-.59c-.7-.41-.95-.19-1.17-.89.72,0,1.41.22,2.09-.13-.46-.11-.66-.37-.61-.79-.56-.19-.5.43-1.15.13-.39-1,.72-2.24.05-3.57a62.55,62.55,0,0,0-17.38-4c-1.43-.14-2.94.17-4.28-.27-.78-.26-1.65-1.28-2.72-1.69-3.31-1.27-7.15-2.93-9.76-2.3,2.59,1.62,7.9,3.23,10.94,4.21-2.58,1.38-6.26,1.35-10,1.24-2.27.62-6.19.87-8.64,0,.38-.85,1.62-.58,2.56-.72a6.31,6.31,0,0,1,2.59-1.91c-3-.13-6-.19-8.21.71-3.93-.88-8.77-1.19-9.88-3.84a16,16,0,0,1,7.64-.65c-.27,1.2-1.41,1.28-2,2a1.72,1.72,0,0,0,2.17,1.59,4.11,4.11,0,0,1,1.26-4,14.94,14.94,0,0,1,5.65,1c1.08-1.9-1.09-1.57-2-1.72-.3-.06-.72-.46-1-.53a25.21,25.21,0,0,0-3,.12c-1.52,0-3.32-.49-4.8-.53-1.11,0-2.26.41-3.27.42-1.87,0-3.55-.54-5-.24-3.37-5.56-13.88-9.73-21.5-7.33-2.95,2.52-7.23,3.33-8.52,8-2,1.89-1.2,5.5-2.12,8-.12.31-.44.45-.51.76-.55,2.25.89,3.52,1.94,5.12-1.76,3.1-4.9,4.43-6.12,8.24a34.48,34.48,0,0,1-5.58,5.1c-.82,2.24-2.74,3.06-4,4.72-1.64,3.52-4.51,5.47-5.77,9.49a2.65,2.65,0,0,0-.87,2.91c-.35.09-.69.19-.69.72.45,0,.34.38.88.33.39-.48.07-.63.23-1.32.42-.06.69-.31,1.33-.09,1.85-2.33,3.28-5.18,6.15-6.2a2.53,2.53,0,0,1,3.13-1.81l-.55-.1a1.88,1.88,0,0,1,.14,1.39c-.36,0-.52.27-1,.16-.24,1.24-1,1.7-.27,2.68-3.61,3.67-3.58,10.77-4.52,15.34a47.17,47.17,0,0,0-.73,11.95c-.19.36-.87.09-1,.49.26.28.92.31,1,.69-.54.37-1.6.5-1.35,1.29.68.54.84-.25,1.7,0-.24.29-.85.11-.87.69.56.19.5-.43,1.15-.13.62,1.75-1.4,1.44-2.38,1.78.09.83.85.78,1.74.83-.13.3-.73,0-.66.56.66.16,1.35-.67,1.58-.4,0,.11,0,.2.15.2-.11.34-.45-.33-.6.23,1,.12.73,1,1.68,1.16s1.32-.49,1.94-.33c.72-1.13-.42-1.86,0-3.23.71-.09,1.06-.65,2.12-.29,0,.23.2.36.07.69-.8,0-.36,1.08-1.39.43-.09,1,1.46.55,1.67.13,2.16,2.28-.58,6.69,2.52,8.29a10.86,10.86,0,0,1,.32,1.42c-.36,0-.69-.65-.75,0s1-.06.88.33c0,.41-.82-.24-.63.4,1.88-.33,1.2,2,3.17,1.26a11.47,11.47,0,0,1,.2,2.08c-.69.3-1.19-.25-1.6.56-.55-.57-1.08-.24-1.34-.93.46-.54,1.1-.27.95-1.19-1-.22,0,1.13-1.42.6-.37-.73.13-.65,0-1.19-.27-.08-.68-.07-.7-.3.05-.77-.45-.88.38-1.12-1.75.15-1.49-2.07-2.52-2.85,0-.53.91.11.84-.52,0-.28-.55-.25-.25-.73-.51-.12-.51.42-1,.33,0-.9.24-1.09.53-2a3.34,3.34,0,0,0-1.9-1c0,.47.68.56.56,1.12-1,.44-1.88-.4-2.89-.7-.19.85-1,.76-1.45.76-.53-.35.84-.73,0-.86-.95.05-3.05.37-3.8,1.35.15.49.86.63.71,1.32-.18,0-.24.09-.39.1-2.33-1.3-1.16-4.78-4.74-5.29-.31,4.17,1.89,7.87,3.72,11.23a26,26,0,0,0,4.2,6.21c.07,1.13,1.08,1.68,1.42,2.64l.92.17a4.56,4.56,0,0,0,2.38,3.67c-.25.5.2.56.22.89.45,0,.35.37.88.33,1.14,2.36,3.57,4.3,5.78,5.82s3.63,3.19,5.82,4.47a31.5,31.5,0,0,0,4.69,2.22c-.11.31.2.37.28.56,3.65,1.2,7,3.14,10.48,3.61,6.72,3.36,14.85,3.29,21.49,5.29a134.8,134.8,0,0,0,22.26-.36,2.13,2.13,0,0,1,1.87-1c0,.45.34.67,1,.69.38-.29.49-.41.35-1,2.51-.67,5.6-.59,8.43-.85,0-.53-.08-.34.14-.82,1.81.25,2.53-.9,4.27-.75.25-.8-.18-1.17-.48-1.62,1.8-1.24,5-.75,6.9-1.81,0,.23.17.38.49.43.45-.87,1.63-.62,1.22-1.64.32-.2,1,.14,1-.5.16-.44-1-.05-.86-.49.72,0,.9-.6,1.14-1.16-.42-.37-.67.07-.88-.33.47-.42,1.27-.11,1.64.3,1.59.19,1.26-1.16,3.14-.79.24-.42,1.22-1.76.16-2-.57,1.14-2.52,1.58-3.62,1.38.65-.91,2.74-1,2.49-2.44-1.46.34-2,1.92-3.56,2.08-.39-.74-1.33-1.14-2-1.72-.43,1.24-2,1-2.22,2a.78.78,0,0,1-.16-.2c-.18,1.05-1.55.55-1.61,1.75.3.15,1.1,0,1.06.37-.35.69-1.73,1.27-2.33.42-.45.1-.62.55-1,.66-.78-.58.13-1.26.62-1.42-.16-1.13-1.25-1.67-1.82-2.54,1.17-.77,1.7-2.38,3.43-2.44.93.9,2.24-.21,3.27-.42-1.29-1.07-1.86-2.57-3.35-3.51a11,11,0,0,0,2.24-3.16c-.42-.3-.95.2-.92-.17,1.82-.42,2.36-2.48,4.25-2.8,1.38-2.17,4.47-3,5.09-5.54,1-.05,1.43-.84,2.57-.72,2.49,1.69-.78,4-.63,5.84-1.07,0-.47,1-1.32,1.12.24.2.54.36.43.76-.42-.14-.45.23-.94,0,.22.94-.1,1-.8,1.39.3.79,1.56.12,1.15-.13.19,0,.24-.1.4-.1,0,.2-.12.46.09.53.22-.37,0-.63.69-.73-.39-.26.06-1.11.38-1.12s.68.17.68.46c-.85,1.55-2.08,2.23-2.63,3.27l.08-.5c-.61.94-2-.22-2.54.56.21.06.52.06.52.26-2,.81-2.37,2.48-3.87,3.89.38.43.85-.25,1.67.14-.52,1,1,.88.71,1.32.54-.52,1.11-1.34,2.21-.79a4.5,4.5,0,0,1,2.32-1.45c.26.18.18.58.64.63.68.27.72-.28,1.18-.29-.09-.6-.77-1.07,0-1-.39-.76-1.75-.25-2.47-1,.17-.55,1,.43.94,0s.77-.48,1.34-.1a18.24,18.24,0,0,1,3.16-2c.5.08.32.34.73.13-.21-1.4,1.59-.23,1.71-1.22-.85.29-.93-.64-1.4-.59.88,0,1.52-.43,2.46-.06.35-.55.8-1,1.19-1.49.89.11.83-.1,1.88,0,.27-1.62,2.11-2.38,1.59-3.8-.07.14-.88.29-.75,0,.09-.42.81,0,.69-.72-1.11-.14-1.29.89-2.24.95a2.09,2.09,0,0,0-1.67-.13c-.27-.27-.66-.47-.59-1-.56-.18-.5.43-1.15.13a1.51,1.51,0,0,1-.05-1.88c-.4-.15-.52-.46-.83-.66,1.14.33.37-.49.66-.56,1.11-.05-.24.53.65.62.74-.44,1.91-.36,2.75-.68-.64-1.61,2.33-1.68,1.52-2.28.09-.42.67-.21,1.15-.13-.13-1.87,2-2.12,2.8-2-.06-.73.64-1.08,1.35-1.29C576,196.39,574.76,195.17,575.57,193.14Zm-11.44-12.3a63.8,63.8,0,0,1-6.2-3.35c.15-.11.37-.4.09-.49,0-.47.71,0,.81-.36-.37,0-1.28-1.77-.11-1.55-.77-.36-1-1.05-.08-1.72.4.29.35,0,.89.33-.36-.63-1.29-1.09-1.73-2,.26-.2.29-.71.85-.52.31-.5-.57-.24-.25-.73.21,0,.2-.27.26-.46l.92.17c.17-1-.87-1.33-.73-2.35a6.11,6.11,0,0,0,2.79.17c.6.48.29.68.72,1.32A1.81,1.81,0,0,1,561,170.4a4,4,0,0,0,1.83.33,12.37,12.37,0,0,1,.27,2.78c-1,.1-.81-1-1.58-.63-.09.6,1.29.27,1,1,1.61-.14,1.8,3.2,1.2,4A3.19,3.19,0,0,1,564.13,180.84ZM448.6,192.92a2,2,0,0,0,2.12-.29c.15.8-1.08,1.38-1.8,1.71C448.92,193.8,448.46,193.55,448.6,192.92Zm11.75,18.15a3.29,3.29,0,0,0-1.9,1.18c-1.72-2.21-4.62-3.69-5.27-6.58.75.22,1.06-.12,1.55-.23a3.29,3.29,0,0,0-1.67-.13c-.38-.26-.18-.87-.56-1.12.12-.24.22.1.55.1.05-.43-.56-.44-1-.53.3-.95-.07-1.57-1.33-2.12.83-1.11-1.31-2.56,0-3.07a4.4,4.4,0,0,1-1.29-3.47,2.47,2.47,0,0,0,1.33-1.12c.58,0,.4.53.82.66.25-.5-.19-.56-.43-.76.4-.4,1.11-1,1.54-.22-.12.23-.22-.11-.54-.1-.23.77,1.6,1.42.57,2.14,1.26.25,1.2,2.46,1.83,3.57-1,.1-1.42,1.37-2.57.72,0,.28.55.25.25.73.87.25,1-.48,1.46.27.59-.11-.1-.61.17-1,2.19.15,1.33,2.21,2.5,3-.25.56-.61.45-.17,1,.35-1.17,1.1,1,1.41,1.62a1,1,0,0,1,.58-.06c-.29-.38-.31-.19-.07-.69.57.13,1.06.31,1,.86-2.85,0,1.76,2.7-.2,3.36C459.19,209.56,460.82,209.66,460.35,211.07Zm3.33,4.69c-.56.07-.85.19-.69.72l-.91-.16c0-.8-1.23-1.3-.07-2.91.31,0,.29.21.52.27s.18-.18.24-.3c.31,0,.14,1-.14.82.16.24.53.22,1.09.2,0,.85.89,1.12,1,1.89C464.11,216.27,463.81,216.07,463.68,215.76Zm14.72,12.9c-.83-.92-3.3-.64-3.16-2.45-1.24-.35-3.44-1.25-2.83-3.24.62.25.71.83,1.53,1-.83.57.47.37-.2,1.15.34,0,.78.06,1-.16.35.28,1.12,1.06.93,1.19.83.08,3,.71,3.39,2.15C478.83,228.41,478.35,228.19,478.4,228.66Zm59,1.58c.13-.51.3-1,.9-.86C538.06,229.76,538,230.31,537.39,230.24Zm1.76-2.57c-.83.09-1.54.22-2.19-.4a5.76,5.76,0,0,0,.5-1.78c.69-.18.91-.64,1.72-.2-.09.74-.5-.17-.78.2.14.56.36.15.85.5A3.66,3.66,0,0,1,539.15,227.67Zm-4.37-3c.29.65,1.78.55,1.2,1.75-.87,0-1.1-.36-1.85-.17l-.11.66c1-.07.16,1.48,1.83,1.36.45-.1-.43-.6-.19-1.06.73.23.91.8.66,1.65l-.92-.16c-.14.38.27.42,0,.85.66.24.84-.13,1.49.11,0,.53-.56.34-.69.72-.82,0-.65-.67-1.16-.89-.07.26-.62,1.9.21,2.08a3.61,3.61,0,0,0-1.75,1.38c-3.1,1.33-6.94.75-9.92,1.93-3.76-1.78-6.45.86-10.84-.44a3.34,3.34,0,0,1,.07-1.52c-2.94-.56-5.11-1-7.25-.48a3.45,3.45,0,0,0-3.53-.3c-.26-.33-.76-.51-1-.86-2.56,0-4.83-1.6-6.89-2.62-1-.52-2.42-.58-3.38-1.13-1.16-.67-4-2-5.16-2.81,0,0-1.42-1.65-1.86-1.19-.11.1-.07.36-.73-.14-.58.1.64.27.25.73-.7.2-1.05-.2-1.83-.33a2.42,2.42,0,0,1,.2-1.16c-1.44-.53-1.78,1.28-2.9.49.06-.4,1.17-.49.56-1.09-.06,0,2-.42,1.46.27.46-.15,1.07-.1,1.08-.82,0-.39-.89-.23-1.25-.4A121,121,0,0,1,469,206.69c-.51-.12-.71-.44-1.22-.56a1.63,1.63,0,0,0-2-1.56c.44-.21,1.22-.7,1.57-.39,0-.58-.26-1-.29-1.59,2.06,1.95,4.43,3.72,6.14,5.89a1.3,1.3,0,0,1,.94,0c.73,1.12,2.35,1.68,3.1,2.78,2.68.75,3.61,3.32,5.93,3.81.45.35.66.86,1.53,1,0,.62.53.94.89,1.35.61.25.75-.12,1.31.07.43,1.3,1.17.51,2.1.89-.17.38-.3.82-.87.69.05.27.2.47.25.73.9.29,1.06-.39,1.6-.56.73.28.9.92,1.05,1.56,1.62.49,5,1.07,6.82,1.92,1-.29,2.76-.42,3.71.34,1-.32,2.88.48,3.61-.19,2.29,0,4.39.74,6.65.7.62,0,1-.51,1.6-.56,1-.09,2.33.32,3.55.14,3.83-.55,8.85-1.09,12.44-2.32,1.75-.6,3.59-.9,5.53-1.55.54-.17.95-.75,1.48-.92.87-.28,1.88-.11,2.7-.35,1.88-.58,3.35-1.92,5.31-2.44C542.36,219,538.26,221.85,534.78,224.66Zm19-6.74c.41-.48.92-.83,1.35-1.28.49,0,.56.34.43.76C554.75,217.57,554.65,218.17,553.81,217.92Zm1.19.73.09-.49c.77.11,1,.48,1.64.3C556.34,219.2,555.39,218.12,555,218.65Zm4.15-15.41c.56-2.57,2.32-3.6,3.55-5.31,1.34,2-.1,3.89-1,5.61.21.34.6,1.56-.57,1.09,0-.16.25-.09.4-.1C561.25,204,559.42,204.15,559.15,203.24Zm-.48,12.68a.6.6,0,0,1,1-.33C559.36,215.73,559.14,216,558.67,215.92Zm1-4.75c1-.3.59-.44.62-1.42.7-.07,1.33-.53,2.07,0C561.78,210.61,561,211.91,559.67,211.17Zm-12.59,12a1.41,1.41,0,0,0-1.42.59c.22.06.42.13.31.4.84.13,1.16-.41.52.26.78.35.35-.88,1.2-.46C547.52,223.67,547.45,223.32,547.08,223.16Zm17.7-69.09c-.09.3.15.4.07.69.34.1.44-.11.76,0,.22-.78-.7-.84-1.11-1.22.1,0,.23-.1,0-.17-.57.66-1.57.64-1.84.86C563.59,154.73,564,154.24,564.78,154.07Zm-6.33,6.16c-.22.32-.63.39-.71.89.71-.28,1.6.63,2.4.27.2.49.77.75.56,1.12.44-.11,1.14-.48,1.51-.06,0-.32.27-.33.3-.63-.6.12-1.08.51-1.33.1,0-.21.27-.19.26-.46A16.94,16.94,0,0,1,558.45,160.23Zm16.2,21.85c.74.64.13,1.15-.63,1.41a4.63,4.63,0,0,1,.16,2.41,1.92,1.92,0,0,1-1.62-.46c-.45.67-.33,1-.65,1.58.27.37.49-.05,1.1.2-.33.46-.09,1,.53,1.29.24-.29.74-.25,1-.49,0-.94-1.43-.27-1.53-1,1,0,1.64-.24,2.88-.33.28-1,.76-2.14.11-2.87C576.8,183.08,575.83,182.13,574.65,182.08Zm-115-13.17c-.52.5-.58-.51-1.25-.4-.13.67.57.82,1.13,1.06C459.72,169.43,460,168.65,459.69,168.91Zm92.49,52c-.77.53-1.29-.55-2.07,0,.34.6-.11.92.35,1.26.3-.67.34-.34.39-.1.37-.5.39.42.89.33.16-.09.56-.85.17-1-.07.18-.25.22-.42.26,0-.16-.12-.22-.13-.36C551.81,221.33,552,221.07,552.18,220.86Zm-70.56-4.38c-.3-.21-.2-.66-.62-.79-.48.14.25.56-.29.62,0-.09-.12-.21-.19,0,.28.42,2.18.88,2.47,1C482.66,216.78,481.62,215.85,481.62,216.48Zm1.37.76Z" transform="translate(-13 -10.73)"/><path class="cls-13" d="M163,177.39c4.24.43,6.46-1.83,5.33-4.62C165.89,166.9,156.81,174.12,163,177.39Zm119.53,24.42c1.43.7,3.48-1,4.75-1.63C286.43,198.31,281.62,199.75,282.48,201.81Zm-5.41-1.46c.36.89,1.3.62,1.91,1-.3.35-.68.65-.39,1.25a6.63,6.63,0,0,0,3.23-1.67c-.61-.66-.25-.54-.59-1.45C280.21,199.18,278.05,199.29,277.07,200.35Zm-2.14,2.12c-1,.82-2.31.42-2.44,1.4,1.14-.67,3,.33,3.16-1.09A.85.85,0,0,1,274.93,202.47Zm7.29-2.78a8.92,8.92,0,0,0,2.41-2.21c-.75-.25-2,.5-3,.76C282.18,199,281.55,199.43,282.22,199.69Zm-53.74,6.87c.15.57.44.89.92.78-.05-.35.19-.59-.13-1.06Zm-1.08-2.67c-.15-.88-.87-.61-1.29-.94-.3.63.34.38.49,1.21Zm28.68-30c-.77.21-1.45.46-1,1.18C255.64,174.74,256.09,174.39,256.08,173.85Zm-46.85,12c.79,1.49,2.28,1.57,3.72,1.76C211.3,186.84,211.38,185.15,209.23,185.81Zm-5.86-4.06c.88.73,1.61,1.75,2.83,1.79A4.07,4.07,0,0,0,203.37,181.75Zm-2-2.64c-.67.19-.67.65-.76,1.09,1.07.06,1.35,1.7,2.64,1.3C202.55,180,201.93,180.31,201.39,179.11Zm46.93-19.18-.79.28c.19.66.52,1,1.19.69ZM209.15,172.3c1.32-2.06,2.32-.43,4.58-1.3a1.74,1.74,0,0,1,.23-.91c-1.79-2.39-3.57.61-6.1,1.27-.38-1.59-2.4.14-3.06-.88,1.09-1,.29-1.72-.29-2.94-1.27.93-1.25-.73-2.24-.34,0,.75-.66,1.2-.73,1.91.59.47.87-.61,1.15-.12-.18.39.05,1,.33,1.54,2.1,1.18,3.87,2.67,6.72,3.22C210.06,173.15,209.28,173.21,209.15,172.3Zm-7.26,3.6c-.57-1.06-1.08,0-1.94.39A5.14,5.14,0,0,0,201.89,175.9Zm14.92-10.66c.26.44-.42.64-1,1.18.16.27.24.71.56.64,0-.8.48-1.08,1.39-1C217.49,165.62,217.5,164.73,216.81,165.24Zm-4.59,1.3c.06.67.18,1.58,1,1.61-.13-.32.37-.38.33-.67-.44.08-.4-.47-.3-.73C212.72,167,212.56,166.6,212.22,166.54Zm-5.54-.31c-.37.71.56.71.23,1.31.55-.07.88.29,1.52,0-.55-.7.48-.74.4-1.24-.33.06-.44-.29-.56-.64C207,166.08,207.81,167.32,206.68,166.23Zm112.9-48.48c7.05-4.29-4-13.61-8.1-6.61C309.21,115,314.39,120.91,319.58,117.75ZM190.59,151c0,.21-.11.36-.43.42.11.81.63.79.86,1.37.92-.29,1.44-.74.82-1.67C191.13,151.72,191.05,151,190.59,151ZM257.2,58.21c-.89-1.21-3.18-1.81-4.64-2.55-3.19-1.62-5.45-2.75-8.76-3.07-13.31-1.27-23.4,11.55-20.44,22.23,1.19,4.29,6.7,8.91,9.68,10.49,4.29,2.28,12.47,3.14,18,.72,2.68-1.18,3.37-2.68,5.54-4.12,1.18-.79,2.61-1.09,3.23-1.67,1.25-1.14,2.48-4.38,2.52-6.39,0-.8-.57-1.8-.46-2.6.14-1.1,1.22-2.17,1.13-3.15-.33-3.22-2-5.16-3.39-6.86-.42-.5-1.28-.67-1.65-1.09S257.59,58.72,257.2,58.21Zm-97.66,50.44c-.57.11-.9-.25-1.36-.37a5.41,5.41,0,0,0,.07,1.64C158.76,109.53,159.62,109.29,159.54,108.65ZM314.63,50.08c-.3-.54.66-.54.5-1-1,.09-.25-.53-.92-.78-.83.25-.45,1-1.65,1.12.15.58.43.89.92.79.34-.33.08-.91.76-1.09C314.22,49.28,314,50.26,314.63,50.08Zm8.09-7.48c.18-1.06.75-1.88.43-2.64C322.43,40.47,321.7,42,322.72,42.6ZM163.29,90.5c.72,1.31.61-.13,1.68-.3,0-.71-1.12-1.19-1.09-.46C164.59,89.62,163.91,90.52,163.29,90.5ZM266.21,49.31c-.34.12-.41-.35-.72-.31.33.44-1.23,1.06-.13,1.16C265.27,49.71,266.27,50.1,266.21,49.31ZM157.4,83.4c.8-.41,1.55-2.75.2-1.73C158.45,81.73,155.93,83.1,157.4,83.4Zm.2-3.94a5.57,5.57,0,0,0-2.11,2.94C156.5,81.55,157.55,80.72,157.6,79.46Zm9-5.29c.41-.1.94-.42,1.16-.12.07.14.15.27.36.15.26-.65-.39-.41-.13-1.06C167.26,73.38,166.35,73.54,166.57,74.17ZM273.69,32.92l-.3-.73c-.63.14-1,.4-.85.85C272.92,33,273.18,33.21,273.69,32.92Zm-23.6.37c-.19-.94-.93-.76-1.71-.51C248.73,33.39,249.4,33.36,250.09,33.29ZM167.17,71.2ZM156.3,133.25c3-1,5.8,1.66,8.24,3.25-.16.47-1,.66-.66,1.33.29.14,1.08-.39,1.78-.06-.13-.39-.38-.82.23-.9a31.63,31.63,0,0,1,3.69.94c-.28.62.39,1.64,0,2.21,3,.93.45,3.78.81,5,.14.32.56.06.73.3-.79.83-2.09.19-2.18,1.31.84.18.81-.6,1.42-.21,0,1.38,1.09,3.58.91,5.21-.13-.87-.67-.19-.52.18.84.18.81-.6,1.41-.21.29.59-.09.9-.39,1.24-.21-.23-1.43-.56-1.42.21.7.67,1,.12,1.61.28-.88.09-.23.84-1.12.93-1.5-.6-1.29-1.62-1.18-2.91-3.15,1-.14,2.6-.73,4.12.85-.24.62-.94,1.65-1.12-.4.86.94.71,1.22,1.52-.55,1-.21,2.46.06,3.85,8.27,9,18.6,13.95,28.48,19.78-.4-2.12-3.69-6.3-3.52-10.12,1-.21,1-1.27,1.89-2,1.12.61,1.14-.91,2.24.33.14-.41-.11-1,0-1.39-2.08.39-2.84.32-4.48,1.54-1.48-1.27-.65-3.33-.19-4.91.64-.26,1.26-.48,1.51,0-.14.35-.94.41-.49,1,1.06-.35,2-.77,2.08-1.54a2.12,2.12,0,0,1-1-.21c.31-.55.09-1.31.82-1.67,1,.25,1.48,1.45,2.64,1.31.26-.5-.27-1.33-.53-2,.92-.35.9-1.09,1.82-1.45,2.57.28,5.49,1.65,5.89,4.89,2.45.66,3.06-2.35,5.38-1.58,1.65,1.94,3.1,1.94,5.44,2.28-1.32-2.52-3.76-2.77-5.08-4.34a24.8,24.8,0,0,0-4.24-3.79c-3.9-3.2-8.71-5.44-11.92-8.61-1.4-1.39-1.94-3.36-4.25-3.8.07-1.35-1.9-1.68-2.07-2.88-.65.26-.64.75-1.15.12,2-1.43,3.52-4,2.08-6-1-1.42-4.25-.77-5.17-2.37-3.71.54-8.73,1.46-10.28-.89-2.51.69-4.67-2.35-4.25-3.79-.35-.17-1,.26-1.09-.46,2.5-1-.39-4.32.57-6,.93-.63,2.13.11,2-1-.63-.2-1.58.25-2.14-.1.7-.65-.05-1-.42-1.78.44-2.24,0-4-.36-6.79,1.9-2.5.86-6.22,2.79-8.7-.62-3.14,1.78-5,1.55-8,4.88-9.43,9.81-18.83,16.13-27.65,4.22-4.34,7.21-8.22,12.44-12.3a8.14,8.14,0,0,1,1-.6c2.81-1.46,3.9-2.94,6.17-4.06a229.59,229.59,0,0,1,21.93-8.92c4.37-.21,9.5-1.82,14.24-2.69,4-.72,8.13.86,12.27-.89,2.56,1.3,6.8-.77,9,1.34,2,.49,4.72-.41,6.2,1.19,3.38-.65,5.26,1.74,8.43,1.52a1.48,1.48,0,0,0,.66.88c2.45.35,4.38,1.74,6.85,2.06,3.58,2.33,7.69,3.31,11,6.44,2.59,2.43,4.53,5.46,7.43,7.94,1.45,3.22,3.33,7,5.62,9.4,1.08,3,3.3,5,5.13,8.19a3.5,3.5,0,0,0,3.37-.61c.87.56,1.14.34.85,1.37,1.41-.07.58-.42,1.75-.88-.06,1,1-.16,1.09.46-.43.19-1.82,1.54-1.12.93l2.11-.72c-.37.7.35.77.75,1.12-.21-.08-1.48-.14-1.32.46,1.83.26,1.51-1.49,2.78-2.06,2.91,4.27,6.27,11.82,3.86,16.91,1-.61,1.36.19,1.65,1.09-.33.07-.78-.23-.8.27.7-.51.69.38.93.79a7.94,7.94,0,0,0-1.16,2.33c1.5,1.36.22,4.71-1.1,6.19.46,2.7-1.17,4.56-3.8,5.45-.26.69.44,1.79-.26,2.3-1.76.59-2.68-.49-4.12-.52-3.22,3.22-1.48,8.5-5.26,11.48-2.71-.15-2.76,2.25-3,3.79,1.7,1.7.86,3.76,1.38,5.6-1.93,3.76-5.75,6.72-7.8,10.42-3.49,2.7-5.32,6.09-7.3,9.42-4.32,3.95-5.63,9.09-12.84,11.33,0,.68-.83,1-1.18,1.51-11.24,5.51-23.58,9.48-34.06,8.67.46,1.54-1.83,2.2-2,1a1.67,1.67,0,0,1-.23.91c-.81-.93-1.14-.1-2,.15-3.39.94-8.65-.23-12.17,1.14-2.82-1.81-7.85-1-10.91-1-2.25-1-7.08-1.17-7.34-3.28a1.6,1.6,0,0,1-2.17-.91c-1.27.48-3.46-1-5.21-1a11.28,11.28,0,0,0,.1,2.45c-.62-1-2.45.47-1.56,1.36l1.85-.63c1.14,1.36,3.18.88,4.28,2.39.31.43-.15,1,0,1.4,1.17,3.84,7.25,2.33,7.31,6.88-.93-.07.18-1.5-1-1,.08,2,3.06,1.05,4.38,2.64,2,2.44,1.78,5.12,1.28,7.58-5.2-.84-9.55-3.4-14.7-4.34,3.9,3,8.84,3.95,13.08,6.28-1.2.75.15,2.91-1.78,2.27-.08,1.23,1.69,1,1.21,1.52a2.5,2.5,0,0,0-1.68.3c.61.66.45.62-.13,1.15-.64-.14,0-1.47-1.12-1.27-.1,1.34-2,1-1,3.39.85-.59,3.12-1.64,4.23-1.45a2.65,2.65,0,0,0-1.36,1.84c1.24,0,1.38-.45,2.24.34-.9.59-2,.75-2.6,1.73a1.07,1.07,0,0,1,1.44.6c.88-.17.3-.95,1.39-1,1.36,1.1.9,3.54,2.86,4.83,8-.87,17.69-3.85,25.82-7.5,2-.88,3.67-2.41,5.77-2.81,1.23-.24,3.19.49,4.91.24,5.34-.75,11.68-1.38,14.54-4.17-4.69-.24-12.89,1.54-17.63,2.47,2.21-3.76,7-6.45,11.94-9.08,2.44-2.51,7.32-5.76,11.25-6.35.2,1.42-1.63,2-2.74,2.87,0,1.75-1,3.08-1.78,4.49,4-2.07,7.93-4.19,10.06-7.06,5.82-1.73,12.35-4.9,16-2.16-2.24,2.41-5.6,5.43-9.37,6.53-.63-1.81.78-2.76,1-4.21-.83-1.07-2.72-2-4.12-.52a6.54,6.54,0,0,1,1.67,6.34,21.67,21.67,0,0,1-8.18,2.81c.16,3.35,2.71,1.3,4,.85.43-.15,1.31.08,1.78-.06,1.1-.31,2.18-1.54,3.82-2.42,2-1.07,4.72-1.8,6.67-2.84,1.47-.79,2.58-2.24,3.89-3,2.42-1.41,5-1.9,6.73-3.42,8.93,5,26,2.76,33.89-6.12,1.75-5.58,6.63-9.83,4.51-17,1-4-3-8.26-3.78-12.25-.1-.51.19-.93,0-1.39-1.14-3.43-4-4.08-6.72-5.43-.27-5.48,2.73-9.59,1.18-15.6a50.56,50.56,0,0,1,3.05-11c-.77-3.61,1.05-6.14,1.33-9.3-.76-6,1.36-10.71-.3-17a4.24,4.24,0,0,0-1.25-4.54c.37-.38.73-.77.3-1.49-.6.32-.75-.24-1.42.21-.11.95.44.91.79,1.94-.49.4-.65.94-1.65,1.12-.49,4.5,0,9.39-2.89,12.88.73,1.63-.4,4.44-2.57,4.76l.79-.28c-.76-.73-.76-.43-1.32-1.75.46-.28.45-.76,1.12-.94-.7-1.84-.11-3-1.84-3.79,1.67-7.62-4.19-17.12-6.72-24a77.77,77.77,0,0,0-8.84-16.58c0-.63,1.05-.77.92-1.43-.56-.18-1.44.27-1.88-.18.4-.88,1.68-1.85.7-2.73-1.32-.21-.89,1-2.18,1.31.07-.58,1-.79.57-1.58-.88.17-.3.95-1.39,1-2.23-1.89.63-3,1.62-4.15-.8-1.06-1.73-.42-2.93.18-.08-.51.94-.55.39-1.24-1,.27-1.2,1.89-1.71,1.69-.08-.14-.16-.27-.37-.15-.12-.53.87.11.6-.76-1.38.58-1.78-.81-3.13-.3-1.19.63-1.32,1.64-2.24,1.87,0,2.06,2.07,2.2,2.66,4.34-.86.65-.85,1.66-2.51,2-.21-.3-.56-.34-.66-.88,1.06-.55-.41-1.71,1.46-1.61-.72-1.42-2.35.34-2.28,1.06-4.67-1.45-4.74-9.4-10.07-9.25A18,18,0,0,1,302.52,41c.46-.28,1.44.36,1-.6-.44-.79-1.29.86-1.41.21-.34-.55,1.25-.28.49-1-2.18,1.84-3.17-1.75-5.14.66a18.69,18.69,0,0,1-2-2.64c.65-.91,1.75-.56,1.61-1.94,1.19.35,1.6-.48,2.51.25-.15,1.07-1.21,1.18-.27,2.3,1.44-.43-.87-1.53,1.36-1.84,1.08.69.36,1,1,1.6.41-.09.94-.42,1.15-.12.57,1.07,1.3.84.43,1.79,2.15-1.5,3.63,1.67,5.6,2,.44.72-1.27.54-.66,1.33.27.34.91-.08.92.79.76-.22.32-.94,1-1.18.81,1.17.59,1.64.92,3a5.1,5.1,0,0,0,3.3,0c-.42-.62-1.34-.25-1.65-1.1,1-1.36,2.77-.86,4.32-1.2-.45-1.29.64-1.74,1.26-2.09,1,.07-.5,1.59.75,1.12,1.2-.78,3.65-2.76,3.83-4.63-.6-.56-1.64-.22-2-1.25.26-.09.23-.3.42-.42,4.09,0,5.42,5.55,10.48,3.58-3-5.82-8.91-9.15-14-12.31-3.38-2.09-6.81-4.17-10.54-5.22-1-1.47-2.78-1.46-4-2.49l-1.32.45a7.4,7.4,0,0,0-6.09-3.15c-.09-.86-.72-.61-1-1-.6.32-.76-.24-1.42.22-3.4-2.33-8.15-3.13-12.26-3.53-3.89-.38-7.32-1.59-11.2-1.68a46.65,46.65,0,0,0-7.91.51c-.12-.5-.56-.36-.83-.54-5.71,1.09-11.68,1-16.55,2.92-11.45.48-21.94,6.61-32.18,8.86a190.51,190.51,0,0,0-28.57,17,3,3,0,0,1-1.58,2.76c-.36-.61-1-.65-1.88-.18-.26.67-.3.92.33,1.54-2.7,2.76-6.77,4.95-10.23,7.39.48.68.37.4.49,1.21-2.56,1-2.55,3.09-4.92,4.18.33,1.26,1.19,1.43,1.95,1.82-1.33,3-5.81,4.68-7.47,7.54a.79.79,0,0,0-1-.21c.13,1.51-1.61,2-.24,3.12-.24.5-1.47.59-.92,1.42.15.71,1.36-.69,1.51,0-1,.46-.67,1.46-.53,2.4.85.18.81-.6,1.42-.22-.27.93-1.55,1.1-2.38.82-2.21.93-.68,2.49-3.43,3.39,0,.74-.13,3.28,1.45,2.82-.19-2,2-4,3.56-4.54-.09,1.71-2.7,3.42-1.22,5.12,1.61-1.54,1-4,2.91-5.42,1.1.7,2.65.52,4,.85-.47-2,1.79-2.81,1.26-4.3a1.44,1.44,0,0,1,.36.15c-.62-1.54,1.57-1.89.67-3.55-.52,0-1.44.83-1.69.31-.11-1.2,1.21-3,2.68-2.31.5-.46.35-1.19.82-1.66,1.48.19.86,1.78.36,2.36,1.13,1.4,3,1.32,4.45,2.07-.9,1.9-.27,4.45-2.45,5.81-1.94-.51-2.74,2-3.89,3,2.54.47,4.52,2.07,7.21,2.22a16.46,16.46,0,0,0-.3,5.91c.78.09,1.06-1,1.32-.46-2,1.91-1,5.08-3.21,6.91,0,3.94-3.3,7.4-2.06,11.21-1.25.82-1.16,2.2-2.74,2.88-4.61-.42-2.26-5.92-4-8.31,1.38-.81-.23-1.72.8-2.49-.47-.07-1-.07-1.19-.69.68-.12.4-.64,1.22-.7-1.05-1.1-.65-1.38-.09-2.45-1-.84-2.12,1-1.39,1-.26.09-.23.3-.43.42-.15-.27-.23-.7-.56-.64,0,.67.49.87-.29,1.49.72.06.83,1.54.42,1.79-.57.27-1,.28-1.25-.13-.17-2.7.87-4.52.73-6.33l.3.73c0-1.71,2.72-1.16,2.84-2.63-.33.06-.74.3-.89,0,1.89-2.55,1-5.08,1.82-8.09-.85-.29-.89,1-2.27,1.06-.15-1.72-2-.45-2-1.24-.26,1.1-.35,2.61-2.21,2.69a6.47,6.47,0,0,1-1.82,3.67c-.49,0-.71-.63-1.35-.37-1.11.14-.7.92-1.29,1.28.6.73,1.87.86.85,1.36,1.13.73,2.48-1,4-.54.23.86-1.59.13-1.22.7.47.3-.59,1.22-1.65,1.12-.43,1.75-1.94,3.93-2.48,5-.71.27-.69-.22-1.05.36,1.42,1.74-1.88,1.5-1.22,2.92.87-1,1.73.17,2.3-.25-1.15.64-1.62,1.7-3.13,1.91,0,1-.24,1.91-.34,2.88-1.24.51-1,.75-2.44,1.39,1,2.37-.78,4.75,1.05,6.28,0-.25.91-1,.95-.61.24.63-1,.64-.29,1.48,1.54-.62.94-2.15,2.11-2.93a3.08,3.08,0,0,0,2.28-1.06c.58.15,1.24.14,1.54.85.88-.17.3-1,1.39-1a2.48,2.48,0,0,1,1.61,2.48c.63-.1,1.06.24,1.62.28-1.76.4-.08.92-.4,1.24-1.4.88-.12-.89-1.35-.36-.6,1.15-2.18,1.9-3,3,2.15,1.69-1.64,4-.1,4.19.22.63-.69.78-1.39,1,1.71,2.4-.92,4.36-1.95,4.81.68.93.06,1.93-.69,2.73C153.1,129.19,155.68,129.93,156.3,133.25Zm24.91,8a95,95,0,0,1,10.78-.11c-.11.26-.14.8.29.73.39.63-.89.56-.75,1.09.48-.3,3.1,1.42,1.41,2,1.29-.1,2.19.64,1.51,2.24-.75-.1-.48.2-1.41.21,1,.58,2.55.51,3.88,1.43-.16.47.21,1.16-.66,1.33,0,.9.93-.1.92.79-.29.15,0,.52,0,.82l-1.32.45c.63,1.54,2.21,1.14,2.87,2.61-1.53.5-3,1-3.76,1.85-1.18-.21-.93-.7-2-1.24a2.64,2.64,0,0,1,.79-2.49,5.8,5.8,0,0,0-2.63.91,21.13,21.13,0,0,1-2.64-3.52c1.23-.88,1.91.78,2.58-.33-.37-.88-1.9.59-2.08-.67-2,1.38-4.95-3-4.81-4.43C183,144.39,181.27,142.74,181.21,141.27Zm139.87-102a2.8,2.8,0,0,0-2.51,2c-.85-1,.28-2.65.93-3.63C319.94,38.35,320.74,38.35,321.08,39.29ZM291,23.66a4.72,4.72,0,0,0,1.49-3c4.05,1.69,9,1.53,12.22,4.92-1.14.26-1.27.94-1.81,1.45A4.71,4.71,0,0,0,305.14,26c.7.06.95,1,1.65,1.09,0,.4-.38,0-.79.27.28.61,1.08.18,1.78-.06.37,1.49,1.37,2,3.46,1.85-.18,2.11,3.79,2.47,2.56,4.09a7.26,7.26,0,0,1,4.51,3.71,3.56,3.56,0,0,0-.79,2.48c-.78.4-1-.41-1.62-.27.09.85.72.62,1.19.69-.19.85-.63,2.15-1.82,1.46,0-.4.38,0,.79-.28-.34-1.2-3.25-.71-2.5-2.45-1.84.61-3.56-2.4-5.3-3.43,1.24-.9.73-2.89,2.74-2.88-.27-.34-.91.08-.92-.79-1.33.32-.9,1.38-2.11.73-.68.57.62.73.59,1.45-3,1.42-3.54-2-5.7-2.18-.14-.92.42-1.05-.59-1.46.49,1.84-2.23-.48-3.16-1.12a1.3,1.3,0,0,1-.7.51c.68.31.56,0,.66.88-.85.25-1.64.37-2-.42,3.7-2.1-4.51-2.32-2.5-4.67C293.7,24.83,291.5,25.9,291,23.66Zm-8.17-3.82c.68-.52.95-.89.3-1.49l1.32-.45c.6,1.1,2.66.82,2.47,3.85-.4.21-.55-.07-.89,0s-.09.37-.07.57c-.38.26-1-1.17-.49-1.21-.4-.19-.87.11-1.58.55-.68-1.15-2.07-.84-2.84-1.8A1.52,1.52,0,0,1,282.8,19.84Zm-29.65-6.39c1.83.62,4.8-1.59,6.1.94,1.9-.45,5.49-.88,6.32,2.25-1,.12-1.6-.59-2.77-.16.61-1.37-.9-.15-.69-1.69-.41.29-1,.5-1.12.94-.68-.12-2.32-.59-2.17-.91-1.15.51-4.47,1.27-6.17-.37C252.79,14.1,253.6,14,253.15,13.45ZM175.37,55.11c.26.78.4,1.51-.47,1.82C174.9,56.26,174.57,55.45,175.37,55.11Zm-.17,4.76c1-.73,1.81-1.44,3.16-1.09a9.37,9.37,0,0,0,.82,2.76c-.75.75-.66,1.54-2.08,1.54-.47-1,.8-.14.86-.84-.65-.65-.59.06-1.51,0A6.11,6.11,0,0,1,175.2,59.87Zm8.14.79c-.92-.65-2.77.59-3-1.45,1.1-.69,1.73-.34,2.54-1.15l-.4-1c-1.17.8-1.42-1.85-3.49-.46-.49.47,1.06.48,1.12,1.27-1.14.24-1.84-.39-2.21-1.72l1.32-.46c-.12-.62-.69-.36-.75-1.12-1.05.17-1,.8-2,1-.44-.72.45-.89.29-1.48,1.09-.58,1.4.41,2.25.33-.14-.4-.77-3-2-2.64.54-1,1.26-1.89,1.13-3.15,2.93-4.08,8.38-6.16,11.28-10,6.33-.4,7.66-5.93,14.42-7.44A5.52,5.52,0,0,1,205,33.32c4.28-1.44,7.45-2.44,9.8-4.75a4.94,4.94,0,0,0,4.81-2.21c.61.25,1.4.12,2,.43,3.31-1.91,7.57-1.45,11.07-1.6,1.78-.08,3.62-1,5.31-1,2.05,0,6.8-.29,9-.05,0,0,3.19,1.16,3.4.21,0-.21-.21-.54,1-.36.67-.56-1,.12-.92-.79.74-.79,1.52-.52,2.64-.9a3.79,3.79,0,0,1,.69,1.7c2.3-.36,1.26-3,3.36-2.82.24.58-1.11,1.52.16,1.88.07-.07-2.26,2.06-2.11.72-.47.54-1.3.93-.72,1.91.33.5,1.34-.35,1.94-.39C265.84,28,274.6,32,283.34,36c.77-.22,1.28.06,2-.15a2.57,2.57,0,0,0,3.86.61c-.41.6-1,1.84-1.72,1.69.5.76,1.17,1.18,1.68,1.91-4.27-1.09-8.78-1.69-12.78-3.34a1.88,1.88,0,0,1-1.22.7c-1.86-1-4.42-.51-6.3-1.43-4.08,1-7.39-1.78-10.81-.71-.87-.14-1.56-.67-2.76-.15-.54-.83-1.47-.88-2.28-1.16-1,.12-.86.71-1.74.88-1.63-1.43-1.94.19-3.47.36-.09-.64-.28-1.32.57-1.57-.29-.32-.64-.48-.92-.79-1.41.28-1.05,1.3-1.62,1.94-1.18.16-1.91-.57-2.64-1.31-2.5.53-7.36,2.27-10.42,2.48-1.09,1.15-3.23,2.61-5.08,2.3-1,1.17-4.12,1.49-4.52,2.93-3,1.74-6.3,2.26-9.2,4-.79.47-.93,1.44-1.62,1.93-1.24.88-3.27,1.31-4.71,2.45-4.51,3.58-10.58,8-14.23,12.36-1.77,2.1-3.92,3.86-5.9,6.17-.55.63-.62,1.72-1.16,2.34-.91,1-2.35,1.54-3.2,2.48-2,2.17-2.79,5.06-4.89,7.21C178.14,73.89,181.13,67,183.34,60.66ZM164.19,83.83c-.13,1-.51,1.8-.7,2.73-.66.31-1,0-1.18-.7C163.26,85,162.9,84.13,164.19,83.83ZM162,83.74l.3.73c-1.09.41-1.65.06-2.38.81C159.87,84,162,84.75,162,83.74Zm7.25,23.76c1.39,3.87,0,6.56-.24,9.76-3.36-1.67-3.05-5.29-3.35-8.24-.55-.3-2.06-1.64-.16-1.88.09.24-.25.3-.43.42C165.92,108,168.21,106.48,169.29,107.5Zm-9.76-17.37a.86.86,0,0,1-1,1.18C158.79,90.89,158.87,90.39,159.53,90.13Zm2.59,7.13c-1,1.11-.4,1,.36,2.36-.84.6-1.28,1.69-2.7,1.48C159.85,99.57,159.83,97.22,162.12,97.26Zm6.5-25.45A2,2,0,0,0,170,70c-.33.08-.65.14-.72-.31-1.2.45-1.17,1.41-.89,0-1.3.13.27,1.46-1.19,1.52C167.63,71.45,168,71.87,168.62,71.81Zm33.7,105.87c-.13-.47-.52-.43-.66-.87-.52.11-.47.47-1,.6.35,1.21,1.6.6,2.44.82-.15.05-.22.3.1.24.19-1.31,1.51-2,1.69-2.51C203.31,175.91,203.16,176.9,202.32,177.68Zm3.15-13c0-.6.51-1,.2-1.73-.71.9-2.6.34-3.33,1.42-.67-.51-1.62-.43-1.65-1.09-.48.47-1.08,1.5-1.91,1.21.24.44-.08.64.13,1.06.68-.6,1-1.48,1.65-1.12.11.32-.2.45,0,.82C202.59,164.72,203.43,165,205.47,164.72Zm-38.9-17.31c-1.49-.3-1.13-1.44-.36-2.36a7.65,7.65,0,0,1-2.17-3.12,2.82,2.82,0,0,1,2.47-.58,14.91,14.91,0,0,0-.46-2.6c-.65-.3-.59.42-1.58.54.06-.85-.73-1.46-1.75-1.33-.07.57-.75.88-.92,1.42.8,1.23,2.07-.7,2.77.15-1.26.76-1.94,1.54-3.47,2.57.44,1.55.77,3.44,2.21,4C163,147.67,165,148.22,166.57,147.41ZM326.39,79.75c.26-1,1.17.25,1.95-.39-.38-1-1.42-.68-2.34-.58C325.92,79.07,326.23,80.32,326.39,79.75ZM163.9,78.68c.55-1.28,2.11-.22,2.7-1.48-.93-.55-.6-1.32-1.48-1.43.17,1.12-.16.71-.43.43-.07.93-.85-.29-1.42.21-.13.24,0,1.55.59,1.45-.05-.29.15-.48.34-.66.1.24.33.21.46.39C164,77.78,164,78.25,163.9,78.68ZM259,32.18c.55.06.8.74,1.45.61.51-.55-.78-.57-.13-1.06.05.13.32.2.26-.09-.7-.35-3.54.43-4,.54C257.36,32.55,259.47,33,259,32.18Zm-2.41,0c-.07,0-.06,0,0,0Z" transform="translate(-13 -10.73)"/><path class="cls-14" d="M298.92,353.53,327,314.87a28.56,28.56,0,0,1-8.36,1.3,37.48,37.48,0,0,1-35.31-21.56,46.55,46.55,0,0,1-5.39-21.74q0-19.89,13.84-33.18t34.67-13.28q21.56,0,35.4,13.75t13.85,35.12a52.67,52.67,0,0,1-8.74,29l-31.78,49.25Zm27.69-99.06a16.4,16.4,0,0,0-11.89,4.92,15.75,15.75,0,0,0-5,11.62,16.46,16.46,0,0,0,5,12.08,16.27,16.27,0,0,0,11.89,5,16.84,16.84,0,0,0,12.27-4.93,16.18,16.18,0,0,0,5-12,15.86,15.86,0,0,0-5.11-11.81A17,17,0,0,0,326.61,254.47Z" transform="translate(-13 -10.73)"/><path class="cls-14" d="M401.7,353.53l28.06-38.66a28.56,28.56,0,0,1-8.36,1.3A39.75,39.75,0,0,1,400,310.41q-8.55-5.39-13.94-15.8a46.67,46.67,0,0,1-5.39-21.74q0-19.89,13.85-33.18t34.66-13.28q21.56,0,35.41,13.75t13.84,35.12a52.66,52.66,0,0,1-8.73,29l-31.78,49.25Zm27.69-99.06a16.43,16.43,0,0,0-11.9,4.92,15.78,15.78,0,0,0-5,11.62,16.48,16.48,0,0,0,5,12.08,16.29,16.29,0,0,0,11.9,5,16.84,16.84,0,0,0,12.27-4.93,16.17,16.17,0,0,0,5-12,15.82,15.82,0,0,0-5.11-11.81A16.94,16.94,0,0,0,429.39,254.47Z" transform="translate(-13 -10.73)"/><path class="cls-14" d="M533.46,229V353.53H501.68V255.77h-13V229Z" transform="translate(-13 -10.73)"/><circle class="cls-14" cx="463.66" cy="332.75" r="14.9"/><g id="_99.1" data-name="99.1"><path class="cls-15" d="M292.92,347.53,321,308.87a28.56,28.56,0,0,1-8.36,1.3,37.48,37.48,0,0,1-35.31-21.56,46.55,46.55,0,0,1-5.39-21.74q0-19.89,13.84-33.18t34.67-13.28q21.56,0,35.4,13.75t13.85,35.12a52.67,52.67,0,0,1-8.74,29l-31.78,49.25Zm27.69-99.06a16.4,16.4,0,0,0-11.89,4.92,15.75,15.75,0,0,0-5,11.62,16.46,16.46,0,0,0,5,12.08,16.27,16.27,0,0,0,11.89,5,16.84,16.84,0,0,0,12.27-4.93,16.18,16.18,0,0,0,5-12,15.86,15.86,0,0,0-5.11-11.81A17,17,0,0,0,320.61,248.47Z" transform="translate(-13 -10.73)"/><path class="cls-15" d="M395.7,347.53l28.06-38.66a28.56,28.56,0,0,1-8.36,1.3A39.75,39.75,0,0,1,394,304.41q-8.55-5.39-13.94-15.8a46.67,46.67,0,0,1-5.39-21.74q0-19.89,13.85-33.18t34.66-13.28q21.56,0,35.41,13.75t13.84,35.12a52.66,52.66,0,0,1-8.73,29l-31.78,49.25Zm27.69-99.06a16.43,16.43,0,0,0-11.9,4.92,15.78,15.78,0,0,0-5,11.62,16.48,16.48,0,0,0,5,12.08,16.29,16.29,0,0,0,11.9,5,16.84,16.84,0,0,0,12.27-4.93,16.17,16.17,0,0,0,5-12,15.82,15.82,0,0,0-5.11-11.81A16.94,16.94,0,0,0,423.39,248.47Z" transform="translate(-13 -10.73)"/><path class="cls-15" d="M527.46,223V347.53H495.68V249.77h-13V223Z" transform="translate(-13 -10.73)"/></g><circle class="cls-16" cx="457.66" cy="326.75" r="14.9"/><circle class="cls-17" cx="488.79" cy="50.75" r="25.89"/><path class="cls-17" d="M601.22,214.76a88.83,88.83,0,0,1-39.83-9.65c-22.24-11.06-37.53-28.73-45.44-52.51s-6.28-46.93,4.86-68.78,29-36.92,53-44.92a97.23,97.23,0,0,1,30.68-5.23c16.16,0,31.73,4.63,46.29,13.76,13.15,8.36,22.83,18.33,28.82,29.66l4.12,7.78-53.62,17.84-3.24-4a34.8,34.8,0,0,0-17.22-12,32.37,32.37,0,0,0-9.59-1.49,33.31,33.31,0,0,0-10.51,1.77,32,32,0,0,0-20.08,18.15c-4.18,9.3-4.48,19-.91,29.77,3.68,11.05,9.89,18.92,19,24.06a32.68,32.68,0,0,0,16.42,4.6h0a33.87,33.87,0,0,0,10.7-1.82c13.11-4.36,20.64-14.68,23-31.56l.65-4.58L692,107.69l.83,9.4a86.34,86.34,0,0,1-14.4,57c-11.36,17-27.26,29-47.26,35.65A95,95,0,0,1,601.22,214.76Z" transform="translate(-13 -10.73)"/><path class="cls-17" d="M396,214.85c-25.51,0-47.44-8.83-65.18-26.24S304,149.53,304,124.28c0-26.28,9.52-48.34,28.29-65.57a89.86,89.86,0,0,1,29.64-17.64,99.93,99.93,0,0,1,34.77-6.4,91.81,91.81,0,0,1,54.18,17.41c16.38,11.64,27.25,26.54,32.3,44.28l2.7,9.5H426L423.85,102c-6.17-11.43-15.18-16.74-28.34-16.74a34.43,34.43,0,0,0-26,11c-6.75,6.89-10,15.43-10,26.16,0,13.48,3.47,23.63,10.61,31s16.3,10.89,28.23,10.89c7.48,0,13.55-1.75,18.55-5.35a23.72,23.72,0,0,0,5.21-5.13H378.79V106.38H488l.45,15.55c.68,26.11-8.09,48.37-26.07,66.18S422.12,214.85,396,214.85Z" transform="translate(-13 -10.73)"/><path class="cls-17" d="M290.44,211.76l-7.83-23H238.05l-8.55,23H169.59l69.87-174h42.16l69.08,174Zm-23.25-70.24L260.59,120l-6.68,21.57Z" transform="translate(-13 -10.73)"/><rect class="cls-17" x="462.9" y="66.68" width="50.77" height="134.36"/><polygon class="cls-17" points="57.78 154.69 58.56 200.96 0 200.96 0 25.3 66.05 25.3 90.99 85.43 115.57 25.3 181.88 25.3 181.88 200.96 123.58 200.96 124.23 154.37 90.94 233.9 57.78 154.69"/><path class="cls-16" d="M22.09,204.24V45.34H73l31,74.78,30.56-74.78h51.17v158.9h-40l1.16-86L103.94,221l-43-102.77,1.39,86Z" transform="translate(-13 -10.73)"/><circle class="cls-18" cx="488.79" cy="50.75" r="18.43"/><path class="cls-16" d="M288,181.27H232.86l-8.54,23H180.63L244.5,45.22h32.05L339.71,204.3H295.79ZM243.79,149h33.48L260.64,94.6Z" transform="translate(-13 -10.73)"/><path class="cls-16" d="M386.25,113.84h94.5l.24,8.31q.94,36.09-23.86,60.66T396,207.39q-35.39,0-60-24.1t-24.58-59q0-36.32,25.89-60.07a81.92,81.92,0,0,1,27.18-16.15,92.25,92.25,0,0,1,32.18-5.93,84.13,84.13,0,0,1,49.86,16Q469.1,74.18,476,98.4H430.41q-11.16-20.66-34.9-20.65A41.86,41.86,0,0,0,364.17,91Q352,103.4,352.06,122.38q0,23,12.7,36.21t33.6,13.18q13.53,0,22.91-6.76a31.16,31.16,0,0,0,12.23-18.64H386.25Z" transform="translate(-13 -10.73)"/><path class="cls-16" d="M519.22,84.87V204.3H483.36V84.87Z" transform="translate(-13 -10.73)"/><path class="cls-16" d="M645.05,131.17l40.33-13.42q2.54,28.68-13.17,52.17t-43.42,32.72q-33.35,11.09-64.08-4.21T523,150.24q-10.95-32.9,4.43-63T576.17,46q38.07-12.67,70.65,7.77,18.1,11.5,26.19,26.82L632.69,94a42.49,42.49,0,0,0-20.83-14.47,41,41,0,0,0-49.2,22.5q-7.39,16.49-1.18,35.18,6.38,19.16,22.4,28.21T617,168.77Q640.9,160.82,645.05,131.17Z" transform="translate(-13 -10.73)"/></svg>