<?xml version="1.0" encoding="UTF-8" ?>
<!DOCTYPE svg PUBLIC "-//W3C//DTD SVG 1.1//EN" "http://www.w3.org/Graphics/SVG/1.1/DTD/svg11.dtd">
<svg width="470pt" height="293pt" viewBox="0 0 470 293" version="1.1" xmlns="http://www.w3.org/2000/svg">
<g id="#fffffeff">
<path fill="#fffffe" opacity="1.00" d=" M 74.45 33.33 C 82.29 29.16 91.46 30.69 99.87 31.73 C 99.35 34.52 100.57 38.28 97.99 40.22 C 92.05 40.66 86.07 40.05 80.12 40.52 C 79.81 42.35 79.51 44.20 79.51 46.07 C 85.30 50.45 93.96 49.28 99.02 54.97 C 102.48 58.32 101.73 63.56 101.43 67.89 C 100.21 73.59 94.48 77.01 88.99 77.50 C 82.12 77.98 75.22 77.63 68.34 77.43 C 68.46 74.37 68.78 71.33 69.47 68.35 C 75.80 68.33 82.17 69.09 88.46 68.26 C 89.80 66.98 90.81 65.41 91.91 63.93 C 87.27 57.59 78.20 59.41 72.66 54.40 C 66.42 48.94 67.00 37.50 74.45 33.33 Z" />
<path fill="#fffffe" opacity="1.00" d=" M 25.43 31.58 C 32.63 31.57 39.83 31.34 47.03 31.57 C 51.86 31.73 56.37 34.78 58.37 39.16 C 58.85 42.77 58.98 46.48 58.42 50.09 C 57.33 53.40 54.50 55.68 52.17 58.12 C 55.85 64.50 60.32 70.48 62.90 77.44 C 59.14 77.59 55.39 77.57 51.63 77.65 C 48.32 72.71 45.24 67.60 42.43 62.36 C 40.81 59.56 41.26 56.15 41.76 53.11 C 43.80 51.19 46.51 50.07 48.23 47.81 C 48.92 45.29 48.35 42.41 46.28 40.70 C 42.74 40.05 39.11 40.38 35.53 40.30 C 35.52 52.25 35.70 64.21 35.49 76.16 C 33.12 78.98 28.73 77.08 25.50 77.57 C 25.29 62.24 25.37 46.91 25.43 31.58 Z" />
<path fill="#fffffe" opacity="1.00" d=" M 113.41 31.59 C 116.82 31.50 120.23 31.49 123.63 31.52 C 123.71 46.86 123.74 62.19 123.59 77.53 C 120.30 77.52 116.95 77.96 113.71 77.25 C 113.27 75.20 113.29 73.09 113.30 71.01 C 113.43 57.87 113.23 44.73 113.41 31.59 Z" />
</g>
<g id="#cecd01ff">
<path fill="#cecd01" opacity="1.00" d=" M 8.53 7.87 C 8.25 6.05 10.50 5.34 11.94 5.55 C 55.09 5.58 98.25 5.46 141.40 5.61 C 141.78 9.06 141.63 12.54 141.67 16.00 C 141.60 45.13 141.76 74.26 141.59 103.39 C 97.26 103.35 52.92 103.43 8.59 103.35 C 8.46 71.53 8.56 39.70 8.53 7.87 M 74.45 33.33 C 67.00 37.50 66.42 48.94 72.66 54.40 C 78.20 59.41 87.27 57.59 91.91 63.93 C 90.81 65.41 89.80 66.98 88.46 68.26 C 82.17 69.09 75.80 68.33 69.47 68.35 C 68.78 71.33 68.46 74.37 68.34 77.43 C 75.22 77.63 82.12 77.98 88.99 77.50 C 94.48 77.01 100.21 73.59 101.43 67.89 C 101.73 63.56 102.48 58.32 99.02 54.97 C 93.96 49.28 85.30 50.45 79.51 46.07 C 79.51 44.20 79.81 42.35 80.12 40.52 C 86.07 40.05 92.05 40.66 97.99 40.22 C 100.57 38.28 99.35 34.52 99.87 31.73 C 91.46 30.69 82.29 29.16 74.45 33.33 M 25.43 31.58 C 25.37 46.91 25.29 62.24 25.50 77.57 C 28.73 77.08 33.12 78.98 35.49 76.16 C 35.70 64.21 35.52 52.25 35.53 40.30 C 39.11 40.38 42.74 40.05 46.28 40.70 C 48.35 42.41 48.92 45.29 48.23 47.81 C 46.51 50.07 43.80 51.19 41.76 53.11 C 41.26 56.15 40.81 59.56 42.43 62.36 C 45.24 67.60 48.32 72.71 51.63 77.65 C 55.39 77.57 59.14 77.59 62.90 77.44 C 60.32 70.48 55.85 64.50 52.17 58.12 C 54.50 55.68 57.33 53.40 58.42 50.09 C 58.98 46.48 58.85 42.77 58.37 39.16 C 56.37 34.78 51.86 31.73 47.03 31.57 C 39.83 31.34 32.63 31.57 25.43 31.58 M 113.41 31.59 C 113.23 44.73 113.43 57.87 113.30 71.01 C 113.29 73.09 113.27 75.20 113.71 77.25 C 116.95 77.96 120.30 77.52 123.59 77.53 C 123.74 62.19 123.71 46.86 123.63 31.52 C 120.23 31.49 116.82 31.50 113.41 31.59 Z" />
<path fill="#cecd01" opacity="1.00" d=" M 166.25 6.21 C 177.75 4.77 189.42 5.91 200.99 5.56 C 211.45 5.31 223.90 8.10 229.27 18.08 C 233.51 24.88 233.11 33.22 232.38 40.87 C 231.56 47.06 227.14 51.96 222.21 55.40 C 218.39 57.62 214.05 58.73 210.06 60.60 C 218.86 72.64 227.62 84.71 236.31 96.84 C 237.61 98.45 237.64 100.56 237.94 102.51 C 233.35 103.56 228.61 103.55 223.93 103.37 C 220.15 103.34 217.59 100.14 215.48 97.41 C 208.50 87.68 201.88 77.69 194.75 68.08 C 193.58 66.41 192.26 64.81 191.53 62.90 C 190.86 58.35 191.85 53.76 193.60 49.57 C 199.94 48.18 207.61 48.73 212.18 43.27 C 215.17 39.10 215.98 33.38 213.99 28.61 C 212.49 23.53 207.04 20.94 202.09 20.70 C 195.96 20.56 189.82 20.72 183.69 20.68 C 183.57 46.48 183.69 72.27 183.66 98.07 C 183.46 99.75 184.05 102.45 181.71 102.77 C 176.76 104.00 171.50 103.45 166.52 102.58 C 166.12 99.75 165.63 96.91 165.66 94.04 C 165.69 69.69 165.68 45.34 165.68 21.00 C 165.72 16.06 165.29 11.08 166.25 6.21 Z" />
<path fill="#cecd01" opacity="1.00" d=" M 250.52 6.17 C 252.96 5.70 255.45 5.49 257.94 5.52 C 273.66 5.56 289.38 5.56 305.10 5.51 C 306.99 5.45 309.51 5.97 309.89 8.18 C 310.84 11.92 310.60 16.02 309.47 19.71 C 308.86 22.04 305.99 21.93 304.09 22.23 C 292.19 22.47 280.27 21.95 268.40 22.45 C 267.93 29.87 268.33 37.30 268.25 44.72 C 278.18 44.67 288.12 44.76 298.05 44.66 C 300.45 44.67 303.01 44.56 305.18 45.76 C 307.40 50.25 306.03 55.49 306.24 60.31 C 293.65 60.72 281.03 60.39 268.43 60.51 C 267.41 69.48 267.38 78.60 268.45 87.56 C 282.80 87.49 297.16 87.37 311.52 87.66 C 311.44 92.08 312.04 96.67 310.59 100.92 C 310.00 103.18 306.98 103.09 305.10 103.35 C 290.06 103.45 275.02 103.33 259.98 103.40 C 256.78 103.46 253.61 102.96 250.46 102.47 C 250.11 99.67 249.69 96.87 249.72 94.04 C 249.77 71.70 249.73 49.35 249.75 27.00 C 249.81 20.05 249.37 13.06 250.52 6.17 Z" />
<path fill="#cecd01" opacity="1.00" d=" M 318.56 10.96 C 318.43 8.46 319.91 5.07 322.92 5.58 C 344.63 5.51 366.35 5.57 388.06 5.53 C 390.21 5.60 392.70 5.28 394.36 7.00 C 394.93 11.49 394.51 16.04 394.58 20.55 C 385.40 22.59 375.88 21.13 366.55 21.51 C 365.36 26.61 365.58 31.84 366.24 37.00 C 366.43 54.66 366.23 72.33 366.33 90.00 C 366.45 94.24 365.78 98.43 365.44 102.64 C 361.01 103.48 356.47 103.65 351.99 103.28 C 349.68 103.16 347.31 101.41 347.60 98.90 C 347.53 73.40 347.55 47.90 347.59 22.40 C 338.65 20.56 329.45 22.18 320.42 21.39 C 317.86 18.56 318.63 14.45 318.56 10.96 Z" />
<path fill="#cecd01" opacity="1.00" d=" M 404.32 6.29 C 406.50 5.85 408.72 5.54 410.96 5.55 C 426.66 5.52 442.36 5.58 458.06 5.52 C 459.95 5.47 461.95 5.68 463.43 7.00 C 463.85 11.54 463.56 16.11 463.64 20.66 C 461.47 21.17 459.27 21.57 457.04 21.56 C 445.24 21.58 433.44 21.50 421.64 21.60 C 421.58 29.52 421.56 37.44 421.62 45.37 C 433.77 45.54 445.94 45.10 458.08 45.55 C 458.40 45.92 459.05 46.64 459.38 47.00 C 459.91 51.22 459.57 55.48 459.60 59.72 C 456.79 60.38 453.90 60.60 451.02 60.56 C 441.23 60.46 431.43 60.47 421.63 60.58 C 421.62 69.55 421.64 78.52 421.66 87.49 C 431.77 87.48 441.88 87.52 452.00 87.50 C 456.57 87.51 461.24 87.13 465.70 88.40 C 465.75 93.26 464.90 98.06 463.65 102.75 C 443.93 102.61 424.19 103.08 404.47 102.53 C 404.18 99.03 404.28 95.51 404.25 92.00 C 404.31 63.43 404.19 34.86 404.32 6.29 Z" />
<path fill="#cecd01" opacity="1.00" d=" M 11.11 128.67 C 15.05 128.10 19.04 128.42 23.01 128.36 C 62.67 128.37 102.33 128.37 141.99 128.36 C 146.32 128.49 151.11 127.51 154.78 130.43 C 154.72 139.48 154.70 148.52 154.79 157.57 C 150.76 160.56 145.64 159.43 141.00 159.60 C 127.51 159.64 114.02 159.49 100.53 159.68 C 100.46 200.12 100.55 240.57 100.48 281.01 C 100.59 283.72 99.49 286.24 98.38 288.66 C 88.56 288.82 78.73 288.77 68.90 288.74 C 66.95 289.02 65.26 287.71 64.40 286.05 C 64.06 282.37 64.22 278.68 64.19 274.99 C 64.20 236.55 64.19 198.10 64.19 159.65 C 47.44 159.50 30.68 159.66 13.92 159.58 C 10.88 159.90 8.28 157.03 8.54 154.06 C 8.51 147.36 8.52 140.65 8.57 133.94 C 8.45 131.87 9.67 130.05 11.11 128.67 Z" />
<path fill="#cecd01" opacity="1.00" d=" M 184.11 128.71 C 186.38 128.30 188.69 128.36 190.99 128.33 C 214.66 128.45 238.34 128.25 262.01 128.44 C 274.53 129.36 287.62 133.19 296.51 142.52 C 303.77 150.46 308.12 161.19 307.84 172.00 C 307.70 179.16 308.56 186.60 305.96 193.45 C 302.90 202.52 296.85 211.20 287.83 215.10 C 281.81 217.50 275.39 218.58 269.11 220.08 C 272.88 225.85 277.47 231.02 281.66 236.48 C 292.65 250.46 303.61 264.47 314.66 278.41 C 317.08 281.01 319.07 285.11 316.62 288.34 C 311.56 289.83 306.19 289.26 301.00 288.99 C 294.75 288.26 288.38 290.30 282.22 288.52 C 279.41 287.79 277.67 285.26 275.96 283.12 C 262.56 265.24 248.71 247.70 235.19 229.92 C 233.94 228.11 232.33 226.29 232.26 223.98 C 231.79 218.06 234.01 212.42 235.12 206.70 C 235.97 204.02 236.11 200.62 238.58 198.84 C 246.37 198.18 254.41 197.93 261.82 195.12 C 268.52 192.52 270.92 184.59 270.70 177.99 C 271.11 171.53 268.57 164.29 262.52 161.18 C 255.26 157.34 246.87 158.69 239.00 158.48 C 232.12 158.70 225.16 157.88 218.35 159.10 C 218.43 199.75 218.33 240.40 218.40 281.05 C 218.38 283.70 217.87 286.80 215.52 288.41 C 209.83 290.37 203.83 288.39 198.01 288.91 C 193.51 289.22 188.84 289.83 184.48 288.39 C 182.28 287.14 181.60 284.43 181.61 282.08 C 181.64 232.72 181.61 183.37 181.63 134.01 C 181.54 131.96 182.67 130.09 184.11 128.71 Z" />
<path fill="#cecd01" opacity="1.00" d=" M 346.04 128.60 C 348.00 128.30 349.99 128.37 351.97 128.35 C 387.34 128.40 422.70 128.31 458.07 128.40 C 461.23 127.85 463.97 130.86 463.61 133.95 C 463.62 140.66 463.62 147.36 463.62 154.07 C 464.02 157.16 461.15 160.01 458.07 159.61 C 432.07 159.61 406.07 159.54 380.07 159.65 C 379.25 167.07 379.83 174.56 379.62 182.01 C 379.72 185.15 379.14 188.58 380.84 191.43 C 402.55 191.54 424.28 191.45 446.00 191.46 C 449.04 191.53 452.15 191.23 455.15 191.93 C 458.06 195.27 457.42 199.91 457.43 204.00 C 457.29 208.57 457.76 213.17 457.19 217.72 C 456.70 219.81 455.46 222.59 452.89 222.40 C 428.46 222.53 404.03 222.29 379.60 222.52 C 379.73 234.10 379.57 245.69 379.69 257.28 C 406.82 257.53 433.96 257.28 461.09 257.41 C 463.47 257.37 465.56 258.66 467.71 259.51 C 467.78 262.46 467.85 265.49 466.87 268.32 C 464.93 274.17 465.71 280.58 463.41 286.35 C 462.70 288.17 460.74 288.82 458.96 288.99 C 449.32 289.94 439.66 288.55 430.00 288.74 C 423.00 288.67 416.01 289.68 409.01 289.13 C 401.02 288.41 392.99 288.78 385.00 289.17 C 377.67 288.36 370.35 289.57 363.00 289.25 C 357.50 288.97 351.84 289.95 346.46 288.50 C 343.91 287.03 342.40 284.01 342.57 281.09 C 342.61 232.37 342.58 183.66 342.59 134.95 C 342.45 132.39 343.97 130.01 346.04 128.60 Z" />
</g>
</svg>
