<?xml version="1.0" encoding="utf-8"?>
<!-- Generator: Adobe Illustrator 19.1.0, SVG Export Plug-In . SVG Version: 6.00 Build 0)  -->
<svg version="1.1" id="Livello_1" xmlns="http://www.w3.org/2000/svg" xmlns:xlink="http://www.w3.org/1999/xlink" x="0px" y="0px"
	 viewBox="0 0 75 47" style="enable-background:new 0 0 75 47;" xml:space="preserve">
<style type="text/css">
	.st0{fill:#06A73B;}
	.st1{fill:#FFFFFF;}
</style>
<g>
	<path class="st0" d="M74.7,24.4c0,0.5-0.4,0.9-0.9,0.9l-11.7,0v5.2l10.6,0c0.5,0,0.9,0.4,0.9,0.9v3.3c0,0.5-0.4,0.9-0.9,0.9
		l-10.6,0v5.7l12.2,0c0.5,0,0.9,0.4,0.9,0.9c0,0,0,0.1,0,0.1l-0.4,3.3c-0.1,0.4-0.4,0.8-0.9,0.8l-17,0c-0.5,0-0.9-0.4-0.9-0.9V21
		c0-0.5,0.4-0.9,0.9-0.9l16.9,0c0.5,0,0.9,0.4,0.9,0.9V24.4z"/>
	<path class="st0" d="M22.3,26.9c-0.6-1.7-1.5-3-2.6-4c-1.1-1-2.4-1.7-4-2.1c-1.5-0.4-3.2-0.6-5.1-0.6l-9.8,0C0.4,20.1,0,20.5,0,21
		v24.6c0,0.5,0.4,0.9,0.9,0.9l9.8,0c1.9,0,3.5-0.2,5.1-0.6c1.5-0.4,2.9-1.1,4-2.1c1.1-1,2-2.4,2.6-4c0.6-1.7,0.9-3.8,0.9-6.4
		C23.3,30.7,22.9,28.6,22.3,26.9 M16.3,37.9c-0.4,1.3-1,2.3-2,2.8c-0.9,0.5-2.2,0.8-3.8,0.8H6V25.1h4.6c1,0,1.9,0.1,2.9,0.4
		c1,0.3,1.8,1,2.4,2.2c0.6,1.2,0.9,3,0.9,5.6C16.9,35,16.7,36.6,16.3,37.9"/>
	<path class="st0" d="M50.7,36.9c0,6.8-4,10.1-11.4,10.1c-7.4,0-11.4-3.3-11.4-10.1l0-15.9c0-0.5,0.4-0.9,0.9-0.9h4.3
		c0.5,0,0.9,0.4,0.9,0.9v15.7c0,3.6,1.9,5.3,5.4,5.3c3.6,0,5.4-1.7,5.4-5.3l0-15.7c0-0.5,0.4-0.9,0.9-0.9h4.3c0.5,0,0.9,0.4,0.9,0.9
		V36.9z"/>
	<rect y="0" class="st0" width="21.8" height="15.9"/>
	<path class="st1" d="M5.5,7.9L5.3,8.3c0,0.1,0,0.2,0,0.3c0,0.1,0,0.2,0.1,0.4l1.4,2.5c0.1,0.2,0.2,0.3,0.5,0.3h1.3
		c0.2,0,0.4-0.1,0.2-0.4L7.1,8.5c0.6-0.4,1.2-0.9,1.2-2c0-1.5-0.8-2.3-2.6-2.3H3c-0.2,0-0.3,0.1-0.3,0.3v6.9c0,0.2,0.1,0.3,0.3,0.3
		h1.1c0.2,0,0.3-0.1,0.3-0.3V5.6h1.1c0.7,0,1,0.3,1,0.9c0,0.6-0.3,0.8-0.5,0.9C5.7,7.6,5.6,7.4,5.5,7.9"/>
	<path class="st1" d="M9.9,10.5l-0.1,0.9c0,0.2,0.1,0.2,0.2,0.3c0.3,0,1.2,0.1,2,0.1c1.9,0,3.2-0.6,3.2-2.4c0-1-0.4-1.8-2-2.2
		l-0.9-0.2c-0.6-0.2-0.9-0.3-0.9-0.8c0-0.6,0.6-0.7,1.1-0.7c0.7,0,1.5,0.1,1.8,0.1c0.3,0,0.4,0,0.4-0.3L15,4.5
		c0-0.2-0.1-0.2-0.2-0.3c-0.3,0-1.1-0.1-2-0.1c-1.9,0-2.9,0.8-2.9,2.2c0,1.2,0.7,1.9,1.8,2.2l0.9,0.2c0.7,0.2,1,0.4,1,0.8
		c0,0.7-0.4,0.8-1.5,0.8c-0.5,0-1.4-0.1-1.6-0.1C10.1,10.3,10,10.3,9.9,10.5"/>
	<path class="st1" d="M17.2,11.4c0,0.2,0.1,0.3,0.3,0.3h1.1c0.2,0,0.3-0.1,0.3-0.3V4.5c0-0.2-0.1-0.3-0.3-0.3h-1.1
		c-0.2,0-0.3,0.1-0.3,0.3V11.4z"/>
	<path class="st0" d="M30.1,9.5C30,9.4,29.9,9.2,29.9,9c0-0.1,0-0.2,0-0.2l0.3-1.4c0-0.1,0.2-0.3,0.3-0.3v0c0.5,0,0.9-0.1,1.2-0.1
		c0.4-0.1,0.8-0.2,1.1-0.4c0.3-0.2,0.5-0.4,0.7-0.7c0.2-0.3,0.2-0.7,0.2-1.2c0-0.8-0.2-1.4-0.6-1.7c-0.4-0.4-1.1-0.5-2.1-0.5h-2.4
		v13.1c0,0.3-0.2,0.5-0.5,0.5h-1.9c-0.3,0-0.5-0.2-0.5-0.5v-15C25.8,0.2,26,0,26.3,0l5.4,0c1.8,0,3.1,0.4,3.9,1.2
		c0.8,0.8,1.2,1.9,1.2,3.4c0,0.7-0.1,1.3-0.3,1.8c-0.2,0.5-0.5,0.9-0.9,1.2c-0.4,0.3-0.8,0.6-1.2,0.8c-0.5,0.2-0.9,0.3-1.4,0.4
		l4.6,6.4c0.1,0.1,0.1,0.2,0.1,0.2c0,0.2-0.2,0.4-0.4,0.4l-2.2,0c-0.3,0-0.6-0.2-0.8-0.4L30.1,9.5z"/>
	<path class="st0" d="M49.6,15.5c0,0.2-0.2,0.4-0.5,0.4l-9,0c-0.3,0-0.5-0.2-0.5-0.5v-15c0-0.3,0.2-0.5,0.5-0.5L49,0
		c0.3,0,0.5,0.2,0.5,0.5v1.6c0,0.3-0.2,0.5-0.5,0.5h-6.4v4l5.8,0c0.3,0,0.5,0.2,0.5,0.5v1.5c0,0.3-0.2,0.5-0.5,0.5l-5.8,0v4.5h6.7
		c0.3,0,0.5,0.2,0.5,0.5c0,0,0,0,0,0.1L49.6,15.5z"/>
	<path class="st0" d="M74.8,15.5c0,0.2-0.2,0.4-0.5,0.4l-9,0c-0.3,0-0.5-0.2-0.5-0.5v-15c0-0.3,0.2-0.5,0.5-0.5l8.9,0
		c0.3,0,0.5,0.2,0.5,0.5v1.6c0,0.3-0.2,0.5-0.5,0.5h-6.4v4l5.8,0c0.3,0,0.5,0.2,0.5,0.5v1.5c0,0.3-0.2,0.5-0.5,0.5l-5.8,0v4.5h6.7
		c0.3,0,0.5,0.2,0.5,0.5c0,0,0,0,0,0.1L74.8,15.5z"/>
	<path class="st0" d="M58.7,15.5c0,0.3-0.2,0.5-0.5,0.5h-2c-0.3,0-0.5-0.2-0.5-0.5l0-12.9l-4.3,0c-0.3,0-0.5-0.2-0.5-0.5V0.5
		C51,0.2,51.2,0,51.5,0h11.5c0.3,0,0.5,0.2,0.5,0.5v1.6c0,0.3-0.2,0.5-0.5,0.5l-4.3,0L58.7,15.5z"/>
</g>
</svg>
