<?xml version="1.0" encoding="utf-8"?>
<!-- Generator: Adobe Illustrator 19.1.0, SVG Export Plug-In . SVG Version: 6.00 Build 0)  -->
<svg version="1.1" id="Livello_1" xmlns="http://www.w3.org/2000/svg" xmlns:xlink="http://www.w3.org/1999/xlink" x="0px" y="0px"
	 viewBox="0 0 75.8 47" style="enable-background:new 0 0 75.8 47;" xml:space="preserve">
<style type="text/css">
	.st0{fill:#0074C2;}
	.st1{fill:#FFFFFF;}
</style>
<g>
	<path class="st0" d="M64.1,47c-1.9,0-3.5-0.2-4.9-0.7c-1.4-0.5-2.7-1.2-3.7-2.3c-1-1.1-1.8-2.5-2.3-4.2c-0.5-1.7-0.8-3.9-0.8-6.5
		c0-3.8,0.6-6.7,1.8-8.8c1.2-2.1,2.7-3.4,4.6-4c1.8-0.6,3.6-0.9,5.4-0.9c2.9,0,5.2,0.5,7,1.6c1.8,1.1,3,2.7,3.7,4.9
		c0.7,2.2,1,4.6,1,7.2c0,2.6-0.3,4.8-0.8,6.5c-0.5,1.7-1.3,3.2-2.3,4.2c-1,1.1-2.2,1.8-3.7,2.3C67.6,46.8,66,47,64.1,47 M64.1,42.1
		c1.5,0,2.7-0.3,3.5-1c0.8-0.7,1.3-1.7,1.6-3.1c0.3-1.4,0.4-3,0.4-4.7c0-2.5-0.2-4.4-0.7-5.7c-0.5-1.3-1.1-2.1-2-2.5
		c-0.9-0.4-1.8-0.6-2.8-0.6c-1.5,0-2.7,0.3-3.5,1c-0.8,0.7-1.3,1.7-1.6,3.1c-0.2,1.4-0.4,2.9-0.4,4.6c0,1.7,0.1,3.1,0.3,4.3
		c0.2,1.1,0.5,2,1,2.7c0.4,0.7,1,1.2,1.7,1.4C62.3,41.9,63.1,42.1,64.1,42.1"/>
	<rect y="0" class="st0" width="21.8" height="15.9"/>
	<path class="st1" d="M5.5,7.9L5.3,8.3c0,0.1,0,0.2,0,0.3c0,0.1,0,0.2,0.1,0.4l1.4,2.5c0.1,0.2,0.2,0.3,0.5,0.3h1.3
		c0.2,0,0.4-0.1,0.2-0.4L7.1,8.5c0.6-0.4,1.2-0.9,1.2-2c0-1.5-0.8-2.3-2.6-2.3H3c-0.2,0-0.3,0.1-0.3,0.3v6.9c0,0.2,0.1,0.3,0.3,0.3
		h1.1c0.2,0,0.3-0.1,0.3-0.3V5.6h1.1c0.7,0,1,0.3,1,0.9c0,0.6-0.3,0.8-0.5,0.9C5.7,7.6,5.6,7.4,5.5,7.9"/>
	<path class="st1" d="M9.9,10.5l-0.1,0.9c0,0.2,0.1,0.2,0.2,0.3c0.3,0,1.2,0.1,2,0.1c1.9,0,3.2-0.6,3.2-2.4c0-1-0.4-1.8-2-2.2
		l-0.9-0.2c-0.6-0.2-0.9-0.3-0.9-0.8c0-0.6,0.6-0.7,1.1-0.7c0.7,0,1.5,0.1,1.8,0.1c0.3,0,0.4,0,0.4-0.3L15,4.5
		c0-0.2-0.1-0.2-0.2-0.3c-0.3,0-1.1-0.1-2-0.1c-1.9,0-2.9,0.8-2.9,2.2c0,1.2,0.7,1.9,1.8,2.2l0.9,0.2c0.7,0.2,1,0.4,1,0.8
		c0,0.7-0.4,0.8-1.5,0.8c-0.5,0-1.4-0.1-1.6-0.1C10.1,10.2,10,10.3,9.9,10.5"/>
	<path class="st1" d="M17.2,11.4c0,0.2,0.1,0.3,0.3,0.3h1.1c0.2,0,0.3-0.1,0.3-0.3V4.5c0-0.2-0.1-0.3-0.3-0.3h-1.1
		c-0.2,0-0.3,0.1-0.3,0.3V11.4z"/>
	<path class="st0" d="M30.1,9.5C30,9.4,29.9,9.2,29.9,9c0-0.1,0-0.2,0-0.2l0.3-1.4c0-0.1,0.2-0.3,0.3-0.3v0c0.5,0,0.9-0.1,1.2-0.1
		c0.4-0.1,0.8-0.2,1.1-0.4c0.3-0.2,0.5-0.4,0.7-0.7c0.2-0.3,0.2-0.7,0.2-1.2c0-0.8-0.2-1.4-0.6-1.7c-0.4-0.4-1.1-0.5-2.1-0.5h-2.4
		l0,13.1c0,0.3-0.2,0.5-0.5,0.5h-1.9c-0.3,0-0.5-0.2-0.5-0.5v-15C25.8,0.2,26,0,26.3,0l5.4,0c1.8,0,3.1,0.4,3.9,1.2
		c0.8,0.8,1.2,1.9,1.2,3.4c0,0.7-0.1,1.3-0.3,1.8c-0.2,0.5-0.5,0.9-0.9,1.2c-0.4,0.3-0.8,0.6-1.2,0.8c-0.5,0.2-0.9,0.3-1.4,0.4
		l4.6,6.4c0.1,0.1,0.1,0.2,0.1,0.2c0,0.2-0.2,0.4-0.4,0.4l-2.2,0c-0.3,0-0.6-0.2-0.8-0.4L30.1,9.5z"/>
	<path class="st0" d="M49.6,15.5c0,0.2-0.2,0.4-0.5,0.4l-9,0c-0.3,0-0.5-0.2-0.5-0.5v-15c0-0.3,0.2-0.5,0.5-0.5L49,0
		c0.3,0,0.5,0.2,0.5,0.5v1.6c0,0.3-0.2,0.5-0.5,0.5h-6.4v4l5.8,0c0.3,0,0.5,0.2,0.5,0.5v1.5c0,0.3-0.2,0.5-0.5,0.5l-5.8,0v4.5h6.7
		c0.3,0,0.5,0.2,0.5,0.5c0,0,0,0,0,0.1L49.6,15.5z"/>
	<path class="st0" d="M74.8,15.5c0,0.2-0.2,0.4-0.5,0.4l-9,0c-0.3,0-0.5-0.2-0.5-0.5v-15c0-0.3,0.2-0.5,0.5-0.5l8.9,0
		c0.3,0,0.5,0.2,0.5,0.5v1.6c0,0.3-0.2,0.5-0.5,0.5h-6.4v4l5.8,0c0.3,0,0.5,0.2,0.5,0.5v1.5c0,0.3-0.2,0.5-0.5,0.5l-5.8,0v4.5h6.7
		c0.3,0,0.5,0.2,0.5,0.5c0,0,0,0,0,0.1L74.8,15.5z"/>
	<path class="st0" d="M58.7,15.5c0,0.3-0.2,0.5-0.5,0.5h-2c-0.3,0-0.5-0.2-0.5-0.5l0-12.9l-4.3,0c-0.3,0-0.5-0.2-0.5-0.5l0-1.6
		C51,0.2,51.2,0,51.5,0h11.5c0.3,0,0.5,0.2,0.5,0.5l0,1.6c0,0.3-0.2,0.5-0.5,0.5l-4.3,0V15.5z"/>
	<path class="st0" d="M21.3,36.9C21.3,43.7,18,47,10.6,47C3.2,47,0,43.7,0,36.9L0,21c0-0.5,0.4-0.9,0.9-0.9l4.3,0
		C5.6,20.1,6,20.5,6,21v15.7c0,3.6,1.1,5.3,4.6,5.3c3.6,0,4.6-1.7,4.6-5.3l0-15.7c0-0.5,0.4-0.9,0.9-0.9l4.3,0
		c0.5,0,0.9,0.4,0.9,0.9L21.3,36.9z"/>
	<path class="st0" d="M42.2,36.9V21c0-0.5,0.4-0.9,0.9-0.9l3.7,0c0.5,0,0.9,0.4,0.9,0.9l0,24.6c0,0.5-0.4,0.9-0.9,0.9l-3.6,0
		c-0.7,0-1.1-0.2-1.4-0.7L32.2,30v15.6c0,0.5-0.4,0.9-0.9,0.9l-3.7,0c-0.5,0-0.9-0.4-0.9-0.9l0-24.6c0-0.5,0.4-0.9,0.9-0.9l3.6,0
		c0.7,0,1.1,0.2,1.4,0.7L42.2,36.9z"/>
</g>
</svg>
