<?xml version="1.0" encoding="UTF-8" standalone="no"?>
<!-- Created with Inkscape (http://www.inkscape.org/) -->

<svg
   xmlns:dc="http://purl.org/dc/elements/1.1/"
   xmlns:cc="http://creativecommons.org/ns#"
   xmlns:rdf="http://www.w3.org/1999/02/22-rdf-syntax-ns#"
   xmlns:svg="http://www.w3.org/2000/svg"
   xmlns="http://www.w3.org/2000/svg"
   xmlns:xlink="http://www.w3.org/1999/xlink"
   xmlns:sodipodi="http://sodipodi.sourceforge.net/DTD/sodipodi-0.dtd"
   xmlns:inkscape="http://www.inkscape.org/namespaces/inkscape"
   width="685"
   height="202"
   id="svg2"
   version="1.1"
   inkscape:version="0.47 r22583">
  <g
     inkscape:label="Layer 1"
     inkscape:groupmode="layer"
     id="layer1"
     transform="translate(42.906319,-313.56456)">
    <path
       style="fill:#de1d48;fill-rule:nonzero;stroke:none"
       d="m 440.08415,414.56457 c 0,-55.78443 45.21574,-101.00001 101.00001,-101.00001 55.78442,0 101.00016,45.21558 101.00016,101.00001 0,55.78442 -45.21574,101 -101.00016,101 -55.78427,0 -101.00001,-45.21558 -101.00001,-101"
       id="path42008" />
    <path
       style="fill:#ffffff;fill-rule:evenodd;stroke:none"
       d="m 453.3031,448.04809 19.66681,0 5.86595,-27.63358 3.63602,0 c 3.44209,0 5.17122,1.08273 3.91073,7.07812 -0.74336,3.44193 -1.19584,6.98099 -1.92304,10.42309 -0.72721,3.44209 -1.61601,8.56484 -0.67873,10.13237 l 20.8465,0 0.21008,-0.98577 c -0.808,-0.38784 -1.34128,-1.08272 -1.63216,-2.06849 -0.27473,-0.98576 0.0323,-4.31474 0.87264,-8.2578 l 1.22817,-5.80147 c 0.87264,-4.12066 1.7776,-8.8394 0.67872,-11.99061 -1.14737,-3.34514 -4.28242,-5.30051 -8.14468,-5.60755 l 0.0485,-0.19392 c 7.07811,-0.98577 12.89574,-5.70451 15.28727,-16.90344 2.48865,-11.69974 -1.90673,-18.39001 -15.46503,-18.39001 l -29.49198,0 -14.91575,70.19906 z m 31.56047,-56.04299 2.26241,0 c 4.42786,0 6.98115,1.3736 5.75299,7.17507 -1.43825,6.78723 -5.18739,8.2578 -8.43556,8.2578 l -2.84418,0 3.26434,-15.43287"
       id="path42012" />
    <path
       style="fill:#ffffff;fill-rule:nonzero;stroke:none"
       d="m 531.21051,394.60687 13.36438,0 -11.39285,53.68362 19.66665,0 11.39286,-53.68362 13.38054,0 3.50674,-16.5156 -46.41158,0 -3.50674,16.5156"
       id="path42016" />
    <path
       style="fill:#ffffff;fill-rule:nonzero;stroke:none"
       d="m 640.51679,432.37281 c -1.01808,6.78723 -2.39169,10.79493 -4.20162,15.93384 l -47.38119,0 14.91576,-70.21538 19.66665,0 -11.52197,54.28154 28.52237,0"
       id="path42020" />
    <path
       style="fill:#40535d;fill-rule:nonzero;stroke:none"
       d="m -20.31453,448.95305 14.2693488,0 6.67395057,-31.39887 16.62872063,0 -6.657953,31.39887 14.253189,0 15.028711,-70.73234 -14.269187,0 -5.736828,27.05181 -16.6448801,0 5.7529878,-27.05181 -14.2691873,0 -15.0288724,70.73234"
       id="path42024" />
    <path
       style="fill:#40535d;fill-rule:nonzero;stroke:none"
       d="m 60.582336,448.95305 15.028872,-70.73234 -14.269349,0 -15.028872,70.73234 14.269349,0"
       id="path42028" />
    <path
       style="fill:#40535d;fill-rule:nonzero;stroke:none"
       d="m 89.347274,378.22071 -2.488652,11.68374 15.465198,0 -12.556384,59.0486 14.269354,0 12.54005,-59.0486 15.4652,0 2.47249,-11.68374 -45.167256,0"
       id="path42032" />
    <path
       style="fill:#8e979d;fill-rule:evenodd;stroke:none"
       d="m 132.543,448.95305 14.26935,0 6.35075,-29.91214 7.62756,0 c 5.75298,0 7.51443,3.36129 6.52867,8.9042 l -2.48865,13.5743 c -0.48481,2.77954 -0.75953,5.44595 0.21008,7.43364 l 15.44903,0 0.12928,-0.59792 c -2.37553,-1.38977 -1.95537,-5.25203 -0.4848,-12.68566 2.98961,-14.94792 2.63409,-20.2969 -6.80339,-21.58971 l 0.0485,-0.19392 c 8.38708,-1.68065 13.49366,-8.03156 15.49751,-17.43672 2.55329,-12.08758 -3.26433,-18.22841 -14.96423,-18.22841 l -26.34077,0 -15.02887,70.73234 z m 27.06797,-60.22829 6.72259,0 c 6.44787,0 9.21125,3.26418 7.82148,9.80901 -1.61601,7.62755 -6.10851,10.60101 -12.94422,10.60101 l -5.94691,0 4.34706,-20.41002"
       id="path42036" />
    <path
       style="fill:#8e979d;fill-rule:evenodd;stroke:none"
       d="m 232.39564,390.50221 0.19392,0 0.0808,31.80287 -13.86535,0 13.59063,-31.80287 z m -39.85059,58.45084 14.85111,0 6.44771,-14.96423 18.82649,0 0.0808,14.96423 14.86727,0 -3.70066,-70.7325 -17.63064,0 -33.74208,70.7325"
       id="path42040" />
    <path
       style="fill:#8e979d;fill-rule:evenodd;stroke:none"
       d="m 290.20008,388.7246 6.04387,0 c 10.89189,0 10.43941,8.22548 7.02963,24.27228 -4.0885,19.21433 -7.38516,25.45212 -17.29128,25.45212 l -6.35092,0 10.5687,-49.7244 z m -27.06797,60.22829 22.49466,0 c 18.92346,0 26.66397,-11.29573 31.9968,-36.36002 4.4117,-20.79785 3.73297,-34.37232 -16.07912,-34.37232 l -23.38363,0 -15.02871,70.73234"
       id="path42044" />
    <path
       style="fill:#8e979d;fill-rule:nonzero;stroke:none"
       d="m 345.14402,448.95305 15.02887,-70.73234 -14.26935,0 -15.02887,70.73234 14.26935,0"
       id="path42048" />
    <path
       style="fill:#8e979d;fill-rule:evenodd;stroke:none"
       d="m 388.88919,413.59496 c 4.02386,-18.92345 6.96499,-26.2438 15.38439,-26.2438 8.41924,0 8.25764,7.32035 4.23394,26.2438 -4.04002,19.02041 -6.96499,26.24381 -15.38439,26.24381 -8.4194,0 -8.27396,-7.2234 -4.23394,-26.24381 z m -14.26935,0 c -4.55714,21.49274 -5.12275,36.74786 16.2732,36.74786 21.39578,0 27.31037,-15.25512 31.88367,-36.74786 4.55714,-21.49274 5.12274,-36.74786 -16.27304,-36.74786 -21.39594,0 -27.31053,15.25512 -31.88383,36.74786"
       id="path42052" />
    <path
       style="fill:#de1d48;fill-rule:nonzero;stroke:none"
       d="m -42.906319,386.31691 c 0,-5.33283 4.314741,-9.64757 9.647566,-9.64757 5.332826,0 9.647567,4.31474 9.647567,9.64757 0,5.33283 -4.314741,9.64757 -9.647567,9.64757 -5.332825,0 -9.647566,-4.31474 -9.647566,-9.64757"
       id="path42056" />
    <path
       style="fill:#8e979d;fill-rule:nonzero;stroke:none"
       d="m 83.949808,486.13723 -0.1616,0.77568 c -0.969605,4.5733 -0.290882,9.95461 7.789157,9.95461 6.577152,0 11.376695,-2.87649 12.847105,-9.80917 0.95344,-4.47634 -0.51713,-6.98115 -4.783226,-8.62948 l -3.248176,-1.27665 c -3.183535,-1.32512 -4.29858,-2.74721 -3.700657,-5.52674 0.727203,-3.47442 3.135055,-4.70259 5.381306,-4.70259 3.232013,0 4.185463,1.72913 3.555213,4.70259 l -0.14544,0.69488 5.20339,0 0.1616,-0.74336 c 0.71104,-3.37746 0.95344,-8.58084 -7.401157,-8.58084 -6.108509,0 -10.827252,3.29665 -12.087738,9.22724 -0.985765,4.6541 0.549442,7.11043 4.896503,8.93652 l 3.296656,1.24433 c 2.747214,0.85648 4.15314,2.35937 3.425937,5.78531 -0.500963,2.42401 -2.650253,4.75106 -5.930749,4.75106 -3.603697,0 -4.912663,-2.00385 -4.072339,-5.97923 l 0.17776,-0.82416 -5.203545,0"
       id="path42060" />
    <path
       style="fill:#8e979d;fill-rule:evenodd;stroke:none"
       d="m 132.57532,496.22112 5.42979,0 3.79762,-7.98308 9.53444,0 0.30704,7.98308 5.42963,0 -1.64833,-32.57856 -6.67395,0 -16.17624,32.57856 z m 11.06965,-12.13622 7.2882,-16.06296 0.42016,16.06296 -7.70836,0"
       id="path42064" />
    <path
       style="fill:#8e979d;fill-rule:nonzero;stroke:none"
       d="m 378.54674,496.22112 4.92882,0 5.28435,-24.91868 4.2501,24.91868 6.35075,0 6.91651,-32.57856 -4.92882,0 -5.15491,24.27228 -4.37938,-24.27228 -6.35091,0 -6.91651,32.57856"
       id="path42068" />
    <path
       style="fill:#8e979d;fill-rule:nonzero;stroke:none"
       d="m 330.61627,496.22112 17.98617,0 0.92112,-4.37939 -12.76646,0 2.19777,-10.40709 11.68357,0 0.93729,-4.37938 -11.68358,0 1.92305,-9.03332 12.41078,0 0.92113,-4.37938 -17.61433,0 -6.91651,32.57856"
       id="path42072" />
    <path
       style="fill:#8e979d;fill-rule:nonzero;stroke:none"
       d="m 282.00692,486.13723 -0.1616,0.77568 c -0.96961,4.5733 -0.29089,9.95461 7.78915,9.95461 6.57715,0 11.3767,-2.87649 12.8471,-9.80917 0.95345,-4.47634 -0.51712,-6.98115 -4.78322,-8.62948 l -3.24817,-1.27665 c -3.18354,-1.32512 -4.29858,-2.74721 -3.70066,-5.52674 0.74336,-3.47442 3.13505,-4.70259 5.3813,-4.70259 3.23202,0 4.18546,1.72913 3.55522,4.70259 l -0.14544,0.69488 5.20338,0 0.16161,-0.74336 c 0.71104,-3.37746 0.95344,-8.58084 -7.40116,-8.58084 -6.10851,0 -10.82725,3.29665 -12.08774,9.22724 -0.98576,4.6541 0.54945,7.11043 4.91267,8.93652 l 3.29665,1.24433 c 2.73106,0.85648 4.13698,2.35937 3.42594,5.78531 -0.51712,2.42401 -2.66641,4.75106 -5.94691,4.75106 -3.6037,0 -4.91266,-2.00385 -4.07234,-5.97923 l 0.17776,-0.82416 -5.20354,0"
       id="path42076" />
    <path
       style="fill:#8e979d;fill-rule:nonzero;stroke:none"
       d="m 230.40795,496.22112 5.20354,0 3.21586,-15.142 9.58293,0 -3.21586,15.142 5.20338,0 6.91652,-32.57856 -5.20355,0 -2.76321,13.04102 -9.58293,0 2.76338,-13.04102 -5.20355,0 -6.91651,32.57856"
       id="path42080" />
    <path
       style="fill:#8e979d;fill-rule:nonzero;stroke:none"
       d="m 198.28188,484.53738 -0.11313,0.54944 c -0.6464,3.00578 -2.16545,7.8538 -6.51251,7.8538 -3.82994,0 -4.99346,-2.65025 -2.77953,-13.13814 2.23009,-10.50405 4.47634,-12.87959 8.30628,-12.87959 3.78146,-0.12928 3.94306,3.32898 3.31282,6.35092 l -0.11312,0.54944 5.20354,0 0.11312,-0.59792 c 0.7272,-3.37746 1.63217,-10.22917 -7.62756,-10.22917 -8.27396,0 -11.94229,5.30034 -14.41479,16.9356 -2.47249,11.63525 -1.0504,16.93576 7.17508,16.93576 7.65988,0 11.26357,-5.75299 12.5079,-11.65142 l 0.14544,-0.67872 -5.20354,0"
       id="path42084" />
  </g>
</svg>
