<?xml version="1.0" encoding="utf-8"?>
<!-- Generator: Adobe Illustrator 16.0.0, SVG Export Plug-In . SVG Version: 6.00 Build 0)  -->
<!DOCTYPE svg PUBLIC "-//W3C//DTD SVG 1.1//EN" "http://www.w3.org/Graphics/SVG/1.1/DTD/svg11.dtd">
<svg version="1.1" xmlns="http://www.w3.org/2000/svg" xmlns:xlink="http://www.w3.org/1999/xlink" x="0px" y="0px" width="400px"
	 height="200px" viewBox="0 0 400 200" enable-background="new 0 0 400 200" xml:space="preserve">
<g id="Background">
</g>
<g id="Guides">
</g>
<g id="Foreground">
	<g>
		<path fill="#FCBF00" d="M11.45,96.053h116.687c2.515,0,4.553,1.799,4.553,4.018c0,2.218-2.038,4.017-4.553,4.017H11.45
			c-2.516,0-4.554-1.799-4.554-4.017S8.935,96.053,11.45,96.053L11.45,96.053z"/>
		<path fill="#FCBF00" d="M272.867,96.053h116.691c2.512,0,4.55,1.799,4.55,4.018c0,2.218-2.038,4.017-4.55,4.017H272.867
			c-2.512,0-4.55-1.799-4.55-4.017C268.317,97.852,270.355,96.053,272.867,96.053L272.867,96.053z"/>
		<path fill="#E40520" d="M112.117,121.041l98.396-44.552l-0.058,27.293l75.066-26.089c0,0,1.147-0.215,1.525,0.595
			c0.364,0.77-0.269,1.55-0.269,1.55l-95.813,43.295V96.884l-77.782,27.542c0,0-1.092,0.263-1.704-1.223
			C110.989,122.009,112.117,121.041,112.117,121.041L112.117,121.041z"/>
		<path fill="#485358" d="M41.104,24.005c-3.532-1.219-7.43-1.889-11.208-1.889c-13.462,0-24.004,10.723-24.004,24.125
			c0,13.098,10.237,23.271,23.334,23.271c2.985,0,9.2-0.548,11.878-1.83l0.488-17.176c-2.681,2.618-5.726,4.264-9.564,4.264
			c-4.995,0-9.321-3.899-9.321-8.956c0-4.996,4.081-8.953,9.077-8.953c3.776,0,7.127,2.131,9.808,4.629L41.104,24.005L41.104,24.005
			z"/>
		<path fill-rule="evenodd" clip-rule="evenodd" fill="#485358" d="M61.585,63.055h12.612l1.522,5.727h17.666L76.999,22.847H58.541
			L42.579,68.781h17.666L61.585,63.055L61.585,63.055z M64.572,52.15l3.046-14.01h0.608c0.306,1.949,0.609,3.958,1.096,5.909
			l1.95,8.101H64.572L64.572,52.15z"/>
		<polygon fill="#485358" points="88.06,37.773 97.261,37.345 97.261,68.781 113.953,68.781 113.953,37.345 123.152,37.773 
			123.152,22.847 88.06,22.847 88.06,37.773 		"/>
		<path fill-rule="evenodd" clip-rule="evenodd" fill="#485358" d="M136.748,63.055h12.61l1.523,5.727h17.668l-16.387-45.934
			h-18.461l-15.962,45.934h17.669L136.748,63.055L136.748,63.055z M139.732,52.15l3.045-14.01h0.611
			c0.305,1.949,0.607,3.958,1.097,5.909l1.95,8.101H139.732L139.732,52.15z"/>
		<polygon fill="#485358" points="171.267,68.781 201.974,68.781 201.974,54.039 187.96,54.039 187.96,22.847 171.267,22.847 
			171.267,68.781 		"/>
		<path fill="#485358" d="M231.354,22.847v25.587c0,3.592-0.123,6.762-4.567,6.762c-4.447,0-4.57-3.169-4.57-6.762V22.847h-16.691
			v27.169c0,13.404,8.403,19.496,21.261,19.496c12.854,0,21.257-6.091,21.257-19.496V22.847H231.354L231.354,22.847z"/>
		<path fill-rule="evenodd" clip-rule="evenodd" fill="#485358" d="M254.414,68.781h15.958V53.857c0-3.049-0.486-6.033-1.032-9.198
			h0.484l14.685,24.122h15.958V22.847h-15.958v13.769c0,3.9,0.729,7.858,1.399,11.696h-0.486l-14.988-25.465h-16.02V68.781
			L254.414,68.781z"/>
		<path fill="#485358" d="M302.751,22.847l16.026,26.137v19.797h16.323V48.984l15.722-26.137h-18.765l-3.291,7.677
			c-0.61,1.4-1.033,2.863-1.524,4.327h-0.486l-5.116-12.004H302.751L302.751,22.847z"/>
		<path fill-rule="evenodd" clip-rule="evenodd" fill="#485358" d="M362.115,63.055h12.609l1.522,5.727h17.671l-16.389-45.934
			h-18.461l-15.963,45.934h17.667L362.115,63.055L362.115,63.055z M365.098,52.15l3.046-14.01h0.609
			c0.308,1.949,0.611,3.958,1.098,5.909l1.949,8.101H365.098L365.098,52.15z"/>
		<path fill-rule="evenodd" clip-rule="evenodd" fill="#485358" d="M89.424,177.155h16.339V162.4h0.304l7.317,14.755h19.265
			l-9.998-14.939c-0.914-1.339-1.951-2.072-2.804-2.744v-0.364c6.217-2.073,8.902-5,8.902-11.949
			c0-11.582-8.781-15.973-19.146-15.973h-20.18V177.155L89.424,177.155z M105.763,143.746h1.281c2.865,0,5.365,0.425,5.365,3.961
			c0,3.413-2.744,3.843-5.488,3.843h-1.158V143.746L105.763,143.746z"/>
		<path fill-rule="evenodd" clip-rule="evenodd" fill="#485358" d="M151.517,120.396l8.704,8.062l5.708-2.992l-5.564-7.644
			L151.517,120.396L151.517,120.396z M153.315,171.422h12.619l1.525,5.733h17.679l-16.4-45.97h-18.472l-15.972,45.97h17.679
			L153.315,171.422L153.315,171.422z M156.304,160.511l3.047-14.022h0.61c0.305,1.951,0.609,3.964,1.098,5.913l1.947,8.109H156.304
			L156.304,160.511z"/>
		<path fill-rule="evenodd" clip-rule="evenodd" fill="#485358" d="M187.338,177.155h21.155c13.475,0,23.104-8.659,23.104-22.313
			c0-16.89-11.824-23.656-27.248-23.656h-17.012V177.155L187.338,177.155z M204.042,145.574h1.036c6.1,0,9.817,2.743,9.817,9.205
			c0,6.037-4.27,8.596-9.817,8.596h-1.036V145.574L204.042,145.574z"/>
		<polygon fill="#485358" points="236.962,177.155 253.667,177.155 253.667,131.186 236.962,131.186 236.962,177.155 		"/>
		<path fill-rule="evenodd" clip-rule="evenodd" fill="#485358" d="M283.771,130.456c-13.965,0-25.426,9.388-25.426,23.835
			c0,14.754,11.403,23.593,25.426,23.593c14.021,0,25.424-8.838,25.424-23.593C309.195,139.843,297.731,130.456,283.771,130.456
			L283.771,130.456z M283.771,145.574c5.304,0,8.596,4.084,8.596,8.961c0,5.245-3.534,8.84-8.596,8.84
			c-5.06,0-8.597-3.595-8.597-8.84C275.175,149.658,278.466,145.574,283.771,145.574L283.771,145.574z"/>
	</g>
</g>
</svg>
