<?xml version="1.0" encoding="UTF-8" standalone="no"?>
<svg
   xmlns:dc="http://purl.org/dc/elements/1.1/"
   xmlns:cc="http://creativecommons.org/ns#"
   xmlns:rdf="http://www.w3.org/1999/02/22-rdf-syntax-ns#"
   xmlns:svg="http://www.w3.org/2000/svg"
   xmlns="http://www.w3.org/2000/svg"
   xmlns:sodipodi="http://sodipodi.sourceforge.net/DTD/sodipodi-0.dtd"
   xmlns:inkscape="http://www.inkscape.org/namespaces/inkscape"
   id="Layer_1"
   style=""
   viewBox="0 0 296.9 53.9"
   version="1.1"
   sodipodi:docname="KMFA 89.5.svg"
   inkscape:version="0.92.4 (5da689c313, 2019-01-14)">
  <metadata
     id="metadata15">
    <rdf:RDF>
      <cc:Work
         rdf:about="">
        <dc:format>image/svg+xml</dc:format>
        <dc:type
           rdf:resource="http://purl.org/dc/dcmitype/StillImage" />
      </cc:Work>
    </rdf:RDF>
  </metadata>
  <defs
     id="defs13" />
  <sodipodi:namedview
     pagecolor="#ffffff"
     bordercolor="#666666"
     borderopacity="1"
     objecttolerance="10"
     gridtolerance="10"
     guidetolerance="10"
     inkscape:pageopacity="0"
     inkscape:pageshadow="2"
     inkscape:window-width="640"
     inkscape:window-height="480"
     id="namedview11"
     showgrid="false"
     inkscape:zoom="3.334286"
     inkscape:cx="241.96274"
     inkscape:cy="5.6771787"
     inkscape:window-x="0"
     inkscape:window-y="0"
     inkscape:window-maximized="0"
     inkscape:current-layer="Layer_1" />
  <path
     class="aqua"
     d="M 26.6 22.4 c -0.4 -6.5 -3 -9.3 -6.9 -13.2 C 16.2 5.7 16 2 16 1.2 v -0.1 h -1.4 v 31.6 l -5.1 4 l -6.7 -2.2 L 5 41.2 L 0.9 46.9 l 7.1 -0.2 l 4.2 5.7 l 2 -6.8 l 6.7 -2.2 l -5 -3.4 h 0.1 V 13.4 s 1.3 -0.5 3.2 0.2 c 1.7 0.7 4.4 3.3 5.5 6.4 c 2.2 5.8 -0.8 12.3 -0.8 12.3 l 0.6 0.6 c 0 0.1 2.5 -4 2.1 -10.5"
     id="path2"
     style="fill:#ffffff" />
  <path
     class="blue"
     d="M 39.8 21.2 c 0 -9.1 0 -10.8 -0.1 -12.7 c -0.1 -2 -0.6 -2.9 -2.5 -3.3 c -0.5 -0.1 -1.5 -0.2 -2 -0.2 c -0.2 0 -0.5 -0.1 -0.5 -0.4 c 0 -0.4 0.3 -0.5 0.9 -0.5 c 2.6 0 6.1 0.2 6.4 0.2 c 0.5 0 3.9 -0.2 5.7 -0.2 c 0.6 0 0.9 0.1 0.9 0.5 c 0 0.2 -0.2 0.4 -0.5 0.4 c -0.4 0 -0.8 0.1 -1.5 0.2 c -1.6 0.3 -2.1 1.3 -2.2 3.3 c -0.1 1.9 -0.1 3.5 -0.1 12.7 v 3.5 h 0.2 c 1 -1.1 11.6 -11.9 13.7 -14.2 c 1.6 -1.7 3.2 -3.2 3.2 -4.2 c 0 -0.7 -0.3 -1.1 -0.8 -1.2 c -0.3 -0.1 -0.5 -0.2 -0.5 -0.5 s 0.3 -0.4 0.7 -0.4 c 1.2 0 3 0.2 4.4 0.2 c 0.3 0 4.2 -0.2 5.6 -0.2 c 0.6 0 0.9 0.1 0.9 0.4 s 0.1 0.4 -0.3 0.4 c -0.9 0 -2.1 0.3 -3.3 0.8 c -2.4 1.1 -3.7 2.5 -6.3 5 c -1.5 1.4 -11.7 11.4 -12.9 12.8 C 50.4 25.4 62.6 38 65 40.3 c 4.9 4.6 5.9 5.5 8.7 6.7 c 1.5 0.6 3.2 0.8 3.6 0.8 c 0.4 0 0.8 0.1 0.8 0.4 c 0 0.3 -0.3 0.5 -1.3 0.5 h -3 c -1.6 0 -2.8 0 -4 -0.1 c -3.1 -0.3 -4.6 -1.6 -7.1 -3.6 c -2.6 -2.2 -15.1 -15.6 -17.9 -19 h -0.3 v 5.7 c 0 5.6 0 10.3 0.3 12.7 c 0.2 1.7 0.5 3 2.3 3.2 c 0.8 0.1 1.8 0.2 2.3 0.2 c 0.4 0 0.5 0.2 0.5 0.4 c 0 0.3 -0.3 0.5 -0.9 0.5 c -2.9 0 -6.3 -0.2 -6.7 -0.2 c -0.5 0 -3.9 0.2 -5.6 0.2 c -0.6 0 -0.9 -0.1 -0.9 -0.5 c 0 -0.2 0.1 -0.4 0.5 -0.4 c 0.5 0 1.2 -0.1 1.8 -0.2 c 1.2 -0.2 1.5 -1.5 1.7 -3.2 c 0.3 -2.5 0.3 -7.1 0.3 -12.7 V 21.2 Z"
     id="path4"
     style="fill:#ffffff" />
  <path
     class="blue"
     d="M 127.5 41 c 0.2 2.1 0.6 5.4 3.2 6.2 c 1.7 0.5 3.2 0.5 3.8 0.5 c 0.3 0 0.5 0.1 0.5 0.3 c 0 0.4 -0.5 0.5 -1.2 0.5 c -1.3 0 -7.6 -0.1 -9.8 -0.2 c -1.3 -0.1 -1.6 -0.3 -1.6 -0.6 c 0 -0.2 0.1 -0.4 0.4 -0.4 c 0.3 -0.1 0.4 -1.1 0.2 -2.1 l -2.8 -30.4 h -0.2 l -14.4 30.5 c -1.2 2.6 -1.4 3.1 -1.9 3.1 c -0.4 0 -0.7 -0.6 -1.8 -2.7 c -1.5 -2.9 -6.6 -13 -6.9 -13.6 c -0.5 -1.1 -7.1 -15.1 -7.7 -16.7 H 87 l -2.3 27.2 c -0.1 0.9 -0.1 2 -0.1 3 c 0 0.9 0.6 1.6 1.5 1.8 c 1 0.2 1.9 0.3 2.2 0.3 c 0.2 0 0.5 0.1 0.5 0.3 c 0 0.4 -0.4 0.5 -1.1 0.5 c -2.2 0 -5 -0.2 -5.4 -0.2 c -0.5 0 -3.3 0.2 -4.9 0.2 c -0.6 0 -1 -0.1 -1 -0.5 c 0 -0.2 0.3 -0.3 0.6 -0.3 c 0.5 0 0.9 0 1.8 -0.2 c 1.9 -0.4 2.1 -2.6 2.3 -4.9 l 4.2 -38.2 c 0.1 -0.6 0.3 -1.1 0.6 -1.1 c 0.4 0 0.6 0.2 0.9 0.9 l 17.9 36.9 L 122 4.3 c 0.2 -0.5 0.5 -0.9 0.9 -0.9 s 0.6 0.5 0.7 1.6 l 3.9 36 Z M 145.4 21.2 c 0 -9.1 0 -10.8 -0.1 -12.7 c -0.1 -2 -0.6 -2.9 -2.5 -3.3 c -0.5 -0.1 -1.5 -0.2 -2 -0.2 c -0.2 0 -0.5 -0.1 -0.5 -0.4 c 0 -0.4 0.3 -0.5 0.9 -0.5 c 1.3 0 2.9 0 4.2 0.1 l 2.4 0.1 c 1.2 0 13.1 0.1 14.4 0 c 1.1 -0.1 2.1 -0.1 2.6 -0.2 c 0.4 -0.1 0.6 -0.4 0.8 -0.4 c 0.2 0 0.4 0.2 0.4 0.5 c 0 0.4 -0.3 1.1 -0.5 2.8 c -0.1 0.6 -0.2 3.2 -0.3 3.9 c -0.1 0.3 -0.2 0.6 -0.5 0.6 s -0.4 -0.3 -0.4 -0.7 c 0 -0.5 -0.2 -1.5 -0.5 -2.2 c -0.4 -0.8 -1.7 -1.8 -4 -1.9 l -9 -0.2 c -0.4 0 -0.5 0.2 -0.5 0.6 v 16.2 c 0 0.4 0.1 0.5 0.4 0.5 l 7.5 -0.1 c 1 0 1.8 0 2.6 -0.1 c 1.4 -0.1 2.2 -0.3 2.7 -1.1 c 0.2 -0.3 0.4 -0.6 0.6 -0.6 c 0.2 0 0.3 0.2 0.3 0.5 c 0 0.4 -0.3 1.3 -0.5 3.3 c -0.1 1.2 -0.2 3.5 -0.2 3.9 c 0 0.5 0 1.1 -0.4 1.1 c -0.3 0 -0.4 -0.2 -0.4 -0.5 c -0.1 -0.6 -0.1 -1.4 -0.4 -2.1 c -0.3 -0.8 -1.2 -1.9 -3 -2.1 c -1.5 -0.2 -7.9 -0.2 -8.8 -0.2 c -0.3 0 -0.4 0.1 -0.4 0.5 v 5 c 0 5.6 0 10.3 0.3 12.7 c 0.2 1.7 0.5 3 2.3 3.2 c 0.8 0.1 2.1 0.2 2.6 0.2 c 0.4 0 0.5 0.2 0.5 0.4 c 0 0.3 -0.3 0.5 -0.9 0.5 c -3.2 0 -6.9 -0.2 -7.2 -0.2 s -4 0.2 -5.7 0.2 c -0.6 0 -0.9 -0.1 -0.9 -0.5 c 0 -0.2 0.1 -0.4 0.5 -0.4 c 0.5 0 1.2 -0.1 1.8 -0.2 c 1.2 -0.2 1.5 -1.5 1.7 -3.2 c 0.3 -2.5 0.3 -7.1 0.3 -12.7 V 21.2 Z M 186.8 5.7 c 0.7 -1.9 0.9 -2.3 1.3 -2.3 s 0.6 0.3 1.3 2.1 c 0.9 2.2 10.1 26.4 13.7 35.3 c 2.1 5.2 3.8 6.2 5 6.5 c 0.9 0.3 1.8 0.4 2.3 0.4 c 0.4 0 0.6 0.1 0.6 0.4 c 0 0.4 -0.5 0.5 -1.2 0.5 c -0.9 0 -5.2 0 -9.2 -0.1 c -1.1 -0.1 -1.8 -0.1 -1.8 -0.4 c 0 -0.2 0.2 -0.4 0.4 -0.4 c 0.4 -0.1 0.7 -0.6 0.4 -1.6 l -5.5 -14.4 c -0.1 -0.2 -0.2 -0.4 -0.5 -0.4 H 181 c -0.3 0 -0.5 0.2 -0.6 0.5 L 177 42.1 c -0.5 1.5 -0.8 2.9 -0.8 3.9 c 0 1.2 1.2 1.7 2.2 1.7 h 0.6 c 0.4 0 0.6 0.1 0.6 0.4 c 0 0.4 -0.4 0.5 -0.9 0.5 c -1.4 0 -3.9 -0.2 -4.6 -0.2 c -0.6 0 -3.9 0.2 -6.6 0.2 c -0.8 0 -1.1 -0.1 -1.1 -0.5 c 0 -0.2 0.2 -0.4 0.5 -0.4 c 0.4 0 1.2 -0.1 1.7 -0.1 c 2.7 -0.4 3.9 -2.6 4.9 -5.5 l 13.3 -36.4 Z m 6.1 23.4 c 0.3 0 0.3 -0.2 0.2 -0.4 l -5.6 -15.8 c -0.3 -0.9 -0.6 -0.9 -0.9 0 l -5.2 15.8 c -0.1 0.3 0 0.4 0.2 0.4 h 11.3 Z"
     id="path6"
     style="fill:#ffffff" />
  <path
     class="aqua"
     d="M 263.1 44.9 c 0 -1 0.7 -2.5 2.5 -2.5 c 1.4 0 2.5 0.9 2.5 2.4 s -1 2.6 -2.6 2.6 c -1.7 0 -2.4 -1.3 -2.4 -2.5 M 227 46.2 c -5.3 0 -9 -4.4 -9 -9.5 c 0 -5.7 3.5 -9.2 7.7 -11.3 c 5.1 2.7 10.1 5.4 10.1 11.7 c 0 5.1 -3.5 9.1 -8.8 9.1 m -13.4 -8.9 c 0 6.9 5.8 11.1 13 11.1 c 8.2 0 13.6 -5.9 13.6 -12.6 c 0 -7 -6.2 -10.5 -10 -12.5 c 3.2 -1.6 8.2 -5 8.2 -11 c 0 -5.6 -4.5 -8.8 -10.5 -8.8 c -8.4 0 -12.2 5.9 -12.2 10.2 c 0 5.1 3.5 8.1 8 10.8 c -5.1 2.1 -10.1 6.4 -10.1 12.8 m 13.6 -31.8 c 4.4 0 7.1 3.1 7.1 7.5 c 0 5.8 -3.9 8.1 -6.1 9.4 c -4.7 -2.5 -8.5 -4.9 -8.5 -9.7 c 0.1 -3.1 2.4 -7.2 7.5 -7.2 M 269.1 19.1 c 0 16.1 -12.8 26 -19.8 29.5 c -0.3 0.2 -0.7 0.2 -0.9 0.2 c -0.2 0 -0.5 -0.2 -0.5 -0.6 c 0 -0.3 0.2 -0.6 0.6 -0.8 c 6.8 -3.7 15.6 -13.2 15.6 -26.7 c 0 -10 -4.4 -15.1 -9.4 -15.1 c -5.1 0 -7.8 4.2 -7.8 8.8 c 0 9.5 7 11.4 8.6 11.4 c 2.7 0 3.8 -0.6 4.6 -1 c 0.3 -0.2 0.6 -0.3 0.7 -0.3 c 0.2 0 0.3 0.2 0.3 0.4 s -0.1 0.3 -0.2 0.5 c -1.7 1.8 -4.6 2.6 -6.9 2.6 c -8.1 0 -11.6 -6.2 -11.6 -11 c 0 -7.9 5.8 -13.3 13.7 -13.3 c 8 -0.1 13 6.7 13 15.4 M 277 16.9 c 7.3 1.1 17.8 5.5 17.8 15.7 c 0 7.4 -5.6 15.8 -17.2 15.8 c -1.7 0 -3.8 -0.3 -5.3 -1 c -0.5 -0.2 -0.7 -0.3 -1.1 -0.7 c -0.3 -0.3 -0.1 -0.9 0.2 -0.9 c 0.8 0.1 4.1 1.3 8 0.6 c 4.7 -0.9 10.8 -3.7 10.8 -11.6 c 0 -9.2 -10.1 -13.7 -14.5 -13.9 c -1.1 -0.1 -1.5 -0.4 -1.5 -1 l 1.3 -14.6 c 0.1 -0.6 0.5 -0.7 1.1 -0.7 H 290 c 3.1 0 4.1 -0.4 4.5 -0.4 c 0.2 0 0.4 0.1 0.4 0.6 s -0.2 3 -0.7 7.2 c -0.1 0.3 -0.2 0.6 -0.5 0.6 c -0.2 0 -0.3 -0.3 -0.3 -0.7 c 0 -2.2 -0.5 -3.7 -5 -3.7 h -10.8 l -0.6 8.7 Z"
     id="path8"
     style="fill:#ffffff" />
</svg>
