<?xml version="1.0" encoding="utf-8"?>
<!-- Generator: Adobe Illustrator 16.0.4, SVG Export Plug-In . SVG Version: 6.00 Build 0)  -->
<!DOCTYPE svg PUBLIC "-//W3C//DTD SVG 1.1//EN" "http://www.w3.org/Graphics/SVG/1.1/DTD/svg11.dtd">
<svg version="1.1" id="Layer_1" xmlns="http://www.w3.org/2000/svg" xmlns:xlink="http://www.w3.org/1999/xlink" x="0px" y="0px"
	 width="431.68px" height="158.021px" viewBox="0 0 431.68 158.021" enable-background="new 0 0 431.68 158.021"
	 xml:space="preserve">
<path fill="#FFCD00" d="M155.501,33.655c-12.453,0.575-24.802,2.511-32.912,5.18c-8.817,2.878-12.977,6.881-11.407,11.041
	c0.994,2.643,5.285,4.605,12.27,5.599c3.768,0.549,19.543,0.471,24.985-0.105c19.752-2.145,32.206-6.122,35.188-11.25
	c0.706-1.177,0.811-1.57,0.732-2.957c-0.131-1.988-0.916-3.14-2.904-4.291C177.033,34.309,167.196,33.105,155.501,33.655
	L155.501,33.655z M170.806,38.809c2.852,0.445,6.541,1.413,6.541,1.727c0,0.288-3.296,1.727-6.017,2.616
	c-6.018,1.988-13.918,3.454-24.07,4.5c-5.154,0.523-19.281,0.445-22.97-0.131c-3.061-0.497-6.332-1.36-6.332-1.727
	c0-0.445,3.951-2.067,7.796-3.192c5.86-1.701,15.305-3.323,22.683-3.898c2.014-0.157,4.133-0.313,4.709-0.366
	C155.71,38.077,168.19,38.443,170.806,38.809L170.806,38.809z"/>
<path fill="#FFFFFF" d="M123.714,62.25c0.314,1.229,0.602,2.433,0.68,2.668c0.131,0.445-0.34,0.471-7.587,0.471
	c-4.265,0-7.744,0.026-7.744,0.052c-0.026,0.052-0.34,2.852-0.732,6.227l-0.707,6.148l-4.003,0.078
	c-3.349,0.052-3.977,0-3.977-0.313c0-0.209,0.288-2.878,0.654-5.913s0.654-5.703,0.654-5.913c0-0.314-1.36-0.366-9.209-0.366h-9.235
	l-2.171,19.176c-1.203,10.518-2.25,19.413-2.328,19.727l-0.131,0.602h9.313c5.651,0,9.314-0.104,9.314-0.234
	c0-0.314,1.229-10.963,1.439-12.532l0.157-1.099h3.925h3.898v0.759c0,0.444-0.288,3.271-0.654,6.305
	c-0.366,3.035-0.654,5.808-0.654,6.175v0.627h9.131h9.13l0.157-0.732c0.079-0.392,0.863-7.063,1.727-14.834
	c0.89-7.77,1.701-14.363,1.805-14.625c0.131-0.34,1.151,3.375,3.113,11.119c7.482,29.773,8.163,32.259,8.712,32.729
	c0.628,0.523,1.099,0.576,1.779,0.21c0.288-0.131,5.834-10.596,12.349-23.259c6.541-12.663,11.904-22.997,11.93-22.971
	c0.026,0.026-0.785,7.063-1.779,15.619c-0.994,8.556-1.805,15.828-1.805,16.142v0.602h9.549h9.523l0.13-0.863
	c0.079-0.444,0.733-5.965,1.465-12.217c0.707-6.254,1.439-11.826,1.622-12.375c0.157-0.55,0.707-1.334,1.177-1.779
	c0.732-0.628,1.125-0.759,2.198-0.759c1.543,0,2.459,0.706,2.721,2.146c0.131,0.732-2.041,21.4-2.642,24.984l-0.131,0.863h9.706
	c9.131,0,9.68-0.025,9.68-0.471c0-0.262,0.707-6.592,1.596-14.049c1.832-15.697,1.884-17.502,0.654-20.197
	c-1.753-3.846-5.363-5.625-11.407-5.625c-4.997,0.026-8.293,1.256-11.276,4.212c-0.942,0.942-1.91,2.014-2.172,2.38
	c-0.497,0.733-0.497,0.942,0-4.002l0.183-1.753h-7.639c-4.186,0-7.613-0.079-7.613-0.157s0.707-1.491,1.596-3.139l1.596-2.983
	h-9.523h-9.497l-3.113,8.974c-1.727,4.918-3.297,9.444-3.506,10.072c-0.209,0.602-0.445,1.073-0.497,0.994
	c-0.052-0.052-0.68-4.552-1.334-10.02l-1.229-9.89l-9.89-0.078l-9.833-0.053L123.714,62.25z"/>
<path fill="#FFFFFF" d="M60.532,64.893c-13.5,1.203-21.113,8.215-22.343,20.564c-0.89,8.738,2.119,15.043,8.686,18.261
	c3.113,1.518,5.755,2.172,10.177,2.538c2.773,0.235,4.552,0.235,7.718,0c3.793-0.288,9.602-1.334,10.046-1.805
	c0.183-0.21,1.596-11.643,1.439-11.773c-0.052-0.053-0.707,0.209-1.491,0.549c-3.427,1.596-8.372,2.066-11.119,1.125
	c-4.631-1.596-6.357-7.221-3.872-12.74c2.433-5.442,9.575-6.908,17.398-3.559c0.523,0.235,0.549,0.104,1.282-6.488
	c0.34-2.982,0.471-5.023,0.313-5.18c-0.418-0.418-5.075-1.23-8.686-1.518C66.13,64.579,63.985,64.579,60.532,64.893L60.532,64.893z"
	/>
<path fill="#FFCD00" d="M226.009,65.416c-2.066,0.34-5.546,1.596-7.221,2.616c-6.07,3.637-8.791,11.433-5.991,17.137
	c1.256,2.563,3.559,4.396,6.803,5.415c3.349,1.047,8.921,0.629,12.061-0.863c0.575-0.287,1.125-0.523,1.203-0.523
	c0.235,0-0.288,1.832-0.837,2.879c-0.707,1.359-2.276,2.746-4.056,3.584c-1.518,0.706-1.674,0.732-6.018,0.732
	c-3.715,0-4.787-0.105-6.461-0.576c-1.125-0.287-2.041-0.471-2.041-0.365c0,0.078-0.235,2.092-0.523,4.447
	c-0.288,2.381-0.497,4.343-0.445,4.369c0.314,0.262,3.479,0.68,7.168,0.916c6.331,0.444,10.387-0.027,14.521-1.701
	c8.581-3.479,14.022-12.741,13.499-23.023c-0.235-4.631-2.04-8.686-5.022-11.302c-1.727-1.543-5.023-3.139-7.431-3.636
	C233.125,65.102,228.337,65.05,226.009,65.416L226.009,65.416z M232.184,73.919c1.7,0.811,2.354,2.721,1.831,5.259
	c-0.602,2.956-2.328,4.553-4.971,4.578c-2.8,0.026-4.422-1.518-4.422-4.212c0-1.518,0.732-3.585,1.596-4.579
	C227.422,73.631,230.431,73.082,232.184,73.919L232.184,73.919z"/>
<path fill="#FFCD00" d="M253.191,65.966c0,0.183-0.575,5.102-1.256,10.936c-0.68,5.835-1.229,10.622-1.203,10.648
	c0,0.026,0.968-0.104,2.093-0.313c2.8-0.498,7.012-0.498,8.712,0c0.732,0.234,1.701,0.705,2.119,1.072
	c2.354,1.988,1.151,5.938-2.146,7.09c-1.831,0.628-6.749,0.575-9.915-0.105c-2.041-0.444-2.303-0.444-2.303-0.104
	c0,0.234-0.183,1.936-0.392,3.819c-0.21,1.857-0.419,3.688-0.472,4.028c-0.052,0.576,0.104,0.681,1.256,0.994
	c5.05,1.309,12.297,1.648,16.744,0.76c8.477-1.675,12.924-6.437,12.95-13.788c0-5.05-2.381-8.765-6.724-10.465
	c-1.282-0.497-2.015-0.602-4.866-0.602h-3.375l0.184-1.728c0.078-0.941,0.235-2.092,0.313-2.563l0.131-0.837h7.273h7.273
	l0.156-0.994c0.157-0.968,0.942-7.587,0.942-7.979c0-0.105-6.175-0.183-13.735-0.183C256.147,65.652,253.218,65.73,253.191,65.966
	L253.191,65.966z"/>
<path fill="#FFCD00" d="M298.452,69.079c-3.087,1.91-6.096,3.741-6.697,4.133c-0.628,0.367-1.125,0.785-1.125,0.942
	c0,0.393,2.59,9.602,2.747,9.759c0.053,0.079,1.622-0.89,3.453-2.119c1.806-1.256,3.35-2.25,3.375-2.198
	c0.053,0.027-0.575,5.6-1.36,12.35c-0.759,6.775-1.412,12.375-1.412,12.479c0,0.131,3.191,0.21,7.063,0.21h7.063l0.026-0.733
	c0-0.392,0.968-9.078,2.172-19.281c1.203-10.229,2.119-18.653,2.066-18.784c-0.052-0.105-2.721-0.183-5.938-0.183h-5.835
	L298.452,69.079L298.452,69.079z"/>
<path fill="#FFCD00" d="M321.764,66.044c0,0.235-0.341,3.427-0.785,7.143c-0.419,3.688-1.36,11.903-2.093,18.235
	c-0.707,6.331-1.36,11.904-1.439,12.349l-0.157,0.863h2.381c1.309,0,2.354-0.104,2.354-0.262c0-0.419,1.832-16.3,1.963-17.215
	l0.156-0.837h8.32h8.319l0.184-1.204c0.078-0.681,0.156-1.491,0.156-1.831v-0.628h-8.372h-8.397l0.156-0.863
	c0.079-0.444,0.367-2.956,0.654-5.546c0.288-2.591,0.602-5.155,0.681-5.704l0.157-0.968h8.686h8.712l0.184-1.387
	c0.078-0.732,0.156-1.622,0.156-1.962v-0.575h-10.988C323.045,65.652,321.764,65.704,321.764,66.044L321.764,66.044z"/>
<path fill="#FFCD00" d="M383.873,65.782c3.033,0.08,3.255,0.16,4.735,0.602c3.533,1.056,5.102,4.788,5.102,9.444
	c0,0.969-0.706,7.719-1.57,15.018c-0.863,7.273-1.569,13.369-1.569,13.5c0,0.184-0.916,0.288-2.485,0.288h-2.459l0.104-0.733
	c0.523-2.772,3.035-25.743,3.035-27.521c0-3.506-0.759-5.155-2.748-6.018c-4.552-1.988-9.496,0.34-12.061,5.625
	c-1.36,2.799-1.831,5.311-3.271,17.397c-0.732,6.096-1.36,11.146-1.412,11.171c-0.053,0.053-1.151,0.053-2.407,0.026l-2.328-0.078
	l1.491-12.558c0.837-6.907,1.543-13.788,1.569-15.306c0.053-2.485,0-2.904-0.575-4.055c-0.785-1.543-1.884-2.354-3.794-2.747
	c-4.604-0.968-8.947,1.989-11.015,7.483c-1.046,2.825-1.334,4.395-2.59,15.018c-0.628,5.546-1.256,10.568-1.334,11.171l-0.157,1.125
	h-2.328c-2.276,0-2.328-0.026-2.328-0.603c0-0.34,0.837-7.744,1.831-16.43c1.021-8.686,1.936-17.11,2.04-18.68l0.184-2.878
	l2.303-0.078l2.275-0.079v0.732c-0.025,0.393-0.183,1.988-0.366,3.532c-0.157,1.57-0.288,2.826-0.235,2.826s0.523-0.68,1.047-1.491
	c1.988-3.113,3.898-4.657,6.619-5.416l0,0c2.171-0.628,6.854-0.445,8.267,0.288c2.146,1.125,3.559,3.375,3.978,6.227l0.183,1.256
	l1.021-1.622c1.465-2.381,3.532-4.291,5.86-5.442C378.483,66.776,381.081,65.708,383.873,65.782z"/>
<path fill="#FFCD00" d="M282.258,94.352c0,0.262-0.235,2.407-0.523,4.788c-0.287,2.381-0.522,4.578-0.522,4.892v0.603h5.493
	c4.213,0,5.494-0.079,5.494-0.341c0-0.156,0.236-2.25,0.523-4.631c0.288-2.38,0.523-4.63,0.523-5.049v-0.706h-5.494
	C282.703,93.907,282.258,93.934,282.258,94.352L282.258,94.352z"/>
</svg>
