<?xml version="1.0" encoding="utf-8"?>
<!-- Generator: Adobe Illustrator 22.1.0, SVG Export Plug-In . SVG Version: 6.00 Build 0)  -->
<svg version="1.1" id="LOGO" xmlns="http://www.w3.org/2000/svg" xmlns:xlink="http://www.w3.org/1999/xlink" x="0px" y="0px"
	 viewBox="0 0 261.2 174.6" style="enable-background:new 0 0 261.2 174.6;" xml:space="preserve">
<style type="text/css">
	.st0{fill:#EE2D3B;}
	.st1{fill:#A6227D;}
</style>
<title>MIX_967_STACKED</title>
<path class="st0" d="M132.5,88.2c0,4.5-1.5,7.2-4.6,8.3c-0.9,0.3-3.1,0.4-6.7,0.4c-4.8,0-7.2-2.9-7.2-8.7V37L77.4,91.5
	c-3.7,5.9-11.6,7.6-17.5,3.9c-1.5-1-2.9-2.3-3.8-3.8l-37.4-55v51.7c0,5.8-2.4,8.7-7.2,8.7c-3.9,0-6.4-0.3-7.7-0.8
	c-2.4-1.2-3.6-3.8-3.6-7.9V11.3c0-7.5,3.2-11.2,9.5-11.2c4.2-0.2,8.1,1.9,10.4,5.3l46.8,66.8l45.8-66.9c2.2-3.4,6.1-5.5,10.1-5.3
	c6.5,0,9.8,4,9.8,12L132.5,88.2z"/>
<path class="st0" d="M156.8,88.3c0,5.8-2.4,8.7-7.2,8.7c-3.9,0-6.4-0.3-7.7-0.8c-2.4-1.1-3.6-3.8-3.6-7.9V8.7c0-4.1,1.2-6.7,3.7-7.9
	c1.2-0.6,3.7-0.8,7.6-0.8c4.8,0,7.2,2.9,7.2,8.7V88.3z"/>
<path class="st0" d="M256.9,95.8c-1.9,1-4,1.5-6.2,1.5c-2.4,0.1-4.8-0.8-6.6-2.5l-32.9-33.5l-33.4,33.6c-1.7,1.5-3.9,2.4-6.2,2.2
	c-2.7,0-5.3-0.7-7.5-2.3c-2.4-1.7-3.6-3.8-3.6-6.1s1.2-4.8,3.6-7.1l33.5-33.9l-32.3-32.4c-2.1-1.9-3.3-4.6-3.3-7.4
	c0-2.1,0.7-4.1,2.2-5.6c1.5-1.5,3.6-2.4,5.7-2.3h4.2c1.8,0,3.4,0.7,4.6,2l32.4,32.5l32-32.4c1.2-1.3,2.9-2,4.7-2h4
	c2.2-0.1,4.3,0.8,5.9,2.3c1.4,1.5,2.1,3.5,2.1,5.6c0,2.8-1.2,5.5-3.2,7.4l-32,32.4c8.7,8.6,17.3,17.2,26,25.8
	c7.1,7.4,10.7,12.8,10.7,16.3C261.2,92.2,259.8,94.2,256.9,95.8z"/>
<path class="st1" d="M83,155.9c0,8.6-5.3,14.2-16,16.7c-4.5,1-27.4,1.6-38.5,1.6c-4,0-6-2-6-6v-1.4c0-4,2-6,6-6
	c0.3,0,16.3,0,18.1,0.1s3.3,0.1,4.5,0.1c10.9,0,16.4-5,16.4-8.9v-2.3H30.2c-7.7,0-14.2-1.1-19.4-3.3C3.6,143.3,0,138.3,0,131.5v-10
	c0-6.4,3.5-11.2,10.5-14.3c5.5-2.4,11.4-3.5,17.3-3.4h25.9c7.3,0,13.5,1.1,18.6,3.4c7.2,3.2,10.7,8.4,10.7,15.6V155.9z M67.6,136.3
	v-13.6c0-3.7-4.8-5.6-14.4-5.6H28c-8.3,0-12.5,1.5-12.5,4.5v9.6c0,3.3,4.8,5,14.5,5L67.6,136.3z"/>
<path class="st1" d="M174.9,156.2c0,6.6-3.5,11.4-10.4,14.5c-5.5,2.3-11.5,3.5-17.5,3.3h-30.7c-11.5,0-19.5-2.2-24-6.7
	c-3.6-3.7-5.5-7.7-5.5-12.2v-33.3c0-7.4,3.9-12.5,11.6-15.4c5.2-1.9,12.7-2.8,22.5-2.8h24.5c4,0,6,2,6,6.1c0,4.9-2,7.4-6,7.4h-29
	c-9.5,0-14.2,4.5-14.2,7.6v3.4h42.4c7.7,0,14.2,1.1,19.4,3.3c7.2,3.1,10.8,8.1,10.8,14.9L174.9,156.2z M159.5,156.1v-9.5
	c0-3.4-4.8-5.1-14.5-5h-42.7v13.6c0,3.7,4.7,5.6,14.2,5.6H147C155.3,160.7,159.5,159.2,159.5,156.1L159.5,156.1z"/>
<path class="st1" d="M194.1,167.4c0,2.2-1,4.2-2.9,5.4c-3.9,2.4-8.7,2.4-12.6,0c-1.8-1.2-2.9-3.2-2.8-5.4c0-2.1,1-4.1,2.8-5.3
	c1.9-1.2,4-1.9,6.3-1.8c2.2-0.1,4.4,0.6,6.3,1.8C193.1,163.3,194.1,165.3,194.1,167.4z"/>
<path class="st1" d="M261.1,110.3c-0.1,2.3-1.1,4.6-2.7,6.3L212.4,172c-1,1-2.2,1.6-3.6,1.8c-1.4,0.3-2.9,0.4-4.3,0.4
	c-1.7,0.1-3.3-0.6-4.5-1.7c-1.1-1.1-1.8-2.5-1.8-4.1c0-1.5,0.6-3,1.6-4.2l39.3-47h-56.9c-4,0-6-2-6-6.1c0-4.9,2-7.3,6-7.3h69.2
	C257.9,103.7,261.1,105.9,261.1,110.3z"/>
</svg>
