<svg id="Layer_1" data-name="Layer 1" xmlns="http://www.w3.org/2000/svg" viewBox="0 0 215.9 44.51"><defs><style>.cls-1{fill:#fff;}</style></defs><title>UOSignature</title><path class="cls-1" d="M68.14 0h.67v44.51h-.67zM88.23 29.72c0-5 2-9.46 6.93-9.46s7 4.49 7 9.46-2 9.87-7 9.87-6.93-4.49-6.93-9.87m-4 0a10.91 10.91 0 1 0 21.82 0 10.91 10.91 0 0 0-21.82 0m31.68.37h-2.59v-9a10.41 10.41 0 0 1 2.05-.33h.77c3.33 0 4.87 1.44 4.87 4.43s-1.65 4.93-5.11 4.93m6.72 10.3h5.11v-.94l-2-.54a7.07 7.07 0 0 1-2.11-2.28l-2.09-3.19c-1.08-1.71-1.58-2.38-2.22-2.79 2.86-.6 5.35-2.89 5.35-5.61 0-3.65-3.43-5.47-8-5.47h-9.69v.91l2 .44c.63.13.87.2.87.74v16.66c0 .47-.1.5-.9.67l-2 .41v1h9.21v-.94l-2-.4c-.71-.13-.81-.2-.81-.7v-7h3.26l3.16 5.3a13.87 13.87 0 0 0 2.89 3.73m19.68-20.81h-13.39v1l2 .4c.77.13.87.23.87.71v16.63c0 .47-.1.53-.9.67l-2 .41v1h16.61l1-6.54h-.91a14.24 14.24 0 0 1-2 4.33 9 9 0 0 1-4.4 1h-.74a20.6 20.6 0 0 1-3.13-.24v-8.74h4a5.08 5.08 0 0 1 1.85 3.22h.67v-7.67h-.67a4.93 4.93 0 0 1-1.85 3.09h-4v-7.89a16.51 16.51 0 0 1 2.63-.19h.31a11.37 11.37 0 0 1 4.91 1 14.07 14.07 0 0 1 1.58 4.1h.9l-.63-6.66a10.79 10.79 0 0 1-2.69.37m24.51 6.94h.91l-.4-7.24h-.71l-.64.87a12.05 12.05 0 0 0-5.71-1.11c-7.27 0-12.11 4.5-12.11 10.54s4.2 11.14 10.79 11.14a20.84 20.84 0 0 0 8.71-1.78l-.17-.64V32.1c0-.67.23-.84.87-1.11l.57-.23v-.77h-8.07v.9l2.39.57c.7.17.84.33.84.8v6a7.32 7.32 0 0 1-4.5 1.38c-4.07 0-7.47-3.66-7.47-10.23 0-5.24 2.69-9.19 8-9.19a7.48 7.48 0 0 1 5 1.54 17.48 17.48 0 0 1 1.64 4.79m21.89 3.19c0 5.1-2 9.87-7 9.87s-6.92-4.49-6.92-9.87c0-5 2-9.46 6.92-9.46s7 4.49 7 9.46m3.93 0a10.91 10.91 0 0 0-21.81 0 10.91 10.91 0 1 0 21.81 0m18.85-4.58v9.6l-12.3-15.17h-5.5v1l1.58.37c.94.2 1 .2 1 .74v13.19c0 .94-.1 2.65-.17 3.42-.07.6-.21.74-.61.8l-2 .34v.94h7.93v-.94l-2.75-.4c-.37-.07-.54-.27-.61-.74-.1-1-.16-2.48-.16-3.45V23.01l14.45 17.79h.74V25.13c0-1.22.06-2.62.1-3.5 0-.64.37-.7.7-.77l2-.33v-.94h-7.93v.94l2.82.4c.4.07.54.2.6.81s.13 2.15.13 3.42M94.83 4.4v-.55h-3.18v.55l1 .2c.29.06.29.11.29.23v4.69c0 1.89-.93 3-2.54 3-1.4 0-2.23-1.06-2.23-2.84V4.85c0-.17 0-.21.27-.26l.91-.18v-.56h-4.09v.55l.76.17c.26.06.28.11.28.26v4.83c0 2.31 1.45 3.69 3.87 3.69s3.68-1.43 3.68-3.83V4.83c0-.14 0-.19.29-.26zm11.93.16l.93-.16v-.55h-3.66v.55l1.25.19c.15 0 .21.11.23.3a12.35 12.35 0 0 1 .09 1.51v3.9l-5.13-6.42h-2.71v.56l.78.18h.06c.31.08.32.08.32.25v5.8c0 .39 0 .85-.06 1.19v.37c0 .17-.06.22-.21.24l-.94.16v.54h3.65v-.55l-1.26-.18c-.16 0-.19-.07-.21-.25s-.08-1-.08-1.54V5.74l6.07 7.57h.59v-7c0-.46 0-.88.05-1.19V4.83c0-.2.07-.25.24-.27m3.82 8.6h4.28v-.54l-.88-.19c-.33-.07-.33-.08-.33-.23V4.83c0-.14 0-.16.35-.23l.85-.2v-.55h-4.28v.55l.88.2c.33.07.33.08.33.23v7.41c0 .16 0 .16-.35.23l-.85.18zm16.37-8.76v-.55h-2.92v.55l.75.17c.12 0 .26.06.28.11s0 .07 0 .15l-2.41 6.2-2.39-6.15v-.17s.11-.08.24-.11l.8-.17v-.58h-3.83v.56l.44.15c.18.06.31.1.38.31l3.32 8.43h.8l3.6-8.44a.44.44 0 0 1 .35-.3zm5.68 8V8.67h1.56a2.21 2.21 0 0 1 .8 1.37v.05h.41V6.58h-.42v.05a2.21 2.21 0 0 1-.8 1.32h-1.56V4.59a5.83 5.83 0 0 1 1-.08h.13a4.7 4.7 0 0 1 2.08.43 5.57 5.57 0 0 1 .64 1.78h.52l-.28-3.06h-.08a4.9 4.9 0 0 1-1.17.16h-6v.55l.88.19c.34.07.34.09.34.25v7.43c0 .16 0 .16-.35.23l-.85.18v.54h7.43l.45-3h-.53a6.4 6.4 0 0 1-.88 1.87 3.84 3.84 0 0 1-1.87.45h-.34a7 7 0 0 1-1.09-.08zm11.55-3.93h-.81V4.62a3.4 3.4 0 0 1 .75-.13h.25c1.34 0 2 .62 2 1.89a1.93 1.93 0 0 1-2.19 2.11m2.85 4.67h2.44v-.54l-.85-.23a2.91 2.91 0 0 1-.89-1l-.86-1.38a4.83 4.83 0 0 0-1-1.19 2.84 2.84 0 0 0 2.29-2.5c0-1.53-1.37-2.48-3.58-2.48h-4.35v.53l.88.21c.33.07.33.09.33.25v7.41c0 .16 0 .16-.35.23l-.85.18v.54h4.26v-.54l-.9-.19c-.3-.06-.3-.08-.3-.25v-3h1l1.36 2.31a5.67 5.67 0 0 0 1.26 1.66zm7.05-7.47a1.39 1.39 0 0 1 1.47-1.45 2.16 2.16 0 0 1 1.59.75 5.67 5.67 0 0 1 .63 1.69v.06h.55l-.1-3h-.41l-.3.41a4 4 0 0 0-2-.48c-1.86 0-3.21 1.06-3.21 2.52 0 1.23.67 2.05 2.16 2.67l.93.38a1.85 1.85 0 0 1 1.4 1.78 1.66 1.66 0 0 1-1.84 1.74 1.93 1.93 0 0 1-1.63-.81 7.92 7.92 0 0 1-.59-2v-.06h-.58V11.05c0 .88.06 1.88 0 2.29v.07h.43l.24-.42a5.32 5.32 0 0 0 2.24.42c2.1 0 3.5-1.12 3.5-2.8 0-1.47-1-2.14-2.07-2.65l-1.23-.72c-.85-.4-1.18-.84-1.18-1.57m7.47 7.48h4.28v-.54l-.88-.19c-.33-.07-.33-.08-.33-.23V4.83c0-.15 0-.16.35-.23l.84-.2v-.55h-4.28v.55l.88.2c.34.07.34.08.34.23v7.41c0 .16 0 .16-.35.23l-.85.18zm15.26-6.41h.53l-.11-3.07h-.09a4.32 4.32 0 0 1-1.19.17h-5.88a4.16 4.16 0 0 1-1.34-.18h-.08l-.11 3.07h.52a7 7 0 0 1 .7-1.85 4 4 0 0 1 1.79-.34h.46v7.7c0 .15 0 .15-.3.21l-1 .21v.54h4.56v-.54l-1-.21c-.29-.06-.29-.06-.29-.2V4.5h.6a2.87 2.87 0 0 1 1.64.35 6.87 6.87 0 0 1 .69 1.84zm11.66-2.21l.48-.13v-.55h-3v.55l.7.14c.17 0 .34.07.37.13s0 .07 0 .16l-2 3.42-2.35-3.47c-.05-.08-.05-.11-.05-.11s.13-.05.21-.07l.76-.18v-.57h-3.82v.55l.46.16a.64.64 0 0 1 .38.33l2.86 4.42v2.85c0 .12 0 .17-.35.23l-1 .21v.54h4.62v-.54l-1.06-.22c-.33-.07-.33-.07-.33-.23V9.03l2.61-4.16a.64.64 0 0 1 .48-.34m12.4 8.15c-2.11 0-2.86-2.31-2.86-4.29a5.66 5.66 0 0 1 .64-2.82 2.55 2.55 0 0 1 4.43 0 5.7 5.7 0 0 1 .65 2.82c0 2-.75 4.28-2.86 4.29m4.87-4.29a4.72 4.72 0 0 0-4.84-4.77h-.07a4.72 4.72 0 0 0-4.84 4.77 4.88 4.88 0 0 0 4.86 5 4.88 4.88 0 0 0 4.86-5m10.08-1.62l-.29-3.07h-.08a6.7 6.7 0 0 1-1.55.16h-5.55v.55l1 .2c.33.07.33.08.33.23v7.4c0 .16 0 .16-.35.23l-.85.18v.54h4.62v-.54l-1.25-.25h-.09c-.23 0-.23 0-.23-.19V8.82h1.68a4.06 4.06 0 0 1 .7 1.51h.46V6.76h-.47v.05a2.52 2.52 0 0 1-.7 1.31h-1.67V4.63a4.59 4.59 0 0 1 1-.12h.15a4.28 4.28 0 0 1 1.93.43 5.3 5.3 0 0 1 .72 1.77zM53.57 29.56c-.91 5.8-5.75 10.08-11.33 12.22a42.59 42.59 0 0 1-15.16 2.63 43 43 0 0 1-15.17-2.63C6.33 39.64 1.47 35.36.59 29.56A45.93 45.93 0 0 1 0 22.24a48.79 48.79 0 0 1 .59-7.35C1.47 9.08 6.33 4.8 11.91 2.66A43.25 43.25 0 0 1 27.08.04a42.78 42.78 0 0 1 15.17 2.62c5.58 2.15 10.42 6.42 11.33 12.22a48.18 48.18 0 0 1 .58 7.36 47.92 47.92 0 0 1-.59 7.34M40.71 15.92c-.14-2.48-.4-5.12-1.79-7.12-2.73-3.92-7.36-5.56-11.84-5.49S17.97 4.88 15.25 8.8c-1.39 2-1.66 4.64-1.79 7.12-.1 1.82-.17 4-.18 6.3s.05 4.48.15 6.29c.14 2.49.43 5.12 1.82 7.12 2.72 3.92 7.33 5.46 11.83 5.49s9.11-1.57 11.84-5.49c1.39-2 1.67-4.63 1.8-7.12.1-1.82.07-4 .07-6.26s0-4.51-.09-6.34"/></svg>