<svg xmlns="http://www.w3.org/2000/svg" xmlns:xlink="http://www.w3.org/1999/xlink" viewBox="0 0 288 98.966"><defs><style>.beat_a{fill:#fff}.beat_b{fill:url(#a)}.beat_c{fill:#9a207d}.beat_d{fill:url(#b)}.beat_e{fill:url(#c)}</style><linearGradient id="a" x1="882.955" y1="868.687" x2="808.116" y2="881.292" gradientTransform="translate(-624.533 -831.922)" gradientUnits="userSpaceOnUse"><stop offset="0" stop-color="#9a207d"/><stop offset="1" stop-color="#da3589"/></linearGradient><linearGradient id="b" x1="-29.332" y1="58.308" x2="281.643" y2="16.284" gradientUnits="userSpaceOnUse"><stop offset="0" stop-color="#9a207d"/><stop offset=".084" stop-color="#a4237f"/><stop offset=".227" stop-color="#bf2c84"/><stop offset=".341" stop-color="#da3589"/></linearGradient><linearGradient id="c" x1="23.545" y1="23.522" x2="44.809" y2="30.376" xlink:href="#a"/></defs><title>beat_color</title><path class="beat_a" d="M256.263 15.883c5.763 8.1 6.52 18.488 3.5 28.562a54.076 54.076 0 0 1-10.737 18.909A66.3 66.3 0 0 1 237.9 73.486c-15.947 10.978-35.359 13.94-48.853 8.044a30.957 30.957 0 0 1-11.472-9.018c-.078-.107-.041-.528-.117-.633-11.618-16.352-3.4-42.142 18.365-57.605s48.822-14.745 60.44 1.609z"/><path class="beat_b" d="M200.785 19.918c5.964 0 10.749 1.885 13.846 5.452 2.961 3.4 4.121 8.108 3.346 13.6-.846 6.017-3.9 10.658-7.071 14.779L189 79.174a3.162 3.162 0 0 0-.325 1.869c.053.172.189.437.7.656a38.692 38.692 0 0 0 15.483 3.021c10.225 0 21.073-3.408 30.658-9.612H219.9a4.346 4.346 0 0 1-3.559-1.646c-2.321-2.975-.915-8.926-.75-9.592l.091-.366 21.498-19.321c2.575-2.2 5.747-4.9 6.189-8.041a4.463 4.463 0 0 0-.938-3.675A5.789 5.789 0 0 0 238 30.73a8.111 8.111 0 0 0-7.282 4.741 3.969 3.969 0 0 1-3.575 2.129 2.766 2.766 0 0 1-.419-.027l-8.34-.661.32-1.393c2.235-9.621 10.081-15.6 20.468-15.6 5.72 0 10.4 1.757 13.171 4.949 2.433 2.8 3.382 6.662 2.747 11.174-1.029 7.348-5.686 12.039-10.561 16.016l-14.386 12.68h16.2a6.109 6.109 0 0 0 2.7-1.375 56.235 56.235 0 0 0 7.305-10.663 3.908 3.908 0 0 1-1.672-1.13 3.808 3.808 0 0 1-.889-3.071 4.98 4.98 0 0 1 4.871-4.19 4.191 4.191 0 0 1 1.1.14 38.028 38.028 0 0 0 1.706-14.41 28.78 28.78 0 0 0-5.18-14.371c-5.862-8.252-15.721-12.793-27.755-12.793-11.108 0-22.818 3.972-32.97 11.186-21.735 15.447-30.014 41.411-18.454 57.875a2.519 2.519 0 0 0 1.987 1.3 2.3 2.3 0 0 0 1.1-.3l14.671-16.361c-.622.06-1.228.084-1.748.084a14.305 14.305 0 0 1-11.015-4.772 16.5 16.5 0 0 1-3.478-13.187c1.557-11.06 10.673-18.783 22.163-18.783zm-1.392 10.812a9.988 9.988 0 0 0-9.557 8.387 7.065 7.065 0 0 0 1.576 5.729 6.9 6.9 0 0 0 5.322 2.317 9.979 9.979 0 0 0 9.557-8.387 7.094 7.094 0 0 0-1.574-5.729 6.912 6.912 0 0 0-5.324-2.317z"/><path class="beat_c" d="M273.166 23.232c-1.635 0-1.729 2.5-1.729 2.5L269.4 38.563a15.036 15.036 0 0 1 6.132-1.363c3.531 0 6.445 1.521 5.887 5.5a5.62 5.62 0 0 1-5.617 4.849c-2.451 0-3.838-1.24-4.2-3.289l-4.048 1.056s-1.468.393-.594 2.449c1.246 2.937 3.984 4.362 7.671 4.362 5.816 0 10.8-3.733 11.652-9.827.81-5.743-2.562-9.434-8.144-9.434a12.333 12.333 0 0 0-3.1.363l.912-5.658h8.928c2.7 0 2.713-1.42 2.713-1.42l.4-2.916z"/><path class="beat_d" d="M159.683 21.278v9.66a1.234 1.234 0 0 1-1.233 1.237h-7.994v55.12c-11.506 0-13.212-3.216-13.319-12.459V32.174h-7.995a1.233 1.233 0 0 1-1.23-1.237v-9.66a1.232 1.232 0 0 1 1.23-1.231h7.995V0c11.46 0 13.217 1.722 13.311 10.826v9.221h8a1.233 1.233 0 0 1 1.235 1.231zm-25.536 51.465c0 4.412.471 8.828 1.693 10.8h-5.95c-4.429 0-7.383-1.624-8.369-5.852-3.836 5.313-10.557 7.163-16.475 7.163-6.964 0-12.846-2.642-15.3-8.24H58.087c.224 3.152.387 12.345 11.987 12.345a11.735 11.735 0 0 0 9.135-3.888 5.677 5.677 0 0 1 4.706-2.419h8.506C90.531 88.507 85.9 98.966 69.6 98.966c-11.62 0-18.624-5.629-22.124-12.885a22.644 22.644 0 0 1-4.18 5.9q-6.846 6.981-18.272 6.984a27.384 27.384 0 0 1-11.706-2.385 22.091 22.091 0 0 1-6.477-4.6Q0 85 0 73.474V0c11.459 0 13.219 1.722 13.313 10.826v39.453a27.34 27.34 0 0 1 11.71-2.389q11.432 0 18.272 6.982a22.58 22.58 0 0 1 4.229 6.03c3.89-7.847 11.616-13.239 22.075-13.239 11.019 0 18.038 6.1 21.4 14.187 3.063-4.1 8.548-5.533 14.046-6.283 8.169-1.217 15.775-.942 15.775-6.383 0-5.727-3.948-6.573-8.639-6.573-3.7 0-6.534 1.127-7.852 3.751a6.493 6.493 0 0 1-6.029 3.572h-8.27C90.782 37.45 101.953 33.7 112.838 33.7c9.671 0 21.31 2.156 21.31 13.8zm-97.318.73a27.374 27.374 0 0 0-.609-5.857 16.027 16.027 0 0 0-1.968-4.967 9.8 9.8 0 0 0-3.652-3.466 11.426 11.426 0 0 0-5.573-1.26 11.2 11.2 0 0 0-5.482 1.26 9.754 9.754 0 0 0-3.657 3.467 15.873 15.873 0 0 0-1.966 4.967 27.037 27.037 0 0 0-.611 5.857 26.324 26.324 0 0 0 .611 5.809 15.884 15.884 0 0 0 1.966 4.924 9.722 9.722 0 0 0 3.657 3.465 11.157 11.157 0 0 0 5.482 1.265 11.387 11.387 0 0 0 5.573-1.265 9.765 9.765 0 0 0 3.656-3.465 16.041 16.041 0 0 0 1.968-4.924 26.649 26.649 0 0 0 .605-5.809zm43.048-5.335c-1.3-6.5-3.783-10.378-10.645-10.378-10.361 0-11.145 9.4-11.145 10.378zm40.945-9.267c-2.256 1.969-6.95 2.065-11.08 2.817-4.134.841-7.884 3.168-7.884 8.053 0 4.974 3.849 6.195 8.167 6.195 10.414 0 10.8-8.261 10.8-11.17z"/><path class="beat_e" d="M55.978 21.471a8.666 8.666 0 0 0-8.016 4.74c-.042-.295-.09-.581-.15-.85a5.959 5.959 0 0 0-1.1-2.415 5.05 5.05 0 0 0-2.142-1.553 8.927 8.927 0 0 0-3.362-.549 6.631 6.631 0 0 0-5.523 3.143h-.11v-5.872c-.031-3.332-.678-3.963-4.87-3.963h-.321V15.6h-2.347v-3.38C28 8.887 27.359 8.256 23.16 8.256V15.6H20.2a.452.452 0 0 0-.45.451v3.529a.453.453 0 0 0 .45.453h2.96v15.644c.038 3.387.666 4.563 4.879 4.563V20.034h2.347v15.675c.04 3.378.666 4.553 4.874 4.553h.317v-9.91a6.977 6.977 0 0 1 .957-4.148A3.578 3.578 0 0 1 39.6 24.94a2.879 2.879 0 0 1 2.562 1.132 6.393 6.393 0 0 1 .765 3.511v4.857h.009v1.86c.033 3.332.678 3.959 4.87 3.959h.314v-4.29c1.346 2.435 3.848 4.269 7.857 4.269 5.964 0 7.66-3.822 8.352-5.967h-3.115a2.075 2.075 0 0 0-1.721.887 4.294 4.294 0 0 1-3.341 1.423c-4.244 0-4.3-3.362-4.386-4.517h12.875C65 26.9 62.273 21.471 55.978 21.471zm-4.212 7.492a3.867 3.867 0 0 1 4.078-3.8c2.511 0 3.42 1.42 3.9 3.8z"/></svg>
