<svg xmlns="http://www.w3.org/2000/svg" class="station-logo station-logo--inverted" viewBox="0 0 217 78" xmlns="http://www.w3.org/2000/svg"> <title>96,9 CKOI</title> <defs> <linearGradient id="ckoi-a" x1="50.155%" y1="0.377%" x2="50.155%" y2="103.803%"> <stop stop-color="#e42b31" offset="0%" /> <stop stop-color="#e12b31" offset="31%" /> <stop stop-color="#d92a2f" offset="49.5%" /> <stop stop-color="#cb282d" offset="64.7%" /> <stop stop-color="#b7262a" offset="78.1%" /> <stop stop-color="#9d2326" offset="90.2%" /> <stop stop-color="#9a2326" offset="91.4%" /> </linearGradient> <linearGradient id="ckoi-b" x1="49.856%" y1="0.497%" x2="49.856%" y2="103.911%"> <stop stop-color="#e42b31" offset="0%" /> <stop stop-color="#e12b31" offset="31%" /> <stop stop-color="#d92a2f" offset="49.5%" /> <stop stop-color="#cb282d" offset="64.7%" /> <stop stop-color="#b7262a" offset="78.1%" /> <stop stop-color="#9d2326" offset="90.2%" /> <stop stop-color="#9a2326" offset="91.4%" /> </linearGradient> <linearGradient id="ckoi-c" x1="50.497%" y1="-316.709%" x2="50.497%" y2="400.864%"> <stop stop-color="#e42b31" offset="0%" /> <stop stop-color="#e12b31" offset="31%" /> <stop stop-color="#d92a2f" offset="49.5%" /> <stop stop-color="#cb282d" offset="64.7%" /> <stop stop-color="#b7262a" offset="78.1%" /> <stop stop-color="#9d2326" offset="90.2%" /> <stop stop-color="#9a2326" offset="91.4%" /> </linearGradient> <linearGradient id="ckoi-d" x1="50.395%" y1="1.017%" x2="50.395%" y2="171.086%"> <stop stop-color="#e42b31" offset="0%" /> <stop stop-color="#e12b31" offset="31%" /> <stop stop-color="#d92a2f" offset="49.5%" /> <stop stop-color="#cb282d" offset="64.7%" /> <stop stop-color="#b7262a" offset="78.1%" /> <stop stop-color="#9d2326" offset="90.2%" /> <stop stop-color="#9a2326" offset="91.4%" /> </linearGradient> <linearGradient id="ckoi-e" x1="49.988%" y1="-2.296%" x2="49.988%" y2="109.349%"> <stop stop-color="#e42b31" offset="0%" /> <stop stop-color="#e22b31" offset="43.7%" /> <stop stop-color="#db2a30" offset="59.4%" /> <stop stop-color="#d0292e" offset="70.6%" /> <stop stop-color="#bf272b" offset="79.7%" /> <stop stop-color="#a92528" offset="87.4%" /> <stop stop-color="#9a2326" offset="91.4%" /> </linearGradient> <linearGradient id="ckoi-f" x1="49.986%" y1="-1.704%" x2="49.986%" y2="109.953%"> <stop stop-color="#e42b31" offset="0%" /> <stop stop-color="#e22b31" offset="43.7%" /> <stop stop-color="#db2a30" offset="59.4%" /> <stop stop-color="#d0292e" offset="70.6%" /> <stop stop-color="#bf272b" offset="79.7%" /> <stop stop-color="#a92528" offset="87.4%" /> <stop stop-color="#9a2326" offset="91.4%" /> </linearGradient> <linearGradient id="ckoi-g" x1="49.656%" y1="0.075%" x2="49.656%" y2="108.506%"> <stop stop-color="#e42b31" offset="0%" /> <stop stop-color="#e22b31" offset="43.7%" /> <stop stop-color="#db2a30" offset="59.4%" /> <stop stop-color="#d0292e" offset="70.6%" /> <stop stop-color="#bf272b" offset="79.7%" /> <stop stop-color="#a92528" offset="87.4%" /> <stop stop-color="#9a2326" offset="91.4%" /> </linearGradient> <linearGradient id="ckoi-h" x1="49.681%" y1="-1.71%" x2="49.681%" y2="109.947%"> <stop stop-color="#e42b31" offset="0%" /> <stop stop-color="#e12b31" offset="31.2%" /> <stop stop-color="#d92a2f" offset="49.6%" /> <stop stop-color="#cb282d" offset="64.8%" /> <stop stop-color="#b7262a" offset="78.1%" /> <stop stop-color="#9d2326" offset="90.1%" /> <stop stop-color="#9a2326" offset="91.4%" /> </linearGradient> </defs> <g fill="none" fill-rule="evenodd"> <path class="text" fill="url(/#ckoi-a)" fill-rule="nonzero" d="M 25 47.8 C 19.1 47.8 14.7 46.3 11.8 43.4 C 8.9 40.4 7.4 36.3 7.4 31 C 7.4 29.9 7.4 28.8 7.5 27.8 C 7.6 26.7 7.8 25.5 8 24.1 C 8.7 20.6 9.5 17.5 10.4 14.6 C 11.3 11.8 12.6 9.3 14.4 7.4 C 16.2 5.4 18.5 3.9 21.5 2.8 C 24.4 1.7 28.3 1.2 33.1 1.1 L 61.7 1 C 67 1 70.9 2.4 73.3 5.2 C 75.7 8 76.9 11.5 76.9 15.7 C 76.9 17.6 76.7 19.5 76.2 21.5 L 69 57 C 68.3 60.3 67.3 63.1 66.1 65.7 C 64.9 68.2 63.4 70.3 61.5 72 C 59.6 73.7 57.4 75 54.9 75.9 C 52.3 76.8 49.2 77.2 45.7 77.2 L 0.9 77.3 L 4.8 59.2 L 36.7 59.1 C 38.9 59.1 40.7 58.8 42.1 58.2 C 43.6 57.6 44.5 56.3 44.9 54.1 L 46.3 47.7 L 25 47.8 Z M 51.2 25.2 C 51.4 24.3 51.5 23.4 51.5 22.7 C 51.5 21.5 51.1 20.6 50.4 20 C 49.7 19.4 48.5 19.1 46.8 19.1 L 41.1 19.1 C 38.9 19.1 37.2 19.5 35.9 20.2 C 34.6 20.9 33.8 22.3 33.4 24.2 C 33.2 25.2 33.1 26 33.1 26.6 C 33.1 29.5 35 31 38.6 30.9 L 49.9 30.9 L 51.2 25.2 Z" /> <path class="text" fill="url(/#ckoi-b)" fill-rule="nonzero" d="M 126 30.4 C 131.9 30.4 136.3 31.9 139.2 34.8 C 142.1 37.8 143.5 41.9 143.5 47.1 C 143.5 49.3 143.3 51.6 142.9 54.1 C 142.2 57.6 141.5 60.7 140.6 63.6 C 139.7 66.4 138.4 68.9 136.6 70.8 C 134.8 72.8 132.5 74.3 129.5 75.4 C 126.5 76.5 122.6 77.1 117.8 77.1 L 89.2 77.2 C 83.9 77.2 80 75.9 77.6 73.4 C 75.1 70.8 73.9 67.4 73.9 63.1 C 73.9 61 74.1 58.9 74.7 56.8 L 82.3 21.2 C 83 17.9 83.9 15 85.1 12.5 C 86.3 10 87.8 7.9 89.7 6.2 C 91.5 4.5 93.7 3.2 96.3 2.3 C 98.9 1.4 101.9 1 105.5 1 L 150.3 0.9 L 146.5 19 L 114.6 19.1 C 112.4 19.1 110.6 19.4 109.2 20 C 107.8 20.6 106.8 22 106.3 24.1 L 104.9 30.5 L 126 30.4 Z M 99.9 52.9 C 99.7 53.9 99.6 54.8 99.6 55.4 C 99.6 56.7 100 57.6 100.7 58.2 C 101.5 58.7 102.7 59 104.3 59 L 110 59 C 112.2 59 113.9 58.6 115.2 57.9 C 116.5 57.2 117.3 55.8 117.7 53.8 C 117.9 52.7 118 51.8 118 51.2 C 118 48.4 116.2 47.1 112.6 47.1 L 101.3 47.1 L 99.9 52.9 Z" /> <polygon class="text" fill="url(/#ckoi-c)" points="151.2,47 153.5,36.1 165.5,36.1 163.2,47.1" /> <path class="text" fill="url(/#ckoi-d)" fill-rule="nonzero" d="M 185.4 29.1 C 181.8 29.1 179.2 28.2 177.4 26.4 C 175.6 24.6 174.7 22.1 174.7 18.9 C 174.7 18.2 174.7 17.6 174.8 17 C 174.8 16.4 175 15.6 175.1 14.8 C 175.5 12.7 176 10.8 176.6 9 C 177.1 7.3 178 5.8 179 4.6 C 180.1 3.4 181.5 2.5 183.3 1.8 C 185.1 1.1 187.4 0.8 190.3 0.8 L 207.7 0.8 C 210.9 0.8 213.3 1.6 214.7 3.3 C 216.2 5 216.9 7.1 216.9 9.7 C 216.9 10.8 216.8 12 216.5 13.2 L 211.9 34.8 C 211.5 36.8 210.9 38.5 210.2 40.1 C 209.5 41.6 208.5 42.9 207.4 43.9 C 206.3 44.9 204.9 45.7 203.4 46.3 C 201.8 46.8 200 47.1 197.8 47.1 L 170.6 47.2 L 173 36.2 L 192.4 36.2 C 193.7 36.2 194.8 36 195.7 35.7 C 196.6 35.3 197.2 34.5 197.4 33.2 L 198.2 29.3 L 185.4 29.1 Z M 201.3 15.4 C 201.4 14.8 201.5 14.3 201.5 13.9 C 201.5 13.2 201.3 12.6 200.9 12.3 C 200.5 11.9 199.7 11.8 198.7 11.8 L 195.3 11.8 C 194 11.8 192.9 12 192.1 12.5 C 191.3 12.9 190.8 13.8 190.6 14.9 C 190.5 15.5 190.4 16 190.4 16.4 C 190.4 18.2 191.5 19 193.8 19 L 200.7 19 L 201.3 15.4 Z" /> <path class="text" fill="url(/#ckoi-e)" d="M 150.3 77.2 C 148.1 77.2 146.5 76.7 145.4 75.7 C 144.4 74.7 143.9 73.2 143.9 71.3 C 143.9 70.8 143.9 70.3 144 69.8 C 144.1 69.3 144.1 68.7 144.2 68.1 C 144.5 66.6 144.8 65.4 145.3 64.4 C 145.7 63.4 146.3 62.6 147 62 C 147.7 61.4 148.6 61 149.6 60.7 C 150.6 60.4 151.9 60.3 153.4 60.3 L 160.6 60.3 L 159.7 64.5 L 155.3 64.5 C 154.4 64.5 153.6 64.5 153 64.6 C 152.4 64.7 151.9 64.9 151.5 65.1 C 151.1 65.4 150.8 65.8 150.5 66.3 C 150.2 66.8 150 67.5 149.8 68.5 C 149.7 68.9 149.7 69.3 149.6 69.7 C 149.6 70.1 149.5 70.4 149.5 70.7 C 149.5 71.2 149.6 71.5 149.7 71.8 C 149.8 72.1 150.1 72.3 150.4 72.5 C 150.7 72.7 151.1 72.8 151.6 72.8 C 152.1 72.9 152.7 72.9 153.4 72.9 L 158 72.9 L 157.1 77.1 L 150.3 77.2 Z" /> <path class="text" fill="url(/#ckoi-f)" fill-rule="nonzero" d="M 162.4 60.2 L 167.9 60.2 L 164.3 77.1 L 158.8 77.1 L 162.4 60.2 Z M 171.2 77.1 L 167.2 70.6 C 167 70.2 166.8 69.7 166.8 69.2 C 166.8 68.8 166.9 68.3 167 67.8 C 167.1 67.3 167.4 66.8 167.8 66.4 L 173.7 60.2 L 180.2 60.2 L 172.9 67.4 C 172.7 67.6 172.5 67.8 172.3 68.1 C 172.2 68.3 172.1 68.6 172.1 68.9 C 172.1 69 172.1 69.2 172.2 69.4 C 172.3 69.6 172.4 69.8 172.6 70 L 177.6 77.1 L 171.2 77.1 Z" /> <path class="text" fill="url(/#ckoi-g)" fill-rule="nonzero" d="M 189.3 60 C 190.7 60 191.9 60.1 193 60.3 C 194 60.5 194.9 60.9 195.5 61.4 C 196.2 61.9 196.6 62.5 197 63.3 C 197.3 64.1 197.5 65 197.5 66.1 L 197.5 67.5 C 197.5 67.7 197.5 68 197.4 68.2 C 197.4 68.5 197.3 68.8 197.3 69.1 C 197.1 70.3 196.8 71.4 196.6 72.3 C 196.3 73.2 196 73.9 195.5 74.5 C 195.1 75.1 194.6 75.6 194 76 C 193.4 76.4 192.8 76.6 192.1 76.8 C 191.4 77 190.5 77.1 189.6 77.2 C 188.7 77.3 187.7 77.3 186.5 77.3 C 185.1 77.3 183.9 77.2 182.8 77 C 181.8 76.8 180.9 76.4 180.3 75.9 C 179.6 75.4 179.1 74.8 178.8 74 C 178.5 73.2 178.3 72.3 178.3 71.2 C 178.3 70.7 178.3 70.2 178.4 69.8 C 178.4 69.3 178.5 68.8 178.6 68.1 C 178.8 66.9 179 65.8 179.3 64.9 C 179.6 64 180 63.3 180.4 62.7 C 180.8 62.1 181.3 61.6 181.9 61.2 C 182.5 60.8 183.1 60.6 183.8 60.3 C 184.5 60.1 185.4 60 186.3 59.9 C 187.1 60 188.2 60 189.3 60 Z M 184.2 68.4 C 184.1 68.8 184.1 69.2 184 69.6 C 183.9 70 183.9 70.4 183.9 70.6 C 183.9 71.5 184.2 72.1 184.7 72.4 C 185.2 72.8 186 73 186.9 73 C 187.6 73 188.2 72.9 188.7 72.8 C 189.2 72.7 189.6 72.4 190 72.1 C 190.4 71.8 190.7 71.3 190.9 70.8 C 191.1 70.3 191.3 69.6 191.5 68.8 C 191.6 68.4 191.6 68 191.7 67.6 C 191.7 67.2 191.8 66.8 191.8 66.6 C 191.8 65.7 191.5 65.1 191 64.7 C 190.5 64.3 189.7 64.1 188.8 64.1 C 188.1 64.1 187.5 64.2 186.9 64.3 C 186.4 64.4 185.9 64.7 185.6 65 C 185.2 65.3 185 65.8 184.7 66.3 C 184.5 67 184.3 67.6 184.2 68.4 Z" /> <polygon class="text" fill="url(/#ckoi-h)" points="197.3,77.1 200.9,60.2 206.4,60.2 202.8,77.1" /> </g> </svg>