<svg id="Layer_1" data-name="Layer 1" xmlns="http://www.w3.org/2000/svg" xmlns:xlink="http://www.w3.org/1999/xlink" viewBox="0 0 709.09 300">
  <defs>
    <style>
      .cls-1 {
        fill: #fff;
      }

      .cls-2 {
        fill: url(#linear-gradient);
      }
    </style>
    <linearGradient id="linear-gradient" x1="130.516" y1="155.494" x2="130.516" y2="14.556" gradientUnits="userSpaceOnUse">
      <stop offset="0.35" stop-color="#54be38"/>
      <stop offset="1" stop-color="#343898"/>
    </linearGradient>
  </defs>
  <title>Artwork 15</title>
  <g>
    <g>
      <path class="cls-1" d="M1.4,206.5L0,204.241c2.462-1.32,9.78-5.468,13.24-7.291H14.9v49.028H11.178V203.864c0-2.263.067-2.326-.333-2.137C9.315,202.419,3.061,205.624,1.4,206.5Z"/>
      <path class="cls-1" d="M57.676,196.321c13.772,0,17.5,14.52,17.5,24.828,0,9.868-3.061,25.457-17.565,25.457-14.238,0-17.3-15.337-17.3-25.457s3.593-24.828,17.3-24.828h0.067Zm0.2,46.954c11.31,0,13.439-13.577,13.439-22.125,0-7.354-2.063-21.5-13.506-21.5S44.3,213.858,44.3,221.149c0,8.548,2.2,22.125,13.506,22.125h0.067Z"/>
      <path class="cls-1" d="M121.335,230.829h7.585V234.1h-7.651v11.88h-3.726V234.1H92.46v-0.377c3.992-5.217,19.494-25.645,28.609-37.4h0.2v34.508h0.067Zm-3.526-24.954h-0.067c-2.595,3.771-16.766,22.439-18.563,24.828v0.126h18.429S117.609,211.093,117.809,205.876Z"/>
      <path class="cls-1" d="M142.95,240.572a3.051,3.051,0,1,1-.067,6.1,3.052,3.052,0,1,1,0-6.1h0.067Z"/>
      <path class="cls-1" d="M165.957,200.281h-0.266V196.95h31.6c0,0.629.067,0.252,0,.44-9.248,17.285-18.363,34.131-26.414,48.588h-4.125c8.317-15.462,16.234-29.605,24.883-45.7H165.957Z"/>
      <path class="cls-1" d="M235.134,200.219H217.3v19.548h17.032v3.206H217.3v23.005h-3.726V196.95h21.889v3.269h-0.332Z"/>
      <path class="cls-1" d="M256.15,196.447h0.333c19.095,37.273,19.361,37.965,21.091,41.61h0.067c1.464-3.457,2-4.463,21.623-41.61H299.6l2.794,27.531c1.863,18.606,2.2,21.434,2.262,21.874v0.126h-3.726v-0.126c-0.067-.44-0.333-3.269-2.262-21.874-1-9.24-1.264-12.634-1.4-16.719h-0.133c-2.395,5.342-5.19,10.434-8.516,16.657-2.662,5.029-6.254,11.754-11.111,20.806h-0.4c-4.657-9.051-8.184-15.777-10.778-20.806-3.194-6.223-6.254-12.005-8.05-16.783h-0.133c-0.266,4.149-.6,7.983-1.6,16.845-2.063,18.606-2.329,21.434-2.4,21.874v0.126h-3.593v-0.126c0.067-.44.332-3.269,2.462-21.874Z"/>
      <path class="cls-1" d="M355,216.5a4.876,4.876,0,1,1-.067,9.743,4.878,4.878,0,1,1,0-9.743H355Z"/>
      <path class="cls-1" d="M403.162,206.5l-1.4-2.263c2.462-1.32,9.78-5.468,13.24-7.291h1.663v49.028h-3.726V203.864c0-2.263.067-2.326-.333-2.137C411.08,202.419,404.826,205.624,403.162,206.5Z"/>
      <path class="cls-1" d="M459.441,196.321c13.772,0,17.5,14.52,17.5,24.828,0,9.868-3.061,25.457-17.565,25.457-14.238,0-17.3-15.337-17.3-25.457s3.593-24.828,17.3-24.828h0.067Zm0.2,46.954c11.311,0,13.439-13.577,13.439-22.125,0-7.354-2.063-21.5-13.506-21.5s-13.506,14.206-13.506,21.5c0,8.548,2.2,22.125,13.506,22.125h0.067Z"/>
      <path class="cls-1" d="M523.1,230.829h7.585V234.1h-7.651v11.88h-3.726V234.1H494.225v-0.377c3.992-5.217,19.494-25.645,28.609-37.4h0.2v34.508H523.1Zm-3.526-24.954h-0.067c-2.595,3.771-16.766,22.439-18.563,24.828v0.126h18.43S519.374,211.093,519.574,205.876Z"/>
      <path class="cls-1" d="M544.715,240.572a3.051,3.051,0,1,1-.067,6.1,3.052,3.052,0,1,1,0-6.1h0.067Z"/>
      <path class="cls-1" d="M573.71,218.824a32.036,32.036,0,0,0,7.452-.88,13.61,13.61,0,0,0,4.923-2.451,8.985,8.985,0,0,0,3.194-6.977,8.065,8.065,0,0,0-3.393-6.789,12.01,12.01,0,0,0-7.186-2.074,18.91,18.91,0,0,0-6.986,1.383,11.362,11.362,0,0,0-2.262,1.257h-0.133c0-1.131-.133-2.577-0.133-3.583a20.7,20.7,0,0,1,10.046-2.389,16.664,16.664,0,0,1,9.182,2.577,11.591,11.591,0,0,1,4.99,9.68,10.655,10.655,0,0,1-3.526,8.046,17.861,17.861,0,0,1-6.188,3.52v0.063a14.887,14.887,0,0,1,6.853,3.394,11.969,11.969,0,0,1,4.192,9.051,12.438,12.438,0,0,1-4.524,9.869,17.459,17.459,0,0,1-11.244,3.834,25.079,25.079,0,0,1-12.242-3.143c0.067-.754.133-2.011,0.266-3.709h0.2a24.805,24.805,0,0,0,2.2,1.32,19.387,19.387,0,0,0,9.381,2.263,13.586,13.586,0,0,0,8.782-3.269,9.472,9.472,0,0,0,3.061-7.229,10.207,10.207,0,0,0-3.326-7.166,14.074,14.074,0,0,0-5.988-2.954,33.609,33.609,0,0,0-7.585-.629v-3.017Z"/>
      <path class="cls-1" d="M639.571,200.219H621.74v19.548h17.032v3.206H621.74v23.005h-3.726V196.95H639.9v3.269h-0.333Z"/>
      <path class="cls-1" d="M660.587,196.447h0.332c19.095,37.273,19.361,37.965,21.091,41.61h0.067c1.464-3.457,2-4.463,21.623-41.61h0.332l2.795,27.531c1.863,18.606,2.2,21.434,2.262,21.874v0.126h-3.726v-0.126c-0.067-.44-0.333-3.269-2.262-21.874-1-9.24-1.264-12.634-1.4-16.719h-0.133c-2.4,5.342-5.19,10.434-8.516,16.657-2.661,5.029-6.254,11.754-11.111,20.806h-0.4c-4.657-9.051-8.184-15.777-10.778-20.806-3.194-6.223-6.254-12.005-8.05-16.783h-0.133c-0.266,4.149-.6,7.983-1.6,16.845-2.063,18.606-2.328,21.434-2.4,21.874v0.126H655v-0.126c0.067-.44.333-3.269,2.462-21.874Z"/>
    </g>
    <g>
      <path class="cls-1" d="M26.824,285.375v14.14h-3V284.669H5.958v14.846h-3V268h3v14.136h17.87V268h3v17.373Z"/>
      <path class="cls-1" d="M51.815,281.335V268h3.014v18.175c0,3.436.481,5.861,1.7,7.69a9.046,9.046,0,0,0,7.365,3.481c3.138,0,5.777-.853,7.566-3.108,1.465-1.869,2.136-4.632,2.136-8.5V268h2.91v17.959c0,4.419-.871,7.607-2.931,10.014-2.082,2.534-5.587,4-9.777,4-4.142,0-7.632-1.474-9.718-4.461-1.6-2.213-2.269-4.678-2.269-9.151v-5.031Z"/>
      <path class="cls-1" d="M103.649,267.688h0.3c12.013,22.928,12.333,23.6,13.468,25.962h0.047c0.983-2.244,1.455-3.093,13.8-25.962h0.3l1.9,17.687c1.267,11.959,1.495,13.781,1.538,14.059v0.081h-3.014v-0.081c-0.043-.278-0.233-2.14-1.421-13.386-0.595-5.459-.78-7.676-0.87-10.276H129.61c-1.5,3.328-3.186,6.385-5.2,10.121-1.641,3.069-3.922,7.26-7,12.858h-0.341c-2.975-5.611-5.223-9.806-6.83-12.88a111.45,111.45,0,0,1-4.918-10.176h-0.081c-0.166,2.645-.39,5.109-0.985,10.357-1.256,11.242-1.441,13.1-1.484,13.382v0.081h-2.9v-0.081c0.047-.283.237-2.1,1.666-14.059Z"/>
      <path class="cls-1" d="M177.183,290.523a8.3,8.3,0,0,1-4.819,7.574,15.466,15.466,0,0,1-7.309,1.4c-0.792,0-1.647-.04-2.411-0.081-0.432-.036-1-0.085-1.508-0.126V268.092c0.27-.009.805-0.054,1.193-0.058,1.011-.045,2.631-0.081,3.528-0.081a14.8,14.8,0,0,1,4.968.768,7.364,7.364,0,0,1,4.953,7.258,7.084,7.084,0,0,1-5.647,7.049v0.081c3.788,0.5,7.053,3.114,7.053,7.375v0.04Zm-4.522-14.43c0-3.744-3.012-5.555-6.526-5.555-0.766,0-1.645.04-2.069,0.081v11.361a7.66,7.66,0,0,0,1.012.04,11.362,11.362,0,0,0,3.2-.391,5.669,5.669,0,0,0,4.382-5.5v-0.04Zm1.36,14.464c0-2.952-2.04-4.8-4.467-5.6a13.894,13.894,0,0,0-3.767-.535c-0.414,0-1.26,0-1.721.04v12.345c0,0.04,0,.045.043,0.045a12.976,12.976,0,0,0,1.649.076,12.2,12.2,0,0,0,4.186-.7,6.161,6.161,0,0,0,4.077-5.631v-0.04Z"/>
      <path class="cls-1" d="M235.178,283.633c0,8.9-7.055,16.367-17.072,16.367-9.35,0-16.657-7.291-16.657-16.021,0-9.27,7.388-16.381,17.338-16.381,9.435,0,16.391,7.016,16.391,15.994v0.04Zm-3.243.162a13.622,13.622,0,0,0-27.243.045,13.591,13.591,0,0,0,13.657,13.581,13.355,13.355,0,0,0,13.586-13.585v-0.04Z"/>
      <path class="cls-1" d="M260.979,281.335V268h3v28.68c0,0.2.038,0.238,0.171,0.238h11.765v2.594H260.979v-18.18Z"/>
      <path class="cls-1" d="M325.327,283.189a15.579,15.579,0,0,1-5.7,12.692c-3.141,2.614-7.3,3.755-12.057,3.755-1.147,0-2.781-.04-3.769-0.081-0.936-.04-1.838-0.085-2.583-0.13V268.092c0.741-.045,1.734-0.13,2.863-0.175s2.344-.049,3.583-0.049a21.013,21.013,0,0,1,10.827,2.658,14.728,14.728,0,0,1,6.838,12.623v0.04Zm-3.143.094a12.514,12.514,0,0,0-5.489-10.419,16.608,16.608,0,0,0-9.007-2.385c-1.117,0-2.54.045-3.476,0.121v26.263a0.068,0.068,0,0,0,.085.081c0.832,0.081,2.355.121,3.453,0.121a15.346,15.346,0,0,0,9.809-3.159,13.266,13.266,0,0,0,4.625-10.583v-0.04Z"/>
      <path class="cls-1" d="M358.089,270.525H347.855V268h23.5v2.522H361.085v28.991h-3V270.525Z"/>
      <path class="cls-1" d="M452.747,270.937c-0.551-.157-1.217-0.31-1.9-0.431a24.733,24.733,0,0,0-4.18-.346c-9.071,0-14.848,5.125-14.848,13.554,0,8.113,6.268,13.612,14.45,13.612a24,24,0,0,0,4.406-.382,17.888,17.888,0,0,0,1.891-.548h0.047c0.043,0.861.062,1.931,0.1,2.657a23.09,23.09,0,0,1-2.923.633,31.423,31.423,0,0,1-3.948.279c-9.11,0-17.317-5.839-17.317-16.322,0-10.225,7.995-16.116,17.966-16.116a31.046,31.046,0,0,1,3.5.193c1.008,0.117,2.258.346,2.98,0.508-0.047.868-.052,2.169-0.1,2.71h-0.128Z"/>
      <path class="cls-1" d="M511.055,283.633c0,8.9-7.055,16.367-17.071,16.367-9.35,0-16.657-7.291-16.657-16.021,0-9.27,7.388-16.381,17.338-16.381,9.435,0,16.391,7.016,16.391,15.994v0.04Zm-3.243.162a13.621,13.621,0,0,0-27.243.045,13.591,13.591,0,0,0,13.657,13.581,13.355,13.355,0,0,0,13.586-13.585v-0.04Z"/>
      <path class="cls-1" d="M536.406,281.335V268h3.014v18.175c0,3.436.48,5.861,1.7,7.69a9.045,9.045,0,0,0,7.365,3.481c3.138,0,5.777-.853,7.566-3.108,1.465-1.869,2.136-4.632,2.136-8.5V268h2.91v17.959c0,4.419-.871,7.607-2.931,10.014-2.082,2.534-5.586,4-9.777,4-4.142,0-7.632-1.474-9.718-4.461-1.6-2.213-2.269-4.678-2.269-9.151v-5.031Z"/>
      <path class="cls-1" d="M613.435,299.919h-0.3c-8.876-10.215-13.905-16.1-16.923-19.606-1.843-2.115-3.006-3.381-4.933-5.89h-0.047c0.009,1.513.009,3.175,0.009,11.061v14.03h-2.783V267.54h0.3c9.175,10.642,14.328,16.672,17.308,20.118,1.658,1.949,2.9,3.358,4.506,5.423h0.085c0-1.557,0-2.913,0-11.833V268h2.783v31.917Z"/>
      <path class="cls-1" d="M648.106,270.525H637.872V268h23.5v2.522H651.1v28.991h-3V270.525Z"/>
      <path class="cls-1" d="M695.742,287.222v12.293h-3.034V287.3l-2.593-4.6c-7.214-12.8-7.9-14.319-8.006-14.62V268h3.408v0.081c0.1,0.291.978,2.141,4.809,9.128,1.321,2.434,2.876,5.232,3.955,7.248H694.4c1-2.052,2.434-4.757,3.841-7.267,3.659-6.968,4.585-8.867,4.641-9.109V268h3.242v0.085c-0.1.3-.783,1.736-7.968,14.8Z"/>
    </g>
    <g>
      <path class="cls-1" d="M4.324,75.14c0-61.207,0-69.318-3.046-72V1.286C6.49,1.32,13.6,1.354,25.241,1.354c8.315,0,16.63-.034,23.929-0.068V2.945c-2.809,2.3-2.843,10.831-2.843,55.6V70.886l0.485-.034L72.525,37.322c18.83-23.952,24.7-32.459,23.659-34.569V1.286c8.541,0.034,18.063.068,26.671,0.068,9.759,0,18.5-.034,27.6-0.068V2.753c-3.306,1.534-10.594,11.09-33.17,37.4L80.874,82.586l44.8,53.6c25.047,29.864,31.906,37.66,35.438,39.578v1.658c-9.534-.034-18.3-0.068-28.657-0.068-8.97,0-19.687.034-28.9,0.068V176.15c1.252-1.534-7.029-12.015-26.57-37.017l-30.2-38.461-0.451.034v18.221c0,46.076.034,54.347,3.147,57.032v1.466c-7.22-.034-15.7-0.068-23.963-0.068-8.507,0-21.808.034-24.369,0.068v-1.658c3.181-2.877,3.181-10.8,3.181-76.708V75.14Z"/>
      <path class="cls-1" d="M325.313,99.059c0,65.91,0,75.557,3.351,76.9v1.466c-2.9-.034-14.824-0.068-23.523-0.068-8.642,0-21.628.034-24.855,0.068v-1.466c3.216-1.343,3.216-10.989,3.216-61.894v-7.728H217.093v7.728c0,50.905,0,60.552,3.249,61.894v1.466c-3.193-.034-14.453-0.068-24.053-0.068-9.274,0-21.391.034-24.189,0.068v-1.466c3.182-1.343,3.182-10.989,3.182-76.9V75.14c0-61.4,0-71.044-3.046-72.387V1.286c2.764,0.034,14.283.068,24.2,0.068,10.425,0,20.906-.034,23.6-0.068V2.753c-2.944,1.343-2.944,11.022-2.944,61.465v6.634H283.5V64.185c0-50.443,0-60.09-2.81-61.432V1.286c2.73,0.034,15.581.068,24.7,0.068,8.823,0,19.879-.034,22.666-0.068V2.753c-2.741,1.343-2.741,10.989-2.741,72.387V99.059Z"/>
      <path class="cls-1" d="M348.007,75.14c0-61.4.034-71.044-2.843-72.387V1.286c2.877,0.034,12.478.068,24.121,0.068,10.605,0,20.748-.034,24.347-0.068V2.753c-2.91,1.343-2.91,10.989-2.91,72.387V95.426c0,15.231,1.4,25.125,5.505,32.154,5.291,8.98,16.145,13.911,28.138,13.911,11.26,0,20.929-4.829,26.547-13.3,4.682-7.153,6.081-17.318,6.081-32.763V75.14c0-61.207.034-71.044-3.147-72.387V1.286c3.712,0.034,13.64.068,24.031,0.068,10.7,0,20.3-.034,23.118-0.068V2.753c-2.64,1.343-2.674,11.18-2.674,72.387V95.154c0,23.862-2.73,38.224-9.59,50.962-8.642,17.589-31.748,34.592-63.733,34.592-33.678,0-58.454-14.126-69.5-37.536-5.991-12.23-7.491-25.994-7.491-47.363V75.14Z"/>
      <path class="cls-1" d="M533.14,0H538.6c51.684,80.635,59.943,95.019,67.005,109.111h0.418C613.052,95.437,621.345,81.244,674.123,0h5.652l14.408,99.059c9.5,65.91,11.271,75.749,13.764,76.9v1.466c-2.956-.034-12.433-0.068-23.163-0.068-10.029,0-21.21.034-24.832,0.068v-1.466c2.685-1.151.948-12.918-2.978-41.936-1.23-9.116-2.81-22.937-3.52-36.182h-0.225a299.872,299.872,0,0,1-15.976,30.293c-5.438,9.33-15.964,26.1-29.909,46.9h-5.618c-14.622-21.549-25.34-38.608-30.97-48.062a315.267,315.267,0,0,1-15.367-29.323h-0.225c-0.677,13.663-2.223,27.157-3.418,36.6-3.441,28.758-4.92,40.368-2.268,41.71v1.466c-3.8-.034-15.558-0.068-24.347-0.068-9.477,0-18.537.034-21.549,0.068v-1.5c2.82-1.343,4.694-10.955,14.577-76.866Z"/>
      <polygon id="_Path_" data-name="&lt;Path&gt;" class="cls-2" points="159.854 155.494 101.177 83.517 159.854 14.556 159.854 155.494"/>
    </g>
  </g>
</svg>
