<svg xmlns="http://www.w3.org/2000/svg" viewBox="-16801 -19819 117.992 30.949">
  <defs>
    <style>
      .cls-1 {
        fill: #000;
      }

      .cls-2 {
        fill: #00abe5;
      }
    </style>
  </defs>
  <g id="FRLogo" transform="translate(-16801 -19819)">
    <path id="Path_13" data-name="Path 13" class="cls-1" d="M11.734,23.122H23.757V14.577H11.734V9.119H23.757V0H0V30.015H11.734Z"/>
    <path id="Path_14" data-name="Path 14" class="cls-2" d="M60.613,18.024C62.7,17.234,66.8,15.8,66.8,9.766a10.278,10.278,0,0,0-2.376-6.678A10.15,10.15,0,0,0,57.878.144C56.726,0,53.918,0,53.918,0H40.6V9.119H52.55v5.457H40.6V30.015h27Z" transform="translate(-11.372)"/>
    <path id="Path_15" data-name="Path 15" class="cls-1" d="M92.655.2V2.929h-7.2V5.8h6.623V8.53H85.456v5.6H82V.2Z" transform="translate(-22.968 -0.056)"/>
    <path id="Path_16" data-name="Path 16" class="cls-1" d="M98.332,8.031a2.866,2.866,0,0,1,1.08-2.3A5.484,5.484,0,0,1,102.8,4.8c1.3,0,4.319.287,4.319,2.944V13.7c0,1.077.072,1.293.288,1.58h-2.952V14.35a4.933,4.933,0,0,1-3.168,1.221,3.148,3.148,0,0,1-3.384-3.16,3.285,3.285,0,0,1,2.16-2.944,25.771,25.771,0,0,1,4.031-.933V8.1c-.072-.5-.072-1.293-1.152-1.293-1.368,0-1.512.862-1.584,1.221H98.332Zm3.887,3.088c-.5.215-1.3.5-1.3,1.293a1.121,1.121,0,0,0,1.152,1.077,2.146,2.146,0,0,0,1.08-.359c1.008-.646,1.08-1.58,1.08-2.657Z" transform="translate(-27.421 -1.353)"/>
    <path id="Path_17" data-name="Path 17" class="cls-1" d="M116.7,6.264A3.515,3.515,0,0,1,119.647,4.9a3.4,3.4,0,0,1,2.88,1.221A4.246,4.246,0,0,1,125.55,4.9a2.951,2.951,0,0,1,2.88,1.508,5.433,5.433,0,0,1,.288,2.37v6.678h-3.024V10.07a6.16,6.16,0,0,0-.144-1.723,1.344,1.344,0,0,0-1.3-.933,1.8,1.8,0,0,0-1.008.287c-.576.431-.576,1.077-.576,2.154v5.6h-3.024v-6.1a2.468,2.468,0,0,0-.288-1.436,1.568,1.568,0,0,0-1.152-.5,2.173,2.173,0,0,0-.864.215,2.283,2.283,0,0,0-.72,2.011v5.816H113.6V5.187h3.024V6.264Z" transform="translate(-31.819 -1.381)"/>
    <path id="Path_18" data-name="Path 18" class="cls-1" d="M137.1.2h3.024V2.57H137.1Zm0,3.59h3.024V14.059H137.1Z" transform="translate(-38.401 -0.056)"/>
    <rect id="Rectangle_4" data-name="Rectangle 4" class="cls-1" width="3.024" height="13.859" transform="translate(103.666 0.144)"/>
    <path id="Path_19" data-name="Path 19" class="cls-1" d="M160.119,5.3l-3.6,11.13a5.071,5.071,0,0,1-.936,1.867,2.434,2.434,0,0,1-2.16.79h-2.16v-2.37h1.08c.5,0,1.3,0,1.3-.718a2.12,2.12,0,0,0-.144-.718l-3.1-9.909h3.24l1.728,7.324L157.1,5.372h3.024Z" transform="translate(-42.127 -1.494)"/>
    <path id="Path_20" data-name="Path 20" class="cls-1" d="M82,23.3h6.263c1.44,0,3.24.072,4.535,1.436a4.578,4.578,0,0,1,1.08,3.088A3.712,3.712,0,0,1,91,31.63l3.24,5.529H90.423L87.687,32.2h-2.16v4.955H82Zm3.456,2.585v3.734h2.88a1.844,1.844,0,0,0,2.088-1.939c0-1.8-1.3-1.8-2.016-1.867H85.456Z" transform="translate(-22.968 -6.569)"/>
    <path id="Path_21" data-name="Path 21" class="cls-1" d="M100.332,31.131a2.866,2.866,0,0,1,1.08-2.3A5.484,5.484,0,0,1,104.8,27.9c1.3,0,4.319.287,4.319,2.944V36.8c0,1.077.072,1.293.288,1.58h-2.952V37.45a4.933,4.933,0,0,1-3.168,1.221A3.148,3.148,0,0,1,99.9,35.512a3.285,3.285,0,0,1,2.16-2.944,25.771,25.771,0,0,1,4.031-.933V31.06c-.072-.5-.072-1.293-1.152-1.293-1.368,0-1.512.862-1.584,1.221h-3.024Zm3.887,3.088c-.5.215-1.3.5-1.3,1.293a1.121,1.121,0,0,0,1.152,1.077,2.146,2.146,0,0,0,1.08-.359c1.008-.646,1.08-1.58,1.08-2.657Z" transform="translate(-27.982 -7.866)"/>
    <path id="Path_22" data-name="Path 22" class="cls-1" d="M124.835,23.3V37.159H122.1v-.933a3.679,3.679,0,0,1-2.808,1.221,4.089,4.089,0,0,1-2.88-1.149,5.66,5.66,0,0,1-1.512-4.165c0-3.878,2.232-5.457,4.247-5.457a4.214,4.214,0,0,1,2.736,1.077v-4.38h2.952Zm-2.88,8.76a4.083,4.083,0,0,0-.648-2.513,1.723,1.723,0,0,0-1.152-.574c-2.16,0-2.16,2.729-2.16,3.16,0,1.436.36,3.16,1.944,3.16A2.348,2.348,0,0,0,120.947,35c1.008-.79,1.008-2.37,1.008-2.944" transform="translate(-32.183 -6.569)"/>
    <path id="Path_23" data-name="Path 23" class="cls-1" d="M131.2,23.3h3.024v2.37H131.2Zm0,3.59h3.024V37.159H131.2Z" transform="translate(-36.749 -6.569)"/>
    <path id="Path_24" data-name="Path 24" class="cls-1" d="M148.587,33.352a5.165,5.165,0,0,1-5.543,5.457c-2.88,0-5.543-1.652-5.543-5.457,0-3.16,2.016-5.673,5.9-5.457a5.176,5.176,0,0,1,5.183,5.457M141.1,31.27a3.8,3.8,0,0,0-.5,2.011c0,1.652.792,3.088,2.52,3.088,1.656,0,2.448-1.293,2.448-2.944a3.505,3.505,0,0,0-.864-2.585,2.508,2.508,0,0,0-1.8-.574,2.121,2.121,0,0,0-1.8,1.005" transform="translate(-38.513 -7.861)"/>
  </g>
</svg>
