<svg id="Layer_1" data-name="Layer 1" xmlns="http://www.w3.org/2000/svg" viewBox="0 0 474.5 78.08"><defs><style>.cls-1,.cls-2{fill:#fff;}.cls-1{fill-rule:evenodd;}.cls-3{fill:#f78f1e;}.cls-4{fill:#231f20;}</style></defs><title>99.1 Downtown Radio banner web black</title><polygon points="0 0 474.5 0 474.5 76 0 76 0 0 0 0"/><path class="cls-1" d="M604.26,334.21l-.55,1.46c-.11.29,0,.47.28.47h11.76a.56.56,0,0,0,.49-.24l2.15-2a.74.74,0,0,0,.27-.53l3.46-34.8A.86.86,0,0,0,622,298L620.2,296a.45.45,0,0,0-.44-.23H608a.37.37,0,0,0-.39.47l.28,1.4-3.63,36.62Zm12.86-33.46-3,30.3h-4.73l3-30.3Z" transform="translate(-388.37 -277.5)"/><path class="cls-1" d="M627.37,295.59a.75.75,0,0,0-.55.24l-2.09,2.05a.55.55,0,0,0-.27.52L621,333.2a.61.61,0,0,0,.17.53l1.7,2a.61.61,0,0,0,.5.23h8.95a.61.61,0,0,0,.5-.23l2.14-2a.69.69,0,0,0,.28-.53l3.46-34.8a.83.83,0,0,0-.17-.52l-1.76-2.05a.4.4,0,0,0-.43-.23Zm3.3,35.39h-4.73l3-30.3h4.72l-3,30.3Z" transform="translate(-388.37 -277.5)"/><path class="cls-2" d="M664.24,296c.11-.29.06-.46-.22-.46H659c-.27,0-.43.17-.32.46l.16.94-4.4,21.88v-21.7l.39-1.12c.11-.29.05-.46-.22-.46H649.4c-.27,0-.44.17-.33.46l.22,1.12-4.4,21.7V296.94l.33-.94c.11-.29.06-.46-.22-.46h-5.07c-.28,0-.44.17-.33.46l.55,2.75.6,35.39-.55,1.4c-.11.3,0,.47.28.47h5c.33,0,.44-.17.38-.47l-.11-.46,4.51-22.35v22.35l-.16.46c-.11.3,0,.47.27.47h5.06c.27,0,.38-.17.33-.47l-.33-1.4,7.69-35.39,1.1-2.75Z" transform="translate(-388.37 -277.5)"/><path class="cls-2" d="M668.53,314l2.58,21.7c0,.24.11.35.33.35H676c.27,0,.38-.17.33-.47l-.33-1.4,3.63-36.62.6-1.46c.11-.29.06-.46-.22-.46h-5c-.28,0-.44.17-.33.46l.27,1.46-2,20.13L670.34,296c-.06-.24-.11-.35-.33-.36h-4.56c-.28,0-.44.17-.33.46l.27,1.46-3.62,36.62-.55,1.4c-.17.3-.06.47.22.47h5c.28,0,.39-.17.33-.47l-.33-1.4,2-20.18Z" transform="translate(-388.37 -277.5)"/><path class="cls-2" d="M682.7,295.6a.43.43,0,0,0-.49.4l-.93,4.27c-.06.24.05.41.27.41H686l-3.3,33.46-.55,1.4c-.17.3-.06.47.22.47h5c.28,0,.39-.17.33-.47l-.33-1.4,3.3-33.46H695a.36.36,0,0,0,.39-.41V296c-.11-.29-.17-.4-.44-.4Z" transform="translate(-388.37 -277.5)"/><path class="cls-1" d="M699.85,295.6a.74.74,0,0,0-.55.23l-2.09,2.05a.55.55,0,0,0-.27.52l-3.47,34.8a.6.6,0,0,0,.17.53l1.7,2a.61.61,0,0,0,.5.23h8.95a.61.61,0,0,0,.5-.23l2.14-2a.69.69,0,0,0,.28-.53l3.46-34.8a.83.83,0,0,0-.17-.52l-1.76-2.05a.42.42,0,0,0-.43-.23Zm3.3,35.38h-4.73l3-30.3h4.72l-3,30.3Z" transform="translate(-388.37 -277.5)"/><path class="cls-2" d="M736.72,296c.11-.29.06-.46-.22-.46h-5.06c-.27,0-.43.17-.32.46l.16.94-4.4,21.88v-21.7l.39-1.12c.11-.29.05-.46-.22-.46h-5.17c-.27,0-.44.17-.33.46l.22,1.12-4.4,21.7V296.94l.33-.94c.11-.29.06-.46-.22-.46h-5.07c-.28,0-.44.17-.33.46l.55,2.75.6,35.39-.55,1.4c-.11.3,0,.47.28.47h5c.33,0,.44-.17.38-.47l-.11-.46,4.51-22.35v22.35l-.16.46c-.11.3,0,.47.27.47h5.06c.27,0,.38-.17.33-.47l-.33-1.4,7.69-35.39,1.1-2.75Z" transform="translate(-388.37 -277.5)"/><path class="cls-2" d="M741,314l2.58,21.7c0,.24.11.35.33.35h4.56c.27,0,.38-.17.33-.47l-.33-1.4,3.63-36.61.6-1.47c.11-.29.06-.46-.22-.46h-5c-.28,0-.44.17-.33.46l.27,1.46-2,20.13L742.82,296c-.06-.24-.11-.35-.33-.35h-4.56c-.28,0-.44.17-.33.46l.27,1.46-3.62,36.62-.55,1.4c-.17.3-.06.47.22.47H739c.28,0,.39-.17.33-.47l-.33-1.4L741,314Z" transform="translate(-388.37 -277.5)"/><path class="cls-1" d="M778.93,300.22h4.79l-1.21,12.64h-4.79l1.21-12.64Zm-3.3,33.46,1.6-15.79h2.36L781,347l-.5,1.17c-.16.29,0,.47.28.47h5c.28,0,.39-.18.33-.47l-.38-2.11-1.36-28.15,2.36-2.29a.94.94,0,0,0,.27-.52l1.71-17.14a.88.88,0,0,0-.17-.53l-1.76-2a.44.44,0,0,0-.44-.24H774.59c-.28,0-.44.18-.33.47l.27,1.46-3.62,36.62-.55,1.4c-.17.29-.06.47.22.47h5c.28,0,.39-.18.33-.47l-.33-1.4Z" transform="translate(-388.37 -277.5)"/><path class="cls-1" d="M800.68,295.6c.11-.29.05-.47-.22-.47h-5.07c-.28,0-.44.18-.33.47l.16.94-7.86,36.32-.88,2.22c-.16.29-.05.47.23.47h5c.27,0,.39-.18.33-.47l-.22-1.17,1.37-7.13,3.14-2v9.12l-.55,1.17c-.17.29-.06.47.27.47h5c.27,0,.38-.18.33-.47l-.44-2.22-.72-36.32.39-.94Zm-4.19,14v9.83l-2.09,1.28,2.09-11.11Z" transform="translate(-388.37 -277.5)"/><path class="cls-1" d="M802.25,333.62l-.55,1.46c-.11.29,0,.47.28.47h11.76a.58.58,0,0,0,.49-.23l2.14-2.05a.7.7,0,0,0,.28-.53l3.46-34.8a.88.88,0,0,0-.17-.53l-1.75-2a.44.44,0,0,0-.44-.24H806a.37.37,0,0,0-.39.47l.28,1.4-3.63,36.62Zm12.86-33.46-3,30.3h-4.73l3-30.3Z" transform="translate(-388.37 -277.5)"/><path class="cls-2" d="M827.69,297.06l.61-1.46c.11-.29.05-.47-.22-.47H823a.32.32,0,0,0-.33.47l.28,1.46-3.63,36.62-.55,1.4c-.16.29,0,.47.22.47h5.06c.27,0,.38-.18.33-.47l-.33-1.4,3.62-36.62Z" transform="translate(-388.37 -277.5)"/><path class="cls-1" d="M832.8,295.13a.75.75,0,0,0-.55.24l-2.08,2a.59.59,0,0,0-.28.53l-3.46,34.8a.63.63,0,0,0,.16.53l1.71,2.05a.58.58,0,0,0,.49.23h9a.58.58,0,0,0,.49-.23l2.15-2.05a.73.73,0,0,0,.27-.53l3.46-34.8a.88.88,0,0,0-.16-.53l-1.76-2a.44.44,0,0,0-.44-.24Zm3.3,35.39h-4.72l3-30.3h4.73l-3,30.3Z" transform="translate(-388.37 -277.5)"/><polygon class="cls-2" points="366.09 78.08 371.99 34.82 373.61 36.84 381.94 0.16 376.66 43.68 374.13 41.48 366.09 78.08 366.09 78.08"/><polygon class="cls-3" points="153.5 21.56 153.5 66.46 182 66.05 182 21.34 153.5 21.56 153.5 21.56"/><path class="cls-4" d="M553.22,316.6v-6.07h-6.38v-4.92h19.67v11.78H562v-6.86h-4.31v6.07Zm4.8,11.78,8.55,7.53v1.73H546.84V332.7h8.77l-4.39-4v-.54l4.39-4h-8.77V319.2h19.73V321l-8.55,7.4Z" transform="translate(-388.37 -277.5)"/><path class="cls-4" d="M553.22,316.6h4.49v-6.07H562v6.86h4.49V305.61H546.84v4.92h6.38v6.07Z" transform="translate(-388.37 -277.5)"/><path class="cls-4" d="M558,328.38l8.55-7.4V319.2H546.84v4.94h8.77l-4.39,4v.54l4.39,4h-8.77v4.94h19.73v-1.73L558,328.38Z" transform="translate(-388.37 -277.5)"/><polygon class="cls-2" points="124.47 19.09 124.47 57.2 115.07 57.2 115.07 71.79 148.82 71.79 148.82 57.2 139.34 57.2 139.34 4.59 116.35 4.59 116.35 19.09 124.47 19.09 124.47 19.09"/><path class="cls-2" d="M493.93,348.74a6.88,6.88,0,0,0,6.94-7.25c0-4.46-3.12-7.4-6.94-7.4-4,0-7.09,2.94-7.09,7.4a6.91,6.91,0,0,0,7.09,7.25Z" transform="translate(-388.37 -277.5)"/><path class="cls-1" d="M429.34,295.46c5.22,0,7.52,3.07,7.52,8.35,0,5.47-2.3,8.45-7.52,8.45-5,0-7.52-3-7.52-8.45,0-5.28,2.48-8.35,7.52-8.35Zm2.4,54.14,17.43-32.54c2.39-3.94,3.16-8.64,3.16-13.25,0-15.84-9.91-23-23-23s-22.72,7.2-22.72,23c0,14.21,8.2,22.56,20.84,21.5L414.73,349.6Z" transform="translate(-388.37 -277.5)"/><path class="cls-1" d="M476.84,295.08c5.22,0,7.52,3.08,7.52,8.35,0,5.48-2.3,8.45-7.52,8.45-5,0-7.52-3-7.52-8.45,0-5.27,2.48-8.35,7.52-8.35Zm2.4,54.15,17.43-32.55c2.39-3.93,3.16-8.64,3.16-13.25,0-15.83-9.91-23-23-23s-22.72,7.2-22.72,23c0,14.21,8.2,22.56,20.84,21.51l-12.73,24.29Z" transform="translate(-388.37 -277.5)"/></svg>