<?xml version="1.0" encoding="UTF-8" standalone="no"?>
<!-- Created with Inkscape (http://www.inkscape.org/) -->

<svg
   xmlns:dc="http://purl.org/dc/elements/1.1/"
   xmlns:cc="http://creativecommons.org/ns#"
   xmlns:rdf="http://www.w3.org/1999/02/22-rdf-syntax-ns#"
   xmlns:svg="http://www.w3.org/2000/svg"
   xmlns="http://www.w3.org/2000/svg"
   xmlns:sodipodi="http://sodipodi.sourceforge.net/DTD/sodipodi-0.dtd"
   xmlns:inkscape="http://www.inkscape.org/namespaces/inkscape"
   width="1000"
   height="485.76004"
   id="svg3560"
   version="1.1"
   inkscape:version="0.48.2 r9819"
   sodipodi:docname="Cr Dvojka.svg">
  <defs
     id="defs3562" />
  <sodipodi:namedview
     id="base"
     pagecolor="#ffffff"
     bordercolor="#666666"
     borderopacity="1.0"
     inkscape:pageopacity="0.0"
     inkscape:pageshadow="2"
     inkscape:zoom="0.35"
     inkscape:cx="105.56488"
     inkscape:cy="84.210973"
     inkscape:document-units="px"
     inkscape:current-layer="layer1"
     showgrid="false"
     fit-margin-left="0.5"
     fit-margin-top="0.5"
     fit-margin-bottom="0.5"
     fit-margin-right="0.5"
     inkscape:window-width="1920"
     inkscape:window-height="1028"
     inkscape:window-x="-8"
     inkscape:window-y="-8"
     inkscape:window-maximized="1" />
  <metadata
     id="metadata3565">
    <rdf:RDF>
      <cc:Work
         rdf:about="">
        <dc:format>image/svg+xml</dc:format>
        <dc:type
           rdf:resource="http://purl.org/dc/dcmitype/StillImage" />
        <dc:title></dc:title>
      </cc:Work>
    </rdf:RDF>
  </metadata>
  <g
     inkscape:label="Layer 1"
     inkscape:groupmode="layer"
     id="layer1"
     transform="translate(-269.43512,-130.81311)">
    <g
       id="g3683"
       transform="matrix(9.8077109,0,0,9.8077109,-2377.5104,-5426.1942)">
      <g
         id="g3165"
         transform="matrix(1.25,0,0,-1.25,269.93511,594.63048)">
        <path
           inkscape:connector-curvature="0"
           d="M 0,0 19.067,0 22,-4.769 0,-4.769 0,0 z m 0,7.451 0,-4.735 17.396,0 -2.913,4.735 -14.483,0 z m 18.662,2.716 -18.662,0 0,4.744 19.913,0 c 0.009,-0.186 0.014,-0.374 0.012,-0.566 -0.016,-1.765 -0.439,-3.126 -1.263,-4.178 m -9.087,12.22 -9.575,0 0,-4.761 19.317,0 c -1.396,3.253 -5.071,4.761 -9.742,4.761"
           style="fill:#09c9d7;fill-opacity:1;fill-rule:nonzero;stroke:none"
           id="path3167" />
      </g>
      <g
         id="g3169"
         transform="matrix(1.25,0,0,-1.25,310.35124,606.54498)">
        <path
           inkscape:connector-curvature="0"
           d="m 0,0 -1.413,0 -0.759,0.959 1.111,0 0.367,-0.556 0.351,0.556 1.128,0 L 0,0 z m 28.268,-4.118 c 0,-0.633 -0.215,-1.332 -0.963,-1.332 -0.732,0 -0.963,0.674 -0.963,1.291 0,0.633 0.248,1.258 0.979,1.258 0.716,0 0.947,-0.608 0.947,-1.217 m 1.242,-0.049 c 0,1.275 -0.823,2.237 -2.131,2.237 -1.382,0 -2.278,-0.897 -2.278,-2.279 0,-1.308 0.831,-2.229 2.163,-2.229 1.324,0 2.246,0.955 2.246,2.271 m -4.606,1.077 0,1.102 c -0.074,0.009 -0.14,0.017 -0.215,0.017 -0.575,0 -0.896,-0.247 -1.101,-0.781 l 0,0.699 -1.185,0 0,-4.261 1.242,0 0,1.39 c 0,0.214 0,0.436 0.009,0.65 0.016,0.691 0.115,1.209 0.962,1.209 0.099,0 0.189,-0.008 0.288,-0.025 m -9.246,-3.224 -1.759,2.649 1.644,1.612 -1.571,0 -1.316,-1.456 0,3.002 -1.209,0 0,-5.807 1.209,0 0,1.415 0.395,0.395 1.069,-1.81 1.538,0 z m -4.835,1.307 c 0,1.07 -1.054,1.26 -1.876,1.432 -0.222,0.049 -0.724,0.107 -0.724,0.411 0,0.305 0.362,0.346 0.592,0.346 0.231,0 0.493,-0.083 0.642,-0.272 0.066,-0.082 0.09,-0.246 0.107,-0.345 l 1.135,0.058 c -0.049,1.044 -0.93,1.447 -1.867,1.447 -0.864,0 -1.777,-0.345 -1.777,-1.349 0,-1.702 2.533,-1.086 2.533,-1.851 0,-0.337 -0.345,-0.394 -0.608,-0.394 -0.543,0 -0.831,0.156 -0.905,0.707 L 6.923,-4.858 c 0,-0.14 0.008,-0.255 0.041,-0.395 0.214,-0.881 1.119,-1.185 1.934,-1.185 0.929,0 1.925,0.33 1.925,1.431 m -5.528,1.391 -1.703,0 c 0.132,0.485 0.395,0.732 0.913,0.732 0.436,0 0.749,-0.304 0.79,-0.732 m 1.275,-0.922 0,0.206 c 0,1.316 -0.675,2.402 -2.098,2.402 -1.308,0 -2.155,-0.979 -2.155,-2.254 0,-1.308 0.806,-2.254 2.155,-2.254 0.938,0 1.744,0.445 2.048,1.357 L 5.303,-4.998 C 5.122,-5.319 4.884,-5.45 4.505,-5.45 c -0.559,0 -0.847,0.386 -0.921,0.912 l 2.986,0 z m -4.516,0.165 -1.357,0.09 c -0.008,-0.658 -0.625,-1.069 -1.242,-1.069 -0.329,0 -0.642,0.107 -0.897,0.313 -0.493,0.412 -0.592,1.061 -0.592,1.662 0,0.962 0.387,1.916 1.489,1.916 0.452,0 0.855,-0.173 1.085,-0.584 0.05,-0.099 0.099,-0.198 0.124,-0.304 l 1.308,0.09 c -0.016,0.14 -0.058,0.264 -0.099,0.395 -0.345,1.028 -1.373,1.497 -2.402,1.497 -1.817,0 -2.912,-1.242 -2.912,-3.019 0,-1.217 0.576,-2.41 1.753,-2.87 0.361,-0.14 0.756,-0.189 1.143,-0.189 0.946,0 1.826,0.345 2.311,1.192 0.157,0.272 0.255,0.576 0.288,0.88 m 41.398,-0.558 c -0.205,-0.354 -0.592,-0.552 -0.995,-0.552 -0.28,0 -0.568,0.133 -0.568,0.454 0,0.551 0.881,0.559 1.267,0.658 0.099,0.024 0.197,0.057 0.296,0.098 l 0,-0.658 z m 1.202,0.987 c 0,0.346 0.016,0.84 -0.116,1.16 -0.313,0.741 -1.111,0.857 -1.817,0.857 -0.963,0 -1.762,-0.412 -1.82,-1.474 l 1.12,0 c -0.016,0.42 0.411,0.535 0.749,0.535 0.255,0 0.65,-0.065 0.65,-0.395 0,-0.304 -0.445,-0.321 -0.659,-0.353 -0.921,-0.132 -2.098,-0.239 -2.098,-1.449 0,-0.863 0.658,-1.374 1.482,-1.374 0.608,0 0.872,0.181 1.341,0.511 l 0.008,-0.387 1.161,0 -10e-4,2.369 z m 4.5,-1.067 c 0,1.07 -1.052,1.259 -1.875,1.431 -0.222,0.05 -0.724,0.107 -0.724,0.412 0,0.304 0.362,0.345 0.592,0.345 0.231,0 0.494,-0.082 0.642,-0.271 0.065,-0.082 0.09,-0.247 0.107,-0.346 l 1.135,0.058 c -0.05,1.045 -0.929,1.448 -1.867,1.448 -0.864,0 -1.777,-0.346 -1.777,-1.349 0,-1.703 2.533,-1.086 2.533,-1.851 0,-0.337 -0.344,-0.395 -0.609,-0.395 -0.542,0 -0.831,0.156 -0.904,0.707 l -1.152,-0.04 c 0,-0.14 0.008,-0.256 0.041,-0.395 0.214,-0.881 1.119,-1.185 1.933,-1.185 0.93,0 1.925,0.329 1.925,1.431 m -9.122,-1.308 -1.209,0 0,5.807 1.209,0 0,-5.807 z m -3.257,0 0,2.386 c 0,0.271 0.017,0.6 -0.205,0.798 -0.116,0.107 -0.272,0.148 -0.428,0.148 -0.181,0 -0.329,-0.05 -0.469,-0.165 -0.289,-0.239 -0.271,-0.641 -0.271,-0.978 l 0,-2.189 -1.201,0 0,5.808 1.201,0 0,-1.983 c 0.188,0.338 0.797,0.535 1.159,0.535 0.281,0 0.617,-0.074 0.847,-0.239 0.494,-0.353 0.576,-0.83 0.576,-1.398 l 0,-2.723 -1.209,0 z m -6.967,0 0,0.906 2.106,2.351 -1.867,0 0,1.004 3.372,0 0,-0.979 -2.04,-2.278 2.18,0 0,-1.004 -3.751,0 z m -10.683,6.059 -1.451,0 -0.59,-1.228 0.941,0 1.1,1.228 z m 0.509,-1.793 -1.283,0 -0.707,-2.871 -0.774,2.871 -1.316,0 1.234,-3.455 c 0.066,-0.189 0.173,-0.403 0.173,-0.609 0,-0.139 -0.066,-0.345 -0.181,-0.436 -0.116,-0.09 -0.371,-0.107 -0.511,-0.107 -0.106,0 -0.213,0.008 -0.32,0.008 l 0,-0.954 c 0.107,0 0.214,-0.016 0.32,-0.016 0.527,0 1.193,-0.033 1.555,0.419 0.173,0.222 0.313,0.65 0.403,0.921 l 1.407,4.229 z"
           style="fill:#09c9d7;fill-opacity:1;fill-rule:nonzero;stroke:none"
           id="path3171" />
      </g>
      <g
         id="g3173"
         transform="matrix(1.25,0,0,-1.25,318.29949,585.31735)">
        <path
           inkscape:connector-curvature="0"
           d="M 0,0 -2.956,0 -5.515,-8.869 -8.109,0 -11.1,0 l 4.288,-12.206 2.542,0 L 0,0 z m 3.492,0 -2.542,0 0,-12.206 2.542,0 0,12.206 z m 6.553,-12.189 0,1.971 c -0.225,-0.017 -0.467,-0.035 -0.692,-0.035 -0.812,0 -0.968,0.277 -0.968,1.038 l 0,4.028 1.574,0 0,1.937 -1.574,0 0,2.645 -2.541,0 0,-2.645 -1.28,0 0,-1.937 1.28,0 0,-3.873 c 0,-0.155 -0.018,-0.294 -0.018,-0.449 0,-1.867 0.467,-2.801 2.473,-2.801 0.588,0 1.158,0.052 1.746,0.121 m 18.361,8.939 -2.697,0 -1.487,-5.55 -1.642,5.55 -2.715,0 3.095,-8.956 2.438,0 3.008,8.956 z m 8.492,-8.953 -2.44,-0.001 -0.017,0.813 c -0.986,-0.691 -1.539,-1.072 -2.819,-1.072 -1.729,0 -3.113,1.072 -3.113,2.888 0,2.543 2.473,2.768 4.41,3.044 0.45,0.069 1.384,0.104 1.384,0.744 0,0.692 -0.83,0.83 -1.367,0.83 -0.709,0 -1.608,-0.242 -1.573,-1.124 l -2.352,0 c 0.121,2.231 1.798,3.096 3.822,3.096 1.487,0 3.165,-0.242 3.822,-1.799 0.277,-0.674 0.242,-1.712 0.242,-2.439 l 0.001,-4.98 z m -2.526,4.289 c -0.208,-0.087 -0.415,-0.156 -0.623,-0.208 -0.813,-0.207 -2.663,-0.225 -2.663,-1.384 0,-0.674 0.605,-0.951 1.193,-0.951 0.848,0 1.661,0.415 2.093,1.159 l 0,1.384 z m -15.078,0.691 c 0,0.727 0.035,1.765 -0.242,2.439 -0.657,1.557 -2.334,1.799 -3.822,1.799 -2.023,0 -3.701,-0.865 -3.822,-3.096 l 2.352,0 c -0.034,0.882 0.865,1.124 1.574,1.124 0.536,0 1.366,-0.138 1.366,-0.83 0,-0.64 -0.934,-0.675 -1.383,-0.744 -1.937,-0.276 -4.411,-0.501 -4.411,-3.044 0,-1.816 1.384,-2.888 3.114,-2.888 1.279,0 1.833,0.381 2.819,1.072 l 0.017,-0.813 2.44,0.001 -0.002,4.98 z m -2.525,-2.075 c -0.432,-0.744 -1.245,-1.159 -2.092,-1.159 -0.588,0 -1.194,0.277 -1.194,0.951 0,1.159 1.851,1.177 2.664,1.384 0.207,0.052 0.415,0.121 0.622,0.208 l 0,-1.384 z"
           style="fill:#09c9d7;fill-opacity:1;fill-rule:nonzero;stroke:none"
           id="path3175" />
      </g>
    </g>
  </g>
</svg>
