<?xml version="1.0" encoding="UTF-8" standalone="no"?>
<!-- Created with Inkscape (http://www.inkscape.org/) -->

<svg
   xmlns:dc="http://purl.org/dc/elements/1.1/"
   xmlns:cc="http://creativecommons.org/ns#"
   xmlns:rdf="http://www.w3.org/1999/02/22-rdf-syntax-ns#"
   xmlns:svg="http://www.w3.org/2000/svg"
   xmlns="http://www.w3.org/2000/svg"
   xmlns:sodipodi="http://sodipodi.sourceforge.net/DTD/sodipodi-0.dtd"
   xmlns:inkscape="http://www.inkscape.org/namespaces/inkscape"
   width="1000"
   height="485.76004"
   id="svg3560"
   version="1.1"
   inkscape:version="0.48.2 r9819"
   sodipodi:docname="Cr Radiozurnal.svg">
  <defs
     id="defs3562" />
  <sodipodi:namedview
     id="base"
     pagecolor="#ffffff"
     bordercolor="#666666"
     borderopacity="1.0"
     inkscape:pageopacity="0.0"
     inkscape:pageshadow="2"
     inkscape:zoom="0.35"
     inkscape:cx="356.99271"
     inkscape:cy="153.28348"
     inkscape:document-units="px"
     inkscape:current-layer="layer1"
     showgrid="false"
     fit-margin-left="0.5"
     fit-margin-top="0.5"
     fit-margin-bottom="0.5"
     fit-margin-right="0.5"
     inkscape:window-width="1920"
     inkscape:window-height="1028"
     inkscape:window-x="-8"
     inkscape:window-y="-8"
     inkscape:window-maximized="1" />
  <metadata
     id="metadata3565">
    <rdf:RDF>
      <cc:Work
         rdf:about="">
        <dc:format>image/svg+xml</dc:format>
        <dc:type
           rdf:resource="http://purl.org/dc/dcmitype/StillImage" />
        <dc:title></dc:title>
      </cc:Work>
    </rdf:RDF>
  </metadata>
  <g
     inkscape:label="Layer 1"
     inkscape:groupmode="layer"
     id="layer1"
     transform="translate(-18.007282,-199.88561)">
    <g
       id="g3642"
       transform="matrix(9.8077109,0,0,9.8077109,-163.00676,-6034.5653)">
      <g
         id="g3153"
         transform="matrix(1.25,0,0,-1.25,18.507279,663.70303)">
        <path
           inkscape:connector-curvature="0"
           d="M 0,0 19.067,0 22,-4.769 0,-4.769 0,0 z m 0,7.451 0,-4.735 17.396,0 -2.913,4.735 -14.483,0 z m 18.662,2.716 -18.662,0 0,4.744 19.913,0 c 0.009,-0.186 0.014,-0.374 0.012,-0.566 -0.016,-1.765 -0.439,-3.126 -1.263,-4.178 m -9.087,12.22 -9.575,0 0,-4.761 19.317,0 c -1.396,3.253 -5.071,4.761 -9.742,4.761"
           style="fill:#9b68af;fill-opacity:1;fill-rule:nonzero;stroke:none"
           id="path3155" />
      </g>
      <g
         id="g3157"
         transform="matrix(1.25,0,0,-1.25,58.923409,675.61753)">
        <path
           inkscape:connector-curvature="0"
           d="m 0,0 -1.413,0 -0.759,0.959 1.111,0 0.367,-0.556 0.351,0.556 1.128,0 L 0,0 z m 28.268,-4.118 c 0,-0.633 -0.215,-1.332 -0.963,-1.332 -0.732,0 -0.963,0.674 -0.963,1.291 0,0.633 0.248,1.258 0.979,1.258 0.716,0 0.947,-0.608 0.947,-1.217 m 1.242,-0.049 c 0,1.275 -0.823,2.237 -2.131,2.237 -1.382,0 -2.278,-0.897 -2.278,-2.279 0,-1.308 0.831,-2.229 2.163,-2.229 1.324,0 2.246,0.955 2.246,2.271 m -4.606,1.077 0,1.102 c -0.074,0.009 -0.14,0.017 -0.215,0.017 -0.575,0 -0.896,-0.247 -1.101,-0.782 l 0,0.7 -1.185,0 0,-4.261 1.242,0 0,1.39 c 0,0.214 0,0.436 0.009,0.65 0.016,0.691 0.115,1.209 0.962,1.209 0.099,0 0.189,-0.008 0.288,-0.025 m -9.246,-3.224 -1.759,2.649 1.644,1.612 -1.571,0 -1.316,-1.456 0,3.002 -1.209,0 0,-5.807 1.209,0 0,1.415 0.395,0.395 1.069,-1.81 1.538,0 z m -4.835,1.307 c 0,1.07 -1.054,1.26 -1.876,1.432 -0.222,0.049 -0.724,0.107 -0.724,0.411 0,0.305 0.362,0.346 0.592,0.346 0.231,0 0.493,-0.083 0.642,-0.272 0.066,-0.082 0.09,-0.246 0.107,-0.345 l 1.135,0.058 c -0.049,1.044 -0.93,1.447 -1.867,1.447 -0.864,0 -1.777,-0.345 -1.777,-1.349 0,-1.702 2.533,-1.086 2.533,-1.851 0,-0.337 -0.345,-0.394 -0.608,-0.394 -0.543,0 -0.831,0.156 -0.905,0.707 L 6.923,-4.858 c 0,-0.14 0.008,-0.255 0.041,-0.395 0.214,-0.881 1.119,-1.185 1.934,-1.185 0.929,0 1.925,0.33 1.925,1.431 m -5.528,1.391 -1.703,0 c 0.132,0.485 0.395,0.732 0.913,0.732 0.436,0 0.749,-0.304 0.79,-0.732 m 1.275,-0.922 0,0.206 c 0,1.316 -0.675,2.402 -2.098,2.402 -1.308,0 -2.155,-0.979 -2.155,-2.254 0,-1.308 0.806,-2.254 2.155,-2.254 0.938,0 1.744,0.445 2.048,1.357 L 5.303,-4.998 C 5.122,-5.319 4.884,-5.45 4.505,-5.45 c -0.559,0 -0.847,0.386 -0.921,0.912 l 2.986,0 z m -4.516,0.165 -1.357,0.09 c -0.008,-0.658 -0.625,-1.069 -1.242,-1.069 -0.329,0 -0.642,0.107 -0.897,0.313 -0.493,0.412 -0.592,1.061 -0.592,1.662 0,0.962 0.387,1.916 1.489,1.916 0.452,0 0.855,-0.173 1.085,-0.584 0.05,-0.099 0.099,-0.198 0.124,-0.304 l 1.308,0.09 c -0.016,0.14 -0.058,0.264 -0.099,0.395 -0.345,1.028 -1.373,1.497 -2.402,1.497 -1.817,0 -2.912,-1.242 -2.912,-3.019 0,-1.217 0.576,-2.41 1.753,-2.871 0.361,-0.139 0.756,-0.188 1.143,-0.188 0.946,0 1.826,0.345 2.311,1.192 0.157,0.272 0.255,0.576 0.288,0.88 m 41.398,-0.558 c -0.205,-0.354 -0.592,-0.552 -0.995,-0.552 -0.28,0 -0.568,0.133 -0.568,0.454 0,0.551 0.881,0.559 1.267,0.658 0.099,0.024 0.197,0.057 0.296,0.098 l 0,-0.658 z m 1.202,0.987 c 0,0.346 0.016,0.84 -0.116,1.16 -0.313,0.741 -1.111,0.857 -1.817,0.857 -0.963,0 -1.762,-0.412 -1.82,-1.474 l 1.12,0 c -0.016,0.42 0.411,0.535 0.749,0.535 0.255,0 0.65,-0.065 0.65,-0.395 0,-0.304 -0.445,-0.321 -0.659,-0.353 -0.921,-0.132 -2.098,-0.239 -2.098,-1.449 0,-0.863 0.658,-1.374 1.482,-1.374 0.608,0 0.872,0.181 1.341,0.511 l 0.008,-0.387 1.161,0 -10e-4,2.369 z m 4.5,-1.067 c 0,1.07 -1.052,1.259 -1.875,1.431 -0.222,0.05 -0.724,0.107 -0.724,0.412 0,0.304 0.362,0.345 0.592,0.345 0.231,0 0.494,-0.082 0.642,-0.271 0.065,-0.082 0.09,-0.247 0.107,-0.346 l 1.135,0.058 c -0.05,1.045 -0.929,1.448 -1.867,1.448 -0.864,0 -1.777,-0.346 -1.777,-1.349 0,-1.703 2.533,-1.086 2.533,-1.851 0,-0.337 -0.344,-0.395 -0.609,-0.395 -0.542,0 -0.831,0.156 -0.904,0.707 l -1.152,-0.04 c 0,-0.14 0.008,-0.256 0.041,-0.395 0.214,-0.881 1.119,-1.185 1.933,-1.185 0.93,0 1.925,0.329 1.925,1.431 m -9.122,-1.308 -1.209,0 0,5.807 1.209,0 0,-5.807 z m -3.257,0 0,2.386 c 0,0.271 0.017,0.6 -0.205,0.798 -0.116,0.107 -0.272,0.148 -0.428,0.148 -0.181,0 -0.329,-0.05 -0.469,-0.165 -0.289,-0.239 -0.271,-0.641 -0.271,-0.978 l 0,-2.189 -1.201,0 0,5.808 1.201,0 0,-1.983 c 0.188,0.338 0.797,0.535 1.159,0.535 0.281,0 0.617,-0.074 0.847,-0.239 0.494,-0.353 0.576,-0.83 0.576,-1.398 l 0,-2.723 -1.209,0 z m -6.967,0 0,0.906 2.106,2.351 -1.867,0 0,1.004 3.372,0 0,-0.979 -2.04,-2.278 2.18,0 0,-1.004 -3.751,0 z m -10.683,6.059 -1.451,0 -0.59,-1.228 0.941,0 1.1,1.228 z m 0.509,-1.793 -1.283,0 -0.707,-2.871 -0.774,2.871 -1.316,0 1.234,-3.455 c 0.066,-0.189 0.173,-0.403 0.173,-0.609 0,-0.14 -0.066,-0.345 -0.181,-0.436 -0.116,-0.09 -0.371,-0.107 -0.511,-0.107 -0.106,0 -0.213,0.008 -0.32,0.008 l 0,-0.954 c 0.107,0 0.214,-0.016 0.32,-0.016 0.527,0 1.193,-0.033 1.555,0.419 0.173,0.222 0.313,0.65 0.403,0.921 l 1.407,4.229 z"
           style="fill:#9b68af;fill-opacity:1;fill-rule:nonzero;stroke:none"
           id="path3159" />
      </g>
      <g
         id="g3161"
         transform="matrix(1.25,0,0,-1.25,119.93941,663.40728)">
        <path
           inkscape:connector-curvature="0"
           d="m 0,0 c 0,0.73 0.035,1.773 -0.243,2.451 -0.661,1.564 -2.347,1.808 -3.842,1.808 -2.033,0 -3.72,-0.87 -3.841,-3.112 l 2.364,0 c -0.035,0.887 0.869,1.13 1.582,1.13 0.538,0 1.373,-0.139 1.373,-0.834 0,-0.643 -0.939,-0.678 -1.391,-0.748 -1.947,-0.278 -4.432,-0.504 -4.432,-3.059 0,-1.825 1.39,-2.903 3.128,-2.903 1.287,0 1.843,0.383 2.834,1.078 l 0.017,-0.817 2.452,0 L 0,0 z m -2.538,-2.086 c -0.434,-0.747 -1.251,-1.164 -2.103,-1.164 -0.591,0 -1.199,0.278 -1.199,0.956 0,1.164 1.86,1.182 2.676,1.39 0.209,0.052 0.418,0.122 0.626,0.209 l 0,-1.391 z m -45.244,9.3 c 1.454,0 2.891,-0.121 4.103,-1.021 1.61,-1.195 2.216,-3.186 2.216,-5.108 0,-2.32 -1.004,-4.709 -3.255,-5.644 -1.004,-0.415 -2.095,-0.45 -3.168,-0.45 l -3.93,0 0,12.223 4.034,0 z m -1.298,-9.955 0.813,0 c 1.905,0 3.878,0.087 3.878,3.947 0,1.16 -0.277,2.736 -1.419,3.342 -0.71,0.381 -1.732,0.381 -2.528,0.381 l -0.744,0 0,-7.67 z m 13.746,-2.268 -2.441,0 -3.099,8.968 2.718,0 1.644,-5.557 1.489,5.557 2.701,0 -3.012,-8.968 z m 7.687,-0.259 c -2.805,0 -4.554,1.939 -4.554,4.691 0,2.909 1.888,4.796 4.796,4.796 2.753,0 4.484,-2.026 4.484,-4.709 0,-2.77 -1.939,-4.778 -4.726,-4.778 m 0.121,7.444 c -1.541,0 -2.06,-1.316 -2.06,-2.649 0,-1.298 0.484,-2.718 2.025,-2.718 1.576,0 2.026,1.472 2.026,2.805 0,1.281 -0.485,2.562 -1.991,2.562 m 5.955,5.038 2.528,0 0,-2.268 -2.528,0 0,2.268 z m 2.528,-3.255 0,-9.245 c 0,-2.077 -1.16,-2.579 -3.012,-2.579 l -1.039,0 0,2.146 0.086,0 c 0.728,0 1.437,0.018 1.437,0.953 l 0,8.725 2.528,0 z m 10.37,0 -3.462,-3.393 3.705,-5.575 -3.238,0 -2.25,3.809 -0.831,-0.831 0,-2.978 -2.545,0 0,12.223 2.545,0 0,-6.319 2.77,3.064 3.306,0 z"
           style="fill:#9b68af;fill-opacity:1;fill-rule:nonzero;stroke:none"
           id="path3163" />
      </g>
    </g>
  </g>
</svg>
