<?xml version="1.0" encoding="UTF-8" standalone="no"?>
<!-- Created with Inkscape (http://www.inkscape.org/) -->

<svg
   xmlns:dc="http://purl.org/dc/elements/1.1/"
   xmlns:cc="http://creativecommons.org/ns#"
   xmlns:rdf="http://www.w3.org/1999/02/22-rdf-syntax-ns#"
   xmlns:svg="http://www.w3.org/2000/svg"
   xmlns="http://www.w3.org/2000/svg"
   xmlns:sodipodi="http://sodipodi.sourceforge.net/DTD/sodipodi-0.dtd"
   xmlns:inkscape="http://www.inkscape.org/namespaces/inkscape"
   width="1000"
   height="326.80164"
   id="svg3560"
   version="1.1"
   inkscape:version="0.48.2 r9819"
   sodipodi:docname="New document 3">
  <defs
     id="defs3562" />
  <sodipodi:namedview
     id="base"
     pagecolor="#ffffff"
     bordercolor="#666666"
     borderopacity="1.0"
     inkscape:pageopacity="0.0"
     inkscape:pageshadow="2"
     inkscape:zoom="0.35"
     inkscape:cx="479.84912"
     inkscape:cy="313.78461"
     inkscape:document-units="px"
     inkscape:current-layer="layer1"
     showgrid="false"
     fit-margin-left="0.5"
     fit-margin-top="0.5"
     fit-margin-bottom="0.5"
     fit-margin-right="0.5"
     inkscape:window-width="1920"
     inkscape:window-height="1028"
     inkscape:window-x="-8"
     inkscape:window-y="-8"
     inkscape:window-maximized="1" />
  <metadata
     id="metadata3565">
    <rdf:RDF>
      <cc:Work
         rdf:about="">
        <dc:format>image/svg+xml</dc:format>
        <dc:type
           rdf:resource="http://purl.org/dc/dcmitype/StillImage" />
        <dc:title></dc:title>
      </cc:Work>
    </rdf:RDF>
  </metadata>
  <g
     inkscape:label="Layer 1"
     inkscape:groupmode="layer"
     id="layer1"
     transform="translate(104.84912,-519.34514)">
    <g
       id="g3601"
       transform="matrix(6.5916498,0,0,6.5916498,583.48374,-4728.5609)">
      <g
         id="g3187"
         transform="matrix(1.25,0,0,-1.25,-31.247489,830.17302)">
        <path
           inkscape:connector-curvature="0"
           d="m 0,0 0,12.207 -2.576,0 0,-3.838 c -0.623,0.518 -1.332,0.812 -2.144,0.812 -2.715,0 -3.943,-2.351 -3.943,-4.789 0,-2.283 1.28,-4.617 3.822,-4.617 0.916,0 1.85,0.277 2.368,1.09 L -2.473,0 0,0 z m -2.49,4.426 c 0,-1.175 -0.311,-2.541 -1.746,-2.541 -1.47,0 -1.833,1.4 -1.833,2.628 0,1.124 0.432,2.576 1.798,2.576 1.487,0 1.781,-1.452 1.781,-2.663 m -7.605,0.555 c 0,0.727 0.035,1.765 -0.242,2.439 -0.657,1.557 -2.335,1.799 -3.823,1.799 -2.023,0 -3.701,-0.865 -3.822,-3.096 l 2.352,0 c -0.034,0.882 0.865,1.124 1.574,1.124 0.536,0 1.367,-0.138 1.367,-0.83 0,-0.64 -0.934,-0.675 -1.384,-0.744 -1.937,-0.277 -4.411,-0.501 -4.411,-3.044 0,-1.816 1.384,-2.888 3.114,-2.888 1.28,0 1.833,0.38 2.819,1.072 L -12.534,0 l 2.44,0.001 -0.001,4.98 z M -12.62,2.906 c -0.433,-0.744 -1.246,-1.159 -2.093,-1.159 -0.588,0 -1.193,0.277 -1.193,0.951 0,1.159 1.85,1.176 2.663,1.384 0.208,0.052 0.415,0.121 0.623,0.208 l 0,-1.384 z m 14.52,9.301 2.524,0 0,-2.3 -2.524,0 0,2.3 z m 0,-3.25 2.524,0 0,-8.957 -2.524,0 0,8.957 z m 8.369,-9.216 c -2.801,0 -4.547,1.936 -4.547,4.685 0,2.905 1.884,4.79 4.789,4.79 2.749,0 4.478,-2.023 4.478,-4.703 0,-2.767 -1.936,-4.772 -4.72,-4.772 m 0.121,7.435 c -1.539,0 -2.058,-1.314 -2.058,-2.646 0,-1.297 0.485,-2.714 2.023,-2.714 1.574,0 2.023,1.469 2.023,2.801 0,1.279 -0.484,2.559 -1.988,2.559 M 30.43,0 l 0,0.986 c -0.502,-0.813 -1.626,-1.211 -2.542,-1.211 -0.536,0 -1.107,0.087 -1.591,0.363 -1.331,0.744 -1.4,2.231 -1.4,3.597 l 0,5.222 2.541,0 0,-5.136 c 0,-0.985 0.191,-1.936 1.401,-1.936 1.279,0 1.504,1.02 1.504,2.057 0,0.398 0.035,0.778 0.035,1.176 l 0,3.839 2.472,0 0,-8.957 -2.42,0 z m 8.835,6.83 C 37.484,6.83 37.277,5.74 37.242,4.288 37.225,3.839 37.225,3.372 37.225,2.922 l 0,-2.922 -2.611,0 0,8.957 2.49,0 0,-1.47 c 0.432,1.124 1.106,1.642 2.317,1.642 0.155,0 0.294,-0.017 0.449,-0.034 l 0,-2.317 C 39.663,6.813 39.473,6.83 39.265,6.83 M 46.216,0 l 0,5.274 c 0,0.864 -0.329,1.711 -1.332,1.711 -0.38,0 -0.743,-0.155 -1.02,-0.415 C 43.259,5.983 43.345,5.101 43.345,4.323 l 0,-4.323 -2.559,0 0,8.957 2.49,0 0,-1.038 c 0.623,0.795 1.435,1.245 2.473,1.245 0.674,0 1.349,-0.173 1.885,-0.588 1.02,-0.778 1.193,-1.867 1.193,-3.078 l 0,-5.498 -2.611,0 z m 14.005,12.207 2.542,0 0,-12.207 -2.542,0 0,12.207 z m -37.687,0.385 -1.953,0 -0.881,-1.307 -0.847,1.307 -1.918,0 1.63,-2.413 2.2,0 1.769,2.413 z M 23.588,0 l 0,2.108 -4.579,0 4.286,4.788 0,2.056 -7.086,0 0,-2.108 3.923,0 -4.424,-4.943 0,-1.901 7.88,0 z M 58.414,0.005 55.976,0.004 55.959,0.816 c -0.985,-0.691 -1.537,-1.071 -2.816,-1.071 -1.728,0 -3.11,1.071 -3.11,2.885 0,2.54 2.471,2.765 4.406,3.041 0.449,0.069 1.382,0.104 1.382,0.743 0,0.691 -0.829,0.83 -1.365,0.83 -0.708,0 -1.607,-0.242 -1.572,-1.124 l -2.35,0 c 0.121,2.229 1.797,3.093 3.818,3.093 1.486,0 3.162,-0.242 3.819,-1.797 0.276,-0.674 0.242,-1.71 0.242,-2.436 L 58.414,0.005 z M 55.89,4.289 C 55.683,4.203 55.475,4.133 55.268,4.082 54.456,3.874 52.607,3.857 52.607,2.699 c 0,-0.673 0.605,-0.95 1.193,-0.95 0.846,0 1.658,0.415 2.09,1.158 l 0,1.382 z m 1.725,8.317 -2.851,0 -1.16,-2.412 1.849,0 2.162,2.412 z m -78.06,-6.872 c 0.554,0.71 0.762,1.645 0.762,2.528 0,0.606 -0.121,1.315 -0.381,1.869 -0.883,1.835 -2.527,2.095 -4.379,2.095 l -4.709,0 0,-12.221 2.77,0 0,4.224 1.748,0 c 0.032,0 0.064,0 0.096,0 l 2.547,-4.224 3.067,0 -2.809,4.657 c 0.466,0.223 0.897,0.559 1.288,1.072 m -1.99,2.51 c 0,-0.692 -0.329,-1.281 -0.97,-1.575 -0.415,-0.19 -1.056,-0.19 -1.506,-0.19 -0.484,0 -0.986,0.017 -1.471,0.017 l 0,3.497 1.333,0 c 0.796,0 1.696,0.034 2.25,-0.658 0.242,-0.312 0.364,-0.692 0.364,-1.091"
           style="fill:#f95b4f;fill-opacity:1;fill-rule:nonzero;stroke:none"
           id="path3189" />
      </g>
      <g
         id="g3191"
         transform="matrix(1.25,0,0,-1.25,-104.34912,824.20415)">
        <path
           inkscape:connector-curvature="0"
           d="M 0,0 19.067,0 22,-4.769 0,-4.769 0,0 z m 0,7.451 0,-4.735 17.396,0 -2.913,4.735 -14.483,0 z m 18.662,2.716 -18.662,0 0,4.744 19.913,0 c 0.009,-0.186 0.014,-0.374 0.012,-0.566 -0.016,-1.765 -0.439,-3.126 -1.263,-4.178 m -9.087,12.22 -9.575,0 0,-4.761 19.317,0 c -1.396,3.253 -5.071,4.761 -9.742,4.761"
           style="fill:#f95b4f;fill-opacity:1;fill-rule:nonzero;stroke:none"
           id="path3193" />
      </g>
      <g
         id="g3195"
         transform="matrix(1.25,0,0,-1.25,-63.932989,836.11865)">
        <path
           inkscape:connector-curvature="0"
           d="m 0,0 -1.413,0 -0.759,0.959 1.111,0 0.367,-0.556 0.351,0.556 1.128,0 L 0,0 z m 28.268,-4.118 c 0,-0.633 -0.215,-1.332 -0.963,-1.332 -0.732,0 -0.963,0.674 -0.963,1.291 0,0.633 0.248,1.258 0.979,1.258 0.716,0 0.947,-0.608 0.947,-1.217 m 1.242,-0.049 c 0,1.275 -0.823,2.237 -2.13,2.237 -1.383,0 -2.279,-0.897 -2.279,-2.279 0,-1.308 0.831,-2.229 2.163,-2.229 1.324,0 2.246,0.955 2.246,2.271 m -4.606,1.077 0,1.102 c -0.074,0.009 -0.14,0.017 -0.215,0.017 -0.575,0 -0.896,-0.247 -1.101,-0.782 l 0,0.7 -1.185,0 0,-4.261 1.242,0 0,1.39 c 0,0.214 0,0.436 0.009,0.65 0.016,0.691 0.115,1.209 0.962,1.209 0.099,0 0.189,-0.008 0.288,-0.025 m -9.246,-3.224 -1.759,2.649 1.644,1.612 -1.571,0 -1.316,-1.456 0,3.002 -1.209,0 0,-5.807 1.209,0 0,1.415 0.395,0.395 1.069,-1.81 1.538,0 z m -4.835,1.307 c 0,1.07 -1.054,1.26 -1.876,1.432 -0.222,0.049 -0.724,0.107 -0.724,0.411 0,0.305 0.362,0.346 0.592,0.346 0.231,0 0.493,-0.083 0.642,-0.272 0.066,-0.082 0.09,-0.246 0.107,-0.345 l 1.135,0.057 c -0.049,1.045 -0.93,1.448 -1.867,1.448 -0.864,0 -1.777,-0.345 -1.777,-1.349 0,-1.703 2.533,-1.086 2.533,-1.851 0,-0.337 -0.345,-0.394 -0.608,-0.394 -0.543,0 -0.831,0.156 -0.905,0.707 L 6.923,-4.858 c 0,-0.14 0.008,-0.255 0.041,-0.395 0.214,-0.881 1.119,-1.185 1.934,-1.185 0.929,0 1.925,0.33 1.925,1.431 m -5.528,1.391 -1.703,0 c 0.132,0.485 0.395,0.732 0.913,0.732 0.436,0 0.749,-0.304 0.79,-0.732 m 1.275,-0.922 0,0.206 c 0,1.316 -0.675,2.402 -2.098,2.402 -1.308,0 -2.155,-0.979 -2.155,-2.254 0,-1.308 0.806,-2.254 2.155,-2.254 0.938,0 1.744,0.445 2.048,1.357 L 5.303,-4.998 C 5.122,-5.319 4.884,-5.45 4.505,-5.45 c -0.559,0 -0.847,0.386 -0.921,0.912 l 2.986,0 z m -4.516,0.165 -1.357,0.09 c -0.008,-0.658 -0.625,-1.069 -1.242,-1.069 -0.329,0 -0.642,0.107 -0.897,0.313 -0.493,0.412 -0.592,1.061 -0.592,1.661 0,0.963 0.387,1.917 1.489,1.917 0.452,0 0.855,-0.173 1.085,-0.584 0.05,-0.099 0.099,-0.198 0.124,-0.304 l 1.308,0.09 c -0.016,0.14 -0.058,0.264 -0.099,0.395 -0.345,1.028 -1.373,1.497 -2.402,1.497 -1.817,0 -2.912,-1.242 -2.912,-3.019 0,-1.217 0.576,-2.41 1.753,-2.871 0.361,-0.139 0.756,-0.188 1.143,-0.188 0.946,0 1.826,0.345 2.311,1.192 0.157,0.271 0.255,0.576 0.288,0.88 m 41.398,-0.558 c -0.205,-0.354 -0.592,-0.552 -0.995,-0.552 -0.28,0 -0.568,0.133 -0.568,0.454 0,0.551 0.881,0.559 1.267,0.658 0.099,0.024 0.197,0.057 0.296,0.098 l 0,-0.658 z m 1.202,0.987 c 0,0.346 0.016,0.84 -0.116,1.16 -0.313,0.741 -1.111,0.857 -1.817,0.857 -0.963,0 -1.762,-0.412 -1.82,-1.474 l 1.12,0 c -0.016,0.42 0.411,0.535 0.749,0.535 0.255,0 0.65,-0.065 0.65,-0.395 0,-0.304 -0.445,-0.321 -0.659,-0.353 -0.921,-0.132 -2.098,-0.239 -2.098,-1.449 0,-0.863 0.658,-1.374 1.482,-1.374 0.608,0 0.872,0.181 1.341,0.511 l 0.008,-0.387 1.161,0 -10e-4,2.369 z m 4.5,-1.067 c 0,1.07 -1.052,1.259 -1.875,1.431 -0.222,0.05 -0.724,0.107 -0.724,0.412 0,0.304 0.362,0.345 0.592,0.345 0.231,0 0.494,-0.082 0.642,-0.271 0.065,-0.082 0.09,-0.247 0.107,-0.346 l 1.135,0.058 c -0.05,1.045 -0.929,1.448 -1.867,1.448 -0.864,0 -1.777,-0.346 -1.777,-1.349 0,-1.703 2.533,-1.086 2.533,-1.851 0,-0.337 -0.344,-0.395 -0.609,-0.395 -0.542,0 -0.831,0.156 -0.904,0.707 l -1.152,-0.04 c 0,-0.14 0.009,-0.256 0.041,-0.395 0.214,-0.881 1.119,-1.185 1.933,-1.185 0.93,0 1.925,0.329 1.925,1.431 m -9.122,-1.308 -1.209,0 0,5.807 1.209,0 0,-5.807 z m -3.257,0 0,2.386 c 0,0.271 0.017,0.6 -0.205,0.798 -0.116,0.107 -0.272,0.148 -0.428,0.148 -0.181,0 -0.329,-0.05 -0.469,-0.165 -0.289,-0.239 -0.271,-0.641 -0.271,-0.978 l 0,-2.189 -1.201,0 0,5.808 1.201,0 0,-1.983 c 0.188,0.338 0.797,0.535 1.159,0.535 0.281,0 0.617,-0.074 0.847,-0.239 0.494,-0.353 0.576,-0.83 0.576,-1.398 l 0,-2.723 -1.209,0 z m -6.967,0 0,0.906 2.106,2.351 -1.867,0 0,1.004 3.372,0 0,-0.979 -2.04,-2.278 2.18,0 0,-1.004 -3.751,0 z m -10.683,6.059 -1.451,0 -0.59,-1.228 0.941,0 1.1,1.228 z m 0.509,-1.793 -1.283,0 -0.707,-2.871 -0.774,2.871 -1.316,0 1.234,-3.455 c 0.066,-0.189 0.173,-0.403 0.173,-0.609 0,-0.14 -0.066,-0.345 -0.181,-0.436 -0.116,-0.09 -0.371,-0.107 -0.511,-0.107 -0.106,0 -0.213,0.008 -0.32,0.008 l 0,-0.954 c 0.107,0 0.214,-0.016 0.32,-0.016 0.527,0 1.193,-0.033 1.555,0.419 0.173,0.222 0.313,0.65 0.403,0.921 l 1.407,4.229 z"
           style="fill:#f95b4f;fill-opacity:1;fill-rule:nonzero;stroke:none"
           id="path3197" />
      </g>
    </g>
  </g>
</svg>
