<?xml version="1.0" encoding="UTF-8" standalone="no"?>
<!-- Created with Inkscape (http://www.inkscape.org/) -->
<svg
   xmlns:svg="http://www.w3.org/2000/svg"
   xmlns="http://www.w3.org/2000/svg"
   version="1.0"
   width="602.36218"
   height="148.5"
   id="svg2053">
  <defs
     id="defs2055" />
  <g
     id="layer1">
    <g
       transform="translate(-48.81891,-458.1122)"
       id="g2066">
      <polygon
         points="10580600,500700 16500000,500700 16500000,3691340 10580600,3691340 10580600,500700 "
         transform="matrix(3.543307e-5,0,0,3.543307e-5,48.8182,458.0938)"
         style="fill:white;fill-rule:evenodd"
         id="_71053208" />
      <path
         d="M 423.72134,475.8351 L 633.46527,475.8351 L 633.46527,588.88927 L 423.72134,588.88927 L 423.72134,475.8351 L 423.72134,475.8351 z M 451.745,543.85667 L 451.745,489.7851 L 443.4813,489.7851 L 430.44547,501.2849 L 435.73386,507.9371 L 442.52106,501.87663 L 442.52106,543.85667 L 451.745,543.85667 z M 482.60968,544.57667 L 480.32956,537.18498 C 479.6776,535.06927 478.92925,534.18947 477.36559,533.76533 C 480.16515,533.21328 481.69693,531.26057 481.69693,528.42486 C 481.69693,524.64911 478.50511,522.86116 474.98909,522.86116 L 467.01346,522.86116 L 467.01346,544.57667 L 472.12504,544.57667 L 472.12504,535.88458 L 473.16606,535.88458 C 474.24181,535.88458 474.88952,536.46958 475.38134,538.22919 L 477.1048,544.57667 L 482.60968,544.57667 z M 476.45283,529.30466 C 476.45283,531.03273 475.38134,532.07376 473.52535,532.07376 L 472.08996,532.07376 L 472.08996,526.63691 L 473.48921,526.63691 C 475.28177,526.63691 476.45283,527.44868 476.45283,529.30466 z M 502.98972,544.57667 L 496.28189,522.86116 L 490.35748,522.86116 L 483.64964,544.57667 L 488.85724,544.57667 L 490.0648,539.69328 L 496.38181,539.69328 L 497.61771,544.57667 L 502.98972,544.57667 z M 495.50165,536.07734 L 490.87799,536.07734 L 493.15704,527.09258 L 495.50165,536.07734 z M 522.39358,533.73344 C 522.39358,527.25344 519.04196,522.86116 512.26929,522.86116 L 505.56145,522.86116 L 505.56145,544.57667 L 512.4337,544.57667 C 518.84567,544.57667 522.39358,539.85769 522.39358,533.73344 z M 517.02122,533.73344 C 517.02122,537.38128 515.8172,540.63651 511.97803,540.63651 L 510.73752,540.63651 L 510.73752,526.79671 L 511.84515,526.79671 C 515.94972,526.79671 517.02122,530.05301 517.02122,533.73344 z M 526.13744,544.57667 L 531.31704,544.57667 L 531.31704,522.86116 L 526.13744,522.86116 L 526.13744,544.57667 z M 553.03397,533.73344 C 553.03397,528.06876 550.72196,522.5334 544.01413,522.5334 C 537.72901,522.5334 535.0609,528.1336 535.0609,533.73344 C 535.0609,539.4651 537.37397,544.93277 544.01413,544.93277 C 550.32972,544.93277 553.03397,539.49699 553.03397,533.73344 z M 547.66161,533.73344 C 547.66161,536.86077 547.30126,541.22151 544.01413,541.22151 C 541.14972,541.22151 540.43326,537.641 540.43326,533.73344 C 540.43326,530.57706 540.88893,526.24573 544.01413,526.24573 C 547.36574,526.24573 547.66161,530.54517 547.66161,533.73344 z M 479.6776,569.87305 C 479.6776,566.22557 478.14582,564.82525 475.44512,563.58935 L 473.58984,562.74569 C 472.22141,562.12561 471.47307,561.53706 471.47307,560.23773 C 471.47307,558.70454 472.80996,557.95726 474.33712,557.95726 C 475.7059,557.95726 477.42937,558.50966 478.63799,559.12868 L 478.82968,554.99364 C 477.13775,554.60458 475.76933,554.24529 473.78508,554.24529 C 469.745,554.24529 466.13366,556.39254 466.13366,560.46557 C 466.13366,563.1971 467.10984,565.18454 469.90941,566.52143 L 471.8972,567.46466 C 473.26102,568.11663 474.33712,568.76541 474.33712,570.29718 C 474.33712,571.46966 473.65362,572.9334 471.27783,572.9334 C 469.97283,572.9334 468.08496,572.50927 466.45787,571.60112 L 466.26193,575.76486 C 467.82523,576.28962 470.23362,576.64572 472.08996,576.64572 C 476.45283,576.64572 479.6776,573.87663 479.6776,569.87305 z M 500.21744,576.28962 L 493.5096,554.5695 L 487.58165,554.5695 L 480.87736,576.28962 L 486.08496,576.28962 L 487.28933,571.40482 L 493.60598,571.40482 L 494.84543,576.28962 L 500.21744,576.28962 z M 492.72511,567.78923 L 488.10571,567.78923 L 490.38122,558.80553 L 492.72511,567.78923 z M 516.16515,575.89738 L 515.96921,571.46966 C 515.51318,571.66454 514.30917,572.64072 511.80122,572.64072 C 508.64094,572.64072 506.52523,569.84151 506.52523,565.44533 C 506.52523,561.01761 508.74193,558.24887 511.8657,558.24887 C 513.94988,558.24887 515.12094,558.96533 515.83775,559.48939 L 516.0337,555.2849 C 515.35019,555.02517 513.69015,554.24529 510.69322,554.24529 C 506.46181,554.24529 501.15287,557.72943 501.15287,565.44533 C 501.15287,572.24954 505.0296,576.64572 510.95401,576.64572 C 513.69015,576.64572 515.12094,576.18864 516.16515,575.89738 z M 534.85362,576.28962 L 534.85362,554.5695 L 529.64106,554.5695 L 529.64106,563.10073 L 524.72578,563.10073 L 524.72578,554.5695 L 519.54972,554.5695 L 519.54972,576.28962 L 524.72578,576.28962 L 524.72578,567.1734 L 529.64106,567.1734 L 529.64106,576.28962 L 534.85362,576.28962 z M 552.10988,569.87305 C 552.10988,566.22557 550.57811,564.82525 547.87704,563.58935 L 546.02212,562.74569 C 544.6537,562.12561 543.90535,561.53706 543.90535,560.23773 C 543.90535,558.70454 545.23763,557.95726 546.7694,557.95726 C 548.13783,557.95726 549.86129,558.50966 551.06566,559.12868 L 551.26161,554.99364 C 549.57003,554.60458 548.20125,554.24529 546.217,554.24529 C 542.17728,554.24529 538.56594,556.39254 538.56594,560.46557 C 538.56594,563.1971 539.54212,565.18454 542.34169,566.52143 L 544.32594,567.46466 C 545.6933,568.11663 546.7694,568.76541 546.7694,570.29718 C 546.7694,571.46966 546.08555,572.9334 543.70905,572.9334 C 542.40511,572.9334 540.51724,572.50927 538.89015,571.60112 L 538.69385,575.76486 C 540.25752,576.28962 542.6659,576.64572 544.52189,576.64572 C 548.88511,576.64572 552.10988,573.87663 552.10988,569.87305 z M 568.48598,576.28962 L 568.48598,572.34947 L 560.83385,572.34947 L 560.83385,567.07348 L 567.67314,567.07348 L 567.67314,563.16521 L 560.83385,563.16521 L 560.83385,558.50966 L 568.19366,558.50966 L 568.19366,554.5695 L 555.72122,554.5695 L 555.72122,576.28962 L 568.48598,576.28962 z M 588.60984,576.28962 L 588.60984,554.5695 L 584.21401,554.5695 L 584.21401,570.39356 L 578.84165,554.5695 L 572.19724,554.5695 L 572.19724,576.28962 L 576.59307,576.28962 L 576.59307,560.4971 L 581.93389,576.28962 L 588.60984,576.28962 z "
         style="fill:#0ba749;fill-rule:evenodd"
         id="_47464096" />
      <rect
         width="299.81339"
         height="113.05417"
         x="66.534729"
         y="475.83508"
         style="fill:white;fill-rule:evenodd"
         id="_46121288" />
      <path
         d="M 66.534731,475.8351 L 222.99158,475.8351 L 222.99158,482.47738 L 230.58418,482.47738 C 235.40414,482.47738 237.30441,485.89242 237.30441,490.58907 L 237.30441,510.80116 C 231.02284,503.9686 223.08689,501.40502 213.74284,501.40502 C 193.23241,501.40502 183.47556,517.25281 182.31229,533.5251 C 182.23504,534.63273 182.02315,538.72136 182.85548,545.14466 L 196.89477,545.14466 C 196.89477,544.88954 196.40402,542.52084 196.235,540.82927 C 195.9402,537.93687 196.12729,534.27344 196.19178,533.37769 C 197.10701,520.51726 203.27626,509.24884 216.9552,509.3771 C 227.90721,509.51671 233.94359,517.20533 236.86327,520.19766 L 249.7191,534.5725 L 249.7191,475.8351 L 366.34811,475.8351 L 366.34811,588.88927 L 66.534731,588.88927 L 66.534731,510.64915 L 76.350755,510.64915 C 81.115085,510.64915 81.691227,512.86159 81.691227,517.42537 L 81.691227,545.99754 C 81.691227,545.99754 92.391306,528.92163 95.271305,524.50065 C 98.868116,518.98549 104.00662,508.83285 114.60359,508.44061 C 130.62749,507.85313 132.21489,525.37691 132.50402,528.61762 L 132.64788,528.76147 C 132.64788,528.76147 140.09166,509.11738 154.2989,508.44061 C 168.48701,507.7649 171.3943,521.8088 171.92721,527.16521 C 172.14052,529.26498 172.11217,534.32092 172.11217,534.32092 L 178.1202,534.32092 C 178.13969,534.32092 178.12268,532.21301 178.12268,532.21301 C 178.12268,515.35254 173.51461,500.99683 154.44312,501.51734 C 145.548,501.76537 139.28662,507.4088 135.1041,513.44872 C 132.35875,506.82132 124.73922,501.101 114.7478,501.51734 C 104.75851,501.93687 98.290912,508.73293 93.95851,515.65762 L 93.95851,503.72943 L 66.534731,503.72943 L 66.534731,475.8351 L 66.534731,475.8351 z M 304.14004,508.47675 C 307.25567,508.36124 311.65185,509.2173 312.3591,512.621 C 307.26028,512.621 303.85516,514.98864 303.85516,520.31671 C 303.85516,524.60943 307.96327,527.12553 311.7911,527.12553 C 317.45933,527.12553 319.72811,522.83281 319.72811,517.20852 C 319.72811,507.00061 313.34343,501.11695 303.7113,501.51734 C 293.71953,501.93687 287.82807,508.76943 283.49567,515.69269 L 283.49567,503.76451 L 256.07225,503.76451 L 256.07225,510.68458 L 265.88792,510.68458 C 270.64799,510.68458 271.22732,512.89313 271.22732,517.46151 L 271.22732,546.02907 C 271.22732,546.02907 281.9274,528.95317 284.8074,524.53679 C 288.39961,519.02057 293.53953,508.86899 304.14004,508.47675 z "
         style="fill:#006cb8;fill-opacity:1;fill-rule:evenodd"
         id="_45491112" />
      <polygon
         points="9134450,3691340 10401400,3691340 10401400,500700 9134450,500700 9134450,3691340 "
         transform="matrix(3.543307e-5,0,0,3.543307e-5,48.8182,458.0938)"
         style="fill:#6795ce;fill-rule:nonzero"
         id="_66932400" />
    </g>
  </g>
</svg>
