<?xml version="1.0" encoding="UTF-8" standalone="no"?>
<!-- Created with Inkscape (http://www.inkscape.org/) -->
<svg
   xmlns:svg="http://www.w3.org/2000/svg"
   xmlns="http://www.w3.org/2000/svg"
   version="1.0"
   width="602.36218"
   height="148.5"
   id="svg2776">
  <defs
     id="defs2778" />
  <g
     id="layer1">
    <g
       transform="translate(21.18109,36.17353)"
       id="g2789">
      <polygon
         points="10580600,500700 16500000,500700 16500000,3691340 10580600,3691340 10580600,500700 "
         transform="matrix(3.543307e-5,0,0,3.543307e-5,-21.1818,-36.19196)"
         style="fill:white;fill-rule:evenodd"
         id="polygon10" />
      <path
         d="M 353.72134,-18.450617 L 563.46527,-18.450617 L 563.46527,94.603554 L 353.72134,94.603554 L 353.72134,-18.450617 L 353.72134,-18.450617 z M 381.745,52.214972 L 381.745,-1.8576646 L 373.4813,-1.8576646 L 360.44547,9.6432013 L 365.73244,16.298949 L 372.51752,10.238477 L 372.51752,52.214972 L 381.745,52.214972 z M 412.90909,19.854658 L 410.62897,12.462965 C 409.977,10.347256 409.22972,9.4674533 407.665,9.0433194 C 410.46563,8.4912722 411.9974,6.5385557 411.9974,3.7074534 C 411.9974,-0.072900815 408.80559,-1.8608535 405.28956,-1.8608535 L 397.31287,-1.8608535 L 397.31287,19.854658 L 402.42551,19.854658 L 402.42551,11.162571 L 403.46512,11.162571 C 404.54122,11.162571 405.19319,11.746508 405.68074,13.507532 L 407.40527,19.854658 L 412.90909,19.854658 z M 406.7533,4.5826503 C 406.7533,6.3107211 405.68074,7.3506817 403.82582,7.3506817 L 402.39362,7.3506817 L 402.39362,1.9148944 L 403.79287,1.9148944 C 405.58118,1.9148944 406.7533,2.726666 406.7533,4.5826503 z M 433.28913,19.854658 L 426.5859,-1.8608535 L 420.65689,-1.8608535 L 413.94905,19.854658 L 419.16126,19.854658 L 420.36527,14.971272 L 426.68086,14.971272 L 427.91677,19.854658 L 433.28913,19.854658 z M 425.80106,11.355327 L 421.1774,11.355327 L 423.45752,2.3705637 L 425.80106,11.355327 z M 452.69759,9.0103667 C 452.69759,2.5349731 449.34137,-1.8608535 442.56976,-1.8608535 L 435.86086,-1.8608535 L 435.86086,19.854658 L 442.73311,19.854658 C 449.14507,19.854658 452.69759,15.134618 452.69759,9.0103667 z M 447.32523,9.0103667 C 447.32523,12.659264 446.11767,15.9145 442.27744,15.9145 L 441.04153,15.9145 L 441.04153,2.0793039 L 442.14563,2.0793039 C 446.24913,2.0793039 447.32523,5.33454 447.32523,9.0103667 z M 456.44145,19.854658 L 461.61752,19.854658 L 461.61752,-1.8608535 L 456.44145,-1.8608535 L 456.44145,19.854658 z M 483.33338,9.0103667 C 483.33338,3.3467448 481.02137,-2.1886094 474.31354,-2.1886094 C 468.02948,-2.1886094 465.36137,3.4115873 465.36137,9.0103667 C 465.36137,14.743437 467.67338,20.21076 474.31354,20.21076 C 480.63338,20.21076 483.33338,14.774973 483.33338,9.0103667 z M 477.96102,9.0103667 C 477.96102,12.138752 477.60173,16.503044 474.31354,16.503044 C 471.44913,16.503044 470.73374,12.918989 470.73374,9.0103667 C 470.73374,5.8550518 471.1894,1.5226503 474.31354,1.5226503 C 477.66976,1.5226503 477.96102,5.823162 477.96102,9.0103667 z M 409.977,45.151035 C 409.977,41.507098 408.44984,40.106783 405.74559,38.867334 L 403.88925,38.02261 C 402.52082,37.403594 401.77354,36.815051 401.77354,35.51572 C 401.77354,33.982531 403.10937,33.235602 404.6376,33.235602 C 406.00496,33.235602 407.73303,33.78765 408.9374,34.406665 L 409.13334,30.271626 C 407.43716,29.882571 406.07299,29.52328 404.08555,29.52328 C 400.04901,29.52328 396.43307,31.670878 396.43307,35.743555 C 396.43307,38.479697 397.40925,40.462531 400.20882,41.799421 L 402.19767,42.743004 C 403.56504,43.394972 404.6376,44.043397 404.6376,45.575169 C 404.6376,46.747649 403.95267,48.211389 401.57724,48.211389 C 400.27685,48.211389 398.38897,47.790799 396.76082,46.879106 L 396.56559,51.047098 C 398.12464,51.566547 400.53763,51.922649 402.39362,51.922649 C 406.7533,51.922649 409.977,49.154972 409.977,45.151035 z M 430.51685,51.566547 L 423.80901,29.851035 L 417.88567,29.851035 L 411.17783,51.566547 L 416.38543,51.566547 L 417.5898,46.683161 L 423.90539,46.683161 L 425.1459,51.566547 L 430.51685,51.566547 z M 423.02878,43.067216 L 418.40511,43.067216 L 420.68523,34.083516 L 423.02878,43.067216 z M 446.46563,51.175366 L 446.26968,46.747649 C 445.81366,46.942531 444.60964,47.919067 442.10169,47.919067 C 438.94496,47.919067 436.82889,45.1195 436.82889,40.723319 C 436.82889,36.294539 439.04133,33.526862 442.16511,33.526862 C 444.24893,33.526862 445.42141,34.243319 446.14141,34.767374 L 446.33311,30.567492 C 445.64925,30.303161 443.98956,29.52328 440.9937,29.52328 C 436.76086,29.52328 431.45334,33.007413 431.45334,40.723319 C 431.45334,47.526468 435.32901,51.922649 441.25696,51.922649 C 443.98956,51.922649 445.42141,51.466625 446.46563,51.175366 z M 465.15303,51.566547 L 465.15303,29.851035 L 459.94507,29.851035 L 459.94507,38.378712 L 455.0298,38.378712 L 455.0298,29.851035 L 449.84913,29.851035 L 449.84913,51.566547 L 455.0298,51.566547 L 455.0298,42.451389 L 459.94507,42.451389 L 459.94507,51.566547 L 465.15303,51.566547 z M 482.40929,45.151035 C 482.40929,41.507098 480.88177,40.106783 478.17751,38.867334 L 476.32153,38.02261 C 474.95275,37.403594 474.20582,36.815051 474.20582,35.51572 C 474.20582,33.982531 475.54129,33.235602 477.06988,33.235602 C 478.43724,33.235602 480.16177,33.78765 481.36933,34.406665 L 481.56562,30.271626 C 479.86944,29.882571 478.50173,29.52328 476.51748,29.52328 C 472.47775,29.52328 468.865,31.670878 468.865,35.743555 C 468.865,38.479697 469.84153,40.462531 472.6411,41.799421 L 474.6296,42.743004 C 475.99732,43.394972 477.06988,44.043397 477.06988,45.575169 C 477.06988,46.747649 476.38496,48.211389 474.00952,48.211389 C 472.70559,48.211389 470.81771,47.790799 469.18956,46.879106 L 468.99787,51.047098 C 470.55692,51.566547 472.96992,51.922649 474.8259,51.922649 C 479.18559,51.922649 482.40929,49.154972 482.40929,45.151035 z M 498.78539,51.566547 L 498.78539,47.627452 L 491.13751,47.627452 L 491.13751,42.350405 L 497.97362,42.350405 L 497.97362,38.443201 L 491.13751,38.443201 L 491.13751,33.78765 L 498.49307,33.78765 L 498.49307,29.851035 L 486.02488,29.851035 L 486.02488,51.566547 L 498.78539,51.566547 z M 518.90925,51.566547 L 518.90925,29.851035 L 514.51342,29.851035 L 514.51342,45.671547 L 509.14106,29.851035 L 502.49771,29.851035 L 502.49771,51.566547 L 506.89354,51.566547 L 506.89354,35.775445 L 512.23295,51.566547 L 518.90925,51.566547 z M 522.49011,43.394972 L 530.23755,43.394972 L 530.23755,39.551193 L 522.49011,39.551193 L 522.49011,43.394972 z M 414.63362,83.279499 L 407.92933,61.559381 L 402.00137,61.559381 L 395.29354,83.279499 L 400.50468,83.279499 L 401.7087,78.394696 L 408.02571,78.394696 L 409.26161,83.279499 L 414.63362,83.279499 z M 407.1459,74.779105 L 402.52082,74.779105 L 404.80094,65.795405 L 407.1459,74.779105 z M 433.61689,83.279499 L 433.61689,61.559381 L 429.22071,61.559381 L 429.22071,77.383436 L 423.84976,61.559381 L 417.20535,61.559381 L 417.20535,83.279499 L 421.60118,83.279499 L 421.60118,67.486979 L 426.94165,83.279499 L 433.61689,83.279499 z M 453.47748,83.279499 L 453.47748,61.559381 L 448.26988,61.559381 L 448.26988,70.091664 L 443.34893,70.091664 L 443.34893,61.559381 L 438.17393,61.559381 L 438.17393,83.279499 L 443.34893,83.279499 L 443.34893,74.163278 L 448.26988,74.163278 L 448.26988,83.279499 L 453.47748,83.279499 z M 475.38929,83.279499 L 468.68145,61.559381 L 462.75704,61.559381 L 456.04921,83.279499 L 461.25681,83.279499 L 462.46118,78.394696 L 468.78137,78.394696 L 470.01728,83.279499 L 475.38929,83.279499 z M 467.90122,74.779105 L 463.27755,74.779105 L 465.55767,65.795405 L 467.90122,74.779105 z M 489.90976,83.279499 L 489.90976,79.206822 L 483.13708,79.206822 L 483.13708,61.559381 L 477.96102,61.559381 L 477.96102,83.279499 L 489.90976,83.279499 z M 502.99767,65.630995 L 502.99767,61.559381 L 488.60582,61.559381 L 488.60582,65.630995 L 493.22948,65.630995 L 493.22948,83.279499 L 498.40555,83.279499 L 498.40555,65.630995 L 502.99767,65.630995 z "
         style="fill:#0ba749;fill-rule:evenodd"
         id="path12" />
      <rect
         width="299.81339"
         height="113.05417"
         x="-3.4652686"
         y="-18.450617"
         style="fill:white;fill-rule:evenodd"
         id="rect14" />
      <path
         d="M -3.4652687,-18.450617 L 152.99158,-18.450617 L 152.99158,-11.808334 L 160.58418,-11.808334 C 165.40414,-11.808334 167.30441,-8.3932943 167.30441,-3.6966409 L 167.30441,16.515445 C 161.02284,9.6828863 153.08689,7.1193037 143.74284,7.1193037 C 123.23241,7.1193037 113.47556,22.967099 112.31229,39.239382 C 112.23504,40.347019 112.02315,44.435641 112.85548,50.858948 L 126.89477,50.858948 C 126.89477,50.60383 126.40402,48.23513 126.235,46.543555 C 125.9402,43.651153 126.12729,39.987728 126.19178,39.09198 C 127.10701,26.231547 133.27626,14.963122 146.9552,15.09139 C 157.90721,15.230996 163.94359,22.919618 166.86327,25.911941 L 179.7191,40.286783 L 179.7191,-18.450617 L 296.34811,-18.450617 L 296.34811,94.603554 L -3.4652687,94.603554 L -3.4652687,16.363437 L 6.3507547,16.363437 C 11.115085,16.363437 11.691227,18.575878 11.691227,23.139658 L 11.691227,51.711822 C 11.691227,51.711822 22.391306,34.635917 25.271305,30.214933 C 28.868116,24.699776 34.00662,14.547138 44.603588,14.154894 C 60.627486,13.567414 62.214887,31.091193 62.504021,34.331901 L 62.647879,34.47576 C 62.647879,34.47576 70.091659,14.831666 84.298902,14.154894 C 98.487012,13.479185 101.3943,27.523083 101.92721,32.8795 C 102.14052,34.979264 102.11217,40.035208 102.11217,40.035208 L 108.1202,40.035208 C 108.13969,40.035208 108.12268,37.927295 108.12268,37.927295 C 108.12268,21.066823 103.51461,6.7111148 84.443115,7.2316266 C 75.547997,7.4796581 69.286619,13.123083 65.1041,19.163004 C 62.358745,12.535603 54.739218,6.815288 44.747801,7.2316266 C 34.75851,7.6511541 28.290912,14.447217 23.95851,21.371902 L 23.95851,9.4437131 L -3.4652687,9.4437131 L -3.4652687,-18.450617 L -3.4652687,-18.450617 z M 234.14004,14.191036 C 237.25567,14.075524 241.65185,14.931587 242.3591,18.335288 C 237.26028,18.335288 233.85516,20.702925 233.85516,26.030996 C 233.85516,30.323713 237.96327,32.839815 241.7911,32.839815 C 247.45933,32.839815 249.72811,28.547098 249.72811,22.922807 C 249.72811,12.714894 243.34343,6.8312329 233.7113,7.2316266 C 223.71953,7.6511541 217.82807,14.483713 213.49567,21.406981 L 213.49567,9.4787919 L 186.07225,9.4787919 L 186.07225,16.39887 L 195.88792,16.39887 C 200.64799,16.39887 201.22732,18.607414 201.22732,23.175799 L 201.22732,51.743358 C 201.22732,51.743358 211.9274,34.667453 214.8074,30.251075 C 218.39961,24.734854 223.53953,14.58328 234.14004,14.191036 z "
         style="fill:#006cb8;fill-opacity:1;fill-rule:evenodd"
         id="path16" />
      <polygon
         points="9134450,3691340 10401400,3691340 10401400,500700 9134450,500700 9134450,3691340 "
         transform="matrix(3.543307e-5,0,0,3.543307e-5,-21.1818,-36.19196)"
         style="fill:#6795ce;fill-rule:nonzero"
         id="polygon18" />
    </g>
  </g>
</svg>
