<?xml version="1.0" encoding="utf-8"?>
<!-- Generator: Adobe Illustrator 16.0.3, SVG Export Plug-In . SVG Version: 6.00 Build 0)  -->
<!DOCTYPE svg PUBLIC "-//W3C//DTD SVG 1.1//EN" "http://www.w3.org/Graphics/SVG/1.1/DTD/svg11.dtd">
<svg version="1.1" id="Ebene_1" xmlns="http://www.w3.org/2000/svg" xmlns:xlink="http://www.w3.org/1999/xlink" x="0px" y="0px"
	 width="449.977px" height="238.489px" viewBox="0 0 449.977 238.489" enable-background="new 0 0 449.977 238.489"
	 xml:space="preserve">
<g>
	<defs>
		<rect id="SVGID_1_" x="16.526" y="18.502" width="414.295" height="206.518"/>
	</defs>
	<clipPath id="SVGID_2_">
		<use xlink:href="#SVGID_1_"  overflow="visible"/>
	</clipPath>
	<path clip-path="url(#SVGID_2_)" d="M211.175,18.501l0.233,5.175l0.279,6.211c1.955,43.366,3.219,87.575,3.759,131.397l0.071,5.806
		l0.059,4.841l4.84-0.002l5.807-0.002l17.163-0.002l16.873-0.002h6.05h5.043l-0.021-0.706l0.168,0.703l3.873-0.002l4.648-0.002
		c8.588-0.002,17.172-0.006,25.76-0.01h0.461l5.074-0.002l4.223-0.002l0.238-1.602l0.099,1.601l4.61-0.002l5.53-0.004h0.284
		c11.261-0.009,22.52-0.017,33.784-0.027l6.35-0.006l5.293-0.005l-0.415-5.277l-0.498-6.331
		c-3.375-43.006-11.32-86.509-23.613-129.296l-1.137-3.966l-0.949-3.307l-3.432-0.229l-4.117-0.276
		c-15.117-1.01-30.254-1.864-44.988-2.543l-6.332-0.291l-5.278-0.242l0.155,5.279l0.188,6.336c0.106,3.566,0.178,7.128,0.217,10.697
		c-1.572-5.287-3.09-10.358-4.518-15.118l-1.21-4.045l-1.009-3.372l-3.52-0.118l-4.221-0.142
		c-14.732-0.494-29.696-0.827-44.478-0.99l-6.216-0.068L211.175,18.501z M216.301,23.457l6.216,0.069
		c14.737,0.163,29.664,0.494,44.368,0.986l4.221,0.143l1.211,4.046c4.455,14.861,9.063,30.34,13.586,45.959
		c0.621-14.764,0.719-29.033,0.303-43.089l-0.188-6.336l6.333,0.292c14.69,0.676,29.792,1.528,44.886,2.537l4.117,0.275l1.139,3.966
		c12.203,42.478,20.088,85.654,23.438,128.328l0.497,6.331l-6.35,0.006c-11.264,0.012-22.522,0.02-33.779,0.027h-0.287L320.481,167
		l-0.339-5.519c-0.784-12.741-1.889-25.543-3.305-38.352c-1.211,12.562-2.804,25.48-4.783,38.861l-0.741,5.015l-5.072,0.002h-0.439
		c-8.596,0.004-17.189,0.009-25.783,0.011l-4.648,0.002l-1.07-4.523c-3.079-12.982-6.35-26.14-9.676-39.16
		c0.643,12.565,1.148,25.131,1.51,37.641l0.176,6.048h-6.05l-16.873,0.002l-17.165,0.002l-5.806,0.002l-0.071-5.807
		c-0.54-43.828-1.804-88.092-3.764-131.558L216.301,23.457z"/>
	<path clip-path="url(#SVGID_2_)" d="M170.055,23.832l-5.443,0.124l-6.532,0.149c-10.406,0.237-20.974,0.564-31.412,0.968
		l-4.896,0.19l-4.08,0.157l-0.579,4.043l-0.694,4.85c-4.035,28.201-7.201,56.809-9.438,85.262l-1.948,0.024l-6.486,0.083
		c-10.315,0.128-21.115,0.283-32.099,0.461l-5.163,0.082l-4.306,0.069l-0.483,4.277l-0.581,5.135
		c-0.11,0.978-0.221,1.958-0.328,2.936c-2.001,18.213,1.389,32.386,10.079,42.124c8.547,9.582,21.838,14.48,39.5,14.557l0.388,0.002
		c18.38,0,31.984-4.477,41.612-13.687c10.025-9.593,15.245-23.827,15.957-43.516c1.296-32.046,3.295-64.471,5.942-96.354l0.54-6.512
		L170.055,23.832z M164.725,28.852l-0.54,6.512c-2.653,31.961-4.658,64.465-5.957,96.581c-0.663,18.352-5.388,31.486-14.448,40.153
		c-8.671,8.296-21.167,12.329-38.201,12.329l-0.391-0.002c-16.214-0.07-28.282-4.417-35.867-12.92
		c-7.725-8.658-10.707-21.556-8.863-38.331c0.106-0.973,0.215-1.946,0.325-2.918l0.581-5.133l5.165-0.083
		c11.014-0.179,21.807-0.333,32.081-0.461l6.486-0.082l-0.556,6.463c-0.195,2.267-0.384,4.535-0.566,6.792
		c-0.644,8.158,0.905,9.936,0.971,10.009c0.116,0.124,0.605,0.208,1.25,0.208c1.403-0.005,1.715-0.344,2.109-0.897
		c0.693-0.974,1.921-3.611,2.349-10.343c2.229-33.848,5.8-68.073,10.615-101.722l0.695-4.851l4.896-0.189
		c10.46-0.405,21.002-0.729,31.334-0.966L164.725,28.852z"/>
	<path clip-path="url(#SVGID_2_)" d="M188.438,176.165c-0.103-1.063-0.17-2.432-0.151-4.177c0.103-9.471,0.234-18.966,0.394-28.472
		c-0.013,9.44-0.024,18.896-0.032,28.348C188.647,173.67,188.56,175.08,188.438,176.165 M190.826,58.961l-1.841,0.014h-0.131v0.001
		L185.729,59l-6.115,0.047c-11.101,0.086-22.273,0.236-33.206,0.446l-5.317,0.102l-4.431,0.086l-0.357,4.417l-0.429,5.302
		c-2.485,30.738-4.25,61.971-5.247,92.827c-0.666,21.857,3.934,37.564,14.06,48.026c9.706,10.029,23.563,14.722,43.607,14.768h0.191
		c19.844,0,33.615-4.61,43.337-14.509c10.223-10.407,15-26.161,14.605-48.16c-0.572-30.912-1.582-62.181-3.004-92.936l-0.255-5.544
		l-0.211-4.623l-4.627-0.05l-5.554-0.061c-10.363-0.114-20.87-0.173-31.227-0.173h-0.001h-0.001l-1.953,0.001l-5.861,0.005
		l-2.911,0.002L190.826,58.961z M201.551,63.864c10.29,0,20.779,0.057,31.174,0.172l5.553,0.061l0.254,5.545
		c1.418,30.679,2.428,61.898,3,92.799c0.369,20.619-3.95,35.22-13.201,44.639c-8.742,8.898-21.403,13.043-39.845,13.043h-0.18
		c-18.633-0.042-31.374-4.261-40.099-13.276c-9.158-9.461-13.307-24.002-12.684-44.461c0.994-30.762,2.754-61.916,5.234-92.592
		l0.429-5.3l5.317-0.104c10.953-0.21,22.108-0.358,33.149-0.444l6.115-0.047l-0.195,6.112c-1.081,33.769-1.814,68.062-2.183,101.925
		c-0.082,7.705,1.332,9.977,1.944,10.597c0.186,0.187,0.752,0.759,3.067,0.761c2.548,0,3.04-0.677,3.333-1.081
		c0.675-0.932,1.81-3.513,1.814-10.343c0.032-35.132,0.094-69.498,0.178-102.143l0.015-5.856l5.859-0.005L201.551,63.864z"/>
	<path clip-path="url(#SVGID_2_)" d="M326.217,47.862l1.146,6.186l1.377,7.422c7.945,42.867,12.658,86.457,14.009,129.554
		l0.182,5.774l0.152,4.813l4.813-0.069l5.776-0.081c10.461-0.148,20.399-0.305,29.54-0.464l6.008-0.104l5.004-0.087l-0.195-5.003
		l-0.235-6c-0.487-12.508-1.33-25.181-2.511-37.75c14.141-0.207,25.209-4.825,32.052-13.386c7.373-9.222,9.312-21.877,5.761-37.614
		c-6.398-27.798-25.693-47.142-49.158-49.303c-13.563-1.154-26.98-2.162-39.908-2.996l-7.533-0.485L326.217,47.862z M332.18,53.155
		l7.534,0.486c12.901,0.832,26.271,1.836,39.774,2.985c21.322,1.963,38.916,19.813,44.83,45.502
		c3.207,14.215,1.588,25.478-4.81,33.479c-6.042,7.559-16.149,11.552-29.226,11.552c-0.316,0-0.635-0.002-0.979-0.005
		c-1.144-0.021-2.285-0.043-3.428-0.064c1.452,14.247,2.468,28.648,3.023,42.902l0.234,6l-6.006,0.106
		c-9.395,0.162-19.328,0.316-29.525,0.463l-5.777,0.082l-0.182-5.774c-1.357-43.337-6.098-87.174-14.09-130.293L332.18,53.155z"/>
	<path clip-path="url(#SVGID_2_)" fill="#FFFFFF" d="M365.93,160.633c-3.35-42.674-11.234-85.851-23.438-128.328l-1.138-3.966
		l-4.118-0.275c-15.094-1.009-30.195-1.861-44.886-2.537l-6.333-0.292l0.188,6.336c0.416,14.056,0.317,28.325-0.303,43.089
		c-4.523-15.619-9.132-31.098-13.586-45.959l-1.211-4.046l-4.221-0.143c-14.705-0.492-29.631-0.823-44.367-0.986l-6.217-0.069
		l0.28,6.211c1.959,43.466,3.224,87.729,3.763,131.558l0.071,5.807l5.807-0.002l17.164-0.002l16.873-0.002h6.051l-0.176-6.048
		c-0.361-12.51-0.867-25.075-1.51-37.641c3.325,13.021,6.598,26.179,9.676,39.16l1.072,4.523l4.646-0.002
		c8.595-0.002,17.188-0.007,25.783-0.011h0.44l5.07-0.002l0.741-5.015c1.981-13.381,3.574-26.3,4.785-38.861
		c1.416,12.809,2.52,25.61,3.304,38.352l0.339,5.519l5.531-0.003h0.287c11.258-0.008,22.516-0.016,33.778-0.027l6.351-0.006
		L365.93,160.633z"/>
	<path clip-path="url(#SVGID_2_)" fill="#FFFFFF" d="M158.192,29.001c-10.332,0.236-20.874,0.561-31.334,0.966l-4.896,0.19
		l-0.695,4.85c-4.815,33.649-8.386,67.873-10.615,101.721c-0.429,6.731-1.656,9.37-2.349,10.345
		c-0.394,0.553-0.706,0.891-2.109,0.896c-0.645,0-1.134-0.084-1.25-0.208c-0.066-0.073-1.615-1.851-0.971-10.009
		c0.182-2.258,0.371-4.525,0.566-6.792l0.556-6.463l-6.486,0.082c-10.274,0.128-21.067,0.283-32.081,0.461l-5.165,0.082
		l-0.581,5.134c-0.11,0.972-0.219,1.946-0.325,2.918c-1.844,16.775,1.138,29.673,8.863,38.331
		c7.585,8.502,19.653,12.849,35.867,12.92l0.391,0.002c17.034,0,29.53-4.033,38.201-12.329c9.059-8.668,13.785-21.802,14.448-40.152
		c1.299-32.118,3.304-64.621,5.957-96.581l0.54-6.513L158.192,29.001z"/>
	<path clip-path="url(#SVGID_2_)" fill="#D51224" d="M289.604,107.951c-0.126-0.002-0.251-0.004-0.377-0.006
		c-7.123-25.812-14.782-51.674-22.539-77.557c-14.78-0.496-29.514-0.823-44.235-0.986c1.972,43.775,3.227,87.693,3.769,131.75
		c11.344-0.002,22.69-0.002,34.039-0.004c-0.949-32.69-2.836-65.306-5.664-97.844c0.119,0.002,0.236,0.004,0.354,0.006
		c8.686,32.645,17.35,65.275,25.068,97.831c8.74-0.002,17.479-0.006,26.222-0.011c4.787-32.33,7.617-64.397,7.632-96.17
		c0.119,0.007,0.237,0.011,0.358,0.014c5.876,31.988,9.802,64.037,11.778,96.146c11.354-0.008,22.707-0.016,34.064-0.026
		c-3.335-42.476-11.076-84.863-23.229-127.164c-15.006-1.002-29.916-1.849-44.763-2.531
		C292.832,56.754,291.867,82.278,289.604,107.951"/>
	<path clip-path="url(#SVGID_2_)" fill="#D51224" d="M116.518,137.116c-0.852,13.353-4.853,16.709-10.298,16.731
		c-5.416,0.023-9.155-3.283-8.106-16.558c0.183-2.277,0.373-4.556,0.569-6.834c-10.681,0.134-21.366,0.289-32.06,0.461
		c-0.109,0.964-0.217,1.93-0.323,2.895c-3.154,28.697,8.322,44.604,38.913,44.737c30.127,0.104,45.912-12.785,47.141-46.815
		c1.309-32.354,3.299-64.639,5.973-96.854c-10.395,0.237-20.807,0.558-31.241,0.962C122.266,69.528,118.745,103.287,116.518,137.116
		"/>
	<path clip-path="url(#SVGID_2_)" fill="#FFFFFF" d="M241.532,162.44c-0.572-30.9-1.582-62.121-3-92.798l-0.255-5.546l-5.552-0.061
		c-10.395-0.115-20.884-0.172-31.173-0.172l-1.954,0.001l-5.858,0.005l-7.973,0.028l-6.115,0.047
		c-11.042,0.085-22.196,0.235-33.15,0.445l-5.317,0.102l-0.429,5.301c-2.479,30.676-4.239,61.829-5.233,92.592
		c-0.623,20.458,3.526,35,12.684,44.462c8.724,9.015,21.465,13.233,40.099,13.275h0.18c18.442,0,31.102-4.144,39.845-13.043
		C237.581,197.66,241.901,183.06,241.532,162.44"/>
	<path clip-path="url(#SVGID_2_)" fill="#FFFFFF" d="M424.319,102.128c-5.914-25.688-23.509-43.539-44.83-45.502
		c-13.504-1.149-26.873-2.153-39.773-2.985l-7.535-0.486l1.376,7.422c7.991,43.119,12.731,86.957,14.089,130.293l0.182,5.774
		l5.776-0.082c10.198-0.146,20.132-0.3,29.526-0.463l6.006-0.105l-0.235-6c-0.555-14.254-1.571-28.656-3.022-42.902
		c1.142,0.021,2.285,0.042,3.429,0.063c0.342,0.004,0.662,0.005,0.978,0.005c13.077,0,23.184-3.993,29.226-11.552
		C425.907,127.607,427.526,116.342,424.319,102.128"/>
	<path clip-path="url(#SVGID_2_)" fill="#FFFFFF" d="M19.128,120.818c0.595-20.176,3.826-36.535,10.168-51.483l0.563-1.324
		l1.431-0.154c33.321-3.573,57.537-5.556,80.971-6.63l3.025-0.14l-0.498,2.987c-2.887,17.354-4.485,35.211-6.032,52.479
		l-0.397,4.417l-2.206,0.032c-29.345,0.441-52.505,1.211-84.491,2.335l-2.611,0.093L19.128,120.818z"/>
	<path clip-path="url(#SVGID_2_)" d="M118.199,58.502l-6.05,0.277c-23.486,1.076-47.746,3.063-81.12,6.642l-2.862,0.307l-1.124,2.65
		c-6.466,15.237-9.759,31.877-10.363,52.367l-0.154,5.223l5.222-0.183c31.971-1.124,55.12-1.894,84.443-2.333l4.41-0.067
		l0.395-4.393l0.199-2.222c1.543-17.223,3.137-35.032,6.009-52.295L118.199,58.502z M112.373,63.672
		c-3.025,18.182-4.619,36.635-6.255,54.882c-30.241,0.455-53.993,1.262-84.542,2.336c0.49-16.618,2.82-33.734,9.975-50.599
		C59.357,67.309,85.663,64.897,112.373,63.672"/>
	<path clip-path="url(#SVGID_2_)" fill="#D51224" d="M35.673,104.969c0.285-7.286,1.47-14.578,3.571-21.873
		c2.136-0.15,4.273-0.297,6.41-0.442c0.065,4.744,0.547,9.52,1.412,14.325c0.023-0.002,0.045-0.003,0.067-0.004
		c1.962-4.927,4.269-9.884,6.896-14.87c2.138-0.136,4.278-0.27,6.417-0.399c-1.801,7.524-2.808,15.05-3.041,22.569
		c-1.34,0.04-2.68,0.081-4.021,0.122c0.191-5.884,0.875-11.772,2.063-17.66c-0.023,0.001-0.045,0.003-0.068,0.004
		c-2.83,5.979-5.202,11.919-7.071,17.815c-1.181,0.037-2.362,0.075-3.542,0.112c-1.463-5.759-2.392-11.478-2.724-17.152
		c-0.022,0.002-0.045,0.003-0.066,0.004c-1.309,5.773-2.07,11.546-2.286,17.313C38.353,104.879,37.011,104.924,35.673,104.969"/>
	<path clip-path="url(#SVGID_2_)" fill="#D51224" d="M66.779,100.148c0.545-0.018,1.091-0.036,1.634-0.054
		c2.597-0.084,4.121-1.276,4.428-4.714c0.186-2.016,0.421-4.031,0.705-6.047c0.464-3.246-0.405-4.528-3.292-4.38
		c-0.537,0.027-1.073,0.055-1.609,0.082C67.704,90.074,67.082,95.112,66.779,100.148 M64.841,81.443
		c2.126-0.124,4.257-0.247,6.387-0.366c5.275-0.297,7.666,1.728,7.04,7.543c-0.325,2.367-0.589,4.733-0.791,7.101
		c-0.66,5.833-3.614,8.083-9.026,8.23c-2.181,0.063-4.362,0.126-6.545,0.19C62.129,96.579,63.102,89.01,64.841,81.443"/>
	<path clip-path="url(#SVGID_2_)" fill="#D51224" d="M86.452,90.333c0.801-0.031,1.599-0.061,2.4-0.091
		c2.067-0.077,3.405-1.094,3.687-3.364c0.288-2.269-0.795-3.189-2.843-3.101c-0.792,0.035-1.585,0.07-2.378,0.104
		C86.981,86.033,86.694,88.184,86.452,90.333 M91.913,103.331c-1.298-3.144-2.499-6.276-3.588-9.397
		c-0.745,0.024-1.492,0.052-2.238,0.075c-0.275,3.161-0.447,6.321-0.517,9.481c-1.569,0.04-3.136,0.081-4.706,0.122
		c0.182-7.725,1.006-15.452,2.481-23.178c2.221-0.112,4.438-0.221,6.659-0.326c5.527-0.265,7.7,2.229,7.174,6.658
		c-0.345,2.929-1.603,5.081-4.298,6.108c1.237,3.431,2.603,6.875,4.082,10.333C95.278,103.249,93.597,103.289,91.913,103.331"/>
	<path clip-path="url(#SVGID_2_)" fill="#D51224" d="M146.615,70.266c-2.482,30.707-4.222,61.477-5.218,92.308
		c-1.202,39.495,16.129,51.6,46.922,51.671c30.831,0.044,48.045-12.046,47.337-51.699c-0.573-30.941-1.571-61.819-2.993-92.633
		C221.637,69.792,157.651,70.054,146.615,70.266"/>
	<path clip-path="url(#SVGID_2_)" fill="#D51224" d="M381.519,117.106c-1.778-0.064-3.554-0.129-5.329-0.189
		c-1.546-10.462-3.333-20.92-5.365-31.374c1.717,0.099,3.434,0.203,5.151,0.306c6.888,0.432,11.729,5.662,13.76,16.162
		C391.764,112.686,388.667,117.352,381.519,117.106 M378.951,62.479c-13.28-1.131-26.478-2.126-39.614-2.973
		c8.086,43.631,12.812,87.357,14.185,131.178c9.837-0.14,19.671-0.293,29.507-0.463c-0.639-16.386-1.871-32.76-3.702-49.124
		c3.362,0.06,6.724,0.118,10.087,0.179c23.402,0.331,34.872-12.597,29.174-37.854C413.61,81.809,399.045,64.33,378.951,62.479"/>
	<path clip-path="url(#SVGID_2_)" fill="#FFFFFF" d="M188.508,186.274c-4.869,0-8.816-3.947-8.816-8.816V69.072h17.633v108.386
		C197.325,182.327,193.376,186.274,188.508,186.274"/>
	<path clip-path="url(#SVGID_2_)" d="M188.508,179.73c-1.623,0-2.939-1.314-2.939-2.938V63.155h5.878v113.637
		C191.447,178.416,190.131,179.73,188.508,179.73"/>
</g>
</svg>
