<svg version="1.1" id="Layer_1" xmlns="http://www.w3.org/2000/svg" xmlns:xlink="http://www.w3.org/1999/xlink" x="0px" y="0px" viewBox="0 0 211.7 126.8" style="enable-background:new 0 0 211.7 126.8;" xml:space="preserve" width="500" height="400">
                        <polygon points="24.5,113.2 24.5,121.6 18,113.2 15.5,113.2 15.5,126.5 18.3,126.5 18.3,118 24.9,126.5 27.4,126.5 27.4,113.2 "></polygon>
    <g>
                            <defs>
                                <rect id="SVGID_1_" width="211.7" height="126.8"></rect>
                            </defs>
        <clipPath id="logoClipPath">
                                <use xlink:href="#SVGID_1_" style="overflow:visible;"></use>
                            </clipPath>
        <path class="st0" d="M35.9,122.9c0.8,0.8,1.8,1.3,3,1.3c1.2,0,2.2-0.4,3-1.3c0.8-0.8,1.2-1.9,1.2-3.1c0-1.2-0.4-2.3-1.2-3.1
		c-0.8-0.8-1.8-1.3-3-1.3c-1.2,0-2.2,0.4-3,1.3c-0.8,0.8-1.2,1.9-1.2,3.1C34.7,121.1,35.1,122.1,35.9,122.9 M33.8,114.9
		c1.4-1.4,3.1-2,5.1-2c2,0,3.7,0.7,5.1,2c1.4,1.4,2.1,3,2.1,4.9c0,1.9-0.7,3.5-2.1,4.9c-1.4,1.4-3.1,2-5.1,2c-2,0-3.7-0.7-5.1-2
		c-1.4-1.4-2.1-3-2.1-4.9C31.7,117.9,32.4,116.3,33.8,114.9"></path>
        <polygon class="st0" points="59.5,113.2 59.5,121.6 53,113.2 50.5,113.2 50.5,126.5 53.4,126.5 53.4,118 59.9,126.5 62.4,126.5
		62.4,113.2 	"></polygon>
        <path class="st0" d="M67.1,124.2c0.3-0.3,0.7-0.4,1.1-0.4c0.4,0,0.8,0.1,1.1,0.4c0.3,0.3,0.4,0.6,0.4,1c0,0.4-0.1,0.7-0.4,1
		c-0.3,0.3-0.7,0.4-1.1,0.4c-0.4,0-0.8-0.1-1.1-0.4c-0.3-0.3-0.4-0.6-0.4-1C66.7,124.9,66.8,124.5,67.1,124.2"></path>
        <path class="st0" d="M79.1,121.5c-0.4-0.3-1-0.5-1.6-0.7c-0.6-0.2-1.3-0.4-1.9-0.6c-0.6-0.2-1.2-0.7-1.6-1.2
		c-0.5-0.6-0.7-1.3-0.7-2.2c0-1.1,0.4-2,1.3-2.8c0.9-0.8,2-1.1,3.4-1.1c0.5,0,1.1,0.1,1.6,0.2c0.5,0.1,0.9,0.3,1.2,0.4
		c0.3,0.2,0.6,0.3,0.9,0.5c0.2,0.2,0.4,0.3,0.5,0.5l0.2,0.2l-1.7,1.8c-0.1-0.1-0.2-0.2-0.3-0.3c-0.1-0.1-0.4-0.3-0.8-0.5
		c-0.4-0.2-0.9-0.3-1.3-0.3c-0.5,0-1,0.1-1.3,0.4c-0.3,0.3-0.5,0.6-0.5,1c0,0.4,0.2,0.8,0.7,1.1c0.4,0.3,1,0.5,1.6,0.7
		c0.6,0.2,1.3,0.4,1.9,0.6c0.6,0.2,1.2,0.7,1.6,1.2c0.5,0.6,0.7,1.3,0.7,2.2c0,1.2-0.4,2.2-1.3,3c-0.9,0.8-2.1,1.2-3.7,1.2
		c-0.6,0-1.2-0.1-1.8-0.2c-0.6-0.2-1.1-0.3-1.4-0.5c-0.4-0.2-0.7-0.4-1-0.6c-0.3-0.2-0.5-0.4-0.6-0.5l-0.2-0.2l1.7-1.7
		c0.1,0.1,0.2,0.2,0.4,0.4c0.2,0.2,0.5,0.4,1.1,0.6c0.5,0.3,1.1,0.4,1.7,0.4c0.7,0,1.2-0.2,1.6-0.5c0.4-0.3,0.6-0.7,0.6-1.2
		C79.7,122.1,79.5,121.8,79.1,121.5"></path>
        <polygon class="st0" points="85.3,113.2 85.3,115.7 89.1,115.7 89.1,126.5 92,126.5 92,115.7 95.8,115.7 95.8,113.2 	"></polygon>
        <path class="st0" d="M102.2,122.9c0.8,0.8,1.8,1.3,3,1.3c1.2,0,2.2-0.4,3-1.3c0.8-0.8,1.2-1.9,1.2-3.1c0-1.2-0.4-2.3-1.2-3.1
		c-0.8-0.8-1.8-1.3-3-1.3c-1.2,0-2.2,0.4-3,1.3c-0.8,0.8-1.2,1.9-1.2,3.1C101,121.1,101.4,122.1,102.2,122.9 M100.1,114.9
		c1.4-1.4,3.1-2,5.1-2c2,0,3.7,0.7,5.1,2c1.4,1.4,2.1,3,2.1,4.9c0,1.9-0.7,3.5-2.1,4.9c-1.4,1.4-3.1,2-5.1,2c-2,0-3.7-0.7-5.1-2
		c-1.4-1.4-2.1-3-2.1-4.9C98,117.9,98.7,116.3,100.1,114.9"></path>
        <path class="st0" d="M119.7,115.7v3.8h2.7c0.6,0,1-0.2,1.4-0.5c0.4-0.4,0.6-0.8,0.6-1.3c0-0.5-0.2-1-0.6-1.3
		c-0.4-0.4-0.9-0.6-1.4-0.6H119.7z M122.4,113.2c1.4,0,2.5,0.4,3.4,1.3c0.9,0.9,1.3,1.9,1.3,3.2s-0.4,2.3-1.3,3.2
		c-0.9,0.9-2,1.3-3.4,1.3h-2.7v4.4h-2.9v-13.3H122.4z"></path>
        <path class="st0" d="M129.5,124.2c0.3-0.3,0.7-0.4,1.1-0.4c0.4,0,0.8,0.1,1.1,0.4c0.3,0.3,0.4,0.6,0.4,1c0,0.4-0.1,0.7-0.4,1
		c-0.3,0.3-0.7,0.4-1.1,0.4c-0.4,0-0.8-0.1-1.1-0.4c-0.3-0.3-0.4-0.6-0.4-1C129.1,124.9,129.2,124.5,129.5,124.2"></path>
        <polygon class="st0" points="148.1,113.2 143.5,119 138.9,113.2 136.4,113.2 136.4,126.5 139.2,126.5 139.2,117.6 143.5,123.1
		147.8,117.6 147.8,126.5 150.6,126.5 150.6,113.2 	"></polygon>
        <path class="st0" d="M163.5,123.3c0.6-0.6,0.9-1.3,0.9-2.2v-7.9h2.8v7.9c0,1.6-0.6,3-1.6,4.1c-1.1,1.1-2.5,1.6-4.1,1.6
		c-1.7,0-3-0.5-4.1-1.6c-1.1-1.1-1.7-2.4-1.7-4.1v-7.9h2.8v7.9c0,0.9,0.3,1.6,0.9,2.2c0.6,0.6,1.3,0.9,2.1,0.9
		C162.3,124.2,163,123.9,163.5,123.3"></path>
        <path class="st0" d="M177.4,121.5c-0.4-0.3-1-0.5-1.6-0.7c-0.6-0.2-1.3-0.4-1.9-0.6c-0.6-0.2-1.2-0.7-1.6-1.2
		c-0.5-0.6-0.7-1.3-0.7-2.2c0-1.1,0.4-2,1.3-2.8c0.9-0.8,2-1.1,3.4-1.1c0.5,0,1.1,0.1,1.6,0.2c0.5,0.1,0.9,0.3,1.2,0.4
		c0.3,0.2,0.6,0.3,0.9,0.5c0.2,0.2,0.4,0.3,0.5,0.5l0.2,0.2l-1.7,1.8c-0.1-0.1-0.2-0.2-0.3-0.3s-0.4-0.3-0.8-0.5
		c-0.4-0.2-0.9-0.3-1.3-0.3c-0.5,0-1,0.1-1.3,0.4c-0.3,0.3-0.5,0.6-0.5,1c0,0.4,0.2,0.8,0.7,1.1c0.4,0.3,1,0.5,1.6,0.7
		c0.6,0.2,1.3,0.4,1.9,0.6c0.6,0.2,1.2,0.7,1.6,1.2c0.5,0.6,0.7,1.3,0.7,2.2c0,1.2-0.4,2.2-1.3,3c-0.9,0.8-2.1,1.2-3.7,1.2
		c-0.6,0-1.2-0.1-1.8-0.2c-0.6-0.2-1.1-0.3-1.4-0.5c-0.4-0.2-0.7-0.4-1-0.6c-0.3-0.2-0.5-0.4-0.6-0.5l-0.2-0.2l1.7-1.7
		c0.1,0.1,0.2,0.2,0.4,0.4c0.2,0.2,0.5,0.4,1.1,0.6c0.5,0.3,1.1,0.4,1.7,0.4c0.7,0,1.2-0.2,1.6-0.5c0.4-0.3,0.6-0.7,0.6-1.2
		C178.1,122.1,177.8,121.8,177.4,121.5"></path>
        <rect x="185.4" y="113.2" class="st0" width="2.9" height="13.3"></rect>
        <path class="st0" d="M201.8,113.2c0.6,0.2,1.1,0.4,1.6,0.7c0.4,0.3,0.8,0.5,1.1,0.8c0.3,0.3,0.5,0.5,0.7,0.7l0.2,0.3l-1.8,1.8
		c0,0-0.1-0.1-0.2-0.2c-0.1-0.1-0.2-0.2-0.4-0.5c-0.2-0.2-0.5-0.4-0.7-0.6c-0.3-0.2-0.6-0.3-1-0.5c-0.4-0.1-0.9-0.2-1.3-0.2
		c-1.2,0-2.3,0.4-3.1,1.3c-0.8,0.8-1.3,1.9-1.3,3.1c0,1.2,0.4,2.3,1.3,3.1c0.8,0.8,1.9,1.3,3.1,1.3c0.5,0,0.9-0.1,1.4-0.2
		c0.4-0.1,0.8-0.3,1.1-0.5c0.3-0.2,0.5-0.4,0.8-0.6c0.2-0.2,0.4-0.3,0.5-0.5l0.1-0.2l1.7,1.8c0,0.1-0.1,0.2-0.2,0.3
		c-0.1,0.1-0.3,0.3-0.7,0.6c-0.3,0.3-0.7,0.6-1.1,0.8c-0.4,0.2-0.9,0.4-1.6,0.6c-0.6,0.2-1.3,0.3-2,0.3c-2,0-3.7-0.7-5.1-2
		c-1.4-1.4-2.1-3-2.1-4.9s0.7-3.5,2.1-4.9c1.4-1.4,3.1-2,5.1-2C200.5,112.9,201.2,113,201.8,113.2"></path>
        <path class="st0" d="M209,124.2c0.3-0.3,0.7-0.4,1.1-0.4c0.4,0,0.8,0.1,1.1,0.4c0.3,0.3,0.4,0.6,0.4,1c0,0.4-0.1,0.7-0.4,1
		c-0.3,0.3-0.7,0.4-1.1,0.4c-0.4,0-0.8-0.1-1.1-0.4c-0.3-0.3-0.4-0.6-0.4-1C208.5,124.9,208.7,124.5,209,124.2"></path>
        <path class="st1 logo-background" d="M199.2,96.6H27.5c-5,0-9.1-4.1-9.1-9.1L18.2,26c0-0.8-0.3-1.5-0.8-2.1L4.2,9.4C2,7,3.7,3.2,6.9,3.2h192.3
		c5.1,0,9.3,4.1,9.3,9.3v74.9C208.4,92.5,204.3,96.6,199.2,96.6" style="fill: rgb(255, 0, 109);"></path>
        <path class="st0" d="M199.2,99.8H27.5c-6.8,0-12.3-5.5-12.3-12.3L15,26L1.8,11.6c-1.9-2.1-2.3-4.9-1.2-7.4C1.7,1.6,4.1,0,6.9,0
		h192.3c6.9,0,12.5,5.6,12.5,12.5v74.9C211.7,94.2,206.1,99.8,199.2,99.8 M6.9,6.4c-0.1,0-0.3,0-0.5,0.3C6.3,7,6.5,7.2,6.6,7.2
		l13.2,14.5c1.1,1.2,1.7,2.7,1.7,4.3l0.2,61.5c0,3.2,2.7,5.9,5.9,5.9h171.6c3.3,0,6.1-2.7,6.1-6.1V12.5c0-3.3-2.7-6.1-6.1-6.1H6.9z"></path>
        <path class="st2" d="M42.9,25.1v5.8h4.4c0.9,0,1.6-0.3,2.2-0.9c0.6-0.6,0.9-1.3,0.9-2c0-0.8-0.3-1.4-0.9-2
		c-0.6-0.6-1.3-0.9-2.2-0.9H42.9z M47.7,18.5c3,0,5.4,0.9,7.2,2.7s2.8,4.1,2.8,6.8c0,2.7-0.9,5-2.8,6.8c-1.9,1.8-4.3,2.7-7.2,2.7
		h-4.8v8.1h-7.3v-27H47.7z"></path>
        <polygon class="st2" points="74.3,45.6 67.7,45.6 58.8,18.5 66.8,18.5 71.4,34.9 76.2,18.5 82.4,18.5 87.3,34.9 91.9,18.5
		99.8,18.5 90.9,45.6 84.3,45.6 79.3,29.9 	"></polygon>
        <path class="st2" d="M117.2,25.9c-0.5-0.5-1.2-0.8-2.1-0.8h-5v5.4h5c0.9,0,1.6-0.3,2.1-0.8s0.8-1.2,0.8-1.9
		C118,27,117.8,26.4,117.2,25.9 M102.8,18.5h12.8c2.9,0,5.2,0.9,7.1,2.7c1.9,1.8,2.8,4,2.8,6.6c0,1.1-0.2,2.1-0.5,3
		c-0.3,0.9-0.7,1.7-1.2,2.3c-0.5,0.6-0.9,1.1-1.4,1.5c-0.5,0.4-0.8,0.7-1.1,0.8l-0.5,0.3l5.6,9.8h-7.7L114,37h-3.9v8.5h-7.3V18.5z"></path>
        <polygon class="st0" points="155,45.6 147.6,45.6 147.6,35.1 137.8,35.1 137.8,45.6 130.4,45.6 130.4,18.5 137.8,18.5 137.8,28.6
		147.6,28.6 147.6,18.5 155,18.5 	"></polygon>
        <rect x="159.6" y="18.5" class="st0" width="7.3" height="27"></rect>
        <polygon class="st0" points="192.6,18.5 192.6,25.1 185,25.1 185,45.6 177.7,45.6 177.7,25.1 170.1,25.1 170.1,18.5 	"></polygon>
        <path class="st0" d="M50,61.1c-0.5-0.5-1.2-0.8-2.1-0.8h-5v5.4h5c0.9,0,1.6-0.3,2.1-0.8c0.5-0.5,0.8-1.2,0.8-1.9
		C50.8,62.3,50.6,61.6,50,61.1 M35.6,53.8h12.8c2.9,0,5.2,0.9,7.1,2.7c1.9,1.8,2.8,4,2.8,6.6c0,1.1-0.2,2.1-0.5,3
		c-0.3,0.9-0.7,1.7-1.2,2.3c-0.5,0.6-0.9,1.1-1.4,1.5c-0.5,0.4-0.8,0.7-1.1,0.8L53.5,71l5.6,9.8h-7.7l-4.6-8.5h-3.9v8.5h-7.3V53.8z"></path>
        <path class="st0" d="M75.3,61.3l-2.5,7.9h5L75.3,61.3z M70.8,75l-1.9,5.8H61l10.2-27.1h8.1l10.2,27.1h-7.9L79.7,75H70.8z"></path>
        <path class="st0" d="M99.7,60.4v13.9h3.1c1.9,0,3.5-0.7,4.9-2c1.4-1.3,2.1-3,2.1-5c0-2-0.6-3.7-1.9-5c-1.3-1.3-3-1.9-5-1.9H99.7z
		 M102.8,53.8c4.1,0,7.5,1.3,10.2,3.9c2.7,2.6,4.1,5.8,4.1,9.6c0,3.8-1.4,7-4.1,9.6c-2.7,2.6-6.1,3.9-10.2,3.9H92.4v-27H102.8z"></path>
        <rect x="121.6" y="53.8" class="st0" width="7.3" height="27"></rect>
        <path class="st0" d="M143.1,72.8c1.4,1.5,3.2,2.2,5.4,2.2s3.9-0.7,5.4-2.2c1.4-1.5,2.2-3.3,2.2-5.5c0-2.2-0.7-4.1-2.2-5.5
		c-1.4-1.5-3.2-2.2-5.4-2.2s-3.9,0.7-5.4,2.2c-1.4,1.5-2.2,3.3-2.2,5.5C141,69.5,141.7,71.4,143.1,72.8 M159.2,77.4
		c-2.9,2.8-6.5,4.2-10.7,4.2s-7.8-1.4-10.7-4.2s-4.4-6.2-4.4-10.1s1.5-7.3,4.4-10.1c2.9-2.8,6.5-4.2,10.7-4.2s7.8,1.4,10.7,4.2
		c2.9,2.8,4.4,6.2,4.4,10.1S162.1,74.6,159.2,77.4"></path>
        <path class="st2" d="M169.4,62.8c-0.4-1.7-0.8-3.1-1.3-4.4c-0.5-1.2-1-2.3-1.5-3.3c-0.5-1-0.9-1.7-1.3-2.2l-0.5-0.7l5-3.1
		c0.2,0.2,0.4,0.5,0.8,0.9c0.3,0.4,0.9,1.2,1.7,2.5c0.8,1.3,1.5,2.6,2.1,3.9c0.6,1.4,1.2,3.1,1.7,5.2c0.5,2.1,0.8,4.2,0.8,6.3
		c0,2.1-0.2,4.2-0.7,6.2c-0.5,2.1-1.1,3.8-1.7,5.3c-0.7,1.4-1.4,2.7-2,3.9c-0.7,1.1-1.3,2-1.8,2.5l-0.7,0.8l-5-3.1
		c0.1-0.2,0.3-0.4,0.6-0.8c0.2-0.3,0.7-1.1,1.3-2.2c0.6-1.1,1.1-2.2,1.6-3.4c0.5-1.2,0.9-2.6,1.3-4.3c0.4-1.7,0.6-3.4,0.6-5
		C169.9,66.2,169.8,64.5,169.4,62.8"></path>
        <path class="st2" d="M182.8,62.8c-0.4-1.7-0.8-3.1-1.3-4.4c-0.5-1.2-1-2.3-1.5-3.3c-0.5-1-0.9-1.7-1.3-2.2l-0.5-0.7l5-3.1
		c0.2,0.2,0.4,0.5,0.8,0.9c0.3,0.4,0.9,1.2,1.7,2.5c0.8,1.3,1.5,2.6,2.1,3.9c0.6,1.4,1.2,3.1,1.7,5.2c0.5,2.1,0.8,4.2,0.8,6.3
		c0,2.1-0.2,4.2-0.7,6.2c-0.5,2.1-1.1,3.8-1.7,5.3c-0.7,1.4-1.4,2.7-2,3.9c-0.7,1.1-1.3,2-1.8,2.5l-0.7,0.8l-5-3.1
		c0.1-0.2,0.3-0.4,0.6-0.8c0.2-0.3,0.7-1.1,1.3-2.2c0.6-1.1,1.1-2.2,1.6-3.4c0.5-1.2,0.9-2.6,1.3-4.3c0.4-1.7,0.6-3.4,0.6-5
		C183.4,66.2,183.2,64.5,182.8,62.8"></path>
                        </g>
</svg>