<?xml version="1.0" encoding="UTF-8"?>
<!-- Generator: Adobe Illustrator 19.0.0, SVG Export Plug-In . SVG Version: 6.00 Build 0)  -->
<svg version="1.1" id="Ebene_1" xmlns="http://www.w3.org/2000/svg" xmlns:xlink="http://www.w3.org/1999/xlink" x="0px" y="0px" viewBox="0 0 310 310.9" style="enable-background:new 0 0 310 310.9;" xml:space="preserve">
<style type="text/css">
	.st0{fill:#FFFFFF;}
	.st1{fill:none;stroke:#E30613;stroke-width:4;}
	.st2{fill:#E30613;}
	.st3{fill:#3C3C3B;}
</style>
<g>
	<path class="st0" d="M30.3,13.9c0,0-17,0-17,17v248.8c0,0,0,17.7,17.7,17.7h265.8V31.6c0,0,0-17.7-17.7-17.7H30.3L30.3,13.9z"/>
	<path class="st1" d="M30.3,13.9c0,0-17,0-17,17v248.8c0,0,0,17.7,17.7,17.7h265.8V31.6c0,0,0-17.7-17.7-17.7H30.3L30.3,13.9z"/>
	<path class="st2" d="M128.1,98.2c17-12.6,17-29.6,9-40.8C126.7,43,105.9,36.3,51.4,41.2v131.7c29.1,1.3,51.4,1.1,68.1-4.6   C157.7,155.1,159.7,107.6,128.1,98.2L128.1,98.2z M85.2,57.1c46.5-4.5,49.4,38.5,0,36.2V57.1L85.2,57.1z M85.2,152.4v-44.4   C138.8,104.7,136.5,151.5,85.2,152.4L85.2,152.4z"/>
	<path class="st2" d="M239.3,98.2c17-12.6,17-29.6,9-40.8c-10.3-14.4-31.2-21.1-85.7-16.2v131.7c29.1,1.3,51.4,1.1,68.1-4.6   C268.9,155.1,270.9,107.6,239.3,98.2L239.3,98.2z M196.4,57.1c46.5-4.5,49.4,38.5,0,36.2V57.1L196.4,57.1z M196.4,152.4v-44.4   C250,104.7,247.7,151.5,196.4,152.4L196.4,152.4z"/>
	<path class="st3" d="M61.3,227.2v-13.5h6.4l8.2,13.5h11.1l-9.4-15.6c1.1-0.6,2.1-1.3,2.9-2.2c0.9-0.8,1.6-1.8,2.2-2.9   c0.6-1.1,1.1-2.2,1.4-3.4c0.3-1.2,0.5-2.4,0.5-3.7c0-1.7-0.4-3.4-1.1-5.1c-0.7-1.7-1.7-3.2-2.9-4.5c-1.2-1.3-2.7-2.4-4.4-3.2   c-1.7-0.8-3.6-1.2-5.6-1.2H51.5v41.9H61.3L61.3,227.2z M61.3,193.8h8.7c1.1,0,2.2,0.5,3.1,1.5c1,1,1.4,2.4,1.4,4.1   c0,1.7-0.4,3.1-1.3,4.2c-0.8,1.1-1.8,1.6-3,1.6h-9V193.8L61.3,193.8z M95.1,227.2h10.1l3.3-9.4h13.3l3.3,9.4h10.1l-15.6-41.9h-8.9   L95.1,227.2L95.1,227.2z M110,211.2l5.1-14.8l5,14.8H110L110,211.2z M162.6,227.2c3.2,0,6.1-0.5,8.8-1.5c2.6-1,4.9-2.4,6.7-4.2   c1.9-1.8,3.3-4,4.3-6.6c1-2.6,1.5-5.5,1.5-8.6c0-2.9-0.5-5.6-1.4-8.1c-0.9-2.5-2.2-4.7-4-6.6c-1.8-1.9-4-3.4-6.7-4.5   c-2.6-1.1-5.7-1.6-9.3-1.6h-16v41.9H162.6L162.6,227.2z M173.1,211.2c-0.5,1.5-1.2,2.8-2.2,4c-0.9,1.1-2.1,2-3.5,2.6   c-1.4,0.6-3,0.9-4.8,0.9h-6.1v-24.9h6.1c1.8,0,3.4,0.3,4.8,0.9c1.4,0.6,2.6,1.4,3.6,2.5c1,1.1,1.7,2.4,2.2,3.9   c0.5,1.5,0.8,3.2,0.8,5C173.8,208,173.6,209.7,173.1,211.2L173.1,211.2z M205.6,227.2v-41.9h-9.9v41.9H205.6L205.6,227.2z"/>
	<path class="st3" d="M261.2,206.3c0.1-10.6-7-21.3-21.2-21.3c-14.3,0-21.2,10.7-21.2,21.3c0,10.6,6.7,20.9,21.2,20.9   C254.6,227.2,261.1,216.7,261.2,206.3L261.2,206.3z M254.4,206.1L231,219.2V193L254.4,206.1L254.4,206.1z"/>
	<polygon class="st2" points="24.3,241.4 24.3,272.6 285.7,272.6 285.7,241.4 24.3,241.4  "/>
	<path class="st0" d="M53.9,245.6h-4.6l-6.6,18l-6.6-18h-4.6l9.1,23.2h4.3L53.9,245.6L53.9,245.6z M62.1,252.1   c-5.2,0-8.4,3.8-8.4,8.5c0,4.7,3.2,8.5,8.4,8.5c5.3,0,8.5-3.8,8.5-8.5C70.6,255.9,67.2,252.1,62.1,252.1L62.1,252.1z M62.1,255.7   c2.7,0,4.4,2.4,4.4,4.8c0,2.5-1.5,4.8-4.4,4.8c-2.9,0-4.4-2.3-4.4-4.8C57.7,258.1,59.2,255.7,62.1,255.7L62.1,255.7z M74.5,245.6   v23h4v-23H74.5L74.5,245.6z M83.8,245.6v23h4v-23H83.8L83.8,245.6z M109.5,255.8c2.5,0,4.7,1.9,4.7,4.7c0,2.9-2.2,4.8-4.7,4.8   c-2.6,0-4.6-1.9-4.6-4.8C104.9,257.6,106.9,255.8,109.5,255.8L109.5,255.8z M114.5,245.6v9c-1-1.7-3.6-2.6-5.3-2.6   c-4.7,0-8.3,2.9-8.3,8.5c0,5.3,3.6,8.5,8.4,8.5c2,0,4-0.7,5.2-2.6l0.3,2.2h3.8v-23H114.5L114.5,245.6z M127.8,252.3v16.3h-4v-16.3   H127.8L127.8,252.3z M123.4,247.8c0,3.1,4.7,3.1,4.7,0S123.4,244.7,123.4,247.8L123.4,247.8z M148.7,261.9c0.6-6.7-2.8-10-8.2-10   c-5.3,0-8.6,3.6-8.6,8.5c0,5.2,3.3,8.7,8.9,8.7c2.5,0,5.3-0.9,7-2.6l-2.6-2.5c-0.9,1-2.9,1.5-4.3,1.5c-2.8,0-4.6-1.4-4.8-3.5H148.7   L148.7,261.9z M136.1,258.6c0.6-2.1,2.4-3.2,4.5-3.2c2.3,0,4,1.1,4.2,3.2H136.1L136.1,258.6z M182.6,245.6H178l-6.6,18l-6.6-18   h-4.6l9.1,23.2h4.3L182.6,245.6L182.6,245.6z M189.4,252.3v16.3h-4v-16.3H189.4L189.4,252.3z M185,247.8c0,3.1,4.7,3.1,4.7,0   S185,244.7,185,247.8L185,247.8z M209.7,261.9c0.6-6.7-2.8-10-8.2-10c-5.3,0-8.6,3.6-8.6,8.5c0,5.2,3.3,8.7,8.9,8.7   c2.5,0,5.3-0.9,7-2.6l-2.6-2.5c-0.9,1-2.9,1.5-4.3,1.5c-2.8,0-4.6-1.4-4.8-3.5H209.7L209.7,261.9z M197,258.6   c0.6-2.1,2.4-3.2,4.5-3.2c2.3,0,4,1.1,4.2,3.2H197L197,258.6z M213.9,245.6v23h4v-23H213.9L213.9,245.6z M228.6,268.6v-12.5h4.8   v-3.5h-4.8v-1.1c0-2,1.1-2.9,2.4-2.9c0.8,0,1.6,0.3,2.5,0.9l1.5-3c-1.3-0.9-2.8-1.3-4.2-1.3c-3.3,0-6.2,2-6.2,6.4v1.1h-3v3.5h3   v12.5H228.6L228.6,268.6z M249.1,254.6c-0.9-1.6-3-2.6-5.2-2.6c-4.7,0-8.5,2.9-8.5,8.5c0,5.7,3.6,8.7,8.4,8.6c1.8,0,4.3-1,5.3-2.9   l0.2,2.4h3.8v-16.2h-3.9L249.1,254.6L249.1,254.6z M244.3,255.6c6.3,0,6.3,9.9,0,9.9c-2.7,0-4.8-1.8-4.8-4.9   C239.5,257.4,241.6,255.6,244.3,255.6L244.3,255.6z M258.3,245.6v23h4v-23H258.3L258.3,245.6z M269.3,248.2v4.2h-3v3.5h3v7   c0,4.1,2.3,6.1,5.8,5.9c1.2,0,2.2-0.2,3.3-0.7l-1.1-3.4c-0.6,0.3-1.3,0.5-1.9,0.5c-1.3,0-2.1-0.8-2.1-2.3v-7h4.5v-3.5h-4.5v-4.6   L269.3,248.2L269.3,248.2z"/>
</g>
</svg>