<?xml version="1.0" encoding="UTF-8" standalone="no"?>
<!-- Generator: Adobe Illustrator 24.0.0, SVG Export Plug-In . SVG Version: 6.00 Build 0)  -->

<svg
   xmlns:dc="http://purl.org/dc/elements/1.1/"
   xmlns:cc="http://creativecommons.org/ns#"
   xmlns:rdf="http://www.w3.org/1999/02/22-rdf-syntax-ns#"
   xmlns:svg="http://www.w3.org/2000/svg"
   xmlns="http://www.w3.org/2000/svg"
   xmlns:sodipodi="http://sodipodi.sourceforge.net/DTD/sodipodi-0.dtd"
   xmlns:inkscape="http://www.inkscape.org/namespaces/inkscape"
   version="1.1"
   id="Layer_1"
   x="0px"
   y="0px"
   viewBox="0 0 127.54 45.45"
   style="enable-background:new 0 0 127.54 45.45;"
   xml:space="preserve"
   sodipodi:docname="logo.svg"
   inkscape:version="0.92.4 (5da689c313, 2019-01-14)"><metadata
   id="metadata31"><rdf:RDF><cc:Work
       rdf:about=""><dc:format>image/svg+xml</dc:format><dc:type
         rdf:resource="http://purl.org/dc/dcmitype/StillImage" /></cc:Work></rdf:RDF></metadata><defs
   id="defs29" /><sodipodi:namedview
   pagecolor="#ffffff"
   bordercolor="#666666"
   borderopacity="1"
   objecttolerance="10"
   gridtolerance="10"
   guidetolerance="10"
   inkscape:pageopacity="0"
   inkscape:pageshadow="2"
   inkscape:window-width="640"
   inkscape:window-height="480"
   id="namedview27"
   showgrid="false"
   inkscape:zoom="2.7442371"
   inkscape:cx="63.77"
   inkscape:cy="22.725"
   inkscape:window-x="0"
   inkscape:window-y="0"
   inkscape:window-maximized="0"
   inkscape:current-layer="Layer_1" />
<style
   type="text/css"
   id="style2">
	.st0{fill:#231F20;}
	.st1{fill:#F05A28;}
	.st2{fill:#D73D95;}
	.st3{fill:#262261;}
	.st4{fill:#25A9E0;}
</style>
<g
   id="g24">
	<g
   id="g12">
		<path
   class="st0"
   d="M20.79,45.03h-4.91l-2.92-9.23H12.9l-2.86,9.23H5.12L0,30.19h5.27l2.56,9.38h0.09l2.65-9.38h4.91l2.74,9.38    h0.06l2.59-9.38h5.06L20.79,45.03z"
   id="path4"
   style="fill:#ffffff" />
		<path
   class="st0"
   d="M37.06,26.11c-0.18-0.06-0.39-0.11-0.63-0.15c-0.24-0.04-0.48-0.06-0.72-0.06c-0.46,0-0.82,0.08-1.1,0.24    c-0.28,0.16-0.5,0.37-0.65,0.64c-0.16,0.27-0.27,0.57-0.33,0.91c-0.06,0.34-0.09,0.68-0.09,1.01v1.49h3.31v3.63h-3.31v11.2h-4.89    v-11.2h-5.43l2.72-3.63h2.71v-1.43c0-0.91,0.1-1.78,0.3-2.61c0.2-0.82,0.54-1.55,1.03-2.17c0.49-0.63,1.14-1.12,1.97-1.49    c0.82-0.37,1.85-0.55,3.08-0.55c0.42,0,0.83,0.03,1.24,0.07c0.41,0.05,0.78,0.12,1.12,0.22L37.06,26.11z"
   id="path6"
   style="fill:#ffffff" />
		<path
   class="st0"
   d="M49.93,45.03v-1.94h-0.06c-0.48,0.76-1.16,1.34-2.04,1.74c-0.88,0.41-1.82,0.61-2.82,0.61    c-1.11,0-2.11-0.22-2.98-0.66c-0.87-0.44-1.61-1.02-2.22-1.74c-0.61-0.72-1.07-1.56-1.38-2.52c-0.32-0.95-0.48-1.95-0.48-2.98    c0-1.03,0.16-2.02,0.49-2.96c0.33-0.94,0.79-1.77,1.4-2.49c0.61-0.72,1.34-1.28,2.2-1.7c0.86-0.42,1.83-0.63,2.9-0.63    c1.09,0,2.02,0.21,2.77,0.63c0.75,0.42,1.34,0.87,1.76,1.37h0.06v-9.26h4.89v22.52H49.93z M49.75,37.58c0-0.48-0.08-0.94-0.25-1.4    c-0.17-0.46-0.41-0.86-0.71-1.22c-0.31-0.36-0.68-0.64-1.12-0.86c-0.44-0.22-0.93-0.33-1.49-0.33c-0.58,0-1.08,0.11-1.52,0.33    c-0.44,0.22-0.8,0.5-1.1,0.85c-0.3,0.35-0.52,0.75-0.67,1.21s-0.22,0.92-0.22,1.4c0,0.48,0.07,0.95,0.22,1.42    c0.15,0.47,0.37,0.88,0.67,1.24c0.3,0.36,0.67,0.65,1.1,0.86c0.44,0.22,0.94,0.33,1.52,0.33c0.56,0,1.05-0.11,1.49-0.33    c0.44-0.22,0.81-0.51,1.12-0.86c0.31-0.36,0.55-0.76,0.71-1.22C49.66,38.53,49.75,38.06,49.75,37.58z"
   id="path8"
   style="fill:#ffffff" />
		<path
   class="st0"
   d="M69.53,45.03v-1.94h-0.06c-0.48,0.76-1.16,1.34-2.04,1.74c-0.88,0.41-1.82,0.61-2.82,0.61    c-1.11,0-2.11-0.22-2.98-0.66c-0.87-0.44-1.61-1.02-2.22-1.74c-0.61-0.72-1.07-1.56-1.38-2.52c-0.32-0.95-0.48-1.95-0.48-2.98    c0-1.03,0.16-2.02,0.49-2.96c0.33-0.94,0.79-1.77,1.4-2.49c0.61-0.72,1.34-1.28,2.2-1.7c0.86-0.42,1.83-0.63,2.9-0.63    c1.09,0,2.02,0.21,2.77,0.63c0.75,0.42,1.34,0.87,1.76,1.37h0.06v-9.26h4.89v22.52H69.53z M69.35,37.58c0-0.48-0.08-0.94-0.25-1.4    c-0.17-0.46-0.41-0.86-0.71-1.22c-0.31-0.36-0.68-0.64-1.12-0.86c-0.44-0.22-0.93-0.33-1.49-0.33c-0.58,0-1.08,0.11-1.52,0.33    c-0.44,0.22-0.8,0.5-1.1,0.85c-0.3,0.35-0.52,0.75-0.67,1.21c-0.15,0.46-0.22,0.92-0.22,1.4c0,0.48,0.07,0.95,0.22,1.42    c0.15,0.47,0.37,0.88,0.67,1.24c0.3,0.36,0.67,0.65,1.1,0.86c0.44,0.22,0.94,0.33,1.52,0.33c0.56,0,1.05-0.11,1.49-0.33    c0.44-0.22,0.81-0.51,1.12-0.86c0.31-0.36,0.55-0.76,0.71-1.22C69.26,38.53,69.35,38.06,69.35,37.58z"
   id="path10"
   style="fill:#ffffff" />
	</g>
	<g
   id="g22">
		<path
   class="st1"
   d="M82.44,33.82c0,6.23,5.05,11.27,11.27,11.27c6.23,0,11.27-5.05,11.27-11.27s-5.05-11.27-11.27-11.27    c-6.23,0-11.27-5.05-11.27-11.27C82.44,11.27,82.44,27.59,82.44,33.82z"
   id="path14" />
		<path
   class="st2"
   d="M93.72,0c-6.23,0-11.27,5.05-11.27,11.27s5.05,11.27,11.27,11.27c6.23,0,11.27-5.05,11.27-11.27    S110.04,0,116.26,0C116.26,0,99.94,0,93.72,0z"
   id="path16" />
		<path
   class="st3"
   d="M127.54,11.27c0-6.23-5.05-11.27-11.27-11.27s-11.27,5.05-11.27,11.27s5.05,11.27,11.27,11.27    s11.27,5.05,11.27,11.27C127.54,33.82,127.54,17.5,127.54,11.27z"
   id="path18" />
		<path
   class="st4"
   d="M116.26,45.09c6.23,0,11.27-5.05,11.27-11.27s-5.05-11.27-11.27-11.27s-11.27,5.05-11.27,11.27    s-5.05,11.27-11.27,11.27C93.72,45.09,110.04,45.09,116.26,45.09z"
   id="path20" />
	</g>
</g>
</svg>