<svg xmlns="http://www.w3.org/2000/svg" width="960" height="600" viewBox="0 0 960 600"><defs><style>.a{fill:#fff}.b{fill:#7ad7ff}.c{fill:#333132}.d{fill:#d1d3d4}.e{fill:#6acff6}</style></defs><title>the-bridge-sm</title><path class="a" d="M828.41 528.83c5.39 1.86 10.56 3.68 15.43 5.45l82.34 29.83V229.33H851v-110.7h-82.77V31.55h-121.1v87.09H561v35H399v-35h-82.78V31.55h-121.1v87.09H109v110.7H33.81v334.77l82.34-29.83c5-1.83 10.28-3.68 15.64-5.52 0 0 124.91-72.87 339.21-72.87s357.41 72.94 357.41 72.94z"/><path class="b" d="M146.46 150.74h46.21v16.09h-46.21zM232.37 63.65h46.62v26.29h-46.62zM315.1 150.74h46.69v16.09H315.1zM599.39 149.85h46.21v16.09h-46.21zM685.3 62.76h46.62v26.29H685.3zM768.04 149.85h46.69v16.09h-46.69z"/><g><path class="c" d="M894.17 261.44H65.85v257.07l39.4-14.27q16.52-6 33.26-11.45s20.56-8.5 56.81-19.15 252.44-88.77 538.1-9.75q3.71 1 7.42 2.07l1.34.37c24 6.85 48.16 14.84 72.42 24.2q20.19 6.48 40.17 13.69l39.4 14.27zM146.46 182.12h46.21v58.83h-46.21zM232.37 105.23h46.62v61.6h-46.62zM232.37 182.12h46.62v58.83h-46.62zM315.1 182.12h46.69v58.83H315.1zM599.39 181.23h46.21v58.83h-46.21zM685.3 104.34h46.62v61.6H685.3zM685.3 181.23h46.62v58.83H685.3zM768.04 181.23h46.69v58.83h-46.69z"/></g><path class="d" d="M131.79 528.75l-3.23-5 1.74-2.52-3.82-8.49 8.58-3.54c.86-.35 21.34-8.77 57.49-19.4 4.91-1.71 66.91-22.82 163.57-34.87a1037.71 1037.71 0 0 1 173.09-7.12C600.49 451 670 461.76 735.81 480c2.48.68 5 1.38 7.48 2.09l7.17 2.07c23 6.73 45.6 14.38 67.38 22.78l5.76 2.22v6.18l-1.18 2.65 6 10.88c-23.11-8.91-64.27-22.1-88.71-29.08l-1.65-.47c-2.32-.66-4.67-1.32-7-2-64.42-17.82-132.47-28.41-202.27-31.48a1019 1019 0 0 0-169.89 6.92c-96.86 12-160 33.92-160.58 34.13l-.44.14c-35.31 10.37-65.88 21.64-66.09 21.72z"/><path class="d" d="M814.56 515.08l2.68-8.47 8.43 2.83c8.56 2.87 16.68 5.7 24.14 8.41l58.91 21.35V246.8h-75.2V136.1h-82.77V49H664.6v87.1h-86.12v35h-197v-35h-82.73V49h-86.16v87.1h-86.12v110.7H51.28v292.4l58.92-21.35c7.75-2.81 15.94-5.66 24.33-8.49l8.43-2.83 2.68 8.48-13.86 13.75c-5.36 1.85-10.6 3.69-15.64 5.52l-82.33 29.83V229.33H109v-110.7h86.12V31.55h121.1v87.09H399v35h162v-35h86.12V31.55h121.11v87.09H851v110.7h75.19v334.77l-82.34-29.83a851.7 851.7 0 0 0-15.44-5.45z"/><g><path class="e" d="M192.28 443.87q-48.76 13-97 30.51V292q46.58-.2 93.17-.35c11.58 0 20.2 3.43 25.84 10.08s8.42 16.68 8.31 30.29c-.06 7.72-1.35 14.15-3.86 19.39a32.74 32.74 0 0 1-11.64 13.12c6.51.72 11.24 3.68 14.21 8.83s4.41 12.86 4.32 23.24c-.11 13.6-2.8 24-8.06 31.45s-13.73 12.72-25.29 15.82zm-10.35-91.76a7.76 7.76 0 0 0 6.05-3.91q2.1-3.46 2.14-9.61c0-3.77-.71-6.75-2.2-9a6.24 6.24 0 0 0-5.84-3.13q-27.72 1.79-55.4 3.91l-.07 28.37q27.63-3.59 55.32-6.63zm2.48 58.9a9.42 9.42 0 0 0 6.42-5c1.51-2.73 2.29-6.33 2.32-10.82 0-4.09-.74-7.2-2.29-9.36a6 6 0 0 0-6.28-2.62Q155.5 388 126.52 393.7l-.08 30.91q28.92-7.41 57.97-13.61zM328.56 291.3c16.4 0 27.54 2.86 33.43 8.48s8.79 15.87 8.7 30.8c-.07 10.37-1.44 18.14-4.12 23.35s-7.15 8.9-13.39 11.09c5.47 1.14 9.57 3.55 12.29 7.18s4.06 8.48 4 14.56l-.16 24.61Q353.42 413 337.54 415l.15-18.87q.06-7.31-2.82-9.76c-1.92-1.63-5.71-2.18-11.38-1.57q-23.63 2.54-47.21 5.85l-.28 34.19q-15.86 3-31.69 6.42l1.15-139.79q41.54-.1 83.1-.17zm-1.43 31.21q-25.15.92-50.27 2.14l-.28 32.62q25.14-2.36 50.31-4.14 6.33-.45 8.91-4.15t2.64-12.91q.06-7.31-2.63-10.53c-1.81-2.15-4.7-3.17-8.69-3.03zM423.47 407.23q-15.92.82-31.84 2.11l.65-118.12h31.62zM537.16 291.19c15.8 0 27.3 3.14 34.52 9.53s10.88 16.64 11 30.6l.25 41.06q.12 19.9-8.49 28.34c-5.74 5.63-14.91 7.87-27.51 7.09q-50.35-3.08-100.76-1.52l.26-115.11q45.36-.02 90.73.01zm-9.57 28.49q-24.82-.28-49.64-.27v58.49q26.91 0 53.82.93c6.75.25 11.69-1.06 14.79-4s4.64-7.71 4.61-14.31q0-10.28-.09-20.57c0-6.86-1.95-11.94-5.74-15.22s-9.72-4.95-17.74-5.04zM699.28 340.68v-.37c-.05-6.3-1.53-10.7-4.42-13.16s-9.39-3.93-19.49-4.37q-9.21-.41-18.42-.78c-10.8-.43-17.71.92-20.72 3.94s-4.48 9.59-4.4 19.73l.14 17.39c.07 9 1.84 15.36 5.31 19.1s10.26 6.2 20.38 7.47q9.16 1.15 18.31 2.41c9.09 1.26 15.34 1.14 18.75-.51s5.09-5.15 5-10.47q0-1.1-.31-3.7v-.46q-18.59-2.38-37.21-4.35l-.2-26.24q35.06 2.54 70.05 6.05l.37 47.15c.12 13.49-3.42 22.4-10.55 26.49s-19.65 4-37.56.56q-17.6-3.35-35.24-6.12c-10.83-1.7-18.84-3.51-24-5.58a37.75 37.75 0 0 1-13.18-8.65 39.91 39.91 0 0 1-9.25-15.23c-1.95-5.8-2.95-13-3-21.53l-.23-33c-.12-17.34 3.31-29.34 10.28-36.21s19.69-10.37 38.17-10.39h35.3c11.4 0 19.81.66 25.24 2s9.71 3.73 12.84 7.06 5.7 8.15 7.3 14.06 2.43 13.32 2.5 22.18v4.91c0 1.15 0 2.21-.08 3.17q-15.84-1.37-31.68-2.55zM863.53 336.34q-40.59-3.66-81.28-6.55l.14 23.63q38.28 4.32 76.44 9.74v37.9q-38-8.22-76.27-14.77l.14 23.94q41.17 8.82 82.06 20v44.1a1171.52 1171.52 0 0 0-113.22-34.71l-1.07-148.09q56.52.17 113 .41.06 22.23.06 44.4z"/><g><path class="a" d="M605.32 354l-.12-17.22c-.11-15.73 2.83-26.66 8.73-32.48s17.86-8.88 34.54-8.89h35.29c11 0 19 .63 24 1.88 4.51 1.15 7.89 3 10.34 5.59 2.67 2.82 4.71 6.81 6.08 11.86 1.47 5.45 2.25 12.47 2.32 20.87v2.4c-7.21-.6-14.47-1.18-21.67-1.73-.7-5.62-2.7-9.86-6-12.65-3.89-3.32-11.08-5.1-22.63-5.61q-9.22-.41-18.44-.78-2.08-.08-4-.08c-10.31 0-16.86 1.76-20.63 5.54-4.13 4.16-6 11.6-5.91 23.43l.06 7.88zM756.74 354l-.41-56.79q51.32.16 102.63.37v33.52c-25.12-2.23-50.56-4.26-75.73-6l-5.58-.4.17 29.34zM191 354a14.29 14.29 0 0 0 2.08-2.67c1.92-3.15 2.86-7.17 2.89-12.27 0-4.79-1-8.79-3.07-11.89a11.49 11.49 0 0 0-9.7-5.46h-.79c-18.49 1.19-37.15 2.51-55.46 3.92l-4.78.37-.07 28H101v-56.43q44-.18 88-.33c9.9 0 17.22 2.78 21.87 8.25 4.79 5.66 7.17 14.71 7.08 26.89-.05 6.88-1.18 12.66-3.35 17.19A25.75 25.75 0 0 1 212 354zM556.95 354l-.06-13.64c0-8.41-2.58-14.84-7.54-19.12-4.8-4.14-11.69-6.2-21.06-6.31-15.77-.18-31.77-.27-47.54-.27h-7.35V354h-21.32l.13-57.21h85.57c14.47 0 24.93 2.78 31.09 8.23s9.14 14.34 9.22 26.75l.14 22.21zM339.34 354a13.43 13.43 0 0 0 1.33-1.63c2.35-3.38 3.51-8.56 3.57-15.83 0-6.19-1.21-10.73-3.83-13.89-1.86-2.24-5.44-4.91-11.92-4.91h-.92c-16.76.61-33.69 1.33-50.34 2.14l-4.89.24L272 354h-21.25l.47-56.92q39-.1 78-.16c18.59 0 26.48 3.83 29.85 7 4.79 4.59 7.18 13.68 7.09 27-.06 9.48-1.26 16.55-3.55 21a15.62 15.62 0 0 1-1.23 2zM397.75 353.99l.31-57.18 21.25-.01-.21 57.19h-21.35z"/></g><g><path class="c" d="M407.68 240.06v-40H393.1v-14.35h45.55v14.34h-14.5v40zM488.6 240.06v-20.78h-19.48v20.78h-16.46v-54.35h16.46v19.23h19.48v-19.23h16.46v54.35zM522 240.06v-54.35h41.23v14.34h-24.76v5.38h24.2v14.34h-24.2v5.95h24.77v14.34z"/></g></g></svg>