<?xml version="1.0" encoding="UTF-8"?>
<!-- Generator: Adobe Illustrator 16.0.0, SVG Export Plug-In . SVG Version: 6.00 Build 0)  -->
<!DOCTYPE svg PUBLIC "-//W3C//DTD SVG 1.1//EN" "http://www.w3.org/Graphics/SVG/1.1/DTD/svg11.dtd">
<svg version="1.1" id="Layer_1" xmlns="http://www.w3.org/2000/svg" xmlns:xlink="http://www.w3.org/1999/xlink" x="0px" y="0px" width="300px" height="300px" viewBox="303 203 300 300" enable-background="new 303 203 300 300" xml:space="preserve">
<g>
	
		<linearGradient id="SVGID_1_" gradientUnits="userSpaceOnUse" x1="-1381.792" y1="1515.9648" x2="-1096.209" y2="1515.9648" gradientTransform="matrix(1 0 0 -1 1692 1860.7109)">
		<stop offset="0" style="stop-color:#ED1C24"/>
		<stop offset="0.3789" style="stop-color:#ED2025"/>
		<stop offset="0.5154" style="stop-color:#EE2B27"/>
		<stop offset="0.6127" style="stop-color:#EF3B2D"/>
		<stop offset="0.6914" style="stop-color:#F04D37"/>
		<stop offset="0.7589" style="stop-color:#F26246"/>
		<stop offset="0.8186" style="stop-color:#F4785A"/>
		<stop offset="0.8726" style="stop-color:#F69073"/>
		<stop offset="0.9223" style="stop-color:#F9AD93"/>
		<stop offset="0.9664" style="stop-color:#FCCEBB"/>
		<stop offset="1" style="stop-color:#FEEBE2"/>
	</linearGradient>
	<path fill="url(#SVGID_1_)" d="M473.33,253.046c0.367,0.424,3.367-8.248,3.367-8.248l13.611-9.35l-7.951,19.03   c68.42,12.212,113.434,53.389,113.434,98.23c0,57.102-69.451,101.336-166.835,101.336c-25.388,0-57.134-3.208-78.949-8.892   l-0.273-0.16c9.53,0.653,19.316-0.768,29.26-1.145c89.765-3.197,194.548-39.504,194.548-88.23c0-33.797-37.91-64.972-99.765-79.396   l-49.619,117.617v0.035l42.081-119.313c-25.605-5.247-55.004-7.71-87.244-6.474c-24.197,0.929-47.408,4.125-68.786,7.791   l1.672-0.022c29.984-13.816,80.796-22.42,109.711-24.403C439.842,250.193,457.175,250.835,473.33,253.046"/>
	<g>
		<path fill="#7C2A90" stroke="#7C2A90" stroke-width="0.0628" d="M399.663,398.914h-0.435c-1.525,0.114-2.956,0.768-4.354,1.938    c-1.387,1.18-2.075,2.359-2.075,3.552v11.205h-6.724v-22.881h6.105v4.057c1.479-1.467,2.739-2.521,3.794-3.117    c1.041-0.63,2.085-0.939,3.149-0.939h0.539V398.914L399.663,398.914z"/>
		<path fill="#7C2A90" stroke="#7C2A90" stroke-width="0.0628" d="M424.053,415.606h-12.566c-2.544,0-4.605-0.537-6.187-1.626    c-1.582-1.101-2.361-2.785-2.361-5.076c0-2.497,0.803-4.205,2.395-5.132c1.592-0.917,3.196-1.548,4.824-1.856    c1.604-0.333,2.772-0.538,3.505-0.664c0.711-0.127,1.455-0.264,2.2-0.379c1.158-0.321,1.743-0.95,1.743-1.878    c0-0.448-0.184-0.825-0.527-1.112c-0.368-0.321-0.847-0.471-1.456-0.471h-10.461v-4.686h12.076c2.063,0,3.711,0.47,4.949,1.376    c1.249,0.917,1.867,2.223,1.867,3.907L424.053,415.606L424.053,415.606z M417.249,410.223v-5.213l-5.936,1.707    c-0.674,0.16-1.157,0.389-1.477,0.698c-0.299,0.299-0.46,0.631-0.46,0.985c0,1.227,0.666,1.822,1.937,1.822H417.249    L417.249,410.223z"/>
		<path fill="#7C2A90" stroke="#7C2A90" stroke-width="0.0628" d="M449.328,415.606h-12.923c-1.318,0-2.498-0.264-3.541-0.847    c-1.02-0.563-1.856-1.341-2.508-2.304c-0.654-0.825-1.101-1.764-1.387-2.83c-0.275-1.042-0.39-2.452-0.39-4.238v-1.33    c0-3.517,0.458-5.923,1.409-7.218c0.95-1.316,1.914-2.269,2.898-2.864c0.984-0.595,2.222-0.894,3.735-0.894h5.913v-9.096h6.793    L449.328,415.606L449.328,415.606z M442.534,410.313v-12.637h-3.803c-0.552,0-1.078,0.127-1.559,0.344    c-0.505,0.253-0.87,0.494-1.101,0.745c-0.149,0.298-0.298,0.859-0.423,1.661c-0.125,0.802-0.194,1.604-0.194,2.406v2.199    c0,0.974,0.057,1.822,0.172,2.589c0.103,0.734,0.355,1.295,0.721,1.628c0.367,0.356,0.721,0.619,1.053,0.79    c0.333,0.185,0.825,0.274,1.467,0.274H442.534L442.534,410.313z"/>
		<path fill="#7C2A90" stroke="#7C2A90" stroke-width="0.0628" d="M461.07,389.382h-6.726v-5.396h6.726V389.382z M461.07,415.606    h-6.726v-22.489h6.726V415.606z"/>
		<path fill="#7C2A90" stroke="#7C2A90" stroke-width="0.0628" d="M486.23,404.482c0,3.23-0.79,5.935-2.396,8.146    c-1.591,2.234-4.272,3.334-8.007,3.334c-3.735,0-6.393-1.099-7.975-3.3c-1.593-2.211-2.383-4.938-2.383-8.18v-0.665    c0-3.266,0.79-6.004,2.349-8.214c1.57-2.212,4.229-3.311,8.009-3.311c3.734,0,6.416,1.099,8.007,3.311    c1.605,2.211,2.396,4.948,2.396,8.214V404.482z M479.608,404.906v-1.993c0-0.791-0.081-1.536-0.242-2.28    c-0.16-0.733-0.331-1.272-0.537-1.638c-0.391-0.527-0.723-0.94-0.986-1.228c-0.273-0.298-0.939-0.447-2.017-0.447    c-0.894,0-1.512,0.128-1.844,0.356c-0.321,0.241-0.699,0.664-1.158,1.318c-0.159,0.31-0.319,0.835-0.479,1.638    c-0.162,0.791-0.242,1.559-0.242,2.28v1.993c0,0.871,0.057,1.65,0.195,2.36c0.125,0.699,0.319,1.214,0.573,1.524    c0.479,0.676,0.87,1.145,1.145,1.363c0.264,0.217,0.87,0.332,1.81,0.332c0.906,0,1.49-0.115,1.765-0.332    c0.273-0.218,0.584-0.573,0.939-1.031c0.319-0.47,0.596-1.123,0.778-1.937C479.505,406.396,479.608,405.616,479.608,404.906z"/>
	</g>
	<g>
		<path fill="#ED1C24" stroke="#ED1C24" stroke-width="0.0601" d="M401.633,347.852c0,7.71-1.054,13.048-3.175,16.005    c-2.12,2.933-4.457,5.063-7,6.369c-2.555,1.319-5.442,1.995-8.685,1.995h-14.355v19.259h-16.072v-69.097h29.271    c3.7,0,6.714,0.584,9.028,1.742c2.302,1.18,4.365,2.829,6.13,4.973c1.627,2.2,2.841,4.617,3.642,7.218    c0.813,2.6,1.216,5.739,1.216,9.428L401.633,347.852L401.633,347.852z M385.387,348.848v-4.881c0-1.718-0.159-3.402-0.469-5.075    c-0.309-1.65-0.917-3.117-1.845-4.366c-0.917-1.26-3.07-1.89-6.461-1.89h-8.193v27.921h8.537c1.397,0,2.521-0.219,3.412-0.653    c0.873-0.424,1.708-1.021,2.476-1.8c0.769-0.768,1.375-2.118,1.833-4.044C385.146,352.113,385.387,350.384,385.387,348.848z"/>
		<path fill="#ED1C24" stroke="#ED1C24" stroke-width="0.0601" d="M425.67,373.091h-16.086v-69.956h16.086V373.091z"/>
		<path fill="#ED1C24" stroke="#ED1C24" stroke-width="0.0601" d="M483.606,373.091h-30.314c-3.071,0-5.993-0.699-8.752-2.074    c-2.774-1.375-4.802-2.921-6.063-4.628c-1.271-1.73-2.062-3.357-2.406-4.882c-0.366-1.546-0.525-3.355-0.525-5.441    c0-0.847,0-1.753,0-2.704c0-0.951,0-1.959,0-3.002v-27.977h16.246v30.681c0,2.887,0.698,4.96,2.072,6.255    c1.376,1.307,3.289,1.948,5.741,1.948h7.928v-38.884h16.073v50.708H483.606z"/>
		<path fill="#ED1C24" stroke="#ED1C24" stroke-width="0.0601" d="M538.727,359.262c0,3.541-1.789,6.737-5.374,9.578    c-3.587,2.83-8.192,4.251-13.817,4.251H493.06v-11.824h23.279c2.382,0,4.068-0.39,5.041-1.156    c0.963-0.779,1.444-1.765,1.444-3.002v-0.458c0-1.1-0.458-2.028-1.388-2.772c-0.927-0.733-2.359-1.112-4.283-1.112h-8.581    c-4.79,0-8.822-1.421-12.101-4.285c-3.276-2.83-4.927-6.542-4.927-11.089c0-4.605,1.742-8.261,5.213-10.954    c3.459-2.691,7.665-4.055,12.603-4.055h25.332v10.425h-22.548c-3.254,0-4.868,1.443-4.868,4.295c0,1.123,0.479,2.074,1.443,2.853    c0.974,0.779,2.062,1.156,3.288,1.156h9.83c5.166,0,9.279,1.501,12.315,4.491c3.059,3.002,4.572,6.313,4.572,9.979    L538.727,359.262L538.727,359.262z"/>
	</g>
</g>
</svg>