<?xml version="1.0" encoding="UTF-8" standalone="no"?>
<!-- Created with Inkscape (http://www.inkscape.org/) -->
<svg xmlns:dc="http://purl.org/dc/elements/1.1/" xmlns:cc="http://creativecommons.org/ns#" xmlns:rdf="http://www.w3.org/1999/02/22-rdf-syntax-ns#" xmlns:svg="http://www.w3.org/2000/svg" xmlns="http://www.w3.org/2000/svg" xmlns:sodipodi="http://sodipodi.sourceforge.net/DTD/sodipodi-0.dtd" xmlns:inkscape="http://www.inkscape.org/namespaces/inkscape" id="svg2985" version="1.1" inkscape:version="0.48.2 r9819" width="300" height="140.43904" xml:space="preserve" sodipodi:docname="RTCG logo.pdf"><metadata id="metadata2991"><rdf:RDF><cc:Work rdf:about=""><dc:format>image/svg+xml</dc:format><dc:type rdf:resource="http://purl.org/dc/dcmitype/StillImage"/><dc:title/></cc:Work></rdf:RDF></metadata><defs id="defs2989"><clipPath clipPathUnits="userSpaceOnUse" id="clipPath3003"><path d="m 0,283.465 283.465,0 L 283.465,0 0,0 0,283.465 z" id="path3005" inkscape:connector-curvature="0"/></clipPath></defs><sodipodi:namedview pagecolor="#ffffff" bordercolor="#666666" borderopacity="1" objecttolerance="10" gridtolerance="10" guidetolerance="10" inkscape:pageopacity="0" inkscape:pageshadow="2" inkscape:window-width="1920" inkscape:window-height="1028" id="namedview2987" showgrid="false" fit-margin-top="0.5" fit-margin-left="0.5" fit-margin-right="0.5" fit-margin-bottom="0.5" inkscape:zoom="2.6641738" inkscape:cx="150.04464" inkscape:cy="75.139136" inkscape:window-x="-8" inkscape:window-y="-8" inkscape:window-maximized="1" inkscape:current-layer="g2993"/><g id="g2993" inkscape:groupmode="layer" inkscape:label="RTCG logo" transform="matrix(1.25,0,0,-1.25,-27.123875,220.56528)"><g id="g3121" transform="matrix(0.99903646,0,0,0.99903646,0.02129327,0.06214901)"><g transform="translate(149.5693,140.5386)" id="g2995"><path id="path2997" style="fill:#231f20;fill-opacity:1;fill-rule:nonzero;stroke:none" d="m 0,0 0,-52.568 -9.232,0 0,52.568 -16.754,0 0,8.291 42.738,0 L 16.752,0 0,0 z" inkscape:connector-curvature="0"/></g><g id="g2999"><g clip-path="url(#clipPath3003)" id="g3001"><g transform="translate(189.7822,87.457)" id="g3007"><path id="path3009" style="fill:#231f20;fill-opacity:1;fill-rule:nonzero;stroke:none" d="m 0,0 c -6.324,0 -11.795,2.309 -15.984,6.496 -5.983,5.984 -5.899,12.736 -5.899,24.447 0,11.711 -0.084,18.463 5.899,24.447 4.189,4.188 9.66,6.496 15.984,6.496 11.197,0 19.576,-6.582 21.711,-18.718 l -9.402,0 C 10.855,49.32 6.754,53.595 0,53.595 c -3.59,0 -6.838,-1.368 -8.975,-3.675 -2.992,-3.248 -3.675,-6.752 -3.675,-18.977 0,-12.224 0.683,-15.728 3.675,-18.976 C -6.838,9.658 -3.59,8.291 0,8.291 c 6.754,0 10.941,4.275 12.395,10.428 l 9.316,0 C 19.66,6.582 11.027,0 0,0" inkscape:connector-curvature="0"/></g><g transform="translate(110.3311,114.8965)" id="g3011"><path id="path3013" style="fill:#231f20;fill-opacity:1;fill-rule:nonzero;stroke:none" d="m 0,0 c 6.838,1.879 12.137,7.436 12.137,16.154 0,10.342 -7.352,17.779 -18.891,17.779 l -23.593,0 0,-60.859 9.234,0 0,25.643 0,7.863 0,19.062 13.675,0 c 6.155,0 10.344,-3.589 10.344,-9.574 0,-5.984 -4.189,-9.488 -10.344,-9.488 l -6.995,0 0,-7.863 4.859,0 12.822,-25.643 10.77,0 L 0,0 z" inkscape:connector-curvature="0"/></g><g transform="translate(244.6504,121.8789)" id="g3015"><path id="path3017" style="fill:#231f20;fill-opacity:1;fill-rule:nonzero;stroke:none" d="m 0,0 0,-7.863 5.8,0 0,-3.42 c 0,-3.932 -0.856,-7.01 -3.078,-9.572 -2.393,-2.737 -5.897,-4.276 -9.914,-4.276 -3.59,0 -6.838,1.367 -8.977,3.676 -2.99,3.248 -3.674,6.752 -3.674,18.976 0,12.225 0.684,15.643 3.674,18.891 2.139,2.306 5.387,3.761 8.977,3.761 6.838,0 11.283,-3.931 12.822,-10.601 l 9.314,0 c -1.709,10.429 -9.23,18.892 -22.136,18.892 -6.498,0 -11.797,-2.308 -15.985,-6.496 -5.984,-5.984 -5.898,-12.736 -5.898,-24.447 0,-11.71 -0.086,-18.462 5.898,-24.447 4.188,-4.187 9.658,-6.496 15.985,-6.496 6.41,0 12.136,2.053 16.752,6.924 4.017,4.273 5.47,9.316 5.47,17.182 L 15.03,0 0,0 z" inkscape:connector-curvature="0"/></g><g transform="translate(43.127,80.1172)" id="g3019"><path id="path3021" style="fill:#656263;fill-opacity:1;fill-rule:nonzero;stroke:none" d="m 0,0 -3.041,0 0,-4.236 3.041,0 c 1.367,0 2.297,0.778 2.297,2.108 C 2.297,-0.799 1.367,0 0,0 m 2.373,-11.684 -2.85,5.7 -2.564,0 0,-5.7 -2.051,0 0,13.526 5.242,0 c 2.565,0 4.2,-1.653 4.2,-3.951 0,-1.938 -1.178,-3.172 -2.698,-3.59 l 3.116,-5.985 -2.395,0 z" inkscape:connector-curvature="0"/></g><g transform="translate(55.2109,72.6895)" id="g3023"><path id="path3025" style="fill:#656263;fill-opacity:1;fill-rule:nonzero;stroke:none" d="m 0,0 -2.262,0 c -1.14,0 -1.728,-0.514 -1.728,-1.387 0,-0.875 0.551,-1.368 1.765,-1.368 0.743,0 1.293,0.057 1.807,0.551 C -0.135,-1.92 0,-1.463 0,-0.779 L 0,0 z m 0.037,-4.256 0,0.874 c -0.703,-0.703 -1.367,-0.987 -2.564,-0.987 -1.198,0 -1.994,0.284 -2.584,0.873 -0.494,0.514 -0.76,1.254 -0.76,2.07 0,1.615 1.121,2.774 3.324,2.774 l 2.547,0 0,0.684 c 0,1.216 -0.609,1.805 -2.109,1.805 -1.065,0 -1.577,-0.247 -2.11,-0.931 L -5.49,4.104 c 0.91,1.063 1.861,1.386 3.457,1.386 2.64,0 3.971,-1.121 3.971,-3.306 l 0,-6.44 -1.901,0 z" inkscape:connector-curvature="0"/></g><g transform="translate(63.4375,76.4502)" id="g3027"><path id="path3029" style="fill:#656263;fill-opacity:1;fill-rule:nonzero;stroke:none" d="m 0,0 c -1.748,0 -2.014,-1.481 -2.014,-3.191 0,-1.71 0.266,-3.21 2.014,-3.21 1.748,0 1.996,1.5 1.996,3.21 C 1.996,-1.481 1.748,0 0,0 m 2.033,-8.017 0,1.026 c -0.722,-0.873 -1.5,-1.139 -2.545,-1.139 -0.968,0 -1.824,0.322 -2.355,0.854 -0.969,0.969 -1.084,2.622 -1.084,4.085 0,1.462 0.115,3.096 1.084,4.065 0.531,0.532 1.367,0.855 2.336,0.855 1.025,0 1.824,-0.248 2.527,-1.083 l 0,4.863 1.938,0 0,-13.526 -1.901,0 z" inkscape:connector-curvature="0"/></g><path id="path3031" style="fill:#656263;fill-opacity:1;fill-rule:nonzero;stroke:none" d="m 70.26,78.064 1.938,0 0,-9.631 -1.938,0 0,9.631 z m -0.059,3.953 2.053,0 0,-2.052 -2.053,0 0,2.052 z" inkscape:connector-curvature="0"/><g transform="translate(80.0625,75.8994)" id="g3033"><path id="path3035" style="fill:#656263;fill-opacity:1;fill-rule:nonzero;stroke:none" d="M 0,0 C -0.361,0.36 -0.855,0.551 -1.426,0.551 -1.994,0.551 -2.469,0.36 -2.83,0 c -0.59,-0.589 -0.666,-1.596 -0.666,-2.641 0,-1.045 0.076,-2.051 0.666,-2.64 0.361,-0.361 0.836,-0.57 1.404,-0.57 0.571,0 1.065,0.209 1.426,0.57 0.588,0.589 0.664,1.595 0.664,2.64 C 0.664,-1.596 0.588,-0.589 0,0 m 1.463,-6.44 c -0.627,-0.646 -1.576,-1.139 -2.889,-1.139 -1.31,0 -2.24,0.493 -2.867,1.139 -0.912,0.95 -1.141,2.166 -1.141,3.799 0,1.615 0.229,2.831 1.141,3.781 0.627,0.646 1.557,1.14 2.867,1.14 1.313,0 2.262,-0.494 2.889,-1.14 0.912,-0.95 1.141,-2.166 1.141,-3.781 0,-1.633 -0.229,-2.849 -1.141,-3.799" inkscape:connector-curvature="0"/></g><path id="path3037" style="fill:#656263;fill-opacity:1;fill-rule:nonzero;stroke:none" d="m 89.469,78.064 1.938,0 0,-9.631 -1.938,0 0,9.631 z m -0.059,3.953 2.053,0 0,-2.052 -2.053,0 0,2.052 z" inkscape:connector-curvature="0"/><g transform="translate(103.4688,80.1172)" id="g3039"><path id="path3041" style="fill:#656263;fill-opacity:1;fill-rule:nonzero;stroke:none" d="m 0,0 0,-11.684 -2.051,0 0,11.684 -3.722,0 0,1.842 9.498,0 L 3.725,0 0,0 z" inkscape:connector-curvature="0"/></g><g transform="translate(113.3496,75.3486)" id="g3043"><path id="path3045" style="fill:#656263;fill-opacity:1;fill-rule:nonzero;stroke:none" d="M 0,0 C -0.305,0.722 -0.988,1.216 -1.9,1.216 -2.813,1.216 -3.516,0.722 -3.818,0 -4.01,-0.437 -4.047,-0.722 -4.066,-1.312 l 4.332,0 C 0.246,-0.722 0.189,-0.437 0,0 m -4.066,-2.659 c 0,-1.654 0.875,-2.698 2.451,-2.698 1.082,0 1.652,0.303 2.336,0.987 l 1.234,-1.158 c -0.986,-0.989 -1.918,-1.5 -3.609,-1.5 -2.412,0 -4.33,1.271 -4.33,4.938 0,3.116 1.613,4.921 4.084,4.921 2.584,0 4.084,-1.9 4.084,-4.636 l 0,-0.854 -6.25,0 z" inkscape:connector-curvature="0"/></g><g transform="translate(120.4922,68.4336)" id="g3047"><path id="path3049" style="fill:#656263;fill-opacity:1;fill-rule:nonzero;stroke:none" d="m 0,0 c -1.842,0 -2.641,1.234 -2.641,2.66 l 0,10.865 1.94,0 0,-10.752 c 0,-0.74 0.265,-1.121 1.043,-1.121 l 0.855,0 L 1.197,0 0,0 z" inkscape:connector-curvature="0"/></g><g transform="translate(128.6445,75.3486)" id="g3051"><path id="path3053" style="fill:#656263;fill-opacity:1;fill-rule:nonzero;stroke:none" d="M 0,0 C -0.305,0.722 -0.988,1.216 -1.9,1.216 -2.811,1.216 -3.514,0.722 -3.818,0 -4.008,-0.437 -4.047,-0.722 -4.064,-1.312 l 4.33,0 C 0.248,-0.722 0.189,-0.437 0,0 m -4.064,-2.659 c 0,-1.654 0.873,-2.698 2.449,-2.698 1.084,0 1.654,0.303 2.338,0.987 l 1.234,-1.158 c -0.988,-0.989 -1.918,-1.5 -3.609,-1.5 -2.412,0 -4.332,1.271 -4.332,4.938 0,3.116 1.615,4.921 4.084,4.921 2.584,0 4.086,-1.9 4.086,-4.636 l 0,-0.854 -6.25,0 z" inkscape:connector-curvature="0"/></g><g transform="translate(136.7383,68.4336)" id="g3055"><path id="path3057" style="fill:#656263;fill-opacity:1;fill-rule:nonzero;stroke:none" d="m 0,0 -1.576,0 -3.533,9.631 2.05,0 2.28,-6.781 2.261,6.781 2.051,0 L 0,0 z" inkscape:connector-curvature="0"/></g><path id="path3059" style="fill:#656263;fill-opacity:1;fill-rule:nonzero;stroke:none" d="m 141.775,78.064 1.938,0 0,-9.631 -1.938,0 0,9.631 z m -0.058,3.953 2.053,0 0,-2.052 -2.053,0 0,2.052 z" inkscape:connector-curvature="0"/><g transform="translate(145.877,68.4336)" id="g3061"><path id="path3063" style="fill:#656263;fill-opacity:1;fill-rule:nonzero;stroke:none" d="m 0,0 0,1.539 4.789,6.363 -4.521,0 0,1.729 6.914,0 0,-1.538 -4.825,-6.364 4.825,0 L 7.182,0 0,0 z" inkscape:connector-curvature="0"/></g><path id="path3065" style="fill:#656263;fill-opacity:1;fill-rule:nonzero;stroke:none" d="m 155.322,78.064 1.938,0 0,-9.631 -1.938,0 0,9.631 z m -0.058,3.953 2.053,0 0,-2.052 -2.053,0 0,2.052 z" inkscape:connector-curvature="0"/><path id="path3067" style="fill:#656263;fill-opacity:1;fill-rule:nonzero;stroke:none" d="m 160.09,82.017 2.051,0 0,-2.052 -2.051,0 0,2.052 z m -0.647,-17.516 -1.197,0 0,1.653 0.856,0 c 0.779,0 1.044,0.379 1.044,1.121 l 0,10.789 1.938,0 0,-10.904 c 0,-1.424 -0.797,-2.659 -2.641,-2.659" inkscape:connector-curvature="0"/><g transform="translate(170.1211,72.6895)" id="g3069"><path id="path3071" style="fill:#656263;fill-opacity:1;fill-rule:nonzero;stroke:none" d="m 0,0 -2.262,0 c -1.14,0 -1.728,-0.514 -1.728,-1.387 0,-0.875 0.551,-1.368 1.765,-1.368 0.743,0 1.293,0.057 1.807,0.551 C -0.135,-1.92 0,-1.463 0,-0.779 L 0,0 z m 0.037,-4.256 0,0.874 c -0.703,-0.703 -1.367,-0.987 -2.564,-0.987 -1.198,0 -1.994,0.284 -2.584,0.873 -0.494,0.514 -0.76,1.254 -0.76,2.07 0,1.615 1.121,2.774 3.324,2.774 l 2.547,0 0,0.684 c 0,1.216 -0.609,1.805 -2.109,1.805 -1.065,0 -1.577,-0.247 -2.11,-0.931 L -5.49,4.104 c 0.91,1.063 1.861,1.386 3.457,1.386 2.64,0 3.971,-1.121 3.971,-3.306 l 0,-6.44 -1.901,0 z" inkscape:connector-curvature="0"/></g><g transform="translate(183.8184,68.3203)" id="g3073"><path id="path3075" style="fill:#656263;fill-opacity:1;fill-rule:nonzero;stroke:none" d="m 0,0 c -1.404,0 -2.621,0.512 -3.551,1.443 -1.33,1.33 -1.312,2.83 -1.312,5.434 0,2.602 -0.018,4.102 1.312,5.433 0.93,0.93 2.147,1.444 3.551,1.444 2.49,0 4.352,-1.463 4.826,-4.161 l -2.09,0 C 2.414,10.961 1.502,11.91 0,11.91 c -0.797,0 -1.52,-0.304 -1.994,-0.816 -0.664,-0.723 -0.817,-1.501 -0.817,-4.217 0,-2.717 0.153,-3.496 0.817,-4.219 C -1.52,2.146 -0.797,1.842 0,1.842 c 1.502,0 2.432,0.95 2.756,2.318 l 2.07,0 C 4.371,1.462 2.451,0 0,0" inkscape:connector-curvature="0"/></g><g transform="translate(196.2637,75.8047)" id="g3077"><path id="path3079" style="fill:#656263;fill-opacity:1;fill-rule:nonzero;stroke:none" d="m 0,0 c -0.436,0.437 -0.777,0.646 -1.443,0.646 -1.045,0 -1.918,-0.835 -1.918,-2.166 l 0,-5.851 -1.938,0 0,9.631 1.899,0 0,-1.044 c 0.494,0.683 1.482,1.159 2.564,1.159 0.932,0 1.635,-0.248 2.299,-0.912 L 0,0 z" inkscape:connector-curvature="0"/></g><g transform="translate(204.9844,68.4336)" id="g3081"><path id="path3083" style="fill:#656263;fill-opacity:1;fill-rule:nonzero;stroke:none" d="m 0,0 0,5.87 c 0,1.501 -0.855,2.147 -1.938,2.147 -1.082,0 -1.994,-0.665 -1.994,-2.147 l 0,-5.87 -1.937,0 0,9.631 1.898,0 0,-0.969 c 0.666,0.723 1.596,1.084 2.565,1.084 0.988,0 1.804,-0.323 2.375,-0.875 C 1.711,8.15 1.938,7.238 1.938,6.155 L 1.938,0 0,0 z" inkscape:connector-curvature="0"/></g><g transform="translate(215.207,75.3486)" id="g3085"><path id="path3087" style="fill:#656263;fill-opacity:1;fill-rule:nonzero;stroke:none" d="M 0,0 C -0.305,0.722 -0.988,1.216 -1.9,1.216 -2.811,1.216 -3.514,0.722 -3.818,0 -4.008,-0.437 -4.047,-0.722 -4.064,-1.312 l 4.33,0 C 0.248,-0.722 0.189,-0.437 0,0 m -4.064,-2.659 c 0,-1.654 0.873,-2.698 2.449,-2.698 1.084,0 1.654,0.303 2.338,0.987 l 1.234,-1.158 c -0.988,-0.989 -1.918,-1.5 -3.609,-1.5 -2.412,0 -4.332,1.271 -4.332,4.938 0,3.116 1.615,4.921 4.084,4.921 2.584,0 4.086,-1.9 4.086,-4.636 l 0,-0.854 -6.25,0 z" inkscape:connector-curvature="0"/></g><g transform="translate(232.459,69.8584)" id="g3089"><path id="path3091" style="fill:#656263;fill-opacity:1;fill-rule:nonzero;stroke:none" d="m 0,0 c -1.025,-1.083 -2.299,-1.538 -3.725,-1.538 -1.404,0 -2.621,0.512 -3.55,1.443 -1.33,1.33 -1.313,2.83 -1.313,5.434 0,2.601 -0.017,4.102 1.313,5.432 0.929,0.931 2.107,1.445 3.55,1.445 2.87,0 4.541,-1.881 4.922,-4.199 l -2.072,0 c -0.342,1.482 -1.328,2.355 -2.85,2.355 -0.796,0 -1.519,-0.322 -1.994,-0.836 -0.664,-0.722 -0.816,-1.481 -0.816,-4.197 0,-2.717 0.152,-3.496 0.816,-4.219 0.475,-0.512 1.198,-0.816 1.994,-0.816 0.895,0 1.672,0.342 2.205,0.95 0.495,0.569 0.684,1.254 0.684,2.128 l 0,0.76 -2.889,0 0,1.748 4.94,0 0,-2.072 C 1.215,2.071 0.893,0.95 0,0" inkscape:connector-curvature="0"/></g><g transform="translate(241.2559,75.8994)" id="g3093"><path id="path3095" style="fill:#656263;fill-opacity:1;fill-rule:nonzero;stroke:none" d="M 0,0 C -0.361,0.36 -0.855,0.551 -1.426,0.551 -1.994,0.551 -2.469,0.36 -2.83,0 c -0.59,-0.589 -0.666,-1.596 -0.666,-2.641 0,-1.045 0.076,-2.051 0.666,-2.64 0.361,-0.361 0.836,-0.57 1.404,-0.57 0.571,0 1.065,0.209 1.426,0.57 0.588,0.589 0.664,1.595 0.664,2.64 C 0.664,-1.596 0.588,-0.589 0,0 m 1.463,-6.44 c -0.627,-0.646 -1.576,-1.139 -2.889,-1.139 -1.31,0 -2.24,0.493 -2.867,1.139 -0.912,0.95 -1.141,2.166 -1.141,3.799 0,1.615 0.229,2.831 1.141,3.781 0.627,0.646 1.557,1.14 2.867,1.14 1.313,0 2.262,-0.494 2.889,-1.14 0.912,-0.95 1.141,-2.166 1.141,-3.781 0,-1.633 -0.229,-2.849 -1.141,-3.799" inkscape:connector-curvature="0"/></g><g transform="translate(251.5918,75.8047)" id="g3097"><path id="path3099" style="fill:#656263;fill-opacity:1;fill-rule:nonzero;stroke:none" d="m 0,0 c -0.438,0.437 -0.779,0.646 -1.443,0.646 -1.045,0 -1.92,-0.835 -1.92,-2.166 l 0,-5.851 -1.938,0 0,9.631 1.901,0 0,-1.044 c 0.494,0.683 1.48,1.159 2.564,1.159 0.93,0 1.633,-0.248 2.299,-0.912 L 0,0 z" inkscape:connector-curvature="0"/></g><g transform="translate(259.3438,75.3486)" id="g3101"><path id="path3103" style="fill:#656263;fill-opacity:1;fill-rule:nonzero;stroke:none" d="M 0,0 C -0.305,0.722 -0.988,1.216 -1.9,1.216 -2.811,1.216 -3.514,0.722 -3.818,0 -4.008,-0.437 -4.047,-0.722 -4.064,-1.312 l 4.33,0 C 0.248,-0.722 0.189,-0.437 0,0 m -4.064,-2.659 c 0,-1.654 0.873,-2.698 2.449,-2.698 1.084,0 1.654,0.303 2.338,0.987 l 1.234,-1.158 c -0.988,-0.989 -1.918,-1.5 -3.609,-1.5 -2.412,0 -4.332,1.271 -4.332,4.938 0,3.116 1.615,4.921 4.084,4.921 2.584,0 4.086,-1.9 4.086,-4.636 l 0,-0.854 -6.25,0 z" inkscape:connector-curvature="0"/></g><g transform="translate(51.5542,101.5762)" id="g3105"><path id="path3107" style="fill:#bdbcbc;fill-opacity:1;fill-rule:nonzero;stroke:none" d="m 0,0 -20.981,8.648 c -2.153,0.869 -3.265,3.626 -0.03,5.207 l 8.508,5.273 L 8.396,5.137 C 5.752,3.339 2.96,1.623 0,0" inkscape:connector-curvature="0"/></g><g transform="translate(64.3218,103.875)" id="g3109"><path id="path3111" style="fill:#656263;fill-opacity:1;fill-rule:nonzero;stroke:none" d="m 0,0 c 2.916,-2.268 5.264,-4.869 6.374,-9.413 0,0 0.086,-0.575 0.103,-0.639 l 0.009,-2.21 c 0.057,-2.85 -2.492,-4.672 -5.667,-4.346 l -22.129,0.976 c -8.343,0.382 -8.637,8.491 -2.115,11.831 2.606,1.18 5.082,2.428 7.456,3.732 2.96,1.624 5.752,3.34 8.397,5.138 L 0,0 z" inkscape:connector-curvature="0"/></g><g transform="translate(34.0664,131.7656)" id="g3113"><path id="path3115" style="fill:#e3b644;fill-opacity:1;fill-rule:nonzero;stroke:none" d="m 0,0 30.392,-20.124 c 2.91,-2.237 5.256,-4.808 6.4,-9.235 l -0.048,-8.569 c -1.111,4.544 -3.459,7.146 -6.375,9.413 l -7.572,5.07 -20.899,13.988 -1.57,1.052 C -7.089,-3.643 -9.806,0.773 -10.599,6.83 l -0.212,6.948 C -9.744,8.326 -6.744,3.531 0,0" inkscape:connector-curvature="0"/></g><g transform="translate(22.0991,173.8008)" id="g3117"><path id="path3119" style="fill:#bf1b2c;fill-opacity:1;fill-rule:nonzero;stroke:none" d="m 0,0 c 0.689,3.134 3.827,2.722 6.128,1.202 l 32.434,-19.753 c 6.792,-3.168 9.09,-8.658 9.737,-13.344 l 0.451,-22.544 0.064,-3.255 -0.062,-12.207 -0.008,-1.662 c -0.015,0.063 -0.039,0.118 -0.055,0.181 -1.143,4.428 -3.488,6.998 -6.398,9.235 l -30.393,20.126 c -6.744,3.53 -9.744,8.325 -10.81,13.777 -0.095,0.483 -0.18,0.969 -0.247,1.463 L 0,0 z" inkscape:connector-curvature="0"/></g></g></g></g></g></svg>