<?xml version="1.0" encoding="UTF-8"?>
<!-- Generator: Adobe Illustrator 19.0.1, SVG Export Plug-In . SVG Version: 6.00 Build 0)  -->
<svg version="1.1" id="Layer_1" xmlns="http://www.w3.org/2000/svg" xmlns:xlink="http://www.w3.org/1999/xlink" x="0px" y="0px" viewBox="0 0 296.4 104.1" style="enable-background:new 0 0 296.4 104.1;" xml:space="preserve">
<style type="text/css">
	.st0{fill:#E9282A;}
	.st1{fill:#FFFFFF;}
	.st2{fill:#13A74E;}
	.st3{fill:#EA2629;}
</style>
<rect x="153.5" y="77.7" class="st0" width="142.9" height="26.5"/>
<g>
	<path class="st1" d="M162.7,85.6c0-1.7,0.5-3.2,3.2-3.2c2.1,0,3.2,1.1,3.2,3.1v10.5c0,2-0.9,3.3-3.2,3.3c-2.3,0-3.2-1.2-3.2-3.4   v-1.6h2.5v2c0,0.6,0.1,1,0.7,1c0.7,0,0.8-0.5,0.8-1v-3.4c-0.4,0.5-1.2,0.8-1.8,0.8c-1,0-2.1-0.4-2.1-2.6V85.6z M165.2,90.4   c0,0.6,0.1,1,0.8,1c0.6,0,0.7-0.5,0.7-1v-4.7c0-0.7,0-1.4-0.8-1.4c-0.7,0-0.7,0.6-0.7,1.1V90.4z"/>
	<path class="st1" d="M170.4,93.2c0-1.2,0.2-2.2,2-2.6v0c-1.6-0.1-1.9-1.2-2-2.4v-2.6c0-2.5,1.8-3.1,3.1-3.1c1.6,0,3.3,0.8,3.3,3.1   l0,2.3c0,1.1-0.4,2.5-1.9,2.7v0c1.5,0.4,1.9,1.3,1.9,1.9v4.1c0,1.6-1.3,2.7-3.3,2.7c-1.9,0-3.1-1.1-3.1-3V93.2z M174.4,85.5   c0-0.9-0.2-1.1-0.7-1.1c-0.6,0-0.7,0.5-0.8,1.1v2.9c0,0.9,0.2,1.1,0.8,1.1c0.4,0,0.7-0.3,0.7-1V85.5z M174.4,92.6   c0-0.4-0.2-0.9-0.8-0.9s-0.7,0.5-0.7,0.9v3.5c0,0.8,0.3,1.2,0.8,1.2c0.7,0,0.7-0.7,0.7-1.2V92.6z"/>
	<path class="st1" d="M178.3,99.1v-2.6h2.3v2.6H178.3z"/>
	<path class="st1" d="M182.4,84.8c1.3-0.2,2.3-0.6,2.2-2.2h2v16.5h-2.5V86.5h-1.8V84.8z"/>
	<path class="st1" d="M193.3,91.3h2.9V93h-2.9V91.3z"/>
	<path class="st1" d="M201.2,85.6c0-1.7,0.5-3.2,3.2-3.2c2.1,0,3.2,1.1,3.2,3.1v10.5c0,2-0.9,3.3-3.2,3.3c-2.3,0-3.2-1.2-3.2-3.4   v-1.6h2.5v2c0,0.6,0.1,1,0.7,1c0.7,0,0.8-0.5,0.8-1v-3.4c-0.4,0.5-1.2,0.8-1.8,0.8c-1,0-2.1-0.4-2.1-2.6V85.6z M203.7,90.4   c0,0.6,0.1,1,0.8,1c0.6,0,0.7-0.5,0.7-1v-4.7c0-0.7,0-1.4-0.8-1.4c-0.7,0-0.7,0.6-0.7,1.1V90.4z"/>
	<path class="st1" d="M208.9,93.2c0-1.2,0.2-2.2,2-2.6v0c-1.6-0.1-1.9-1.2-2-2.4v-2.6c0-2.5,1.8-3.1,3.1-3.1c1.6,0,3.3,0.8,3.3,3.1   l0,2.3c0,1.1-0.4,2.5-1.9,2.7v0c1.5,0.4,1.9,1.3,1.9,1.9v4.1c0,1.6-1.3,2.7-3.3,2.7c-1.9,0-3.1-1.1-3.1-3V93.2z M212.9,85.5   c0-0.9-0.2-1.1-0.7-1.1c-0.6,0-0.7,0.5-0.8,1.1v2.9c0,0.9,0.2,1.1,0.8,1.1c0.4,0,0.7-0.3,0.7-1V85.5z M212.9,92.6   c0-0.4-0.2-0.9-0.8-0.9c-0.6,0-0.7,0.5-0.7,0.9v3.5c0,0.8,0.3,1.2,0.8,1.2c0.7,0,0.7-0.7,0.7-1.2V92.6z"/>
	<path class="st1" d="M216.7,99.1v-2.6h2.3v2.6H216.7z"/>
	<path class="st1" d="M222.9,93.1v3.1c0,0.6,0,1.2,0.9,1.2c0.6,0,0.6-0.6,0.6-1.2V92c0-0.6-0.1-1.1-0.7-1.1c-0.4,0-0.6,0.1-0.7,0.5   h-2.4v-8.8h6.2v2H223v4.9c0.5-0.4,1.1-0.7,1.8-0.7c1.7,0,2.1,1.5,2.1,3.1v4c0,1.9-0.6,3.4-3.3,3.4c-1.6,0-3.1-0.6-3.1-2.8v-3.4   H222.9z"/>
	<path class="st1" d="M231.8,91.3h2.9V93h-2.9V91.3z"/>
	<path class="st1" d="M239.7,85.6c0-1.7,0.5-3.2,3.2-3.2c2.1,0,3.2,1.1,3.2,3.1v10.5c0,2-0.9,3.3-3.2,3.3c-2.3,0-3.2-1.2-3.2-3.4   v-1.6h2.5v2c0,0.6,0.1,1,0.7,1c0.7,0,0.8-0.5,0.8-1v-3.4c-0.4,0.5-1.2,0.8-1.8,0.8c-1,0-2.1-0.4-2.1-2.6V85.6z M242.1,90.4   c0,0.6,0.1,1,0.8,1c0.6,0,0.7-0.5,0.7-1v-4.7c0-0.7,0-1.4-0.8-1.4c-0.7,0-0.7,0.6-0.7,1.1V90.4z"/>
	<path class="st1" d="M253.8,96.1c0,1.7-0.5,3.2-3.2,3.2c-2.1,0-3.2-1.1-3.2-3.1V85.8c0-2,0.9-3.3,3.2-3.3c2.3,0,3.2,1.2,3.2,3.4   v2.7h-2.5v-3.1c0-0.6-0.1-1-0.7-1c-0.7,0-0.8,0.5-0.8,1v4.4c0.4-0.5,1.2-0.8,1.8-0.8c1,0,2.1,0.4,2.1,2.6V96.1z M251.3,92.3   c0-0.6-0.1-1-0.8-1c-0.6,0-0.7,0.5-0.7,1V96c0,0.7,0,1.4,0.8,1.4c0.7,0,0.7-0.6,0.7-1.1V92.3z"/>
	<path class="st1" d="M255.2,99.1v-2.6h2.3v2.6H255.2z"/>
	<path class="st1" d="M265.2,97.2v2h-6.3v-1c0-4.8,4-8,4-10.9v-1.5c0-0.9-0.2-1.2-0.7-1.2c-0.6,0-0.8,0.5-0.8,1.2v2.9h-2.5V86   c0-2.5,1.1-3.5,3.6-3.5c2.4,0,2.8,1.9,2.8,3.8c0,4.6-3.6,7.3-3.7,10.9H265.2z"/>
	<path class="st1" d="M270.5,99.1V82.7h5.5v2.2H273V89h2.9v2.2H273v7.9H270.5z"/>
	<path class="st1" d="M280.7,99.1l-0.9-7.9c-0.2-1.7-0.4-4.1-0.6-5.5h-0.1c0,1,0.1,2.2,0.1,3.2v10.2h-2.2V82.7h3.6l0.8,6.8   c0.1,1,0.4,3.1,0.4,5.1h0.1c0.1-1.7,0.1-3.8,0.2-5.1l0.7-6.8h3.6v16.5h-2.2v-7.6c0-1.9,0-3.8,0.1-5.9h-0.1   c-0.1,1.2-0.5,5.5-0.6,6.3l-0.9,7.1H280.7z"/>
</g>
<g>
	<path class="st2" d="M64.5,1.6c0,0,0.1,0,0.2-0.1c0.1,0,0.3-0.1,0.5-0.1c0.4-0.1,0.9-0.3,1.6-0.4c0.7-0.1,1.5-0.3,2.3-0.3   c0.4,0,0.9-0.1,1.3-0.1c0.4,0,0.9,0,1.3,0c0.5,0,0.9,0,1.3,0c0.4,0,0.9,0.1,1.3,0.1c0.8,0.1,1.6,0.2,2.3,0.3   c0.7,0.1,1.2,0.3,1.6,0.4c0.2,0.1,0.3,0.1,0.5,0.1c0.1,0,0.2,0.1,0.2,0.1s-0.1,0-0.2,0.1c-0.1,0-0.3,0.1-0.5,0.1   c-0.4,0.1-0.9,0.3-1.6,0.4c-0.7,0.1-1.5,0.3-2.3,0.3c-0.4,0-0.9,0.1-1.3,0.1c-0.4,0-0.9,0-1.3,0c-0.5,0-0.9,0-1.3,0   c-0.4,0-0.9-0.1-1.3-0.1c-0.8-0.1-1.6-0.2-2.3-0.3c-0.7-0.1-1.2-0.3-1.6-0.4c-0.2-0.1-0.3-0.1-0.5-0.1S64.5,1.6,64.5,1.6z"/>
	<path class="st2" d="M57.7,6.7c0,0,0.1,0,0.3-0.1c0.2,0,0.5-0.1,0.9-0.1c0.8-0.1,1.9-0.3,3.2-0.4c1.3-0.1,2.8-0.3,4.5-0.3   c0.8,0,1.7-0.1,2.5-0.1c0.9,0,1.7,0,2.6,0c0.9,0,1.7,0,2.6,0c0.9,0,1.7,0.1,2.5,0.1C78.4,5.8,80,6,81.3,6.1   c1.3,0.1,2.4,0.3,3.2,0.4c0.4,0.1,0.7,0.1,0.9,0.1c0.2,0,0.3,0.1,0.3,0.1s-0.1,0-0.3,0.1c-0.2,0-0.5,0.1-0.9,0.1   c-0.8,0.1-1.9,0.3-3.2,0.4s-2.8,0.3-4.5,0.3c-0.8,0-1.7,0.1-2.5,0.1c-0.9,0-1.7,0-2.6,0c-0.9,0-1.7,0-2.6,0c-0.9,0-1.7-0.1-2.5-0.1   c-1.6-0.1-3.2-0.2-4.5-0.3c-1.3-0.1-2.4-0.3-3.2-0.4c-0.4-0.1-0.7-0.1-0.9-0.1C57.9,6.7,57.7,6.7,57.7,6.7z"/>
	<path class="st2" d="M53.3,11.7c0,0,0.1,0,0.4-0.1c0.3,0,0.7-0.1,1.2-0.1c1-0.1,2.5-0.3,4.2-0.4c1.7-0.1,3.7-0.3,5.9-0.3   c1.1,0,2.2-0.1,3.3-0.1c1.1,0,2.3,0,3.4,0s2.3,0,3.4,0c1.1,0,2.3,0.1,3.3,0.1c2.2,0.1,4.2,0.2,5.9,0.3c1.7,0.1,3.2,0.3,4.2,0.4   c0.5,0.1,0.9,0.1,1.2,0.1c0.3,0,0.4,0.1,0.4,0.1s-0.1,0-0.4,0.1c-0.3,0-0.7,0.1-1.2,0.1c-1,0.1-2.5,0.3-4.2,0.4   c-1.7,0.1-3.7,0.3-5.9,0.3c-1.1,0-2.2,0.1-3.3,0.1c-1.1,0-2.3,0-3.4,0s-2.3,0-3.4,0c-1.1,0-2.3-0.1-3.3-0.1   c-2.2-0.1-4.2-0.2-5.9-0.3c-1.7-0.1-3.2-0.3-4.2-0.4c-0.5-0.1-0.9-0.1-1.2-0.1C53.4,11.8,53.3,11.7,53.3,11.7z"/>
	<path class="st2" d="M47.2,16.8c0,0,0.2,0,0.5-0.1c0.4,0,0.9-0.1,1.6-0.1c1.3-0.1,3.3-0.3,5.6-0.4c2.3-0.1,5-0.3,7.8-0.3   c1.4,0,2.9-0.1,4.4-0.1c1.5,0,3.1,0,4.6,0c1.5,0,3.1,0,4.6,0c1.5,0,3,0.1,4.4,0.1c2.9,0.1,5.6,0.2,7.8,0.3c2.3,0.1,4.2,0.3,5.6,0.4   c0.7,0.1,1.2,0.1,1.6,0.1s0.5,0.1,0.5,0.1s-0.2,0-0.5,0.1c-0.4,0-0.9,0.1-1.6,0.1c-1.3,0.1-3.3,0.3-5.6,0.4s-5,0.3-7.8,0.3   c-1.4,0-2.9,0.1-4.4,0.1c-1.5,0-3.1,0-4.6,0c-1.5,0-3.1,0-4.6,0c-1.5,0-3-0.1-4.4-0.1c-2.9-0.1-5.6-0.2-7.8-0.3   c-2.3-0.1-4.2-0.3-5.6-0.4c-0.7-0.1-1.2-0.1-1.6-0.1C47.4,16.8,47.2,16.8,47.2,16.8z"/>
	<path class="st2" d="M39.9,21.8c0,0,0.3,0,0.7-0.1c0.5,0,1.1-0.1,2-0.1c0.9-0.1,1.9-0.1,3.1-0.2c1.2-0.1,2.6-0.1,4.1-0.2   c1.5-0.1,3.1-0.1,4.8-0.2c1.7-0.1,3.5-0.1,5.4-0.1c1.9,0,3.8-0.1,5.7-0.1c2,0,3.9,0,5.9,0c2,0,4,0,5.9,0c2,0,3.9,0.1,5.7,0.1   c1.9,0,3.7,0.1,5.4,0.1c1.7,0.1,3.3,0.1,4.8,0.2c1.5,0.1,2.9,0.1,4.1,0.2c1.2,0.1,2.3,0.1,3.1,0.2c0.9,0.1,1.5,0.1,2,0.1   c0.5,0,0.7,0.1,0.7,0.1s-0.3,0-0.7,0.1c-0.5,0-1.1,0.1-2,0.1c-0.9,0.1-1.9,0.1-3.1,0.2c-1.2,0.1-2.6,0.1-4.1,0.2   c-1.5,0.1-3.1,0.1-4.8,0.2c-1.7,0.1-3.5,0.1-5.4,0.1c-1.9,0-3.8,0.1-5.7,0.1c-1.9,0-3.9,0-5.9,0c-2,0-4,0-5.9,0   c-2,0-3.9-0.1-5.7-0.1s-3.7-0.1-5.4-0.1c-1.7-0.1-3.3-0.1-4.8-0.2c-1.5-0.1-2.9-0.1-4.1-0.2c-1.2-0.1-2.3-0.1-3.1-0.2   c-0.9-0.1-1.5-0.1-2-0.1C40.2,21.8,39.9,21.8,39.9,21.8z"/>
	<path class="st2" d="M43.2,26.8c0,0,0.2,0,0.6-0.1c0.4,0,1-0.1,1.8-0.1c0.8-0.1,1.7-0.1,2.8-0.2c1.1-0.1,2.3-0.1,3.7-0.2   c1.3-0.1,2.8-0.1,4.3-0.2c1.5-0.1,3.1-0.1,4.8-0.1c1.7,0,3.4-0.1,5.1-0.1c1.7,0,3.5,0,5.3,0c1.8,0,3.6,0,5.3,0   c1.8,0,3.5,0.1,5.2,0.1c1.7,0,3.3,0.1,4.8,0.1c1.5,0.1,3,0.1,4.3,0.2c1.3,0.1,2.6,0.1,3.7,0.2s2,0.1,2.8,0.2   c0.8,0.1,1.4,0.1,1.8,0.1c0.4,0,0.6,0.1,0.6,0.1s-0.2,0-0.6,0.1c-0.4,0-1,0.1-1.8,0.1c-0.8,0.1-1.7,0.1-2.8,0.2   c-1.1,0.1-2.3,0.1-3.7,0.2c-1.3,0.1-2.8,0.1-4.3,0.2c-1.5,0.1-3.1,0.1-4.8,0.1s-3.4,0.1-5.2,0.1c-1.7,0-3.5,0-5.3,0   c-1.8,0-3.6,0-5.3,0c-1.7,0-3.5-0.1-5.1-0.1c-1.7,0-3.3-0.1-4.8-0.1c-1.5-0.1-3-0.1-4.3-0.2c-1.3-0.1-2.6-0.1-3.7-0.2   c-1.1-0.1-2-0.1-2.8-0.2c-0.8-0.1-1.4-0.1-1.8-0.1C43.4,26.9,43.2,26.8,43.2,26.8z"/>
	<path class="st2" d="M37.3,31.9c0,0,0.3,0,0.8-0.1c0.5,0,1.3-0.1,2.2-0.1c0.9-0.1,2.1-0.1,3.4-0.2c1.3-0.1,2.8-0.1,4.4-0.2   c1.6-0.1,3.4-0.1,5.2-0.2c1.9-0.1,3.8-0.1,5.8-0.1c2,0,4.1-0.1,6.2-0.1c2.1,0,4.3,0,6.4,0c2.1,0,4.3,0,6.4,0c2.1,0,4.2,0.1,6.2,0.1   s4,0.1,5.8,0.1c1.9,0.1,3.6,0.1,5.2,0.2c1.6,0.1,3.1,0.1,4.4,0.2c1.3,0.1,2.5,0.1,3.4,0.2c0.9,0.1,1.7,0.1,2.2,0.1   c0.5,0,0.8,0.1,0.8,0.1s-0.3,0-0.8,0.1c-0.5,0-1.3,0.1-2.2,0.1c-0.9,0.1-2.1,0.1-3.4,0.2c-1.3,0.1-2.8,0.1-4.4,0.2   c-1.6,0.1-3.4,0.1-5.2,0.2c-1.9,0.1-3.8,0.1-5.8,0.1c-2,0-4.1,0.1-6.2,0.1c-2.1,0-4.3,0-6.4,0c-2.1,0-4.3,0-6.4,0   c-2.1,0-4.2-0.1-6.2-0.1s-4-0.1-5.8-0.1c-1.9-0.1-3.6-0.1-5.2-0.2c-1.6-0.1-3.1-0.1-4.4-0.2c-1.3-0.1-2.5-0.1-3.4-0.2   C39.3,32,38.6,32,38.1,32C37.6,31.9,37.3,31.9,37.3,31.9z"/>
	<path class="st2" d="M30.5,36.9c0,0,0.3,0,0.9-0.1c0.6,0,1.5-0.1,2.6-0.1c1.1-0.1,2.5-0.1,4.1-0.2s3.3-0.1,5.3-0.2   c1.9-0.1,4-0.1,6.2-0.2c2.2-0.1,4.5-0.1,7-0.1s4.9-0.1,7.4-0.1c2.5,0,5.1,0,7.7,0s5.1,0,7.7,0c2.5,0,5,0.1,7.4,0.1   c2.4,0,4.7,0.1,7,0.1c2.2,0.1,4.3,0.1,6.2,0.2c1.9,0.1,3.7,0.1,5.3,0.2s2.9,0.1,4.1,0.2c1.1,0.1,2,0.1,2.6,0.1   c0.6,0,0.9,0.1,0.9,0.1s-0.3,0-0.9,0.1c-0.6,0-1.5,0.1-2.6,0.1c-1.1,0.1-2.5,0.1-4.1,0.2s-3.3,0.1-5.3,0.2s-4,0.1-6.2,0.2   c-2.2,0.1-4.5,0.1-7,0.1c-2.4,0-4.9,0.1-7.4,0.1c-2.5,0-5.1,0-7.7,0s-5.1,0-7.7,0s-5-0.1-7.4-0.1c-2.4,0-4.7-0.1-7-0.1   c-2.2-0.1-4.3-0.1-6.2-0.2c-1.9-0.1-3.7-0.1-5.3-0.2s-2.9-0.1-4.1-0.2c-1.1-0.1-2-0.1-2.6-0.1C30.8,37,30.5,36.9,30.5,36.9z"/>
	<path class="st2" d="M38.5,42c0,0,0.3,0,0.7-0.1c0.5,0,1.2-0.1,2.1-0.1c0.9-0.1,2-0.1,3.3-0.2c1.3-0.1,2.7-0.1,4.3-0.2   c1.6-0.1,3.3-0.1,5-0.2c1.8-0.1,3.7-0.1,5.6-0.1c1.9,0,4-0.1,6-0.1c2.1,0,4.1,0,6.2,0c2.1,0,4.1,0,6.2,0c2.1,0,4.1,0.1,6,0.1   s3.8,0.1,5.6,0.1c1.8,0.1,3.5,0.1,5,0.2c1.6,0.1,3,0.1,4.3,0.2c1.3,0.1,2.4,0.1,3.3,0.2c0.9,0.1,1.6,0.1,2.1,0.1   c0.5,0,0.7,0.1,0.7,0.1s-0.3,0-0.7,0.1c-0.5,0-1.2,0.1-2.1,0.1s-2,0.1-3.3,0.2c-1.3,0.1-2.7,0.1-4.3,0.2c-1.6,0.1-3.3,0.1-5,0.2   c-1.8,0.1-3.7,0.1-5.6,0.1c-1.9,0-4,0.1-6,0.1c-2.1,0-4.1,0-6.2,0c-2.1,0-4.1,0-6.2,0c-2.1,0-4.1-0.1-6-0.1c-1.9,0-3.8-0.1-5.6-0.1   c-1.8-0.1-3.5-0.1-5-0.2c-1.6-0.1-3-0.1-4.3-0.2c-1.3-0.1-2.4-0.1-3.3-0.2c-0.9-0.1-1.6-0.1-2.1-0.1C38.8,42,38.5,42,38.5,42z"/>
	<path class="st2" d="M27.2,47c0,0,0.3,0,1-0.1c0.7,0,1.6-0.1,2.8-0.1c1.2-0.1,2.7-0.1,4.4-0.2c1.7-0.1,3.6-0.1,5.7-0.2   c2.1-0.1,4.3-0.1,6.7-0.2c2.4-0.1,4.9-0.1,7.5-0.1c2.6,0,5.3-0.1,8-0.1c2.7,0,5.5,0,8.3,0c2.8,0,5.6,0,8.3,0c2.7,0,5.4,0.1,8,0.1   c2.6,0,5.1,0.1,7.5,0.1c2.4,0.1,4.7,0.1,6.7,0.2c2.1,0.1,4,0.1,5.7,0.2c1.7,0.1,3.2,0.1,4.4,0.2c1.2,0.1,2.2,0.1,2.8,0.1   c0.7,0,1,0.1,1,0.1s-0.3,0-1,0.1c-0.7,0-1.6,0.1-2.8,0.1c-1.2,0.1-2.7,0.1-4.4,0.2c-1.7,0.1-3.6,0.1-5.7,0.2   c-2.1,0.1-4.3,0.1-6.7,0.2c-2.4,0.1-4.9,0.1-7.5,0.1S82.8,48,80,48c-2.7,0-5.5,0-8.3,0c-2.8,0-5.6,0-8.3,0s-5.4-0.1-8-0.1   c-2.6,0-5.1-0.1-7.5-0.1c-2.4-0.1-4.7-0.1-6.7-0.2c-2.1-0.1-4-0.1-5.7-0.2c-1.7-0.1-3.2-0.1-4.4-0.2c-1.2-0.1-2.2-0.1-2.8-0.1   C27.6,47,27.2,47,27.2,47z"/>
	<path class="st2" d="M17.4,52.1c0,0,0.4,0,1.2-0.1c0.8,0,2-0.1,3.5-0.1c1.5-0.1,3.3-0.1,5.4-0.2c2.1-0.1,4.4-0.1,7-0.2   c2.5-0.1,5.3-0.1,8.2-0.2c2.9-0.1,6-0.1,9.2-0.1s6.5-0.1,9.8-0.1c3.3,0,6.7,0,10.1,0s6.8,0,10.1,0s6.6,0.1,9.8,0.1   c3.2,0,6.2,0.1,9.2,0.1c2.9,0.1,5.7,0.1,8.2,0.2c2.5,0.1,4.9,0.1,6.9,0.2c2.1,0.1,3.9,0.1,5.4,0.2c1.5,0.1,2.7,0.1,3.5,0.1   c0.8,0,1.2,0.1,1.2,0.1s-0.4,0-1.2,0.1c-0.8,0-2,0.1-3.5,0.1c-1.5,0.1-3.3,0.1-5.4,0.2c-2.1,0.1-4.4,0.1-6.9,0.2   c-2.5,0.1-5.3,0.1-8.2,0.2c-2.9,0.1-6,0.1-9.2,0.1c-3.2,0-6.5,0.1-9.8,0.1s-6.7,0-10.1,0s-6.8,0-10.1,0c-3.3,0-6.6-0.1-9.8-0.1   s-6.2-0.1-9.2-0.1c-2.9-0.1-5.7-0.1-8.2-0.2c-2.5-0.1-4.9-0.1-7-0.2c-2.1-0.1-3.9-0.1-5.4-0.2c-1.5-0.1-2.7-0.1-3.5-0.1   C17.8,52.1,17.4,52.1,17.4,52.1z"/>
	<path class="st2" d="M25.9,57.1c0,0,0.4,0,1-0.1c0.7,0,1.7-0.1,2.9-0.1c1.3-0.1,2.8-0.1,4.5-0.2c1.7-0.1,3.7-0.1,5.9-0.2   c2.1-0.1,4.5-0.1,6.9-0.2c2.5-0.1,5-0.1,7.8-0.1c2.7,0,5.5-0.1,8.3-0.1c2.8,0,5.7,0,8.6,0c2.9,0,5.7,0,8.6,0c2.8,0,5.6,0.1,8.3,0.1   c2.7,0,5.3,0.1,7.8,0.1c2.5,0.1,4.8,0.1,6.9,0.2s4.1,0.1,5.9,0.2c1.7,0.1,3.3,0.1,4.5,0.2c1.3,0.1,2.2,0.1,2.9,0.1   c0.7,0,1,0.1,1,0.1s-0.4,0-1,0.1c-0.7,0-1.7,0.1-2.9,0.1c-1.3,0.1-2.8,0.1-4.5,0.2c-1.7,0.1-3.7,0.1-5.9,0.2   c-2.1,0.1-4.5,0.1-6.9,0.2c-2.5,0.1-5,0.1-7.8,0.1c-2.7,0-5.5,0.1-8.3,0.1c-2.8,0-5.7,0-8.6,0c-2.9,0-5.7,0-8.6,0s-5.6-0.1-8.3-0.1   c-2.7,0-5.3-0.1-7.8-0.1c-2.5-0.1-4.8-0.1-6.9-0.2c-2.1-0.1-4.1-0.1-5.9-0.2c-1.7-0.1-3.3-0.1-4.5-0.2s-2.2-0.1-2.9-0.1   C26.2,57.1,25.9,57.1,25.9,57.1z"/>
	<path class="st2" d="M11.5,62.2c0,0,0.5,0,1.3-0.1c0.9,0,2.2-0.1,3.8-0.1c1.7-0.1,3.7-0.1,5.9-0.2c2.3-0.1,4.9-0.1,7.7-0.2   c2.8-0.1,5.9-0.1,9.1-0.2c3.2-0.1,6.6-0.1,10.2-0.1c3.5,0,7.2-0.1,10.9-0.1c3.7,0,7.5,0,11.2,0c3.8,0,7.5,0,11.2,0   c3.7,0,7.4,0.1,10.9,0.1c3.5,0,6.9,0.1,10.2,0.1c3.2,0.1,6.3,0.1,9.1,0.2s5.4,0.1,7.7,0.2c2.3,0.1,4.3,0.1,5.9,0.2   c1.7,0.1,2.9,0.1,3.8,0.1c0.9,0,1.3,0.1,1.3,0.1s-0.5,0-1.3,0.1c-0.9,0-2.2,0.1-3.8,0.1c-1.7,0.1-3.7,0.1-5.9,0.2   c-2.3,0.1-4.9,0.1-7.7,0.2s-5.9,0.1-9.1,0.2c-3.2,0.1-6.6,0.1-10.2,0.1c-3.5,0-7.2,0.1-10.9,0.1s-7.5,0-11.2,0c-3.8,0-7.5,0-11.2,0   c-3.7,0-7.3-0.1-10.9-0.1c-3.5,0-6.9-0.1-10.2-0.1c-3.2-0.1-6.3-0.1-9.1-0.2s-5.4-0.1-7.7-0.2c-2.3-0.1-4.3-0.1-5.9-0.2   c-1.7-0.1-2.9-0.1-3.8-0.1C12,62.2,11.5,62.2,11.5,62.2z"/>
	<path class="st2" d="M1,67.2c0,0,0.5,0,1.6-0.1c1,0,2.6-0.1,4.5-0.1c1.9-0.1,4.3-0.1,7-0.2c2.7-0.1,5.7-0.1,9-0.2   c3.3-0.1,6.9-0.1,10.7-0.2c3.8-0.1,7.8-0.1,12-0.1c4.1,0,8.4-0.1,12.8-0.1s8.8,0,13.2,0c4.4,0,8.8,0,13.2,0c4.4,0,8.6,0.1,12.8,0.1   c4.1,0,8.2,0.1,12,0.1c3.8,0.1,7.4,0.1,10.7,0.2c3.3,0.1,6.4,0.1,9,0.2c2.7,0.1,5,0.1,7,0.2c1.9,0.1,3.5,0.1,4.5,0.1   c1,0,1.6,0.1,1.6,0.1s-0.5,0-1.6,0.1c-1,0-2.6,0.1-4.5,0.1c-1.9,0.1-4.3,0.1-7,0.2c-2.7,0.1-5.7,0.1-9,0.2   c-3.3,0.1-6.9,0.1-10.7,0.2c-3.8,0.1-7.8,0.1-12,0.1c-4.1,0-8.4,0.1-12.8,0.1c-4.4,0-8.8,0-13.2,0c-4.4,0-8.8,0-13.2,0   c-4.4,0-8.6-0.1-12.8-0.1c-4.1,0-8.2-0.1-12-0.1c-3.8-0.1-7.4-0.1-10.7-0.2s-6.4-0.1-9-0.2c-2.7-0.1-5-0.1-7-0.2s-3.5-0.1-4.5-0.1   C1.5,67.2,1,67.2,1,67.2z"/>
	<path class="st2" d="M22.8,72.2c0,0,0.4,0,1.1-0.1c0.7,0,1.8-0.1,3.1-0.1s3-0.1,4.8-0.2s4-0.1,6.2-0.2c2.3-0.1,4.8-0.1,7.4-0.2   c2.6-0.1,5.4-0.1,8.3-0.1c2.9,0,5.8-0.1,8.8-0.1c3,0,6.1,0,9.1,0c3.1,0,6.1,0,9.1,0c3,0,6,0.1,8.8,0.1s5.6,0.1,8.3,0.1   c2.6,0.1,5.1,0.1,7.4,0.2c2.3,0.1,4.4,0.1,6.2,0.2c1.9,0.1,3.5,0.1,4.8,0.2s2.4,0.1,3.1,0.1c0.7,0,1.1,0.1,1.1,0.1s-0.4,0-1.1,0.1   c-0.7,0-1.8,0.1-3.1,0.1c-1.3,0.1-3,0.1-4.8,0.2c-1.9,0.1-4,0.1-6.2,0.2S100.6,73,98,73c-2.6,0.1-5.4,0.1-8.3,0.1   c-2.9,0-5.8,0.1-8.8,0.1c-3,0-6.1,0-9.1,0s-6.1,0-9.1,0c-3,0-6-0.1-8.8-0.1c-2.9,0-5.6-0.1-8.3-0.1s-5.1-0.1-7.4-0.2   c-2.3-0.1-4.4-0.1-6.2-0.2s-3.5-0.1-4.8-0.2c-1.3-0.1-2.4-0.1-3.1-0.1C23.2,72.3,22.8,72.2,22.8,72.2z"/>
	<path class="st2" d="M44.6,77.3c0,0,0.2,0,0.6-0.1c0.4,0,1-0.1,1.7-0.1s1.7-0.1,2.7-0.2c1-0.1,2.2-0.1,3.5-0.2   c1.3-0.1,2.7-0.1,4.1-0.2c1.5-0.1,3-0.1,4.6-0.1c1.6,0,3.2-0.1,4.9-0.1c1.7,0,3.4,0,5,0c1.7,0,3.4,0,5,0c1.7,0,3.3,0.1,4.9,0.1   c1.6,0,3.1,0.1,4.6,0.1c1.5,0.1,2.8,0.1,4.1,0.2c1.3,0.1,2.4,0.1,3.5,0.2c1,0.1,1.9,0.1,2.7,0.2c0.7,0.1,1.3,0.1,1.7,0.1   c0.4,0,0.6,0.1,0.6,0.1s-0.2,0-0.6,0.1c-0.4,0-1,0.1-1.7,0.1c-0.7,0.1-1.7,0.1-2.7,0.2c-1,0.1-2.2,0.1-3.5,0.2   c-1.3,0.1-2.7,0.1-4.1,0.2c-1.5,0.1-3,0.1-4.6,0.1c-1.6,0-3.2,0.1-4.9,0.1c-1.7,0-3.4,0-5,0c-1.7,0-3.4,0-5,0   c-1.7,0-3.3-0.1-4.9-0.1c-1.6,0-3.1-0.1-4.6-0.1c-1.5-0.1-2.8-0.1-4.1-0.2s-2.4-0.1-3.5-0.2c-1-0.1-1.9-0.1-2.7-0.2   c-0.7-0.1-1.3-0.1-1.7-0.1C44.8,77.3,44.6,77.3,44.6,77.3z"/>
	<path class="st2" d="M50,82.3c0,0,0.2,0,0.5-0.1c0.3,0,0.8-0.1,1.4-0.1c1.2-0.1,2.9-0.3,4.9-0.4c2-0.1,4.4-0.3,7-0.3   c1.3,0,2.6-0.1,3.9-0.1c1.3,0,2.7,0,4.1,0c1.4,0,2.7,0,4.1,0s2.7,0.1,3.9,0.1c2.5,0.1,4.9,0.2,7,0.3c2,0.1,3.7,0.3,4.9,0.4   c0.6,0.1,1.1,0.1,1.4,0.1s0.5,0.1,0.5,0.1s-0.2,0-0.5,0.1c-0.3,0-0.8,0.1-1.4,0.1c-1.2,0.1-2.9,0.3-4.9,0.4c-2.1,0.1-4.4,0.3-7,0.3   c-1.3,0-2.6,0.1-3.9,0.1c-1.3,0-2.7,0-4.1,0c-1.4,0-2.7,0-4.1,0c-1.3,0-2.7-0.1-3.9-0.1c-2.5-0.1-4.9-0.2-7-0.3   c-2-0.1-3.7-0.3-4.9-0.4c-0.6-0.1-1.1-0.1-1.4-0.1C50.1,82.4,50,82.3,50,82.3z"/>
	<path class="st2" d="M51.6,87.4c0,0,0.2,0,0.5-0.1c0.3,0,0.7-0.1,1.3-0.1c1.1-0.1,2.7-0.3,4.6-0.4c1.9-0.1,4.1-0.3,6.4-0.3   c1.2,0,2.4-0.1,3.6-0.1c1.2,0,2.5,0,3.8,0c1.3,0,2.5,0,3.7,0c1.2,0,2.5,0.1,3.6,0.1c2.4,0.1,4.6,0.2,6.4,0.3   c1.9,0.1,3.5,0.3,4.6,0.4c0.5,0.1,1,0.1,1.3,0.1c0.3,0,0.5,0.1,0.5,0.1s-0.2,0-0.5,0.1c-0.3,0-0.7,0.1-1.3,0.1   c-1.1,0.1-2.7,0.3-4.6,0.4c-1.9,0.1-4.1,0.3-6.4,0.3c-1.2,0-2.4,0.1-3.6,0.1c-1.2,0-2.5,0-3.7,0c-1.3,0-2.5,0-3.8,0   c-1.2,0-2.5-0.1-3.6-0.1c-2.4-0.1-4.6-0.2-6.4-0.3c-1.9-0.1-3.5-0.3-4.6-0.4c-0.5-0.1-1-0.1-1.3-0.1C51.8,87.4,51.6,87.4,51.6,87.4   z"/>
	<path class="st2" d="M56.5,92.4c0,0,0.1,0,0.3-0.1c0.2,0,0.5-0.1,1-0.1c0.8-0.1,2-0.3,3.5-0.4c1.4-0.1,3.1-0.3,4.9-0.3   c0.9,0,1.8-0.1,2.7-0.1s1.9,0,2.8,0c0.9,0,1.9,0,2.8,0c0.9,0,1.9,0.1,2.7,0.1c1.8,0.1,3.5,0.2,4.9,0.3c1.4,0.1,2.6,0.3,3.5,0.4   c0.4,0.1,0.7,0.1,1,0.1c0.2,0,0.3,0.1,0.3,0.1s-0.1,0-0.3,0.1c-0.2,0-0.5,0.1-1,0.1c-0.8,0.1-2,0.3-3.5,0.4   c-1.4,0.1-3.1,0.3-4.9,0.3c-0.9,0-1.8,0.1-2.7,0.1c-0.9,0-1.9,0-2.8,0c-0.9,0-1.9,0-2.8,0c-0.9,0-1.9-0.1-2.7-0.1   c-1.8-0.1-3.5-0.2-4.9-0.3c-1.4-0.1-2.6-0.3-3.5-0.4c-0.4-0.1-0.7-0.1-1-0.1C56.6,92.4,56.5,92.4,56.5,92.4z"/>
	<path class="st2" d="M53,97.5c0,0,0.1,0,0.4-0.1c0.3,0,0.7-0.1,1.2-0.1c1-0.1,2.5-0.3,4.3-0.4c1.7-0.1,3.8-0.3,6-0.3   c1.1,0,2.2-0.1,3.4-0.1c1.1,0,2.3,0,3.5,0c1.2,0,2.3,0,3.5,0c1.1,0,2.3,0.1,3.4,0.1c2.2,0.1,4.3,0.2,6,0.3c1.8,0.1,3.2,0.3,4.3,0.4   c0.5,0.1,0.9,0.1,1.2,0.1c0.3,0,0.4,0.1,0.4,0.1s-0.1,0-0.4,0.1c-0.3,0-0.7,0.1-1.2,0.1c-1,0.1-2.5,0.3-4.3,0.4   c-1.7,0.1-3.8,0.3-6,0.3c-1.1,0-2.2,0.1-3.4,0.1c-1.1,0-2.3,0-3.5,0c-1.2,0-2.3,0-3.5,0c-1.1,0-2.3-0.1-3.4-0.1   c-2.2-0.1-4.3-0.2-6-0.3c-1.7-0.1-3.2-0.3-4.3-0.4c-0.5-0.1-0.9-0.1-1.2-0.1C53.2,97.5,53,97.5,53,97.5z"/>
	<path class="st2" d="M46.9,102.5c0,0,0.2,0,0.6-0.1c0.4,0,0.9-0.1,1.6-0.1c1.4-0.1,3.3-0.3,5.6-0.4c2.3-0.1,5-0.3,8-0.3   c1.5,0,3-0.1,4.5-0.1c1.5,0,3.1,0,4.6,0c1.5,0,3.1,0,4.6,0c1.5,0,3,0.1,4.5,0.1c2.9,0.1,5.6,0.2,8,0.3c2.3,0.1,4.3,0.3,5.6,0.4   c0.7,0.1,1.2,0.1,1.6,0.1c0.4,0,0.5,0.1,0.5,0.1s-0.2,0-0.5,0.1c-0.4,0-0.9,0.1-1.6,0.1c-1.4,0.1-3.3,0.3-5.6,0.4   c-2.3,0.1-5,0.3-8,0.3c-1.5,0-3,0.1-4.5,0.1c-1.5,0-3.1,0-4.6,0c-1.5,0-3.1,0-4.6,0c-1.5,0-3-0.1-4.5-0.1c-2.9-0.1-5.6-0.2-8-0.3   c-2.3-0.1-4.3-0.3-5.6-0.4c-0.7-0.1-1.2-0.1-1.6-0.1C47.1,102.5,46.9,102.5,46.9,102.5z"/>
</g>
<g>
	<path class="st3" d="M210.3,0.6v17.8v6.7c0,4.3-0.2,7.6-4.5,7.6h-2.4h-3.6c2.2-1.1,2.2-3.4,2.2-5.9v-12h-3v12c0,3.3,0,5.9-2.5,5.9   c-2.5,0-4.5-2.6-6-4.7V14.7h-3v12c0,3.3,0,5.9-2.5,5.9h-2.2h-3.7v-32h-3v32v0.4v0.2h8.8c1.4,0,2.5-0.2,3.3-0.6c1.6-0.8,2-2.3,2.2-4   c1.3,1.9,3.3,4.4,5.8,4.6v0h0.2h9.3c1.1,0,2.2-0.2,3.1-0.6c0.5-0.2,0.9-0.4,1.4-0.7c2-1.3,3.4-3.6,3.4-6.8V0.6H210.3z"/>
	<path class="st3" d="M153.5,33.6c0.1,1.7,0.6,3.2,2.2,4c0.8,0.4,1.8,0.6,3.3,0.6H171V38v-0.4V17.2h-3v20.4h-6.9h-2.2   c-2.5,0-2.5-2.6-2.5-5.9V16.9h-3L153.5,33.6z"/>
	<path class="st3" d="M291.8,27.4V0.6h3v26.8L291.8,27.4L291.8,27.4z"/>
	<path class="st3" d="M264.7,33.2V0.6h3v32.6L264.7,33.2L264.7,33.2z"/>
	<path class="st3" d="M282.4,16c-0.4-0.3-0.9-0.5-1.4-0.7c-1-0.4-2-0.6-3.1-0.6h-2v0.6h2c4.3,0,4.5,3.2,4.5,7.4v9.9h-10.4v0.6h10.4   v0h3.4V22.9C285.7,19.7,284.4,17.4,282.4,16z"/>
	<path class="st3" d="M253.7,15.3h6.4v-0.6h-6.4c-1.1,0-2.2,0.2-3.1,0.6c-0.5,0.2-0.9,0.4-1.4,0.7c-2,1.3-3.4,3.6-3.4,6.8v2.3   c0,3.2,1.4,5.5,3.4,6.8c0.4,0.3,0.9,0.5,1.4,0.7h-10.7v-18h-3v2.9c-0.7-1.7-2.6-2.9-5-2.9c-4,0-8.4,2.9-8.5,7.9c0,0.1,0,2.7,0,2.8   c0.1,3.7,2.1,6.2,4.7,7.3c1,0.4,2.7,0.6,3.8,0.6h3.7v-0.6h-2.4h-1.3c-4.2,0-5.1-3.1-5.2-7.2c0-0.1,0-2.8,0-2.9   c0-4.1,0.9-7.3,5.2-7.3c3,0,4.8,2.2,5,5.6v12.5h1.6h1.4h13.8h6.4v-0.6h-6.4c-4.3,0-4.5-3.2-4.5-7.4v-2.6   C249.2,18.5,249.5,15.3,253.7,15.3z"/>
	<path class="st3" d="M296,33.3h-5.8v-0.6h2.8c-0.6-0.4-1-1.1-0.9-1.8c0.1-0.6,0.5-1.2,1.1-1.3c0.3-0.1,0.7-0.1,1-0.1h1.8v1   c0,0-1.8,0-1.8,0c-0.6,0-1.3-0.1-1.7,0.3c-0.5,0.5-0.2,1.1,0.3,1.5c0.5,0.4,1.1,0.4,1.6,0.4c0.4,0,0.8-0.1,1.2-0.1c0,0,0.4,0,0.4,0   L296,33.3L296,33.3z"/>
	<path class="st3" d="M293.1,28.7c0.4-0.1,0.8-0.1,1.1-0.1h0.6v-28h-3v29.1C292.1,29.2,292.5,28.8,293.1,28.7z"/>
	<rect x="275.6" y="8" class="st3" width="3.2" height="3.2"/>
	<rect x="233" y="6.3" class="st3" width="3.2" height="3.2"/>
	<rect x="193.4" y="36.6" class="st3" width="3.2" height="3.2"/>
	<rect x="182.3" y="8" class="st3" width="3.2" height="3.2"/>
	<rect x="160.6" y="9.6" class="st3" width="3.2" height="3.2"/>
	<rect x="227.2" y="6.3" class="st3" width="3.2" height="3.2"/>
	<g>
		<path class="st3" d="M177.6,58.4c0,2.2,0.1,2.6,1.2,2.6v0.3c-1.6,0-2.4-0.5-2.7-1.4c-0.7,0.9-1.4,1.5-3,1.5    c-1.6,0-2.9-0.8-2.9-2.3c0-2.5,2.9-3,5.6-3.4c0-0.3,0-0.6,0-0.8c0-1.4-0.5-2.3-1.8-2.3c-1.2,0-2.3,0.8-2.9,1.6l-0.3-0.2    c0.7-1,1.9-1.7,3.4-1.7c2.5,0,3.2,1.6,3.2,4.6V58.4z M175.8,57.2c0-0.5,0-0.9,0-1.3c-2.1,0.3-4.2,0.7-4.2,3c0,1.3,0.5,2,1.8,2    c1.4,0,2-0.8,2.5-1.6C175.9,58.8,175.8,58,175.8,57.2z"/>
		<path class="st3" d="M191.9,46.6h1.7v14.5h-1.7v-1.5c-0.4,1-1.1,1.6-2.4,1.6c-2.3,0-4.4-1.6-4.4-4.6c0-2.9,2.1-4.6,4.4-4.6    c1.3,0,2.1,0.7,2.4,1.6V46.6z M189.5,52.4c-2.4,0-2.5,1.9-2.5,4.3s0.1,4.3,2.5,4.3c1.7,0,2.3-1.3,2.4-3.1v-2.2    C191.8,53.7,191.2,52.4,189.5,52.4z"/>
		<rect x="201.8" y="52.2" class="st3" width="1.7" height="8.9"/>
		<path class="st3" d="M219,56.7c0,2.6-2.3,4.6-4.6,4.6c-2.3,0-4.6-2-4.6-4.6c0-2.6,2.3-4.6,4.6-4.6C216.8,52.1,219,54.1,219,56.7z     M214.5,60.9c2.4,0,2.4-1.9,2.4-4.3s0-4.3-2.4-4.3s-2.4,1.9-2.4,4.3S212,60.9,214.5,60.9z"/>
		<path class="st3" d="M242.3,60.8v0.3h-8.6V46.6h1.9v14.2H242.3L242.3,60.8z"/>
		<rect x="247.6" y="52.2" class="st3" width="1.7" height="8.9"/>
		<path class="st3" d="M257.5,61.1V46.6h1.7v7.2c0.4-1,1.1-1.7,2.4-1.7c2.3,0,4.4,1.6,4.4,4.6c0,2.9-2.1,4.6-4.4,4.6    c-1.4,0-2.1-0.7-2.4-1.7v1.6L257.5,61.1L257.5,61.1z M264.1,56.7c0-2.4-0.1-4.3-2.5-4.3c-1.9,0-2.4,1.6-2.4,3.9V57    c0,2.3,0.5,3.9,2.4,3.9C264,60.9,264.1,59.1,264.1,56.7z"/>
		<path class="st3" d="M279.1,58.4c0,2.2,0.1,2.6,1.2,2.6v0.3c-1.6,0-2.4-0.5-2.7-1.4c-0.7,0.9-1.4,1.5-3,1.5    c-1.6,0-2.9-0.8-2.9-2.3c0-2.5,2.9-3,5.6-3.4c0-0.3,0-0.6,0-0.8c0-1.4-0.5-2.3-1.8-2.3c-1.2,0-2.3,0.8-2.9,1.6l-0.3-0.2    c0.7-1,1.9-1.7,3.4-1.7c2.5,0,3.2,1.6,3.2,4.6V58.4z M277.3,57.2c0-0.5,0-0.9,0-1.3c-2.1,0.3-4.2,0.7-4.2,3c0,1.3,0.5,2,1.8,2    c1.4,0,2-0.8,2.5-1.6C277.3,58.8,277.3,58,277.3,57.2z"/>
		<path class="st3" d="M287.2,61.1v-8.9h1.7v2.5c0.8-1.1,2-2.6,3.5-2.6c3,0,3.1,1.8,3.1,3.7v5.4h-1.7v-5.4c0-1.8,0-3.3-1.5-3.3    s-2.6,1.6-3.4,2.9v5.9L287.2,61.1L287.2,61.1z"/>
		<path class="st3" d="M163.4,57.3c0-1.6-1.5-3.1-3.7-3.7c2.6-0.4,3.9-1.9,3.9-3.4c0-1.8-1.8-3.7-5.3-3.7c-1,0-1.6,0.1-2.5,0.1h-2.1    v14.5h1.9v-7.4h2.4c3.1,0,3.5,1.8,3.5,3.6c0,0.1,0,3.9,0,3.9h2.2l0,0C163.4,61.2,163.4,57.4,163.4,57.3z M155.4,53.4V47h0.3    c1,0,1.5-0.1,2.5-0.1c2.1,0,3.1,1.1,3.1,3.3c0,2.3-1.1,3.2-3.1,3.2L155.4,53.4L155.4,53.4z"/>
		<rect x="201.8" y="48.6" class="st3" width="1.7" height="1.7"/>
		<rect x="247.6" y="48.6" class="st3" width="1.7" height="1.7"/>
	</g>
</g>
</svg>