<svg id="Group_5" data-name="Group 5" xmlns="http://www.w3.org/2000/svg" viewBox="0 0 34.482 28.828">
  <defs>
    <style>
      .cls-1 {
        fill: #c93440;
      }
    </style>
  </defs>
  <path id="Path_443" data-name="Path 443" d="M281.88,539.653a.114.114,0,0,1,.228,0,.114.114,0,1,1-.228,0" transform="translate(-266.938 -510.941)"/>
  <path id="Path_444" data-name="Path 444" d="M281.3,522.8a.145.145,0,1,1,.29,0,.145.145,0,1,1-.29,0" transform="translate(-266.389 -494.946)"/>
  <path id="Path_445" data-name="Path 445" d="M280.54,506.033a.185.185,0,0,1,.37,0,.185.185,0,1,1-.37,0" transform="translate(-265.669 -479.036)"/>
  <path id="Path_446" data-name="Path 446" d="M260.7,421.861a.343.343,0,1,1,.343.338.338.338,0,0,1-.343-.338" transform="translate(-246.881 -399.176)"/>
  <path id="Path_447" data-name="Path 447" d="M263.08,489.186a.217.217,0,1,1,.217.216.217.217,0,0,1-.217-.216" transform="translate(-249.135 -463.051)"/>
  <path id="Path_448" data-name="Path 448" d="M261.95,455.491a.279.279,0,1,1,.277.279.28.28,0,0,1-.277-.279" transform="translate(-248.065 -431.081)"/>
  <path id="Path_449" data-name="Path 449" d="M262.47,472.318a.248.248,0,0,1,.249-.248.248.248,0,0,1,0,.5.249.249,0,0,1-.249-.248" transform="translate(-248.557 -447.047)"/>
  <path id="Path_450" data-name="Path 450" d="M261.32,438.67a.31.31,0,1,1,.31.312.309.309,0,0,1-.31-.312" transform="translate(-247.468 -415.124)"/>
  <path id="Path_451" data-name="Path 451" d="M276.98,405.024a.373.373,0,1,1,.374.372.373.373,0,0,1-.374-.372" transform="translate(-262.298 -383.201)"/>
  <path id="Path_452" data-name="Path 452" d="M293.83,405.024a.373.373,0,1,1,.374.372.373.373,0,0,1-.374-.372" transform="translate(-278.255 -383.201)"/>
  <path id="Path_453" data-name="Path 453" d="M310.69,405.024a.373.373,0,1,1,.374.372.373.373,0,0,1-.374-.372" transform="translate(-294.221 -383.201)"/>
  <path id="Path_454" data-name="Path 454" d="M327.54,405.024a.373.373,0,1,1,.374.372.373.373,0,0,1-.374-.372" transform="translate(-310.178 -383.201)"/>
  <path id="Path_455" data-name="Path 455" d="M344.39,405.024a.373.373,0,1,1,.374.372.373.373,0,0,1-.374-.372" transform="translate(-326.135 -383.201)"/>
  <path id="Path_456" data-name="Path 456" d="M512.91,405.024a.373.373,0,1,1,.374.372.373.373,0,0,1-.374-.372" transform="translate(-485.722 -383.201)"/>
  <path id="Path_457" data-name="Path 457" d="M496.06,405.024a.373.373,0,1,1,.374.372.373.373,0,0,1-.374-.372" transform="translate(-469.765 -383.201)"/>
  <path id="Path_458" data-name="Path 458" d="M479.21,405.024a.373.373,0,1,1,.373.372.373.373,0,0,1-.373-.372" transform="translate(-453.809 -383.201)"/>
  <path id="Path_459" data-name="Path 459" d="M462.36,405.024a.373.373,0,1,1,.374.372.373.373,0,0,1-.374-.372" transform="translate(-437.852 -383.201)"/>
  <path id="Path_460" data-name="Path 460" d="M428.65,405.024a.373.373,0,1,1,.374.372.374.374,0,0,1-.374-.372" transform="translate(-405.928 -383.201)"/>
  <path id="Path_461" data-name="Path 461" d="M411.8,405.024a.373.373,0,1,1,.374.372.373.373,0,0,1-.374-.372" transform="translate(-389.972 -383.201)"/>
  <path id="Path_462" data-name="Path 462" d="M394.95,405.024a.373.373,0,1,1,.373.372.373.373,0,0,1-.373-.372" transform="translate(-374.015 -383.201)"/>
  <path id="Path_463" data-name="Path 463" d="M378.09,405.024a.373.373,0,1,1,.374.372.373.373,0,0,1-.374-.372" transform="translate(-358.049 -383.201)"/>
  <path id="Path_464" data-name="Path 464" d="M361.24,405.024a.373.373,0,1,1,.374.372.373.373,0,0,1-.374-.372" transform="translate(-342.092 -383.201)"/>
  <path id="Path_465" data-name="Path 465" d="M279.38,472.318a.248.248,0,1,1,.5,0,.248.248,0,1,1-.5,0" transform="translate(-264.571 -447.047)"/>
  <path id="Path_466" data-name="Path 466" d="M279.92,489.186a.217.217,0,0,1,.435,0,.217.217,0,0,1-.435,0" transform="translate(-265.082 -463.051)"/>
  <path id="Path_467" data-name="Path 467" d="M278.18,438.67a.31.31,0,1,1,.31.312.309.309,0,0,1-.31-.312" transform="translate(-263.435 -415.124)"/>
  <path id="Path_468" data-name="Path 468" d="M278.75,455.491a.28.28,0,1,1,.279.279.279.279,0,0,1-.279-.279" transform="translate(-263.974 -431.081)"/>
  <path id="Path_469" data-name="Path 469" d="M277.55,421.861a.342.342,0,0,1,.685,0,.342.342,0,0,1-.685,0" transform="translate(-262.838 -399.176)"/>
  <path id="Path_470" data-name="Path 470" d="M463.05,421.861a.342.342,0,0,1,.684,0,.342.342,0,0,1-.684,0" transform="translate(-438.505 -399.176)"/>
  <path id="Path_471" data-name="Path 471" d="M310.11,388.154a.406.406,0,1,1,.4.409.406.406,0,0,1-.4-.409" transform="translate(-293.672 -367.197)"/>
  <path id="Path_472" data-name="Path 472" d="M327.51,388.154a.406.406,0,1,1,.4.409.406.406,0,0,1-.4-.409" transform="translate(-310.15 -367.197)"/>
  <path id="Path_473" data-name="Path 473" d="M344.226,387.75a.407.407,0,1,1-.406.4.4.4,0,0,1,.406-.4" transform="translate(-325.595 -367.197)"/>
  <path id="Path_474" data-name="Path 474" d="M361.27,388.154a.406.406,0,1,1,.4.409.406.406,0,0,1-.4-.409" transform="translate(-342.12 -367.197)"/>
  <path id="Path_475" data-name="Path 475" d="M378.67,388.154a.406.406,0,1,1,.4.409.406.406,0,0,1-.4-.409" transform="translate(-358.598 -367.197)"/>
  <path id="Path_476" data-name="Path 476" d="M395.385,387.75a.407.407,0,1,1-.406.4.4.4,0,0,1,.406-.4" transform="translate(-374.043 -367.197)"/>
  <path id="Path_477" data-name="Path 477" d="M412.076,387.75a.407.407,0,1,1-.406.4.4.4,0,0,1,.406-.4" transform="translate(-389.849 -367.197)"/>
  <path id="Path_478" data-name="Path 478" d="M461.64,388.154a.406.406,0,1,1,.4.409.406.406,0,0,1-.4-.409" transform="translate(-437.17 -367.197)"/>
  <path id="Path_479" data-name="Path 479" d="M478.27,388.154a.406.406,0,1,1,.4.409.406.406,0,0,1-.4-.409" transform="translate(-452.918 -367.197)"/>
  <path id="Path_480" data-name="Path 480" d="M495.316,387.75a.407.407,0,1,1-.406.4.4.4,0,0,1,.406-.4" transform="translate(-468.676 -367.197)"/>
  <path id="Path_481" data-name="Path 481" d="M511.956,387.75a.407.407,0,1,1-.406.4.4.4,0,0,1,.406-.4" transform="translate(-484.434 -367.197)"/>
  <path id="Path_482" data-name="Path 482" d="M462.182,371.411a.436.436,0,1,1-.872,0,.436.436,0,0,1,.872,0" transform="translate(-436.857 -351.315)"/>
  <path id="Path_483" data-name="Path 483" d="M462.182,354.181a.436.436,0,1,1-.872,0,.436.436,0,0,1,.872,0" transform="translate(-436.857 -334.999)"/>
  <path id="Path_484" data-name="Path 484" d="M444.942,371.411a.436.436,0,1,1-.872,0,.436.436,0,0,1,.872,0" transform="translate(-420.531 -351.315)"/>
  <path id="Path_485" data-name="Path 485" d="M309.54,371.411a.437.437,0,0,1,.874,0,.437.437,0,1,1-.874,0" transform="translate(-293.132 -351.315)"/>
  <path id="Path_486" data-name="Path 486" d="M445.05,388.154a.4.4,0,1,1,.4.409.4.4,0,0,1-.4-.409" transform="translate(-421.459 -367.197)"/>
  <path id="Path_487" data-name="Path 487" d="M428.13,388.154a.4.4,0,1,1,.407.409.407.407,0,0,1-.407-.409" transform="translate(-405.436 -367.197)"/>
  <path id="Path_488" data-name="Path 488" d="M445.5,405.024a.373.373,0,1,1,.373.372.371.371,0,0,1-.373-.372" transform="translate(-421.885 -383.201)"/>
  <path id="Path_489" data-name="Path 489" d="M446.21,421.861a.341.341,0,1,1,.682,0,.341.341,0,0,1-.682,0" transform="translate(-422.558 -399.176)"/>
  <path id="Path_490" data-name="Path 490" d="M263.69,506.033a.184.184,0,0,1,.369,0,.185.185,0,1,1-.369,0" transform="translate(-249.713 -479.036)"/>
  <path id="Path_491" data-name="Path 491" d="M247.53,522.8a.147.147,0,1,1,.294,0,.147.147,0,0,1-.146.145.148.148,0,0,1-.148-.145" transform="translate(-234.409 -494.946)"/>
  <path id="Path_492" data-name="Path 492" d="M163.27,522.8a.145.145,0,1,1,.29,0,.146.146,0,0,1-.145.145.148.148,0,0,1-.145-.145" transform="translate(-154.616 -494.946)"/>
  <path id="Path_493" data-name="Path 493" d="M264.46,522.8a.144.144,0,1,1,.144.145.145.145,0,0,1-.144-.145" transform="translate(-250.442 -494.946)"/>
  <path id="Path_494" data-name="Path 494" d="M162.5,506.033a.184.184,0,0,1,.186-.183.18.18,0,0,1,.183.183.183.183,0,0,1-.183.188.187.187,0,0,1-.186-.188" transform="translate(-153.886 -479.036)"/>
  <path id="Path_495" data-name="Path 495" d="M163.91,539.653a.113.113,0,1,1,.225,0,.113.113,0,1,1-.225,0" transform="translate(-155.222 -510.941)"/>
  <path id="Path_496" data-name="Path 496" d="M145.05,489.186a.217.217,0,0,1,.434,0,.217.217,0,0,1-.434,0" transform="translate(-137.361 -463.051)"/>
  <path id="Path_497" data-name="Path 497" d="M143.29,438.67a.311.311,0,1,1,.312.312.31.31,0,0,1-.312-.312" transform="translate(-135.695 -415.124)"/>
  <path id="Path_498" data-name="Path 498" d="M144.49,472.318a.248.248,0,1,1,.5,0,.25.25,0,0,1-.248.248.247.247,0,0,1-.248-.248" transform="translate(-136.831 -447.047)"/>
  <path id="Path_499" data-name="Path 499" d="M143.8,455.491a.284.284,0,0,1,.285-.281.28.28,0,1,1-.285.281" transform="translate(-136.178 -431.081)"/>
  <path id="Path_500" data-name="Path 500" d="M178.2,472.318a.247.247,0,1,1,.247.248.247.247,0,0,1-.247-.248" transform="translate(-168.754 -447.047)"/>
  <path id="Path_501" data-name="Path 501" d="M178.81,489.186a.214.214,0,0,1,.215-.216.216.216,0,1,1,0,.432.212.212,0,0,1-.215-.216" transform="translate(-169.332 -463.051)"/>
  <path id="Path_502" data-name="Path 502" d="M145.68,506.033a.181.181,0,0,1,.186-.183.184.184,0,0,1,.185.183.187.187,0,0,1-.185.188.183.183,0,0,1-.186-.188" transform="translate(-137.958 -479.036)"/>
  <path id="Path_503" data-name="Path 503" d="M179.39,506.033a.185.185,0,1,1,.184.188.186.186,0,0,1-.184-.188" transform="translate(-169.881 -479.036)"/>
  <path id="Path_504" data-name="Path 504" d="M161.32,472.318a.249.249,0,1,1,.249.248.25.25,0,0,1-.249-.248" transform="translate(-152.769 -447.047)"/>
  <path id="Path_505" data-name="Path 505" d="M160.76,455.491a.279.279,0,1,1,.279.279.279.279,0,0,1-.279-.279" transform="translate(-152.239 -431.081)"/>
  <path id="Path_506" data-name="Path 506" d="M180.14,522.8a.145.145,0,1,1,.289,0,.145.145,0,1,1-.289,0" transform="translate(-170.591 -494.946)"/>
  <path id="Path_507" data-name="Path 507" d="M180.71,539.653a.113.113,0,0,1,.227,0,.113.113,0,1,1-.227,0" transform="translate(-171.131 -510.941)"/>
  <path id="Path_508" data-name="Path 508" d="M160.13,438.67a.311.311,0,0,1,.312-.31.311.311,0,0,1,0,.622.312.312,0,0,1-.312-.312" transform="translate(-151.642 -415.124)"/>
  <path id="Path_509" data-name="Path 509" d="M129.53,522.8a.145.145,0,1,1,.29,0,.145.145,0,1,1-.29,0" transform="translate(-122.664 -494.946)"/>
  <path id="Path_510" data-name="Path 510" d="M111.31,489.186a.218.218,0,0,1,.436,0,.218.218,0,0,1-.436,0" transform="translate(-105.41 -463.051)"/>
  <path id="Path_511" data-name="Path 511" d="M110.75,472.318a.247.247,0,0,1,.247-.248.248.248,0,0,1,0,.5.248.248,0,0,1-.247-.248" transform="translate(-104.879 -447.047)"/>
  <path id="Path_512" data-name="Path 512" d="M110.16,455.491a.281.281,0,0,1,.279-.281.28.28,0,1,1-.279.281" transform="translate(-104.321 -431.081)"/>
  <path id="Path_513" data-name="Path 513" d="M111.92,506.033a.186.186,0,0,1,.371,0,.186.186,0,1,1-.371,0" transform="translate(-105.987 -479.036)"/>
  <rect id="Rectangle_16" data-name="Rectangle 16" width="2.096" height="0.833" transform="translate(20.281)"/>
  <path id="Path_514" data-name="Path 514" d="M109.57,438.67a.31.31,0,1,1,.31.312.308.308,0,0,1-.31-.312" transform="translate(-103.762 -415.124)"/>
  <path id="Path_515" data-name="Path 515" d="M146.4,522.8a.146.146,0,1,1,.292,0,.146.146,0,0,1-.145.145.147.147,0,0,1-.147-.145" transform="translate(-138.64 -494.946)"/>
  <path id="Path_516" data-name="Path 516" d="M113.3,539.653a.113.113,0,1,1,.225,0,.113.113,0,1,1-.225,0" transform="translate(-107.294 -510.941)"/>
  <path id="Path_517" data-name="Path 517" d="M112.69,522.8a.145.145,0,1,1,.145.145.145.145,0,0,1-.145-.145" transform="translate(-106.717 -494.946)"/>
  <path id="Path_518" data-name="Path 518" d="M126.98,455.491a.279.279,0,1,1,.559,0,.279.279,0,0,1-.559,0" transform="translate(-120.249 -431.081)"/>
  <path id="Path_519" data-name="Path 519" d="M126.39,438.67a.312.312,0,1,1,.31.312.311.311,0,0,1-.31-.312" transform="translate(-119.69 -415.124)"/>
  <path id="Path_520" data-name="Path 520" d="M147.06,539.653a.111.111,0,0,1,.112-.113.114.114,0,0,1,.113.113.116.116,0,0,1-.113.116.113.113,0,0,1-.112-.116" transform="translate(-139.265 -510.941)"/>
  <path id="Path_521" data-name="Path 521" d="M127.59,472.318a.249.249,0,1,1,.246.248.248.248,0,0,1-.246-.248" transform="translate(-120.827 -447.047)"/>
  <path id="Path_522" data-name="Path 522" d="M177.58,455.491a.28.28,0,1,1,.561,0,.28.28,0,0,1-.561,0" transform="translate(-168.167 -431.081)"/>
  <path id="Path_523" data-name="Path 523" d="M128.16,489.186a.219.219,0,1,1,.216.216.217.217,0,0,1-.216-.216" transform="translate(-121.367 -463.051)"/>
  <path id="Path_524" data-name="Path 524" d="M130.14,539.653a.11.11,0,0,1,.111-.113.114.114,0,0,1,.117.113.116.116,0,0,1-.117.116.113.113,0,0,1-.111-.116" transform="translate(-123.242 -510.941)"/>
  <path id="Path_525" data-name="Path 525" d="M128.74,506.033a.187.187,0,0,1,.375,0,.187.187,0,1,1-.375,0" transform="translate(-121.916 -479.036)"/>
  <path id="Path_526" data-name="Path 526" d="M161.91,489.186a.217.217,0,0,1,.433,0,.217.217,0,0,1-.433,0" transform="translate(-153.328 -463.051)"/>
  <path id="Path_527" data-name="Path 527" d="M227.02,421.861a.342.342,0,1,1,.343.338.337.337,0,0,1-.343-.338" transform="translate(-214.986 -399.176)"/>
  <path id="Path_528" data-name="Path 528" d="M228.21,455.491a.278.278,0,1,1,.555,0,.277.277,0,1,1-.555,0" transform="translate(-216.113 -431.081)"/>
  <path id="Path_529" data-name="Path 529" d="M227.58,438.67a.311.311,0,1,1,.313.312.309.309,0,0,1-.313-.312" transform="translate(-215.517 -415.124)"/>
  <path id="Path_530" data-name="Path 530" d="M228.76,472.318a.249.249,0,1,1,.251.248.25.25,0,0,1-.251-.248" transform="translate(-216.634 -447.047)"/>
  <path id="Path_531" data-name="Path 531" d="M230.77,522.8a.145.145,0,0,1,.145-.147.148.148,0,0,1,.145.147.146.146,0,0,1-.145.145.143.143,0,0,1-.145-.145" transform="translate(-218.538 -494.946)"/>
  <path id="Path_532" data-name="Path 532" d="M229.32,489.186a.219.219,0,0,1,.221-.216.216.216,0,0,1,0,.432.216.216,0,0,1-.221-.216" transform="translate(-217.164 -463.051)"/>
  <path id="Path_533" data-name="Path 533" d="M229.93,506.033a.188.188,0,0,1,.375,0,.188.188,0,1,1-.375,0" transform="translate(-217.742 -479.036)"/>
  <path id="Path_534" data-name="Path 534" d="M243.9,421.861a.342.342,0,1,1,.34.338.337.337,0,0,1-.34-.338" transform="translate(-230.972 -399.176)"/>
  <path id="Path_535" data-name="Path 535" d="M231.33,539.653a.115.115,0,0,1,.23,0,.116.116,0,0,1-.115.116.115.115,0,0,1-.115-.116" transform="translate(-219.068 -510.941)"/>
  <path id="Path_536" data-name="Path 536" d="M244.47,438.67a.31.31,0,1,1,.31.312.309.309,0,0,1-.31-.312" transform="translate(-231.511 -415.124)"/>
  <path id="Path_537" data-name="Path 537" d="M264.99,539.653a.115.115,0,0,1,.116-.113.112.112,0,0,1,.112.113.114.114,0,0,1-.112.116.117.117,0,0,1-.116-.116" transform="translate(-250.944 -510.941)"/>
  <path id="Path_538" data-name="Path 538" d="M245.64,472.318a.248.248,0,1,1,.248.248.247.247,0,0,1-.248-.248" transform="translate(-232.619 -447.047)"/>
  <path id="Path_539" data-name="Path 539" d="M245.06,455.491a.279.279,0,1,1,.279.279.279.279,0,0,1-.279-.279" transform="translate(-232.07 -431.081)"/>
  <path id="Path_540" data-name="Path 540" d="M246.82,506.033a.185.185,0,0,1,.37,0,.185.185,0,1,1-.37,0" transform="translate(-233.737 -479.036)"/>
  <path id="Path_541" data-name="Path 541" d="M248.17,539.653a.114.114,0,0,1,.114-.113.112.112,0,0,1,.113.113.115.115,0,0,1-.113.116.116.116,0,0,1-.114-.116" transform="translate(-235.015 -510.941)"/>
  <path id="Path_542" data-name="Path 542" d="M246.24,489.186a.216.216,0,1,1,.216.216.215.215,0,0,1-.216-.216" transform="translate(-233.188 -463.051)"/>
  <path id="Path_543" data-name="Path 543" d="M348.61,539.653a.114.114,0,0,1,.228,0,.114.114,0,1,1-.228,0" transform="translate(-330.131 -510.941)"/>
  <path id="Path_544" data-name="Path 544" d="M348.03,522.8a.145.145,0,1,1,.29,0,.145.145,0,1,1-.29,0" transform="translate(-329.582 -494.946)"/>
  <path id="Path_545" data-name="Path 545" d="M347.28,506.033a.185.185,0,0,1,.37,0,.185.185,0,1,1-.37,0" transform="translate(-328.872 -479.036)"/>
  <path id="Path_546" data-name="Path 546" d="M327.43,421.861a.343.343,0,1,1,.343.338.338.338,0,0,1-.343-.338" transform="translate(-310.074 -399.176)"/>
  <path id="Path_547" data-name="Path 547" d="M329.82,489.186a.217.217,0,1,1,.217.216.217.217,0,0,1-.217-.216" transform="translate(-312.337 -463.051)"/>
  <path id="Path_548" data-name="Path 548" d="M328.68,455.491a.279.279,0,1,1,.277.279.28.28,0,0,1-.277-.279" transform="translate(-311.258 -431.081)"/>
  <path id="Path_549" data-name="Path 549" d="M329.21,472.318a.248.248,0,0,1,.249-.248.248.248,0,0,1,0,.5.249.249,0,0,1-.249-.248" transform="translate(-311.759 -447.047)"/>
  <path id="Path_550" data-name="Path 550" d="M328.06,438.67a.31.31,0,1,1,.31.312.309.309,0,0,1-.31-.312" transform="translate(-310.671 -415.124)"/>
  <path id="Path_551" data-name="Path 551" d="M346.11,472.318a.248.248,0,1,1,.5,0,.248.248,0,1,1-.5,0" transform="translate(-327.764 -447.047)"/>
  <path id="Path_552" data-name="Path 552" d="M346.65,489.186a.217.217,0,0,1,.435,0,.217.217,0,0,1-.435,0" transform="translate(-328.275 -463.051)"/>
  <path id="Path_553" data-name="Path 553" d="M344.91,438.67a.31.31,0,1,1,.31.312.309.309,0,0,1-.31-.312" transform="translate(-326.627 -415.124)"/>
  <path id="Path_554" data-name="Path 554" d="M345.49,455.491a.28.28,0,1,1,.279.279.279.279,0,0,1-.279-.279" transform="translate(-327.177 -431.081)"/>
  <path id="Path_555" data-name="Path 555" d="M346.94,375.911a.28.28,0,1,1,.279.279.279.279,0,0,1-.279-.279" transform="translate(-328.55 -355.719)"/>
  <path id="Path_556" data-name="Path 556" d="M344.29,421.861a.343.343,0,0,1,.685,0,.343.343,0,0,1-.685,0" transform="translate(-326.04 -399.176)"/>
  <path id="Path_557" data-name="Path 557" d="M330.42,506.033a.184.184,0,0,1,.369,0,.185.185,0,1,1-.369,0" transform="translate(-312.905 -479.036)"/>
  <path id="Path_558" data-name="Path 558" d="M314.26,522.8a.147.147,0,1,1,.294,0,.147.147,0,0,1-.146.145.148.148,0,0,1-.148-.145" transform="translate(-297.602 -494.946)"/>
  <path id="Path_559" data-name="Path 559" d="M331.2,522.8a.144.144,0,1,1,.144.145.143.143,0,0,1-.144-.145" transform="translate(-313.644 -494.946)"/>
  <path id="Path_560" data-name="Path 560" d="M293.76,421.861a.342.342,0,1,1,.343.338.337.337,0,0,1-.343-.338" transform="translate(-278.189 -399.176)"/>
  <path id="Path_561" data-name="Path 561" d="M294.94,455.491a.277.277,0,1,1,.554,0,.277.277,0,1,1-.554,0" transform="translate(-279.306 -431.081)"/>
  <path id="Path_562" data-name="Path 562" d="M294.32,438.67a.311.311,0,1,1,.313.312.309.309,0,0,1-.313-.312" transform="translate(-278.719 -415.124)"/>
  <path id="Path_563" data-name="Path 563" d="M295.5,472.318a.249.249,0,1,1,.251.248.25.25,0,0,1-.251-.248" transform="translate(-279.836 -447.047)"/>
  <path id="Path_564" data-name="Path 564" d="M297.5,522.8a.145.145,0,0,1,.145-.147.148.148,0,0,1,.145.147.146.146,0,0,1-.145.145.143.143,0,0,1-.145-.145" transform="translate(-281.73 -494.946)"/>
  <path id="Path_565" data-name="Path 565" d="M296.06,489.186a.219.219,0,0,1,.221-.216.216.216,0,0,1,0,.432.216.216,0,0,1-.221-.216" transform="translate(-280.367 -463.051)"/>
  <path id="Path_566" data-name="Path 566" d="M296.67,506.033a.188.188,0,0,1,.375,0,.188.188,0,1,1-.375,0" transform="translate(-280.944 -479.036)"/>
  <path id="Path_567" data-name="Path 567" d="M310.63,421.861a.342.342,0,1,1,.34.338.337.337,0,0,1-.34-.338" transform="translate(-294.164 -399.176)"/>
  <path id="Path_568" data-name="Path 568" d="M298.06,539.653a.112.112,0,0,1,.115-.113.113.113,0,0,1,.115.113.115.115,0,1,1-.23,0" transform="translate(-282.261 -510.941)"/>
  <path id="Path_569" data-name="Path 569" d="M311.2,438.67a.31.31,0,1,1,.31.312.309.309,0,0,1-.31-.312" transform="translate(-294.704 -415.124)"/>
  <path id="Path_570" data-name="Path 570" d="M331.72,539.653a.115.115,0,0,1,.116-.113.112.112,0,0,1,.112.113.114.114,0,0,1-.112.116.117.117,0,0,1-.116-.116" transform="translate(-314.137 -510.941)"/>
  <path id="Path_571" data-name="Path 571" d="M312.37,472.318a.248.248,0,1,1,.248.248.247.247,0,0,1-.248-.248" transform="translate(-295.812 -447.047)"/>
  <path id="Path_572" data-name="Path 572" d="M311.79,455.491a.279.279,0,1,1,.279.279.279.279,0,0,1-.279-.279" transform="translate(-295.263 -431.081)"/>
  <path id="Path_573" data-name="Path 573" d="M313.55,506.033a.185.185,0,0,1,.37,0,.185.185,0,1,1-.37,0" transform="translate(-296.93 -479.036)"/>
  <path id="Path_574" data-name="Path 574" d="M314.9,539.653a.114.114,0,0,1,.114-.113.112.112,0,0,1,.113.113.115.115,0,0,1-.113.116.116.116,0,0,1-.114-.116" transform="translate(-298.208 -510.941)"/>
  <path id="Path_575" data-name="Path 575" d="M312.98,489.186a.216.216,0,1,1,.216.216.215.215,0,0,1-.216-.216" transform="translate(-296.39 -463.051)"/>
  <path id="Path_576" data-name="Path 576" d="M415.74,539.653a.114.114,0,0,1,.228,0,.114.114,0,1,1-.228,0" transform="translate(-393.703 -510.941)"/>
  <path id="Path_577" data-name="Path 577" d="M415.17,522.8a.145.145,0,1,1,.29,0,.145.145,0,1,1-.29,0" transform="translate(-393.163 -494.946)"/>
  <path id="Path_578" data-name="Path 578" d="M414.41,506.033a.185.185,0,0,1,.37,0,.185.185,0,1,1-.37,0" transform="translate(-392.443 -479.036)"/>
  <path id="Path_579" data-name="Path 579" d="M394.57,421.861a.343.343,0,1,1,.343.338.338.338,0,0,1-.343-.338" transform="translate(-373.655 -399.176)"/>
  <path id="Path_580" data-name="Path 580" d="M396.95,489.186a.217.217,0,1,1,.217.216.215.215,0,0,1-.217-.216" transform="translate(-375.909 -463.051)"/>
  <path id="Path_581" data-name="Path 581" d="M395.82,455.491a.279.279,0,1,1,.277.279.279.279,0,0,1-.277-.279" transform="translate(-374.839 -431.081)"/>
  <path id="Path_582" data-name="Path 582" d="M396.34,472.318a.248.248,0,0,1,.249-.248.248.248,0,0,1,0,.5.249.249,0,0,1-.249-.248" transform="translate(-375.331 -447.047)"/>
  <path id="Path_583" data-name="Path 583" d="M395.19,438.67a.311.311,0,1,1,.31.312.309.309,0,0,1-.31-.312" transform="translate(-374.242 -415.124)"/>
  <path id="Path_584" data-name="Path 584" d="M413.25,472.318a.248.248,0,1,1,.5,0,.248.248,0,1,1-.5,0" transform="translate(-391.345 -447.047)"/>
  <path id="Path_585" data-name="Path 585" d="M413.79,489.186a.217.217,0,0,1,.435,0,.217.217,0,0,1-.435,0" transform="translate(-391.856 -463.051)"/>
  <path id="Path_586" data-name="Path 586" d="M412.04,438.67a.31.31,0,1,1,.31.312.309.309,0,0,1-.31-.312" transform="translate(-390.199 -415.124)"/>
  <path id="Path_587" data-name="Path 587" d="M412.62,455.491a.28.28,0,1,1,.279.279.279.279,0,0,1-.279-.279" transform="translate(-390.748 -431.081)"/>
  <path id="Path_588" data-name="Path 588" d="M411.42,421.861a.342.342,0,0,1,.685,0,.342.342,0,0,1-.685,0" transform="translate(-389.612 -399.176)"/>
  <path id="Path_589" data-name="Path 589" d="M433.81,539.653a.114.114,0,0,1,.228,0,.114.114,0,1,1-.228,0" transform="translate(-410.815 -510.941)"/>
  <path id="Path_590" data-name="Path 590" d="M433.23,522.8a.145.145,0,1,1,.289,0,.145.145,0,1,1-.289,0" transform="translate(-410.266 -494.946)"/>
  <path id="Path_591" data-name="Path 591" d="M432.48,506.033a.185.185,0,0,1,.37,0,.185.185,0,1,1-.37,0" transform="translate(-409.556 -479.036)"/>
  <path id="Path_592" data-name="Path 592" d="M431.31,472.318a.248.248,0,1,1,.5,0,.248.248,0,1,1-.5,0" transform="translate(-408.448 -447.047)"/>
  <path id="Path_593" data-name="Path 593" d="M431.85,489.186a.217.217,0,0,1,.435,0,.217.217,0,0,1-.435,0" transform="translate(-408.959 -463.051)"/>
  <path id="Path_594" data-name="Path 594" d="M430.11,438.67a.31.31,0,1,1,.31.312.309.309,0,0,1-.31-.312" transform="translate(-407.311 -415.124)"/>
  <path id="Path_595" data-name="Path 595" d="M430.69,455.491a.28.28,0,1,1,.279.279.279.279,0,0,1-.279-.279" transform="translate(-407.86 -431.081)"/>
  <path id="Path_596" data-name="Path 596" d="M429.49,421.861a.343.343,0,0,1,.685,0,.343.343,0,0,1-.685,0" transform="translate(-406.724 -399.176)"/>
  <path id="Path_597" data-name="Path 597" d="M397.56,506.033a.184.184,0,0,1,.369,0,.185.185,0,1,1-.369,0" transform="translate(-376.487 -479.036)"/>
  <path id="Path_598" data-name="Path 598" d="M381.39,522.8a.147.147,0,1,1,.294,0,.147.147,0,0,1-.146.145.148.148,0,0,1-.148-.145" transform="translate(-361.174 -494.946)"/>
  <path id="Path_599" data-name="Path 599" d="M398.33,522.8a.144.144,0,1,1,.144.145.143.143,0,0,1-.144-.145" transform="translate(-377.216 -494.946)"/>
  <path id="Path_600" data-name="Path 600" d="M360.89,421.861a.342.342,0,1,1,.343.338.337.337,0,0,1-.343-.338" transform="translate(-341.76 -399.176)"/>
  <path id="Path_601" data-name="Path 601" d="M362.07,455.491a.277.277,0,1,1,.554,0,.277.277,0,1,1-.554,0" transform="translate(-342.878 -431.081)"/>
  <path id="Path_602" data-name="Path 602" d="M361.45,438.67a.311.311,0,1,1,.313.312.309.309,0,0,1-.313-.312" transform="translate(-342.291 -415.124)"/>
  <path id="Path_603" data-name="Path 603" d="M362.63,472.318a.249.249,0,1,1,.251.248.25.25,0,0,1-.251-.248" transform="translate(-343.408 -447.047)"/>
  <path id="Path_604" data-name="Path 604" d="M364.64,522.8a.145.145,0,0,1,.145-.147.148.148,0,0,1,.145.147.146.146,0,0,1-.145.145.143.143,0,0,1-.145-.145" transform="translate(-345.312 -494.946)"/>
  <path id="Path_605" data-name="Path 605" d="M363.19,489.186a.219.219,0,0,1,.221-.216.216.216,0,0,1,0,.432.216.216,0,0,1-.221-.216" transform="translate(-343.938 -463.051)"/>
  <path id="Path_606" data-name="Path 606" d="M363.8,506.033a.188.188,0,0,1,.375,0,.188.188,0,1,1-.375,0" transform="translate(-344.516 -479.036)"/>
  <path id="Path_607" data-name="Path 607" d="M377.76,421.861a.342.342,0,1,1,.34.338.337.337,0,0,1-.34-.338" transform="translate(-357.736 -399.176)"/>
  <path id="Path_608" data-name="Path 608" d="M365.19,539.653a.115.115,0,0,1,.23,0,.115.115,0,1,1-.23,0" transform="translate(-345.832 -510.941)"/>
  <path id="Path_609" data-name="Path 609" d="M378.33,438.67a.31.31,0,1,1,.31.312.309.309,0,0,1-.31-.312" transform="translate(-358.276 -415.124)"/>
  <path id="Path_610" data-name="Path 610" d="M398.85,539.653a.115.115,0,0,1,.116-.113.112.112,0,0,1,.112.113.114.114,0,0,1-.112.116.117.117,0,0,1-.116-.116" transform="translate(-377.708 -510.941)"/>
  <path id="Path_611" data-name="Path 611" d="M379.5,472.318a.248.248,0,1,1,.248.248.247.247,0,0,1-.248-.248" transform="translate(-359.384 -447.047)"/>
  <path id="Path_612" data-name="Path 612" d="M378.93,455.491a.279.279,0,1,1,.279.279.279.279,0,0,1-.279-.279" transform="translate(-358.844 -431.081)"/>
  <path id="Path_613" data-name="Path 613" d="M380.69,506.033a.185.185,0,0,1,.371,0,.185.185,0,1,1-.371,0" transform="translate(-360.511 -479.036)"/>
  <path id="Path_614" data-name="Path 614" d="M382.03,539.653a.114.114,0,0,1,.114-.113.112.112,0,0,1,.113.113.115.115,0,0,1-.113.116.116.116,0,0,1-.114-.116" transform="translate(-361.78 -510.941)"/>
  <path id="Path_615" data-name="Path 615" d="M380.11,489.186a.216.216,0,1,1,.216.216.215.215,0,0,1-.216-.216" transform="translate(-359.962 -463.051)"/>
  <path id="Path_616" data-name="Path 616" d="M213.09,506.033a.185.185,0,0,1,.371,0,.185.185,0,1,1-.371,0" transform="translate(-201.795 -479.036)"/>
  <path id="Path_617" data-name="Path 617" d="M194.99,472.318a.25.25,0,1,1,.251.248.249.249,0,0,1-.251-.248" transform="translate(-184.654 -447.047)"/>
  <path id="Path_618" data-name="Path 618" d="M194.45,455.491a.28.28,0,0,1,.279-.281.28.28,0,1,1-.279.281" transform="translate(-184.143 -431.081)"/>
  <path id="Path_619" data-name="Path 619" d="M195.63,489.186a.217.217,0,1,1,.217.216.215.215,0,0,1-.217-.216" transform="translate(-185.26 -463.051)"/>
  <path id="Path_620" data-name="Path 620" d="M193.87,438.67a.31.31,0,1,1,.31.312.309.309,0,0,1-.31-.312" transform="translate(-183.594 -415.124)"/>
  <path id="Path_621" data-name="Path 621" d="M193.26,421.861a.343.343,0,0,1,.685,0,.343.343,0,0,1-.685,0" transform="translate(-183.016 -399.176)"/>
  <path id="Path_622" data-name="Path 622" d="M176.48,421.861a.339.339,0,0,1,.339-.341.344.344,0,0,1,.343.341.339.339,0,0,1-.343.338.334.334,0,0,1-.339-.338" transform="translate(-167.125 -399.176)"/>
  <path id="Path_623" data-name="Path 623" d="M197.03,522.8a.144.144,0,1,1,.287,0,.144.144,0,1,1-.287,0" transform="translate(-186.586 -494.946)"/>
  <path id="Path_624" data-name="Path 624" d="M196.21,506.033a.185.185,0,0,1,.187-.183.182.182,0,0,1,.186.183.186.186,0,0,1-.186.188.189.189,0,0,1-.187-.188" transform="translate(-185.81 -479.036)"/>
  <path id="Path_625" data-name="Path 625" d="M210.1,421.861a.343.343,0,0,1,.685,0,.343.343,0,0,1-.685,0" transform="translate(-198.963 -399.176)"/>
  <path id="Path_626" data-name="Path 626" d="M197.62,539.653a.109.109,0,0,1,.111-.113.111.111,0,0,1,.113.113.113.113,0,0,1-.113.116.112.112,0,0,1-.111-.116" transform="translate(-187.145 -510.941)"/>
  <path id="Path_627" data-name="Path 627" d="M177.02,438.67a.311.311,0,1,1,.31.312.31.31,0,0,1-.31-.312" transform="translate(-167.637 -415.124)"/>
  <path id="Path_628" data-name="Path 628" d="M214.48,539.653a.113.113,0,0,1,.227,0,.113.113,0,1,1-.227,0" transform="translate(-203.111 -510.941)"/>
  <path id="Path_629" data-name="Path 629" d="M212.47,489.186a.218.218,0,0,1,.436,0,.218.218,0,0,1-.436,0" transform="translate(-201.208 -463.051)"/>
  <path id="Path_630" data-name="Path 630" d="M211.32,455.491a.28.28,0,1,1,.279.279.28.28,0,0,1-.279-.279" transform="translate(-200.119 -431.081)"/>
  <path id="Path_631" data-name="Path 631" d="M210.73,438.67a.311.311,0,1,1,.31.312.309.309,0,0,1-.31-.312" transform="translate(-199.56 -415.124)"/>
  <path id="Path_632" data-name="Path 632" d="M213.85,522.8a.147.147,0,0,1,.145-.147.148.148,0,0,1,.146.147.145.145,0,0,1-.291,0" transform="translate(-202.514 -494.946)"/>
  <path id="Path_633" data-name="Path 633" d="M211.91,472.318a.249.249,0,0,1,.5,0,.249.249,0,0,1-.5,0" transform="translate(-200.677 -447.047)"/>
  <path id="Path_634" data-name="Path 634" d="M517.75,539.653a.114.114,0,0,1,.228,0,.114.114,0,1,1-.228,0" transform="translate(-490.306 -510.941)"/>
  <path id="Path_635" data-name="Path 635" d="M517.17,522.8a.145.145,0,1,1,.29,0,.145.145,0,1,1-.29,0" transform="translate(-489.756 -494.946)"/>
  <path id="Path_636" data-name="Path 636" d="M516.42,506.033a.185.185,0,0,1,.37,0,.185.185,0,1,1-.37,0" transform="translate(-489.046 -479.036)"/>
  <path id="Path_637" data-name="Path 637" d="M496.57,421.861a.343.343,0,0,1,.686,0,.343.343,0,0,1-.686,0" transform="translate(-470.248 -399.176)"/>
  <path id="Path_638" data-name="Path 638" d="M498.96,489.186a.217.217,0,1,1,.217.216.215.215,0,0,1-.217-.216" transform="translate(-472.512 -463.051)"/>
  <path id="Path_639" data-name="Path 639" d="M497.82,455.491a.279.279,0,1,1,.277.279.28.28,0,0,1-.277-.279" transform="translate(-471.432 -431.081)"/>
  <path id="Path_640" data-name="Path 640" d="M498.35,472.318a.248.248,0,0,1,.249-.248.248.248,0,0,1,0,.5.249.249,0,0,1-.249-.248" transform="translate(-471.934 -447.047)"/>
  <path id="Path_641" data-name="Path 641" d="M497.2,438.67a.31.31,0,1,1,.31.312.309.309,0,0,1-.31-.312" transform="translate(-470.845 -415.124)"/>
  <path id="Path_642" data-name="Path 642" d="M515.25,472.318a.248.248,0,1,1,.5,0,.248.248,0,1,1-.5,0" transform="translate(-487.938 -447.047)"/>
  <path id="Path_643" data-name="Path 643" d="M515.79,489.186a.217.217,0,0,1,.435,0,.217.217,0,0,1-.435,0" transform="translate(-488.45 -463.051)"/>
  <path id="Path_644" data-name="Path 644" d="M514.05,438.67a.31.31,0,1,1,.31.312.309.309,0,0,1-.31-.312" transform="translate(-486.802 -415.124)"/>
  <path id="Path_645" data-name="Path 645" d="M514.63,455.491a.28.28,0,1,1,.279.279.279.279,0,0,1-.279-.279" transform="translate(-487.351 -431.081)"/>
  <path id="Path_646" data-name="Path 646" d="M513.43,421.861a.342.342,0,0,1,.685,0,.342.342,0,0,1-.685,0" transform="translate(-486.215 -399.176)"/>
  <path id="Path_647" data-name="Path 647" d="M499.56,506.033a.184.184,0,0,1,.369,0,.185.185,0,1,1-.369,0" transform="translate(-473.08 -479.036)"/>
  <path id="Path_648" data-name="Path 648" d="M483.4,522.8a.147.147,0,1,1,.294,0,.147.147,0,0,1-.146.145.149.149,0,0,1-.148-.145" transform="translate(-457.776 -494.946)"/>
  <path id="Path_649" data-name="Path 649" d="M500.34,522.8a.144.144,0,1,1,.144.145.143.143,0,0,1-.144-.145" transform="translate(-473.819 -494.946)"/>
  <path id="Path_650" data-name="Path 650" d="M464.08,455.491a.278.278,0,1,1,.555,0,.278.278,0,1,1-.555,0" transform="translate(-439.48 -431.081)"/>
  <path id="Path_651" data-name="Path 651" d="M463.46,438.67a.311.311,0,1,1,.313.312.309.309,0,0,1-.313-.312" transform="translate(-438.893 -415.124)"/>
  <path id="Path_652" data-name="Path 652" d="M464.64,472.318a.249.249,0,1,1,.251.248.25.25,0,0,1-.251-.248" transform="translate(-440.011 -447.047)"/>
  <path id="Path_653" data-name="Path 653" d="M466.65,522.8a.145.145,0,0,1,.144-.147.148.148,0,0,1,.145.147.146.146,0,0,1-.145.145.143.143,0,0,1-.144-.145" transform="translate(-441.914 -494.946)"/>
  <path id="Path_654" data-name="Path 654" d="M465.2,489.186a.219.219,0,0,1,.221-.216.216.216,0,0,1,0,.432.216.216,0,0,1-.221-.216" transform="translate(-440.541 -463.051)"/>
  <path id="Path_655" data-name="Path 655" d="M465.81,506.033a.188.188,0,0,1,.375,0,.188.188,0,1,1-.375,0" transform="translate(-441.119 -479.036)"/>
  <path id="Path_656" data-name="Path 656" d="M479.77,421.861a.342.342,0,1,1,.34.338.337.337,0,0,1-.34-.338" transform="translate(-454.339 -399.176)"/>
  <path id="Path_657" data-name="Path 657" d="M479.77,356.731a.342.342,0,1,1,.34.338.338.338,0,0,1-.34-.338" transform="translate(-454.339 -337.499)"/>
  <path id="Path_658" data-name="Path 658" d="M467.2,539.653a.115.115,0,0,1,.23,0,.115.115,0,1,1-.23,0" transform="translate(-442.435 -510.941)"/>
  <path id="Path_659" data-name="Path 659" d="M480.34,438.67a.31.31,0,1,1,.31.312.309.309,0,0,1-.31-.312" transform="translate(-454.879 -415.124)"/>
  <path id="Path_660" data-name="Path 660" d="M500.86,539.653a.115.115,0,0,1,.116-.113.112.112,0,0,1,.112.113.115.115,0,0,1-.112.116.117.117,0,0,1-.116-.116" transform="translate(-474.311 -510.941)"/>
  <path id="Path_661" data-name="Path 661" d="M481.51,472.318a.248.248,0,1,1,.248.248.247.247,0,0,1-.248-.248" transform="translate(-455.987 -447.047)"/>
  <path id="Path_662" data-name="Path 662" d="M480.94,455.491a.279.279,0,1,1,.279.279.279.279,0,0,1-.279-.279" transform="translate(-455.447 -431.081)"/>
  <path id="Path_663" data-name="Path 663" d="M482.69,506.033a.185.185,0,0,1,.37,0,.185.185,0,1,1-.37,0" transform="translate(-457.104 -479.036)"/>
  <path id="Path_664" data-name="Path 664" d="M484.04,539.653a.114.114,0,0,1,.114-.113.112.112,0,0,1,.113.113.114.114,0,0,1-.113.116.116.116,0,0,1-.114-.116" transform="translate(-458.382 -510.941)"/>
  <path id="Path_665" data-name="Path 665" d="M482.12,489.186a.216.216,0,1,1,.216.216.215.215,0,0,1-.216-.216" transform="translate(-456.564 -463.051)"/>
  <path id="Path_666" data-name="Path 666" d="M448.97,506.033a.185.185,0,0,1,.371,0,.185.185,0,1,1-.371,0" transform="translate(-425.171 -479.036)"/>
  <path id="Path_667" data-name="Path 667" d="M450.35,539.653a.113.113,0,0,1,.227,0,.113.113,0,1,1-.227,0" transform="translate(-426.478 -510.941)"/>
  <path id="Path_668" data-name="Path 668" d="M448.34,489.186a.218.218,0,0,1,.436,0,.218.218,0,0,1-.436,0" transform="translate(-424.575 -463.051)"/>
  <path id="Path_669" data-name="Path 669" d="M447.19,455.491a.28.28,0,1,1,.279.279.28.28,0,0,1-.279-.279" transform="translate(-423.486 -431.081)"/>
  <path id="Path_670" data-name="Path 670" d="M446.6,438.67a.311.311,0,1,1,.31.312.309.309,0,0,1-.31-.312" transform="translate(-422.927 -415.124)"/>
  <path id="Path_671" data-name="Path 671" d="M449.72,522.8a.146.146,0,1,1,.145.145.147.147,0,0,1-.145-.145" transform="translate(-425.882 -494.946)"/>
  <path id="Path_672" data-name="Path 672" d="M447.79,472.318a.249.249,0,0,1,.5,0,.249.249,0,0,1-.5,0" transform="translate(-424.054 -447.047)"/>
  <path id="Path_673" data-name="Path 673" d="M25.385,18.774l-.475.066c.171.086.366.134.366.367a.409.409,0,0,1-.389.392.358.358,0,0,1-.336-.5l-.091-.05-.046.072-.06.083,0,.036a.364.364,0,0,1-.332.363l-.192.186.162-.02a.333.333,0,1,1-.331.332,1.416,1.416,0,0,1,.03-.192c-.087.067-.169.131-.258.192a.337.337,0,0,1-.333.333.406.406,0,0,1-.173-.046,5.086,5.086,0,0,1-.688.253,5.491,5.491,0,0,1-2.156.172c-.807-.2-1.86-.563-1.86-.563l-.064-.057a.431.431,0,0,1-.42.346.437.437,0,0,1-.136-.853.468.468,0,0,1-.314-.31.465.465,0,0,1-.447.33.439.439,0,0,1-.239-.069,4.24,4.24,0,0,1-.223.394.563.563,0,0,1,.006.069.439.439,0,0,1-.381.433.455.455,0,0,1,.348.429.4.4,0,0,1-.808.025l-.1.082a.4.4,0,0,1-.39.3c-.2.1-.374.2-.561.283a.4.4,0,0,1,.04.173.372.372,0,0,1-.734.083c-.063.015-.12.033-.184.048a.372.372,0,0,1-.619.125l-.111.017c-.1.015-.206.027-.306.038a.37.37,0,0,1-.2.061.384.384,0,0,1-.157-.033c-.109.007-.214.008-.315.008s-.182,0-.274-.008a.358.358,0,0,1-.152.033.345.345,0,0,1-.209-.069,3.6,3.6,0,0,1-.394-.067.375.375,0,0,1-.664-.236c-.049-.025-.1-.057-.155-.085a.3.3,0,0,1,.008.085.373.373,0,0,1-.747,0,.376.376,0,0,1,.328-.373c-.055-.047-.112-.1-.164-.149a.413.413,0,0,1-.139-.139L9.2,20.994a.4.4,0,0,1-.375.368l.054.093a.373.373,0,0,1,.3.367.389.389,0,0,1-.023.126l.069.126.206.368-.347.05a.342.342,0,0,1,.059.192.341.341,0,0,1-.682,0,.378.378,0,0,1,.019-.11l-.236.036a.3.3,0,0,1,.01.075.342.342,0,0,1-.683.02l-.214.03a.343.343,0,0,1-.651.088l-.289.043a.351.351,0,0,1-.293.157.337.337,0,0,1-.342-.338.308.308,0,0,1,.058-.184l-.489-.836-.226.03-.1-.166-.88-1.507a.452.452,0,0,0-.087-.007l-.075,0V23.2l-.252.037-2.436.34-.331.043V22.274l-.623.089L0,22.407V13.974l.253-.034,4.04-.561a8.927,8.927,0,0,1,1.176-.1l.151,0v-.776l-.259,0c-.219,0-.447-.01-.692-.032l-.151-.012,0-.154v-.4c-.152-.009-.3-.023-.46-.037v-1.4l.209.054a3.519,3.519,0,0,0,.844.1c.106,0,.21,0,.313-.013a1.129,1.129,0,0,1-.885-.752,1.116,1.116,0,0,1-.523-1.04c0-.853.553-1.427,1.607-1.721V.944H7.59v.542A1.565,1.565,0,0,1,8.812.89a2.605,2.605,0,0,1,.375.028v.991a2.369,2.369,0,0,0-.5-.048c-.541,0-.966.37-.966.651v.615H9.764c-.277-.106-.477-.277-.477-.534,0-.735,1.221-.86,2.18-.86a6.482,6.482,0,0,1,.71.1c-.083-.29-.5-.349-.985-.349a5.815,5.815,0,0,0-1.432.2V1.026A9.712,9.712,0,0,1,11.539.89c1.1,0,2.574.1,2.574.962V3.127H15.26a1.111,1.111,0,0,1-.8-1.07c0-.64.555-1.164,1.806-1.164a2.062,2.062,0,0,1,1.206.3V0h2.1V3.127h.715V1.167h2.1v1.96h1.573c-.71-.191-1.1-.557-1.1-1.078,0-.794.953-1.159,2.6-1.159s2.611.366,2.611,1.159c0,.524-.4.886-1.111,1.078h1.111v8.288l.2-.029,1.153-1.5.121-.019,3.223-.449.761-.107-.5.585-.808.947,2.261-.317-.5.586L31.265,14.3l2.868,4.281.259.386-.462.065-2.984.416-.2.026-.1-.178-.595-1.074-.262.034-.1-.173-.665-1.2-.736.877v2.065l-.255.031-.1.015-2.207.2-.012-1.32ZM11.624,2.631c.4,0,.564-.2.564-.338l-.147-.017c-.117,0-.832-.015-.832.194,0,.1.093.162.416.162m5.009-.574c0,.213.059.421.454.421s.438-.208.438-.4c0-.235-.051-.428-.453-.428-.383,0-.439.193-.439.4m8.434-.007c0,.318.047.507.385.507s.392-.19.392-.507c0-.246-.045-.422-.392-.422s-.385.176-.385.422M8.915,20.571l-.026-.048a.332.332,0,0,1-.089.011.438.438,0,0,1-.437-.439.415.415,0,0,1,.027-.149,3.177,3.177,0,0,1-.249-.312.357.357,0,0,1-.1.046.438.438,0,0,1,.3.415.432.432,0,0,1-.084.25l.213.383a.4.4,0,0,1,.328-.175.313.313,0,0,1,.114.017"/>
  <path id="Path_674" data-name="Path 674" d="M139.637,354.3a.3.3,0,0,1-.072-.044c-.054.045-.106.089-.162.13l-.073.05a.459.459,0,0,1,.094.277l0,.033.081.08-.084.056a.443.443,0,0,1-.034-.168.454.454,0,0,1,.254-.413" transform="translate(-131.945 -335.482)"/>
  <path id="Path_675" data-name="Path 675" d="M463.105,355.78l-.126.133-.079-.063.025-.042Zm-.143.1-.054-.041.019-.023Z" transform="translate(-438.363 -336.921)"/>
  <rect id="Rectangle_17" data-name="Rectangle 17" width="2.096" height="0.833" transform="translate(20.281)"/>
  <path id="Path_676" data-name="Path 676" class="cls-1" d="M5.52,264.585v-7.843l4.04-.565a5.663,5.663,0,0,1,1.717-.047,1.518,1.518,0,0,1,.958.58,1.952,1.952,0,0,1,.366,1.22,2.4,2.4,0,0,1-.279,1.165,2.7,2.7,0,0,1-.765.876,3.512,3.512,0,0,1-.85.427,2.056,2.056,0,0,1,.629.2,1.807,1.807,0,0,1,.386.356,2.612,2.612,0,0,1,.341.442l1.171,2.109-2.735.383-1.3-2.218a1.547,1.547,0,0,0-.439-.545.939.939,0,0,0-.592-.1l-.217.03v3.184Zm2.435-5.009,1.023-.14a3.751,3.751,0,0,0,.642-.2.776.776,0,0,0,.394-.3.823.823,0,0,0,.153-.476.636.636,0,0,0-.242-.552,1.338,1.338,0,0,0-.906-.075l-1.063.145v1.594Z" transform="translate(-5.227 -242.51)"/>
  <path id="Path_677" data-name="Path 677" class="cls-1" d="M146.07,239.184a4.585,4.585,0,0,1,1.071-3.139,4.669,4.669,0,0,1,2.985-1.488,3.686,3.686,0,0,1,3.016.633,3.478,3.478,0,0,1,1.059,2.8,5.2,5.2,0,0,1-.464,2.321,4.049,4.049,0,0,1-1.336,1.557,4.946,4.946,0,0,1-2.181.792,4.776,4.776,0,0,1-2.2-.118,2.71,2.71,0,0,1-1.412-1.138,4.043,4.043,0,0,1-.543-2.217m2.426-.327a2.369,2.369,0,0,0,.442,1.645,1.32,1.32,0,0,0,1.2.352,1.73,1.73,0,0,0,1.211-.681,3.2,3.2,0,0,0,.428-1.881,2.16,2.16,0,0,0-.447-1.554,1.347,1.347,0,0,0-1.211-.344,1.735,1.735,0,0,0-1.179.682,2.925,2.925,0,0,0-.444,1.782" transform="translate(-138.327 -222.064)"/>
  <path id="Path_678" data-name="Path 678" class="cls-1" d="M313.886,216.774l2.126.347a4.52,4.52,0,0,1-.676,1.582,3.5,3.5,0,0,1-1.141,1.065,4.688,4.688,0,0,1-1.738.546,4.764,4.764,0,0,1-2.09-.082,2.69,2.69,0,0,1-1.4-1.111,4.017,4.017,0,0,1-.59-2.314,4.618,4.618,0,0,1,1.035-3.137,4.554,4.554,0,0,1,2.929-1.45,3.657,3.657,0,0,1,2.333.272,2.916,2.916,0,0,1,1.26,1.668l-2.14.771a1.539,1.539,0,0,0-.237-.489,1.12,1.12,0,0,0-.5-.36,1.33,1.33,0,0,0-.66-.059,1.7,1.7,0,0,0-1.264.838,3.094,3.094,0,0,0-.331,1.59,2.66,2.66,0,0,0,.4,1.734,1.193,1.193,0,0,0,1.111.332,1.562,1.562,0,0,0,1.053-.541,2.817,2.817,0,0,0,.516-1.2" transform="translate(-292.034 -200.91)"/>
  <path id="Path_679" data-name="Path 679" class="cls-1" d="M464.43,184.208l2.424-.337v2.964l2.537-3.314,3.225-.452-2.865,3.359,2.994,4.467-2.986.415-1.655-2.994-1.25,1.482v1.917l-2.424.336Z" transform="translate(-439.812 -173.366)"/>
  <path id="Path_680" data-name="Path 680" class="cls-1" d="M81,133.336c-1.005.138-2.2.53-2.2,1.706,0,.818.534,1.022,1.1,1.1.288.04.575.041.791.073s.412.091.412.3c0,.327-.571.436-.8.464a3.805,3.805,0,0,1-1.451-.061v1.028a7.406,7.406,0,0,0,1.735-.048c.971-.137,2.081-.592,2.081-1.734,0-1.206-1.115-1.051-1.889-1.147-.165-.019-.409-.069-.409-.282,0-.35.522-.42.768-.456a4.013,4.013,0,0,1,1.247.027l0-1.015a7.2,7.2,0,0,0-1.378.052" transform="translate(-74.623 -126.208)"/>
  <path id="Path_681" data-name="Path 681" class="cls-1" d="M155.12,113.446l1,4.2,1.75-.244.695-3.01.1-.014.733,2.806,1.714-.235,1.025-4.488-1.375.19-.536,2.928-.107.013-.682-2.752-1.521.211-.7,2.948-.106.015-.532-2.774Z" transform="translate(-146.898 -106.499)"/>
  <path id="Path_682" data-name="Path 682" class="cls-1" d="M295.535,101.845v-1.537l-1.565.217,0,4.342,1.565-.222v-1.6l1.234-.176,0,1.6,1.562-.219V99.91l-1.564.221v1.54Z" transform="translate(-278.388 -94.614)"/>
  <path id="Path_683" data-name="Path 683" d="M478.782,371.411a.436.436,0,1,1-.872,0,.436.436,0,0,1,.872,0" transform="translate(-452.577 -351.315)"/>
  <path id="Path_684" data-name="Path 684" d="M478.782,354.181a.436.436,0,1,1-.872,0,.436.436,0,0,1,.872,0" transform="translate(-452.577 -334.999)"/>
  <path id="Path_685" data-name="Path 685" d="M511.972,371.411a.436.436,0,1,1-.872,0,.436.436,0,0,1,.872,0" transform="translate(-484.008 -351.315)"/>
  <path id="Path_686" data-name="Path 686" d="M495.372,371.411a.436.436,0,1,1-.872,0,.436.436,0,0,1,.872,0" transform="translate(-468.288 -351.315)"/>
</svg>