<?xml version="1.0" encoding="utf-8"?>
<!-- Generator: Adobe Illustrator 23.0.1, SVG Export Plug-In . SVG Version: 6.00 Build 0)  -->
<svg version="1.1" xmlns="http://www.w3.org/2000/svg" xmlns:xlink="http://www.w3.org/1999/xlink" x="0px" y="0px"
	 viewBox="0 0 1676.6 1488.8" style="enable-background:new 0 0 1676.6 1488.8;" xml:space="preserve">
<style type="text/css">
	.st0{fill:url(#SVGID_1_);stroke:#000000;stroke-width:9.315;}
	.st1{fill:url(#SVGID_2_);stroke:#000000;stroke-width:9.315;}
	.st2{stroke:#FFFFFF;stroke-width:6.157;}
	.st3{fill:#0B0A0B;}
	.st4{fill:#DE362C;enable-background:new    ;}
	.st5{fill:url(#SVGID_3_);}
	.st6{fill:url(#SVGID_4_);}
	.st7{fill:url(#SVGID_5_);}
	.st8{fill:url(#SVGID_6_);}
	.st9{fill:url(#SVGID_7_);}
</style>
<g id="Layer_1">
	<linearGradient id="SVGID_1_" gradientUnits="userSpaceOnUse" x1="488.2028" y1="1478.46" x2="488.2028" y2="4.6553">
		<stop  offset="0" style="stop-color:#5BCBF5"/>
		<stop  offset="5.326931e-02" style="stop-color:#69D0F6"/>
		<stop  offset="0.4689" style="stop-color:#D4F1FC"/>
		<stop  offset="0.6538" style="stop-color:#FFFFFF"/>
		<stop  offset="1" style="stop-color:#9FA1A4"/>
	</linearGradient>
	<path class="st0" d="M785.9,53.1c-1.8,1.1-3.6,2.2-5.3,3.3C533.5,178.5,283,508.2,127.2,959.5C67,1133.9,26.7,1309.8,5.3,1478.5
		h380.6c0-7.3-0.1-14.6-0.1-22c0-233.5,25.9-453.1,71.4-644.8c5.4-22.6,11-44.8,16.9-66.6c58.9-279,172.4-510.1,302.5-636.7
		C839.1,47.7,905.3,11,971.1,4.7C910.7,6.5,848.4,23.1,785.9,53.1z"/>
	<linearGradient id="SVGID_2_" gradientUnits="userSpaceOnUse" x1="1062.9762" y1="1351.1945" x2="1062.9762" y2="32.6176">
		<stop  offset="0" style="stop-color:#5BCBF5"/>
		<stop  offset="6.702515e-02" style="stop-color:#6AD0F6"/>
		<stop  offset="0.1964" style="stop-color:#92DCF8"/>
		<stop  offset="0.3735" style="stop-color:#D2F1FC"/>
		<stop  offset="0.489" style="stop-color:#FFFFFF"/>
		<stop  offset="1" style="stop-color:#9FA1A4"/>
	</linearGradient>
	<path class="st1" d="M1150.6,86.9v0.7c-6.4-4.4-12.9-8.6-19.6-12.6c-34.1-20.3-69.9-33.1-106.7-38.8c-18.5-2.9-37.3-4-56.2-3.4
		c-57.5,5.7-115.4,38.7-170,93.3C684.4,240,585.2,447.9,533.7,698.9c-6.1,29.8-11.6,60.2-16.3,91.2c-5.5,36.5-9.9,72.5-13.1,108.1
		c6.9-40.1,14.8-79,23.5-116.8c84.6-366.6,249.7-615.5,439.5-615.5c106.7,0,205.6,78.7,286.8,212.8
		c43.5,71.9,81.9,159.6,113.8,259.7c0.3,2.3,0.5,4.6,0.8,6.9c61.9,195.8,98.5,438.4,98.5,701.1c0,1.6,0,3.2,0,4.8h154.5
		C1584.9,743.1,1397.1,249.4,1150.6,86.9z"/>
	<path d="M409.8,1418.3l-17.2,60h-96.7l104.6-348.7h141.3l106,348.7H553l-18.1-60H409.8z M473.1,1199.3h-0.9l-42.3,151.1h86.5
		L473.1,1199.3z"/>
	<path class="st2" d="M426.6,1422.9l-17.2,60h-96.7l104.6-348.7h141.3l106,348.7h-94.9l-18.1-60H426.6z M489.8,1203.9h-0.9
		l-42.3,151.1h86.5L489.8,1203.9z"/>
	<path d="M976.6,1478.2h-93v-92.5h-72.1c-27.9,0-39.1,17.7-38.1,43.7v48.8h-93V1408c0-39.5,24.6-60.4,62.8-61.8v-3.7
		c-66-15.4-66-49.3-66-107.4c0-87,39.5-104.2,120-105.6h179.5V1478.2z M883.6,1304.8v-94.4h-72.1c-30.7,0-38.6,8.8-38.6,40
		c0,39.5-1.4,54.4,38.6,54.4H883.6z"/>
	<path class="st2" d="M993.3,1482.9h-93v-92.5h-72.1c-27.9,0-39,17.7-38.1,43.7v48.8h-93v-70.2c0-39.5,24.6-60.4,62.8-61.8v-3.7
		c-66-15.3-66-49.3-66-107.4c0-87,39.5-104.2,120-105.6h179.5V1482.9z M900.3,1309.5v-94.4h-72.1c-30.7,0-38.6,8.8-38.6,40
		c0,39.5-1.4,54.4,38.6,54.4H900.3z"/>
	<path d="M1314.3,1346.2v10.2c0,38.1-0.5,72.5-32.1,99c-31.6,26-70.2,25.6-110.7,25.6c-94.9,0-164.1-4.6-164.1-132.1v-90.2
		c0-115.3,61.8-132,164.1-132c95.8,0,140.4,9.8,142.3,114.4v13.5H1218v-13.5c-3.3-31.2-25.1-33.5-56.7-33.5c-53,0-58.1,16.3-58.1,66
		v54.4c0,52.1,2.3,72.1,58.1,72.1c38.6,0,57.2-2.8,57.2-43.7v-10.2H1314.3z"/>
	<path class="st2" d="M1331.1,1350.9v10.2c0,38.1-0.5,72.5-32.1,99c-31.6,26-70.2,25.6-110.6,25.6c-94.9,0-164.1-4.7-164.1-132.1
		v-90.2c0-115.3,61.8-132,164.1-132c95.8,0,140.4,9.8,142.3,114.4v13.5h-95.8v-13.5c-3.3-31.2-25.1-33.5-56.7-33.5
		c-53,0-58.1,16.3-58.1,66v54.4c0,52.1,2.3,72.1,58.1,72.1c38.6,0,57.2-2.8,57.2-43.7v-10.2H1331.1z"/>
	<path d="M1656.8,1478.2h-93v-136.7h-121.4v136.7h-93v-348.7h93v131.1h121.4v-131.1h93V1478.2z"/>
	<path class="st2" d="M1673.6,1482.9h-93v-136.7h-121.3v136.7h-93v-348.7h93v131.1h121.3v-131.1h93V1482.9z"/>
	<g>
		<path class="st3" d="M94.7,1455.4H72.7v-63.1H51.7v-19.1h65.1v19.1H94.7V1455.4z"/>
		<path class="st3" d="M196.3,1455.4h-21.9v-32.2h-28.6v32.2h-21.9v-82.2h21.9v30.9h28.6v-30.9h21.9V1455.4z"/>
		<path class="st3" d="M232.1,1406.2h35.1v15.2h-35.1v16h38.1v18h-60.1v-82.2h59.3v18h-37.4V1406.2z"/>
	</g>
	<g>
		<path d="M1609.2,1089c0-11.8,9.5-21.3,21.3-21.3c11.7,0,21.3,9.5,21.3,21.3c0,11.8-9.6,21.3-21.3,21.3
			C1618.7,1110.3,1609.2,1100.8,1609.2,1089z M1646.9,1089c0-9.1-7.4-16.4-16.4-16.4c-9.2,0-16.4,7.3-16.4,16.4
			c0,9.1,7.3,16.4,16.4,16.4C1639.5,1105.4,1646.9,1098.1,1646.9,1089z M1641.7,1093c-0.6,5.4-5.1,8.7-10.4,8.7
			c-7.5,0-12.3-5.7-12.3-12.9c0-7.4,4.6-12.9,12.2-12.9c5.4,0,9.6,3.1,10.5,8.4h-5c-0.5-2.7-2.8-4.4-5.6-4.4c-4.8,0-7.3,4.3-7.3,8.8
			c0,4.2,2.7,8.9,7.4,8.9c2.7,0,5.2-1.9,5.4-4.6H1641.7z"/>
	</g>
	<g>
		<g>
			<path d="M914.7,914.8l-19.9,71c-12.8,45.7-17.9,80.7-1,103c16.5,21.8,49.1,26.1,96.4,26.1c76.3,0,122.1-16.2,146-101.4
				c9.6-34.3,8.6-57.4-3-72.8c-16.2-21.4-50.2-23.1-86.6-23.1c-13.2,0-26.1,0.2-38.5,5.6c0.4-1.6,1.8-6.4,1.8-6.4
				c8.7-30.9,13.4-30.9,44.5-30.9c5.7,0,18.7,0,21.7,1.9c0.1,0.3,0.2,0.7,0.2,1.7c0,1.9-0.4,5.4-2.1,11.6l-4.1,14.7h95.8l5.8-20.5
				c8.2-29.1,6.5-50.7-5.1-65.9c-17.9-23.5-53.9-25.5-95.6-25.5C986.1,804,941.1,820.6,914.7,914.8z M912.2,1074.9
				c-9.4-12.4-8-37.2,4.8-82.8l19.9-71c22.4-79.8,54.5-93.9,133.9-93.9c34.2,0,65.8,1.2,77.2,16.3c3.6,4.8,5.4,11.4,5.4,19.7
				c0,7.3-1.4,16-4.2,26c0,0-0.5,1.6-1,3.6c-10.6,0-33.9,0-49.2,0c0.1-1,0.3-2.1,0.3-3.1c0-5.7-1.3-11.1-4.8-15.8
				c-8.3-10.9-23.8-10.9-40.2-10.9c-38.7,0-54.5,4.1-66.7,47.8l-16.7,59.6h22.5l3.4-5.5c14.8-24,26.5-24,49.8-24
				c35.5,0,59.3,2.3,68.1,14c6.8,9,6.6,26.2-0.8,52.6c-20.3,72.3-54.5,84.5-123.7,84.5C944,1091.9,921.4,1087,912.2,1074.9z"/>
			<path d="M1015.3,976.7h-1.5c-28,0-45.7,2.2-54.4,33.4l0,0c-3.7,13.2-6.4,25.8,0.8,35.2c7.6,10,22.2,10.8,37.9,10.8
				c44.2,0,55.6-3.8,66.1-41.3c2.3-8.3,4.2-19-2.2-27.5C1053.8,976.7,1039.3,976.7,1015.3,976.7z M1013.8,999.8h1.5
				c11.4,0,24,0,27.8,1.7c0,1.1-0.2,3.2-1.3,7c-6.9,24.4-6.9,24.4-43.8,24.4c-13,0-17.6-1-19.2-1.7c0-0.2-0.1-0.3-0.1-0.6
				c0-1.8,0.5-5.8,2.9-14.3C985.6,1002.2,987.1,999.8,1013.8,999.8z"/>
		</g>
		<g>
			<path class="st4" d="M1226.2,985.7H1165l18.4-65.7h61.2L1226.2,985.7z"/>
			<path d="M1244.7,908.4h-70l-24.9,88.9h85.2l24.9-88.9H1244.7z M1229.4,931.5c-4.1,14.8-9.3,33.1-11.9,42.6c-9.1,0-23.3,0-37.2,0
				c4.1-14.8,9.3-33.1,11.9-42.6C1201.4,931.5,1215.5,931.5,1229.4,931.5z"/>
		</g>
		<g>
			<path d="M1517.1,806.3h-213.5l-51,181.8h86.9l3.3-5.7c4.3-7.3,5.2-7.9,30.1-7.9c19.7,0,24.1,2,25.1,2.9
				c1.1,2.9-2.9,17.2-5.6,26.7c-8.1,29-11.4,29-42.4,29c-13.4,0-17.3-1.2-18.2-2.2c0,0-1.2-2,0.5-9.5l3-14h-95.1l-2.2,8.7
				c-8.5,33.6-6.6,56.8,6,73.1c17.8,22.8,53.5,26,89.5,26c85.5,0,128.2-16.3,155.2-112.7c11.6-41.3,10.9-66.4-2.3-83.8
				c-12.3-16.3-35.1-23.9-71.5-23.9c-22.9,0-35.8,0.4-48.7,5.9c2.3-8.1,3.4-12.1,4.6-16.4c15.4,0,139.8,0,139.8,0l21.9-77.9H1517.1z
				 M1501.9,829.4c-3.5,12.4-6.6,23.4-8.9,31.7c-15.4,0-139.8,0-139.8,0l-27.5,98.1L1354,936c21.5-17.6,26-18.2,60.8-18.2
				c28.2,0,45.6,4.8,53.1,14.7c8.1,10.7,7.6,30.9-1.5,63.5c-23,82-53.4,95.8-133,95.8c-40.6,0-62-5.1-71.3-17
				c-4.2-5.4-6.3-13-6.3-23c0-6.1,1.1-13.5,2.7-21.4c11.4,0,35.8,0,50,0c0.4,5.9,1.9,10.9,5.2,14.9c8,9.9,21.7,10.8,36.2,10.8
				c35,0,52.4-2,64.7-45.9c5.8-20.9,10.1-35.9,1.6-47c-7.5-9.9-21.6-11.9-43.5-11.9c-22.2,0-35.5,0.1-46.1,13.6c-7.4,0-28,0-43.7,0
				c6.4-22.8,34.2-121.9,38-135.6C1335.9,829.4,1476.9,829.4,1501.9,829.4z"/>
		</g>
		<g>
			<path d="M641.4,806.3h-91.9l-139.2,93.5l41.3,68.6c0,0,48.4-35.1,75.3-54.7c-13.1,46.5-55.8,199.1-55.8,199.1h99.6l86-306.5
				H641.4z M626.1,829.4c-7.2,25.6-68.7,245.2-73,260.2c-10.6,0-34.9,0-51.5,0c7.2-25.5,65.6-233.8,65.6-233.8s-92.6,67.3-108.8,79
				c-5.9-9.8-11.6-19.3-16.9-28.1c15.4-10.3,109.8-73.8,115-77.3C561.8,829.4,606.2,829.4,626.1,829.4z"/>
		</g>
		<linearGradient id="SVGID_3_" gradientUnits="userSpaceOnUse" x1="500.145" y1="789.6179" x2="606.5528" y2="1073.3713">
			<stop  offset="0" style="stop-color:#5BCBF5"/>
			<stop  offset="0.107" style="stop-color:#56BDEB"/>
			<stop  offset="0.3153" style="stop-color:#479FD6"/>
			<stop  offset="0.6042" style="stop-color:#3475B8"/>
			<stop  offset="0.9595" style="stop-color:#1D4597"/>
			<stop  offset="1" style="stop-color:#1C3F94"/>
		</linearGradient>
		<path class="st5" d="M561.9,1101.2h-75.6l60.7-216.5L455,951.6l-29.1-48.4L553,817.8h88.4L561.9,1101.2z"/>
		<g>
			<path d="M642.3,911.8l-25,89.2c-11,39.3-9.4,67.6,4.9,86.5c19.3,25.5,56.6,27.6,96.3,27.6c53.5,0,126.7,0,156.9-107.8l25-89.2
				c11-39.3,9.4-67.6-4.9-86.5c-19.3-25.5-56.6-27.6-96.3-27.6C745.7,804,672.5,804,642.3,911.8z M640.6,1073.5
				c-9.5-12.5-9.9-34.8-1.1-66.2l25-89.2c23.7-84.4,70.7-90.9,134.6-90.9c33.6,0,64.9,1.4,77.8,18.4c9.5,12.5,9.9,34.8,1.1,66.2l0,0
				l-25,89.2c-23.7,84.4-70.7,90.9-134.6,90.9C684.8,1091.9,653.5,1090.5,640.6,1073.5z"/>
			<path d="M710.7,923.9l-18.2,65c-7.2,25.7-9.5,41.6-1.3,52.5c8.6,11.3,23.8,11.3,44.7,11.3c43.8,0,56.5-5.7,71-57.6l18.2-65
				c7.2-25.7,9.5-41.6,1.3-52.5c-8.6-11.3-23.8-11.3-44.8-11.3C737.9,866.3,725.2,872,710.7,923.9z M781.7,889.5
				c9.5,0,23.9,0,26.4,2.2c0.8,1.2,1.9,7-5.2,32.2l-18.2,65c-11.4,40.7-14.2,40.7-48.7,40.7c-9.5,0-23.9,0-26.3-2.2
				c-0.8-1.2-1.9-7,5.2-32.2l18.2-65l0,0C744.3,889.5,747.2,889.5,781.7,889.5z"/>
		</g>
		
			<linearGradient id="SVGID_4_" gradientUnits="userSpaceOnUse" x1="750.782" y1="837.4406" x2="1060.6351" y2="1147.2916" gradientTransform="matrix(1 0 -0.2804 1 154.9572 0)">
			<stop  offset="0" style="stop-color:#5BCBF5"/>
			<stop  offset="0.107" style="stop-color:#56BDEB"/>
			<stop  offset="0.3153" style="stop-color:#479FD6"/>
			<stop  offset="0.6042" style="stop-color:#3475B8"/>
			<stop  offset="0.9595" style="stop-color:#1D4597"/>
			<stop  offset="1" style="stop-color:#1C3F94"/>
		</linearGradient>
		<path class="st6" d="M889.1,914.9l-25,89.2c-26.8,95.6-86,99.4-145.7,99.4c-59.7,0-116.8-3.8-90-99.4l25-89.2
			c26.8-95.6,86-99.4,145.7-99.4C858.8,815.6,916,819.3,889.1,914.9z M721.8,927l-18.2,65c-13.6,48.4-5.1,49.1,32.3,49.1
			c37.4,0,46.3-0.8,59.9-49.1l18.2-65c13.6-48.4,5.1-49.1-32.3-49.1C744.2,877.9,735.3,878.7,721.8,927z"/>
		
			<linearGradient id="SVGID_5_" gradientUnits="userSpaceOnUse" x1="1030.6093" y1="845.6304" x2="1317.3018" y2="1132.323" gradientTransform="matrix(1 0 -0.2804 1 154.9572 0)">
			<stop  offset="0" style="stop-color:#5BCBF5"/>
			<stop  offset="0.107" style="stop-color:#56BDEB"/>
			<stop  offset="0.3153" style="stop-color:#479FD6"/>
			<stop  offset="0.6042" style="stop-color:#3475B8"/>
			<stop  offset="0.9595" style="stop-color:#1D4597"/>
			<stop  offset="1" style="stop-color:#1C3F94"/>
		</linearGradient>
		<path class="st7" d="M1085.3,904.4c7.9-28.3-3-29.9-30.9-29.9c-34.4,0-45,1.5-55.6,39.3l-12.6,45h0.8c18-29.1,35.1-29.5,59.7-29.5
			c66.5,0,99.1,7.6,78.5,81.2c-22.1,79-62.3,92.9-134.9,92.9c-92.9,0-111.1-18.9-84.3-114.5l19.9-71
			c24.6-87.7,63.1-102.4,145.1-102.4c58.6,0,110.2,3,89.6,76.7l-3.4,12.1H1085.3z M970.5,1013.2c-7.3,26.1-4.3,31.4,27.5,31.4
			c40.4,0,46.3-1.9,54.9-32.9c6.7-23.8-5.9-23.4-39.1-23.4C985.8,988.2,976.8,990.9,970.5,1013.2z"/>
		
			<linearGradient id="SVGID_6_" gradientUnits="userSpaceOnUse" x1="1291.2191" y1="926.9933" x2="1361.9327" y2="997.7069" gradientTransform="matrix(1 0 -0.2804 1 154.9572 0)">
			<stop  offset="0" style="stop-color:#5BCBF5"/>
			<stop  offset="0.107" style="stop-color:#56BDEB"/>
			<stop  offset="0.3153" style="stop-color:#479FD6"/>
			<stop  offset="0.6042" style="stop-color:#3475B8"/>
			<stop  offset="0.9595" style="stop-color:#1D4597"/>
			<stop  offset="1" style="stop-color:#1C3F94"/>
		</linearGradient>
		<path class="st8" d="M1226.2,985.7H1165l18.4-65.7h61.2L1226.2,985.7z"/>
		
			<linearGradient id="SVGID_7_" gradientUnits="userSpaceOnUse" x1="1366.9749" y1="820.3747" x2="1644.6869" y2="1098.0868" gradientTransform="matrix(1 0 -0.2804 1 154.9572 0)">
			<stop  offset="0" style="stop-color:#5BCBF5"/>
			<stop  offset="0.107" style="stop-color:#56BDEB"/>
			<stop  offset="0.3153" style="stop-color:#479FD6"/>
			<stop  offset="0.6042" style="stop-color:#3475B8"/>
			<stop  offset="0.9595" style="stop-color:#1D4597"/>
			<stop  offset="1" style="stop-color:#1C3F94"/>
		</linearGradient>
		<path class="st9" d="M1321,1018.9c-5.2,23.8,7.9,25.7,29.1,25.7c32.9,0,43.3-0.8,53.6-37.4c10.2-36.3,11.6-44.2-30.7-44.2
			c-24.2,0-32.1,0-40.1,13.6h-65l44.5-158.7h204.8l-15.4,54.8H1362l-15.2,54.4c24.5-20,32.3-20.8,68.2-20.8
			c68.8,0,81.2,27.2,62.7,92.9c-25.3,90.3-62.1,104.3-144.1,104.3c-69.9,0-102.1-14.4-84.3-84.6H1321z"/>
	</g>
</g>
<g id="Layer_3">
</g>
<g id="Layer_2">
</g>
</svg>
