<svg id="Layer_1" data-name="Layer 1" xmlns="http://www.w3.org/2000/svg" viewBox="0 0 417.44 237.14"><defs><style>.cls-1{fill:#fff;}.cls-2{fill:#f6a11d;}.cls-3{fill:#ef3829;}</style></defs><title>wsie-the-sound-logo</title><path class="cls-1" d="M530.13,307.53l-8.46,20.15h-2l-6.86-15.8-6.63,15.8h-2l-9.82-22.51-.28-.52c-.16-.36-.31-.88-.55-1.48-.2-.39-.36-.87-.56-1.19l-1.72-4h5.27l2.59,5.74,7.63,17.65c4.51-10.82,6.39-15.57,6.39-15.57h2.35l6.71,15.53,6-14.33c.36-1,.68-1.84,1-2.52l2.52-6.5h2.39Z" transform="translate(-187.79 -188.82)"/><path class="cls-1" d="M545.57,327.64a12.29,12.29,0,0,1-8.26-5.46l1.43-1.6c2.48,3.51,4,4.63,6.71,5.07a5.22,5.22,0,0,0,4.27-1,4.79,4.79,0,0,0,1.8-3.19,4.22,4.22,0,0,0-.92-3.24,16.6,16.6,0,0,0-4.63-3.39,33.37,33.37,0,0,1-4.75-3,7.85,7.85,0,0,1-2.48-3.24,7.57,7.57,0,0,1-.59-3.95,7.1,7.1,0,0,1,2.75-5,7.61,7.61,0,0,1,5.71-1.47,8.35,8.35,0,0,1,6.74,4.19l-1.67,1.35a10.39,10.39,0,0,0-1-1.47,6,6,0,0,0-4-2.12,4.2,4.2,0,0,0-3.36.8,4,4,0,0,0-1.27,2.47,3.8,3.8,0,0,0,1,3,18.83,18.83,0,0,0,4.67,3.43,55.1,55.1,0,0,1,4.91,3.11A7.61,7.61,0,0,1,555,316a8.59,8.59,0,0,1,.6,4.31,8.16,8.16,0,0,1-3.15,5.79A9.23,9.23,0,0,1,545.57,327.64Z" transform="translate(-187.79 -188.82)"/><path class="cls-1" d="M562.77,327.68V298h5.11v29.73Z" transform="translate(-187.79 -188.82)"/><path class="cls-1" d="M583.56,299.9h-3.31v11.18h8.26V313h-8.26v12.66h12.54v1.95H575.1V297.91h17.77v2Z" transform="translate(-187.79 -188.82)"/><path class="cls-2" d="M222.13,374.66h-6.08v50.47h-9.38V374.66H187.79l.13-5h47.14l.06,5Z" transform="translate(-187.79 -188.82)"/><path class="cls-2" d="M273.57,425.13V398.52H252v26.61h-9.38V369.65H252v23.86h21.54V369.65H283v55.48Z" transform="translate(-187.79 -188.82)"/><path class="cls-2" d="M307.2,374.66h-4.62v18.85h13.11v5H302.58v21.54h19.89v5H293.14V369.58H322.6v5.08Z" transform="translate(-187.79 -188.82)"/><path class="cls-2" d="M371.94,425.06c-4.68-.58-10.51-4.64-13.81-10.81l3.17-3.91c4.25,7,6.53,8.92,10.58,9.64a7,7,0,0,0,6.27-1.74,7.9,7.9,0,0,0,2.66-5.29,7.7,7.7,0,0,0-1.33-5.37c-1.14-1.59-3.42-3.55-7.15-5.94a63.22,63.22,0,0,1-7.67-5.59,15.48,15.48,0,0,1-4.06-6.16,16.36,16.36,0,0,1-1-7.55,14.1,14.1,0,0,1,4.63-9.64,11.78,11.78,0,0,1,9.5-2.83,15.15,15.15,0,0,1,5.57,1.81c1.84,1,3.55,2.9,5.9,6.6l-3.68,3.48a20.67,20.67,0,0,0-2-3.26,8.33,8.33,0,0,0-5.89-3.63c-2.35-.29-3.87.29-4.82,1.31a6.78,6.78,0,0,0-.44,8.85q1.71,2.39,7.22,6.09c3.61,2.47,6.21,4.35,7.86,5.73a14.35,14.35,0,0,1,4,5.95,18.31,18.31,0,0,1,1,8.19,16.19,16.19,0,0,1-5.25,11C380.18,424.7,376.38,425.64,371.94,425.06Z" transform="translate(-187.79 -188.82)"/><path class="cls-2" d="M421.36,425.13c-7.42,0-12-2.61-16.67-7.68-4.81-5.23-7.15-12-7.15-20.46,0-8.12,2.4-14.86,7.28-19.87s9.25-7.47,16.47-7.47,11.79,2.47,16.6,7.33c4.94,5.07,7.42,11.89,7.42,20.3,0,8.2-2.35,14.94-7.1,20.09S429,425.13,421.36,425.13Zm-.07-50.4c-4.75,0-7,1.74-9.56,5.51s-3.93,9.28-3.93,17c0,7.91,1.39,13.57,3.93,17.19S416.67,420,421.8,420c4.5,0,7.29-1.81,9.95-5.51,2.47-3.55,3.23-9.06,3.23-17.11,0-7.84-.7-13.28-3.23-17S426.24,374.73,421.29,374.73Z" transform="translate(-187.79 -188.82)"/><path class="cls-2" d="M490.41,417.74a16.94,16.94,0,0,1-6.59,5.44,22.26,22.26,0,0,1-9.51,1.95,21.88,21.88,0,0,1-10.77-2.53,14.79,14.79,0,0,1-6.52-6.75A22.12,22.12,0,0,1,455.18,405l.32-5.29v-30.1h9.31V400c0,2.76,0,5.15.06,7.18a33.93,33.93,0,0,0,.32,4.42,8.66,8.66,0,0,0,3,5.23c1.78,1.52,4.31,2.32,7.61,2.32a14.45,14.45,0,0,0,6.9-1.6,10.47,10.47,0,0,0,4.56-3.92,11.67,11.67,0,0,0,1.9-4.71,57.08,57.08,0,0,0,.64-8.56V369.65h4.37v31a67.7,67.7,0,0,1-.7,10A17.33,17.33,0,0,1,490.41,417.74Z" transform="translate(-187.79 -188.82)"/><path class="cls-2" d="M539.18,425.13l-29.84-45v43.66H505V369.65H514L537.79,406V369.65h4.75v55.48Z" transform="translate(-187.79 -188.82)"/><path class="cls-2" d="M589,417.45a18.61,18.61,0,0,1-6.53,5.07,22.75,22.75,0,0,1-6.91,2.18,69.1,69.1,0,0,1-8.87.43H552.86V369.58c11.79.07,13.94.07,13.94.07,6.78,0,12.29,1.16,16.35,3.7a23,23,0,0,1,8.93,10.15A34.74,34.74,0,0,1,595,398.15,35.11,35.11,0,0,1,593.41,409,24.65,24.65,0,0,1,589,417.45Zm-9.38-37.64a12.39,12.39,0,0,0-5.51-4,24.82,24.82,0,0,0-8.18-1.09c-1.2,0-2.53,0-3.73.07v45.26h5.57a20.56,20.56,0,0,0,9.19-1.74c2.09-1,4-3.12,5.64-6.53s2.34-7.62,2.34-13.06a40.19,40.19,0,0,0-1.39-11.24A20.46,20.46,0,0,0,579.6,379.81Z" transform="translate(-187.79 -188.82)"/><path class="cls-1" d="M412.62,328.61a13.73,13.73,0,0,1-9.59-3.56,11.48,11.48,0,0,1-4-8.86,11.28,11.28,0,0,1,3-7.9,13,13,0,0,1,4.1-3.2,13.69,13.69,0,0,1-3-2.65,10.83,10.83,0,0,1-2.71-7.3,10.71,10.71,0,0,1,3.68-8.32,12.28,12.28,0,0,1,8.62-3.14,12.5,12.5,0,0,1,8.44,3.08,10.13,10.13,0,0,1,4,8.38,10.75,10.75,0,0,1-2.53,7.18,11.57,11.57,0,0,1-3.2,2.77,13.28,13.28,0,0,1,3.5,2.53,12.07,12.07,0,0,1-.72,17.67A14.11,14.11,0,0,1,412.62,328.61Zm-.3-21.29a5.15,5.15,0,0,0-4.46,2.05,11.07,11.07,0,0,0-1.63,6.4,19.28,19.28,0,0,0,.6,5.12,4.8,4.8,0,0,0,2,2.65,5.6,5.6,0,0,0,3.62,1.09A6.78,6.78,0,0,0,417.2,323c1.09-1,1.81-3.13,1.81-6.87s-.72-6-1.81-7.06A6.92,6.92,0,0,0,412.32,307.32Zm.18-19.78a4.85,4.85,0,0,0-3.68,1.57c-1,1.09-1.51,2.84-1.51,5.43,0,3.2.49,5.43,1.39,6.87a3.86,3.86,0,0,0,3.62,1.87,4.7,4.7,0,0,0,4.16-1.81c.9-1.32,1.45-3.43,1.45-6.39,0-2.65-.55-4.58-1.51-5.79A4.77,4.77,0,0,0,412.5,287.54Z" transform="translate(-187.79 -188.82)"/><path class="cls-1" d="M445.3,328.61a13.69,13.69,0,0,1-9.58-3.56,11.45,11.45,0,0,1-4-8.86,11.27,11.27,0,0,1,2.95-7.9,13.11,13.11,0,0,1,4.1-3.2,13.65,13.65,0,0,1-3-2.65,11.2,11.2,0,0,1,1-15.62,12.29,12.29,0,0,1,8.62-3.14,12.54,12.54,0,0,1,8.45,3.08,10.15,10.15,0,0,1,4,8.38,10.76,10.76,0,0,1-2.54,7.18,11.67,11.67,0,0,1-3.19,2.77,13.61,13.61,0,0,1,3.5,2.53,12.08,12.08,0,0,1-.73,17.67A14.09,14.09,0,0,1,445.3,328.61Zm-.3-21.29a5.15,5.15,0,0,0-4.46,2.05,11.07,11.07,0,0,0-1.63,6.4,19.28,19.28,0,0,0,.6,5.12,4.85,4.85,0,0,0,2,2.65,5.62,5.62,0,0,0,3.62,1.09,6.82,6.82,0,0,0,4.77-1.63c1.08-1,1.81-3.13,1.81-6.87s-.73-6-1.81-7.06A7,7,0,0,0,445,307.32Zm.18-19.78a4.87,4.87,0,0,0-3.68,1.57c-1,1.09-1.5,2.84-1.5,5.43,0,3.2.48,5.43,1.38,6.87a3.87,3.87,0,0,0,3.62,1.87,4.7,4.7,0,0,0,4.16-1.81c.91-1.32,1.45-3.43,1.45-6.39,0-2.65-.54-4.58-1.51-5.79A4.75,4.75,0,0,0,445.18,287.54Z" transform="translate(-187.79 -188.82)"/><path class="cls-1" d="M475.45,287.41c-.58,1.59-5.76,16.24-6.3,17.35l-.1.26h-1.82l.2-.53c.38-1.07,4.63-12.55,5.6-15.16H464.9v-3.16h11Z" transform="translate(-187.79 -188.82)"/><path class="cls-3" d="M189.1,345.36l31.45-.54,31.45-.41-.91.65L267.42,293l1.61-5.15,1.82,5.15L276,307.62l5.13,14.62,10.21,29.26-5.2.4,11.44-70.57,11.65-70.54,3.62-22,3.41,22.05c2.45,15.91,4.81,31.83,7.19,47.75l7.13,47.76,3.56,23.88,3.49,23.89,7,47.78-7.26-.15L350,336.19l12.75-65.57L366,254.27l3.2,16.32,17.44,88.9-5-1.05L392.68,343l.79-1.1h1.3l50,.48,25,.27,25,.33,50,.67,25,.37,25,.44-25,.45-25,.37-50,.67-25,.33-25,.27-50,.48,2.1-1.09-10.73,15.7-3.69,5.4-1.34-6.46-18.33-88.72,6.38,0L356.9,337.51l-12.33,65.65-4,21.46L337.31,403l-7.14-47.76-3.57-23.88-3.5-23.89-7-47.78c-2.32-15.93-4.67-31.85-6.92-47.79l7,.07-12.3,70.43-12.5,70.39-1.9,10.72-3.3-10.32-9.44-29.51-4.7-14.77-4.67-14.77h3.43l-17.94,51.51-.23.67H252l-31.45-.42Z" transform="translate(-187.79 -188.82)"/><path class="cls-2" d="M601.6,418.67a3.65,3.65,0,1,0,3.64,3.64,3.64,3.64,0,0,0-3.64-3.64m0,6.5a2.86,2.86,0,1,1,2.86-2.86,2.86,2.86,0,0,1-2.86,2.86" transform="translate(-187.79 -188.82)"/><path class="cls-2" d="M603.09,421.47a1.23,1.23,0,0,0-1.23-1.23H600.1v4.15h.78V422.7h.56l.79,1.69h.86l-.82-1.76a1.23,1.23,0,0,0,.82-1.16m-1.23.45h-1V421h1a.45.45,0,0,1,0,.9" transform="translate(-187.79 -188.82)"/></svg>