<svg id="Layer_1" data-name="Layer 1" xmlns="http://www.w3.org/2000/svg" viewBox="0 0 503.28 503.28"><defs><style>.cls-1{fill:#df1e26;}.cls-2{fill:#fff;}</style></defs><title>kdhx-logo</title><circle class="cls-1" cx="251.64" cy="251.64" r="251.64"/><path class="cls-2" d="M116,323,93.86,268l-9.79,16.59V323.7H55.49V192.34H84.07v56l31.57-61h29l-31,57.35L146,323Z" transform="translate(0 -0.11)"/><path class="cls-2" d="M202,325.25l-45.66.39-1.15-137,45.66-.38c28.38-.24,43.75,17.94,43.94,40.76l.47,56.35C245.42,308.43,230.34,325,202,325.25Zm13.39-95.34c-.09-10.9-5.29-17.23-16.6-17.14l-14,.12.74,88,14-.12c11.31-.1,16.4-6.51,16.31-17.41Z" transform="translate(0 -0.11)"/><path class="cls-2" d="M316.66,321.86V268.71H283.18V323.3H254.34V187.13h28.84v56.43h33.48V187.13H345.5V321.86Z" transform="translate(0 -0.11)"/><path class="cls-2" d="M423,323.9l-18.28-46.71L384.81,323.9H356.69L388.82,255,358.69,188h30.13l17.07,45.49,17.24-42.61h28.32l-29.7,62.39L453.3,323.9Z" transform="translate(0 -0.11)"/></svg>