<?xml version="1.0" encoding="utf-8"?>
<!-- Generator: Adobe Illustrator 23.0.1, SVG Export Plug-In . SVG Version: 6.00 Build 0)  -->
<svg version="1.1" id="Layer_1" xmlns="http://www.w3.org/2000/svg" xmlns:xlink="http://www.w3.org/1999/xlink" x="0px" y="0px"
	 viewBox="0 0 180 216" style="enable-background:new 0 0 180 216;" xml:space="preserve">
<style type="text/css">
	.st0{fill:#FFFFFF;}
</style>
<g>
	<g>
		<path class="st0" d="M169.34,130.07c-0.5,1.05-0.35,2.17-0.31,3.27c0.01,0.23,0.07,0.47,0.05,0.69c-0.26,2.26-0.49,4.52-0.81,6.77
			c-0.19,1.33-0.48,2.64-0.77,3.95c-0.27,1.22-0.61,2.42-0.89,3.64c-0.6,2.57-1.29,5.09-2.42,7.5c-0.72,1.52-1.19,3.16-1.83,4.72
			c-0.37,0.88-0.88,1.71-1.3,2.57c-0.55,1.12-1.03,2.29-1.65,3.37c-0.85,1.49-1.78,2.94-2.72,4.38c-0.9,1.37-1.85,2.7-2.79,4.04
			c-0.73,1.05-1.46,2.1-2.23,3.13c-0.66,0.88-1.34,1.76-2.09,2.57c-1.07,1.15-2.23,2.23-3.33,3.36c-0.51,0.52-0.93,1.14-1.46,1.63
			c-1.17,1.09-2.36,2.17-3.59,3.19c-1.33,1.1-2.72,2.11-4.09,3.17c-1.15,0.89-2.29,1.81-3.47,2.66c-0.71,0.51-1.5,0.89-2.25,1.34
			c-0.63,0.38-1.31,0.7-1.85,1.17c-1.04,0.91-2.34,1.31-3.51,1.95c-1.33,0.73-2.68,1.41-4.05,2.05c-1.05,0.49-2.15,0.89-3.23,1.34
			c-0.53,0.22-1.03,0.52-1.57,0.71c-0.93,0.33-1.88,0.58-2.82,0.89c-0.77,0.25-1.53,0.56-2.31,0.79c-1.56,0.47-3.13,0.91-4.7,1.36
			c-0.28,0.08-0.57,0.17-0.86,0.18c-1.58,0.06-3.07,0.64-4.62,0.85c-2.05,0.27-4.12,0.43-6.18,0.64c-0.64,0.06-1.28,0.14-1.92,0.18
			c-1.27,0.07-2.54,0.33-3.81,0.06c-0.2-0.04-0.41-0.03-0.61-0.02c-1.45,0.05-2.89,0.13-4.34,0.14c-0.61,0.01-1.22-0.12-1.83-0.2
			c-1.33-0.18-2.66-0.38-3.99-0.53c-0.52-0.06-1.06,0.08-1.57,0c-0.92-0.14-1.83-0.38-2.75-0.57c-2.14-0.44-4.28-0.88-6.42-1.33
			c-0.28-0.06-0.55-0.17-0.83-0.26c-1.65-0.49-3.29-0.99-4.94-1.48c-0.06-0.02-0.12,0-0.17-0.02c-0.84-0.38-1.67-0.75-2.51-1.13
			c-0.08-0.04-0.15-0.13-0.23-0.13c-1.35,0-2.3-1.11-3.58-1.32c-0.3-0.05-0.59-0.25-0.87-0.39c-1.45-0.73-2.99-1.35-4.33-2.24
			c-1.24-0.82-2.68-1.24-3.82-2.25c-0.8-0.71-1.83-1.14-2.73-1.74c-1.27-0.83-2.53-1.68-3.76-2.56c-1.64-1.17-3.16-2.48-4.61-3.89
			c-0.82-0.79-1.72-1.54-2.57-2.32c-0.81-0.74-1.56-1.55-2.33-2.33c-0.18-0.19-0.32-0.42-0.5-0.61c-1.12-1.19-2.26-2.36-3.37-3.56
			c-0.29-0.32-0.5-0.71-0.74-1.07c-0.08-0.12-0.12-0.27-0.21-0.38c-0.7-0.85-1.47-1.65-2.11-2.54c-1.45-2.05-2.92-4.1-4.21-6.25
			c-0.53-0.88-1-1.83-1.5-2.74c-1.08-1.97-1.8-4.12-2.9-6.07c-0.83-1.48-1.05-3.16-1.85-4.6c-1.25-2.26-1.62-4.79-2.43-7.19
			c-0.5-1.49-0.8-3.05-1.15-4.59c-0.14-0.62-0.12-1.28-0.22-1.91c-0.17-1.06-0.4-2.12-0.58-3.18c-0.09-0.52-0.11-1.05-0.16-1.57
			c-0.11-1.07-0.23-2.15-0.34-3.22c-0.05-0.52-0.07-1.05-0.1-1.57c-0.04-0.76-0.1-1.52-0.1-2.28c-0.01-0.64,0.05-1.27,0.07-1.91
			c0.04-1.63,0.08-3.27,0.11-4.9c0.01-0.26-0.11-0.55-0.03-0.78c0.39-1.22,0.31-2.48,0.35-3.72c0.01-0.26,0.08-0.52,0.12-0.78
			c0.22-1.39,0.39-2.78,0.66-4.15c0.38-1.94,0.84-3.87,1.26-5.8c0.12-0.54,0.16-1.11,0.33-1.63c0.82-2.4,1.71-4.78,2.49-7.19
			c0.4-1.23,1.07-2.35,1.45-3.54c0.61-1.91,1.75-3.48,2.6-5.23c0.12-0.24,0.25-0.47,0.34-0.71c0.78-2.03,2.12-3.73,3.3-5.53
			c0.35-0.54,0.69-1.09,1.05-1.62c0.94-1.4,1.85-2.83,2.86-4.18c0.64-0.85,1.44-1.58,2.21-2.41c0.03,0.1,0.08,0.17,0.07,0.23
			c-0.24,2.77-0.46,5.54-0.73,8.31c-0.1,1.05-0.66,1.91-1.3,2.73c-0.32,0.41-0.62,0.84-0.9,1.29c-0.7,1.14-1.38,2.29-2.07,3.43
			c-0.24,0.4-0.5,0.79-0.71,1.21c-0.57,1.15-1.14,2.3-1.66,3.47c-0.29,0.66-0.4,1.42-0.75,2.05c-0.6,1.09-0.86,2.29-1.33,3.41
			c-1.29,3.09-1.83,6.4-2.89,9.55c-0.38,1.13-0.37,2.39-0.56,3.59c-0.03,0.23-0.13,0.44-0.19,0.67c-0.11,0.39-0.21,0.78-0.36,1.33
			c1.03,0,1.94,0,2.85,0c0.67,0,1.35-0.05,2.02,0c1.64,0.11,3.26-0.06,4.89-0.14c2.06-0.1,4.13,0.23,6.2,0.22
			c1.2-0.01,1.72,0.61,2.35,1.48c1.33,1.83,3.27,2.89,5.35,3.69c2.07,0.8,4.21,1.14,6.45,1c2.1-0.13,4.22-0.08,6.33-0.08
			c4.3,0.01,7.77-1.78,10.52-4.98c0.64-0.75,1.36-1.08,2.22-1.16c1.89-0.17,3.79-0.25,5.8-0.38c0,1.27,0,2.54,0,3.86
			c0.72,0.05,1.33,0.12,1.93,0.12c2.81-0.04,5.62-0.1,8.43-0.17c0.84-0.02,0.87-0.13,0.66-1.26c-2.09,0-4.15,0-6.22,0
			c-1.29,0-2.58-0.03-3.86-0.02c-0.58,0-0.59-0.4-0.59-0.77c0.01-1.2,0.08-2.4,0.07-3.6c-0.01-2.37-0.05-4.74-0.09-7.11
			c-0.05-2.72-0.13-5.45-0.16-8.17c-0.02-2.54,0.01-5.08,0.02-7.63c0-0.93,0-1.86,0-2.82c-0.85-0.22-1.02-0.54-0.99-1.73
			c0.04-1.35,0.05-2.69,0.05-4.04c0.01-3.9,0.02-7.79,0.03-11.69c0-1.87-0.02-3.75-0.02-5.62c0-0.14,0.04-0.29,0.07-0.52
			c3.64,0,7.28,0,11.06,0c0.24,7.77-0.36,15.49,0.42,23.24c0.36,0.11,0.74,0.23,1.17,0.37c-0.6,0.7-0.64,1.51-0.66,2.34
			c-0.07,2.63-0.23,5.27-0.24,7.9c-0.02,3.13,0.1,6.27,0.12,9.4c0.02,2.14-0.03,4.27-0.05,6.41c0,0.26,0.02,0.52,0.04,0.92
			c4.29,0.08,8.56,0.16,13,0.24c0.01-0.67,0.07-1.3,0.03-1.92c-0.18-3.12-0.45-6.24-0.56-9.37c-0.12-3.25-0.22-6.5-0.1-9.75
			c0.12-3.63-0.03-7.26-0.08-10.88c-0.03-2.52,0.03-5.04,0.05-7.56c0.01-0.96-0.05-1.06-1.04-1.09c-2.66-0.07-5.33-0.09-7.99-0.13
			c-0.38-0.01-0.76,0-1.21,0c0-3.57,0-7.09,0-10.71c1.02,0,1.98,0,2.93,0c2.4,0,4.8-0.06,7.2,0c3.77,0.09,7.53,0.25,11.3,0.36
			c2.58,0.07,5.15,0.09,7.73,0.17c0.78,0.02,0.88,0.2,0.79,0.99c-0.06,0.49-0.12,0.98-0.16,1.48c-0.01,0.1,0.07,0.21,0.12,0.35
			c0.81-0.32,0.3-0.87,0.35-1.4c0.17-0.05,0.4-0.13,0.7-0.22c0.29,3.22,0.44,6.33,0.23,9.54c-0.33,0-0.62,0-0.9,0
			c-2.75,0.01-5.51,0.02-8.26,0.03c-1.08,0-1.23,0.25-1.14,1.31c0.14,1.66,0.19,3.32,0.28,4.98c0.07,1.31,0.17,2.63,0.21,3.94
			c0.05,1.52,0.05,3.04,0.07,4.56c0,0.09-0.04,0.19-0.01,0.26c0.62,1.42-0.08,2.84-0.01,4.26c0.08,1.58,0.1,3.16,0.06,4.73
			c-0.06,2.19-0.23,4.39-0.29,6.58c-0.12,4.1-0.19,8.19-0.28,12.29c-0.02,1-0.01,1.01-1.06,1.01c-2.78,0-5.56,0-8.4,0
			c0.01,0.14,0.04,0.33,0.04,0.52c0.01,0.67,0.34,0.89,1,0.89c2.75,0,5.5,0.05,8.25,0.07c0.28,0,0.57-0.07,0.94-0.13
			c0-1.71,0-3.36,0-5.17c4.09,0.21,8.06,0.7,12.16,1c0-0.44,0-0.76,0-1.07c0.01-2.9,0.02-5.8,0.03-8.69c0-0.61-0.07-1.24,0.02-1.84
			c0.07-0.45,0.35-0.86,0.56-1.34c-0.07-0.11-0.31-0.35-0.32-0.59c-0.04-0.79,0-1.58,0-2.36c0-1.32-0.01-2.63-0.02-3.95
			c-0.02-4.48-0.04-8.96-0.08-13.44c-0.01-1.84-0.06-3.69-0.09-5.53c0-0.21-0.01-0.41-0.01-0.62c-0.08-3.75-0.17-7.49-0.24-11.24
			c-0.01-0.49,0.05-0.98,0.09-1.64c1.39,0,2.7,0,4.01,0c0.56,0,1.11-0.01,1.67-0.01c0.73,0,1.46,0.03,2.19,0.02
			c0.7-0.01,1.4-0.07,2.1-0.08c3.49-0.06,6.97-0.16,10.43,0.46c5.73,1.03,9.48,4.67,10.62,10.39c0.45,2.25,0.56,4.53,0.52,6.82
			c-0.03,2.23-0.05,4.45-0.71,6.61c-0.47,1.52-1.04,3-2.11,4.21c-0.48,0.54-1.06,0.98-1.62,1.5c0.15,0.18,0.24,0.33,0.36,0.44
			c1.52,1.35,2.38,3.11,2.98,4.99c0.43,1.36,0.85,2.75,1.1,4.15c0.25,1.37,0.32,2.77,0.39,4.16c0.12,2.57,0.16,5.15,0.26,7.72
			c0.05,1.19,0.15,2.38,0.23,3.64c-3.14,0-6.26,0-9.37,0c-0.21,1.38,0.08,1.65,1.32,1.56c1.25-0.09,2.52-0.09,3.78-0.09
			c2.02,0,4.04,0.03,6.06,0.04c0.22,0,0.45-0.04,0.71-0.07c-0.09-0.84-0.17-1.62-0.26-2.46c0.46-0.06,0.86-0.21,1.2-0.13
			c1.31,0.33,2.61,0.11,3.91,0.03c0.2-0.01,0.42-0.02,0.61,0.04c1.47,0.51,2.96,0.06,4.43,0.06c0.7,0,1.41-0.27,2.2-0.43
			c-0.02-0.18-0.04-0.43-0.07-0.67c-0.14-1.01-0.24-2.02-0.43-3.02c-0.2-1.03-0.5-2.04-0.74-3.07c-0.28-1.2-0.52-2.4-0.81-3.59
			c-0.32-1.3-0.52-2.65-1.03-3.87c-0.88-2.11-1.23-4.44-2.59-6.36c-0.14-0.2-0.16-0.5-0.26-0.74c-0.34-0.87-0.6-1.78-1.04-2.6
			c-1.15-2.16-2.37-4.29-3.59-6.41c-0.36-0.63-0.86-1.18-1.25-1.79c-0.41-0.63-0.78-1.29-1.16-1.95c-0.07-0.12-0.11-0.27-0.1-0.41
			c0.1-2.73,0.03-5.45-0.29-8.16c-0.01-0.07,0.03-0.15,0.08-0.38c0.34,0.46,0.61,0.82,0.89,1.18c0.73,0.92,1.46,1.82,2.19,2.74
			c0.07,0.09,0.15,0.18,0.22,0.27c1.17,1.74,2.41,3.44,3.48,5.25c1.21,2.03,2.26,4.16,3.38,6.25c0.36,0.67,0.75,1.33,1.06,2.02
			c1.11,2.4,2.49,4.69,3.03,7.34c0.16,0.81,0.59,1.56,0.85,2.36c0.19,0.58,0.33,1.17,0.49,1.76c0.07,0.28,0.06,0.6,0.19,0.85
			c0.88,1.77,1.03,3.76,1.6,5.62c0.29,0.93,0.31,1.95,0.46,2.93c0.14,0.98,0.32,1.96,0.42,2.94c0.05,0.43-0.05,0.87-0.07,1.3
			c0,0.05,0.06,0.11,0.08,0.17c0.11,0.5,0.26,1,0.33,1.51c0.15,1.18,0.32,2.35,0.22,3.57c-0.09,1.17,0.17,2.36,0.28,3.54
			c0,0.23,0,0.47,0,0.7c0,0.41,0,0.82,0,1.23C169.34,129.72,169.34,129.89,169.34,130.07z M70.14,157.34
			c-0.03-0.03-0.06-0.07-0.1-0.1c0.04,0.03,0.08,0.06,0.12,0.09c0.06,0.3,0.11,0.61,0.17,0.91c0.09-0.04,0.18-0.08,0.28-0.12
			C70.45,157.86,70.3,157.6,70.14,157.34z M133.1,148.53c0.17,0.06,0.34,0.12,0.52,0.17c0.01-0.05,0.02-0.1,0.03-0.15
			c-0.19,0-0.38,0-0.57,0c-0.99-0.71-1.93-0.81-2.47-0.13C131.51,148.46,132.3,148.49,133.1,148.53z M70.26,153.93l0.03,0.02
			c-0.26-0.01-0.54-0.09-0.77-0.02c-0.46,0.14-0.9,0.36-1.26,0.51c-0.07,0.53-0.13,1.01-0.19,1.52c0.24,0.26,0.52,0.55,0.82,0.86
			c0.17-0.12,0.32-0.24,0.46-0.34c0.18,0.1,0.34,0.19,0.5,0.28c-0.01,0.02-0.01,0.04-0.02,0.06c0-0.01,0-0.03-0.01-0.04
			c0.04-0.27,0.08-0.54,0.14-1.02c0.59,0.39,1.04,0.69,1.47,0.98c0.32-0.29,0.64-0.57,0.96-0.86c-0.77-1.06-0.54-2.17-0.15-3.28
			c-0.35-0.33-0.7-0.65-1.06-0.98c-0.88,1.09-0.93,1.54-2.49,0.06c-0.3,0.34-0.6,0.68-0.8,0.92c0.3,0.34,0.58,0.66,0.87,0.98
			c0.29-0.24,0.57-0.56,0.92-0.72c0.19-0.09,0.62,0.01,0.73,0.17C70.6,153.29,70.84,153.72,70.26,153.93z M122.6,151.57l0.01-0.02
			c-0.28-0.12-0.57-0.24-0.87-0.37c-0.11,0.19-0.16,0.35-0.26,0.43c-0.52,0.45-0.66,0.91-0.54,1.65c0.12,0.73,0.21,1.63-0.28,2.08
			c0.31,0.36,0.61,0.71,0.96,1.11c0.23-0.19,0.59-0.47,0.93-0.75c-0.73-1.73-0.4-2.86,0.79-2.93c0.34,0.92,0.18,2.26-0.32,2.81
			c0.35,0.37,0.7,0.75,1.06,1.13c0.34-0.33,0.66-0.63,0.96-0.91c-0.17-1.14-0.58-2.27,0.17-3.05c-0.29-0.46-0.57-0.89-0.86-1.34
			c-0.43,0.5-0.72,1-1.34,0.8C122.85,151.98,122.72,151.78,122.6,151.57z M147.03,130.23c-0.16,0.69-0.37,1.37-0.48,2.07
			c-0.22,1.33-0.4,2.66-0.58,3.99c-0.1,0.75-0.16,1.5-0.25,2.29c0.62-0.11,0.59-1.01,1.29-0.85c0.79-0.74,1.79-0.27,2.68-0.39
			c0.5-0.07,1.07,0.16,1.62-0.15c0.18-0.1,0.47-0.01,0.71,0c0.26,0.01,0.53,0.1,0.77,0.05c1.15-0.25,2.31-0.5,3.44-0.83
			c0.53-0.15,0.98-0.57,1.6-0.42c0.05,0.01,0.2-0.25,0.26-0.41c0.54-1.33,0.88-2.66,0.79-4.15c-0.09-1.41,0.13-2.84-1.33-3.74
			c-0.39-1.19-1.49-1.43-2.44-1.47c-2.61-0.11-5.23-0.02-7.88,0c-0.14,1-0.29,1.84-0.35,2.68c-0.03,0.44,0.12,0.9,0.19,1.35
			L147.03,130.23z M135.78,140.16c-0.06-0.13-0.18-0.36-0.16-0.37c0.43-0.29,0.52-0.96,1.27-0.92c1.01,0.06,2.02-0.05,3.01-0.09
			c0.08-1.37,0.15-2.62,0.22-3.96c-1.2,0-2.33,0-3.61,0c0.18-1.43,0.34-2.74,0.51-4.1c1.81-0.08,3.49-0.15,5.26-0.22
			c0.18-1.37,0.35-2.7,0.54-4.14c-3.38,0.11-6.7,0.22-10.03,0.33c-0.07,0.36-0.15,0.62-0.17,0.87c-0.2,2.04-0.44,4.07-0.57,6.12
			c-0.12,1.89-0.4,3.75-0.68,5.62c-0.12,0.82-0.23,1.65-0.33,2.48c-0.08,0.65-0.08,1.32-0.24,1.95c-0.28,1.09-0.13,2.16-0.14,3.42
			c0.41-0.24,0.64-0.42,0.89-0.5c0.32-0.1,0.78-0.29,0.97-0.15c0.78,0.55,1.66,0.66,2.56,0.75c1.45,0.16,2.9,0.32,4.35,0.43
			c0.16,0.01,0.45-0.2,0.49-0.36c0.28-1.09,0.51-2.2,0.77-3.41c-1.74-0.14-3.41-0.27-5.1-0.4c0-0.29-0.02-0.44,0-0.58
			c0.02-0.17,0.11-0.34,0.12-0.5c0.01-0.31,0.11-0.77-0.04-0.91c-0.37-0.32-0.21-0.53-0.05-0.82c0.09-0.17,0.12-0.38,0.17-0.57
			c0.04-0.05,0.08-0.09,0.07-0.08C135.85,140.04,135.81,140.1,135.78,140.16z M73.25,131.51c0.56-0.94,1.11-1.87,1.67-2.81
			c-0.77-1.37-1.73-2.31-3.31-2.71c-1.72-0.44-3.37-0.34-5.02,0.12c-0.75,0.21-1.59,0.41-2.15,0.89c-1.21,1.02-1.93,2.45-2.25,3.98
			c-0.41,1.94-0.59,3.92-0.93,5.87c-0.38,2.25-0.57,4.5-0.43,6.78c0.11,1.67,1.54,3.57,3.13,3.86c3.19,0.59,6.17,0.26,8.43-2.44
			c1.04-1.25,1.4-2.78,1.77-4.38c-1.75-0.1-3.37-0.19-4.96-0.28c-0.12,0.35-0.17,0.58-0.27,0.79c-0.26,0.58-0.47,1.2-0.83,1.73
			c-0.41,0.62-1.32,0.84-1.97,0.58c-0.67-0.27-0.73-0.86-0.72-1.46c0.02-0.61,0.03-1.23,0.11-1.84c0.31-2.25,0.64-4.5,0.99-6.74
			c0.09-0.6,0.39-1.18,0.42-1.77c0.03-0.55,0.26-0.92,0.57-1.32c0.38-0.49,0.87-0.57,1.41-0.46c0.54,0.11,0.87,0.45,0.96,1.01
			c0.05,0.32,0.11,0.63,0.17,0.95c0.21,1.17,0.21,1.18,1.37,1.17c1.64-0.01,1.39,0.06,1.86-1.52L73.25,131.51z M109.16,137.16
			c0.62-0.85,1.15-1.74,1.29-2.8c0.08-0.6,0.15-1.2,0.13-1.8c-0.04-1.58-0.41-3.01-2.02-3.73c-0.64-0.28-1.31-0.58-1.99-0.67
			c-1.76-0.21-3.54-0.31-5.31-0.46c-0.68-0.06-1.36-0.11-2.1-0.17c-0.25,1.57-0.49,3.03-0.7,4.5c-0.24,1.7-0.42,3.4-0.7,5.09
			c-0.26,1.58-0.64,3.14-0.95,4.71c-0.2,1.03-0.36,2.06-0.55,3.09c-0.21,1.17-0.43,2.34-0.66,3.57c1.68,0,3.25,0,4.83,0
			c0.4-2.74,0.8-5.42,1.2-8.2c0.44,0,0.82,0.02,1.19,0c0.58-0.04,0.9,0.18,1.09,0.76c0.44,1.31,0.51,2.62,0.29,3.98
			c-0.18,1.1-0.24,2.22-0.37,3.52c1.59-0.07,3.09-0.14,4.55-0.21c0.1-0.98,0.12-1.89,0.3-2.77c0.28-1.32,0.4-2.64,0.31-3.98
			c-0.06-0.85-0.24-1.67-0.82-2.33c-0.32-0.36-0.31-0.58,0.05-0.94c0.34-0.34,0.96-0.52,0.9-1.18L109.16,137.16z M155.99,161.87
			c-0.05-0.09-0.09-0.17-0.14-0.26c-0.69,0.04-1.39,0.07-2.08,0.11c-1.24,0.07-2.49,0.16-3.73,0.2c-0.92,0.03-1.84-0.04-2.76,0.01
			c-1.42,0.08-2.83,0.26-4.24,0.33c-0.84,0.05-1.69-0.05-2.54-0.03c-1.51,0.04-3.03,0.11-4.54,0.19c-1.49,0.07-2.97,0.15-4.46,0.24
			c-1.4,0.08-2.79,0.2-4.19,0.27c-1.23,0.06-2.46,0.03-3.68,0.1c-1.77,0.11-3.54,0.3-5.32,0.41c-1.43,0.09-2.86,0.11-4.28,0.19
			c-0.7,0.04-1.42,0.29-2.09,0.17c-2-0.35-3.93,0.63-5.92,0.18c-0.1-0.02-0.23,0.05-0.34,0.06c-0.43,0.03-0.86,0.08-1.29,0.06
			c-1.69-0.12-3.38-0.28-5.07-0.39c-0.46-0.03-0.93,0.11-1.39,0.09c-1.39-0.08-2.79-0.21-4.18-0.3c-1.77-0.12-3.54-0.24-5.32-0.31
			c-1.23-0.05-2.47-0.01-3.71-0.01c-0.26,0-0.52,0.03-0.77,0c-1.51-0.13-3.02-0.34-4.53-0.4c-1.68-0.07-3.37,0.01-5.06,0.01
			c-2.09,0.01-4.19,0.02-6.28-0.01c-1.63-0.02-3.26-0.12-4.89-0.17c-0.29-0.01-0.58,0.01-0.88,0.01c-1.6,0.04-3.21,0.13-4.81,0.11
			c-1.84-0.02-3.67-0.21-5.51-0.19c-2.18,0.02-4.37,0.17-6.55,0.27c-2.53,0.11-5.06,0.25-7.59,0.35c-1.93,0.07-3.86,0.09-5.78,0.12
			c-2.8,0.05-5.59,0.08-8.39,0.13c-0.25,0-0.49,0.06-0.77,0.1c2.8,5.48,6.36,10.31,10.46,14.8c4.13,4.53,8.56,8.72,13.73,12.02
			c5.1,3.25,10.42,6.04,16.13,8.18c5.73,2.15,11.59,3.28,17.61,4.05c6.08,0.78,12.15,0.78,18.17-0.12c5.99-0.89,11.9-2.23,17.54-4.6
			c2.33-0.98,12.47-5.56,15.8-8.77c5.15-3.34,9.49-7.58,13.51-12.19C149.87,172.29,153.11,167.21,155.99,161.87z M87.39,126.58
			c-0.01,0.03-0.03,0.06-0.04,0.09c-0.58,0.07-1.15,0.15-1.73,0.21c-2.19,0.22-3.8,1.31-4.59,3.35c-1.08,2.78-1.86,5.65-2.23,8.62
			c-0.22,1.81-0.43,3.62-0.55,5.44c-0.11,1.66,1.01,3.68,3.18,3.96c1.71,0.23,3.41,0.31,5.14,0.23c1.61-0.07,3.89-1.53,4.49-3.04
			c0.55-1.37,1.07-2.72,1.29-4.2c0.27-1.86,0.74-3.69,1.02-5.55c0.21-1.4,0.26-2.83,0.35-4.24c0.12-2-0.91-3.63-2.84-4.24
			C89.75,126.87,88.55,126.79,87.39,126.58z M18.77,127.83c-0.1,1.91-0.22,3.71-0.28,5.5c-0.05,1.36,0.01,2.72-0.07,4.07
			c-0.14,2.51-0.34,5.01-0.52,7.51c-0.03,0.49-0.1,0.99-0.11,1.48c-0.02,1.07-0.01,2.14-0.01,3.32c1.95-0.22,3.74-0.52,5.54-0.6
			c1.94-0.09,3.57-0.79,5.07-1.94c0.83-0.64,1.47-1.43,1.69-2.45c0.39-1.77,0.73-3.55,1.03-5.33c0.12-0.71,0.11-1.45,0.12-2.18
			c0-0.55-0.16-1.11-0.08-1.64c0.27-1.71,0.02-3.39-0.24-5.06c-0.21-1.34-0.88-2.41-2.25-2.86c-1.23,0.51-1.18,1.71-1.54,2.74
			c-0.37-0.72-0.7-1.43-0.95-2.16c-0.2-0.57-0.48-0.9-1.14-0.8c-0.6,0.09-1.21,0.16-1.81,0.19
			C21.78,127.7,20.32,127.76,18.77,127.83z M116.87,147.99c0.06-0.11,0.11-0.22,0.18-0.31c0.45-0.59,1.07-1.01,1.36-1.78
			c0.25-0.66,0.99-0.71,1.54-0.2c0.49,0.45,0.87,1.02,1.34,1.49c0.25,0.25,0.69,0.66,0.86,0.58c0.86-0.41,1.73-0.86,2.46-1.47
			c0.54-0.45,0.96-1.11,1.28-1.75c0.3-0.59,0.45-1.28,0.57-1.94c0.24-1.4,0.47-2.8,0.59-4.21c0.21-2.49,0.64-4.97,0.27-7.48
			c-0.16-1.04-0.48-2-1.42-2.71c-0.71-0.54-1.47-0.73-2.27-0.75c-0.95-0.03-1.91,0.11-2.87,0.16c-1.18,0.06-2.36,0.09-3.54,0.14
			c-0.2,0.01-0.43-0.01-0.6,0.07c-0.16,0.07-0.35,0.24-0.4,0.4c-0.26,1.01-0.53,2.02-0.71,3.05c-0.16,0.92-0.18,1.86-0.33,2.78
			c-0.16,1-0.4,1.99-0.58,2.98c-0.26,1.43-0.49,2.87-0.72,4.3c-0.04,0.26-0.05,0.52-0.08,0.78c-0.06,0.58-0.12,1.16-0.19,1.74
			c-0.18,1.47-0.37,2.93-0.55,4.37C114.41,148.83,115.55,147.88,116.87,147.99z M57.52,132.86c0-0.7,0.03-1.31-0.01-1.91
			c-0.03-0.58-0.07-1.17-0.21-1.73c-0.14-0.55-0.43-1.02-0.81-1.51c-0.65-0.84-1.48-1.24-2.4-1.48c-1.74-0.46-3.5-0.22-5.22,0.18
			c-1.36,0.31-2.38,1.13-2.86,2.45c-0.34,0.92-0.55,1.9-0.76,2.86c-0.54,2.48,1.29,4.97,2.88,6.06c0.62,0.42,1.21,0.88,1.84,1.28
			c1.33,0.85,1.28,2.43,0.83,3.66c-0.1,0.26-0.51,0.62-0.72,0.59c-0.31-0.05-0.64-0.36-0.83-0.65c-0.14-0.21-0.07-0.57-0.07-0.86
			c0.01-0.51,0.05-1.02,0.08-1.68c-1.7,0-3.27,0-4.95,0c0,1.3-0.06,2.5,0.02,3.68c0.07,1.08,0.6,2.01,1.62,2.44
			c0.79,0.33,1.66,0.57,2.52,0.66c0.94,0.09,1.92-0.13,2.86-0.04c1.56,0.16,2.75-0.35,3.59-1.64c0.7-1.08,1.16-2.29,1.29-3.57
			c0.08-0.76,0.11-1.59-0.1-2.3c-0.36-1.2-1.03-2.27-2.1-3.02c-0.81-0.57-1.58-1.2-2.41-1.74c-1.52-0.99-1.53-2.65-0.82-4.11
			c0.18-0.36,0.44-0.65,0.89-0.54c0.45,0.11,0.54,0.45,0.53,0.88c-0.02,0.72-0.01,1.44-0.01,2.25
			C54.04,132.99,55.69,132.93,57.52,132.86z M137.3,119.03c-0.03-0.42-0.06-0.68-0.07-0.94c-0.07-1.17-0.29-2.36-0.16-3.5
			c0.41-3.56-0.05-7-1.08-10.39c-0.25-0.81-0.54-1.61-0.87-2.39c-0.58-1.36-1.49-2.19-3.11-2.01c-0.85,0.09-1.73,0.02-2.66,0.02
			c-0.04,0.55-0.1,1.01-0.12,1.47c-0.06,1.84-0.08,3.69-0.18,5.53c-0.02,0.44-0.26,0.87-0.42,1.39c0.31,0.12,0.38,0.42,0.19,0.94
			c-0.16,0.44-0.09,0.97-0.09,1.46c-0.01,2.29,0.02,4.57-0.01,6.86c-0.01,1.01-0.11,2.02-0.18,3.1c-3.57-0.14-7.01-0.27-10.44-0.41
			c-0.21,1.36-0.17,1.41,1.02,1.45c2.4,0.09,4.8,0.21,7.2,0.28c1.28,0.04,2.56,0.01,3.93,0.01c0.08-0.99,0.15-2,0.24-3.12
			C132.76,118.86,135,118.94,137.3,119.03z M128.61,75.4c-0.15,5.5-0.11,10.88,0.63,16.31c0.96-0.11,1.89-0.19,2.82-0.32
			c2.37-0.31,3.81-1.77,4.03-4.14c0.13-1.4,0.24-2.8,0.25-4.2c0.02-1.49-0.15-2.98-0.69-4.4c-0.5-1.32-1.32-2.35-2.71-2.8
			C131.58,75.42,130.16,75.29,128.61,75.4z M157.4,138.9c-0.23-0.1-0.39-0.23-0.55-0.23c-1.17-0.01-2.35,0.05-3.52,0
			c-1.11-0.05-2.25-0.1-3.33-0.33c-0.89-0.19-1.64-0.44-2.58,0.04c-0.93,0.48-1.49,1.03-1.67,2.07c-0.38,2.25-0.84,4.48-1.26,6.72
			c-0.05,0.28-0.09,0.57-0.15,0.95c1.54,0.12,3.01,0.24,4.4,0.35c0.89-2.69,1.14-5.43,1.9-8.06c0.46,0.07,0.75,0.17,1.03,0.14
			c0.72-0.08,0.99,0.36,1.16,0.93c0.07,0.22,0.13,0.45,0.17,0.68c0.23,1.24-0.02,2.44-0.28,3.65c-0.21,0.96-0.37,1.93-0.57,3
			c1.64,0.16,3.13,0.3,4.65,0.45c0.07-0.49,0.13-0.86,0.17-1.24c0.11-0.94,0.14-1.89,0.34-2.8c0.45-2.01,0.56-3.98-0.38-5.89
			C157.08,139.2,157.22,139.07,157.4,138.9z M39.51,147.28c0.36-6.95,1.03-13.78,1.74-20.59c-1.66,0-3.14,0-4.72,0
			c-0.62,7.05-1.65,13.97-1.39,21.03c0.35-0.02,0.78-0.04,1.21-0.08C37.36,147.53,38.37,147.41,39.51,147.28z M61.48,152.93
			c-0.41-0.38-0.76-0.7-1.03-0.96c-0.48,0.34-0.92,0.9-1.34,0.89c-0.47-0.01-0.92-0.56-1.25-0.78c-0.47,0.3-0.88,0.78-1.31,0.79
			c-0.47,0.01-0.94-0.42-1.22-0.56c-0.39,0.31-0.74,0.58-1.07,0.84c0.58,1.02,0.64,2.08,0.23,3.23c0.3,0.27,0.66,0.59,1.02,0.91
			c0.35-0.37,0.64-0.69,0.92-0.98c-0.53-0.84-0.52-1.73-0.44-2.62c0.01-0.17,0.35-0.45,0.53-0.44c0.22,0.01,0.58,0.24,0.62,0.43
			c0.19,0.87,0.4,1.77-0.15,2.6c0.38,0.35,0.74,0.67,1.09,0.99c0.36-0.39,0.67-0.73,1-1.1c-0.68-0.68-0.53-1.52-0.5-2.34
			c0.01-0.32,0.02-0.74,0.46-0.69c0.25,0.03,0.59,0.28,0.69,0.51c0.35,0.84,0.32,1.71-0.16,2.52c0.38,0.36,0.73,0.69,1.09,1.02
			c0.35-0.42,0.64-0.78,0.92-1.12C61.03,155.29,60.99,153.64,61.48,152.93z M79.92,156.64c0.4-0.63,0.84-1.05,1.63-0.83
			c0,0.67,0,1.3,0,1.96c-0.72,0.2-1.12-0.38-1.65-0.65c-0.5,0.47-1.29,0.65-1.29,1.65c0.7-0.88,1.31-0.27,1.64-0.12
			c1.16-0.4,2.08-0.71,3.02-1.03c-0.43-0.75-0.54-1.47,0.18-2.08c-0.81-1.03-0.66-2.11-0.31-3.08c-0.67-0.37-1.32-0.72-1.9-1.04
			c-0.78,0.39-1.57,0.79-2.38,1.2c0.27,0.97,0.53,2.02,0,3.04C79.2,155.95,79.53,156.27,79.92,156.64z M100.85,155.27
			c0.34,0.36,0.64,0.67,0.86,0.9c0.55-0.23,1.05-0.52,1.59-0.66c0.66-0.17,1.13,0.26,1.48,0.79c0.42-0.37,0.78-0.69,1.08-0.95
			c-0.3-0.48-0.57-0.91-0.84-1.34c-0.97,1.08-0.97,1.08-2.06,0.94c0.94-1.01,1.16-2.49,2.49-2.9c-0.31-0.32-0.63-0.65-1.04-1.07
			c-0.78,0.49-1.72,1.32-2.5,0.17c-0.42,0.34-0.8,0.66-1.16,0.95c0.27,0.37,0.54,0.75,0.85,1.17c0.32-0.62,0.53-1.3,1.48-1.32
			C102.51,153.26,101.99,154.48,100.85,155.27z M94.16,155.42c-0.03-1.2-0.64-2.29,0.16-3.36c-0.37-0.34-0.71-0.64-0.94-0.86
			c-0.54,0.32-0.99,0.81-1.44,0.81c-0.44,0-0.89-0.5-1.35-0.79c-0.26,0.3-0.55,0.64-0.7,0.81c0.3,0.4,0.56,0.75,0.83,1.1
			c0.54-0.28,0.76-1.15,1.51-0.84c0.23,0.09,0.31,0.55,0.45,0.82c-0.93,0.27-1.76,0.51-2.44,0.71c-0.1,0.58-0.19,1.09-0.27,1.56
			c0.26,0.3,0.55,0.65,0.75,0.88c0.5-0.28,0.95-0.72,1.39-0.72c0.46,0,0.93,0.43,1.39,0.66C93.69,155.95,93.94,155.66,94.16,155.42z
			 M133.46,157.18c0.48-0.26,0.95-0.52,1.52-0.84c-0.77-0.15-1.58-0.14-1.64-1.27c1.38,0.06,1.98-0.84,2.29-1.81
			c-0.41-0.44-0.77-0.81-1.05-1.12c-0.9,0.31-1.84,0.63-2.74,0.94c0.42,1.02,0.39,2.08-0.24,3.02
			C132.21,156.46,132.8,156.8,133.46,157.18z M113.12,156.4c0.36-0.32,0.73-0.64,1.06-0.93c-0.69-1.11-0.31-2.16,0.08-3.28
			c-0.25-0.31-0.53-0.66-0.7-0.87c-0.34,0.39-0.65,0.76-1.02,1.19c0.29,0.78,0.14,1.84-0.35,2.87
			C112.5,155.7,112.8,156.04,113.12,156.4z M75.41,133.23c0.05-0.29,0.12-0.48,0.12-0.68c0-0.71,0.01-1.43-0.06-2.14
			c-0.06-0.5-0.39-0.68-0.68-0.52c-0.52,1.29-1.15,2.3-1.78,3.34C73.8,133.23,74.59,133.23,75.41,133.23z M113.56,148.95
			c-0.41,0.33-0.77,0.61-1.13,0.89c0.08-0.07,0.17-0.15,0.25-0.22c0.28,0.43,0.56,0.86,0.85,1.3c0.4-0.36,0.73-0.66,0.98-0.88
			C114.17,149.66,113.87,149.31,113.56,148.95z M69.55,78.24c-0.15,0.2-0.27,0.29-0.26,0.36c0.02,0.09,0.14,0.21,0.22,0.21
			c0.09,0,0.23-0.12,0.24-0.2C69.76,78.52,69.65,78.41,69.55,78.24z M127.05,108.31c0.01,0.06,0.02,0.12,0.03,0.18
			c0.22-0.05,0.44-0.09,0.66-0.14c-0.02-0.02-0.04-0.04-0.09-0.11C127.47,108.26,127.26,108.29,127.05,108.31z M70.75,158.69
			c-0.03,0.15-0.06,0.24-0.04,0.25c0.08,0.05,0.17,0.08,0.25,0.11C70.9,158.95,70.84,158.85,70.75,158.69z M76.21,89.08
			c0.01,0.05,0.02,0.1,0.03,0.15c0.11-0.01,0.21-0.02,0.32-0.03c-0.03-0.06-0.05-0.18-0.08-0.18C76.39,89.02,76.3,89.06,76.21,89.08
			z M162.2,124.34c0.05-0.09,0.1-0.15,0.1-0.21c0-0.03-0.09-0.1-0.13-0.09c-0.07,0.02-0.13,0.08-0.19,0.12
			C162.05,124.21,162.11,124.26,162.2,124.34z M156.97,136.28c0.01,0.02,0.01,0.05,0.02,0.06c0.02,0.01,0.05,0.01,0.08,0.01
			c-0.01-0.03-0.01-0.06-0.02-0.1C157.02,136.27,157,136.27,156.97,136.28z M73.05,89.57l0.03-0.05l-0.05-0.01L73.05,89.57z
			 M161.16,123.96l-0.03,0.04l0.05,0L161.16,123.96z M122.11,151.13l0.03-0.04l-0.04-0.01L122.11,151.13z"/>
		<path class="st0" d="M74.2,3.1c1.93,0.56,1.7,0.9,1.74,2.48c0.03,1.23,0.01,2.45,0,3.68c-0.01,0.74-0.41,1.28-1.12,1.33
			c-0.78,0.06-1.58,0-2.36-0.07c-0.61-0.05-0.91-0.48-0.92-1.08c-0.01-0.93-0.01-1.87-0.02-2.8c-0.01-0.61-0.01-1.23-0.06-1.84
			c-0.09-1.03,0.25-1.43,1.3-1.51c0.36-0.03,0.72-0.13,1.08-0.2C73.97,3.1,74.08,3.1,74.2,3.1z"/>
		<path class="st0" d="M29.7,93.69c1.35-0.19,2.58-0.39,3.83-0.53c1.45-0.16,2.91-0.26,4.37-0.36c0.28-0.02,0.57,0.09,0.84,0.18
			c0.22,0.08,0.42,0.21,0.61,0.34c1.24,0.8,2.55,0.87,4.04,0.27c0.05,0.55,0.1,1.02,0.12,1.5c0.15,3.3,0.25,6.61,0.45,9.91
			c0.07,1.16,0.29,2.33,0.55,3.46c0.55,2.4,2.28,3.43,4.71,3.08c1.51-0.22,2.43-0.97,3-2.34c0.48-1.15,0.79-2.32,0.73-3.57
			c-0.04-0.88-0.01-1.76-0.01-2.74c1.11-0.07,2.21-0.17,3.31-0.22c3.1-0.13,6.2-0.22,9.3-0.35c0.44-0.02,0.66,0.13,0.75,0.53
			c0.03,0.14,0.07,0.29,0.06,0.43c-0.05,3.59-0.34,7.14-1.88,10.46c-1.9,4.09-4.98,6.83-9.38,7.93c-1.21,0.3-2.49,0.34-3.74,0.38
			c-2.22,0.08-4.45,0.13-6.67,0.09c-3.58-0.07-6.77-1.26-9.48-3.61c-1.06-0.92-1.67-2.18-2.27-3.41c-0.91-1.85-1.41-3.82-1.75-5.86
			c-0.74-4.45-1.22-8.93-1.5-13.43C29.66,95.13,29.7,94.44,29.7,93.69z"/>
		<path class="st0" d="M64.59,83.61c-4.49,0.09-8.84,0.17-13.29,0.25c-0.11-1.02-0.17-1.97-0.32-2.91
			c-0.18-1.09-0.37-2.19-0.69-3.25c-0.94-3.08-5.02-2.78-6.44-1.17c-0.28,0.32-0.47,0.73-0.62,1.14c-0.91,2.56-0.74,5.25-0.87,7.9
			c-0.1,1.96-0.04,3.92-0.08,5.88c-0.01,0.78-0.18,0.97-0.91,0.96c-1.46-0.01-2.92-0.08-4.38-0.12c-0.26-0.01-0.53-0.04-0.79-0.02
			c-1.52,0.12-3.03,0.24-4.55,0.38c-0.82,0.07-1.63,0.17-2.62,0.28c0-0.86,0-1.72,0-2.59c0-0.96-0.08-1.93-0.02-2.89
			c0.2-3.3,0.14-6.65,0.77-9.87c0.63-3.21,1.72-6.39,4.16-8.85c1.85-1.86,4.15-2.78,6.64-3.36c2.79-0.65,5.61-0.83,8.45-0.57
			c1.57,0.15,3.17,0.2,4.69,0.58c2.97,0.73,5.45,2.38,7.11,4.95c0.96,1.48,1.55,3.2,2.26,4.83c0.95,2.17,1.34,4.47,1.49,6.82
			C64.62,82.5,64.59,83.01,64.59,83.61z"/>
		<path class="st0" d="M81.26,53.68c0.04,4.31-3.3,7.73-7.61,7.79c-4.04,0.05-7.55-3.41-7.57-7.45c-0.03-4.45,3.25-7.73,7.6-7.76
			C77.87,46.23,81.1,49.42,81.26,53.68z"/>
		<path class="st0" d="M137.03,63.78c-2.51-0.05-4.84-0.1-7.18-0.15c-0.18,0-0.36-0.03-0.53,0c-1.56,0.33-2.75-0.46-3.92-1.31
			c-0.28-0.21-0.59-0.39-0.9-0.54c-1.28-0.63-2.55-1.29-3.86-1.86c-2.04-0.88-4.09-1.71-6.16-2.52c-1.19-0.46-2.41-0.85-3.6-1.41
			c0.18-0.02,0.36-0.04,0.54-0.04c1.96-0.02,3.92-0.04,5.88-0.04c0.43,0,0.87,0.14,1.3,0.14c1.66,0,3.32-0.01,4.97-0.06
			c0.69-0.02,1.31,0.1,1.92,0.45c0.99,0.56,2.04,1.03,3.02,1.6c0.67,0.39,1.27,0.92,1.92,1.36c0.43,0.29,0.91,0.53,1.36,0.79
			c0.32,0.19,0.64,0.39,0.95,0.6c0.09,0.06,0.15,0.22,0.25,0.24c1.3,0.32,1.96,1.64,3.21,2.05C136.49,63.18,136.7,63.5,137.03,63.78
			z"/>
		<path class="st0" d="M41.83,63.03c0.35-0.26,0.69-0.54,1.04-0.78c1.32-0.91,2.64-1.82,3.99-2.69c0.48-0.31,1.05-0.49,1.56-0.77
			c1.37-0.77,2.74-1.54,4.08-2.34c0.73-0.44,1.5-0.62,2.34-0.54c0.89,0.08,1.79,0.2,2.68,0.26c0.4,0.03,0.81-0.06,1.22-0.08
			c0.4-0.02,0.81-0.02,1.21-0.01c0.14,0,0.32,0.13,0.42,0.08c1.06-0.53,2.12,0.22,3.2-0.07c0.11,0.35,0.2,0.65,0.35,1.11
			c-0.67,0.22-1.32,0.41-1.95,0.65c-0.49,0.18-0.95,0.44-1.42,0.65c-1.17,0.52-2.34,1.03-3.51,1.56c-1.06,0.48-2.13,0.96-3.16,1.5
			c-0.85,0.44-1.63,1-2.48,1.45c-0.29,0.15-0.67,0.19-1.01,0.19c-0.82-0.02-1.63-0.12-2.45-0.13c-1.63-0.02-3.27,0.01-4.9,0.01
			c-0.41,0-0.81-0.05-1.22-0.07C41.84,63.01,41.83,63.03,41.83,63.03z"/>
		<path class="st0" d="M62.99,69.39c-0.36-0.19-0.68-0.31-0.93-0.52c-0.46-0.4-0.88-0.85-1.31-1.29c-0.61-0.63-0.62-1.29-0.02-1.89
			c1.11-1.12,2.22-2.23,3.34-3.34c0.63-0.62,1.27-0.62,1.89-0.01c0.44,0.43,0.87,0.86,1.3,1.3c0.59,0.6,0.6,1.22,0.02,1.81
			c-1.13,1.14-2.26,2.28-3.41,3.4C63.66,69.07,63.34,69.19,62.99,69.39z"/>
		<path class="st0" d="M106.09,52.72c0-0.39-0.01-0.74,0-1.09c0.03-0.7,0.5-1.19,1.14-1.19c1.54,0.01,3.08,0.02,4.62,0.05
			c1.25,0.02,1.47,0.22,1.55,1.47c0.04,0.64,0.03,1.29-0.02,1.93c-0.07,0.76-0.45,1.09-1.2,1.09c-1.43,0-2.86,0-4.28-0.01
			c-1.68,0-1.91-0.24-1.82-1.95C106.07,52.91,106.09,52.79,106.09,52.72z"/>
		<path class="st0" d="M88.81,54.97c-1.08,0-2.16,0.01-3.24,0c-1.24-0.02-1.48-0.26-1.49-1.49c-0.01-0.64,0-1.29,0.03-1.93
			c0.03-0.65,0.52-1.12,1.12-1.12c1.54,0.01,3.08,0.02,4.62,0.05c1.29,0.02,1.51,0.23,1.57,1.54c0.03,0.58,0.02,1.17-0.02,1.75
			c-0.07,0.91-0.43,1.22-1.36,1.19c-0.41-0.01-0.82-0.06-1.22-0.09C88.81,54.91,88.81,54.94,88.81,54.97z"/>
		<path class="st0" d="M91.29,38.41c-0.4-0.14-0.68-0.16-0.82-0.31c-0.61-0.63-1.17-1.3-1.75-1.95c-0.37-0.42-0.26-0.82,0.08-1.16
			c1.19-1.24,2.38-2.49,3.62-3.68c0.68-0.65,1.17-0.58,1.82,0.07c0.45,0.45,0.92,0.89,1.36,1.37c0.6,0.65,0.57,1.09-0.06,1.73
			c-0.94,0.95-1.85,1.94-2.82,2.87C92.26,37.76,91.72,38.09,91.29,38.41z"/>
		<path class="st0" d="M99.03,30.65c-0.37-0.14-0.64-0.17-0.78-0.32c-0.61-0.63-1.17-1.3-1.76-1.95c-0.37-0.42-0.26-0.82,0.07-1.16
			c1.19-1.25,2.38-2.49,3.62-3.69c0.67-0.65,1.14-0.58,1.81,0.08c0.44,0.43,0.87,0.86,1.3,1.3c0.67,0.67,0.66,1.13,0.01,1.78
			c-0.96,0.97-1.89,1.99-2.88,2.94C100,30.03,99.47,30.33,99.03,30.65z"/>
		<path class="st0" d="M95.12,52.73c0-0.41-0.03-0.82,0.01-1.23c0.05-0.62,0.5-1.07,1.07-1.06c1.6,0.01,3.2,0.02,4.8,0.06
			c1.16,0.03,1.45,0.4,1.39,1.58c-0.03,0.52,0.06,1.05,0.04,1.58c-0.04,0.99-0.44,1.34-1.43,1.32c-1.37-0.02-2.74,0-4.11,0
			c-1.66,0-1.8-0.15-1.78-1.81c0-0.15,0-0.29,0-0.44C95.11,52.73,95.11,52.73,95.12,52.73z"/>
		<path class="st0" d="M53.85,52.84c0,0.29-0.02,0.59,0,0.88c0.05,0.7-0.26,1.14-0.93,1.16c-1.23,0.04-2.45,0.01-3.68,0.02
			c-0.44,0-0.87,0.05-1.3,0.07c-0.97,0.04-1.37-0.33-1.38-1.31c-0.01-0.61-0.01-1.21,0-1.82c0.02-0.98,0.4-1.4,1.33-1.4
			c1.69,0.01,3.38,0.05,5.07,0.12c0.57,0.02,0.88,0.41,0.92,0.97c0.03,0.44,0.01,0.87,0.01,1.31
			C53.87,52.84,53.86,52.84,53.85,52.84z"/>
		<path class="st0" d="M31.87,52.68c0,0.35-0.02,0.7,0,1.05c0.04,0.68-0.28,1.12-0.95,1.14c-1.23,0.03-2.45,0.01-3.68,0.02
			c-0.41,0-0.81,0.04-1.22,0.07c-1.02,0.07-1.43-0.31-1.45-1.33c-0.01-0.61-0.01-1.21,0-1.82c0.01-0.96,0.41-1.39,1.35-1.38
			c1.66,0.02,3.32,0.07,4.98,0.11c0.56,0.02,0.95,0.41,0.99,0.99c0.03,0.38,0.01,0.76,0.01,1.14
			C31.89,52.68,31.88,52.68,31.87,52.68z"/>
		<path class="st0" d="M121.79,54.97c-1.08,0-2.15,0.01-3.23,0c-1.29-0.02-1.47-0.21-1.48-1.48c0-0.64-0.01-1.29,0.02-1.93
			c0.03-0.68,0.48-1.13,1.09-1.12c1.57,0.01,3.13,0.02,4.7,0.05c1.21,0.02,1.36,0.15,1.45,1.36c0.05,0.72,0.03,1.46-0.03,2.18
			c-0.05,0.63-0.41,0.94-1.05,0.94c-0.49,0-0.99-0.06-1.49-0.09C121.79,54.92,121.79,54.95,121.79,54.97z"/>
		<path class="st0" d="M88.36,41.39c-0.22,0.31-0.4,0.61-0.63,0.85c-0.93,0.97-1.86,1.94-2.81,2.88c-0.33,0.32-0.69,0.67-1.11,0.82
			c-0.32,0.12-0.88,0.09-1.11-0.11c-0.64-0.55-1.16-1.23-1.72-1.86c-0.39-0.43-0.31-0.86,0.06-1.25c1.18-1.22,2.34-2.45,3.57-3.62
			c0.74-0.71,1.13-0.65,1.87,0.07c0.46,0.45,0.93,0.89,1.36,1.37C88.04,40.77,88.17,41.07,88.36,41.39z"/>
		<path class="st0" d="M106.54,22.81c-0.19-0.09-0.42-0.14-0.55-0.27c-0.58-0.61-1.15-1.24-1.71-1.88
			c-0.38-0.43-0.31-0.87,0.06-1.25c1.18-1.22,2.34-2.45,3.57-3.62c0.72-0.69,1.2-0.63,1.88,0.06c0.45,0.46,0.92,0.89,1.36,1.37
			c0.58,0.63,0.56,1.06-0.02,1.66c-0.98,1-1.95,2.01-2.94,3C107.73,22.33,107.25,22.76,106.54,22.81z"/>
		<path class="st0" d="M57.5,52.73c0-0.44-0.02-0.88,0.01-1.31c0.03-0.53,0.63-0.98,1.35-0.98c1.69,0.02,3.38,0.06,5.07,0.11
			c0.53,0.02,0.93,0.47,0.95,1.04c0.02,0.82,0.03,1.64,0,2.45c-0.02,0.57-0.46,0.81-0.95,0.83c-1.19,0.04-2.39,0.02-3.59,0.03
			c-0.38,0-0.76,0-1.13,0.04c-1.22,0.14-1.65-0.22-1.7-1.43c-0.01-0.26-0.05-0.52-0.07-0.79C57.46,52.73,57.48,52.73,57.5,52.73z"/>
		<path class="st0" d="M42.89,52.83c0,0.32-0.01,0.64,0,0.96c0.01,0.65-0.3,1.06-0.95,1.08c-1.22,0.04-2.45,0.01-3.67,0.02
			c-0.38,0-0.75,0.03-1.13,0.06c-1.11,0.11-1.57-0.28-1.59-1.37c-0.01-0.58-0.01-1.16,0-1.75c0.01-0.96,0.49-1.42,1.44-1.4
			c1.57,0.03,3.14,0.08,4.72,0.11c0.83,0.02,1.19,0.38,1.2,1.23c0,0.35,0,0.7,0,1.05C42.9,52.83,42.89,52.83,42.89,52.83z"/>
		<path class="st0" d="M46.29,23.32c0.38,0.24,0.8,0.41,1.1,0.7c1.04,0.99,2.06,1.99,3.03,3.04c0.85,0.91,0.78,1.42-0.13,2.29
			c-0.36,0.34-0.71,0.7-1.08,1.03c-0.65,0.58-1.15,0.61-1.76,0.02c-1.17-1.14-2.32-2.31-3.44-3.49c-0.6-0.63-0.59-0.91-0.04-1.59
			c0.44-0.54,0.92-1.06,1.42-1.54C45.62,23.56,45.96,23.49,46.29,23.32z"/>
		<path class="st0" d="M66.68,43.67c-0.19,0.35-0.31,0.7-0.53,0.95c-0.46,0.49-0.96,0.94-1.47,1.38c-0.57,0.5-1.08,0.52-1.63-0.02
			c-1.19-1.16-2.37-2.34-3.51-3.55c-0.58-0.62-0.58-0.85-0.05-1.51c0.45-0.57,0.96-1.1,1.48-1.61c0.39-0.38,0.87-0.48,1.36-0.16
			c0.32,0.21,0.63,0.42,0.9,0.68c0.88,0.85,1.76,1.71,2.6,2.61C66.15,42.78,66.38,43.23,66.68,43.67z"/>
		<path class="st0" d="M35.65,18.17c0.69-0.76,1.36-1.56,2.12-2.28c0.38-0.37,0.93-0.36,1.36,0.01c0.6,0.51,1.18,1.05,1.75,1.59
			c0.55,0.52,1.08,1.07,1.62,1.6c1,1,0.99,1.64-0.04,2.57c-0.35,0.31-0.67,0.65-1.02,0.97c-0.55,0.5-1.14,0.59-1.64,0.1
			c-1.26-1.22-2.48-2.48-3.69-3.74C35.94,18.8,35.85,18.53,35.65,18.17z"/>
		<path class="st0" d="M71.57,28.68c-0.04-0.67-0.07-1.34-0.12-2.01c-0.06-0.77,0.27-1.29,1-1.37c0.72-0.08,1.46-0.1,2.18-0.03
			c0.87,0.09,1.27,0.52,1.29,1.37c0.04,1.58,0.04,3.16,0.02,4.73c-0.01,0.63-0.44,1.15-1.07,1.2c-0.81,0.05-1.63,0-2.45-0.07
			c-0.58-0.05-0.87-0.46-0.88-1.02c-0.02-0.93,0-1.87,0-2.8C71.55,28.68,71.56,28.68,71.57,28.68z"/>
		<path class="st0" d="M54.02,31.12c0.33,0.18,0.72,0.3,0.98,0.55c1.14,1.09,2.27,2.19,3.34,3.35c0.68,0.74,0.6,1.26-0.11,1.96
			c-0.42,0.41-0.83,0.83-1.26,1.22c-0.6,0.53-1.13,0.56-1.7,0.01c-1.19-1.16-2.36-2.34-3.51-3.55c-0.58-0.61-0.57-0.86-0.04-1.52
			c0.46-0.57,0.96-1.1,1.49-1.61C53.39,31.33,53.71,31.26,54.02,31.12z"/>
		<path class="st0" d="M71.56,39.7c-0.04-0.67-0.07-1.34-0.12-2.01c-0.06-0.84,0.26-1.33,1.06-1.4c0.75-0.07,1.52-0.1,2.26,0
			c0.77,0.1,1.11,0.48,1.13,1.23c0.05,1.63,0.05,3.27,0.03,4.91c-0.01,0.63-0.48,1.1-1.12,1.13c-0.73,0.04-1.46,0.04-2.19-0.02
			c-0.75-0.06-1.05-0.38-1.07-1.12c-0.03-0.9-0.01-1.81-0.01-2.71C71.55,39.7,71.56,39.7,71.56,39.7z"/>
		<path class="st0" d="M71.55,17.73c-0.03-0.61-0.03-1.23-0.09-1.84c-0.11-1.14,0.18-1.52,1.3-1.57c0.67-0.03,1.34-0.12,1.99-0.03
			c0.79,0.11,1.13,0.53,1.16,1.31c0.04,1.6,0.04,3.21,0.02,4.82c-0.01,0.62-0.48,1.11-1.11,1.14c-0.76,0.04-1.52,0.04-2.28-0.03
			c-0.69-0.06-0.97-0.39-1-1.1c-0.03-0.9-0.01-1.81-0.01-2.71C71.54,17.73,71.55,17.73,71.55,17.73z"/>
		<path class="st0" d="M86.81,64.47c-2.06,0-3.96,0.01-5.86-0.01c-0.71-0.01-1.2-0.79-0.77-1.34c0.61-0.8,1.37-1.49,2.12-2.17
			c0.39-0.35,0.88-0.15,1.19,0.16C84.58,62.17,85.62,63.26,86.81,64.47z"/>
		<path class="st0" d="M113.47,65.97c0-0.09,0-0.18,0-0.27c0.02,0,0.04,0,0.06,0c0,0.09,0,0.18,0,0.27
			C113.52,65.97,113.49,65.97,113.47,65.97z"/>
		<path class="st0" d="M41.84,63.01c-0.01,0.02-0.02,0.03-0.04,0.05c0.01-0.01,0.02-0.02,0.03-0.03L41.84,63.01z"/>
		<path class="st0" d="M83.05,196.8c2.66-0.72,4.92-2.08,6.87-3.88c1.46-1.35,1.89-3.21,1.88-5.34c-0.42,0.27-0.71,0.45-0.99,0.64
			c-1.14,0.77-2.27,1.54-3.43,2.29c-0.17,0.11-0.44,0.14-0.64,0.09c-1.86-0.42-3.22-1.5-4.06-3.19c-0.72-1.44-0.93-2.99-0.83-4.6
			c0.07-1.07,0-2.16-0.01-3.24c-0.02-2.31-0.03-4.61-0.06-6.92c-0.01-0.52,0.2-0.83,0.68-1.09c2.64-1.45,5.25-2.95,7.88-4.41
			c0.19-0.1,0.5-0.1,0.71-0.03c0.47,0.16,0.9,0.42,1.37,0.59c2.22,0.81,3.42,2.51,3.88,4.72c0.24,1.13,0.2,2.32,0.21,3.48
			c0.04,2.49,0.05,4.97,0.05,7.46c-0.01,1.75,0.01,3.5-0.41,5.23c-0.52,2.12-1.76,3.73-3.35,5.13c-2.61,2.3-5.77,3.24-9.14,3.63
			C83.21,197.42,83.11,197.19,83.05,196.8z M91.79,179.98c0.03,0,0.07,0,0.1,0c-0.08-1.99-0.04-3.99-0.27-5.96
			c-0.32-2.81-1.57-3.34-3.89-4.13c-0.51-0.17-0.97,0.17-1.06,0.71c-0.05,0.29-0.06,0.58-0.06,0.87c0.01,3.6,0.04,7.19,0.05,10.79
			c0,1.18-0.01,2.33,0.53,3.43c0.92,1.88,2.31,2.33,4.11,1.32c0.38-0.21,0.52-0.45,0.51-0.89
			C91.77,184.07,91.79,182.03,91.79,179.98z"/>
		<path class="st0" d="M107.16,174.96c-0.11-0.93-0.21-1.82-0.32-2.8c1.16-0.62,2.42-1.24,3.61-1.96c1.45-0.87,2.87-1.8,4.25-2.79
			c0.48-0.34,0.8-0.43,1.32-0.17c0.63,0.31,1.3,0.53,1.95,0.79c0.84,0.33,1.66,0.55,2.47-0.14c0.14-0.12,0.46-0.04,0.7-0.05
			c0.01,0.06,0.03,0.13,0.04,0.19c-1.01,1.16-2.03,2.33-3.1,3.56c-1.19-0.5-2.36-0.99-3.61-1.51c0,1.65,0,3.27,0,4.96
			c1.38,0,2.69,0,4.14,0c-0.17,1.18-0.33,2.25-0.48,3.22c-1.21-0.08-2.38-0.15-3.68-0.23c0,1.26,0.01,2.36,0,3.47
			c-0.01,1.46,0.01,2.93-0.08,4.39c-0.11,1.95-1.24,3.38-2.62,4.61c-1.18,1.05-2.46,1.98-3.69,2.98c-0.5,0.41-0.93,0.54-1.55,0.13
			c-0.91-0.61-1.94-0.88-3.06-0.95c-1.73-0.1-2.68,1.89-1.79,3.03c0.08,0.11,0.12,0.25,0.19,0.42c-0.8,0.05-1.07-0.48-1.24-1.03
			c-0.53-1.67,0.16-3.61,1.61-4.59c1.02-0.69,2.17-0.82,3.37-0.65c0.93,0.13,1.22-0.04,1.33-0.99c0.12-0.95,0.12-1.92,0.13-2.88
			c0.03-1.84,0.03-3.68,0.04-5.52c0-0.67,0-1.34,0-2.04c-1.28-0.22-2.31,0.07-3.02,1.25C103.46,177.65,104.73,175.69,107.16,174.96z
			 M111.31,170.68c-1.33,0.44-1.34,0.46-1.32,1.63c0.03,1.96,0.05,3.92,0.06,5.88c0.01,1.93,0.02,3.86,0,5.78
			c-0.01,0.87-0.04,1.75-0.15,2.62c-0.05,0.42-0.19,0.88-0.44,1.21c-0.67,0.85-1.42,1.64-2.09,2.4c0.7,0.42,1.49,0.88,2.28,1.35
			c1.19-1.09,1.61-2.49,1.65-3.97c0.07-2.48,0.02-4.97,0.02-7.45C111.31,177,111.31,173.87,111.31,170.68z"/>
		<path class="st0" d="M62.19,179.9c0,1.73,0.01,3.45-0.02,5.18c0,0.2-0.2,0.46-0.38,0.59c-2.18,1.52-4.39,3.01-6.56,4.54
			c-0.45,0.32-0.81,0.39-1.24,0.06c-0.97-0.74-2.02-1.4-2.88-2.26c-1.13-1.13-1.38-2.74-1.51-4.23c-0.18-2.15-0.08-4.32-0.09-6.48
			c-0.01-1.43-0.01-2.86-0.02-4.3c0-0.15,0.01-0.29,0-0.44c-0.11-1.01,0.33-1.59,1.22-2.14c2.04-1.26,3.97-2.69,5.92-4.08
			c0.34-0.24,0.59-0.31,0.93-0.08c0.89,0.62,1.83,1.16,2.67,1.84c1.19,0.97,1.65,2.34,1.73,3.81c0.15,2.65,0.2,5.31,0.29,7.97
			C62.23,179.89,62.21,179.9,62.19,179.9z M58.05,180.76c-0.01,0-0.02,0-0.02,0c0-1.52,0.02-3.04-0.01-4.56
			c-0.02-0.99-0.05-1.99-0.18-2.97c-0.14-1.04-0.34-2.13-1.24-2.81c-0.6-0.45-1.3-0.78-1.99-1.1c-0.7-0.32-0.92-0.14-0.98,0.64
			c-0.01,0.15-0.02,0.29-0.02,0.44c0.04,4.15,0.04,8.3,0.13,12.44c0.04,1.85,1.03,3.84,3.29,4.48c0.94,0.27,1.01,0.27,1.02-0.7
			C58.06,184.68,58.05,182.72,58.05,180.76z"/>
		<path class="st0" d="M132.48,168.53c1.01-0.22,0.88-0.95,0.73-1.69c0.07-0.02,0.14-0.04,0.2-0.06c0.14,0.23,0.27,0.45,0.42,0.69
			c0.04,0,0.11,0.02,0.15,0c1.09-0.8,1.73-0.8,2.76,0.09c0.9,0.77,1.5,1.71,1.5,2.95c0.01,1.78,0.05,3.56,0.05,5.34
			c0,1.14-0.66,1.96-1.53,2.78c0.82,0.23,1.56,0.43,2.4,0.66c-0.57,0.74-1.09,1.43-1.62,2.12c-0.92-0.44-1.8-0.86-2.8-1.34
			c2.03-1.6,1.11-3.78,1.41-5.93c-0.82,0.42-1.47,0.73-2.09,1.1c-0.15,0.09-0.25,0.38-0.26,0.58c-0.02,0.73,0.01,1.46,0.01,2.19
			c0,1.26-0.04,2.52-0.01,3.78c0.01,0.35,0.21,0.69,0.38,1.21c-0.38,0.42-0.92,1.02-1.5,1.65c-0.65-0.39-1.3-0.72-1.88-1.15
			c-0.2-0.15-0.31-0.53-0.31-0.81c-0.02-2.63-0.01-5.27-0.02-7.9c0-0.14-0.02-0.29-0.04-0.55c-0.68,0.32-1.35,0.55-1.93,0.92
			c-0.21,0.14-0.31,0.6-0.31,0.91c-0.01,2.63,0.01,5.27,0.02,7.9c0,0.46,0,0.93,0,1.32c0.66,0.71,1.02-0.5,1.74-0.15
			c-0.64,0.86-1.24,1.67-1.88,2.52c-0.62-0.16-1.22-0.37-1.84-0.48c-1.27-0.22-2.55-0.41-3.76,0.32c-0.13,0.08-0.34,0.04-0.53,0.05
			c0.03-0.17,0.01-0.25,0.04-0.27c1.56-1.12,2.09-2.75,2.26-4.56c0.2-2.21,0.42-4.42,0.62-6.63c0.03-0.37,0-0.75,0-1.36
			c-0.81,0.3-1.43,0.53-2.02,0.76c-0.13-1.36,0.43-2.2,2.02-2.74c0-0.8,0.01-1.64-0.01-2.48c0-0.15-0.12-0.33-0.24-0.43
			c-0.36-0.29-0.74-0.58-1.14-0.82c-0.41-0.24-0.85-0.4-1.3-0.02c-0.07,0.06-0.24,0.03-0.36,0.04c-0.03-0.06-0.07-0.11-0.1-0.17
			c0.75-0.69,1.5-1.39,2.32-2.15c0.98,0.74,1.93,1.45,2.87,2.15c0.44-0.23,0.44-0.23,1.08-2.05c0.09,0.36,0.18,0.72,0.29,1.17
			c0.54-0.42,1.06-0.82,1.59-1.24C130.78,167.36,131.64,167.96,132.48,168.53z M127.79,185.22c0-5.4,0-10.8,0-16.23
			c-0.57,0.1-0.76,0.42-0.75,0.93c0.03,1.61,0.05,3.22,0.06,4.83c0.02,2.76-0.25,5.49-1.08,8.14c-0.23,0.75-0.6,1.46-0.89,2.16
			C125.98,185.1,126.85,185.15,127.79,185.22z M133.32,182.27c0-4.53,0-9.05,0-13.6c-0.6,0.12-0.66,0.48-0.65,0.89
			c0.03,0.91,0.06,1.81,0.06,2.72c0,3.13,0,6.26-0.03,9.39C132.7,182.14,132.9,182.29,133.32,182.27z M133.85,168.46
			c0,1.5,0,2.99,0,4.58c0.74-0.36,1.4-0.65,2.03-0.99c0.13-0.07,0.23-0.33,0.24-0.51C136.18,170.24,135.46,168.75,133.85,168.46z
			 M128.25,168.39c0,1.56,0,3.03,0,4.59c0.48-0.22,0.88-0.48,1.31-0.59c0.82-0.2,1.04-0.72,0.95-1.47c-0.03-0.23,0.03-0.47-0.02-0.7
			c-0.03-0.18-0.11-0.41-0.24-0.51C129.62,169.27,128.96,168.85,128.25,168.39z M136.07,173.79c0-0.47,0-0.89,0-1.39
			c-0.5,0.25-0.91,0.46-1.33,0.66c-1.05,0.49-1.05,0.49-0.86,1.77C134.61,174.49,135.31,174.15,136.07,173.79z M130.46,172.42
			c-0.81,0.37-1.51,0.7-2.27,1.05c0.02,0.42,0.05,0.83,0.08,1.35c0.8-0.38,1.47-0.7,2.19-1.04
			C130.46,173.38,130.46,172.95,130.46,172.42z"/>
		<path class="st0" d="M66.98,172.11c-1.06,1.18-2.13,2.35-3.3,3.65c-0.13-0.64-0.26-1.14-0.31-1.65c-0.02-0.16,0.11-0.39,0.25-0.51
			c2.49-2.3,4.99-4.59,7.49-6.88c0.21-0.19,0.48-0.33,0.72-0.49c0.44,0.28,0.53,0.56,0.26,1.03c-0.25,0.44-0.47,0.97-0.48,1.47
			c-0.04,2.13,0.02,4.27,0.02,6.41c0,1.4-0.03,2.81-0.04,4.21c-0.02,3.68-0.05,7.36-0.05,11.04c0,0.52-0.1,0.9-0.59,1.15
			c-1.51,0.77-2.71,1.92-3.92,3.08c-0.23,0.22-0.45,0.52-0.86,0.13c0.67-1,0.99-2.14,1.04-3.34c0.07-1.69,0.03-3.39,0.04-5.08
			c0.02-3.01,0.05-6.02,0.06-9.04c0.01-1.69,0-3.39,0-5.08C67.21,172.18,67.1,172.15,66.98,172.11z"/>
		<path class="st0" d="M42.38,184.88c0.93-0.92,0.9-2.07,0.9-3.21c0.01-3.16,0.04-6.32,0.05-9.48c0-0.84,0-1.68,0-2.52
			c-0.07-0.04-0.14-0.09-0.21-0.13c-0.85,0.76-1.71,1.53-2.56,2.29c-0.49-0.94-0.49-1.14,0.31-1.77c1.77-1.4,3.56-2.76,5.35-4.13
			c0.16-0.12,0.33-0.25,0.52-0.32c0.11-0.04,0.3,0,0.37,0.08c0.08,0.08,0.12,0.29,0.07,0.37c-0.78,1.08-0.46,2.34-0.49,3.5
			c-0.06,2.89,0.03,5.79,0.05,8.69c0.01,1.26,0,2.52-0.04,3.78c-0.01,0.22-0.16,0.5-0.34,0.62c-1.14,0.82-2.3,1.6-3.46,2.38
			c-0.09,0.06-0.25,0.02-0.38,0.02C42.49,185,42.43,184.94,42.38,184.88z"/>
		<path class="st0" d="M79.57,183.68c-0.86,0.8-1.66,1.55-2.55,2.39c-0.73-0.83-1.44-1.63-2.14-2.41c0.65-0.68,1.39-1.45,2.18-2.28
			C77.9,182.15,78.7,182.89,79.57,183.68z"/>
		<path class="st0" d="M83.38,142.14c0.28-1.49,0.56-2.97,0.84-4.46c0.05-0.26,0.14-0.52,0.14-0.78c0.02-1.82,0.75-3.46,1.29-5.15
			c0.29-0.9,1.05-1.22,2.05-1.01c0.62,0.13,0.98,0.63,0.92,1.56c-0.06,1.02-0.2,2.04-0.37,3.04c-0.39,2.26-0.81,4.52-1.25,6.77
			c-0.09,0.45-0.28,0.89-0.48,1.32c-0.44,0.95-1.45,1.32-2.41,0.86c-0.2-0.09-0.39-0.35-0.44-0.57c-0.12-0.51-0.15-1.04-0.21-1.56
			C83.44,142.16,83.41,142.15,83.38,142.14z"/>
		<path class="st0" d="M26.78,139.52c-0.12,0.43-0.28,0.85-0.36,1.29c-0.14,0.77-0.16,1.57-0.37,2.31
			c-0.48,1.73-1.29,2.23-3.37,2.01c0.19-4.6,0.38-9.22,0.57-13.95c0.84,0.05,1.51,0.05,2.16,0.15c0.51,0.08,0.82,0.4,0.99,0.97
			c0.36,1.2,0.26,2.41,0.22,3.62c-0.03,1.02-0.06,2.05-0.07,3.07c0,0.19,0.13,0.38,0.19,0.56L26.78,139.52z"/>
		<path class="st0" d="M26.75,139.55c0.07-0.05,0.13-0.09,0.39-0.27c-0.15,0.29-0.21,0.41-0.27,0.53c-0.03-0.1-0.06-0.19-0.09-0.29
			L26.75,139.55z"/>
		<path class="st0" d="M103.39,131.48c1.74,0.04,2.51,0.78,2.48,2.35c-0.01,0.8-0.01,1.62-0.45,2.35c-0.69,1.13-1.16,1.46-3.11,1.16
			C102.66,135.4,103.02,133.46,103.39,131.48z"/>
		<path class="st0" d="M100.83,128.05c-0.02,0.01-0.04,0.02-0.06,0.02c-0.02,0-0.03-0.02-0.05-0.04
			C100.75,128.04,100.79,128.05,100.83,128.05z"/>
		<path class="st0" d="M109.14,137.14c0.02-0.01,0.03-0.02,0.05-0.03c-0.01,0.02-0.02,0.04-0.02,0.05L109.14,137.14z"/>
		<path class="st0" d="M120.54,144.21c-0.59,0.12-1.18,0.24-1.69,0.34c-0.51-0.56-0.56-1.02-0.43-1.68
			c0.32-1.71,0.42-3.46,0.67-5.19c0.19-1.35,0.47-2.69,0.71-4.04c0.11-0.6,0.22-1.21,0.29-1.82c0.05-0.44,0.28-0.62,0.69-0.61
			c0.26,0.01,0.53,0.02,0.79,0.06c1.2,0.19,1.43,0.4,1.37,1.59c-0.09,1.62-0.26,3.24-0.42,4.85c-0.13,1.27-0.32,2.54-0.43,3.82
			c-0.1,1.16-0.69,1.99-1.56,2.68C120.52,144.22,120.54,144.21,120.54,144.21z"/>
		<path class="st0" d="M120.52,144.22c0.19,0,0.39,0,0.58,0c-0.01,0.07-0.03,0.14-0.04,0.21c-0.18-0.07-0.35-0.15-0.53-0.22
			L120.52,144.22z"/>
		<path class="st0" d="M118.25,128.02c0.02,0,0.05,0,0.06,0.01c0.01,0.01,0.01,0.04,0.01,0.06c-0.03-0.01-0.06-0.01-0.09-0.02
			C118.23,128.06,118.24,128.04,118.25,128.02z"/>
		<path class="st0" d="M54.84,127.11c0.04,0.02,0.09,0.04,0.13,0.06c-0.02,0.03-0.05,0.09-0.07,0.09c-0.05,0-0.09-0.03-0.14-0.05
			C54.78,127.17,54.81,127.14,54.84,127.11z"/>
		<path class="st0" d="M73.28,131.5c0.01-0.02,0.02-0.04,0.02-0.06c-0.02,0.02-0.03,0.04-0.05,0.06L73.28,131.5z"/>
		<path class="st0" d="M152.8,136.12c-0.66,0.07-1.32,0.15-2.05,0.23c0.19-2.2,0.37-4.28,0.55-6.36c1.51-0.71,3.05,0.47,2.9,2.16
			c-0.13,1.46-0.25,2.89-1.43,3.95L152.8,136.12z"/>
		<path class="st0" d="M147.06,130.25c0,0.01,0.01,0.02,0.01,0.02c-0.01-0.01-0.02-0.03-0.03-0.04L147.06,130.25z"/>
		<path class="st0" d="M152.78,136.11c0.02,0,0.05,0,0.07,0c-0.01,0.01-0.03,0.01-0.04,0.02
			C152.8,136.12,152.78,136.11,152.78,136.11z"/>
		<path class="st0" d="M153.68,135.62c0,0.03,0,0.07,0,0.1c0.01-0.03,0.01-0.05,0.02-0.08L153.68,135.62z"/>
		<path class="st0" d="M153.7,135.65c-0.02,0.01-0.05,0.01-0.07,0.02c0.02,0.01,0.04,0.01,0.05,0.02c0-0.02,0-0.04-0.01-0.06
			L153.7,135.65z"/>
		<path class="st0" d="M80.69,152.5c1.14,0.61,0.69,1.76,0.89,2.69c-0.79,0.23-0.94,0.18-1.02-0.45c-0.09-0.71-0.09-1.43-0.14-2.15
			C80.51,152.56,80.6,152.53,80.69,152.5z"/>
		<path class="st0" d="M122.6,151.57c-0.01-0.01-0.03-0.02-0.04-0.02c0.02,0,0.04,0,0.06,0L122.6,151.57z"/>
		<path class="st0" d="M91.21,154.45c0.37-0.41,0.58-0.85,0.86-0.91c0.41-0.08,0.65,0.3,0.59,0.76c-0.05,0.4-0.04,0.93-0.59,0.89
			C91.82,155.18,91.58,154.79,91.21,154.45z"/>
		<path class="st0" d="M70.26,153.93c0.12,0.4,0.32,0.79,0.34,1.2c0.01,0.2-0.25,0.54-0.45,0.6c-0.38,0.12-0.52-0.21-0.6-0.55
			c-0.18-0.77-0.05-1.01,0.74-1.23L70.26,153.93z"/>
		<path class="st0" d="M133.58,152.95c0.8,0.35,0.9,0.84,0.74,1.34c-0.08,0.26-0.43,0.42-0.66,0.63c-0.08-0.05-0.15-0.1-0.23-0.15
			C133.48,154.19,133.53,153.61,133.58,152.95z"/>
		<polygon class="st0" points="75.17,131.57 75.19,131.64 75.14,131.63 		"/>
		<path class="st0" d="M75,132.89c-0.02-0.04-0.05-0.08-0.06-0.13c0-0.01,0.03-0.04,0.05-0.05c0.02,0.04,0.05,0.08,0.06,0.13
			C75.05,132.85,75.02,132.88,75,132.89z"/>
	</g>
</g>
</svg>
