<!-- Generator: Adobe Illustrator 16.0.0, SVG Export Plug-In . SVG Version: 
6.00 Build 0)  --><!DOCTYPE svg PUBLIC "-//W3C//DTD SVG 1.1//EN" "http://www.w3.org/Graphics/SVG/1.1/DTD/svg11.dtd"><svg 
xmlns="http://www.w3.org/2000/svg" id="Layer_1" enable-background="new 0 0 600 600" 
viewBox="0 0 600 600" x="0px" y="0px" width="600px" height="600px" xmlns:xml="http://www.w3.org/XML/1998/namespace" 
xml:space="preserve" version="1.1"> <g><polygon fill="#4e276a" points="551.726,296.819 536.083,270.715 432.902,280.687 463.163,139.907 59.393,80.782 14.886,120.026 30.686,308.551 155.83,302.727 135.294,320.105 87.894,450.023 94.67,457.888 561.654,518.155" 
/>	 <polygon fill="#9d3594" points="439.948,277.524 466.789,136.285 59.393,80.782 59.185,280.446 415.275,279.268 126.27,304.139 87.894,450.023 534.894,485.594 536.083,270.715" 
/>	 <g><polygon fill="#ffffff" points="214.192,131.05 180.513,126.336 135.198,183.259 147.685,121.619 118.828,117.389 90.282,263.74 119.2,264.013 134.367,187.387 153.392,264.207 188.731,264.297 166.312,186.035" 
/>		 <polygon fill="#ffffff" points="246.815,135.854 219.532,132.145 214.292,156.206 241.595,159.214" 
/>		 <polygon fill="#ffffff" points="211.286,171.437 191.594,264.293 218.383,264.25 238.033,173.959" 
/>		 <path fill="#ffffff" d="M 303.874 192.706 l -17.841 -7.252 c -3.82 -1.672 -9.573 -4.389 -7.507 -13.337 c 1.668 -7.232 8.222 -12.198 16.466 -11.305 c 13.65 1.463 10.487 14.151 9.632 17.746 l 28.881 2.479 c 2.839 -12.163 7.054 -36.267 -33.025 -41.49 c -30.717 -4.124 -47.46 12.926 -52.027 33.23 c -5.896 26.488 11.127 33.558 17.736 36.199 l 23.414 9.035 c 6.329 2.456 7.426 6.37 6.111 12.052 c -3.195 13.768 -16.026 13.598 -18.447 13.57 c -16.938 -0.25 -13.998 -14.697 -12.993 -19.735 l -28.614 -1.095 c -1.069 5.543 -3.708 18.292 1.578 28.809 c 6.502 13.262 23.282 15.247 33.963 15.121 c 25.796 -0.336 48.268 -12.456 54.511 -38.643 C 331.639 203.523 316.574 197.719 303.874 192.706 Z" 
/>		 <path fill="#ffffff" d="M 427.715 188.49 c 2.799 -10.771 6.979 -32.123 -33.127 -36.947 c -30.707 -3.8 -47.438 11.412 -51.965 29.624 c -5.836 23.776 11.218 30.047 17.817 32.388 l 23.436 7.959 c 6.33 2.159 7.438 5.634 6.129 10.711 c -3.159 12.297 -15.994 12.253 -18.41 12.246 c -16.959 -0.079 -14.033 -13.041 -13.044 -17.548 l -28.64 -0.823 c -1.056 4.99 -3.669 16.465 1.633 25.883 c 6.532 11.827 23.325 13.428 34.005 13.207 c 25.812 -0.585 48.256 -11.629 54.447 -34.922 c 5.888 -21.831 -9.188 -26.927 -21.897 -31.352 l -17.856 -6.437 c -3.819 -1.483 -9.593 -3.907 -7.528 -11.91 c 1.652 -6.469 8.181 -10.89 16.437 -10.075 c 13.662 1.312 10.515 12.613 9.668 15.82 L 427.715 188.49 Z" 
/>	 </g>	 <g><path fill="#ffffff" d="M 171.8 376.747 l 0.145 -0.629 c 1.862 -0.471 5.933 -1.281 11.075 -5.868 c 3.798 -3.329 7.882 -8.694 10.636 -20.921 c 2.683 -11.886 1.55 -17.773 0.36 -20.952 c -2.275 -6.271 -6.251 -7.169 -17.338 -6.449 l -27.289 1.771 l -28.052 108.385 l 16.86 1.008 l 11.176 -45.005 l 7.129 0.06 c 7.77 0.063 6.823 5.132 4.289 19.102 c -1.863 10.451 -3.575 19.545 -4.251 26.951 l 19.782 1.187 c 0.377 -8.786 2.414 -21.926 3.604 -30.067 C 182.565 387.225 184.092 377.32 171.8 376.747 Z M 167.949 367.048 c -1.685 0.94 -3.566 0.969 -7.317 1.023 l -6.317 0.087 l 6.532 -26.321 l 6.255 -0.27 c 4.895 -0.217 11.563 -0.51 8.402 12.871 C 174.675 357.938 172.261 364.845 167.949 367.048 Z M 229.816 318.479 l -51.911 116.993 L 197 436.619 l 10.055 -24.923 l 29.046 0.961 l 0.32 26.326 l 24.541 1.471 l -7.552 -123.496 L 229.816 318.479 Z M 235.801 389.475 l -19.507 -0.17 l 19.734 -49.493 l 0.291 -0.012 L 235.801 389.475 Z M 348.792 320.986 c -7.778 -8.196 -20.807 -8.864 -30.573 -8.228 l -33.228 2.154 l -21.35 125.703 l 35.594 2.132 c 6.038 0.359 16.845 1.008 26.841 -4.041 c 20.09 -10.471 29.453 -33.613 33.004 -64.32 C 361.39 354.505 360.274 333.134 348.792 320.986 Z M 333.355 374.177 c -4.168 31.482 -16.077 42.099 -32.06 41.751 l -10.055 -0.34 l 12.309 -79.307 l 8.853 -0.214 C 319.365 335.775 338.543 334.952 333.355 374.177 Z M 371.48 333.185 l 24.831 -1.079 l 2.289 -24.207 l -24.495 1.578 L 371.48 333.185 Z M 359.207 446.35 l 25.879 1.551 l 9.486 -100.204 l -24.527 0.724 L 359.207 446.35 Z M 459.983 299.86 c -7.611 0.514 -27.081 3.29 -40.865 20.901 c -13.795 17.631 -17.311 45.021 -18.137 54.36 c -4.701 52.889 18.248 78.583 49.054 80.532 c 27.936 1.771 62.965 -17.841 64.013 -81.315 C 514.672 335.613 502.043 297.005 459.983 299.86 Z M 480.545 373.88 c -0.803 21.198 -5.785 49.932 -28.418 49.13 c -20.304 -0.72 -23.7 -24.82 -22.056 -48.24 c 1.724 -24.491 8.351 -46.559 27.409 -47.413 c 6.493 -0.288 13.404 1.736 17.438 9.427 C 478.019 343.042 481.332 353.038 480.545 373.88 Z" 
/>	 </g>	 <g><polygon fill="#4e276a" points="566.629,509.097 569.835,509.097 569.835,517.871 571.239,517.871 571.239,509.097 574.458,509.097 574.458,507.859 566.629,507.859" 
/>		 <polygon fill="#4e276a" points="584.232,507.859 581.282,515.55 581.234,515.55 578.262,507.859 576.062,507.859 576.062,517.871 577.423,517.871 577.423,509.504 577.463,509.504 580.748,517.871 581.666,517.871 584.972,509.504 585.011,509.504 585.011,517.871 586.406,517.871 586.406,507.859" 
/>	 </g> </g> </svg>
