<svg id="Layer_1" data-name="Layer 1" xmlns="http://www.w3.org/2000/svg" viewBox="0 0 107.985 65.195"><path fill="#ed1c24" d="M11.235 27.399h5.269l5.952 8.431-7.084 8.389H9.959l7.561-8.358-6.285-8.462zM43.762 5.677L46.466.006H17.305L14.6 5.677h29.162zM25.097 8.482h7.996l-6.759 14.099h-7.997l6.76-14.099zM38.613 22.581l2.733-5.781h20.5l1.7-3.277H51.208c-1.684 0-5.443.123-6.352-1.736-.6-1.231.581-3.306.581-3.306h22.94a4.135 4.135 0 0 1 3.379 1.176c.649.818.6 1.99-.372 3.864-.559 1.075-2.024 4.372-2.369 5.062a5.8 5.8 0 0 1-2.906 2.76 12.1 12.1 0 0 1-5.754 1.237H38.613zM46.741 5.677a9.126 9.126 0 0 1 3.732-4.43C52.95-.048 57.956.006 58.4.006h19.051l-2.684 5.671H46.741zM78.681 5.677L81.239.006h17.988s7.281-.412 8.6 5.671a7.93 7.93 0 0 1-.752 5.141c-.043.085-5.585 11.764-5.585 11.764h-8.035l6.213-12.849a3.321 3.321 0 0 0 .309-2.848c-.645-1.315-2.551-1.222-2.708-1.209s-18.588 0-18.588 0z"/><path fill="#ed1c24" d="M77.381 8.482h8.004l-6.751 14.099h-8.001l6.748-14.099z"/><path d="M11.308 48.349l-.308.013a7.072 7.072 0 0 0-5.074 3.508l-.187.43L0 65.2h83.308l.309-.013a7.071 7.071 0 0 0 5.073-3.512l.187-.433 5.74-12.89H11.308zM50.887 27.4c2.5 0 3.8.228 4.635.808 1.322.908 1.239 2.925-.261 6.883-1.758 4.643-3.194 7.036-4.777 8.02a9.635 9.635 0 0 1-5.037 1.11h-6.834c-2.7 0-4.278-.556-4.873-1.717-.5-.933-.086-3.1 1.3-6.757a19.272 19.272 0 0 1 3.342-6.23 6.529 6.529 0 0 1 3.391-1.891 20.028 20.028 0 0 1 3.691-.228h5.423zm-5.093 12.71c1.664 0 2.48-.352 3.18-1.337a38.709 38.709 0 0 0 1.542-3.606 7.6 7.6 0 0 0 .733-2.8c-.064-.63-.9-.958-2.588-.958h-3.909c-2.319 0-3.359.68-4.151 2.774l-.349.982-.429 1.135-.354.934a4.766 4.766 0 0 0-.409 1.942c.077.529.934.933 1.968.933h4.765zM94.607 27.4c2.5 0 3.8.228 4.637.808 1.321.908 1.238 2.925-.262 6.883-1.759 4.643-3.2 7.036-4.778 8.02a9.629 9.629 0 0 1-5.036 1.11h-6.834c-2.7 0-4.279-.556-4.873-1.717-.5-.933-.087-3.1 1.3-6.757a19.251 19.251 0 0 1 3.343-6.23 6.53 6.53 0 0 1 3.39-1.891 20.046 20.046 0 0 1 3.692-.228h5.422zm-5.092 12.71c1.664 0 2.478-.352 3.18-1.337a38.709 38.709 0 0 0 1.542-3.606 7.591 7.591 0 0 0 .732-2.8c-.064-.63-.9-.958-2.588-.958h-3.907c-2.32 0-3.361.68-4.154 2.774l-.348.982-.43 1.135-.353.934a4.791 4.791 0 0 0-.408 1.942c.077.529.933.933 1.968.933h4.766zM28.162 27.397v.002l-1.443 3.807h2.118l-4.929 13.013h5.043l6.372-16.822h-7.161zM77.671 27.4h-5.8l-14.297 7.111-2.34 6.176h12.785l-1.336 3.532H71.3l1.337-3.532h2.446l1.394-3.681h-2.445zm-8.258 9.608H60.92l10.515-5.335z" fill="#231f20"/><path d="M13.337 53.9l2.271 4.269 2.128-4.269h1.754l-2.846 5.731h-1.071a1.3 1.3 0 0 1-1.444-.834L11.4 53.9h1.941zM24.334 54.944a2.718 2.718 0 0 0-.637-.852 1.418 1.418 0 0 0-.897-.192h-1.4l-3.146 5.731h1.885l.608-1.106h3.66l.515 1.106H26.8zm-2.92 2.379l1.2-2.184 1.151 2.184h-2.351zM27.586 53.9h1.736c1.048 0 1.163.044 1.573.576l2.766 3.584V53.9h1.7v5.731h-2.087a.921.921 0 0 1-.763-.241 23.511 23.511 0 0 1-.454-.627l-2.735-3.5v4.366h-1.736V53.9zM38.94 55.269a.8.8 0 0 0-.774.317 1.369 1.369 0 0 0-.077.68v.852a.949.949 0 0 0 .318.885.825.825 0 0 0 .473.17h4.459a1.5 1.5 0 0 1-.318.957 2.789 2.789 0 0 1-1.9.506h-2.214a5.114 5.114 0 0 1-1.452-.214 1.463 1.463 0 0 1-.93-.872 2.824 2.824 0 0 1-.19-1.147v-1.47a1.925 1.925 0 0 1 .681-1.676 3.594 3.594 0 0 1 2.148-.388h1.476a3.491 3.491 0 0 1 2.164.415 1.673 1.673 0 0 1 .422.985H38.94zM49.418 53.9a2.558 2.558 0 0 1 1.418.249 1.822 1.822 0 0 1 .843 1.692v1.719a2.234 2.234 0 0 1-.43 1.57c-.361.4-.739.5-1.9.5h-2.662a4.484 4.484 0 0 1-1.548-.13 1.918 1.918 0 0 1-1.04-1.977v-1.481a2.2 2.2 0 0 1 .466-1.588 2.009 2.009 0 0 1 1.769-.551h3.084zm-.386 4.348c.756 0 .944-.187.944-.945V56.2c0-.7-.23-.9-1.014-.9h-2.146a.956.956 0 0 0-.672.172.833.833 0 0 0-.274.757v1.091a1.208 1.208 0 0 0 .274.775 1.35 1.35 0 0 0 .818.152h2.07zM54.374 53.9v3.084a1.205 1.205 0 0 0 .153.919.813.813 0 0 0 .806.3h1.677a1.448 1.448 0 0 0 .859-.255 1.105 1.105 0 0 0 .1-.835V53.9h1.669v3.453c0 1.033-.12 1.428-.559 1.772a3.252 3.252 0 0 1-1.959.506h-1.883a2.607 2.607 0 0 1-2.222-.748 3.218 3.218 0 0 1-.4-1.751V53.9h1.754zM62.281 53.9l2.272 4.269 2.13-4.269h1.752l-2.843 5.731h-1.077a1.3 1.3 0 0 1-1.441-.834L60.34 53.9h1.941zM82.126 57.289a1.136 1.136 0 0 0 .728-.289 1.8 1.8 0 0 0 .372-1.272c0-1.367-.519-1.83-2.062-1.83h-5.078v5.731h1.832v-1.566H80.5c.654 0 .9.162.9.589v.982h1.761v-1.2a1.048 1.048 0 0 0-.242-.7 2.106 2.106 0 0 0-.793-.445zm-.842-.689a.817.817 0 0 1-.569.077h-2.8v-1.408h2.877a.567.567 0 0 1 .7.68.7.7 0 0 1-.208.651zM70.66 57.226l4.079-.023V56.1H70.66v-.925h4.356V53.9h-4.707c-1.109 0-1.366.318-1.366 1.656V57.8a2.316 2.316 0 0 0 .206 1.331 1.331 1.331 0 0 0 1.254.5h4.75v-1.27H70.66v-1.135z" fill="#fff"/></svg>