<?xml version="1.0" encoding="UTF-8" standalone="no"?>
<svg
   xmlns:dc="http://purl.org/dc/elements/1.1/"
   xmlns:cc="http://creativecommons.org/ns#"
   xmlns:rdf="http://www.w3.org/1999/02/22-rdf-syntax-ns#"
   xmlns:svg="http://www.w3.org/2000/svg"
   xmlns="http://www.w3.org/2000/svg"
   viewBox="0 0 151.18668 113.38667"
   height="113.38667"
   width="151.18668"
   xml:space="preserve"
   id="svg2"
   version="1.1"><metadata
     id="metadata8"><rdf:RDF><cc:Work
         rdf:about=""><dc:format>image/svg+xml</dc:format><dc:type
           rdf:resource="http://purl.org/dc/dcmitype/StillImage" /></cc:Work></rdf:RDF></metadata><defs
     id="defs6"><clipPath
       id="clipPath20"
       clipPathUnits="userSpaceOnUse"><path
         id="path18"
         d="M 0,0 H 1133.86 V 850 H 0 Z" /></clipPath></defs><g
     transform="matrix(1.3333333,0,0,-1.3333333,0,113.38667)"
     id="g10"><g
       transform="scale(0.1)"
       id="g12"><g
         id="g14"><g
           clip-path="url(#clipPath20)"
           id="g16"><path
             id="path22"
             style="fill:#4dbd38;fill-opacity:1;fill-rule:nonzero;stroke:none"
             d="m 1066.46,308.418 v -86.156 h -99.382 v 86.156 H 747.422 v 95.406 L 936.156,829.062 H 1043.73 L 864.492,403.824 h 102.586 v 127.668 h 99.382 V 403.824 h 53.55 v -95.406 h -53.55" /><path
             id="path24"
             style="fill:#4dbd38;fill-opacity:1;fill-rule:nonzero;stroke:none"
             d="M 574.344,21.5312 C 396.891,18.4414 181.852,50.8164 42.8477,110.812 v 54.051 C 188.938,102.883 387.637,70.0547 565.066,73.125 c 191.45,3.3086 390.766,35.512 528.754,89.687 V 110.379 C 939.445,55.4766 764.621,24.7812 574.344,21.5312" /><path
             id="path26"
             style="fill:#4dbd38;fill-opacity:1;fill-rule:nonzero;stroke:none"
             d="m 135.25,828.137 -0.043,-200.11 c 0,0 62.852,13.098 118.109,12.535 91.829,-0.917 137.832,-50.289 141.079,-114.746 0.835,-16.386 0.66,-25.418 0.66,-43.031 V 222.262 H 298.191 V 488.34 c 0,32.555 2.079,73.012 -71.089,72.66 -52.122,-0.242 -88.891,-10.258 -88.891,-10.258 V 222.262 H 43.6875 v 599.836 l 91.5625,6.039" /><path
             id="path28"
             style="fill:#4dbd38;fill-opacity:1;fill-rule:nonzero;stroke:none"
             d="M 723.172,640.438 C 722,640.668 636.688,639.09 586.312,627.52 527.52,614.094 489.844,578.578 484.586,524.328 c -1.012,-10.437 -1.5,-17.062 -1.5,-40.89 V 222.262 h 96.777 v 267.05 c 0,23.43 1.809,38.305 17.137,52.055 17.336,15.547 56.934,17.797 79.574,19.656 15.524,1.258 46.598,2.094 46.598,2.094 v 77.321" /></g></g></g></g></svg>