<?xml version="1.0" encoding="UTF-8" standalone="no"?>
<svg
   xmlns:dc="http://purl.org/dc/elements/1.1/"
   xmlns:cc="http://creativecommons.org/ns#"
   xmlns:rdf="http://www.w3.org/1999/02/22-rdf-syntax-ns#"
   xmlns:svg="http://www.w3.org/2000/svg"
   xmlns="http://www.w3.org/2000/svg"
   xmlns:xlink="http://www.w3.org/1999/xlink"
   xmlns:sodipodi="http://sodipodi.sourceforge.net/DTD/sodipodi-0.dtd"
   xmlns:inkscape="http://www.inkscape.org/namespaces/inkscape"
   width="694"
   height="192"
   id="svg2"
   version="1.1"
   inkscape:version="0.47 r22583">
  <g
     inkscape:label="Layer 1"
     inkscape:groupmode="layer"
     id="layer1"
     transform="translate(-164.46232,-256.92136)">
    <path
       style="fill:#231f20;fill-rule:nonzero;stroke:none"
       d="m 368.54509,383.74984 c 0,-32.35213 26.22664,-58.57889 58.57883,-58.57889 32.35218,0 58.57882,26.22676 58.57882,58.57889 0,32.35214 -26.22664,58.5789 -58.57882,58.5789 -32.35219,0 -58.57883,-26.22676 -58.57883,-58.5789"
       id="path33502" />
    <path
       style="fill:#231f20;fill-rule:nonzero;stroke:none"
       d="m 492.79828,383.74984 c 0,-32.35213 26.22665,-58.57889 58.57884,-58.57889 32.35218,0 58.57882,26.22676 58.57882,58.57889 0,32.35214 -26.22664,58.5789 -58.57882,58.5789 -32.35219,0 -58.57884,-26.22676 -58.57884,-58.5789"
       id="path33506" />
    <path
       style="fill:#ffffff;fill-rule:nonzero;stroke:none"
       d="m 559.11946,357.63105 c 0,-7.61653 -2.13766,-8.9638 -9.50267,-8.9638 l -8.8021,0 c -4.2753,0 -8.82005,0.9341 -8.82005,6.41298 0,5.62259 5.08366,6.43094 8.82005,6.43094 l 5.4609,0 0,46.41759 -10.16732,0 c -4.27531,0 -8.82006,0.9341 -8.82006,6.43094 0,5.60462 5.08366,6.41298 8.82006,6.41298 l 32.6396,0 c 3.75436,0 8.83803,-0.80836 8.83803,-6.41298 0,-5.49684 -4.54476,-6.43094 -8.83803,-6.43094 l -9.62841,0 0,-50.29771"
       id="path33510" />
    <path
       style="fill:#231f20;fill-rule:nonzero;stroke:none"
       d="m 617.05148,383.74984 c 0,-32.35213 26.22665,-58.57889 58.57884,-58.57889 32.35217,0 58.57882,26.22676 58.57882,58.57889 0,32.35214 -26.22665,58.5789 -58.57882,58.5789 -32.35219,0 -58.57884,-26.22676 -58.57884,-58.5789"
       id="path33514" />
    <path
       style="fill:#231f20;fill-rule:nonzero;stroke:none"
       d="m 741.30468,383.74984 c 0,-32.35213 26.22665,-58.57889 58.57884,-58.57889 32.35217,0 58.57882,26.22676 58.57882,58.57889 0,32.35214 -26.22665,58.5789 -58.57882,58.5789 -32.35219,0 -58.57884,-26.22676 -58.57884,-58.5789"
       id="path33518" />
    <path
       style="fill:#ffffff;fill-rule:nonzero;stroke:none"
       d="m 427.12398,407.40781 -18.59218,-42.68116 0,-6.55669 c 0,-4.54478 -0.80836,-9.48475 -6.55666,-9.48475 -4.54475,0 -6.28721,3.61067 -6.28721,7.76025 l 0,9.08955 c 0,2.13766 0.5389,3.21547 1.47301,5.22738 l 19.13107,41.99856 c 1.20355,2.67656 3.46696,8.02969 6.68241,8.02969 l 8.29912,0 c 3.21545,0 5.47885,-5.35313 6.68241,-8.02969 l 19.13107,-41.99856 c 0.9341,-2.01191 1.47301,-3.08972 1.47301,-5.22738 l 0,-9.08955 c 0,-4.14958 -1.74246,-7.76025 -6.28722,-7.76025 -5.74829,0 -6.55665,4.93997 -6.55665,9.48475 l 0,6.55669 -18.59218,42.68116"
       id="path33522" />
    <path
       style="fill:#ffffff;fill-rule:evenodd;stroke:none"
       d="m 695.01284,421.09602 c 3.77233,0 8.90988,-0.80836 8.90988,-6.48483 0,-5.53277 -4.59865,-6.46687 -8.90988,-6.46687 l -20.92742,0 c -4.32919,0 -6.89798,-0.53891 -8.64042,-2.44304 l -3.2514,-3.50289 c -0.9341,-0.9341 -1.88615,-2.56878 -1.88615,-3.77216 l 0,-4.32921 34.70539,0 c 7.68836,0 8.90988,-2.15563 8.90988,-9.57456 l 0,-10.40089 c 0,-7.14948 -0.80836,-12.14334 -6.75425,-16.86775 l -5.2633,-4.18533 c -4.99384,-4.04179 -7.95781,-4.7244 -14.29891,-4.7244 l -5.01181,0 c -5.2633,0 -8.22726,0.1437 -14.29892,5.40702 l -4.59864,3.91587 c -5.38903,4.5807 -6.34109,8.64046 -6.34109,15.52049 l 0,24.96931 c 0,7.00559 1.49097,9.98754 6.61054,14.56824 l 5.53275,4.86812 c 4.05974,3.50288 6.21536,3.50288 11.60439,3.50288 l 23.90936,0 z m -34.70539,-49.13007 c 0,-3.77234 1.07781,-4.72441 2.71247,-5.92797 l 4.43698,-3.2514 c 2.17358,-1.473 4.18548,-1.473 6.62852,-1.473 l 4.05974,0 c 2.0119,0 4.58068,0.12574 6.19738,1.61671 l 4.99385,4.31125 c 1.76042,1.61672 1.63468,3.6466 1.63468,6.07167 l 0,7.8321 -30.66362,0 0,-9.17936"
       id="path33526" />
    <path
       style="fill:#231f20;fill-rule:evenodd;stroke:none"
       d="m 386.20306,267.02337 c 0,-2.13766 -0.44909,-4.29329 -3.12564,-4.29329 -2.6586,0 -3.10769,2.15563 -3.10769,4.29329 l 0,39.25013 c 0,2.15562 0.44909,4.36514 3.10769,4.36514 2.47895,0 3.12564,-2.15563 3.12564,-4.16754 l 0,-0.3952 1.43708,1.38319 c 1.74246,1.61672 3.50287,3.17955 6.03571,3.17955 l 4.04178,0 c 1.56282,0 3.37714,-0.97003 4.86809,-2.20952 l 2.13766,-1.83228 c 2.47895,-2.13766 3.39509,-3.89808 3.39509,-7.20337 l 0,-12.53837 c 0,-3.32325 -0.91614,-5.08368 -3.39509,-7.22134 l -2.13766,-1.81431 c -1.56282,-1.31134 -2.98192,-2.20952 -4.6166,-2.20952 l -4.49087,0 c -2.85618,0 -4.09567,1.36523 -6.16145,3.43104 l -1.11374,1.11374 0,-13.13134 z m 0,23.13684 c 0,-1.88599 0.84428,-2.85602 1.88617,-3.7003 l 4.02381,-3.52086 c 0.71854,-0.64668 1.76043,-1.09577 2.60469,-1.09577 l 1.95803,0 c 0.64669,0 1.09577,0.1976 1.49097,0.52094 l 2.8562,2.20951 c 0.52095,0.3952 0.84429,1.36523 0.84429,2.60472 l 0,11.04739 c 0,1.22152 -0.0539,2.73045 -0.77243,3.30529 l -2.73046,2.28137 c -0.44909,0.39519 -1.04188,0.59279 -1.95801,0.59279 l -2.33525,0 c -0.64669,0 -1.63469,-0.91614 -2.4071,-1.56282 l -3.57472,-3.05381 c -1.63469,-1.36522 -1.88617,-2.15562 -1.88617,-4.16753 l 0,-5.46092"
       id="path33530" />
    <path
       style="fill:#231f20;fill-rule:evenodd;stroke:none"
       d="m 474.67308,310.87216 c 1.85025,0 4.36512,-0.39519 4.36512,-3.16158 0,-2.71249 -2.24542,-3.17954 -4.36512,-3.17954 l -10.23917,0 c -2.11968,0 -3.37713,-0.26946 -4.23938,-1.1856 l -1.58079,-1.7245 c -0.44909,-0.44908 -0.91614,-1.25744 -0.91614,-1.85024 l 0,-2.10173 16.97547,0 c 3.77232,0 4.36512,-1.05985 4.36512,-4.68848 l 0,-5.51463 c 0,-3.48492 -0.3952,-5.92796 -3.30528,-8.24526 l -2.58674,-2.04784 c -2.44303,-1.97599 -3.88011,-2.3173 -6.98778,-2.3173 l -2.46101,0 c -2.56876,0 -4.02381,0.0719 -6.98777,2.64064 l -2.24543,1.9221 c -2.6586,2.24544 -3.10769,4.22143 -3.10769,7.59857 l 0,12.62819 c 0,3.43103 0.71854,4.88608 3.23344,7.13152 l 2.71247,2.37118 c 1.97597,1.7245 3.03582,1.7245 5.67646,1.7245 l 11.69421,0 z m -16.97546,-24.44818 c 0,-1.85025 0.52094,-2.3173 1.31134,-2.91009 l 2.19153,-1.58079 c 1.04188,-0.73651 2.04784,-0.73651 3.23342,-0.73651 l 1.97599,0 c 1.00595,0 2.24542,0.0719 3.05378,0.7904 l 2.44304,2.11969 c 0.84428,0.7904 0.79039,1.77839 0.79039,2.96399 l 0,4.25717 -14.99947,0 0,-4.90386"
       id="path33534" />
    <path
       style="fill:#231f20;fill-rule:evenodd;stroke:none"
       d="m 564.43648,310.87216 c 1.85025,0 4.36512,-0.39519 4.36512,-3.16158 0,-2.71249 -2.24542,-3.17954 -4.36512,-3.17954 l -10.23917,0 c -2.11968,0 -3.37713,-0.26946 -4.23938,-1.1856 l -1.58079,-1.7245 c -0.46705,-0.44908 -0.91614,-1.25744 -0.91614,-1.85024 l 0,-2.10173 16.97547,0 c 3.77232,0 4.36512,-1.05985 4.36512,-4.68848 l 0,-5.51463 c 0,-3.48492 -0.3952,-5.92796 -3.30528,-8.24526 l -2.58674,-2.04784 c -2.44303,-1.97599 -3.89807,-2.3173 -6.98778,-2.3173 l -2.46101,0 c -2.56876,0 -4.02381,0.0719 -6.98777,2.64064 l -2.24543,1.9221 c -2.6586,2.24544 -3.10769,4.22143 -3.10769,7.59857 l 0,12.62819 c 0,3.43103 0.71854,4.88608 3.23344,7.13152 l 2.71247,2.37118 c 1.97597,1.7245 3.03582,1.7245 5.67646,1.7245 l 11.69421,0 z m -16.97546,-24.44818 c 0,-1.85025 0.52094,-2.3173 1.31134,-2.91009 l 2.19153,-1.58079 c 1.04188,-0.73651 2.04784,-0.73651 3.23342,-0.73651 l 1.97599,0 c 1.00595,0 2.24542,0.0719 3.05378,0.7904 l 2.44304,2.11969 c 0.84428,0.7904 0.79039,1.77839 0.79039,2.96399 l 0,4.25717 -14.99947,0 0,-4.90386"
       id="path33538" />
    <path
       style="fill:#ffcb04;fill-rule:evenodd;stroke:none"
       d="m 192.23376,370.15163 c 6.66443,26.4601 28.31041,46.95649 55.39929,51.95035 l 0,-51.95035 25.65183,0 0,51.95035 c 27.08888,-4.99386 48.73486,-25.49025 55.3993,-51.95035 l 26.22664,0 c -8.11948,44.7829 -47.31574,78.76972 -94.45184,78.76972 -47.13613,0 -86.33239,-33.96885 -94.45187,-78.76972 l 26.22665,0"
       id="path33542" />
    <path
       id="path33548"
       d="m 273.26697,370.15163 -25.64283,0 0,-17.23762 25.64283,0 z m -107.25979,0 c -1.02392,-5.58666 -1.54486,-11.35295 -1.54486,-17.22702 0,-53.02798 42.96858,-95.99657 95.99671,-95.99657 53.01016,0 95.97875,42.96859 95.97875,95.99657 0,5.87407 -0.52095,11.64036 -1.5269,17.22702 l -26.22665,0 c 1.38319,-5.5148 2.11968,-11.28109 2.11968,-17.22702 0,-38.85494 -31.48994,-70.36279 -70.3449,-70.36279 -38.85495,0 -70.36286,31.50785 -70.36286,70.36279 0,5.94593 0.73651,11.71222 2.13766,17.22702 l -26.22664,0"
       style="fill:#ffcb04;fill-rule:evenodd;stroke:none" />
    <path
       style="fill:#ffffff;fill-rule:nonzero;stroke:none"
       d="m 799.5243,374.46288 0,5.73037 0,29.08277 c 0.25149,0 6.52075,0.018 6.77222,0.018 3.93401,0.1976 7.70633,1.43709 7.70633,6.44891 0,5.1735 -4.29326,6.3052 -7.90391,6.46687 -0.34131,0.018 -6.64649,0 -6.96984,0 l -19.18497,0 c -3.77233,0 -8.89192,-0.80836 -8.89192,-6.46687 0,-5.53277 4.58069,-6.46687 8.89192,-6.46687 l 6.64648,0 0,-47.13612 -6.39499,0 c -3.77233,0 -8.89192,-0.80836 -8.89192,-6.46687 0,-5.53259 4.58069,-6.46669 8.89192,-6.46669 l 13.6163,0 c 0.88021,0 1.49097,0.17963 1.9221,0.48501 2.80229,1.20356 3.70046,4.38292 3.79028,7.67025 l 3.17953,-2.64064 c 3.62861,-2.9638 7.40096,-5.51462 11.44273,-5.51462 l 10.45472,-0.018 c 4.45494,0 8.89191,0.93411 8.89191,6.46669 0,5.51481 -4.43697,6.46687 -8.89191,6.46687 l -5.892,0 -1.59875,0.018 c -2.42506,0 -4.16752,1.22152 -6.46686,3.10769 l -11.11937,9.21529"
       id="path33552" />
    <path
       style="fill:#231f20;fill-rule:nonzero;stroke:none"
       d="m 428.95608,287.35808 0,17.15517 c 0.12574,0 3.21545,0.018 3.3412,0.018 1.94006,0.0898 3.79028,0.70057 3.79028,3.17954 0,2.55064 -2.10171,3.10751 -3.89806,3.17937 -0.16168,0.018 -3.26935,0 -3.43102,0 l -9.44878,0 c -1.86819,0 -4.38308,-0.3952 -4.38308,-3.17937 0,-2.73046 2.24544,-3.19751 4.38308,-3.19751 l 3.26934,0 0,-23.22684 -3.1436,0 c -1.86819,0 -4.38308,-0.3952 -4.38308,-3.19751 0,-2.71249 2.26341,-3.17954 4.38308,-3.17954 l 6.70038,0 c 0.43113,0 0.73651,0.0898 0.95207,0.23352 1.38319,0.5928 1.83228,2.17359 1.86821,3.79031 l 1.56282,-1.31134 c 1.79636,-1.45505 3.64658,-2.71249 5.64052,-2.71249 l 5.15551,-0.018 c 2.19155,0 4.38309,0.46705 4.38309,3.19751 0,2.71249 -2.19154,3.17955 -4.38309,3.17955 l -2.91007,0 -0.77243,0.018 c -1.20356,0 -2.06581,0.5928 -3.19749,1.5269 l -5.47886,4.54477"
       id="path33556" />
    <path
       style="fill:#231f20;fill-rule:nonzero;stroke:none"
       d="m 495.63652,278.0889 c 1.47301,-1.11374 3.05378,-2.15562 4.18549,-2.15562 l 4.56272,0 c 2.38913,0 3.86214,0.66465 5.73034,2.33526 0.30538,0.26945 0.55687,0.5389 0.7904,0.80835 1.7245,-1.1317 4.97586,-3.14361 6.86203,-3.14361 l 4.56272,0 c 2.38913,0 3.86214,0.66465 5.73035,2.33526 2.76636,2.47896 2.64062,5.22738 2.76636,8.71231 l -0.0898,19.1669 c 0.0719,2.26341 -0.25149,4.74238 -3.01786,4.74238 -2.51489,0 -2.94602,-2.13766 -3.01787,-4.29329 l 0.018,-18.75374 c -0.14371,-3.95198 -0.46705,-5.49684 -4.18548,-5.49684 l -2.06579,0 c -0.64669,0 -1.29337,0.21556 -1.9221,0.61076 l -3.66454,2.44304 0,1.58079 0,19.1669 c 0.0719,2.28137 -0.1976,4.74238 -2.96396,4.74238 -2.5149,0 -3.08973,-2.13766 -3.14362,-4.29329 l 0,-18.75374 c -0.12575,-3.95198 -0.44909,-5.49684 -4.18549,-5.49684 l -2.04782,0 c -0.64669,0 -1.29338,0.21556 -1.94006,0.61076 l -2.96397,2.62267 0,20.87344 c 0,2.22748 -0.44909,4.437 -3.08971,4.437 -2.64064,0 -3.08972,-2.20952 -3.08972,-4.41903 l 0,-27.91515 c 0,-2.35322 0.57483,-3.70049 3.08972,-3.70049 2.31728,0.018 3.05379,1.07782 3.08971,3.23344"
       id="path33560" />
    <path
       style="fill:#231f20;fill-rule:nonzero;stroke:none"
       d="m 585.52567,278.41224 c 1.77839,-1.00595 4.8681,-2.49693 6.68239,-2.49693 l 4.61661,0 c 2.40712,0 3.89809,0.68262 5.78424,2.35323 2.8023,2.47896 2.65861,5.22738 2.8023,8.71231 l -0.0359,19.09505 c 0.0719,2.26341 -0.25149,4.81423 -3.05378,4.81423 -2.53284,0 -3.05379,-2.20952 -3.12564,-4.34718 l 0.0359,-18.69985 c -0.14371,-3.95198 -0.46705,-5.49684 -4.23938,-5.49684 l -2.0658,0 c -0.64669,0 -1.31134,0.1976 -1.95801,0.61076 l -5.44293,2.76638 0,20.67584 c 0,2.20952 -0.44909,4.41903 -3.10768,4.41903 -2.67656,0 -3.12565,-2.20951 -3.12565,-4.41903 l 0,-27.84329 c 0,-2.35322 0.68261,-3.70049 3.12565,-3.70049 2.2095,0 3.07175,1.40116 3.10768,3.55678"
       id="path33564" />
  </g>
</svg>
