<?xml version="1.0" encoding="UTF-8"?>
<svg width="111px" height="111px" viewBox="0 0 111 111" version="1.1" xmlns="http://www.w3.org/2000/svg" xmlns:xlink="http://www.w3.org/1999/xlink">
    <!-- Generator: Sketch 47.1 (45422) - http://www.bohemiancoding.com/sketch -->
    <title>dfm logo</title>
    <desc>Created with Sketch.</desc>
    <defs/>
    <g id="Page-1" stroke="none" stroke-width="1" fill="none" fill-rule="evenodd">
        <g id="Artboard-2" transform="translate(-161.000000, -118.000000)">
            <g id="dfm-logo" transform="translate(161.000000, 118.000000)">
                <rect id="Rectangle-2" fill="#FFFFFF" x="0" y="0" width="111" height="111"/>
                <g id="Group" transform="translate(2.000000, 2.000000)">
                    <rect id="Rectangle" fill="#1C0000" x="0" y="0" width="53.5" height="53.5"/>
                    <rect id="Rectangle-Copy" fill="#FFEE00" x="0" y="53.5" width="53.5" height="53.5"/>
                    <rect id="Rectangle-Copy-2" fill="#FFEE00" x="53.5" y="53.5" width="53.5" height="53.5"/>
                    <polygon id="Rectangle-Copy-3" fill="#F80051" points="53.5 0 107 0 107 53.5 92.2242132 53.5 80.25 72.8468271 67.8247946 53.5 53.5 53.5"/>
                    <path d="M0,53.5 L0,0.000987788128 L21.7214035,0.000987788128 C41.8338141,0.000987788128 53.3729206,6.59766447 53.4990122,26.5976396 C53.6251038,46.5976147 41.6729148,53.5 21.3996049,53.5 L0,53.5 Z M14.4035802,40.1252469 L21.7074965,40.1252469 C30.9215515,40.1252469 40.1242592,38.9346608 40.1242592,27.2649075 C40.1242592,15.5951541 30.9215515,13.3757408 21.7074965,13.3757408 L14.4035802,13.3757408 L14.4035802,40.1252469 Z" id="D" fill="#FFEE00" transform="translate(26.750000, 26.750494) rotate(-360.000000) translate(-26.750000, -26.750494) "/>
                    <polygon id="Path-9" fill="#1C0000" points="53.5 106.513529 53.5 53.5 67.5214748 53.5 80.1248065 72.6127148 91.8722914 53.5 106.788468 53.5 106.788468 106.759848 91.9146683 106.759848 91.9146683 79.6455427 80.1248065 97.60212 67.5214748 79.6455427 67.5214748 106.681056"/>
                    <polyline id="Path-7" fill="#1C0000" points="0.131687849 53.5 38.4701406 53.5 38.4701406 66.2557187 14.081033 66.2557187 14.081033 80.959345 38.1487297 80.959345 38.1487297 92.696026 13.9924981 92.696026 13.9924981 106.959377 0 106.959377"/>
                    <path d="M61.5673962,32.5632525 L61.5673962,23.8277663 L64.5389927,23.8277663 C67.2904709,23.8277663 68.2589054,25.1512928 68.238697,28.1705509 C68.2184886,31.189809 67.268459,32.5632525 64.494969,32.5632525 L61.5673962,32.5632525 Z M63.7025433,30.4168188 L64.5720104,30.4168188 C65.8486963,30.4168188 66.0485203,29.83942 66.0485203,28.1830302 C66.0485203,26.5266404 65.8486963,25.9492416 64.5720104,25.9492416 L63.7025433,25.9492416 L63.7025433,30.4168188 Z M68.6368609,32.5632525 L71.9166229,23.76537 L73.9747285,23.76537 L77.2544905,32.5632525 L74.9652607,32.5632525 L74.4039591,31.0033443 L71.4323627,31.0033443 L70.8820671,32.5632525 L68.6368609,32.5632525 Z M72.0596997,29.1189751 L73.787628,29.1189751 L72.9291668,26.6356012 L72.0596997,29.1189751 Z M77.8194607,32.5632525 L79.932596,32.5632525 L79.932596,27.7712144 L83.2233639,32.5632525 L85.0943691,32.5632525 L85.0943691,23.8277663 L82.9812338,23.8277663 L82.9812338,28.4450948 L79.8115309,23.8277663 L77.8194607,23.8277663 L77.8194607,32.5632525 Z M89.984663,32.7379623 C91.6905794,32.7379623 92.3167155,31.9018514 93.0431057,30.7662382 L91.4362425,29.4683946 C90.9739941,30.1048371 90.8541301,30.5291322 90.0506984,30.5291322 C88.972119,30.5291322 88.212711,29.5058324 88.212711,28.1955094 C88.212711,26.8976658 88.972119,25.8618867 90.0506984,25.8618867 C90.7880946,25.8618867 90.9519823,26.2487439 91.3922188,26.8727072 L92.9550584,25.499988 C92.2726918,24.4267711 91.6465558,23.6530566 90.0727103,23.6530566 C87.7394568,23.6530566 86.0115284,25.6497392 86.0115284,28.1955094 C86.0115284,30.8286346 87.7834804,32.7379623 89.984663,32.7379623 Z M94.1265548,32.5632525 L100.377913,32.5632525 L100.377913,30.5041736 L96.23969,30.5041736 L96.23969,29.1189751 L99.9376767,29.1189751 L99.9376767,27.2096474 L96.23969,27.2096474 L96.23969,25.8868452 L100.322884,25.8868452 L100.322884,23.8277663 L94.1265548,23.8277663 L94.1265548,32.5632525 Z" id="dance" fill="#FFFFFF"/>
                </g>
            </g>
        </g>
    </g>
</svg>