<?xml version="1.0" encoding="UTF-8"?>
<!-- Generator: Adobe Illustrator 21.0.0, SVG Export Plug-In . SVG Version: 6.00 Build 0)  -->
<svg version="1.1" id="Layer_1" xmlns="http://www.w3.org/2000/svg" x="0px" y="0px" viewBox="0 0 120 125" style="enable-background:new 0 0 120 125;" xml:space="preserve">
<style type="text/css">
	.st0{fill:#E32E2F;}
	.st1{fill:#2B2A29;}
</style>
<title>Asset 1</title>
<g>
	<g>
		<path class="st0" d="M34.1,41L34.1,41c0.9-0.2,1.8-0.6,2.6-0.9c0,0.1-0.1,0.3-0.1,0.4c-9.1,13.7-18.2,27.3-27.3,41    c-0.4,0.6-0.7,1.2-1,1.9c-0.1,0.5-0.1,1,0,1.5c0.4,1.2,1.3,2.1,2.5,2.5c1.2,0.1,2.4,0.1,3.6,0.1c31.2,0,62.5,0,93.7,0    c1.4,0.1,2.6-0.8,3.2-1.9c0.4-0.7,0.4-1.5,0.3-2.2c-0.3-0.7-0.7-1.4-1.1-2c-7.6-11.4-15.3-22.9-22.9-34.4c-0.3-0.5-0.7-1.1-1-1.6    c2.9,0,5.7-1.1,7.8-3.1c7.9,11.8,15.7,23.6,23.6,35.4c1.5,2.2,2.3,5,2,7.7c-0.4,4.8-4.2,9-8.9,10.2c-1.8,0.4-3.7,0.3-5.6,0.3    c-31.1,0-62.2,0-93.2,0c-1.1,0-2.3,0-3.4-0.3c-4.2-1-7.6-4.5-8.6-8.7c-0.5-2.4-0.3-5,0.7-7.2c0.6-1.5,1.6-2.7,2.4-4    c6-8.9,11.9-17.9,17.9-26.8c0.6,0.4,1.2,0.9,1.9,1.2c1,0.4,2,0.5,3.1,0.5c1.1,0.1,2.4-0.1,3.3-0.8c1.1-0.8,1.6-2.3,1.2-3.6    c-0.1-0.6-0.5-1.1-0.6-1.7C30,43.4,30,42.6,30,41.8C31.4,41.7,32.8,41.4,34.1,41 M54.7,1.3C56.4,0.4,58.4,0,60.3,0    c3.9,0.1,7.7,2.3,9.7,5.6c5,7.5,10,15,15,22.5c-1.3,0.2-2.5,1-3.1,2.2c-0.1,0.2-0.2,0.5-0.4,0.7c-0.6-1.1-1.3-2.2-2.5-2.7    c-1.2-0.6-2.6-0.4-3.9-0.2c-4-5.9-7.9-11.9-11.9-17.8c-0.5-0.8-1.2-1.5-2.1-1.8c-0.5-0.3-1.2-0.2-1.8-0.2c-1.1,0.2-2,1.1-2.7,2    c-3.8,5.7-7.7,11.5-11.5,17.2c-0.2,0-0.4,0.1-0.6,0.1c-0.4-2.9-2.2-5.5-4.7-6.9c3.4-5.1,6.8-10.2,10.2-15.3    C51.3,3.7,52.9,2.3,54.7,1.3z"/>
		<path class="st1" d="M56.9,46.8L56.9,46.8c0,0.4-0.1,1,0.3,1.3c0.3,0.1,0.6-0.2,0.8-0.4c0.5-0.7,0.8-1.5,1-2.3    c0.5-1.5,0.8-3.1,1-4.7C58.4,42.3,57,44.4,56.9,46.8 M86.5,33.2L86.5,33.2c1.1,0.6,1.1,2.1,0.8,3.2c-0.3,0.1-0.5,0.3-0.7,0.5    c-0.6,0.9-0.5,2.3,0.3,3c0.4,0.4,1,0.4,1.4,0.1c0.6-0.5,0.8-1.3,1-2c0.3-1.3,0.3-2.7-0.1-4.1c-0.2-0.7-0.8-1.4-1.5-1.4    C87.2,32.4,86.8,32.9,86.5,33.2z M45.3,32.8L45.3,32.8c-0.7,0.7-1.2,1.6-1.7,2.5c-0.3,0.7-0.6,1.5-0.6,2.3c0,0.4,0,0.9,0.3,1.1    c0.2,0.1,0.5,0,0.7-0.2c0.6-0.4,1-1,1.3-1.6c0.7-1.2,1.3-2.5,1.6-3.9c-0.1-0.3-0.3-0.5-0.6-0.6C46,32.2,45.6,32.5,45.3,32.8z     M58.3,29.6L58.3,29.6c1.1-0.5,2.4-0.7,3.5-0.4c0.4,0.1,0.9,0.3,1,0.8c0.1,0.2,0,0.5-0.2,0.7c-0.4,0.4-1,0.7-1.6,0.9    c-0.4-0.6-1.1-0.4-1.6-0.1c-0.9,0.6-1.4,1.6-1.7,2.7c-0.2,0.7-0.4,1.4-0.1,2.1c0.2,0.4,0.7,0.1,0.9-0.1c0.9-0.8,1.3-2.1,1-3.3    c0.7-0.4,1.3-0.9,2.1-1.1c0.6-0.1,1.1,0.3,1.3,0.8c0.5,0.9,0.6,1.9,0.7,2.9c1.6-0.8,3.3-1.4,5-1.7c0-0.9,0-1.8-0.2-2.8    c0.5-0.2,1-0.2,1.5-0.3c0.6,0,1.3,0,1.8,0.4c0.4,0.4,0.5,1.1,0.5,1.7c0,1.6-0.3,3.2-0.3,4.7c0,0.3,0,0.7,0.3,0.9    c0.4,0.2,0.8-0.1,1.1-0.3c0.7-0.5,1.3-1.3,1.8-2c0.2-1.7,0.4-3.4,0.1-5.1c0,0,0.1-0.1,0.1-0.1c0.9-0.1,1.9-0.2,2.7,0.4    c0.7,0.6,0.8,1.5,0.8,2.4c0,1.7-0.5,3.4-0.3,5c0.1,0.3,0.2,0.7,0.5,0.6c0.4-0.1,0.8-0.4,1.1-0.7c0.9-0.9,1.7-2,2.4-3.1    c0.2-0.6,0.5-1.2,0.7-1.8c0.3-0.4,0.7-0.8,1.2-0.8c0.3,0,0.5,0,0.8,0c0.1-0.8,0.5-1.6,1.1-2.1c0.9-0.8,2.2-0.9,3.3-0.7    c1,0.2,2,0.8,2.5,1.7c0.8,1.3,1,2.9,0.8,4.4c0.8,0.5,1.8,0.6,2.6,0.2c1.4-0.6,2.3-1.8,3.1-3c0.4,0.2,0.9,0.5,0.9,1    c0,0.7-0.4,1.3-0.7,1.8c-0.9,1.2-2.2,2.1-3.7,2.4c-0.9,0.2-2,0.2-2.8-0.2c-0.7,1.4-1.8,2.7-3.4,3.2c-1.5,0.4-3.2,0.3-4.5-0.7    c-0.9-0.7-1.5-1.7-1.8-2.7c-0.9,1.1-1.8,2.1-3.1,2.8c-1,0.5-2.3,0.5-3.2-0.2c-0.6-0.5-0.9-1.3-1.1-2c-0.9,1.1-2,2.1-3.3,2.4    c-0.9,0.2-1.9,0.1-2.6-0.5c-0.6-0.5-0.8-1.4-0.9-2.2c-0.1-1.1,0.1-2.2,0.1-3.4c-1.7,0.5-3.4,1.2-4.9,2.2c0,2.4-0.4,4.8-1.2,7.1    c-0.6,1.5-1.4,3.1-2.7,4.1c-1.1,0.9-2.6,1.2-3.8,0.7c-0.8-0.3-1.4-1.2-1.5-2.1c-0.2-1.5,0.3-3.1,1-4.4c1.1-2.1,2.8-3.8,4.6-5.2    c0-0.3,0-0.5,0-0.8c-0.7,0.8-1.5,1.5-2.5,1.7c-0.8,0.2-1.8,0.1-2.4-0.5c-0.4-0.3-0.7-0.8-0.8-1.4c-0.9,1.2-2,2.3-3.3,3.1    c-0.7,0.4-1.6,0.6-2.4,0.3c-0.7-0.2-1.1-0.9-1.3-1.6c-0.7,1.4-2,2.6-3.6,3c-1,0.3-2.1,0.1-3-0.5c-0.9-0.6-1.5-1.7-1.6-2.8    c-0.2-3,1.6-6.1,4.3-7.3c1.4-0.6,3.1-0.7,4.5,0c0.9,0.5,1.8,1.3,2.1,2.3c-0.2,1.2-0.5,2.4-0.4,3.6c0,0.4,0.1,0.8,0.5,1    c0.4,0.2,0.7-0.1,1-0.3c1-0.7,1.7-1.7,2.5-2.6c0.2-0.3,0.6-0.6,0.7-1C55,32.1,56.5,30.5,58.3,29.6z M19.8,23.8    c2.4-1.8,5.4-2.5,8.3-2.7c3.3-0.2,6.7,0.2,9.6,1.9c1.6,0.9,3,2.3,3.7,4.1c0.7,1.8,0.3,3.9-0.6,5.6c-1.1,2-2.9,3.5-4.9,4.6    c-2.7,1.3-5.7,1.8-8.7,1.7c-0.2,2.6-0.5,5.4,0.8,7.9c-0.3,0.2-0.7,0.2-1.1,0.3c-1,0.1-2.1,0.2-3-0.3c-0.9-0.6-1.2-1.8-1.1-2.8    c0.1-1.9,0.5-3.7,0.9-5.5c-0.8-0.2-1.6-0.5-2.2-1.1c-0.6-0.5-0.5-1.5,0.1-2c0.4-0.4,0.9-0.6,1.3-0.8c0.3,0.5,0.8,0.9,1.3,1.3    c0.3-1.8,0.7-3.5,0.7-5.3c0-1.1-0.3-2.2-1-3.1c0.7-0.6,1.7-1,2.7-1c0.7,0,1.3,0.5,1.5,1.1c0.5,1,0.4,2.1,0.3,3.2    c-0.1,2-0.5,4-0.8,5.9c2.4,0,4.9-0.7,6.9-2.2c1.4-1,2.4-2.6,2.6-4.3c0.2-1.3,0-2.6-0.7-3.7c-1-1.5-2.7-2.3-4.4-2.7    c-2.6-0.6-5.5-0.5-8,0.6c-1,0.4-1.9,1-2.5,1.9c-0.4,0.6-0.6,1.5-0.3,2.2c0.3,0.6,0.8,0.9,1.3,1.2c-0.7,1.6-2.9,2-4.2,1    c-1-0.7-1.4-2.1-1.1-3.3C17.6,25.9,18.6,24.7,19.8,23.8z"/>
		<g>
			<path class="st1" d="M41.9,64.3c0.8,0.1,1.8,0.1,2.5-0.3c1.1-0.6,1.8-1.9,1.8-3.1c0-1.4,0-2.8,0-4.1c0-1.2-0.7-2.5-1.7-3.1     c-0.8-0.5-1.8-0.4-2.7-0.3c-1.5,0.3-2.6,1.9-2.6,3.4c0,1.4,0,2.8,0,4.3C39.3,62.5,40.4,64,41.9,64.3z M41.8,55.4     c0.4-0.2,0.9-0.1,1.4-0.1c0.6,0,1,0.7,1,1.3c0,1.5,0,2.9,0,4.4c0,0.5-0.2,1.1-0.8,1.3c-0.4,0.1-0.9,0-1.3,0     c-0.6-0.1-0.9-0.8-0.9-1.3c0-1.4,0-2.8,0-4.3C41.3,56.2,41.4,55.7,41.8,55.4z"/>
			<path class="st1" d="M30.5,54.4c0,3.1,0,6.3,0,9.4c0,0.1,0,0.4,0.2,0.3c0.6,0,1.1,0,1.7,0c0,0,0.1-0.1,0.1-0.1c0-1.4,0-2.9,0-4.3     c0.8,0,1.6,0.1,2.3-0.1c1-0.2,1.8-0.9,2.1-1.9c0.3-1.1,0.2-2.3-0.4-3.2c-0.5-0.7-1.4-1.1-2.3-1.1c-1.2,0-2.4,0-3.6,0     C30.4,53.6,30.6,54.1,30.5,54.4z M32.5,55.5c0.7,0,1.3,0,2,0c0.5,0,0.6,0.6,0.6,1c0,0.4,0,1-0.5,1.2c-0.7,0.1-1.4,0-2,0.1     C32.5,56.9,32.5,56.2,32.5,55.5z"/>
			<path class="st1" d="M44.9,69.5c-0.8-0.5-1.8-0.4-2.7-0.3c-1.5,0.3-2.5,1.8-2.6,3.3c0,1.3,0,2.6,0,3.9c0,0.8,0.1,1.6,0.5,2.2     c0.5,0.9,1.4,1.5,2.4,1.5c0.7,0,1.4,0.1,2.1-0.3c1.2-0.6,1.9-1.9,1.9-3.1c0-1.4,0-2.8,0-4.1C46.6,71.4,46,70.1,44.9,69.5z      M44.6,76.9c0,0.5-0.3,1.1-0.8,1.2c-0.4,0-0.9,0.1-1.3,0c-0.5-0.2-0.8-0.8-0.8-1.3c0-1.4,0-2.8,0-4.3c0-0.5,0.2-1.2,0.8-1.3     c0.5-0.1,0.9-0.1,1.4,0c0.5,0.2,0.8,0.8,0.8,1.3C44.6,74,44.6,75.4,44.6,76.9z"/>
			<path class="st1" d="M78.4,64.1c0.6,0,1.1,0,1.7,0c0,0,0.1-0.1,0.1-0.1c0.1-2.2,0-4.5,0-6.7c0-1.3,0.1-2.5,0-3.8     c-0.6-0.2-1.3,0-1.9-0.1c0,0.1-0.1,0.3-0.1,0.5c0,3.3,0,6.6,0,9.9C78.2,63.9,78.2,64.1,78.4,64.1z"/>
			<path class="st1" d="M37.6,78.1c-0.2-0.3-0.7-0.1-1-0.2c0-2.8,0-5.6,0-8.4c0.1-0.3-0.3-0.3-0.4-0.3c-2.2,0-4.5,0-6.7,0     c-0.3,0-0.3,0.2-0.3,0.4c0,1.6,0,3.2,0,4.9c0,0.9-0.1,1.8-0.5,2.7c-0.1,0.3-0.3,0.5-0.5,0.7c-0.2,0-0.5,0-0.7,0.1     c-0.1,0.1-0.1,0.3-0.1,0.5c0,0.9,0,1.8,0,2.7c0,0.3,0.4,0.2,0.6,0.3c0.5,0,1,0.1,1.4-0.1c0.1-0.4,0-0.9,0.1-1.3     c2.1,0,4.1,0,6.2,0c0,0.4,0,0.9,0,1.3c0.3,0.1,0.7,0.1,1,0.1c0.3,0,0.7,0,1-0.1C37.6,80.2,37.6,79.2,37.6,78.1z M34.5,77.9     c-1.3,0-2.5,0-3.8,0c0.6-2.2,0.3-4.4,0.4-6.6c1.1,0,2.3,0,3.4,0C34.5,73.5,34.5,75.7,34.5,77.9z"/>
			<path class="st1" d="M72.7,69.3c-1.9,0-3.7,0-5.6,0c-0.2,0-0.2,0.2-0.2,0.4c0,3.2,0,6.5,0,9.7c0,0.2-0.1,0.4,0.1,0.5     c0.5,0,1.1,0,1.6,0c0.2,0,0.3-0.1,0.3-0.3c0-2.8,0-5.6,0-8.3c1.3,0,2.6,0,3.8,0c0.2,0,0.5,0.1,0.5-0.2c0-0.6,0-1.1,0-1.7     C73.1,69.2,72.8,69.3,72.7,69.3z"/>
			<path class="st1" d="M62.8,69.5c-0.8-0.4-1.7-0.4-2.6-0.3c-1.5,0.3-2.6,1.8-2.6,3.3c0,1.4,0,2.8,0,4.1c0,1.1,0.5,2.2,1.3,2.9     c0.6,0.5,1.3,0.7,2.1,0.6c0.8,0,1.6-0.1,2.2-0.6c0.9-0.7,1.4-1.8,1.4-2.9c0-1.4,0-2.7,0-4.1C64.6,71.3,63.9,70.1,62.8,69.5z      M62.6,76.8c0,0.5-0.2,1.1-0.7,1.3c-0.4,0.1-0.9,0.1-1.3,0c-0.6-0.1-0.9-0.7-0.9-1.2c0-1.4,0-2.8,0-4.3c0-0.5,0.2-1.2,0.7-1.4     c0.5-0.1,0.9-0.1,1.4,0c0.6,0.1,0.8,0.8,0.8,1.3C62.6,73.9,62.6,75.3,62.6,76.8z"/>
			<path class="st1" d="M67.3,63.6c0-3.4,0-6.7,0-10.1c-0.5-0.1-1.1,0-1.6-0.1c-0.1,0-0.4,0-0.4,0.2c0,1.5,0,2.9,0,4.4     c-0.9,0-1.8,0-2.8,0c0-1.5,0-3,0-4.5c0,0-0.1-0.1-0.1-0.1c-0.6,0-1.2,0-1.8,0c-0.1,0.1-0.1,0.3-0.1,0.4c0,3.3,0,6.6,0,9.9     c0,0.1,0,0.4,0.2,0.3c0.6,0,1.1,0,1.7,0c0,0,0.1-0.1,0.1-0.1c0-1.3,0-2.6,0-4c0.9,0,1.8,0,2.8,0c0,1.3,0,2.7,0,4     c0.6,0.1,1.2,0.1,1.9,0.1C67.3,64,67.2,63.8,67.3,63.6z"/>
			<path class="st1" d="M58.3,65.3c0-1,0-2,0-2.9c0-0.5-0.7-0.3-1-0.3c0-2.8,0-5.5,0-8.3c0.1-0.4-0.4-0.3-0.6-0.3     c-2.2,0-4.4,0-6.6,0c-0.2,0-0.2,0.2-0.2,0.3c0,1.3,0,2.5,0,3.8c0,1.1,0.1,2.1-0.2,3.1c-0.1,0.5-0.3,0.9-0.6,1.3     c-0.2,0.2-0.6,0-0.9,0.2c-0.1,0.9,0,1.8,0,2.7c0,0.2-0.1,0.5,0.1,0.6c0.6,0,1.2,0,1.7,0c0,0,0.1-0.1,0.1-0.1c0.1-0.4,0-0.9,0-1.3     c2.1,0,4.1,0,6.2,0c0,0.4-0.1,0.9,0.1,1.4c0.6,0.1,1.2,0,1.8,0C58.2,65.4,58.3,65.4,58.3,65.3z M55.3,62.1c-1.3,0-2.5,0-3.8,0     c0.6-2.1,0.3-4.4,0.4-6.6c1.1,0,2.2,0,3.4,0C55.3,57.7,55.3,59.9,55.3,62.1z"/>
			<path class="st1" d="M76.2,60.6c-0.1-0.9-0.5-1.9-1.4-2.3c-1-0.6-2.1-0.3-3.2-0.4c0-1.4,0-2.8,0-4.2c0,0-0.1-0.1-0.1-0.2     c-0.6-0.1-1.2,0-1.7,0c-0.2,0-0.2,0.2-0.2,0.3c0,3.3,0,6.7,0,10c0,0.1,0,0.4,0.2,0.3c1.2,0,2.3,0,3.5,0c0.8,0,1.6-0.2,2.1-0.8     C76.1,62.6,76.3,61.5,76.2,60.6z M73.6,62c-0.7,0.1-1.4,0-2.1,0c0-0.7,0-1.5,0-2.2c0.7,0,1.3,0,2,0.1c0.5,0.1,0.6,0.6,0.6,1     C74.2,61.3,74.1,61.9,73.6,62z"/>
			<path class="st1" d="M82.7,64.1c0.6,0,1.1,0,1.7,0c0.2,0,0.3-0.2,0.4-0.3c0.4-0.9,0.8-1.7,1.2-2.6c0.4,0.9,0.8,1.7,1.2,2.6     c0.1,0.1,0.1,0.3,0.2,0.4c0.5,0,1,0,1.6,0c0.1,0,0.5,0,0.4-0.2c-0.7-1.7-1.5-3.4-2.3-5.1c0.7-1.6,1.5-3.3,2.2-4.9     c0.1-0.1,0.2-0.4-0.1-0.4c-0.6,0-1.2-0.1-1.8,0c-0.5,0.9-0.9,1.9-1.4,2.9c-0.4-0.9-0.8-1.7-1.2-2.6c-0.1-0.1-0.2-0.4-0.4-0.3     c-0.6,0-1.1,0-1.7,0c-0.2,0.1,0,0.3,0,0.4c0.7,1.6,1.5,3.2,2.2,4.9c-0.8,1.7-1.6,3.4-2.3,5.2C82.6,64,82.6,64.1,82.7,64.1z"/>
			<path class="st1" d="M52.6,69.3c-1.2,0-2.4,0-3.5,0c-0.3,0-0.2,0.3-0.2,0.5c0,3.2,0,6.5,0,9.7c0,0.1,0,0.4,0.2,0.4     c0.5,0,1.1,0,1.6,0c0.2,0,0.2-0.3,0.2-0.4c0-1.3,0-2.7,0-4c0.8,0,1.7,0.1,2.5-0.1c1-0.2,1.7-1,1.9-2c0.3-1.1,0.2-2.3-0.5-3.2     C54.3,69.6,53.5,69.3,52.6,69.3z M52.7,73.5c-0.6,0-1.2,0-1.9,0c0-0.7,0-1.5,0-2.2c0.7,0,1.3,0,2,0c0.3,0,0.5,0.3,0.6,0.6     C53.5,72.5,53.5,73.5,52.7,73.5z"/>
			<path class="st1" d="M88,77.9c-0.7,0.3-1.2,1.1-1,1.9c0.2,0.8,1.1,1.4,1.9,1.2c0.9-0.2,1.5-1.2,1.2-2     C89.9,78.1,88.9,77.6,88,77.9z"/>
			<path class="st1" d="M91.6,75.1c-0.9-0.7-2-1-3.1-1.3c-1-1.6-2.2-3.2-4.1-3.8c-1.7-0.6-3.5-0.2-5.3-0.3c-1.3,0-2.4,0.9-3,1.9     c-0.9,1.6-1.2,3.4-1.4,5.2c0,0.6-0.2,1.3,0.3,1.7c0.3,0.4,0.9,0.4,1.4,0.4c0.1-0.7,0.5-1.3,1.1-1.6c0.8-0.6,2-0.5,2.8,0.1     c0.5,0.4,0.9,1,1,1.7c1.6,0,3.3,0.1,4.9,0.1c0.1-0.6,0.4-1.2,1-1.6c0.7-0.6,1.8-0.6,2.6-0.2c0.7,0.4,1.2,1.1,1.3,1.9     c0.7,0.1,1.6-0.3,1.6-1.1C92.7,77,92.5,75.8,91.6,75.1z M80.6,73.8c-1.2,0-2.3-0.1-3.5-0.1c0.3-0.8,0.6-1.6,1.3-2.1     c0.7-0.5,1.5-0.3,2.3-0.3C80.6,72.1,80.6,73,80.6,73.8z M81.7,73.9c0-0.9,0-1.7,0.1-2.6c1,0,2,0,2.8,0.5c0.9,0.5,1.6,1.3,2.1,2.2     C85.1,73.9,83.4,73.9,81.7,73.9z"/>
			<path class="st1" d="M78.3,77.7c-0.7,0.2-1.2,1-1.1,1.7c0.1,0.9,1,1.6,1.9,1.4c0.9-0.1,1.6-1.1,1.3-2     C80.2,77.9,79.2,77.4,78.3,77.7z"/>
		</g>
	</g>
	<g>
		<path class="st1" d="M6,111.7H4.6c-0.1,0-0.2,0.1-0.2,0.2v4H1.8v-4c0-0.1-0.1-0.2-0.2-0.2H0.2c-0.1,0-0.2,0.1-0.2,0.2v9.3    c0,0.1,0.1,0.2,0.2,0.2h1.4c0.1,0,0.2-0.1,0.2-0.2v-3.5h2.6v3.5c0,0.1,0.1,0.2,0.2,0.2H6c0.1,0,0.2-0.1,0.2-0.2v-9.3    C6.2,111.8,6.1,111.7,6,111.7z"/>
		<path class="st1" d="M14.4,111.7H13c-0.1,0-0.2,0-0.2,0.1l-3.1,5.7v-5.7c0-0.1-0.1-0.2-0.2-0.2H8.1c-0.1,0-0.2,0.1-0.2,0.2v9.3    c0,0.1,0.1,0.2,0.2,0.2h1.4c0.1,0,0.2,0,0.2-0.1l3.1-5.7v5.7c0,0.1,0.1,0.2,0.2,0.2h1.4c0.1,0,0.2-0.1,0.2-0.2v-9.3    C14.6,111.8,14.5,111.7,14.4,111.7z"/>
		<path class="st1" d="M29.3,119.7h-0.8v-7.7c0-0.1-0.1-0.2-0.2-0.2H22c-0.1,0-0.2,0.1-0.2,0.2v4.7c0,2.1-0.6,3.1-1.1,3.1h-0.3    c-0.1,0-0.2,0.1-0.2,0.2v2.7c0,0.1,0.1,0.2,0.2,0.2h1.4c0.1,0,0.2-0.1,0.2-0.2v-1.1h5.8v1.1c0,0.1,0.1,0.2,0.2,0.2h1.4    c0.1,0,0.2-0.1,0.2-0.2v-2.7C29.5,119.8,29.4,119.7,29.3,119.7z M26.8,119.7h-3.6c0.3-0.8,0.4-1.8,0.4-2.8v-3.4h3.2V119.7z"/>
		<path class="st1" d="M37,111.7h-1.4c-0.1,0-0.2,0.1-0.2,0.2v4h-2.6v-4c0-0.1-0.1-0.2-0.2-0.2h-1.4c-0.1,0-0.2,0.1-0.2,0.2v9.3    c0,0.1,0.1,0.2,0.2,0.2h1.4c0.1,0,0.2-0.1,0.2-0.2v-3.5h2.6v3.5c0,0.1,0.1,0.2,0.2,0.2H37c0.1,0,0.2-0.1,0.2-0.2v-9.3    C37.2,111.8,37.2,111.7,37,111.7z"/>
		<path class="st1" d="M44.8,111.7h-3.2c-1.6,0-2.6,1.1-2.6,2.8c0,0.8,0.2,1.5,0.7,2c-0.4,0.6-0.7,1.4-0.7,2.3v2.4    c0,0.1,0.1,0.2,0.2,0.2h1.4c0.1,0,0.2-0.1,0.2-0.2v-1.9c0-0.5-0.1-2,1.1-2h1.4v3.9c0,0.1,0.1,0.2,0.2,0.2h1.4    c0.1,0,0.2-0.1,0.2-0.2v-9.3C45,111.8,44.9,111.7,44.8,111.7z M43.2,115.6h-1.5c-0.5,0-1-0.1-1-1.1c0-1,0.5-1,1-1h1.5V115.6z"/>
		<path class="st1" d="M54.3,115.8h-1.6v-2.3H56c0.1,0,0.2-0.1,0.2-0.2v-1.4c0-0.1-0.1-0.2-0.2-0.2h-4.9c-0.1,0-0.2,0.1-0.2,0.2v9.3    c0,0.1,0.1,0.2,0.2,0.2h3.2c1.6,0,2.6-1.1,2.6-2.8C56.9,116.9,55.9,115.8,54.3,115.8z M54.2,119.7h-1.5v-2.1h1.5    c0.5,0,1,0.1,1,1.1C55.2,119.6,54.7,119.7,54.2,119.7z"/>
		<path class="st1" d="M64.2,111.7h-5.4c-0.1,0-0.2,0.1-0.2,0.2v9.3c0,0.1,0.1,0.2,0.2,0.2h5.4c0.1,0,0.2-0.1,0.2-0.2v-1.4    c0-0.1-0.1-0.2-0.2-0.2h-3.8v-2.2h2.9c0.1,0,0.2-0.1,0.2-0.2v-1.4c0-0.1-0.1-0.2-0.2-0.2h-2.9v-2.2h3.8c0.1,0,0.2-0.1,0.2-0.2    v-1.4C64.4,111.8,64.4,111.7,64.2,111.7z"/>
		<path class="st1" d="M70.4,116.5c1-0.2,1.6-0.9,1.6-2.4c0-1.4-1.3-2.6-2.7-2.6h-0.6c-1.4,0-2.8,1.1-2.8,2.8v0.3    c0,0.1,0.1,0.2,0.2,0.2h1.4c0.1,0,0.2-0.1,0.2-0.2v-0.3c0-0.5,0.3-1,1-1h0.6c0.7,0,1,0.5,1,0.9c0,0.8,0,1.3-1,1.3h-1    c-0.1,0-0.2,0.1-0.2,0.2v1.4c0,0.1,0.1,0.2,0.2,0.2h1c0.9,0.1,1.1,0.5,1.1,1.4c0,0.5-0.3,1-1.1,1h-0.6c-0.7,0-1-0.5-1-0.9v-0.3    c0-0.1-0.1-0.2-0.2-0.2h-1.4c-0.1,0-0.2,0.1-0.2,0.2v0.3c0,1.6,1.4,2.7,2.8,2.7h0.6c1.5,0,2.8-1,2.8-2.6    C72.1,117.5,71.5,116.7,70.4,116.5z"/>
		<path class="st1" d="M84.6,111.7H78c-0.1,0-0.2,0.1-0.2,0.2v9.3c0,0.1,0.1,0.2,0.2,0.2h1.4c0.1,0,0.2-0.1,0.2-0.2v-7.7h3.5v7.7    c0,0.1,0.1,0.2,0.2,0.2h1.4c0.1,0,0.2-0.1,0.2-0.2v-9.3C84.8,111.8,84.8,111.7,84.6,111.7z"/>
		<path class="st1" d="M92.1,111.7h-5.4c-0.1,0-0.2,0.1-0.2,0.2v9.3c0,0.1,0.1,0.2,0.2,0.2h5.4c0.1,0,0.2-0.1,0.2-0.2v-1.4    c0-0.1-0.1-0.2-0.2-0.2h-3.8v-2.2h2.9c0.1,0,0.2-0.1,0.2-0.2v-1.4c0-0.1-0.1-0.2-0.2-0.2h-2.9v-2.2h3.8c0.1,0,0.2-0.1,0.2-0.2    v-1.4C92.3,111.8,92.3,111.7,92.1,111.7z"/>
		<path class="st1" d="M96.7,113.4h0.6c0.7,0,1,0.4,1,1.3c0,0.1,0.1,0.2,0.2,0.2h1.4c0.1,0,0.2-0.1,0.2-0.2c0-1.8-1.2-3.1-2.8-3.1    h-0.6c-1.7,0-2.8,1.3-2.8,3.2v3.6c0,1.9,1.2,3.2,2.8,3.2h0.6c1.6,0,2.8-1.3,2.8-3.1c0-0.1-0.1-0.2-0.2-0.2h-1.4    c-0.1,0-0.2,0.1-0.2,0.2c0,0.9-0.3,1.4-1,1.4h-0.6c-0.8,0-1.1-0.4-1.1-1.4v-3.6C95.6,113.7,95.9,113.4,96.7,113.4z"/>
		<path class="st1" d="M107.6,111.7h-1.4c-0.1,0-0.2,0.1-0.2,0.2v4h-2.6v-4c0-0.1-0.1-0.2-0.2-0.2h-1.4c-0.1,0-0.2,0.1-0.2,0.2v9.3    c0,0.1,0.1,0.2,0.2,0.2h1.4c0.1,0,0.2-0.1,0.2-0.2v-3.5h2.6v3.5c0,0.1,0.1,0.2,0.2,0.2h1.4c0.1,0,0.2-0.1,0.2-0.2v-9.3    C107.8,111.8,107.7,111.7,107.6,111.7z"/>
		<path class="st1" d="M116,111.7h-1.4c-0.1,0-0.2,0-0.2,0.1l-3.1,5.7v-5.7c0-0.1-0.1-0.2-0.2-0.2h-1.4c-0.1,0-0.2,0.1-0.2,0.2v9.3    c0,0.1,0.1,0.2,0.2,0.2h1.4c0.1,0,0.2,0,0.2-0.1l3.1-5.7v5.7c0,0.1,0.1,0.2,0.2,0.2h1.4c0.1,0,0.2-0.1,0.2-0.2v-9.3    C116.2,111.8,116.1,111.7,116,111.7z"/>
		<path class="st1" d="M118.4,117.9h1.4c0.1,0,0.2-0.1,0.2-0.2v-5.7c0-0.1-0.1-0.2-0.2-0.2h-1.4c-0.1,0-0.2,0.1-0.2,0.2v5.7    C118.2,117.8,118.2,117.9,118.4,117.9z"/>
		<path class="st1" d="M119.8,119.2h-1.5c-0.1,0-0.2,0.1-0.2,0.2v1.8c0,0.1,0.1,0.2,0.2,0.2h1.5c0.1,0,0.2-0.1,0.2-0.2v-1.8    C120,119.3,119.9,119.2,119.8,119.2z"/>
	</g>
</g>
</svg>