<?xml version="1.0" encoding="UTF-8" standalone="no"?>
<svg
   xmlns:dc="http://purl.org/dc/elements/1.1/"
   xmlns:cc="http://creativecommons.org/ns#"
   xmlns:rdf="http://www.w3.org/1999/02/22-rdf-syntax-ns#"
   xmlns:svg="http://www.w3.org/2000/svg"
   xmlns="http://www.w3.org/2000/svg"
   xmlns:sodipodi="http://sodipodi.sourceforge.net/DTD/sodipodi-0.dtd"
   xmlns:inkscape="http://www.inkscape.org/namespaces/inkscape"
   viewBox="0 0 312 88.14"
   version="1.1"
   id="svg38"
   sodipodi:docname="FR_logo_standard_black-blue.svg"
   inkscape:version="0.92.3 (2405546, 2018-03-11)">
  <metadata
     id="metadata42">
    <rdf:RDF>
      <cc:Work
         rdf:about="">
        <dc:format>image/svg+xml</dc:format>
        <dc:type
           rdf:resource="http://purl.org/dc/dcmitype/StillImage" />
      </cc:Work>
    </rdf:RDF>
  </metadata>
  <sodipodi:namedview
     pagecolor="#ffffff"
     bordercolor="#666666"
     borderopacity="1"
     objecttolerance="10"
     gridtolerance="10"
     guidetolerance="10"
     inkscape:pageopacity="0"
     inkscape:pageshadow="2"
     inkscape:window-width="1920"
     inkscape:window-height="1017"
     id="namedview40"
     showgrid="false"
     inkscape:zoom="1.1217949"
     inkscape:cx="156"
     inkscape:cy="44.07"
     inkscape:window-x="-8"
     inkscape:window-y="-8"
     inkscape:window-maximized="1"
     inkscape:current-layer="svg38" />
  <defs
     id="defs4">
    <style
       id="style2">.cls-1,.cls-3{fill:#231f20;}.cls-2{fill:#00aeef;}.cls-3{font-size:12px;font-family:MyriadPro-Regular, Myriad Pro;}</style>
  </defs>
  <title
     id="title6">Asset 19</title>
  <g
     id="Layer_2"
     data-name="Layer 2">
    <g
       id="Layer_1-2"
       data-name="Layer 1">
      <polygon
         class="cls-1"
         points="31.42 62.12 63.49 62.12 63.49 39.24 31.42 39.24 31.42 24.57 63.49 24.57 63.49 0.11 61.81 0.11 0 0.11 0 80.61 18.34 80.61 20.07 80.61 31.42 80.61 31.42 62.12"
         id="polygon8"
         style="fill:#ffffff" />
      <path
         class="cls-2"
         d="M131.75,48.46c5.48-2.06,16.53-6.05,16.53-22.24a27,27,0,0,0-6.38-17.9c-5-5.38-11.37-7.19-17.59-7.83-3-.31-45-.38-45-.38H78.16V24.57h31.89V39.24H78.16V80.61h72.18Z"
         id="path10" />
      <path
         class="cls-1"
         d="M186.65.05V7.23H167.34V15h17.78v7.23H167.34v15h-9.28V.05Z"
         id="path12"
         style="fill:#ffffff" />
      <path
         class="cls-1"
         d="M189.16,17.57a7.64,7.64,0,0,1,2.9-6.12c2.53-2,5.8-2.43,9-2.43,3.38,0,11.56.79,11.56,7.92V33c0,3,.15,3.37.79,4.32h-8V34.77C203.4,36.3,201.08,38,197,38c-6.33,0-9-4.54-9-8.39,0-4.43,3.54-7,5.81-7.91s7.44-1.9,10.87-2.54V17.73c-.11-1.27-.21-3.38-3.12-3.38-3.58,0-4.06,2.22-4.27,3.22Zm10.28,8.28c-1.37.53-3.48,1.32-3.48,3.43a3,3,0,0,0,3.06,2.8,5.31,5.31,0,0,0,2.8-.9c2.69-1.69,2.8-4.22,2.85-7.07Z"
         id="path14"
         style="fill:#ffffff" />
      <path
         class="cls-1"
         d="M225.39,12.66a9.4,9.4,0,0,1,7.81-3.59c4.54,0,6.17,1.69,7.65,3.22A11.5,11.5,0,0,1,249,9.07c4.54,0,6.86,2.27,7.7,4,.69,1.48.74,3.38.74,6.33V37.3h-8V22.85a20.71,20.71,0,0,0-.32-4.7,3.56,3.56,0,0,0-3.53-2.48,4.36,4.36,0,0,0-2.64.84c-1.53,1.22-1.53,2.8-1.53,5.81v15h-8V21a7.17,7.17,0,0,0-.79-3.91,4,4,0,0,0-3.17-1.42,4.2,4.2,0,0,0-2.21.63c-1.8,1.22-1.85,3.43-1.85,5.33V37.3h-8V9.81h8Z"
         id="path16"
         style="fill:#ffffff" />
      <path
         class="cls-1"
         d="M261.74,0h8V6.28h-8Zm0,9.71h8V37.3h-8Z"
         id="path18"
         style="fill:#ffffff" />
      <path
         class="cls-1"
         d="M282.19.05V37.3h-8.12V.05Z"
         id="path20"
         style="fill:#ffffff" />
      <path
         class="cls-1"
         d="M312,9.76l-9.71,29.76a13.77,13.77,0,0,1-2.58,5c-1.9,2.06-3.75,2.16-5.86,2.22h-8V40.31h4.95c1.32-.05,3.38-.05,3.38-2a7.5,7.5,0,0,0-.37-1.95L285.62,9.76h8.65l4.54,19.73,4.54-19.73Z"
         id="path22"
         style="fill:#ffffff" />
      <path
         class="cls-1"
         d="M158.06,43.1h16.78c3.9,0,8.76.1,12.18,3.79a12.5,12.5,0,0,1,3,8.29c0,7.49-5.12,9.34-7.65,10.29l8.6,14.87H180.64l-7.39-13.29H167.4V80.34h-9.34Zm9.34,7V60.14h7.7c1.32-.06,5.59-.16,5.59-5.12,0-4.75-3.43-4.91-5.38-5Z"
         id="path24"
         style="fill:#ffffff" />
      <path
         class="cls-1"
         d="M193.19,60.61a7.64,7.64,0,0,1,2.9-6.12c2.53-2,5.8-2.43,9-2.43,3.38,0,11.56.79,11.56,7.92V76c0,3,.15,3.38.79,4.32h-8V77.81c-2.06,1.53-4.38,3.27-8.44,3.27-6.33,0-9-4.53-9-8.39,0-4.43,3.53-7,5.8-7.91s7.44-1.9,10.87-2.53V60.77c-.11-1.27-.21-3.38-3.11-3.38-3.59,0-4.07,2.22-4.28,3.22Zm10.28,8.29c-1.37.52-3.48,1.31-3.48,3.43a3,3,0,0,0,3.06,2.79,5.31,5.31,0,0,0,2.8-.9c2.69-1.68,2.8-4.22,2.85-7.07Z"
         id="path26"
         style="fill:#ffffff" />
      <path
         class="cls-1"
         d="M247.27,43.1V80.34h-7.39V77.76a9.72,9.72,0,0,1-7.44,3.32,11.19,11.19,0,0,1-7.76-3.16c-4-3.85-4-9.39-4-11.19,0-10.39,5.92-14.67,11.45-14.67a11.29,11.29,0,0,1,7.29,2.8V43.1Zm-7.71,23.47c0-1.26,0-4.69-1.74-6.8a4.25,4.25,0,0,0-3.16-1.64c-5.75,0-5.75,7.23-5.75,8.44,0,3.85,1.05,8.55,5.17,8.55a4.88,4.88,0,0,0,2.64-.84C239.56,72.33,239.56,68.1,239.56,66.57Z"
         id="path28"
         style="fill:#ffffff" />
      <path
         class="cls-1"
         d="M251.56,43h8v6.28h-8Zm0,9.71h8V80.34h-8Z"
         id="path30"
         style="fill:#ffffff" />
      <path
         class="cls-1"
         d="M293.14,66.52c0,7-4,14.62-14.77,14.62-7.76,0-14.83-4.44-14.83-14.62,0-8.44,5.33-15.14,15.88-14.56C290.66,52.59,293.14,61.51,293.14,66.52Zm-20.05-5.43a10,10,0,0,0-1.37,5.38c0,4.38,2.11,8.23,6.65,8.23,4.38,0,6.54-3.54,6.54-7.86,0-3.06-.74-5.44-2.27-6.91a5.85,5.85,0,0,0-4.75-1.53A5.44,5.44,0,0,0,273.09,61.09Z"
         id="path32"
         style="fill:#ffffff" />
      <text
         class="cls-3"
         transform="translate(293.14 85.14)"
         id="text34"
         style="fill:#ffffff;">®</text>
    </g>
  </g>
</svg>
