<?xml version="1.0" encoding="UTF-8"?>
<svg width="345px" height="183px" viewBox="0 0 345 183" version="1.1" xmlns="http://www.w3.org/2000/svg" xmlns:xlink="http://www.w3.org/1999/xlink">
    <!-- Generator: Sketch 47.1 (45422) - http://www.bohemiancoding.com/sketch -->
    <title>ReachFM</title>
    <desc>Created with Sketch.</desc>
    <defs>
        <polygon id="path-1" points="0.06 179.279 0.06 0.087 344.615 0.087 344.615 179.279"></polygon>
    </defs>
    <g id="Page-1" stroke="none" stroke-width="1" fill="none" fill-rule="evenodd">
        <g id="ReachFM">
            <path d="M25.828,43.424 L25.343,43.424 C25.201,43.424 25.033,43.379 24.847,43.284 L24.847,21.382 C29.512,21.382 33.226,21.798 35.98,22.63 C38.73,23.463 40.105,26.328 40.105,31.225 C40.105,35.94 39.457,39.175 38.148,40.929 C36.844,42.685 34.086,43.563 29.889,43.563 L28.838,43.563 C28.415,43.563 28.02,43.516 27.65,43.424 L25.828,43.424 Z M24.847,61.307 C25.691,61.399 26.479,61.469 27.229,61.514 C27.98,61.561 28.717,61.584 29.469,61.584 C31.989,61.584 34.133,61.977 35.909,62.762 C37.678,63.548 38.749,66.02 39.127,70.177 L39.127,95.269 C39.127,97.206 39.291,98.779 39.617,99.98 C39.941,101.181 40.295,102.058 40.666,102.613 C40.949,103.263 41.248,103.679 41.58,103.861 C41.904,104.048 42.068,104.093 42.068,104 L64.328,104.136 C64.141,103.587 63.999,103.025 63.91,102.474 C63.72,101.919 63.586,101.199 63.488,100.32 C63.396,99.441 63.352,98.353 63.352,97.056 L63.352,68.17 C63.352,63.262 61.969,59.606 59.223,57.198 C56.466,54.789 53.08,52.849 49.066,51.366 C49.813,51.181 50.769,50.927 51.937,50.602 C53.104,50.276 54.295,49.747 55.511,49.004 C57.472,47.711 59.266,45.626 60.898,42.754 C62.529,39.883 63.352,35.579 63.352,29.839 L63.352,27.344 C63.352,17.735 60.732,11.313 55.511,8.077 C50.279,4.842 44.167,3.18 37.168,3.087 L1.895,3.087 L1.895,104 L24.847,104 L24.847,61.307 L24.847,61.307 Z" id="Fill-1" fill="#9A2529"></path>
            <polyline id="Fill-2" fill="#9A2529" points="127.607 85.009 98.348 85.009 98.348 63.106 123.549 63.106 123.549 43.284 98.348 43.284 98.348 22.217 127.607 22.217 127.607 3.087 74.268 3.087 74.268 103.861 127.607 103.861 127.607 85.009"></polyline>
            <path d="M162.191,67.958 L168.49,18.195 L174.51,67.958 L162.191,67.958 Z M153.232,3.087 L134.191,103.861 L157.152,103.861 L160.229,86.118 L176.471,86.118 L178.434,103.861 L202.645,103.861 L184.453,3.087 L153.232,3.087 L153.232,3.087 Z" id="Fill-3" fill="#9A2529"></path>
            <path d="M220.713,97.972 C226.402,102.544 233.313,104.83 241.43,104.83 C252.443,104.83 260.404,102.361 265.299,97.415 C270.205,92.473 272.654,86.721 272.654,80.157 L272.654,64.079 L249.41,64.079 L249.41,75.306 C249.41,79.28 248.732,82.307 247.377,84.385 C246.027,86.465 244.514,87.643 242.83,87.92 L242.131,87.92 C240.355,87.92 238.746,86.881 237.301,84.802 C235.852,82.723 235.127,79.512 235.127,75.167 L235.127,29.285 C235.127,25.776 235.779,23.279 237.09,21.798 C238.398,20.322 239.842,19.582 241.43,19.582 L241.994,19.582 C242.178,19.582 242.32,19.629 242.412,19.721 C244.182,19.997 245.793,20.899 247.242,22.424 C248.688,23.948 249.41,25.867 249.41,28.178 L249.41,41.206 L272.654,41.206 L272.654,27.344 C272.654,18.383 269.873,11.634 264.318,7.106 C258.768,2.58 251.467,0.312 242.412,0.312 C231.678,0.312 224.09,2.996 219.658,8.355 C215.232,13.715 212.775,19.629 212.311,26.097 C212.219,26.652 212.166,27.184 212.166,27.689 L212.166,79.325 C212.166,87.181 215.014,93.398 220.713,97.972" id="Fill-4" fill="#9A2529"></path>
            <g id="Group-8" transform="translate(0.000000, 3.000000)">
                <mask id="mask-2" fill="white">
                    <use xlink:href="#path-1"></use>
                </mask>
                <g id="Clip-6"></g>
                <polyline id="Fill-5" fill="#9A2529" mask="url(#mask-2)" points="321.373 0.087 321.373 38.206 307.09 38.206 307.09 0.087 283.154 0.087 283.154 100.861 307.09 100.861 307.09 59 321.373 59 321.373 100.861 344.615 100.861 344.615 0.087 321.373 0.087"></polyline>
                <path d="M24.345,149.003 C23.254,149.003 22.224,148.572 21.258,147.699 C20.289,146.828 19.809,145.523 19.809,143.781 L19.809,130.175 C19.809,128.314 20.246,126.873 21.131,125.849 C22.016,124.828 22.999,124.201 24.096,123.958 C24.264,123.898 24.412,123.865 24.539,123.865 L24.975,123.865 C26.237,123.865 27.393,124.347 28.443,125.308 C29.5,126.269 30.023,127.654 30.023,129.453 L30.023,143.958 C30.023,145.22 29.559,146.287 28.638,147.158 C27.709,148.031 26.699,148.589 25.609,148.826 C25.437,148.888 25.25,148.931 25.037,148.958 C24.828,148.99 24.598,149.003 24.345,149.003 M42.323,117.154 C37.314,114.421 31.829,112.937 25.861,112.695 C25.527,112.636 25.189,112.605 24.847,112.605 L23.465,112.605 C17.579,112.666 12.193,114.062 7.318,116.794 C2.436,119.529 0,123.748 0,129.453 L0,143.869 C0.254,148.736 1.91,152.369 4.982,154.771 C8.053,157.173 11.436,158.646 15.135,159.185 C15.727,159.308 16.316,159.382 16.902,159.412 C17.494,159.441 18.081,159.457 18.668,159.457 C21.529,159.457 24.175,159.007 26.619,158.105 C29.057,157.205 30.481,156.062 30.904,154.681 L30.904,163.332 C30.904,164.714 30.402,165.855 29.389,166.755 C28.383,167.658 27.291,168.228 26.113,168.468 C25.861,168.529 25.624,168.572 25.42,168.601 C25.211,168.634 24.975,168.646 24.725,168.646 C23.375,168.646 22.18,168.257 21.131,167.476 C20.076,166.699 19.555,165.585 19.555,164.142 C19.555,164.083 19.574,164.023 19.615,163.962 C19.658,163.906 19.682,163.812 19.682,163.691 C19.682,163.634 19.7,163.574 19.742,163.513 C19.785,163.453 19.809,163.363 19.809,163.242 L1.769,163.242 L1.769,164.414 C1.68,164.656 1.641,164.863 1.641,165.042 L1.641,165.585 C1.641,169.609 3.11,172.64 6.057,174.685 C8.998,176.724 12.193,178.08 15.643,178.74 C16.82,178.919 17.936,179.052 18.983,179.146 C20.038,179.234 21.068,179.279 22.076,179.279 L24.345,179.279 C33.514,179.279 40.049,177.763 43.959,174.73 C47.871,171.697 49.83,167.417 49.83,161.89 L49.83,128.193 C49.83,123.568 47.324,119.89 42.323,117.154" id="Fill-7" fill="#9A2529" mask="url(#mask-2)"></path>
            </g>
            <path d="M81.172,171.646 L80.73,171.646 C79.467,171.646 78.316,171.199 77.26,170.298 C76.205,169.394 75.685,168.042 75.685,166.242 L75.685,152.003 C75.685,150.746 76.126,149.751 77.006,149.031 C77.891,148.31 78.881,147.894 79.971,147.771 C80.139,147.71 80.287,147.681 80.414,147.681 L81.359,147.681 C81.529,147.681 81.693,147.71 81.867,147.771 C82.875,147.951 83.803,148.343 84.641,148.941 C85.477,149.542 85.898,150.324 85.898,151.283 L85.898,166.332 C85.898,167.896 85.459,169.111 84.574,169.982 C83.693,170.853 82.707,171.378 81.615,171.556 C81.445,171.617 81.295,171.646 81.172,171.646 M101.164,140.607 C98.135,138.535 94.814,137.23 91.199,136.689 C90.525,136.628 89.853,136.568 89.18,136.507 C88.508,136.451 87.836,136.417 87.162,136.417 C84.725,136.417 82.414,136.705 80.225,137.275 C78.037,137.845 76.521,138.58 75.685,139.482 L75.685,131.916 C75.685,130.593 76.186,129.57 77.201,128.849 C78.207,128.128 79.299,127.71 80.481,127.589 C80.649,127.529 80.795,127.5 80.92,127.5 L81.74,127.5 C83.001,127.56 84.156,127.933 85.209,128.623 C86.26,129.314 86.783,130.203 86.783,131.281 L86.783,132.453 L104.824,132.453 L104.824,131.193 C104.824,126.208 102.637,122.363 98.264,119.66 C93.887,116.957 88.256,115.605 81.359,115.605 C72.361,115.847 65.826,117.541 61.746,120.697 C57.67,123.849 55.631,127.347 55.631,131.193 C55.631,131.253 55.644,131.341 55.693,131.464 C55.728,131.583 55.754,131.703 55.754,131.824 C55.754,132.001 55.777,132.14 55.82,132.228 C55.857,132.318 55.879,132.394 55.879,132.453 L55.879,166.332 C55.879,171.439 58.045,175.373 62.373,178.136 C66.711,180.898 72.738,182.279 80.481,182.279 L82.493,182.279 C88.721,182.279 94.141,181.037 98.768,178.541 C103.391,176.05 105.705,172.369 105.705,167.505 L105.705,150.025 C105.705,145.82 104.193,142.679 101.164,140.607" id="Fill-9" fill="#9A2529"></path>
            <polygon id="Fill-10" fill="#9A2529" points="111.127 181.648 130.049 181.648 130.049 166.873 111.127 166.873"></polygon>
            <path d="M184.293,142.591 C186.307,139.857 187.318,136.81 187.318,133.443 C187.318,132.96 187.295,132.496 187.258,132.042 C187.209,131.589 187.15,131.121 187.064,130.638 C186.391,127.015 184.23,123.695 180.568,120.671 C176.914,117.656 171.34,116.117 163.854,116.056 L162.094,116.144 C153.51,116.144 147.477,117.523 143.988,120.279 C140.498,123.033 138.289,126.068 137.369,129.39 C137.027,130.593 136.818,131.792 136.738,132.994 C136.652,134.195 136.609,135.306 136.609,136.33 L156.414,136.417 C156.498,135.998 156.557,135.58 156.602,135.156 C156.643,134.738 156.705,134.289 156.795,133.806 L156.795,133.535 C156.873,132.154 157.189,130.892 157.734,129.751 C158.285,128.609 159.734,128.011 162.094,127.951 L162.34,128.039 C163.434,128.039 164.34,128.642 165.053,129.839 C165.77,131.042 166.127,132.367 166.127,133.806 L166.127,134.48 C166.127,134.693 166.084,134.888 165.998,135.066 C165.746,136.929 164.865,138.625 163.354,140.156 C161.838,141.687 159.438,142.457 156.158,142.457 L155.844,142.457 C155.721,142.457 155.57,142.425 155.406,142.365 L154.963,142.365 C154.838,142.365 154.73,142.335 154.643,142.275 L154.643,152.636 C154.898,152.636 155.152,152.65 155.406,152.681 C155.66,152.71 155.91,152.726 156.158,152.726 C159.861,153.027 162.678,153.642 164.609,154.574 C166.549,155.507 167.508,158.103 167.508,162.365 L167.508,164.89 C167.508,167.294 166.969,169.097 165.873,170.298 C164.775,171.5 163.518,172.099 162.094,172.099 C159.9,172.099 158.367,171.347 157.486,169.847 C156.602,168.347 156.037,166.691 155.781,164.89 C155.699,163.929 155.633,162.998 155.594,162.097 C155.547,161.195 155.529,160.384 155.529,159.664 L136.609,159.753 C136.609,160.115 136.588,160.505 136.543,160.925 C136.506,161.347 136.439,161.796 136.355,162.277 C136.355,162.517 136.336,162.775 136.295,163.042 C136.254,163.314 136.227,163.599 136.227,163.898 C136.143,164.08 136.105,164.275 136.105,164.484 L136.105,165.162 C136.105,165.882 136.143,166.646 136.227,167.458 C136.313,168.269 136.439,169.068 136.609,169.847 C137.277,173.152 139.213,176.169 142.412,178.9 C145.607,181.636 151.24,183 159.313,183 L160.953,183 C162.385,183 163.877,182.988 165.43,182.955 C166.988,182.925 168.563,182.789 170.164,182.55 C174.453,182.068 178.381,180.523 181.959,177.91 C185.529,175.296 187.318,170.357 187.318,163.087 C187.318,159.185 186.75,155.822 185.615,152.998 C184.479,150.175 181.432,148.132 176.471,146.869 C179.666,146.751 182.275,145.328 184.293,142.591" id="Fill-11" fill="#9A2529"></path>
            <polyline id="Fill-12" fill="#9A2529" points="214.143 181.648 235.84 181.648 235.84 155.791 255.896 155.791 255.896 143.539 235.84 143.539 235.84 128.58 258.541 128.58 258.541 116.144 214.143 116.144 214.143 181.648"></polyline>
            <polyline id="Fill-13" fill="#9A2529" points="303.83 149.933 297.518 116.144 264.854 116.144 264.854 181.648 284.654 181.648 284.654 131.824 296.637 181.648 311.02 181.648 323 132.453 323 181.648 342.805 181.648 342.805 116.144 311.02 116.144 303.83 149.933"></polyline>
        </g>
    </g>
</svg>