<?xml version="1.0" encoding="UTF-8" standalone="no"?>
<!-- Created with Inkscape (http://www.inkscape.org/) -->
<svg xmlns:dc="http://purl.org/dc/elements/1.1/" xmlns:cc="http://creativecommons.org/ns#" xmlns:rdf="http://www.w3.org/1999/02/22-rdf-syntax-ns#" xmlns:svg="http://www.w3.org/2000/svg" xmlns="http://www.w3.org/2000/svg" xmlns:xlink="http://www.w3.org/1999/xlink" xmlns:sodipodi="http://sodipodi.sourceforge.net/DTD/sodipodi-0.dtd" xmlns:inkscape="http://www.inkscape.org/namespaces/inkscape" width="1028.968" height="322.47766" id="svg2" version="1.1" inkscape:version="0.48.2 r9819" sodipodi:docname="NPO_Radio_1_logo_2014.svg">
  <defs id="defs4">
    <clipPath id="clipPath18">
      <path d="m 0,0 1870.88,0 0,1247 L 0,1247 0,0 z" inkscape:connector-curvature="0" id="path20"/>
    </clipPath>
    <defs id="defs3221">
      <polyline id="SVGID_1_" points="0,0 226.484,0 226.66,226.719 0.18,226.719"/>
    </defs>
    <clipPath id="SVGID_2_">
      <use height="1" width="1" y="0" x="0" style="overflow:visible" xlink:href="#SVGID_1_" overflow="visible" id="use3225"/>
    </clipPath>
  </defs>
  <sodipodi:namedview id="base" pagecolor="#ffffff" bordercolor="#666666" borderopacity="1.0" inkscape:pageopacity="0.0" inkscape:pageshadow="2" inkscape:zoom="0.82394415" inkscape:cx="435.48064" inkscape:cy="144.72344" inkscape:document-units="px" inkscape:current-layer="layer1" showgrid="false" fit-margin-top="5" fit-margin-left="5" fit-margin-right="5" fit-margin-bottom="5" inkscape:window-width="1366" inkscape:window-height="706" inkscape:window-x="-8" inkscape:window-y="-8" inkscape:window-maximized="1"/>
  <metadata id="metadata7">
    <rdf:RDF>
      <cc:Work rdf:about="">
        <dc:format>image/svg+xml</dc:format>
        <dc:type rdf:resource="http://purl.org/dc/dcmitype/StillImage"/>
        <dc:title/>
      </cc:Work>
    </rdf:RDF>
  </metadata>
  <g inkscape:label="Ebene 1" inkscape:groupmode="layer" id="layer1" transform="translate(-151.22783,-189.32837)">
    <g id="layer1-9" transform="matrix(0.54674441,0,0,0.54674441,153.18678,187.00033)" style="fill:#e5e7e4;fill-opacity:1">
      <rect style="fill:#e5e7e4;fill-opacity:1;fill-rule:nonzero;stroke:none" id="rect3273" transform="matrix(0.7071068,0.7071068,-0.7071068,0.7071068,0,0)" y="-209.43587" x="201.53545" ry="45.945595" height="429.96051" width="429.96051"/>
    </g>
    <path d="m 326.49974,258.16411 -8.07232,8.07837 c -4.31204,4.306 -7.89974,4.42534 -11.73971,0.58272 l -9.22304,-9.24381 c -3.84753,-3.8192 -3.72214,-7.43069 0.56799,-11.71894 l 8.07497,-8.07837 c 4.29731,-4.30599 7.8971,-4.42118 11.73971,-0.58838 l 9.2321,9.24494 c 3.82676,3.81807 3.701,7.43938 -0.5797,11.72347 z m 10.68758,-21.48919 -9.60069,-9.57728 c -9.5059,-9.5312 -20.96086,-9.69925 -31.64314,0.9887 l -7.60291,7.61499 c -10.69399,10.68493 -10.51687,22.1161 -1.00758,31.6473 l 9.60031,9.57274 c 9.51836,9.55197 20.96577,9.71851 31.64617,-0.96491 l 7.60479,-7.62367 c 10.69513,-10.68342 10.52103,-22.12365 1.00305,-31.65787 m -48.09143,48.09143 -9.60975,-9.56935 c -9.51799,-9.53006 -20.9552,-9.7068 -31.6356,0.98832 l -7.61347,7.61499 c -10.68946,10.67738 -10.52292,22.1059 -1.00192,31.64768 l 30.79192,30.77114 c 3.55673,3.54049 7.55758,3.02122 10.29103,0.2923 2.73081,-2.73231 3.19268,-6.66519 -0.35235,-10.22645 l -7.08703,-7.06589 c 1.9283,-0.40597 4.30185,-1.87806 7.09006,-4.65872 l 8.12368,-8.13879 c 10.70268,-10.6804 10.51839,-22.11497 1.00343,-31.65523 z m -10.11279,9.77327 c 3.82978,3.82525 3.71006,7.43976 -0.58989,11.72083 l -8.06931,8.0795 c -4.31355,4.30185 -7.88803,4.41967 -11.72951,0.57668 l -9.23928,-9.24192 c -3.83091,-3.82071 -3.72176,-7.4322 0.57252,-11.72045 l 8.06478,-8.07686 c 4.31959,-4.30751 7.91145,-4.41098 11.75444,-0.58423 l 9.23625,9.24645 m -28.05695,49.99782 -20.39023,-20.38003 c -9.52969,-9.52817 -20.95519,-9.7068 -31.65069,0.98266 l -7.61499,7.60026 c -10.68607,10.68795 -10.51952,22.13233 -0.9853,31.6624 l 20.37852,20.40042 c 3.56542,3.5522 7.55305,3.02123 10.29104,0.30401 2.72174,-2.74553 3.19531,-6.70484 -0.36897,-10.23816 l -20.2014,-20.22482 c -3.8294,-3.82071 -3.7161,-7.42767 0.59027,-11.72498 l 8.07648,-8.0693 c 4.28712,-4.30487 7.90276,-4.43025 11.72952,-0.58574 l 20.20895,20.20139 c 3.53747,3.55976 7.49414,3.08316 10.22759,0.3584 2.73798,-2.7395 3.26141,-6.73128 -0.29079,-10.28651" style="fill:#4c4319;fill-opacity:1;fill-rule:nonzero;stroke:none" id="path3966" inkscape:connector-curvature="0" sodipodi:nodetypes="cccccccccccccccccccccccccccccccccccccccccccccccccccccc"/>
    <path style="fill:#4c4319" inkscape:connector-curvature="0" d="m 1158.966,480.39563 c -18.8993,1.79751 -20.8799,0.89876 -21.7807,2.15532 -0.9009,1.26501 -12.0564,5.8851 -14.2203,4.08759 l -25.5609,3.77815 c -1.7996,0.18101 -13.6834,-0.3052 -14.7632,0.95769 -1.0798,1.25869 -4.86,5.7588 -8.2782,5.39467 -3.4204,-0.35782 -8.8214,-2.8794 -10.2611,-3.41615 -1.4418,-0.54302 -3.5992,-0.90083 -4.8579,-0.3578 -1.2608,0.54094 -13.2772,3.31088 -15.5988,5.09366 -6.2429,4.80321 -24.0013,2.40582 -28.3247,1.44392 -1.9617,-0.44411 -12.0585,6.78175 -13.6834,6.95855 -1.6186,0.1831 -12.48162,-4.08125 -13.9171,-7.67839 -1.44392,-3.60137 -8.87604,-71.03358 -8.87604,-71.03358 l 1.23554,-7.5058 c -0.33468,-0.20207 -0.57884,-0.36204 -0.57884,-0.36204 0,0 -5.04316,-2.87728 -5.6704,-3.32771 -0.63145,-0.45043 -2.24795,-1.53232 -3.3256,-1.89225 -1.08611,-0.35781 -2.88152,0.90087 -3.9655,1.44392 -1.07347,0.54303 -1.26079,2.16165 -1.97854,3.23931 -0.71985,1.08189 -3.78026,2.51949 -8.81711,2.34058 -5.04105,-0.17891 -16.92067,0.17891 -19.26334,0.54093 -2.33634,0.35992 -21.23766,-0.36202 -22.85837,-0.71984 -1.61861,-0.36414 -6.11662,-0.54305 -10.0821,-0.72197 -3.95917,-0.1789 -16.19873,3.23722 -22.31745,3.78027 -6.12292,0.54305 -20.70094,0.54305 -20.3431,-5.57989 0.36202,-6.12294 22.32163,-15.65988 24.48118,-17.46372 2.16166,-1.79752 -16.37763,-6.29554 -23.93816,-7.91834 -7.56052,-1.61861 -10.79774,-9.18124 -12.60368,-12.59738 -1.7975,-3.42243 -1.25868,-1.62281 -2.33634,-4.86003 -1.07978,-3.24353 3.23722,-14.76323 5.39887,-16.92488 2.15955,-2.15954 14.76323,-8.27826 22.32375,-8.63818 7.55842,-0.36204 19.79587,4.3191 21.23766,6.12081 1.4376,1.79752 -0.35781,15.11895 -0.72195,16.19661 -0.35782,1.08189 -2.15744,3.24353 -5.75458,3.24353 -0.40624,0 -0.81878,0.0212 -1.23133,0.0526 -3.22037,0.24838 -6.33341,1.38287 -6.33341,1.38287 l 12.9615,-0.71775 4.32122,-0.71985 -0.72616,-10.80406 2.16374,-5.75878 5.04106,-3.60137 8.63819,2.34269 c 0,0 8.28248,0.0906 9.26964,0.0906 0.99138,0 24.4854,2.69628 25.11053,2.87519 0.63355,0.18311 2.34058,-0.17891 2.88363,-0.35782 0.54092,-0.17891 7.01746,-3.0583 14.03495,-4.13808 7.02379,-1.08188 8.37509,-0.90086 11.4334,0.71564 2.51526,1.32814 8.72238,6.31446 12.77627,9.96424 1.87329,-2.22691 7.81942,-9.08864 10.53886,-9.69062 3.23721,-0.72616 10.20001,-1.31973 10.20001,-1.31973 0,0 8.1835,1.86698 10.3178,3.835 3.1236,2.87729 1.4418,15.84301 2.1574,18.72451 0.7199,2.8794 7.6805,-11.0377 13.6856,-12.60368 2.6542,-0.68408 18.7182,-3.60137 22.6753,0.72195 3.9591,4.32119 6.8449,6.84067 8.6382,4.68113 1.8017,-2.15746 6.8428,-7.92467 9.7243,-6.11873 2.8772,1.79963 6.1166,8.99812 6.4744,12.96151 0.364,3.95917 0.364,11.15766 3.2435,11.87961 2.8815,0.71564 12.2396,1.4418 12.5995,-1.79961 0.362,-3.24143 -2.1596,-23.0394 0.362,-25.19895 2.5152,-2.16166 7.1963,-4.32543 9.7179,-2.16166 2.5153,2.16166 5.7588,5.03896 5.7588,2.51527 0,-2.51527 0,-7.37531 6.3019,-9.89688 6.2976,-2.51737 14.0391,-2.33635 15.6556,-1.25868 1.6229,1.07977 10.4463,8.81921 9.0024,11.15556 -1.4439,2.34267 -3.9591,5.7651 -5.761,5.40729 -1.7974,-0.36415 -1.6206,1.07557 -0.7198,2.15533 0.8967,1.08189 13.3194,14.22231 11.5239,19.08022 -1.7995,4.86006 -12.9593,13.85606 -15.8388,13.49824 -2.8857,-0.36204 -10.6251,-2.87728 -10.4398,0.35782 0.1788,3.24353 7.0174,14.94424 13.1362,14.04338 6.1207,-0.89664 32.0395,-2.15955 35.1041,5.21996 3.0626,7.38794 4.5001,54.90643 -14.4011,56.70816 m -87.9542,-69.66341 c 0,0 -7.2027,11.52391 -9.6022,12.4774 -2.408,0.97243 1.9217,3.3656 3.8392,9.12441 1.9174,5.75879 5.2746,17.76051 6.2408,21.11558 0.9556,3.36562 7.6783,-9.10968 11.044,-9.10968 3.3551,0 8.634,-0.9619 8.634,-2.88149 0,-1.92381 -2.8836,-18.2404 -1.9176,-21.59969 0.9556,-3.36771 -7.2027,-4.32122 -11.5238,-7.19851 -4.3191,-2.8836 -6.7144,-1.92802 -6.7144,-1.92802" id="path236"/>
    <path style="fill:#4c4319" inkscape:connector-curvature="0" d="m 875.64207,210.08369 c 14.91898,0.0442 24.44331,-0.0273 31.0735,-0.0273 30.24001,0 52.52587,14.1802 78.38152,44.40967 25.84091,30.22947 25.40101,63.51934 25.40101,63.51934 v 38.64878 c 0,0 -8.2677,4.30646 -9.6948,5.73564 -1.44393,1.43759 -1.18293,6.17345 -0.7094,10.00211 0.4694,3.81606 0.9556,12.25218 0,14.63696 -0.95554,2.38896 -2.05216,20.02529 -0.7219,22.55947 9.4843,18.1057 -8.12042,18.69716 -8.12042,18.69716 l -1.43127,0.94927 c 0,0 -1.9154,2.86045 -2.87308,6.20924 -0.94928,3.34877 1.4376,14.32753 1.4376,14.32753 l 0.46937,47.2596 c 0.94926,1.91538 0,2.39106 0,2.39106 -14.06023,0 -47.29118,0.3894 -60.27793,0.3894 -15.77777,0 -14.89373,-10.94508 -14.89373,-10.94508 V 421.5764 c 0,0 5.0642,0.0652 9.43592,0.23994 4.37594,0.17051 18.22146,4.94633 18.22146,4.94633 l 9.55799,-0.9619 21.37239,-10.23575 c 0,0 11.56388,7.37741 15.85983,7.37741 4.29804,0 12.89627,-3.81395 5.73566,-14.31912 -7.15852,-10.50937 -4.71061,-10.02948 -1.83751,-12.89203 2.86465,-2.87098 7.26373,-18.56457 -0.84616,-26.20296 -8.12251,-7.63839 -12.12797,-10.0842 -14.51486,-11.5218 -2.38686,-1.43128 0,-1.90906 -8.58978,-1.43128 -8.60029,0.47569 -19.09496,5.07473 -19.09496,5.07473 0,0 -15.51465,-2.86676 -19.3391,-2.86676 -3.81184,0 -15.96088,-0.23366 -15.96088,-0.23366 l 0.19996,-47.10172 h -5.39047 c 0,0 -0.0632,29.18969 -0.0632,46.15878 0,0 -0.73246,1.42495 -3.11722,2.38056 -2.3953,0.95768 -6.21345,2.86465 -5.25574,5.72932 0.95768,2.86677 2.29635,7.9415 0.91558,13.75713 -0.72195,3.02673 -5.24732,1.60387 -5.24732,1.60387 H 883.3857 c 0,0 -3.83499,-2.94044 -1.92381,-4.37802 1.9175,-1.4313 5.23469,-0.95561 8.58347,-1.9112 3.34246,-0.95348 3.81603,-4.77373 3.81603,-8.59609 0,-6.12292 0.50516,-8.22565 -5.72931,-11.96382 -2.38056,-1.43549 -11.95119,-0.95559 -15.29366,0 -3.34035,0.95349 -12.43739,3.35088 -16.73544,5.25364 -4.29804,1.91119 -6.20081,8.12041 -7.64051,11.46497 -1.42706,3.33825 0.46937,10.12842 0.46937,10.12842 h -18.42558 c -10.93878,0 -15.13789,-11.3913 -15.13789,-11.3913 V 311.3194 h -3.78025 v 79.40867 c 5.36517,1.36815 27.18799,7.34164 27.18799,30.64833 v 68.3499 c 0,7.00486 -3.94655,10.94508 -7.01748,12.69631 -3.05831,1.75753 -11.3892,2.63313 -18.83186,0.87771 -7.45107,-1.75332 -16.21134,-5.69355 -16.21134,-5.69355 0,0 -67.47223,-53.44569 -74.91698,-60.89465 -7.45108,-7.44896 -7.88676,-28.03835 -7.88676,-28.03835 v -97.15232 c -0.37888,0.12412 -2.38688,0.33257 -11.385,0.33257 -13.1425,0 -13.57821,15.33363 -13.57821,15.33363 v 64.83907 c 0,15.33153 -12.70049,15.33153 -12.70049,15.33153 h -28.47407 c -11.83332,0 -9.1244,16.21135 -9.1244,16.21135 v 67.90161 c 0,15.76934 -18.92657,15.33364 -18.92657,15.33364 h -65.71469 c -15.77143,0 -17.08695,-15.77356 -17.08695,-15.77356 v -29.35175 c -45.99881,46.00512 -82.79743,44.24549 -82.79743,44.24549 h -59.14133 c -17.09116,0 -15.33153,-15.32524 -15.33153,-15.32524 v -80.39371 c 0,-13.13831 13.57821,-13.57821 13.57821,-13.57821 h 66.5903 c 7.44897,-4.82004 -0.87772,-8.32458 -0.87772,-8.32458 h -37.68054 c -13.14042,0 -15.321,-14.45803 -15.321,-14.45803 v -58.05524 c 0,0 0.42726,-14.01179 28.90765,-14.01179 28.47823,0 25.40941,-8.32459 25.40941,-8.32459 h -63.52568 c -16.20923,0 -19.27596,-14.45593 -19.27596,-14.45593 v -72.28803 c 0,0 2.63103,-12.26482 13.14672,-12.26482 h 58.6972 c 0,0 33.31094,0.11997 40.76202,5.81775 5.51883,4.22226 33.07518,20.6462 50.3663,31.01246 v -6.59862 c 0,-11.3913 14.45593,-15.88931 14.45593,-15.88931 h 278.99433 c 0,0 12.0038,-0.61673 18.72451,6.09978 5.78405,5.77773 9.21912,4.96738 14.39909,-0.95981 3.3614,-3.84342 8.6403,-3.84342 8.6403,-3.84342" id="path238"/>
    <path style="fill:#98d5e9" inkscape:connector-curvature="0" d="m 715.92177,223.57142 c -5.59883,0.40621 -103.60572,-1.59336 -115.61163,-2.3932 -11.98696,-0.79982 -19.19177,1.20185 -21.58918,5.99876 -2.40581,4.79899 -3.60135,41.59973 -3.60135,45.20108 0,3.59925 -0.402,22.40163 1.6039,18.00254 1.99745,-4.39906 1.50492,-33.76345 1.50492,-41.35556 0,-7.60472 0.0885,-23.0415 8.09094,-24.24336 7.99624,-1.20816 64.8012,3.19934 64.8012,3.19934 0,0 -32.40375,1.19553 -37.99206,1.19553 h -27.20274 c 0,0 -1.20184,59.20237 -2.00378,60.40633 -0.79984,1.19553 -2.80362,2.79942 -2.80362,5.59672 0,2.79941 4.39908,13.59295 2.3995,13.59295 -1.99958,0 -3.60347,0.40413 -3.19723,2.00379 0.39361,1.60388 2.0059,3.59926 0.39361,4.00548 -1.59548,0.39782 -1.99118,1.59755 -0.79985,4.39908 1.20397,2.79942 6.01137,13.19725 4.80953,14.79901 -1.20606,1.59967 -14.40542,11.59337 -14.40542,24.79272 0,13.20144 -1.59756,22.40794 -0.402,23.60559 1.20393,1.19975 4.4117,1.99325 4.00334,4.79689 -0.40411,2.79941 -3.19509,16.00296 -2.79941,23.59928 0.40203,7.5963 3.20566,20.39785 3.20566,21.99962 0,1.59545 0.39151,15.19682 0.39151,15.19682 0,0 3.59923,6.00716 8.00041,6.40076 4.40331,0.40624 40.39789,1.60388 42.80791,-0.79561 2.3995,-2.40582 5.20101,-5.60515 5.20101,-11.20188 0,-5.59883 -2.41212,-65.20111 -1.20817,-67.19859 1.20817,-2.00168 2.80153,-11.59757 18.00465,-11.59757 15.19894,0 32.40165,3.59923 33.99922,-7.20691 1.59546,-10.79985 0.40201,-40.79359 0.40201,-40.79359 0,0 -5.60304,-7.20269 -6.80698,-7.60473 -1.19135,-0.39571 -2.39529,1.20185 -2.39529,1.20185 h -29.19811 c 0,0 -10.79774,-1.59756 -11.99961,-11.99959 -1.20185,-10.39782 0,-21.19977 0,-21.19977 0,0 86.38827,-0.79564 88.38995,-1.59757 2.0038,-0.79561 4.00549,-2.00168 4.00549,-7.60261 v -37.99628 c -0.002,0 -2.40792,-5.60303 -7.99833,-5.20732 m 157.83857,159.41721 c -3.64344,-0.95561 -1.68385,-13.70242 2.49845,-13.38668 3.3172,0.25889 13.8792,3.53398 12.14272,-4.07073 -2.00379,-8.83605 -30.99563,-1.90277 -31.67128,6.9859 -4.60115,21.52182 13.20776,14.02866 26.405,21.90279 24.06235,14.36752 -16.19239,16.45131 -18.72239,25.39259 10.53254,0.64197 35.61782,1.94276 38.50142,-12.47529 4.54643,-22.6963 -13.39299,-20.2063 -29.15392,-24.34858 m 64.91908,24.43277 c -3.1867,-2.24373 -13.98444,0.81457 -18.26355,0.50307 -2.50475,-0.19576 -2.83099,-10.63568 -0.96823,-12.22061 2.07115,-1.75755 10.79143,-1.09241 13.50455,-1.14713 2.90465,-0.0611 13.81185,-5.15472 6.61757,-7.84889 -6.04295,-2.27532 -14.59696,5.38415 -20.64621,1.42496 -1.67123,-1.09239 -1.27131,-7.1543 -0.44412,-8.68239 3.67292,-6.69754 17.59842,0.21049 23.39301,-2.71313 3.23932,-1.63964 7.43214,-9.18966 1.97643,-9.58535 -3.41822,-0.2589 -6.83647,-0.41676 -10.26942,-0.6146 -3.40983,-0.19996 -25.78832,-3.85394 -22.84577,3.11093 -0.45464,5.99873 -4.43277,41.90492 2.0901,43.41197 6.59228,1.5344 13.33825,1.12608 20.04633,1.34917 3.2309,0.10942 11.50917,-2.96148 5.80931,-6.988 m -58.35833,-78.64882 c -1.59756,-10 -1.59756,-35.59256 -0.40413,-39.19181 1.20606,-3.60135 5.19682,-18.80237 21.60602,-17.60264 16.39658,1.19553 21.59548,11.606 21.59548,16.00507 v 70.7789 c 0,0 22.39955,3.00147 25.58413,3.09199 3.18248,0.0906 6.16292,-2.8815 13.0036,-4.12125 6.78595,-1.22078 8.01306,-1.22078 8.01306,-1.22078 0.0442,-29.79378 -0.1726,-63.48149 -1.41023,-70.37478 -1.98907,-11.19555 -7.9878,-40.80622 -55.58628,-53.59511 0,0 -12.0017,0 -12.39741,-1.59756 -0.40412,-1.6102 0,-2.80573 -2.41002,-2.80573 -2.39949,0 -24.78851,3.19722 -27.20273,6.00296 0,0 4.00335,-5.36099 0.40621,-4.16125 -3.59923,1.19765 -5.20311,3.35931 -7.20058,4.16125 -2.0038,0.79771 -0.40624,-4.00128 -2.80152,-2.40161 -2.3974,1.59967 -4.39908,4.79478 -6.79438,3.99285 -2.41212,-0.79563 -14.80953,-16.79438 -48.0068,-16.79438 -33.19729,0 -42.79948,3.19933 -50.4,3.19933 -7.5942,0 -11.99538,-1.19555 -14.4033,0.79983 -2.39529,1.99326 -11.19556,10.39993 -11.19556,10.39993 0,0 -0.79352,4.8032 1.20606,6.79647 1.99117,2.0059 3.59083,3.20775 3.19723,7.2027 -0.39361,4.00127 -3.60135,29.43807 -2.39738,41.8418 1.19132,12.39951 4.39696,37.99836 4.39696,46.40082 0,8.39404 -1.60598,44.79484 0.39571,57.59848 2.0038,12.79734 2.80153,34.39493 23.19937,45.9946 20.40626,11.59968 47.20486,14.80533 50.80412,13.20356 3.59714,-1.60599 6.40286,-3.60346 6.40286,-6.00296 v -38.80452 c 0,0 -1.60387,-9.59798 -7.60683,-9.59798 -5.99663,0 -18.79818,1.20185 -18.79818,-6.79649 v -113.5973 c 0,0 20.40837,-2.39741 27.20696,4.40328 6.79646,6.79648 8.40034,10.39994 8.40034,19.59802 0,9.19807 -1.20397,28.40247 -0.40201,30.79988 0.79561,2.40581 1.98904,7.59841 13.19301,7.99832 11.20819,0.40622 33.20361,-0.3978 33.20361,-0.3978 0,0 9.20017,-1.20187 7.60261,-11.20609 m 93.03951,-44.38861 c 1.2271,46.33769 1.39338,56.65131 0.13468,72.02074 l 2.89203,1.32602 c 0.58514,-20.03581 0.62933,-37.3585 0.32415,-48.55405 -0.79772,-30.00006 -3.19303,-46.23666 -20.79145,-63.43938 -17.60475,-17.20483 -30.80199,-20.39783 -54.8096,-20.39783 0,0 61.8397,-5.11894 72.24806,53.28149 m 77.67643,140.88424 c 4.4454,-0.96612 10.2841,-4.90003 11.9996,-9.22123 1.7259,-4.30016 1.4523,-9.06757 3.3235,-13.02676 5.4073,-11.49865 -5.8956,-25.12316 -17.2827,-26.70809 -10.8672,-1.51967 -22.1638,6.31236 -23.1194,18.01517 -2.2143,8.0215 0.7093,18.16253 5.1063,24.95057 4.5443,7.03012 12.3511,7.63842 19.9727,5.99034 m -44.9906,-4.10231 c 0,0 0.8629,1.40393 1.7996,2.1385 0.924,0.73459 1.5976,0.46307 2.5763,0.52622 0.9766,0.0715 1.2713,0.42938 2.9489,-0.11582 1.6712,-0.54724 1.0229,-0.58934 2.0648,-1.51547 1.044,-0.92401 0.7767,-1.60387 1.2397,-3.55715 0.4862,-1.97432 0.8335,-2.26899 1.6418,-4.22437 0.7998,-1.93644 -0.2126,-6.00717 -0.2715,-9.66955 -0.042,-3.6645 1.5765,-25.5231 1.3492,-26.87229 -0.221,-1.3534 0.1599,-1.98695 0.2399,-3.30668 0.099,-1.34498 -0.5178,-1.71332 -1.7449,-2.80573 -1.2145,-1.09031 -1.2145,-1.09031 -2.4668,-1.84382 -1.2587,-0.75774 -1.9302,-0.48201 -3.2688,0.0885 -1.364,0.5662 -1.4124,1.22921 -3.1089,2.09641 -1.6986,0.8735 -1.5617,3.55292 -1.5617,3.55292 l 0.3283,4.34859 c 0,0 0.3894,3.36981 -0.9703,8.58766 -1.3724,5.22839 -0.4294,28.85713 -0.5094,29.85061 -0.065,0.99136 -0.2862,2.72154 -0.2862,2.72154 M 547.24755,252.13806 c -0.90086,-2.33004 -3.77395,-3.93602 -5.20102,-4.48115 -1.42706,-0.53253 -9.48223,-11.45656 -10.91141,-11.80597 -1.44391,-0.36412 -20.96192,-14.32542 -31.34713,-18.44877 -10.38518,-4.11702 -61.58922,-4.11702 -71.4377,-4.11702 -9.84637,0 -9.84637,3.93601 -11.10083,6.9859 -1.25027,3.04357 2.68576,39.02764 2.87308,42.61004 0.17469,3.57609 2.68366,4.8369 2.68366,4.8369 h 28.1078 c 30.08003,0 32.23326,3.75708 32.23326,3.75708 8.58768,4.30016 7.87625,12.35322 9.48645,16.29135 1.60808,3.93602 2.86255,-3.39509 -1.43549,-13.42878 -4.29805,-10.02948 -20.58939,-9.49063 -22.74051,-10.3852 -2.14903,-0.89244 -1.78911,-0.71354 13.42876,-0.71354 15.22209,0 18.44457,15.21577 18.44457,22.19958 0,6.9838 -6.8028,14.14443 -8.05304,15.04105 -1.25449,0.90088 -1.25449,-2.32792 -1.43551,-2.86885 -0.18312,-0.52622 -1.07977,1.26079 -1.25868,1.7954 -0.181,0.53885 -0.71775,0.35994 -3.3993,0.71565 -2.68575,0.35992 -5.90611,3.93391 -7.51841,4.11913 -1.61441,0.17682 -19.51803,0.89878 -20.05476,0.89878 -0.53673,0 -1.787,0 -4.47696,0.5325 -2.68154,0.54306 -10.02317,7.69945 -10.381,8.23828 -0.3557,0.53673 -2.15323,4.47486 -5.90822,5.55042 -3.76344,1.07978 -3.58663,2.32583 -3.58663,2.32583 0,0 4.1465,0.36203 5.03684,0.89665 0.90297,0.54096 2.15745,1.79543 2.15745,1.79543 l -3.97181,1.61018 c 0,0 0.18523,0.53463 0.89876,1.24816 0.71354,0.72196 2.33216,3.2288 2.33216,4.47697 0,1.26079 -0.18523,1.43758 -0.18523,1.43758 0,0 -0.18312,1.43339 -0.53252,3.58242 -0.36204,2.14902 -1.4376,11.09663 -1.6165,14.50222 -0.18103,3.4014 1.6165,4.83898 1.6165,4.83898 l 0.88822,1.4313 0.71565,0.89244 v 3.58451 c 0,3.5761 7.87836,8.59189 7.87836,8.59189 0,0 2.50473,-0.18102 4.47906,-0.53884 1.968,-0.36202 7.16271,-1.61018 17.72471,-1.78908 10.57041,-0.17892 13.96971,1.06713 20.05265,7.87413 6.08294,6.807 4.11913,19.16021 -0.35782,26.49762 -4.47695,7.34161 -20.41046,6.9796 -25.42205,6.9796 -5.0137,0 -36.88493,-1.96801 -40.64413,-1.96801 -3.76764,0 -6.98592,7.16693 -6.98592,7.16693 v 41.71759 c 0,1.42707 7.16693,8.23407 7.16693,8.23407 h 3.93601 c 2.86257,0 1.61231,-0.36204 2.68366,-0.54305 1.07767,-0.17891 56.22402,-2.68154 56.22402,-2.68154 60.87571,-12.71524 60.51368,-66.78395 60.51368,-66.78395 0,0 0.88823,-12.53 0,-26.3187 -0.90086,-13.7887 -13.61401,-28.65296 -13.61401,-28.65296 0,0 10.74515,-14.50224 13.07517,-22.01645 2.32794,-7.52686 4.839,-27.22168 2.86468,-27.22168 -1.9659,0 -1.07977,13.25196 -4.47697,23.27934 -3.39507,10.02738 -9.13492,18.62347 -15.7588,23.27513 -6.61546,4.65798 -0.70723,-3.40139 -0.70723,-3.40139 17.89732,-19.87164 13.9613,-41.7176 14.68113,-43.32567 0.71988,-1.61861 2.50475,-6.44498 2.50475,-6.44498 0,0 1.25238,-0.54304 1.97433,-0.71984 0.70511,-0.17471 0.53672,-0.17471 3.75711,-3.57609 3.21616,-3.40351 0.71985,-14.68115 0,-16.65126 -0.71775,-1.97434 -5.0137,-8.60031 -5.89982,-10.92826 m -17.37111,92.02709 c 1.26079,-2.68155 5.19682,1.44181 10.38309,10.02738 5.19682,8.59821 3.40981,17.01329 3.40981,17.01329 -1.44391,-12.53212 -15.60516,-23.16989 -13.7929,-27.04067 m 592.40466,62.04387 c 0.5724,-1.73016 -7.9984,-6.11451 -8.6699,-9.9516 -0.6356,-3.56346 -1.3133,-6.7207 -1.4797,-10.41045 -0.303,-6.23659 1.9596,-17.1901 -4.5001,-20.35995 -9.1139,-4.51697 -4.7695,21.07138 -5.1947,24.4012 -0.5978,4.65377 -8.2614,5.03897 -12.3889,5.00318 -5.6789,-0.0441 -7.2827,-0.0947 -8.2572,-5.94612 -0.4315,-2.54686 -1.7786,-22.44796 -7.931,-17.99415 -5.4578,2.52158 -2.2332,20.30523 -0.6904,25.42417 3.2751,10.89456 17.5058,14.498 27.308,9.98526 4.1717,-1.92589 5.8682,-3.47926 10.3578,-0.0947 2.8394,2.14062 9.6275,5.43466 11.4461,-0.0568 m 0.7429,20.98089 c -3.4182,0.08 -2.8457,3.45401 -2.8457,3.45401 0,0 2.6752,47.04068 2.7089,48.72875 0.046,1.68597 3.9697,2.07536 4.9548,2.04591 0.9766,-0.0315 2.4247,-0.53673 3.3509,-2.74469 0.9093,-2.20376 1.5175,-45.93357 1.4375,-49.31182 -0.101,-3.38665 -6.186,-2.25846 -9.6064,-2.17216 m 21.8587,-45.93777 c -3.2436,-3.56557 -13.5362,-12.18691 -13.7447,-17.15853 -0.2587,-6.04294 8.211,1.59967 8.7415,2.02274 1.6648,1.29447 4.1485,-2.98252 3.0793,-4.46855 -6.5671,-9.14544 -9.3728,-7.89729 -19.4738,-5.61144 -7.8741,1.80803 -5.7841,14.44749 -1.0672,18.17936 1.5177,0.90718 20.5663,14.72533 14.8011,17.84048 -4.8368,2.62051 -8.3456,-1.63755 -11.3849,-4.58853 -1.8985,-1.84381 -6.3398,-0.0314 -5.9503,2.82679 2.894,20.93457 39.9284,7.40056 24.999,-9.04232 m -37.0113,40.57257 c -0.6652,-3.02673 -1.8207,-3.18879 -2.7931,-3.54031 -0.9745,-0.36415 -1.7512,-0.72617 -2.3174,-0.14108 -0.5599,0.57459 -4.778,1.65649 -5.7482,1.87117 -0.9557,0.20837 -1.505,0.99137 -1.4692,2.31741 0.034,1.32604 0.3578,27.46373 0.3578,27.46373 0,0 -17.6153,-2.77836 -19.3097,14.20336 -1.6859,16.9733 13.5951,26.29345 25.1232,17.24061 0,0 1.6017,2.42895 2.208,3.17617 0.5956,0.74089 1.3597,1.10924 2.711,0.6967 1.3386,-0.41886 5.7125,-2.62262 6.8638,-3.22248 1.1345,-0.6062 4.5633,-2.02274 4.5569,-2.59105 -0.015,-0.57672 -1.6522,-11.95119 -1.8879,-13.27091 -0.2295,-1.33865 -7.6469,-41.17456 -8.2952,-44.20339 m -83.4247,48.76455 c -0.6166,-1.32184 0.9241,-1.73858 0.9241,-1.73858 0,0 8.053,-1.33868 8.7287,-12.7763 0.8693,-14.72744 -6.8723,-27.61526 -17.2785,-27.33953 -10.3936,0.25679 -16.5629,8.21721 -17.12486,8.60661 -0.57252,0.40624 -1.10292,2.14062 -1.67754,2.52158 -0.56199,0.38939 0.0442,1.71964 0.0442,1.71964 0,0 0.0252,0.94929 0.62304,1.50495 0.58513,0.54305 0.45043,2.46686 0.67142,3.78449 0.23995,1.33234 0.32627,50.2316 0.15997,51.19771 -0.17261,0.94086 0.79567,1.31761 1.94277,0.89667 1.1513,-0.41466 9.3286,-4.62012 9.3286,-4.62012 0,0 0.1557,-9.31384 0.3157,-10.47359 0.1662,-1.14713 1.486,-1.94905 2.2753,-1.19344 0.7956,0.73249 13.1046,14.50224 13.6898,15.0495 0.5935,0.56199 2.1363,0.71141 3.4876,0.10524 1.3282,-0.60619 7.6111,-3.42244 7.9878,-4.00547 0.3579,-0.57463 -4.8305,-7.30374 -7.3942,-10.27575 -2.5973,-2.98676 -6.0829,-11.65441 -6.7039,-12.96361 m -40.15156,-80.61474 c 4.15282,-1.18921 4.54642,-13.32774 2.54471,-16.16925 -2.82255,-3.99074 -8.64028,-5.98823 -13.10883,-7.34162 -9.56431,-2.87729 -23.95076,-0.92402 -25.05371,10.94718 -0.25468,7.43213 -0.4862,14.86848 -0.64196,22.30691 -0.15994,7.52264 -1.95537,16.77335 7.7626,15.63255 7.4616,-0.87561 3.20563,-3.3109 3.92759,-7.94361 0.42517,-2.72575 0.08,-10.36837 2.86676,-11.80175 6.74807,-3.48769 11.68599,8.62978 13.80133,12.66892 1.51548,2.89203 2.89203,9.13284 6.56074,8.74134 3.02673,-0.33045 9.76849,3.19722 7.80047,-3.80764 -1.27972,-4.68953 -21.11769,-19.00232 -6.4597,-23.23303 m 89.31396,85.70631 c -0.8146,-2.45213 -13.8582,-44.56332 -14.0602,-45.31475 -0.2147,-0.75142 -0.4189,-0.94926 -1.5618,-0.72826 -1.1597,0.21679 -11.3513,1.43759 -11.3513,1.43759 0,0 -1.326,0.41675 -2.109,0.43779 -0.7641,0.0189 -0.5431,1.67755 -0.5431,1.67755 l -2.189,57.37327 c 0,0 0.6167,0.94928 1.1955,1.11556 0.5789,0.18313 9.2486,-0.22311 10.0085,-0.0673 0.7767,0.17891 0.5514,-1.33868 1.5239,-1.35973 0.964,-0.0211 0.3578,-0.97031 0.3578,-0.97031 0,0 1.2334,-19.62959 1.1976,-20.38733 0,-0.75774 4.0329,-0.86297 4.6054,-1.07345 0.5725,-0.19364 0.9682,0.54934 1.385,1.10924 0.4062,0.56409 4.5295,18.7224 4.7505,19.66536 0.2105,0.94928 1.0293,3.02463 1.7955,3.00358 0.7893,-0.0189 6.1797,-0.3515 6.7417,-0.55566 0.5704,-0.19788 1.1261,-1.16607 1.8901,-1.9533 0.7284,-0.77876 0.4926,-2.66679 0.2905,-3.233 -0.2084,-0.5683 -3.092,-7.72681 -3.9276,-10.17681 M 967.45439,415.13136 c -3.03306,1.01453 -1.99748,3.25406 -3.08147,4.32122 -1.06924,1.08188 -9.66534,1.83751 -14.67272,1.11555 -5.02001,-0.71564 -26.58391,1.24605 -26.58391,1.24605 v 19.36437 c 0,0 1.59755,4.79479 6.79647,4.79479 h 38.39408 c 0,0 5.21575,-0.80404 5.21575,-10.39783 0,-2.56367 0.13052,-6.31867 0.53673,-17.34375 -0.002,-0.002 -0.84614,-5.01367 -6.60493,-3.1004 m 203.17021,9.66326 c -1.0041,-1.18292 -6.1546,-1.29236 -12.0292,-1.14503 -5.8619,0.15373 -13.6582,1.55126 -18.0004,4.09388 -4.3464,2.51738 -3.6876,8.53507 -3.6876,8.53507 0,0 -0.1473,32.61423 0.6546,35.25999 0.8083,2.62682 3.5528,4.49591 5.7778,5.64304 2.2331,1.15554 9.539,0.007 13.9043,-1.55337 4.3528,-1.56599 9.878,-6.04927 11.9133,-12.39531 2.0417,-6.33129 2.4543,-28.56665 2.6458,-30.25892 0.2169,-1.69018 -0.1726,-6.99855 -1.1786,-8.17935" id="path240"/>
  </g>
<style xmlns="" type="text/css" id="undefined"/></svg>