<?xml version="1.0" encoding="UTF-8" standalone="no"?>
<!-- Created with Inkscape (http://www.inkscape.org/) -->
<svg xmlns:dc="http://purl.org/dc/elements/1.1/" xmlns:cc="http://creativecommons.org/ns#" xmlns:rdf="http://www.w3.org/1999/02/22-rdf-syntax-ns#" xmlns:svg="http://www.w3.org/2000/svg" xmlns="http://www.w3.org/2000/svg" xmlns:xlink="http://www.w3.org/1999/xlink" xmlns:sodipodi="http://sodipodi.sourceforge.net/DTD/sodipodi-0.dtd" xmlns:inkscape="http://www.inkscape.org/namespaces/inkscape" width="475.09879" height="321.78476" id="svg2" version="1.1" inkscape:version="0.48.2 r9819" sodipodi:docname="NPO_Radio_1_logo_2014.svg">
  <defs id="defs4">
    <clipPath id="clipPath18">
      <path d="m 0,0 1870.88,0 0,1247 L 0,1247 0,0 z" inkscape:connector-curvature="0" id="path20"/>
    </clipPath>
    <defs id="defs3221">
      <polyline id="SVGID_1_" points="0,0 226.484,0 226.66,226.719 0.18,226.719"/>
    </defs>
    <clipPath id="SVGID_2_">
      <use height="1" width="1" y="0" x="0" style="overflow:visible" xlink:href="#SVGID_1_" overflow="visible" id="use3225"/>
    </clipPath>
    <clipPath id="clipPath18-8">
      <path d="m 0,0 1870.88,0 0,1247 L 0,1247 0,0 z" inkscape:connector-curvature="0" id="path20-8"/>
    </clipPath>
    <defs id="defs3221-9">
      <polyline id="SVGID_1_-4" points="0,0 226.484,0 226.66,226.719 0.18,226.719"/>
    </defs>
    <clipPath id="SVGID_2_-4">
      <use height="1" width="1" y="0" x="0" style="overflow:visible" xlink:href="#SVGID_1_-4" overflow="visible" id="use3225-0"/>
    </clipPath>
    <clipPath clipPathUnits="userSpaceOnUse" id="clipPath2999">
      <path inkscape:connector-curvature="0" d="m 0,124.725 187.086,0 L 187.086,0 0,0 0,124.725 z" id="path3001"/>
    </clipPath>
  </defs>
  <sodipodi:namedview id="base" pagecolor="#ffffff" bordercolor="#666666" borderopacity="1.0" inkscape:pageopacity="0.0" inkscape:pageshadow="2" inkscape:zoom="0.80143373" inkscape:cx="273.4118" inkscape:cy="35.195955" inkscape:document-units="px" inkscape:current-layer="layer1" showgrid="false" fit-margin-top="5" fit-margin-left="5" fit-margin-right="5" fit-margin-bottom="5" inkscape:window-width="1920" inkscape:window-height="1028" inkscape:window-x="-8" inkscape:window-y="-8" inkscape:window-maximized="1"/>
  <metadata id="metadata7">
    <rdf:RDF>
      <cc:Work rdf:about="">
        <dc:format>image/svg+xml</dc:format>
        <dc:type rdf:resource="http://purl.org/dc/dcmitype/StillImage"/>
        <dc:title/>
      </cc:Work>
    </rdf:RDF>
  </metadata>
  <g inkscape:label="Ebene 1" inkscape:groupmode="layer" id="layer1" transform="translate(-151.22783,-189.32837)">
    <g id="layer1-9" transform="matrix(0.54674441,0,0,0.54674441,153.18678,187.00033)" style="fill:#e5e7e4;fill-opacity:1">
      <rect style="fill:#e5e7e4;fill-opacity:1;fill-rule:nonzero;stroke:none" id="rect3273" transform="matrix(0.7071068,0.7071068,-0.7071068,0.7071068,0,0)" y="-209.43587" x="201.53545" ry="45.945595" height="429.96051" width="429.96051"/>
    </g>
    <path style="fill:#ee2722;fill-opacity:1" inkscape:connector-curvature="0" clip-path="url(#SVGID_2_)" d="M 10.078,99.156 99.25,9.98 c 7.035,-7.031 18.465,-7.031 25.531,0 l 89.508,89.176 c 7.059,7.035 7.078,18.438 0.047,25.48 l -89.18,89.168 c -7.027,7.031 -18.457,7.031 -25.516,0 L 10.128,124.636 c -7.066,-7.042 -7.085,-18.445 -0.05,-25.48" id="path3227" transform="matrix(1.4539851,0,0,1.4539851,302.03691,187.57808)"/>
    <path id="path3823" style="fill:#ffffff;fill-opacity:1;fill-rule:nonzero;stroke:none" d="m 500.42393,278.92481 c -3.15718,0 -5.3098,-2.08011 -5.3098,-5.16477 0,-3.08618 2.15262,-5.16629 5.3098,-5.16629 3.15717,0 5.3098,2.08011 5.3098,5.16629 0,3.08466 -2.15263,5.16477 -5.3098,5.16477 z m -89.6929,8.68149 -0.14464,0.71678 c -0.43241,2.00949 -1.00607,2.86941 -2.72477,2.86941 -1.00757,0 -2.79991,-0.28778 -4.80903,-0.28778 -1.72322,0 -4.23386,0.21715 -5.81245,0.71868 l 0,25.46776 c 0,2.22476 -0.93091,3.15869 -3.15415,3.15869 l -2.2984,0 c -2.22286,0 -3.15529,-0.93393 -3.15529,-3.15869 l 0,-28.33868 c 0,-2.15073 0.93243,-3.36942 3.01254,-3.94458 3.80296,-1.07556 7.82119,-1.5801 11.33676,-1.5801 1.64769,0 3.44003,0.0725 5.16326,0.28928 1.79688,0.21526 2.7293,1.21831 2.7293,2.72477 0,0.28739 -0.074,1.00455 -0.14313,1.36446 z m 93.99436,29.48485 c 0,2.22476 -0.92902,3.15869 -3.1534,3.15869 l -2.29613,0 c -2.22437,0 -3.15717,-0.93393 -3.15717,-3.15869 l 0,-29.98789 c 0,-2.22475 0.9328,-3.1568 3.15717,-3.1568 l 2.29613,0 c 2.22438,0 3.1534,0.93205 3.1534,3.1568 z m 26.90869,-33.85653 c -10.90283,0 -18,6.60733 -18,18.875 0,12.34018 7.09717,18.84375 18,18.84375 10.90661,0 18,-6.50357 18,-18.84375 0,-12.26767 -7.09339,-18.875 -18,-18.875 z m 0,7.375 c 5.95559,0 9.25,4.17996 9.25,11.5 0,7.38915 -3.29441,11.46875 -9.25,11.46875 -5.9518,0 -9.25,-4.0796 -9.25,-11.46875 0,-7.32004 3.2982,-11.5 9.25,-11.5 z m -50.21875,-21.3125 c -2.22437,0 -3.15625,0.93301 -3.15625,3.15625 l 0,11.5625 c -1.43508,-0.42939 -3.53808,-0.78125 -6.125,-0.78125 -11.47687,0 -18.5,7.23385 -18.5,19 0,11.54937 6.74053,18.71875 19.65625,18.71875 3.37244,0 8.25712,-0.49196 10.625,-1.28125 1.79008,-0.57403 2.9375,-1.50561 2.9375,-3.875 l 0,-43.34375 c 0,-2.22324 -0.93188,-3.15625 -3.15625,-3.15625 z m -8.25,21.40625 c 1.79385,0 3.80217,0.28671 5.09375,0.71875 l 0,21.5 c -1.29158,0.42901 -3.2999,0.71875 -5.09375,0.71875 -7.53417,0 -10.78125,-4.58225 -10.78125,-11.46875 0,-6.88763 3.24708,-11.46875 10.78125,-11.46875 z m -42.1875,-7.46875 c -4.01444,0 -8.90034,0.70456 -11.34375,1.78125 -1.00078,0.42939 -2,1.16793 -2,2.53125 0,0.43053 0.0622,0.92597 0.28125,1.5 l 0.28125,0.71875 c 0.64956,1.57859 1.28944,2.21875 2.4375,2.21875 0.50228,0 1.07296,-0.15974 1.71875,-0.375 2.08086,-0.64617 4.31734,-1.28125 7.1875,-1.28125 5.81208,0 8.03125,2.58363 8.03125,7.03125 l 0,1.09375 c -1.43508,-0.35877 -4.09055,-0.9375 -7.75,-0.9375 -9.25627,0 -15.5,3.6518 -15.5,11.6875 0,7.96318 6.08869,11.75 16.0625,11.75 4.08998,0 10.18914,-0.64623 12.625,-1.21875 1.79763,-0.43203 3.09375,-1.13712 3.09375,-3.71875 l 0,-17.875 c 0,-10.54632 -5.07943,-14.90625 -15.125,-14.90625 z m 0.40625,20.59375 c 2.29613,0 4.53716,0.27935 6.1875,0.78125 l 0,9.25 c -1.65034,0.50303 -3.95039,0.71875 -6.03125,0.71875 -5.88006,0 -8.53125,-1.65078 -8.53125,-5.3125 0,-3.72932 2.70643,-5.4375 8.375,-5.4375 z" inkscape:connector-curvature="0" sodipodi:nodetypes="sssssccsscssssscscscssssssssssssssssssssscssscsssssccsssscsccscsscssscssssccsss"/>
    <path d="m 326.49974,258.16411 -8.07232,8.07837 c -4.31204,4.306 -7.89974,4.42534 -11.73971,0.58272 l -9.22304,-9.24381 c -3.84753,-3.8192 -3.72214,-7.43069 0.56799,-11.71894 l 8.07497,-8.07837 c 4.29731,-4.30599 7.8971,-4.42118 11.73971,-0.58838 l 9.2321,9.24494 c 3.82676,3.81807 3.701,7.43938 -0.5797,11.72347 z m 10.68758,-21.48919 -9.60069,-9.57728 c -9.5059,-9.5312 -20.96086,-9.69925 -31.64314,0.9887 l -7.60291,7.61499 c -10.69399,10.68493 -10.51687,22.1161 -1.00758,31.6473 l 9.60031,9.57274 c 9.51836,9.55197 20.96577,9.71851 31.64617,-0.96491 l 7.60479,-7.62367 c 10.69513,-10.68342 10.52103,-22.12365 1.00305,-31.65787 m -48.09143,48.09143 -9.60975,-9.56935 c -9.51799,-9.53006 -20.9552,-9.7068 -31.6356,0.98832 l -7.61347,7.61499 c -10.68946,10.67738 -10.52292,22.1059 -1.00192,31.64768 l 30.79192,30.77114 c 3.55673,3.54049 7.55758,3.02122 10.29103,0.2923 2.73081,-2.73231 3.19268,-6.66519 -0.35235,-10.22645 l -7.08703,-7.06589 c 1.9283,-0.40597 4.30185,-1.87806 7.09006,-4.65872 l 8.12368,-8.13879 c 10.70268,-10.6804 10.51839,-22.11497 1.00343,-31.65523 z m -10.11279,9.77327 c 3.82978,3.82525 3.71006,7.43976 -0.58989,11.72083 l -8.06931,8.0795 c -4.31355,4.30185 -7.88803,4.41967 -11.72951,0.57668 l -9.23928,-9.24192 c -3.83091,-3.82071 -3.72176,-7.4322 0.57252,-11.72045 l 8.06478,-8.07686 c 4.31959,-4.30751 7.91145,-4.41098 11.75444,-0.58423 l 9.23625,9.24645 m -28.05695,49.99782 -20.39023,-20.38003 c -9.52969,-9.52817 -20.95519,-9.7068 -31.65069,0.98266 l -7.61499,7.60026 c -10.68607,10.68795 -10.51952,22.13233 -0.9853,31.6624 l 20.37852,20.40042 c 3.56542,3.5522 7.55305,3.02123 10.29104,0.30401 2.72174,-2.74553 3.19531,-6.70484 -0.36897,-10.23816 l -20.2014,-20.22482 c -3.8294,-3.82071 -3.7161,-7.42767 0.59027,-11.72498 l 8.07648,-8.0693 c 4.28712,-4.30487 7.90276,-4.43025 11.72952,-0.58574 l 20.20895,20.20139 c 3.53747,3.55976 7.49414,3.08316 10.22759,0.3584 2.73798,-2.7395 3.26141,-6.73128 -0.29079,-10.28651" style="fill:#ee2722;fill-opacity:1;fill-rule:nonzero;stroke:none" id="path3966" inkscape:connector-curvature="0" sodipodi:nodetypes="cccccccccccccccccccccccccccccccccccccccccccccccccccccc"/>
    <g transform="matrix(0.9934712,0,0,0.9934712,-37.711657,-340.63969)" id="layer1-5" inkscape:label="Ebene 1">
      <g id="g2993" inkscape:label="NPO_RD2_Logo_CMYK" transform="matrix(3.7951917,0,0,-3.7951917,73.519447,932.25372)">
        <g id="g2995">
          <g id="g2997" clip-path="url(#clipPath2999)">
            <g id="g3011" transform="translate(75.1074,67.6675)"/>
            <g id="g3015" transform="translate(123.585,48.8633)">
              <path inkscape:connector-curvature="0" d="m 0,0 c 2.433,0.001 3.676,1.518 3.676,3.399 l 0,10.782 c 0,1.884 -1.242,3.403 -3.676,3.403 l -19.465,0 c -2.371,0 -3.585,-1.486 -3.584,-3.311 -0.002,-1.821 1.213,-3.311 3.583,-3.312 l 15.093,0 c 0.518,0 0.821,-0.273 0.822,-0.878 L -3.552,7.502 C -3.551,6.895 -3.855,6.623 -4.375,6.623 l -15.001,0 c -2.431,0 -3.675,-1.521 -3.675,-3.404 l 0,-10.782 c 0.002,-1.884 1.246,-3.4 3.676,-3.4 l 19.466,-0.001 c 2.368,0 3.585,1.49 3.585,3.313 0,1.819 -1.217,3.307 -3.584,3.307 l -15.096,0 c -0.516,0 -0.816,0.273 -0.816,0.882 l 0,2.581 c 0,0.604 0.3,0.881 0.817,0.881 L 0,0 z" style="fill:#ffffff;fill-opacity:1;fill-rule:nonzero;stroke:none" id="path3017"/>
            </g>
          </g>
        </g>
      </g>
    </g>
  </g>
<style xmlns="" type="text/css" id="undefined"/></svg>