<?xml version="1.0" encoding="UTF-8" standalone="no"?>
<!-- Created with Inkscape (http://www.inkscape.org/) -->

<svg
   xmlns:dc="http://purl.org/dc/elements/1.1/"
   xmlns:cc="http://creativecommons.org/ns#"
   xmlns:rdf="http://www.w3.org/1999/02/22-rdf-syntax-ns#"
   xmlns:svg="http://www.w3.org/2000/svg"
   xmlns="http://www.w3.org/2000/svg"
   xmlns:xlink="http://www.w3.org/1999/xlink"
   xmlns:sodipodi="http://sodipodi.sourceforge.net/DTD/sodipodi-0.dtd"
   xmlns:inkscape="http://www.inkscape.org/namespaces/inkscape"
   width="475.09879"
   height="321.78476"
   id="svg2"
   version="1.1"
   inkscape:version="0.92.4 (5da689c313, 2019-01-14)"
   sodipodi:docname="NPO_3FM_logo_2014.svg">
  <defs
     id="defs4">
    <linearGradient
       inkscape:collect="always"
       id="linearGradient852">
      <stop
         style="stop-color:#feff2d;stop-opacity:1"
         offset="0"
         id="stop848" />
      <stop
         style="stop-color:#35d327;stop-opacity:1"
         offset="1"
         id="stop850" />
    </linearGradient>
    <clipPath
       id="clipPath18">
      <path
         d="m 0,0 1870.88,0 0,1247 L 0,1247 0,0 z"
         inkscape:connector-curvature="0"
         id="path20" />
    </clipPath>
    <defs
       id="defs3221">
      <polyline
         id="SVGID_1_"
         points="0,0 226.484,0 226.66,226.719 0.18,226.719" />
    </defs>
    <clipPath
       id="SVGID_2_">
      <use
         height="1"
         width="1"
         y="0"
         x="0"
         style="overflow:visible"
         xlink:href="#SVGID_1_"
         overflow="visible"
         id="use3225" />
    </clipPath>
    <linearGradient
       inkscape:collect="always"
       xlink:href="#linearGradient852"
       id="linearGradient846"
       x1="406.87903"
       y1="261.44543"
       x2="526.23187"
       y2="438.74417"
       gradientUnits="userSpaceOnUse" />
  </defs>
  <sodipodi:namedview
     id="base"
     pagecolor="#ffffff"
     bordercolor="#666666"
     borderopacity="1.0"
     inkscape:pageopacity="0.0"
     inkscape:pageshadow="2"
     inkscape:zoom="1.4142136"
     inkscape:cx="328.33725"
     inkscape:cy="167.61767"
     inkscape:document-units="px"
     inkscape:current-layer="layer1"
     showgrid="false"
     fit-margin-top="5"
     fit-margin-left="5"
     fit-margin-right="5"
     fit-margin-bottom="5"
     inkscape:window-width="1680"
     inkscape:window-height="987"
     inkscape:window-x="1672"
     inkscape:window-y="-8"
     inkscape:window-maximized="1" />
  <metadata
     id="metadata7">
    <rdf:RDF>
      <cc:Work
         rdf:about="">
        <dc:format>image/svg+xml</dc:format>
        <dc:type
           rdf:resource="http://purl.org/dc/dcmitype/StillImage" />
        <dc:title></dc:title>
      </cc:Work>
    </rdf:RDF>
  </metadata>
  <g
     inkscape:label="Ebene 1"
     inkscape:groupmode="layer"
     id="layer1"
     transform="translate(-151.22783,-189.32837)">
    <g
       id="layer1-9"
       transform="matrix(0.54674441,0,0,0.54674441,153.18678,187.00033)"
       style="fill:#e6e6e6;fill-opacity:1">
      <rect
         style="fill:#e6e6e6;fill-opacity:1;fill-rule:nonzero;stroke:none"
         id="rect3273"
         transform="matrix(0.7071068,0.7071068,-0.7071068,0.7071068,0,0)"
         y="-209.43587"
         x="201.53545"
         ry="45.945595"
         height="429.96051"
         width="429.96051" />
    </g>
    <path
       style="fill:#0c1015;fill-opacity:1"
       inkscape:connector-curvature="0"
       clip-path="url(#SVGID_2_)"
       d="M 10.078,99.156 99.25,9.98 c 7.035,-7.031 18.465,-7.031 25.531,0 l 89.508,89.176 c 7.059,7.035 7.078,18.438 0.047,25.48 l -89.18,89.168 c -7.027,7.031 -18.457,7.031 -25.516,0 L 10.128,124.636 c -7.066,-7.042 -7.085,-18.445 -0.05,-25.48"
       id="path3227"
       transform="matrix(1.4539851,0,0,1.4539851,302.03691,187.57808)" />
    <path
       d="m 326.49974,258.16411 -8.07232,8.07837 c -4.31204,4.306 -7.89974,4.42534 -11.73971,0.58272 l -9.22304,-9.24381 c -3.84753,-3.8192 -3.72214,-7.43069 0.56799,-11.71894 l 8.07497,-8.07837 c 4.29731,-4.30599 7.8971,-4.42118 11.73971,-0.58838 l 9.2321,9.24494 c 3.82676,3.81807 3.701,7.43938 -0.5797,11.72347 z m 10.68758,-21.48919 -9.60069,-9.57728 c -9.5059,-9.5312 -20.96086,-9.69925 -31.64314,0.9887 l -7.60291,7.61499 c -10.69399,10.68493 -10.51687,22.1161 -1.00758,31.6473 l 9.60031,9.57274 c 9.51836,9.55197 20.96577,9.71851 31.64617,-0.96491 l 7.60479,-7.62367 c 10.69513,-10.68342 10.52103,-22.12365 1.00305,-31.65787 m -48.09143,48.09143 -9.60975,-9.56935 c -9.51799,-9.53006 -20.9552,-9.7068 -31.6356,0.98832 l -7.61347,7.61499 c -10.68946,10.67738 -10.52292,22.1059 -1.00192,31.64768 l 30.79192,30.77114 c 3.55673,3.54049 7.55758,3.02122 10.29103,0.2923 2.73081,-2.73231 3.19268,-6.66519 -0.35235,-10.22645 l -7.08703,-7.06589 c 1.9283,-0.40597 4.30185,-1.87806 7.09006,-4.65872 l 8.12368,-8.13879 c 10.70268,-10.6804 10.51839,-22.11497 1.00343,-31.65523 z m -10.11279,9.77327 c 3.82978,3.82525 3.71006,7.43976 -0.58989,11.72083 l -8.06931,8.0795 c -4.31355,4.30185 -7.88803,4.41967 -11.72951,0.57668 l -9.23928,-9.24192 c -3.83091,-3.82071 -3.72176,-7.4322 0.57252,-11.72045 l 8.06478,-8.07686 c 4.31959,-4.30751 7.91145,-4.41098 11.75444,-0.58423 l 9.23625,9.24645 m -28.05695,49.99782 -20.39023,-20.38003 c -9.52969,-9.52817 -20.95519,-9.7068 -31.65069,0.98266 l -7.61499,7.60026 c -10.68607,10.68795 -10.51952,22.13233 -0.9853,31.6624 l 20.37852,20.40042 c 3.56542,3.5522 7.55305,3.02123 10.29104,0.30401 2.72174,-2.74553 3.19531,-6.70484 -0.36897,-10.23816 l -20.2014,-20.22482 c -3.8294,-3.82071 -3.7161,-7.42767 0.59027,-11.72498 l 8.07648,-8.0693 c 4.28712,-4.30487 7.90276,-4.43025 11.72952,-0.58574 l 20.20895,20.20139 c 3.53747,3.55976 7.49414,3.08316 10.22759,0.3584 2.73798,-2.7395 3.26141,-6.73128 -0.29079,-10.28651"
       style="fill:#0c1015;fill-opacity:1;fill-rule:nonzero;stroke:none"
       id="path3966"
       inkscape:connector-curvature="0"
       sodipodi:nodetypes="cccccccccccccccccccccccccccccccccccccccccccccccccccccc" />
    <path
       style="fill:url(#linearGradient846);stroke-width:0.42740339;fill-opacity:1"
       d="m 457.31263,438.81498 c -7.4309,-1.0234 -16.31192,-3.84075 -21.79757,-6.91489 -13.82343,-7.7466 -24.58523,-20.55052 -29.2111,-34.75407 -1.94178,-5.96217 -2.40377,-8.70578 -2.41099,-14.31802 l -0.007,-5.34254 7.20995,0.12586 7.20994,0.12587 0.5061,4.49761 c 1.12031,9.95622 4.67351,18.10428 11.29002,25.88984 5.36954,6.31828 14.42149,11.94512 22.93648,14.25771 5.06015,1.37429 13.12393,1.84306 18.40951,1.0702 9.09706,-1.33016 18.19883,-5.71625 24.93147,-12.0143 l 2.72753,-2.55146 5.81548,4.77027 c 3.19851,2.62364 5.81547,4.9165 5.81547,5.09523 0,0.44595 -5.65559,5.6522 -8.6319,7.94608 -6.8982,5.31653 -15.80953,9.31967 -25.13296,11.29026 -4.65744,0.98437 -15.27335,1.43057 -19.66056,0.82635 z m 3.89355,-24.86995 c -16.94065,-1.40367 -31.38314,-15.90038 -32.80303,-32.92619 l -0.27685,-3.31967 h 7.75472 7.7547 v 1.66458 c 0,4.23782 3.12588,10.51974 7.00009,14.06772 2.58615,2.36839 7.19732,4.5693 10.99523,5.24803 7.57211,1.35321 16.30641,-2.38415 20.72394,-8.86766 2.90373,-4.26172 3.74705,-6.91675 3.77953,-11.89897 0.0326,-4.99631 -0.63281,-7.33694 -3.22631,-11.34961 -2.46618,-3.81566 -4.85748,-5.94533 -13.39152,-11.9264 -4.17892,-2.92877 -7.6843,-5.54987 -7.78975,-5.82467 -0.10543,-0.27479 9.48868,-13.45737 21.32025,-29.29463 11.83159,-15.83724 25.42319,-34.03602 30.20357,-40.44174 4.78036,-6.4057 8.76708,-11.64674 8.85938,-11.64674 0.0923,0 0.16782,5.73774 0.16782,12.75052 v 12.75054 l -19.65133,26.20246 -19.65135,26.20246 2.61749,1.82158 c 7.31501,5.09067 12.5751,12.60582 14.94591,21.35335 1.29944,4.79447 1.29461,13.08072 -0.0104,17.95095 -2.94437,10.98778 -10.51163,19.95224 -20.76818,24.60279 -5.32299,2.41356 -11.89031,3.43342 -18.55387,2.8813 z m 49.74454,-7.43835 c -3.05537,-2.49031 -5.70354,-4.66727 -5.88484,-4.83768 -0.18131,-0.17042 0.54969,-2.16613 1.62441,-4.43489 1.07474,-2.26878 2.46025,-6.00554 3.07894,-8.30392 1.01026,-3.75302 1.12371,-4.9193 1.11338,-11.44473 -0.009,-5.98241 -0.16693,-7.83441 -0.89139,-10.48455 -2.23563,-8.17813 -5.4392,-14.24706 -10.78768,-20.4365 l -3.05303,-3.53306 4.40879,-5.94342 c 2.42484,-3.26888 4.52597,-5.9507 4.66919,-5.95959 0.66445,-0.0412 4.5357,3.86145 7.56033,7.62171 7.20233,8.95399 11.54614,19.03241 13.19499,30.61475 1.20799,8.48553 0.15745,19.55331 -2.6399,27.81222 -1.20722,3.56418 -4.84996,11.26362 -6.10176,12.8969 l -0.73625,0.96062 z m -63.60328,-67.54827 c -3.21681,-2.26659 -5.84873,-4.28704 -5.84873,-4.48987 0,-0.20281 9.62892,-13.20595 21.39759,-28.89582 l 21.39759,-28.52706 -38.70743,-0.10912 -38.70743,-0.10911 v -7.691 -7.691 h 53.89855 c 50.13345,0 53.87946,0.0497 53.62516,0.71247 -0.48156,1.25495 -60.2776,80.88826 -60.75111,80.90525 -0.2505,0.009 -3.08739,-1.83815 -6.30419,-4.10474 z m -40.46841,-45.03032 v -7.69326 h 29.27713 c 16.10242,0 29.27713,0.0915 29.27713,0.20332 0,0.11184 -2.50224,3.5738 -5.56054,7.69326 l -5.56055,7.48994 h -23.71659 -23.71658 z"
       id="path819"
       inkscape:connector-curvature="0" />
    <path
       style="fill:#ffffff;fill-opacity:1;stroke:none;stroke-width:0.63419873px;stroke-linecap:butt;stroke-linejoin:miter;stroke-opacity:1"
       d="m 533.70249,368.96279 c 0.14056,-0.56226 0,-37.39082 0,-37.39082 h 25.58319 v 7.87175 h -16.5869 v 7.02835 h 16.5869 v 8.15288 h -16.44634 v 14.33784 z"
       id="path875"
       inkscape:connector-curvature="0"
       sodipodi:nodetypes="ccccccccccc" />
    <path
       id="path875-4-3"
       style="fill:#efefef;fill-opacity:1;stroke:none;stroke-width:0.63419873px;stroke-linecap:butt;stroke-linejoin:miter;stroke-opacity:1"
       d="m 584.84506,345.19066 9.74079,-13.61869 h 8.30296 v 37.39082 h -4.56843 l -4.56428,-4.9e-4 0.004,-23.47345 -8.91548,12.72267 -8.91547,-12.72267 0.004,23.47345 -4.56429,4.9e-4 h -4.56842 v -37.39082 h 8.30295 l 9.74079,13.61869"
       inkscape:connector-curvature="0"
       sodipodi:nodetypes="ccccccccccccccc" />
  </g>
</svg>
