<svg id="Layer_1" xmlns="http://www.w3.org/2000/svg" viewBox="474.4 210.9 311.7 373.1"><style>.st0{fill:#EC3516;} .st1{fill:#3E3E3E;} .st2{fill:#3F3F3F;}</style><g id="oy8eqV.tif"><path class="st0" d="M621.1 445.4c-2.9-3.2-5.9-6.3-8.6-9.6-12.7-15.9-18.9-33.7-13.9-54 5.4-22.1 25.4-38.1 47.7-38.7 22.5-.6 42.3 13.8 49.7 36.1 5.4 16.2 2.6 31.5-4.6 46.4-3.2 6.6-7.2 12.7-11.5 19.1 6.7 5.4 13.3 10.9 20.1 16.1 9.1 6.9 11.2 17.8 4.9 26.5s-18.1 10.5-27 4c-8.5-6.1-16.9-12.4-25.8-19-5 3.1-10.1 6.4-15.7 8.9-32.9 15.2-66.6 19.3-100.5 4.6-32.7-14.2-54.2-38.9-59.9-74.5-3.8-23.7-.7-47.4 9-69.9 18.8-43.9 49.9-76.6 90.5-100.9 23.6-14.1 48.9-24.2 76.3-28 27-3.7 53.3-1.4 77.9 11 33 16.7 50.9 44.2 55.3 80.3 5.3 43.9-9.2 82-36.5 115.8-6.9 8.6-18.9 9.5-27.2 2.6-8.4-6.9-9.4-18.2-2.2-27.2 14.6-18.3 24.5-38.8 27.6-62.2 1.9-14.9 1-29.7-4.9-43.7-10.6-25.1-31.1-36.4-57-39.2-26.9-3-51.9 4-75.7 15.9-36 17.9-64.9 43.4-83.6 79.6-7.3 14.2-11.9 29.2-12.7 45.3-1.6 32.2 20.9 55.8 46.8 63 19.5 5.5 45.7 1.8 61.5-8.3zm26.6-26.1c6.3-5.4 12.1-15.6 13-22.7 1-7.9-4-15.1-11.4-16.1-6.6-.9-12.6 4.3-13.6 12.3-1.3 11.1 5.3 18.8 12 26.5z"/><path class="st1" d="M535.5 533.2c7.8-9.8 17.1-12.8 28.4-9.3 9.8 3.1 16.7 11.5 17 21.8.4 12 .1 24 .1 36.3h-14.9v-26.7c0-2.3.1-4.7-.1-7-.7-6.9-5.3-11.3-11.7-11.3s-10.8 4.3-11.1 11.6c-.3 8.5-.1 17-.1 25.5v8.1h-15v-20.8c0-4.2.1-8.3-.1-12.5-.2-6.9-3.9-11.2-9.8-11.8-6.3-.6-11.3 3.2-12.7 10.1-.9 4.6-.3 9.3-.4 14-.1 6.8 0 13.6 0 20.7-4.9 1.1-9.6.2-15 .6v-14.2c0-7-.2-14 .1-21 .5-10.8 5.4-18.9 15.6-22.8 10.2-3.9 19.6-2.6 27.4 5.8.6.8 1.2 1.6 2.3 2.9zM625 525.1h14.7s.7 26 .2 35.3c-.5 10-5.7 17.2-15.2 20.9-16.4 6.4-32.9-.7-37.2-16.1-.3-1-.5-1.9-.6-2.9-.2-2-.3-4-.3-6v-31.1h15.1v18c0 5.2-.1 10.3.2 15.5.4 5.8 4.2 9.6 9.8 10.2 5.5.6 10.2-2.4 12.2-7.5.9-2.4 1-4.9 1-7.4.1-9.5.1-19 .1-28.9z"/><path class="st2" d="M757.3 544.1c-9.5-8.1-18.1-8.6-24.3-1.7-5.7 6.3-5.4 16.9.5 22.7 6.7 6.5 15.4 5.4 24.7-3.2 3.6 2.8 7.3 5.7 10.9 8.5-5.8 10.4-18.8 15.6-31.6 12.9-13.2-2.9-22.5-13.2-23.6-26.3-1.2-14.5 5.9-26.8 18.3-31.9 12.7-5.2 26.5-1.6 35.3 9.3-3 3.8-6.7 6.6-10.2 9.7zM661 541.3c1.2 3.1 3.9 3.7 6.3 4.6 3.9 1.5 7.8 2.7 11.5 4.7 6.3 3.4 9.6 8.4 9.4 15.7-.2 7.1-4 11.8-10 14.9-10.2 5.2-24.8 3-34.8-5.3 2.3-3.5 4.6-7.1 7-10.9 4.1 3.1 8.4 5 13.3 5.6 2 .2 4 .1 5.9-.6 1.8-.6 3.2-1.8 3.4-3.9.2-1.9-.9-3.3-2.4-4-2.5-1.3-5.1-2.3-7.7-3.4-2.7-1.2-5.6-2.1-8.2-3.5-11-5.9-12-19.4-2.2-27.2 8.7-6.9 23.7-6.4 33.9 1.3-2.2 3.6-4.4 7.2-6.8 11-4.8-2.5-9.3-5-14.7-3.2-2.1.5-3.6 1.5-3.9 4.2z"/><path class="st1" d="M707.6 582.6H693v-58.3h14.6v58.3z"/></g></svg>