<svg id="Layer_1" data-name="Layer 1" xmlns="http://www.w3.org/2000/svg" viewBox="0 0 95 35"><defs><style>.cls-1{fill:#731e82;}.cls-2{fill:#82b900;}</style></defs><title>Artboard 1</title><path class="cls-1" d="M94.25,26.6a8.16,8.16,0,1,1-8.16-8.16,8.14,8.14,0,0,1,8.16,8.16"/><path class="cls-2" d="M94.25,8.16A8.16,8.16,0,1,1,86.09,0a8.14,8.14,0,0,1,8.16,8.16"/><path d="M72.58,17.61l-.46-.42.46-.46a8.39,8.39,0,0,0,2.66-6.23c0-6-4.8-10.47-11.17-10.47H64C57.6,0,52.77,4.55,52.77,10.5a8.39,8.39,0,0,0,2.66,6.23l.46.46-.46.42a9.53,9.53,0,0,0-3,6.86,10,10,0,0,0,2.91,7.21c2.07,2,5.08,3.08,8.72,3.08s6.65-1.05,8.72-3.08a9.84,9.84,0,0,0,2.91-7.21,9.34,9.34,0,0,0-3-6.86ZM64,7.25h.11a3.45,3.45,0,0,1,3.54,3.26c0,2.87-2.73,3.08-3.57,3.08s-3.57-.21-3.57-3.08A3.39,3.39,0,0,1,64,7.25Zm0,20.3c-2.17,0-4.06-1.47-4-3.4s1.44-3.4,4-3.4,3.89,1.51,4,3.4S66.18,27.55,64,27.55ZM38.45,7.28A3.43,3.43,0,0,1,42,10.5c0,2.87-2.66,3.08-3.5,3.08H37a1.38,1.38,0,0,0-1.4,1.4v4.48a1.38,1.38,0,0,0,1.4,1.4h2a3.35,3.35,0,0,1,3.33,3.33A3.78,3.78,0,0,1,34.81,24a1.38,1.38,0,0,0-1.4-1.4H28.55a1.38,1.38,0,0,0-1.4,1.4c0,7.42,5.67,10.75,11.34,10.75a12.37,12.37,0,0,0,8.68-3.08,9.82,9.82,0,0,0,2.91-7.18,9.34,9.34,0,0,0-3-6.86l-.46-.42.46-.46a8.39,8.39,0,0,0,2.66-6.23c0-6-4.8-10.47-11.2-10.47-5.64,0-11.34,3.4-11.34,11a1.36,1.36,0,0,0,1.4,1.4h4.94a1.4,1.4,0,0,0,1.4-1.4A3.69,3.69,0,0,1,38.45,7.28ZM13,17.29a4.61,4.61,0,0,0-4.13,2.1,1.42,1.42,0,0,1-1.26.77h-5a1.37,1.37,0,0,1-1.4-1.37v-.18l2-16.87A1.32,1.32,0,0,1,4.61.49H22.67a1.38,1.38,0,0,1,1.4,1.4V6.41A1.37,1.37,0,0,1,22.6,7.74H10.14l-.35,3.19V11l.91-.32a8.57,8.57,0,0,1,2.84-.53A11.32,11.32,0,0,1,25.29,20.65a12.66,12.66,0,0,1,.07,1.65c0,7.46-4.94,12.5-12.32,12.5C5.24,34.76,1,29.23,1,24a1.41,1.41,0,0,1,1.4-1.44H7.3A1.36,1.36,0,0,1,8.7,24c0,1.58,1.93,3.5,4.34,3.5,2.73,0,4.38-2,4.38-5.25C17.42,19.32,15.63,17.29,13,17.29Z"/></svg>