<?xml version="1.0" encoding="UTF-8"?>
<!-- Generator: Adobe Illustrator 16.0.4, SVG Export Plug-In . SVG Version: 6.00 Build 0)  -->
<!DOCTYPE svg PUBLIC "-//W3C//DTD SVG 1.1//EN" "http://www.w3.org/Graphics/SVG/1.1/DTD/svg11.dtd">
<svg version="1.1" id="Layer_1" xmlns="http://www.w3.org/2000/svg" xmlns:xlink="http://www.w3.org/1999/xlink" x="0px" y="0px" width="2834.65px" height="1133.86px" viewBox="0 0 2834.65 1133.86" enable-background="new 0 0 2834.65 1133.86" xml:space="preserve">
<g>
	<g>
		<path fill="#FFF200" d="M409.683,918.153c-7.075,0-14.247-1.1-21.359-3.287l-0.322-0.092c-17.186-0.26-29.065-1.656-39.182-4.615    c-1.73-0.473-3.451-1.041-5.153-1.682l-0.921-0.355c-2.172-0.836-4.261-1.785-6.261-2.855c-1.441-0.307-2.963-0.66-4.549-1.051    c-2.242-0.557-4.446-1.266-6.6-2.102c-18.283-7.127-33.642-15.369-45.638-24.484c-5.176-3.936-9.61-8.764-13.083-14.254    c-0.284-0.438-2.689-4.119-9.536-11.293c-19.238-14.92-29.484-38.641-36.392-58.502c-0.274-0.801-0.534-1.6-0.771-2.41    c-3.508-11.824-4.815-23.938-3.885-36c0.288-4.002,0.288-8.521,0.288-13.312v-13.033l-0.418-12.596    c-0.069-2.111-0.018-4.213,0.154-6.316c0.372-4.494,0.684-8.484,0.684-11.674c0-3.34-0.327-7.547-0.704-12.43    c-0.106-1.396-0.167-2.855-0.167-4.252v-21.273c-1.521-8.549-2.27-16.66-2.27-24.65c0-9.947,1.154-18.672,2.415-25.723    c-0.056-0.818-0.093-1.638-0.116-2.457c-0.229-1.199-0.428-2.176-0.596-2.939c-1.433-4.93-2.158-10.037-2.158-15.182    c0-28.558-0.54-43.359-0.791-48.754l-2.674-40.951c-0.079-1.181-0.121-2.372-0.121-3.563v-14.841    c-1.893-11.406-4.387-36.736-4.968-103.486l-0.441-48.561c-0.015-1.307,0.023-2.619,0.102-3.925    c-3.229-19.441-2.609-37.378,1.864-53.424c3.894-14.294,9.75-28.118,17.447-41.197c0.247-0.739,1.093-3.228,1.093-3.228    c1.503-4.427,3.568-8.647,6.145-12.539c0.209-0.424,0.62-1.266,1.201-2.624c5.54-19.704,20.354-32.992,30.438-40.574    c4.459-4.813,9.781-9.651,16.074-14.609c6.369-5.015,13.772-8.548,21.675-10.349c2.675-0.609,8.382-1.968,18.587-4.65    c1.484-0.777,3.223-1.666,5.228-2.666c4.327-2.154,8.917-3.726,13.661-4.67c1.764-0.349,3.419-0.707,4.986-1.042    c5.27-1.126,10.721-2.288,16.852-2.902c1.823-0.186,3.647-0.274,5.474-0.274c0.461,0,0.927,0.004,1.391,0.014    c0.125-0.022,0.256-0.042,0.392-0.065c3.115-0.549,6.279-0.823,9.446-0.823c37.429,0,63.978,3.702,83.556,11.656    c6.233,2.54,11.936,6.2,16.824,10.791c1.32,0.759,4.256,2.297,9.688,4.567c23.712,5.582,42.842,23.522,52.416,49.839    c1.842,5.06,2.92,10.358,3.209,15.725c3.298,6.656,6.67,13.987,10.066,21.903c1.027,2.391,1.879,4.848,2.558,7.354    c3.241,12.057,3.679,24.643,3.679,35.359c0,4.963,0,12.354-0.475,22.471v9.433c0.894,6.032,1.345,12.07,1.345,18.029    c0,7.055-0.642,14.028-2,21.478c0.209,5.852,0.544,16.168,1.093,34.662c1.292,32.741-18.215,60.323-49.862,70.495    c-9.661,3.168-20.209,4.638-33.15,4.638c-2.897,0-5.972-0.075-9.223-0.223c-0.717-0.033-1.428-0.079-2.14-0.144    c-2.442-0.21-9.271-0.224-15.634-0.224c-0.907,0.084-1.93,0.209-2.953,0.32c-4.339,0.479-8.823,0.973-13.624,0.973    c-6.187,0-12.206-0.791-18.005-2.376c0.441,6.195,0.805,13.228,1.004,21.112c0.056,2.122-0.014,4.248-0.209,6.363    c-0.015,0.177-0.028,0.354-0.042,0.531c0.488,2.954,0.739,5.949,0.739,8.944v9.567c4.348-0.978,8.954-1.623,13.823-1.902    c3.256-0.54,6.754-0.86,10.498-0.86c2.688,0,5.437,0.163,8.335,0.487c19.171-3.204,34.186-4.702,46.871-4.702    c16.266,0,31.679,7.251,42.052,19.781l5.279,6.326c5.392,6.428,8.358,9.974,11.424,15.833c0.888,1.712,1.693,3.46,2.4,5.247    c3.354,8.493,5.126,18.066,5.126,27.666c0,5.329-0.679,11.357-2.076,18.316c1.01,7.125,1.197,14.289,0.568,21.769    c-0.056,0.67-0.103,1.181-0.136,1.618c1.666,13.619,1.814,27.107,0.438,40.104c-0.033,0.289-0.065,0.586-0.103,0.875    c-0.907,7.414-1.368,14.715-1.368,21.723c0,12.873,0.888,20.205,1.438,23.516c2.298,13.07,0.813,24.764-1.438,34.057v43.275    c0,15.684-1.958,28.689-5.977,39.768c-0.567,1.562-1.2,3.088-1.902,4.588c-6.526,13.889-16.99,26.428-31.154,37.33    c-6.112,6.074-13.885,11.787-24.005,17.713c-1.609,1.061-3.312,2.111-5.148,3.264c-3.568,2.215-9.057,5.629-16.313,10.299    c-4.842,3.107-10.135,5.443-15.698,6.893c-1.382,0.363-3.772,0.92-7.057,1.674l-1.86,0.42c-5.042,2.027-9.861,3.775-14.233,5.367    l-2.544,0.93c-0.674,0.244-1.358,0.477-2.042,0.699C423.628,917.081,416.702,918.153,409.683,918.153L409.683,918.153z"/>
		<path d="M506.286,580.747c0,1.786-0.438,5.414-1.805,11.238c-0.87,4.521-0.87,8.977,0,13.068    c0.488,2.672,0.902,6.289,0.488,11.247c-0.488,5.405-0.488,9.423,0,12.141c1.317,10.344,1.317,19.861,0.414,28.354    c-1.372,11.209-1.772,20.725-1.772,28.355c0,13.98,0.87,24.771,2.238,32.836c0.906,4.979,0,10.363-2.238,17.154v50.857    c0,9.004-0.901,16.186-2.702,21.145c-3.172,6.752-9.461,13.525-18.455,19.779c-2.266,3.16-7.652,7.244-16.257,12.166    c-0.4,0.447-8.057,4.977-22.024,13.963c-1.791,0.465-5.851,1.34-11.697,2.697c-6.298,2.689-12.615,4.922-18.903,7.219    c-2.703,0.865-5.852,0.865-9.907-0.512c-4.94-1.303-8.094-2.223-9.452-2.223c-15.721,0-26.098-0.865-31.959-3.098l0.917,0.354    c-0.917-0.865-2.697-2.166-5.423-3.973c-3.141-0.465-7.205-0.92-12.586-2.27c-13.991-5.451-24.759-11.246-32.434-17.08    c-4.036-6.373-10.753-14.447-20.205-23.916c-6.758-3.609-13.549-15.248-20.271-34.596c-1.344-4.531-2.288-9.9-1.795-16.271    c0.451-6.271,0.451-12.113,0.451-17.525v-13.936l-0.451-13.508c0.451-5.404,0.87-10.801,0.87-16.176    c0-5.451-0.418-10.867-0.87-16.682v-26.576c-1.358-6.26-2.269-12.586-2.269-19.348c0-6.746,0.911-13.062,2.269-19.836    c0.451-2.176,0.451-5.812,0-9.812h1.297v-3.629h-1.297c-1.358-7.656-2.269-11.693-2.725-13.023    c0-25.256-0.414-42.391-0.875-51.852l-2.712-41.416v-20.204c-2.665-11.265-4.498-44.15-4.967-98.598l-0.441-48.583    c0.441-3.149,0.441-5.387,0.441-6.787c-3.117-14.368-3.117-26.056-0.441-35.54c3.167-11.702,8.121-22.517,14.86-32.866    c0.452-1.8,1.382-4.498,2.754-8.544c2.195-3.145,4.903-8.549,8.042-16.637c0-3.628,4.981-9.014,15.306-16.201    c2.275-3.149,6.303-7.209,12.601-12.167c5.879-1.34,14.838-3.596,26.573-6.739c0.902-0.461,4.046-2.247,9.465-4.945    c6.707-1.335,12.136-2.712,16.637-3.163c2.229,0.451,6.257,0,11.229-0.875c29.741,0,50.844,2.702,63.003,7.643    c4.966,5.4,15.767,11.242,31.98,17.555c7.196,0.418,12.606,5.845,16.202,15.726c0,4.033,0.437,8.539,1.316,13.042    c3.205,5.897,7.704,14.903,13.099,27.471c1.335,4.958,1.809,11.693,1.809,21.172c0,4.963,0,11.68-0.474,21.158v2.219v13.093    c0.874,4.442,1.344,8.992,1.344,13.462c0,5.888-0.87,11.288-2.261,17.111c0-3.145,0.489,10.795,1.391,40.997    c0.4,8.497-3.623,13.912-12.163,16.604c-5.413,1.805-13.065,2.27-22.967,1.805c-4.939-0.423-12.139-0.423-21.564-0.423    c-3.64,0-11.743,1.292-15.339,1.292c-2.223,0-4.042-0.405-5.856-1.292c-6.73-1.382-10.739-4.074-11.688-8.996    c-1.377-1.795-1.791-3.586-1.791-5.899c0-2.678,0.887-5.892,3.107-9.935c3.642-6.726,5.893-11.651,6.34-14.367    c-0.447-4.954-1.829-13.935-4.973-26.099c-0.442-2.255,0.461-8.535,3.67-19.819c1.303-4.897,0.404-12.111-2.753-20.708    c-2.651-8.972-6.302-14.841-10.363-17.991c-5.884-4.056-9.907-6.721-13.057-7.596c-8.083-2.283-17.093,0-27.461,7.596    c-10.349,7.675-15.288,15.792-15.288,24.317c0.479,2.706,2.697,9.484,5.88,20.265c-1.811,5.401-3.183,13.465-3.611,24.294    c3.611,17.112,4.94,28.391,4.015,33.792c-0.894,5.381-1.345,10.768-0.894,16.191c0.489,5.841,0.489,11.222,0.489,16.613    c0,8.125,0,16.187-0.489,24.782c1.345,8.568,2.703,22.014,3.154,39.578c-0.451,4.972-0.451,9.879,0.466,14.433v42.783    c0,25.702,1.78,45.46,4.953,58.967c1.325,4.932,1.325,10.744,0.423,18.467c-0.423,2.203-0.423,5.367-0.423,8.549    c0,3.115,0.423,6.307,0.897,9.469v22.951c0,22.883,0,39.592-0.474,49.926c-0.423,20.299,1.354,34.689,5.878,42.756    c1.327,1.35,4.011,4.492,8.991,8.584c3.624,0.457,6.772,0.457,9.884,0.457c11.275,0,19.782-2.725,24.745-7.691v5.412h40.54v-1.385    l27.903,1.385v-2.727c-8.544,0-14.415-1.328-18.475-4.035l-10.344,1.814h-4.046v1.33l-35.578-1.795l2.735-2.699    c3.158-5.852,4.484-12.168,4.484-18.465c0.455-23.416,0-58.486-1.326-104.896c-0.452-4.019,0-7.6,0.447-11.693    c1.334-10.297,0.46-22.457-3.605-35.982c-0.907-3.154-1.368-5.414-1.368-6.697c0-8.615,6.307-13.098,19.373-12.652    c1.334-0.883,3.624-0.883,6.721-0.446c3.604,0.446,6.326,0.902,8.117,0.446c18.005-3.201,32.428-4.958,43.666-4.958    c6.316,7.628,9.888,11.712,10.376,12.651C505.848,575.352,506.286,578.087,506.286,580.747z M294.298,622.152h2.26l2.68-4.056    v-1.34h-1.332v-2.242l-3.609-3.172h-2.269l-4.484,6.336l2.698,3.088h4.055V622.152z M303.304,731.56v-3.209l-2.707-3.6l-3.6,3.6    l3.6,3.209H303.304z M324.876,728.351l1.381-4.91c-1.381-4.568-4.08-8.086-8.079-10.393l-4.558,4.939v6.764l3.158,3.6H324.876z     M343.36,573.538l-1.791-6.773l1.791-6.735l-1.791-6.744v-25.712h-1.372l-1.325,1.404v-13.521h-2.722v6.73l1.349,1.349    l-4.93,2.279v4.503l0.884,1.339l-3.586,1.339l1.303,9.014h2.284l4.488-5.414l-1.791,10.81l1.791,17.145v2.214l-8.075-5.387h-2.292    l-1.317,1.759l-3.186-3.107h-1.312v3.107h2.716c1.782,7.721,4.927,11.787,8.978,11.787l-3.586,4.958v3.125    c2.228,4.977,4.935,7.182,8.075,7.182v1.797c0,2.307-2.679,3.608-8.075,3.608v2.716l6.284,8.094l5.419-1.35V581.63h-1.372    l-4.047,3.582l-2.697-3.582v-1.748h2.697v-4.958l-2.697-5.452v-1.367h4.488l2.256,6.819h1.372L343.36,573.538z M321.76,595.594    l1.312,1.349l4.066-3.59v-1.806l-2.261-1.358l-3.117,3.164V595.594z M324.476,656.368l3.099-4.039h-4.503v4.039H324.476z     M328.532,480.326v1.357c4.037,2.271,6.27,4.48,7.618,6.317h-0.888v4.911h2.679v-2.655h2.256v-19.801h-2.256v-2.693h-2.679v5.373    h1.344v7.19h-1.805l-1.349-1.805h-2.698L328.532,480.326z M340.197,687.886v-19.881h-3.59v3.637c-5.438,0-8.075,3.146-8.075,9.473    l6.73,4.908l-1.81,6.766l1.81,6.744v2.289l-2.693,7.189v1.385h4.038l-6.74,5.396v2.195l1.303,1.406l2.284-1.406l1.81,0.885    l-1.81,7.246h5.419v-6.725h0.428v-10.383h-0.428v-21.125H340.197z M339.3,508.703l-1.358-6.321v-1.8l1.358-1.833l-1.358-4.432    h-1.334l-1.805,1.283v1.409l1.805,1.739v1.833c-4.512,0-6.74,0.906-6.74,3.14v2.279l1.303,1.315h2.284l1.349-1.315h1.805v2.702    H339.3z M340.197,659.958v-1.422c0-2.168-2.256-3.965-6.744-5.359h-1.358v3.191L340.197,659.958z M332.569,450.622l1.335,1.35    v1.362l-1.335,1.805l3.581,3.558l2.722-3.558v-1.805l-2.265-2.289h2.265v-6.727l-2.722-3.623h-3.581v4.968    c1.791,0,2.693,1.804,2.693,4.958H332.569z M338.872,757.171v-20.68h-2.722c0,5.367-1.349,8.111-3.581,8.111l3.581,3.99    l-2.246,5.006l1.358,0.846v4.541h2.679v-1.814H338.872z M335.263,402.059v7.181h2.679v-7.181H335.263z M335.263,416.9v8.103h2.679    V416.9H335.263z M337.941,461.897l-2.679-3.2v4.577h1.344L337.941,461.897z"/>
		<path fill="#FFF200" d="M783.884,945.882c-5.453,0-10.718-0.799-15.68-2.287c-10.513-1.535-33.587-4.566-48.923-6.588    c-2.274,0.01-8.541,0.279-21.34,2.568c-12.876,2.455-24.084,3.656-34.257,3.656c-9.018,0-17.191-0.922-24.921-2.818    c-0.371-0.037-2.883-0.336-8.237-0.336c-8.935,0-21.144,0.811-36.294,2.4c-8.452,0.875-16.261,1.301-23.322,1.301    c-68.012,0.01-81.9-43.859-84.532-57.303c-2.934-14.215-2.093-29.992,2.754-49.107c2.395-10.197,3.497-15.461,3.985-17.965    c0-5.508-0.715-12.762-2.134-21.627c-1.423-9.098-2.046-16.15-2.046-23.07c0-30.979,9.228-65.258,27.428-101.92    c2.163-4.799,10.009-25.498,29.997-106.049c4.237-17.07,9.698-33.005,16.326-47.634c-4.074,0.949-8.247,1.429-12.423,1.429    c-10.559,0-21.164-3.056-30.415-9.266l-2.694-1.805c-15.102-10.14-24.163-27.136-24.163-45.327v-2.703    c0-4.679,0.6-9.288,1.758-13.73c-6.213-8.967-11.521-20.433-15.075-35.074c-1.022-4.219-1.54-8.536-1.54-12.875    c0-30.573,8.758-51.583,19.684-65.895c0.679-7.763,2.526-17.317,6.145-32.35c2.664-10.922,3.562-20.21,2.781-28.54    c-0.145-1.396-1.192-4.172-2.992-7.604c-15.325-29.057-11.697-61.658,9.759-87.114c12.354-14.935,31.392-23.727,51.898-23.727    c11.433,0,23.387,2.679,35.518,7.981c1.343,0.591,2.376,0.991,3.13,1.255l51.331-5.85c3.93-0.493,8.01-0.726,12.447-0.726    c9.107,0,19.815,1.028,33.708,3.238c16.169,2.623,21.112,2.935,22.498,2.943c5.256,0,13.712-1.25,25.165-3.734    c9.981-4.117,20.471-6.266,30.768-6.266c2.795,0,5.595,0.162,8.326,0.475c0.267,0.032,0.53,0.065,0.795,0.098    c17.293,2.25,72.886,16.814,62.067,109.877c-1.149,10.126-1.923,18.264-2.433,24.767c20.577,1.363,38.773,14.271,46.769,33.508    c8.464,20.358,3.851,43.819-11.704,59.453l-4.483,4.507c-10.246,10.307-24.172,16.093-38.704,16.093h-4.074    c-1.684,0-3.348-0.075-4.995-0.224c-0.098,0.241-0.19,0.474-0.29,0.716c-0.147,14.316-5.897,27.764-15.646,37.689    c-1.507,3.889-2.95,7.675-4.346,11.358c18.485,8.745,31.267,27.569,31.267,49.37v5.414c0,30.14-24.437,54.587-54.587,54.587    h-12.741l-11.651,37.555c-5.892,29.833-12.284,57.463-19.516,84.363c-0.778,3.154-1.753,6.383-2.949,9.768    c15.344-2.139,27.438-3.154,37.805-3.154c31.488,0,49.648,13.062,59.341,24.012c12.483,14.113,18.206,32.643,16.176,52.318    c-0.479,6.121-1.757,22.551-3.874,49.852c-0.065,2.418-0.078,12.521,2.758,37.268c0.927,6.445,0.927,12.074,0.927,16.67    C854.216,919.714,818.832,945.882,783.884,945.882L783.884,945.882z"/>
		<path d="M800.057,760.778c-0.429,5.434-1.753,22.469-4.028,51.77c-0.423,8.541,0.433,24.291,3.145,47.686    c0.455,2.734,0.455,5.852,0.455,9.471c0,14.398-5.39,21.592-15.743,21.592c5.875,0-13.939-2.689-58.508-8.541    c-7.188-0.92-19.848,0-37.383,3.145c-16.215,3.125-28.322,3.6-36.866,1.332c-11.281-2.615-31.973-2.252-62.592,0.955    c-30.15,3.109-46.383-0.955-48.588-12.213c-1.386-6.717-0.441-15.303,2.205-25.611c3.186-13.523,4.972-22.066,5.428-25.721    c0.479-9.844-0.456-21.508-2.698-35.498c-0.921-5.896-1.359-10.346-1.359-14.438c0-22.447,7.224-48.588,22.057-78.289    c6.791-14.439,18.02-53.083,33.758-116.535c5.386-21.685,13.039-41.015,23.396-57.695h1.396l0.87-0.46h1.33l1.376,0.46    l-1.376,1.349l2.744,13.061l-1.368,4.093l1.368,5.396v22.018l1.307,22.559h-1.307v2.689l1.307,1.348v1.341l-1.307,1.329    l1.307,3.592l-1.307,15.795l1.307,10.819h2.27c0-5.005,0.894-8.605,3.163-10.819v-2.242c-2.27-2.26-3.163-6.324-3.163-12.158    v-9.004l1.81-10.346v-1.377l-1.81-22.539l1.339-10.336l-1.339-1.348h1.339v-2.699h0.47v4.047h2.707v-2.668    c-4.079-5.871-6.306-10.801-6.306-14.429l1.79-6.781h3.163l1.354,1.339l2.231-2.68h1.377l-1.377,6.782v1.339    c1.787,0,2.693-2.251,2.693-6.781h0.503c2.227,1.339,3.554,4.102,3.554,8.12v6.279h1.381l2.233-2.679v-11.72l2.683-5.824h1.382    v4.483l3.11-1.349l2.279,6.791l4.042-1.404h0.465l1.341,1.404l1.822-1.404h0.457l1.293,1.404c0,4.019,0.9,5.833,2.265,5.833h1.381    l2.684-9.935v-1.341l-1.38-1.349l3.149-0.46c6.79,0,10.818,0.949,13.06,3.15h1.359v-2.689c3.149,0,4.976-0.46,5.376-1.795    l6.354,1.335h0.884l2.692-2.674v-1.321h-22.487l-28.397-1.796l-4.451,1.796l-13.959-1.796h-2.707l-6.754,1.796l-2.269-0.986    c7.213-11.661,14.873-40.001,23.456-85.035l-13.518,3.214c-5.888-3.214-14.436-4.997-25.683-4.997h-20.234v-4.925l14.382-2.73    l-2.679-2.726c5.828-36.453,10.777-54.886,15.712-54.886h6.777v3.159c-7.684,13.944-11.274,26.108-11.274,36.913v17.54h25.654    l-2.655-2.726v-13.029c0-3.158,8.959-11.242,26.993-23.875c3.148-4.907,4.977-10.778,4.977-17.983h4.018v-1.771l-8.995-2.707    l-13.475,4.479v-4.479c0-2.27,5.334-5.373,15.67-9.461c6.8,0,13.084,2.688,18.489,8.126v-2.283    c0.474-1.754,0.474-3.628,0.474-4.936c0-7.185-4.534-10.8-13.521-10.8c-3.116,0-6.279,0.428-9.469,0.888    c-17.94,3.168-29.674,5.368-35.535,5.838c-22.964,2.288-40.081,4.963-51.295,7.661c-1.818,0.465-4.06,0.902-6.795,0.902    c-1.331,4.493-8.526,8.544-20.675,11.703l-2.712,2.702v6.74h2.712l9.015-4.953c16.638,0,25.177,13.995,25.177,41.833    c-8.539,7.261-17.089,10.861-25.177,10.861c-11.289,0-18.479-8.577-22.526-25.251c0-22.489,6.781-36.457,20.25-41.838    c0-2.233,1.363-4.047,3.611-5.396c-3.154-2.675-4.49-6.783-4.49-11.689c0-4.498,1.801-13.503,4.94-26.545    c4.061-16.661,5.41-31.968,4.061-46.396c-0.954-9.415-4.061-18.466-9.001-27.885c-4.972-9.429-4.037-18.038,3.154-26.564    c4.442-5.372,12.558-5.833,23.847-0.907c11.229,4.944,20.242,6.759,27.419,5.888l55.396-6.316c6.727-0.879,17.081,0,31.067,2.224    c13.959,2.27,24.279,3.622,31.048,3.622c11.25,0,25.196-2.269,42.772-6.32c5.796-3.145,11.233-4.024,15.266-3.563    c13.541,1.763,18.479,18.419,14.876,49.442c-3.582,31.526-4.523,52.243-3.16,61.695c2.681,17.126-4.021,43.685-20.255,79.686    c1.344,0,1.344,0.861,3.144,0.861v2.307l-5.879,3.102c-0.424,1.805-1.781,4.543-3.582,8.112v0.869    c-11.251,28.842-21.606,57.164-30.122,85.533l-26.539,85.537c-5.019,25.676-11.267,54.02-19.392,84.197    c-2.247,9.461-9.457,23.379-20.707,41.891c-5.884,9.441-8.537,17.516-8.537,25.191c0,5.822,1.814,10.779,5.434,15.256    l-0.457,0.512v4.037l1.331,1.348l-1.331,1.342v2.678h1.75v-9.404c1.366,1.795,2.265,2.688,2.725,2.688    c4.953,3.145,12.163,3.574,22.052,0.875c6.725-1.768,24.772-4.922,54.926-8.977c13.01-1.814,22.926-2.67,30.546-2.67    C794.237,744.175,801.433,749.569,800.057,760.778z M555.25,459.196v2.236l-4.977,4.513l-2.693-1.81v-2.703l2.693-2.236H555.25z     M578.157,741.858v-2.709h-8.088v2.709H578.157z M578.157,786.427v-1.303l-1.334-1.359l-4.032,2.662v2.717L578.157,786.427z     M597.554,743.196v-2.688h-4.048l2.674,2.688H597.554z M638.032,357.914l-7.65,6.748h-6.73v-6.748h-18.456    c0,4.502-1.354,6.748-4.033,6.748h-4.982v-9.446l4.982-4.493l11.215,2.688l18.004-2.688l7.65,2.688V357.914z M612.377,743.196    v-2.688l-12.592-1.359v4.047H612.377z M613.73,580.281v-2.708l-4.037-4.035h-4.498l-3.619,4.035l4.939,5.434h4.512L613.73,580.281    z M617.335,670.751l2.232-2.746h-3.6v1.404L617.335,670.751z M653.83,737.356h-2.703l-15.75-4.457    c0,3.078-1.386,4.457-3.609,4.457v-1.379l-2.692,2.764v0.408l16.178,2.709c4.958-1.35,8.084-2.252,8.577-3.117V737.356z     M635.376,372.31v-1.787l4.023-5.861l4.513,5.861l-5.88,4.503L635.376,372.31z M656.484,404.733    c0.456-2.26,1.838-4.981,3.187-8.996c-4.094,3.153-9.907,7.623-17.579,13.502v4.903h11.737L656.484,404.733z M659.219,567.687    h1.317l4.531,29.684h1.822c1.75-6.707,3.116-10.334,4.015-10.781l-0.899-1.377c0-3.106,2.708-4.931,8.107-4.931v-1.386    l-1.375-1.322l-8.098-4.035l-1.293-1.35h-0.457v2.735h-1.822l-1.341-17.191l3.163-2.67c-1.822-13.507-3.628-20.251-4.977-20.251    h-1.376v25.666L659.219,567.687z M692.509,823.349v-2.68h-5.827l-1.382,1.348c0-1.83-1.772-2.723-4.925-2.723    c0-4.029-0.903-6.291-2.262-6.291h-1.375l1.375,9.014l-1.795,5.369v2.697l0.42,1.34h1.375l4.941-8.074H692.509z M676.737,774.706    v2.68l1.375,1.412h1.359l0.903-1.412l-2.262-2.68H676.737z M676.737,782.845v7.629h1.375l2.262-2.68l-2.262-4.029l3.586-0.92    l-2.228-2.697L676.737,782.845z M676.737,794.528v1.352l1.375,1.281h1.359l0.903-1.281v-1.352l-0.903-1.35h-1.359L676.737,794.528    z M685.299,583.007l-3.601,4.559l3.601,0.418v-0.418h1.833v-1.404L685.299,583.007z M695.202,515.936v-1.377l-1.786-2.711    l-2.261,2.711v1.377H695.202z M753.724,506.466l4.475-5.414h29.741v5.414H753.724z M836.535,343.047h8.559l-4.484,4.507h-4.074    V343.047z"/>
		<path fill="#FFF200" d="M1138.665,918.765c-4.075,0-8.284-0.178-12.522-0.521c-35.144-2.92-62.507-20.92-74.96-48.754    c-4.534-7.73-7.696-15.953-9.478-24.605c-5.173,16.4-15.48,32.67-30.745,48.615c-9.606,10.029-22.67,16.029-36.537,16.764    c-5.214,0.27-10.614,0.418-16.057,0.418c-5.354,0-10.888-0.139-16.454-0.408c-16.407-0.734-30.281-4.234-41.974-10.615    c-18.289-7.041-32.644-19.637-41.077-35.992c-12.098-17.926-18-40.809-18-69.611c0-4.576,0-10.223,0.619-16.967    c1.511-22.549-0.045-34.707-1.456-40.707c-19.029-47.082-28.117-91.893-27.024-133.252c0.079-2.985,0.399-5.943,0.958-8.836    c-0.204-3.023-0.153-6.084,0.159-9.154c0.804-7.889,1.222-23.404,1.524-37.545c0.011-0.596,0.039-1.2,0.066-1.795    c0.107-1.945,0.029-8.604-3.014-28.42c-3.231-21.075-4.68-35.55-4.68-46.922c0-11.4-0.376-21.429-1.144-30.499    c-0.349-1.711-0.618-3.456-0.805-5.218c-0.245-1.699-2.735-16.624-21.66-92.919c-1.015-4.088-1.555-8.284-1.601-12.502    c-0.399-34.089-1.299-69.965-2.665-106.635c-0.302-8.069,1.194-16.113,4.376-23.536c2.679-6.261,6.348-12.261,16.155-28.308    l4.506-7.386c9.912-16.262,27.573-26.182,46.616-26.182h14.406c8.78,0,17.427,2.115,25.215,6.172    c16.255,8.464,32.391,21.688,49.316,40.414c0.591,0.652,1.177,1.299,1.744,1.964c4.186-6.833,9.842-12.699,16.619-17.14    c29.114-19.089,47.438-27.011,65.123-28.122c1.67-0.112,3.462-0.177,5.368-0.177c13.424,0,30.333,3.172,56.523,10.604    c13.294,3.768,24.661,12.443,31.815,24.271c1.628,2.694,3.256,5.512,4.882,8.461c7.238-7.885,16.615-13.41,26.852-15.996    c7.94-10.177,19.443-17.508,32.82-20.056c12.912-2.465,25.833-3.656,39.498-3.656c7.946,0,19.704,0.483,34.947,1.442    c15.702,0.995,30.218,8.707,39.818,21.177l13.511,17.541c2.168,2.818,4.058,5.832,5.638,9.014    c6.26,12.604,9.307,28.056,9.307,47.242c0,14.489-5.762,28.383-16.008,38.625c0.005-0.004,0.005-0.004,0.005-0.004    c0.069,0-4.275,6.549-5.27,28.694c-2.644,59.061-5.816,76.909-8.848,87.392c-1,3.452-2.336,6.792-3.99,9.978    c-4.271,8.233-10.651,23.694-14.567,33.392c-0.009,0.176-5.415,106.291-5.415,106.291c-0.53,10.428-4.041,20.475-10.107,28.968    c-0.596,0.828-3.177,4.596-7.387,12.996l-2.32,65.248c-0.117,3.229-0.518,6.438-1.2,9.592    c-4.103,18.994-6.425,47.014-6.892,83.283c-0.526,56.83-1.648,84.432-4.15,101.643c-1.168,8.045-4.131,15.748-8.654,22.512    c-5.011,7.488-11.705,15.777-19.36,23.971c-3.046,3.268-6.478,6.141-10.228,8.57    C1183.181,912.978,1162.275,918.765,1138.665,918.765L1138.665,918.765z"/>
		<path d="M1216.582,542.011c-4.502,6.308-10.399,16.689-17.129,31.527l-2.72,76.531c-4.954,22.922-7.61,54.457-8.123,94.105    c-0.438,47.193-1.293,78.719-3.584,94.494c-2.684,4.02-7.173,9.889-13.896,17.08c-10.353,6.707-23.865,9.451-40.526,8.084    c-16.628-1.377-27.034-8.084-30.624-19.35c-3.583-4.947-5.394-10.316-5.394-16.689c0-2.66,0-4.9,0.421-6.279    c1.819-9.439,1.391-18.9-0.883-28.336c-15.303-59.867-22.917-103.061-22.917-128.689v-31.519l5.842,0.894l1.373-6.727    l-4.996-0.947l-2.218-1.33c0-32.393-2.759-50.457-8.559-54.002c-2.326-0.902-5.842-1.823-11.222-2.754    c-4.005,7.247-5.783,17.582-5.783,31.508c-6.316,10.373-9.86,17.582-11.171,21.154h-1.35l-0.502,6.81    c-4.024,12.614-7.121,36.401-9.818,71.556c-2.201,31.033-6.721,53.127-13.49,66.623l-4.041-1.348l-4.953,0.865v1.832l2.729,2.234    h1.289l1.856-0.475v1.385h0.433h0.856c-5.396,10.383-8.489,17.08-9.893,20.225l-7.163,35.08    c-1.792,8.613-8.104,18.93-18.894,30.195c-8.545,0.455-17.564,0.455-27.001,0c-9.483-0.426-16.684-2.232-21.13-5.814    c-9.005-2.334-14.903-7.246-17.144-13.971c-7.215-8.578-10.807-22.551-10.807-41.91c0-4.018,0-8.055,0.443-12.537    c1.836-26.57,0.468-47.334-4.052-62.645c-17.083-41.352-25.187-79.641-24.27-114.293l22.941,3.146l0.437-6.764l-11.694-1.35    l-6.744-6.26l4.055-4.02l-3.196-1.35l-1.363,0.865v4.504l-3.581-2.689c0.922-9.033,1.386-22.977,1.792-41.909    c0.493-9.022-0.87-22.074-3.563-39.651c-2.693-17.535-4.051-30.061-4.051-38.648c0-13.088-0.437-26.609-1.8-40.048l2.25-1.804    v-1.363l-2.697,1.805c-0.902-8.591-8.562-42.294-22.967-100.365c-0.42-35.597-1.34-71.551-2.7-108.031    c1.359-3.172,7.226-12.581,17.104-28.791h14.406c10.366,5.4,21.6,14.819,34.199,28.791c5.858,6.308,8.563,13.959,8.563,22.977    c0,4.47-0.465,8.508-1.791,12.61c-4.061,13.921-4.54,28.308-0.915,43.615c10.794,24.782,20.26,50.871,28.386,77.411    c3.13,10.758,3.13,25.661-0.479,45.011c-3.155,17.117-0.452,28.349,9.013,34.252c4.023,2.172,9.418,2.172,17.088,0    c4.95-16.703,8.996-42.383,11.267-76.555c2.673-37.327,5.818-63.439,8.999-77.416c1.792-7.191,2.656-22.048,2.266-44.56    c0-17.991,2.256-32.386,6.228-43.666c18.457-12.104,31.578-18.895,38.703-19.293c7.187-0.522,21.477,2.223,43.481,8.464    c3.573,5.913,8.531,14.921,14.377,27.95c0.457,1.354,0.457,3.159,0.457,4.502c0,3.093-3.605,10.344-3.605,12.145    c1.362,3.181,4.972,15.331,11.688,37.36c0.462,13.046,2.703,31.935,5.856,57.591c4.977,21.183,6.34,44.142,4.022,68.421    c-0.432,6.781-0.872,12.624-0.872,17.135c0,17.061,2.701,31.963,8.08,44.963c4.106,0.921,6.758,0.921,8.581,0    c7.605-4.051,13.507-19.297,17.102-44.963c1.349-5.908,2.726-9.484,3.141-10.791l1.357-1.386l-0.906-0.931l5.897-19.758    c4.903-17.549,7.625-35.555,7.21-54.909c0.88,0.888,2.209,1.814,4.019,2.218l5.395,1.837h7.645l8.109-5.865l-5.417-7.619v-20.777    h5.417c15.773,22.094,26.542,34.676,31.532,36.931h2.684l2.251-2.67c4.958,4.037,7.168,7.633,7.168,11.68    c10.367-5.443,15.336-13.042,15.336-22.503c-4.091-10.368-7.653-15.736-10.361-15.736h-4.975l4.975,13.075l-1.781,8.977h-3.194    v-4.046c-7.605,0-13.025-1.804-17.094-4.93c-12.154-17.582-20.274-26.573-24.299-26.573h-13.009l-2.257,1.79v-25.177h17.95    c10.338,0,22.046,4.015,36.011,11.643h2.697v6.308l7.683,7.227h4.935l2.718-7.227l-2.718-17.951l2.718-11.758l-5.398-4.94h-9.938    v4.94c0,2.758,2.686,4.037,7.683,4.037v19.363h-7.683v-7.627c0-4.015-17.964-8.992-54.402-15.773l-2.257,2.758l-2.731-13.525    h-4.511v20.242c0,9.451-1.836,18-4.902,25.67l4.902,26.573l-5.85,0.428c-0.415-8.136-0.415-16.205-0.415-24.304    c1.778-10.367,2.656-27.484,3.153-51.791c-0.498-2.652-0.911-4.931-0.911-7.201c0-7.651,1.772-14.381,5.382-19.778    c0.418-1.799,1.329-4.507,3.151-8.107v4.028c0,8.541,3.614,17.121,10.337,25.187c27.939,0,41.884-8.512,41.884-25.187    l-4.935-9.419v-2.284h7.619l1.787,2.284c4.52,13.498,8.53,20.21,12.635,20.21h2.68l2.718-1.792    c-1.365-7.66-4.091-11.711-7.653-11.711c-2.252-4.949-4.489-8.526-7.231-10.74l-1.352-0.944h-0.887l-2.697-2.675h-1.327    l-4.064-2.284c-0.438,0-0.873,0-0.873-0.428l-5.461-1.396h-0.883c-1.317,0-3.592-0.399-5.847-1.274    c-3.163,0-5.429-0.501-6.754-0.935c9.452-1.804,18.946-2.693,29.274-2.693c6.769,0,17.546,0.457,31.519,1.34l13.513,17.54    c2.232,4.489,3.604,12.168,3.604,22.949c-13.08,13.061-19.861,34.675-21.219,64.857c-1.796,40.016-4.024,65.239-6.759,74.687    c-4.901,9.451-11.242,24.312-19.323,44.54c-1.335-4.056-4.896-7.61-10.333-11.66c-0.457,0-0.895-0.503-1.33-0.907    c-1.354,0-2.276-0.475-2.728-1.372c-2.733-0.866-3.617-1.331-2.733-1.331l-4.033-1.343l-3.6-1.378    c-2.261-0.86-3.145-1.358-2.727-1.358c-1.293-0.428-4.046-1.307-7.652-2.688l-4.487,6.302v16.228l-10.344,2.665l-2.692-2.665    l-7.645,6.708c6.772,0,10.337,1.79,10.337,4.934l2.697-2.655c3.158,0.936,6.303,4.908,9.488,11.675h2.646    c0-9.414,6.764-13.954,20.285-13.954h3.188c0.435,0,0.873,0.925,2.205,0.925h0.465h0.911l1.773,1.354h0.911    c0.901,0.936,2.274,1.796,4.063,2.261L1216.582,542.011z M877.426,485.312l-2.67,20.69h2.67l2.721-19.838L877.426,485.312z     M875.211,561.854l3.586,4.038l0.456,0.874l0.894-4.046l1.827-7.656l-0.465-19.777h-2.255L875.211,561.854z M890.51,592.896    v-1.349c-7.689-1.358-11.713-3.163-11.713-5.386h-2.233c0,2.223,3.583,4.027,10.364,5.824L890.51,592.896z M885.988,632.46v-1.33    c-3.604-0.4-5.404-2.242-5.404-4.939l-2.68,2.251l-0.479,2.688h2.721v1.841L885.988,632.46z M877.904,574.924l2.68,0.884v-4.02    h-1.787L877.904,574.924z M883.309,582.533l-4.056-0.903l2.255,3.154l1.312-0.865L883.309,582.533z M884.617,528.978l-0.423,4.019    h1.795l0.94-4.019H884.617z M896.359,589.333l17.122,6.708c0.912-1.749-3.177-4.056-12.182-7.192l0.485-2.26l-11.274-1.805    l-6.317-2.251v1.386c0.423,3.117,1.795,4.93,4.061,6.27l2.256-4.027h0.437v2.688l1.349,2.698l4.063,0.438V589.333z     M892.296,483.488l-3.173,21.597h1.387l2.669-21.597H892.296z M893.659,506.001l-0.479,4.498h1.396l0.446-4.498H893.659z     M895.892,531.657h-0.87l-1.842,7.21v0.409l1.396,2.735l1.784-0.456L895.892,531.657z M897.728,414.631l-0.507,5.823l1.368,0.465    l0.452-5.423L897.728,414.631z M931.454,613.13l1.345-5.832l-11.699-2.244l-9.004,2.672l-0.488,6.314l1.873,0.475L931.454,613.13z     M917.5,635.185l1.34-6.297l-2.675-0.446l-0.501,6.743H917.5z M918.403,570.347c-0.902,2.781-0.451,4.057,1.842,4.577h1.748    l1.811-17.191h-2.703L918.403,570.347z M926.515,803.134l0.898-1.832h-2.745l-2.675,4.93l-0.893,1.32L926.515,803.134z     M993.103,622.152l0.47-6.743l-19.75-2.697l-17.183-5.414l-2.228,2.688l-0.447-2.688l-4.945-0.895l-5.846,2.27l-0.934,5.842    l6.78,4.932l10.364-4.932l0.878,6.252l20.266-0.465L993.103,622.152z M946.288,847.19v-2.707l-3.112-0.418l-0.934,2.689    L946.288,847.19z M945.87,516.746l-0.884,5.441h1.303l4.093-1.795l-1.819-2.66L945.87,516.746z M961.599,849.433v-2.678    l-11.682-1.369l-0.895,2.689L961.599,849.433z M961.599,580.281l0.448,1.349c1.8-0.883,4.525-3.543,8.107-8.092h-3.135    c0,2.27-1.805,4.035-5.42,5.357V580.281z M968.808,495.601v3.148h1.346l3.163-1.739v-0.945L968.808,495.601z M1006.625,377.263    v-1.349l-3.578-4.047l-0.441-0.869l-4.081,3.567l-0.938,1.349l3.631,4.056h1.388L1006.625,377.263z M1044.248,396.156v-1.791    l-0.823-2.301c-10.303,2.301-15.699,5.022-16.094,7.688L1044.248,396.156z M1047.421,425.878l15.228,1.791l0.418-2.665    l-15.646-1.847V425.878z M1060.323,555.946l2.326,0.512l1.734-3.172h-1.316l-2.744,1.776V555.946z M1064.383,568.104l4.065-2.67    l-4.432,0.457l-0.95,1.795L1064.383,568.104z M1086.947,457.367v-29.699l-5.381-4.512v34.21H1086.947z M1163.004,365.579    c0,17.517,13.964,27.93,42.296,31.949l17.094-1.79c0,4.53,1.822,6.736,4.975,6.736c4.48,0,8.048-5.815,10.361-17.56    c0-11.26-4.091-16.651-12.142-16.651v-2.684l1.781-2.688h-1.781l-22.986,14.373h-1.765c0-9.442,4.895-14.373,14.388-14.373h7.168    v-4.042l-4.484-4.981c-16.629,2.698-24.764,9.429-24.764,20.699l2.679,11.739h-2.679c-16.661,0-25.154-8.116-25.154-24.813    L1163.004,365.579z M1217.909,313.354l4.484-5.373l-4.484-3.153h-2.684l-2.251,1.79L1217.909,313.354z"/>
		<path fill="#FFF200" d="M1439.808,921.827c-5.387,0-10.811-0.543-16.137-1.602l-0.562-0.094c-2.284-0.373-5.682-0.928-9.94-1.916    c-8.799-1.023-18.903-3.172-33.703-6.604c-4.581-1.07-9.014-2.727-13.173-4.93c-2.199-1.164-4.684-2.504-7.46-4.01    c-4.571-2.467-9.897-5.35-16.042-8.549c-2.187,0.174-4.349,0.268-6.47,0.268c-20.47,0-39.238-8.416-52.02-23.219    c-8.652-9.57-14.67-21.691-17.931-36.084c-1.139-1.209-4.075-4.346-4.293-4.588c-10.032-11.189-17.033-25.572-20.806-42.734    c-0.845-3.852-1.274-7.777-1.274-11.723v-0.342c-4.674-14.383-5.896-22.02-6.404-27.184c-0.579-5.869-0.196-11.648,1.022-17.145    v-22.791c0-4.158,0.474-8.307,1.418-12.355c0.042-0.184,0.416-1.924,0.416-6.584v-26.662c-2.095-9.832-3.122-20.466-3.122-32.252    v-50.448c0-8.251-0.299-16.958-0.866-25.441c-2.194-9.992-2.92-21.015-2.228-33.466c0.047-0.805,0.108-1.61,0.191-2.41    c0.13-2.042,0.13-10.474,0.13-17.912c0-2.94-0.293-9.354-1.117-18.531c-0.074-0.861-0.13-1.726-0.167-2.591l-0.312-7.172    c-0.34-7.591-0.601-13.586-0.601-18.489c0-10.345,0.897-20.405,2.68-30.021c0.108-14.832,0.605-25.866,1.032-32.767    c0.335-5.405,1.475-10.731,3.379-15.801c1.845-4.92,3.534-9.731,5.042-14.382c-0.167-0.837-0.359-1.776-0.583-2.805    c-0.205-0.958-0.381-1.929-0.534-2.893c-0.995-3.544-1.637-7.233-1.897-11.028c-0.666-3.456-1.028-7.043-1.028-10.512    c0-3.776-0.169-5.609-0.229-6.168c-2.725-12.738-1.043-26.056,6.479-48.935c2.303-13.08,7.204-27.318,14.893-43.286    c3.41-6.972,8.178-14.387,14.309-22.316c0.097-0.224,0.19-0.447,0.288-0.67c4.592-11.153,12.248-20.498,29.363-36.061    c3.507-3.196,7.378-5.875,11.498-8.024c0.011-0.223,0.025-0.451,0.039-0.666c0.208-3.468,0.726-6.836,1.526-10.078    c1.351-8.251,4.26-16.145,8.696-23.609c0.921-1.544,1.917-3.047,2.987-4.499c3.014-4.088,6.578-9.698,10.833-17.071    c4.121-10.469,10.299-20.679,18.749-31.014c0.15-0.19,0.308-0.376,0.46-0.563c5.285-6.288,7.57-9.321,8.351-10.396l10.536-18.898    c20.274-36.833,47.549-47.782,66.824-50.429c0.466-0.065,0.922-0.126,1.375-0.177c3.928-0.438,8.459-0.637,14.691-0.637    c6.984,0,15.878,0.259,26.428,0.762c3.245,0.108,6.203,0.163,8.839,0.163c2.659,0,4.463-0.061,5.579-0.111    c3.991-0.912,8.084-1.377,12.187-1.377c48.662,0,71.268,30.918,75.844,57.397c0.521,3.065,0.781,6.172,0.781,9.289    c0,23.466-12.531,44.317-37.266,61.979c-0.334,0.237-19.358,13.186-19.358,13.186l-8.205,7.223    c0.895,0.344,1.815,0.698,2.736,1.062c0.611,0.167,1.711,0.432,2.899,0.743c1.686,0.442,3.472,0.912,5.368,1.438    c9.517,2.655,18.135,7.842,24.924,15.008c1.126,1.177,2.521,2.758,4.26,4.787c10.894,8.595,18.123,14.753,23.509,20.818    c5.033,5.671,8.828,12.326,11.153,19.546c0.092,0.315,0.194,0.632,0.297,0.944c2.26,2.865,4.232,5.944,5.879,9.205    c3.926,7.795,8.075,18.558,12.316,31.997c1.369,4.325,2.178,8.791,2.445,13.308c1.035,3.289,2.375,7.446,4.039,12.428    c1.013,3.046,1.76,6.181,2.225,9.358c0.742,5.098,1.507,11.257,1.507,18.265c0,8.639-1.62,17.336-3.191,25.741    c-0.196,1.061-0.437,2.33-0.662,3.572l1.257,3.615c2.011,5.767,3.034,11.827,3.034,17.939v41.285    c0.445,3.526,0.883,8.13,0.883,13.141c0,4.102,0,9.013-0.726,14.614c0,0.614,0.036,1.823,0.232,3.609    c1.097,7.075,2.315,16.679,2.315,24.521v69.844l1.312,102.329c0.009,0.688,0.009,2.957,0.009,3.414    c0,14.475,0.43,22.734,0.644,25.936c1.626,14.094,2.157,27.611,1.598,41.303c-0.409,12.727-1.646,25.154-3.628,36.326    c-0.092,4.848-0.324,9.592-0.696,14.309c1.172,8.922,0.353,16.186-0.038,19.627c-0.931,8.326-3.775,16.336-8.298,23.389    l-2.827,4.381c-2.225,3.414-5.07,7.805-8.493,13.236c-2.968,9.535-7.44,21.387-14.319,38.076    c-0.947,2.318-2.062,4.576-3.336,6.734c-12.262,20.998-34.114,33.938-59.966,35.527c-0.37,0.018-2.911,0.141-3.693,0.186    c-7.469,5.275-13.777,9.469-19.6,13.033c-9.87,6.297-22.077,10.141-51.119,16.297    C1451.75,921.165,1445.763,921.827,1439.808,921.827L1439.808,921.827z"/>
		<path d="M1578.646,696.87c-0.399,13.053-1.822,24.289-3.598,32.867c0,8.064-0.447,15.73-1.378,23.375    c1.378,2.252,1.378,5.873,0.931,9.918c-3.153,4.922-8.549,13.014-15.769,24.764c-2.233,9.004-7.163,22.057-14.399,39.592    c-3.145,5.387-8.523,8.113-16.177,8.578c-10.392,0.428-17.591,1.367-21.64,2.705c-10.325,7.602-19.357,13.928-27.432,18.82    c-2.728,1.879-13.956,4.967-33.323,9.078c-4.019,0.885-8.083,0.885-12.12,0c-2.744-0.482-6.354-0.939-11.294-2.297    c-6.717-0.438-17.093-2.689-30.614-5.832c-7.643-4.047-18.899-10.363-34.163-18c-3.19-0.902-6.764-1.35-10.397-1.35    c-2.259,0-4.943,0-7.209,0.447c-6.733,0.902-11.674-0.447-14.823-4.494c-2.246-2.27-4.475-6.299-5.847-13.025    c-1.777-9.014-3.171-13.998-3.604-14.465c-2.196-2.223-6.769-6.715-13.071-13.498c-3.604-4.018-6.35-9.877-8.135-18.01v-9.402    c-4.023-11.277-6.27-19.371-6.665-23.445c0.874,2.271,1.283-1.812,1.283-11.637v-22.977c1.359-5.842,1.833-12.166,1.833-18.939    v-33.275c-2.242-7.646-3.116-16.178-3.116-25.639v-50.448c0-11.246-0.475-22.949-1.362-34.195    c-1.82-5.871-2.299-13.09-1.82-21.662c0.405-4.033,0.405-12.149,0.405-23.373c0-4.987-0.405-13.052-1.33-23.401    c-0.439-10.377-0.867-18.456-0.867-23.382c0-8.605,0.867-16.67,2.662-24.341c0-15.786,0.474-27.455,0.95-35.065    c3.554-9.476,6.734-18.95,9.423-28.406c0.389-2.228-0.475-9.019-2.689-19.374l0.432-6.255h-1.785c0-2.721-0.461-4.953-0.903-6.768    l2.688,0.875l1.364-10.303l-2.735-0.94l-1.317,10.368c0-7.595-0.474-13.055-1.335-17.108c-0.498-2.246,1.335-10.795,6.28-25.168    c0.929-8.576,4.496-19.344,10.8-32.434c1.319-2.707,4.063-7.218,9.009-13.506c0.433-0.47,1.353-0.903,2.698-0.903    c0.482-2.274,1.775-5.898,4.092-11.266c0.851-2.228,6.242-8.069,15.694-16.66l1.358,2.725l-0.452,9.014l2.722,1.312l3.111,0.507    l2.75-1.404l-0.491-13.913l2.727,0.424l3.586,1.335l2.717,0.934c-1.36-0.934-2.717-1.795-4.107-3.157l-3.075-3.163H1350    c12.155-4.954,25.674-11.214,40.522-18.433c4.047-0.461,9.869-2.247,17.546-5.372h63.898c5.84,2.186,17.068,6.688,34.65,13.464    c3.619,1.345,7.658,2.209,12.66,3.605c1.276,1.358,3.11,3.591,5.77,6.736c10.41,8.111,17.608,13.977,20.763,17.54    c0.864,2.698,2.223,6.781,4.493,11.711c1.779,2.744,3.6,4.963,4.93,6.35c2.252,4.455,5.434,12.529,8.996,23.823v5.409    c0.959,3.155,3.154,10.359,6.754,21.159c0.466,3.149,0.932,6.73,0.932,10.358c0,7.196-4.531,24.305-4.531,31.527    c0,2.642,0.446,5.376,0.875,7.576l4.093,11.764v45.006c0.454,3.111,0.882,6.274,0.882,9.419c0,3.627,0,6.274-0.428,8.585    c-0.454,4.02-0.454,9.853,0.428,17.039c1.369,8.571,1.816,14.437,1.816,17.121v70.197l1.329,102.672h-4.027v2.717h4.027    c0,15.303,0.446,25.629,0.875,31.088C1578.646,674.341,1579.123,685.616,1578.646,696.87z M1286.558,433.989l5.795,1.312    l0.939-2.666l-6.734-0.925V433.989z M1298.655,584.784l-1.331-7.627l3.619-27.462l-6.358-0.941l-6.27,45.538l6.27,0.408    l0.503-4.512L1298.655,584.784z M1290.562,396.156h-1.359l0.498,6.318h0.861c0.474-3.583,1.791-5.387,4.526-5.387l-1.796-2.721    h-2.73V396.156z M1295.981,319.67l1.343-10.81h-2.739l-1.292,10.345L1295.981,319.67z M1314.869,470.456v-4.972l-1.274-6.288    l-6.813-0.499l-4.466,6.787l5.349,10.377l-6.721,1.325l0.41,19.824l-1.312,12.094l6.332,0.92l2.65-19.768l5.429-17.121    l-2.731-1.345L1314.869,470.456z M1314.869,448.865l1.354-11.266l-2.628-8.996l-5.931-0.935v2.26l0.437,18.466L1314.869,448.865z     M1322.084,396.156l5.883-7.196l4.949,4.075l1.326-3.614l-0.911-1.401h-4.508l4.508-6.256c-6.298-0.47-8.541-4.027-7.178-11.242    l-6.759-1.33l-3.604,1.33l2.223,8.135l-3.562,27.861l6.315,1.378L1322.084,396.156z M1315.791,346.225v2.245l6.293,3.597h2.706    l4.475-6.332l-6.684-0.851L1315.791,346.225z M1323.432,342.15l5.833,0.897l9.917-70.606l6.786,2.21l6.727-1.345v-0.865    l-13.061-3.158l2.271-16.675l-6.308-0.474l-12.164,40.053V342.15z M1336.962,406.519l2.219-5.81h-1.34    c-3.119,0.415-5.413,1.764-5.827,4.024l3.581,1.786v0.908h-2.679l-2.733,1.812v3.61h1.832l-5.861,17.079    c1.814,0.479,4.029-3.613,6.763-12.116l2.679,0.437L1336.962,406.519z M1336.483,393.509c-2.697-0.474-4.908,3.15-7.219,9.852    v3.158h1.354c0.958-8.079,2.713-11.655,4.977-10.781L1336.483,393.509z M1354.019,472.279c8.136,0,16.661-3.618,25.261-10.847    c0-27.931-8.6-41.884-25.261-41.884l-9.005,4.962h-1.809v-6.698l1.809-3.181c13.992-4.061,20.763-8.112,20.763-12.158v-1.764    l-2.75-3.182c-7.185,1.363-10.831,4.061-10.831,7.633c-13.921,5.41-20.621,19.349-20.621,41.857    C1335.595,463.711,1343.206,472.279,1354.019,472.279z M1336.962,240.426l-1.367,8.996l6.735,1.381l1.362-9.921L1336.962,240.426z     M1339.633,399.752v-4.014l-2.671,2.703L1339.633,399.752z M1348.634,483.488c-2.252,0-4.038-1.805-5.428-5.837h-1.302l-1.36,0.87    c0,2.27,2.244,5.433,7.221,9.014L1348.634,483.488z M1350.423,394.864h-4.042v2.223l3.619,0.441L1350.423,394.864z     M1347.273,438.036v-1.392c0-2.212,1.36-2.655,4.048-1.719l13.066,2.674l-0.917,2.702L1347.273,438.036z M1354.019,508.703v-2.237    h-4.897l-1.848,2.237v2.707l1.848,1.745L1354.019,508.703z M1353.586,581.202l3.173,4.01l-0.456-4.931h-1.36L1353.586,581.202z     M1355.378,394.864v0.874l4.038,0.418l7.678,2.285l19.358-0.913l0.461-1.79l-26.585-4.032L1355.378,394.864z M1369.365,581.202    v-1.32l-2.271-2.725h-1.316v2.725L1369.365,581.202z M1391.419,174.281c-18.892-2.284-26.595-3.145-22.971-3.145    c-0.488-4.093,0.447-6.734,1.787-8.991c4.976-6.75,10.334-15.321,16.679-26.569c1.773-5.846,5.34-12.162,11.229-19.367    c7.214-8.591,11.685-14.424,13.474-17.582l11.284-20.229c7.672-13.944,16.665-21.582,26.591-22.945    c4.01-0.451,14.829-0.451,32.84,0.419c15.712,0.53,25.666,0,28.817-1.284c13.489,0,20.651,4.051,22.038,12.098    c0,4.986-4.929,10.786-14.399,17.554l-21.145,14.387l-11.786,10.367c-2.606,1.787-7.584,6.345-15.258,14.005l-3.57,3.601    c-10.793,10.768-25.184,23.829-43.258,38.661C1416.179,171.578,1405.355,174.746,1391.419,174.281z M1389.602,412.85v-1.382    l-6.297-2.229h-1.374l-2.651,2.229l0.889,1.382H1389.602z M1392.253,403.361v-2.236l-3.108-0.415l-0.916,1.764L1392.253,403.361z     M1506.617,590.188l-2.715-7.182l-4.028,4.559l-9.46-2.781l-1.379,1.377h-1.311l-0.911-1.377l0.911-1.777l-2.271-12.66l1.36-4.456    l-1.36-4.513v-22.511l-1.328-22.931h1.328v-1.866l-1.328-1.349v-1.312l1.328-1.386l-1.328-4.022l1.328-15.745l-1.328-10.345    h-2.289c0,4.042-0.875,7.201-2.65,8.958v-9.828c0-8.587,0.436-18.056,0.865-28.42c-1.331-9.428-1.779-23.836-1.779-42.302    c0.448-1.801,0.448-4.038,0.448-7.195c0-2.684-0.448-5.387-0.913-7.616v-19.855l1.379,0.912c0-2.699,1.357-4.043,3.562-4.043    v1.344l1.814-2.674l1.83,1.805h2.643l-2.222-4.54l-3.564-0.879l-0.501,1.339l0.501,0.902l-5.442-0.902V342.15    c-0.417-1.773-0.417-1.773-0.417-0.434c0.882-5.841,0.882-10.316,0.417-12.609c-6.752-26.554-20.697-40.945-41.385-44.127    l1.823-4.94v-2.698l-1.359-1.33h-0.464l-4.986,8.07h-9.443v2.269c-0.879,0-1.357,0-1.357,0.47    c-9.429,4.466-16.638,11.233-20.661,19.795c-2.298,3.135-3.613,8.089-3.613,14.81v18.949c0,5.358-0.442,10.345-1.363,14.838    c0,7.675,0.92,26.549,0.92,34.206c0,21.149,0.442,52.666,1.326,94.532c0.897,41.861,1.357,72.914,1.357,93.62    c0,20.225,1.373,36.467,4.499,48.617c1.349,4.939,1.349,10.316,0.471,15.348c-1.364,5.369-1.364,12.578-0.471,21.154l3.139,35.955    c-0.428,6.781,0,12.15,1.364,16.707c0.877,12.568,4.977,23.795,12.598,33.75c3.141,4.494,8.601,5.842,16.221,4.008    c9.44-2.213,15.738-4.52,18.856-6.268c2.333-4.986,9.041-13.088,14.446-20.727c1.804-8.531,4.52-21.154,8.082-38.232v-39.583    c1.814-7.703,2.244-17.173,1.814-28.001c-0.436-10.745-0.901-20.205-0.901-28.755h0.466l7.628-1.358l3.601,1.358L1506.617,590.188    z M1479.186,562.719V558.7h-0.466v-13.508l0.466-18.977v-31.898c1.775,2.692,2.65,6.265,2.65,10.335v9.418l-2.65,10.354v1.39    l2.65,21.591l-1.293,11.294l1.293,1.33h-1.293v2.689H1479.186z M1478.72,581.63v-17.553c2.697,4.958,4.028,9.051,4.028,11.731    l-0.912,5.822H1478.72z M1481.417,286.353l-0.874,2.684l2.205,3.15l1.377,0.896l1.328-1.298v-4.963L1481.417,286.353z     M1487.725,476.288l-2.271-4.498l-2.705-0.888l-0.912,4.958l2.727,2.66L1487.725,476.288z M1489.035,609.093v-1.367l-1.311-0.428    l-2.271,1.795v1.377h2.271L1489.035,609.093z M1490.414,373.654v1.372l2.687,4.042h1.34L1490.414,373.654z M1498.543,564.551    l-2.251-0.475l-1.852,14.819l1.852,0.986L1498.543,564.551z M1497.203,436.25l-2.269,2.647h3.608v-1.298L1497.203,436.25z     M1501.222,370.998l-0.874,0.869h1.798l1.327-0.869l0.43-3.178l-1.301-0.902L1501.222,370.998z M1508.859,532.997l4.084-4.019    l-5.404-4.553h-4.066l-3.125,2.697v1.856l3.555,4.019H1508.859z M1506.617,414.143l-5.396-0.869v1.358l5.396,0.864V414.143z     M1514.275,367.82v-3.59h-12.13v2.228L1514.275,367.82z M1503.473,361.491v1.805h1.369l2.697-1.304l1.785-14.437h-2.707    L1503.473,361.491z M1516.99,366.458h3.563l-2.225-2.228h-1.339V366.458z M1527.782,561.378l1.35-1.349    c-1.814-9.897-4.085-15.322-6.744-16.651l2.659,17.098L1527.782,561.378z M1536.312,634.759v-3.154h-6.298v3.154l1.396,1.329    L1536.312,634.759z M1531.799,297.158l-1.291,0.465v6.251l2.678,0.954l0.902-7.205L1531.799,297.158z M1537.689,614.515v-2.744    h-5.891v2.744H1537.689z M1535.457,320.541v1.353l1.293,1.4l4.947-2.753v-2.675L1535.457,320.541z M1535.457,364.662v3.159h8.977    v-3.159H1535.457z M1564.684,632.971v-2.734h-0.455l-26.084,1.368v3.154h6.289l0.453-1.788v1.788l6.31-1.788H1564.684z     M1545.81,514.559l-4.112,3.173v1.321l3.189,4.019h1.342l4.074-2.68v-1.339l-3.19-4.494H1545.81z M1547.633,465.484l-0.521,4.032    l5.414,7.67l3.562,0.465l4.578-3.164l0.893-3.585l-6.734-8.108h-3.154L1547.633,465.484z M1556.088,517.732l-3.562-1.796v3.117    h3.562V517.732z M1562.898,494.317v3.134l1.33,1.298l1.824-2.684v-4.497h-1.369L1562.898,494.317z M1562.898,550.551v2.735    l9.452-1.368v-1.368l-1.368-1.796L1562.898,550.551z"/>
		<path fill="#FFF200" d="M1804.934,1069.233c-14.728,0-29.08-5.971-39.538-16.949l-1.319-1.396    c-2.049-2.146-3.898-4.445-5.556-6.863c-16.789-0.168-31.775-7.926-41.674-20.002c-6.073,2.689-12.652,4.291-19.433,4.623    c-0.902,0.049-1.813,0.066-2.716,0.066c-9.64,0-19.033-2.547-27.269-7.293c-13.208-3.553-24.447-11.947-31.684-23.152    c-36.336-4.355-54.445-22.244-63.396-37.574c-9.285-15.898-9.749-34.959-2.195-50.902v-0.096    c-0.362-8.371-0.708-16.289-0.708-23.795V753.112c0-0.547,0.011-1.098,0.018-1.654c0,0,7.686-252.606,7.686-252.643    c-0.046-1.187-0.046-2.377,0-3.573l4.409-135.942V246.296c0-9.632-0.401-15.107-0.762-18.079    c-3.211-21.652,1.143-42.388,12.325-58.499c1.906-2.731,4.046-5.294,6.41-7.638l4.992-4.944    c10.085-10.005,23.678-15.676,37.873-15.82c16.894-0.175,33.164-0.284,48.865-0.284c29.685,0,55.017,0.401,77.437,1.229    c47.369,1.501,114.772,9.19,149.983,58.266c17.628,24.861,24.839,58.323,22.215,102.548c-1.711,30.186-2.55,55.08-2.55,75.992    v94.068c0,5.939-0.968,11.842-2.873,17.465c-2.826,8.387-5.572,16.224-8.362,24.126l-8.253,22.857    c-1.312,3.646-3.004,7.135-5.06,10.409c9.619,16.121,17.413,36.875,20.883,63.5c0.084,0.668,0.158,1.338,0.225,2.018    c0.939,10.131,1.136,51.184,1.136,83.836c0,18.092-0.986,43.99-2.271,75.975c-1.452,36.361-1.768,59.014-1.768,71.6    c0,28.197,3.758,53.723,11.154,75.9c5.563,16.65,2.771,34.949-7.48,49.189c-1.982,2.746-4.186,5.277-6.596,7.574    c-1.479,3.1-3.266,6.123-5.366,8.996c2.437,6.186,3.776,12.922,3.776,19.973v2.641c0,30.15-24.447,54.588-54.587,54.588h-4.708    c-3.963,0.922-8.094,1.406-12.345,1.406h-5.031c-3.89,0.883-7.937,1.348-12.094,1.348h-7.919    c-3.934,0.875-7.915,1.301-11.868,1.301c-0.159,0-1.758,0-1.758,0C1813.118,1068.778,1809.018,1069.233,1804.934,1069.233    L1804.934,1069.233z"/>
		<path d="M1879.233,771.124c-1.321,32.865-1.814,57.172-1.814,73.797c0,33.797,4.513,64.848,13.973,93.184h-4.979    c-6.743,4.055-15.711,6.318-27.443,6.318c-4.491,0-11.235-0.467-20.24-1.387c-8.531-0.41-15.313-0.877-19.787-0.877    c-4.027,0-8.111,0-11.721,0.467c-5.878-9.461-13.07-24.811-22.085-45.5v-39.99c-1.312-5.889-1.786-13.07-0.865-21.637    c1.292-11.275,1.806-40.971,1.806-88.654l-10.373-0.857v-2.791h10.817c0-13.924,0-27.842,0.43-41.812l0.901-42.318    c0-5.889,0.456-13.908,1.806-25.201c0.438-5.852,0-13.973-1.806-23.395c-8.093-3.619-18.912-6.326-32.4-8.578    c-1.785-0.475-4.969-0.475-8.996-0.475c-9.45,0-16.196,3.162-20.223,9.053h-1.385l-1.361,8.977h1.361v4.074h-1.778l-1.386,8.939    h2.753l0.411-6.27v206.172c-2.232,4.477-4.021,12.559-4.504,24.773c-0.456,13.098-0.456,25.619,0,36.838    c1.34-3.107,1.794-4.949,1.794-6.26l-0.454,1.311h1.386l4.437,29.74h0.958l-0.958,6.764v26.092h-1.273    c-1.796,0-3.163-7.197-4.549-21.16l1.803-2.234l-0.417-17.145h-1.386v2.734h-1.34v-0.492c0,12.205-0.894,20.27-2.717,24.781    c-1.311,1.35-2.679,4.055-4.95,7.201c-6.733-1.35-15.748-1.777-26.976-1.777c-4.996,0-13.062,0.428-24.3,0.895    c-22.969,1.348-36.901-2.689-41.918-11.258c4.105-4.076,5.899-10.781,5.424-20.717c-0.407-9.879-0.873-18.885-0.873-26.549    V753.112l7.664-252.53l2.195,0.47v-1.377l-1.774-3.61l-0.421,0.945l4.447-136.827V246.296c0-10.344-0.4-18.893-1.284-25.647    c-1.356-8.544,0-15.326,3.107-19.8l4.996-4.949c45.434-0.466,86.374-0.466,123.716,0.913    c56.279,1.785,91.824,13.47,107.649,35.536c9.888,13.948,13.915,36.428,12.082,67.504c-1.775,31.075-2.65,57.173-2.65,79.215    v94.068c-2.744,8.13-5.415,15.735-8.121,23.395l-8.121,22.522c-1.342,1.776-6.279,6.26-15.286,13.944    c-4.091,3.145-6.325,9.916-6.752,20.29c19.35,12.605,31.033,34.279,35.069,65.267c0.467,4.968,0.902,31.052,0.902,78.794    C1881.454,713.94,1880.552,738.22,1879.233,771.124z M1642.966,553.714l0.344-1.795l-3.06-0.939l-0.949,2.307L1642.966,553.714z     M1642.035,543.378v0.931l5.389,1.302l0.892,0.475l2.725-1.777l-0.455-1.397L1642.035,543.378z M1668.12,561.378l3.573-2.678    v-1.368h-3.573l-6.289-2.27l-17.099,0.883v1.787L1668.12,561.378z M1660.028,397.528v1.363l1.803,2.234l0.855,0.935l0.503-3.168    L1660.028,397.528z M1664.52,519.48v2.247l10.408,1.809c0.858,0.465,1.359,0.465,1.787,0.465c1.358-0.465,1.769-0.93,2.222-1.814    v-0.46L1664.52,519.48z M1673.524,397.528l-2.698-3.163l0.867,4.075l0.492,0.45L1673.524,397.528z M1686.576,720.741l5.396,0.875    l-6.727-12.605l0.921-7.189l-2.251-1.787h-3.608l-1.823,0.875l0.453,12.139l-2.649-0.42l-2.763-1.328h-2.698    c7.247,4.492,10.354,11.236,9.034,20.26l5.385,0.838L1686.576,720.741z M1699.638,603.706l-5.386-0.484l-8.086,59.898h-2.716    l-3.144-1.357l-5.889,1.357v0.857l10.827,2.752l-1.795,14.385l5.433,0.443l10.755-34.65V603.706z M1679.86,556.458h-3.573v1.275    l2.649,0.967L1679.86,556.458z M1677.562,481.683c1.832,0.936,3.619,2.754,4.958,4.954l1.396,0.897l0.875-1.371    c-0.438-1.327-2.271-3.545-6.307-7.121L1677.562,481.683z M1681.647,691.399l5.85,0.559l1.386-8.119l-5.433-0.914    L1681.647,691.399z M1773.48,966.06l4.057-4.113l2.706,6.744h-1.396l-14.854,1.342l-3.599-1.342l-7.184,1.342h-2.222    l-13.517-1.342l-5.861,1.342l-27.888-1.342h-22.075v-1.281l2.268-2.764h1.33l6.309,1.414c0-1.869,1.795-2.744,5.376-2.744v-2.697    h1.385c2.719,2.697,6.735,4.027,12.131,4.027l4.038-1.33l-1.33-1.369v-1.328l2.716-8.998h0.874c1.806,0,2.708,1.797,2.708,5.387    l0.894,1.387h1.34l1.386-1.387l0.417,1.387h1.361l3.616-1.387l2.671,6.309l3.591-1.369v5.463h1.357l1.795-6.791v-11.74    l2.243-2.697h1.357v6.838c0,3.988,0.902,6.24,3.192,7.6h1.33c0-4.037,0.92-6.309,2.716-6.309v1.377l-1.396,6.26h1.396l2.271-2.688    l1.328,1.359h3.591l0.476-6.309c0.391-4.084-1.387-8.539-5.395-14.4v-2.688h2.222v4.047h1.341v-2.633h1.356l-1.356-1.414    l1.356-10.381l-2.697-23.807l2.697-9.992v-8.939c0-4.102-1.356-8.129-3.591-12.166v-1.703c2.234-3.219,3.591-7.266,3.591-11.34    h1.825l1.357,11.34l-1.357,15.666l1.357,3.125l-1.357,1.379v1.328l1.357,1.311v2.736h-1.357l1.357,21.648v22.482l1.304,4.949    l-1.304,4.02l2.223,13.068l-0.919,1.369l0.919,1.33h1.358l1.321-1.33L1773.48,966.06z M1685.245,554.654v2.679l2.252-1.387    l-0.921-1.292H1685.245z M1687.954,548.318l-1.788,4.968l1.331,0.428c1.386-0.428,2.697-1.386,4.475-3.163l-3.089-2.232v-0.912    h1.777l2.688-1.32l0.903-3.174h-2.698l5.376-15.338c-2.224,0-4.019,3.581-5.376,11.293l-2.241-0.921L1687.954,548.318z     M1694.252,548.318h-0.903c-1.377,6.335-3.154,9.415-4.466,9.415l-0.929,2.297c1.794,0,4.018-3.163,6.298-9.051V548.318z     M1706.353,579.882l-2.63-7.693l3.589-23.87l-5.386-0.912l-1.367,9.926l-4.978,6.744l-4.027-4.047l-1.359,3.107l0.466,0.939h4.046    l-4.046,5.395c4.921,0.875,7.162,4.531,6.707,10.41l5.869,0.399L1706.353,579.882z M1691.972,971.382v-1.35h4.958v1.35    l-2.224,2.742L1691.972,971.382z M1705.944,600.097v-1.787l-4.911-2.716l-2.719-0.894l-4.062,5.396l6.307,1.795L1705.944,600.097z     M1713.153,530.318v-1.874l-1.32-15.722l-5.48-0.874l-1.303,9.879l2.681,7.251L1713.153,530.318z M1719.015,488l-0.922-17.545    l1.358-10.373l-5.387-0.887l-2.231,17.092l-4.521,15.28l1.786,0.474l-1.786,1.331l-0.959,4.078l1.378,4.931l5.423,1.34    l4.475-6.271l-4.475-8.581L1719.015,488z M1794.645,429.045c-1.367-34.68-1.843-59.434-1.843-73.83    c0-4.958,0.476-12.572,0.901-23.386c0.941-16.652-7.182-26.127-24.763-29.275c-10.336-1.782-20.223-2.703-29.674-2.703    c-9.44,10.772-14.418,39.657-14.418,86.453h-0.411l-0.95,4.038l-3.143,4.521l1.794,7.195l-3.124,22.944l5.423,0.875l0.411-5.424    c0,4.549,0.472,17.582,1.385,38.742c0.409,13.939,0.847,26.968,0.847,38.255c6.781,3.131,21.638,4.931,43.683,4.931    c2.718-1.8,6.774-2.707,11.732-2.707c1.329-1.349,4.026-5.358,5.357-6.764C1793.703,485.312,1795.993,464.135,1794.645,429.045z     M1727.507,557.333h1.358l-0.4-5.414h-0.958c-0.427,3.144-1.787,4.54-4.02,4.54l2.232,2.242l1.787,0.391V557.333z     M1727.08,605.054l0.427-6.744h-1.787l-0.871,6.744H1727.08z M1731.136,526.215v-1.791l-5.416-0.889v2.279L1731.136,526.215z     M1759.09,748.165l-2.707,2.734v-1.33c-2.252,0-3.173,1.33-3.173,4.029l-16.613-4.029h-1.87v-1.404    c0.494-1.32,3.152-2.697,7.182-3.562l17.182,2.668V748.165z M1759.09,988.071l2.223-2.244l1.358,0.873v1.371l-1.358,1.375h-2.223    V988.071z M1770.763,815.692l1.37,1.348v1.789h-3.192L1770.763,815.692z M1777.062,903.034h4.028l4.986,5.369l-3.582,3.645h-4.958    l-3.174-3.645v-2.682L1777.062,903.034z M1803.61,1013.251v-2.65h6.3v2.65l-4.977,1.387L1803.61,1013.251z M1805.854,993.466    v-2.67h5.375v2.67H1805.854z M1809.91,427.24v-1.362l-2.688-2.721v1.354l1.366,2.73H1809.91z M1811.779,1010.601l26.95-1.406    v2.754h-13.972l-5.815,1.303v-1.303l-0.912,1.303h-6.251V1010.601z M1842.746,453.334h1.853l2.262-2.289v-1.331l-1.378-1.32h1.378    c0.409-7.698,0-11.75-1.378-12.145h-1.368l0.484,2.647l-1.387,3.19l0.902,2.712l-1.368,4.065V453.334z M1845.909,1010.601v-2.744    h9.945v2.744H1845.909z M1865.726,1009.194v-2.641h7.182v2.641H1865.726z M1869.307,954.31c1.806-4.502,5.024-6.744,9.479-6.744    l1.332,1.312v4.141c0,2.213-3.118,3.988-9.415,4.918l-1.396-1.355V954.31z"/>
		<path fill="#FFF200" d="M2012.761,918.858c-0.978,0-1.953-0.027-2.932-0.084c-0.966,0.057-1.943,0.084-2.93,0.084h-0.444    c-6.17,0-12.167-1.043-17.787-2.977c-1.861,0.195-3.732,0.287-5.601,0.287c-3.786,0-7.592-0.389-11.367-1.189    c-12.233-2.605-25.451-5.518-39.256-9.1c-14.279-3.701-26.448-13.031-33.741-25.859c-10.54-18.559-16.123-40.178-16.123-62.533    c0-9.684,1.035-19.916,3.184-31.266c0.027-0.193,0.072-0.391,0.11-0.596c2.548-12.736,3.843-24.586,3.843-35.229    c0-4.215-0.344-8.938-0.68-13.006c-0.121-1.486-0.187-2.996-0.187-4.492V397.086c0-2.242,0.14-4.479,0.42-6.703    c3.282-26.605,2.687-49.908-1.769-69.252c-3.646-15.992-3.591-31.797,0.129-47.151c0.57-2.362,0.877-3.943,1.053-4.926    c-1.209-12.953-1.935-20.285-2.371-24.419c-0.977-4.103-1.498-8.373-1.498-12.767c0,0,0-0.061,0-0.089    c0.008-14.773,2.93-28.136,8.696-39.828c7.108-17.694,20.263-32.546,37.536-42.272c1.685-0.944,3.415-1.8,5.182-2.562    c-0.008,0.004-0.008,0.004-0.008,0.004c-0.029,0,2.205-1.125,6.595-3.934c8.401-5.397,18.122-8.378,28.112-8.629    c4.297-0.107,8.447-0.163,12.447-0.163c23.784,0,89.304,0,115.714,41.871c9.925-13.567,21.313-21.837,31.675-26.861    c15.006-9.87,32.05-14.865,50.774-14.865c8.633,0,21.776,1.144,59.101,9.428c20.959,4.65,37.015,21.06,41.498,41.624    c0.288,0.777,0.604,1.591,0.928,2.437c3.546,9.374,7.953,21.034,7.953,34.834c0,25.699-11.188,43.355-23.042,62.044    c-2.622,4.144-5.598,8.846-8.918,14.331c-0.645,1.335-1.006,2.265-1.202,2.799c-2.519,27.108-12.623,51.839-29.34,72.077    c-1.107,9.563-3.341,20.912-6.986,35.889c-1.142,4.685-2.894,9.163-5.171,13.332c5.413,14.187,8.911,30.824,10.575,50.093    c3.33,36.644,5.331,48.546,5.824,51.127c4.4,14.47,9.58,34.284,15.396,58.946c0.839,3.525,1.312,7.125,1.433,10.744    c0.278,8.539,2.886,23.461,7.76,44.42c8.175,18.084,17.339,39.145,25.487,61.564c0.316,0.885,0.613,1.766,0.892,2.65    c1.835,6.01,5.991,17.49,10.811,30.801c5.087,14.242,10.939,35.025,17.461,61.984c0.474,1.934,0.838,3.906,1.089,5.877    c1.879,14.672,2.727,25.557,2.727,35.297c0,6.678-0.532,12.064-0.921,16.008l-0.196,2.066    c-1.526,16.65-10.604,31.695-24.643,40.811c-8.596,5.58-19.795,10.354-34.149,14.52c-10.873,4.568-23.21,6.801-37.452,6.801    c-0.587,0-2.837-0.027-6.595-0.354c-1.694-0.139-4.55-0.391-8.374-0.65c-0.27-0.01-33.221-2.744-33.221-2.744    c-15.814-1.322-30.279-9.451-39.617-22.291c-7.713-10.604-14.383-21.963-19.963-34c-1.137,4.959-2.56,9.844-4.299,14.633    c-4.205,11.6-12.205,21.443-22.717,27.91c-16.401,10.082-35.443,16.334-56.606,18.574c-1.907,0.207-3.805,0.297-5.684,0.297    c-2.243,0.291-4.512,0.439-6.818,0.439H2012.761z"/>
		<path d="M2261.225,836.839c0,4.977-0.512,8.957-0.894,13.096c-4.083,2.662-11.778,5.814-23.454,8.959    c-4.037,2.26-9.888,3.562-18.426,3.562c-0.465,0-4.483-0.408-11.236-0.875l-32.43-2.688c-10.781-14.828-18.41-31.1-23.395-48.643    v-26.074c-4.97-11.686-11.723-29.732-19.799-54.012c-1.805-23.398-2.717-39.592-2.717-48.607    c-1.348-8.09-6.296-27.926-14.438-59.852c-4.057-14.855-9.432-35.545-17.041-62.615c-4.076-0.391-6.801-0.391-8.113,0    c-22.977,11.256-34.223,44.131-32.884,98.143l0.901,41.898c0.493,22.027,0.857,63.898,1.777,126.422    c0.485,9.945-0.92,18.93-4.018,27.498c-9.499,5.842-20.698,9.404-33.749,10.781c-0.904-2.68-1.341-5.395-1.341-8.084h0.875    c0.466-6.734,1.785-10.363,4.072-10.363l-1.365-2.242h-0.922l-0.418,0.922l-2.242-3.627l2.66-4.047l-0.418-1.35    c0-4.959-1.367-9.043-4.057-12.148v-0.877l5.844-0.502v-2.221l-4.029-2.254c-0.447-1.348-0.903-1.775-1.814-1.775v-2.717    l3.155-1.35c0-1.348-0.904-2.25-3.155-2.25v-2.717H2024v-1.812h-4.029l0.875-0.895v-0.391l-0.875-1.832h1.341v-1.34l-0.466-0.465    c-1.778,0-2.689-0.932-2.689-2.699l0.466-2.744v-1.303l-0.466-0.92v-0.463l0.466-1.332l-0.466-3.609v-0.428l1.367-10.344v-22.057    l-1.367-11.74l0.466-2.709v-0.408l-0.466-0.939l0.466-5.404l-0.466-0.838l1.367-2.744v-9.422l-0.901-13.555l0.901-6.307    c-0.901-4.93-1.787-8.133-2.26-8.959l0.893-0.455l-2.213-16.65c1.32,0,2.213-10.775,2.213-31.93c2.689,0,4.978-1.83,6.762-5.45    v-2.224l-2.287-5.423h-1.319l-2.689,2.688v-9.424h-0.466c-0.893-1.404-1.377-6.297-1.377-14.408v-0.895l0.484-0.418l-0.484-1.406    v-3.617l-0.836-10.773c5.368-2.623,9.832-4.027,13.033-4.027v-2.242l-11.713,1.293h-1.32v-3.582l-0.521-4.473l1.841-0.939    c0.893-2.68,1.358-12.141,1.358-28.812l-1.358-3.097v-1.397l0.893-8.102l-1.377-3.656l1.377-16.596l-0.893-16.233h-1.841    l-1.293,35.564l0.428,2.707l-1.367,8.111l0.939,8.579c-6.765,1.368-9.974,3.172-9.974,4.447l0.976,7.702l-1.394,21.154v3.6    l-1.351,2.707v9.461l-1.357,1.35h-9.878l-1.806-1.35h-0.874l-1.833,2.223v1.406l-5.358-1.406h-0.939v1.824l19.359,3.582    l0.408-0.893h1.395l1.351,2.25v13.023c1.302,0,2.277,0.494,2.277,1.824v11.246h0.421c1.347,0,2.288-3.107,2.288-9.86v-13.062    c0.846,0.895,1.768,4.038,2.668,9.852v1.357h-1.346l0.445,10.783c0,3.201-0.922,5.47-3.153,7.721v5.842    c1.386,2.26,1.785,5.387,1.785,9.889c0,5.834-0.399,9.451-1.785,10.793v15.271l0.444,4.096l-0.444,0.455l1.386,2.668v6.793h1.768    v-2.688h2.232v2.186l-1.332,10.391h-1.346v-2.271l2.678-6.742h-2.232l-0.445,0.912c0,3.143-0.923,5.375-2.708,6.762h-1.323    l-0.976-2.744l-3.126,4.557l-22.047-1.812h-22.028v1.812h3.601v5.396h1.356l1.359-5.396l2.681,1.322l2.65-1.322l2.279,1.322    l11.691-1.322l4.066,1.322l2.707-0.418c9.023,1.328,13.508,3.115,13.508,5.404l2.698-3.656c0.446,0.893,1.347,2.307,2.288,3.656    l-0.941,8.047v6.344h-1.347v6.707l-1.396,2.299l0.976,4.074c0,2.186,1.323,3.096,4.031,3.096l-1.322,4.988l1.768,2.688    l-1.368,1.35h-4.084v2.689l-0.418,4.947h1.394v-2.727h0.421v1.342l-1.396,10.41c0.976,1.328,1.396,4.428,1.396,9.422v5.414    l-0.421,0.885l-0.976-0.885l-2.652,0.885v1.795c1.351,0,2.234,0.475,2.234,1.357v15.721l0.418,1.396    c2.299,0,3.685-5.424,4.084-16.197h0.923v2.67l2.678,1.74v0.969h-0.931v8.102h0.931v32.857h-14.392    c0.438,0.912,0.921,2.27,0.921,3.6c-1.396,0-3.629,2.232-5.878,6.744c-5.853,4.084-9.006,6.316-9.425,7.703v4.445    c-12.651-2.688-24.754-5.377-36.902-8.529c-5.888-10.363-8.997-22.504-8.997-35.564c0-6.762,0.875-13.963,2.232-21.145    c3.145-15.711,4.902-31.07,4.902-45.945c0-5.795-0.381-11.656-0.864-17.498V557.333h13.062v-1.387h-13.062V397.086    c4.067-32.856,3.172-62.56-2.753-88.226c-1.739-7.651-1.739-14.847,0-22.038c1.859-7.665,2.753-13.516,2.753-18.47    c-2.753-29.708-4.038-41.866-4.038-36.484c0-7.191,1.285-13.024,4.038-17.54c2.263-7.195,7.21-13.039,14.373-17.07    c3.162-1.359,8.141-4.061,14.473-8.131c52.134-1.302,79.622,6.306,82.776,22.098c2.24,11.237,3.098,31.443,3.098,60.695    c0,11.289,0,23.443-0.364,36.94c-4.511,7.2-6.818,17.085-7.256,30.16c-0.438,18.419-1.357,28.8-1.795,31.978    c-1.805,8.069-1.805,13.455-0.445,16.191c1.368,2.697,2.24,8.548,3.152,17.972c3.108,1.805,4.949,2.736,6.344,2.736    c2.159-0.47,4.021-1.378,5.321-2.736c7.714-5.847,14.029-23.397,19.396-51.75c6.771-22.907,14.885-42.341,25.2-57.573    c4.039-6.345,10.372-18.014,18.431-35.569l9.077-36.47c5.33-14.386,13.022-23.381,22.447-26.54    c6.763-5.4,14.429-8.131,23.871-8.131c7.173,0,22.94,2.73,47.274,8.131c0.438,4.967,7.62,18.897,7.62,25.604    c0,13.089-8.987,22.983-25.2,49.979c-4.455,8.6-7.163,16.651-7.656,23.391c-1.377,17.122-7.601,31.987-18.009,44.145    c-5.397,6.322-8.996,13.033-10.782,19.806c0,8.08-2.234,20.243-6.289,36.903c-4.066,3.182-9.006,12.153-14.41,27.917    c9.918,8.986,16.17,26.518,18.465,53.116c3.146,34.602,5.814,55.305,7.619,61.156c4.03,13.052,9.026,32.03,14.857,56.765    c0.467,13.944,4.057,33.722,10.398,60.327c9.424,20.689,18.43,41.377,26.104,62.504c2.213,7.246,6.279,18.484,11.674,33.387    c4.009,11.229,9.415,30.121,15.741,56.244C2260.331,819.294,2261.225,828.743,2261.225,836.839z M1956.5,835.042v-2.68h-2.29v2.68    H1956.5z M1960.974,743.196v2.271h0.938l1.359-2.271H1960.974z M1966.834,857.489l5.854-2.652v-1.785h-1.806    c-2.279,1.785-3.583,2.697-4.048,2.697V857.489z M1975.373,555.946v-2.232h-5.869v2.232H1975.373z M1977.644,847.19l-0.919,1.367    l1.385,1.377h0.874l0.885-0.502l-1.759-2.242H1977.644z M1996.091,832.362l2.279,0.41c2.66-2.689,4.931-6.773,7.183-12.104    c-1.814,0-2.698-0.949-2.698-2.707l0.884-4.066h-2.234l-1.803,4.934l0.408,3.188c-2.66,2.207-4.019,5.369-4.019,8.924V832.362z     M2006.455,864.271l0.444-0.438v0.438H2006.455z M2010.91,794.528l1.851-1.777h0.43l0.939,2.67h-0.939l-0.43,1.377h-1.851V794.528    z M2011.841,608.673h0.92v5.842h1.369v16.615h-1.369v-3.554L2011.841,608.673z M2011.841,757.644v-8.074h2.289v6.252l-1.369,1.822    H2011.841z M2014.558,779.729l0.865,2.65h1.356v1.385h-1.356v2.234l0.521,4.037l-4.103,1.795v-20.223l1.35-1.359h2.232v4.457    L2014.558,779.729z M2013.19,806.231h-1.35v-8.102h2.717v1.832h-1.367V806.231z M2011.841,863.833l0.92-0.865l1.797,0.865v0.438    h-1.797L2011.841,863.833z M2013.19,632.971l1.367,21.601l-0.428,5.387h1.293v9.451l-1.293,2.232v0.467l0.428,0.883v3.164    l-0.428,13.004l0.428,2.799l-0.428,5.389h-0.939l-0.43-64.376H2013.19z M2013.19,732.899v5.842h-0.43v-5.842H2013.19z     M2014.558,726.937v-3.971h0.865v3.971H2014.558z M2032.992,743.196l0.932-1.338l-1.376-1.35h-1.339l-0.875,0.875    c0.438,0.93,1.34,1.812,2.658,2.791V743.196z M2045.171,689.159l-0.483-1.273c-2.205,0-3.6,1.273-4.921,4.072v3.592l1.321,1.32    h2.288c1.312-0.453,1.795-2.725,1.795-6.752V689.159z M2043.767,796.798v-1.377h-0.391l-2.288,1.74v0.969h1.395L2043.767,796.798z     M2043.767,726.937l1.404-1.273l-1.404-2.223l-1.284,2.223L2043.767,726.937z M2048.298,598.31l-1.359-1.367h-0.884    c-1.367,0-2.288,1.367-2.288,4.02L2048.298,598.31z"/>
		<path fill="#FFF200" d="M2468.037,1048.052c-15.469,0-30.641-6.578-41.265-18.828l-2.308-2.67    c-6.429-7.414-10.707-16.373-12.457-25.906c-2.586,0.381-5.208,0.566-7.877,0.566h-3.175c-24.11,0-44.576-15.627-51.802-37.312    l-13.203-0.586c-7.721,4.977-16.699,8-26.158,8.584c-1.135,0.076-2.277,0.115-3.405,0.115c-12.111,0-23.749-4.031-33.192-11.248    c-4.526-1.191-8.825-2.949-12.818-5.191c-8.036-0.447-17.767-0.984-29.172-1.664c-13.693-0.801-26.576-6.727-36.096-16.607    l-0.419-0.426c-2.687-2.764-7.682-7.898-11.775-15.695c-3.247-6.176-5.284-12.922-5.991-19.859    c-0.695-6.82-0.695-12.549-0.695-16.344c0-11.369,1.252-21.965,3.829-32.402c0.151-0.615,0.309-1.209,0.475-1.812l6.774-23.945    c0.863-4.949,1.982-9.889,3.341-14.744c0.138-1.016,0.294-2.029,0.481-3.043c3.852-20.074,6.939-39.314,9.219-57.221    c0.698-7.6,2.084-16.131,3.966-27.703c0.288-1.766,0.726-3.963,1.179-5.691l3.59-13.527c0.122-0.447,0.244-0.893,0.373-1.33    l7.209-28.252c0.631-10.428,0.949-18.447,0.949-23.898c0-18.316,0.753-30.597,2.512-40.793l17.973-117.792    c0.177-1.191,0.4-2.369,0.66-3.536c0.894-4.061,2.476-13.34,3.993-26.177c0.294-2.54,0.771-5.056,1.43-7.531    c7.435-28.158,13.975-60.764,19.991-99.69l7.163-47.5c0.3-1.99,0.71-3.963,1.229-5.907c0.977-3.679,3.003-12.452,7.127-33.419    l16.5-101.714c2.484-15.335,11.396-28.885,24.493-37.258c1.285-0.817,2.347-1.487,3.222-2.064    c9.793-8.261,22.24-12.842,35.172-12.842c57.33,0,96.802,2.451,120.673,7.502c17.274,3.66,31.712,15.446,38.765,31.642l1.05,2.358    c1.435,3.177,2.393,5.535,3.071,7.46c3.059,8.642,3.887,17.917,2.418,26.969c-0.383,2.33-0.605,5.177-0.661,8.121    c0.383,3.224,2.616,18.048,14.968,66.402c1.052,4.093,1.609,8.289,1.683,12.512c0.112,3.307,1.016,23.829,3.035,61.639    c0.138,2.019,0.26,4.32,0.417,6.901c0.317,5.424,0.699,11.94,1.312,19.61c1.264,4.41,2.68,9.461,4.277,15.154    c2.084,7.399,4.477,15.954,7.274,25.643c1.974,6.786,2.597,13.893,1.854,20.92c-0.196,1.847-0.456,7.326,1.347,18.15    c0.095,0.59,0.187,1.191,0.263,1.787c1.45,10.954,9.415,44.349,12.028,55.326c1.161,4.88,1.645,9.889,1.439,14.904    c-0.016,0.441-0.034,0.897-0.046,1.373c0.03,0.972,0.019,1.944-0.009,2.907c0.055,7.051,0.688,17.535,1.916,31.907    c7.695,5.015,14.121,11.972,18.542,20.4c9.423,17.991,8.073,39.731-3.507,56.42l-1.437,2.074    c3.507,14.43,7.175,32.709,11.107,55.389c2.243,11.488,2.625,23.572,1.119,35.172c0.585,2.744,0.958,5.535,1.117,8.354    c0.027,0.373,0.548,5.221,5.096,19.07c7.557,20.383,11.145,34.623,11.955,47.471c0.214,3.406,0.112,6.82-0.309,10.197    c-0.78,6.242-0.827,16.586-0.67,26.586c8.204,9.795,12.756,22.195,12.756,35.072v7.701c0,1.906-0.083,3.805-0.253,5.684    c3.76,22.242-6.613,44.746-26.344,56.234c10.046,9.906,16.272,23.666,16.272,38.885v4.465c0,30.141-24.44,54.588-54.591,54.588    c0,0-10.407,0-10.444,0c-4.96,1.479-10.207,2.277-15.657,2.277h-6.68c-5.396,1.779-11.154,2.746-17.144,2.746h-13.341l-0.894,0.25    c-4.792,1.322-9.685,1.975-14.548,1.975c-0.309,0-3.406,0-3.406,0C2479.369,1047.179,2473.686,1048.052,2468.037,1048.052    L2468.037,1048.052z"/>
		<path d="M2577.838,893.042c-7.695,4.084-21.154,6.383-39.612,6.383c-5.423-3.164-14.884-4.512-28.354-4.104    c-14.893,0.457-24.392-0.408-29.284-2.279c-4.11-6.258-6.751-17.068-8.501-31.889c8.501-8.102,13.032-20.252,13.032-36.93    c-4.531-14.838-11.282-23.387-19.832-25.658c-4.532-31.461-12.614-49.461-24.263-54.391c-5.888-4.074-15.759-5.955-28.819-5.955    c-4.055,0-8.073,0-12.604,0.521l-0.919,12.158l2.275,6.744l-2.275,2.672v2.715l2.275,2.242v4.977h-2.275l2.275,42.299v41.844    l1.312,9.441l-1.312,7.666l2.652,24.279l-1.34,2.232l1.34,2.734h1.833l2.271-2.734l13.479,5.023l6.734-7.256l3.62,12.178h-2.245    l-21.589,1.812l-5.443-1.812l-10.362,1.812h-3.59l-20.224-1.812l-7.237,1.812l-41.38-1.812h-32.391v-2.707l2.206-2.68    c-5.826-0.482-24.29-1.348-54.878-3.145c-1.356-1.414-2.688-2.717-3.181-3.646c-0.421-4.047-0.421-7.592-0.421-10.799    c0-7.619,0.914-13.928,2.245-19.352l7.629-26.959c0.474-3.17,1.358-8.121,3.145-14.027c5.858,1.357,9.448,8.131,10.369,19.424    c0.428,4.949-3.6,12.559-11.721,23.842l4.092,4.977c5.863-3.18,9.008-7.256,9.008-11.73c11.244,0,20.662-12.139,28.278-36.93    l-7.136-4.93h-15.768l-2.688-10.346l2.688-2.717l-6.754-7.666c0,6.764-1.356,10.383-4.511,10.383l1.796,2.643    c0,2.305-2.252,4.557-6.735,7.703c4.483-23.414,7.685-44.133,9.878-61.65c0.493-5.896,1.806-13.99,3.639-25.246l3.583-13.525    l1.347-1.748h-0.863l8.492-33.285c0.912-13.982,1.377-24.773,1.377-32.43c0-13.508,0.419-24.271,1.796-31.963l18.066-118.394    c1.282-5.833,3.134-16.615,4.902-31.536c8.55-32.391,15.301-67.457,21.163-105.286l7.182-47.699    c1.803-6.778,4.502-19.373,8.119-37.833l16.643-102.603c4.941-3.154,7.654-4.958,9.006-6.321c53.572,0,90.002,2.223,109.369,6.321    c1.35,3.106,2.243,4.912,2.725,6.261c-0.956,5.897-1.375,12.158-1.375,18.062c0,8.539,5.395,34.595,16.668,78.741    c0,1.349,0.914,22.494,3.118,63.89c0.485,7.21,0.967,18.443,2.279,33.322c3.116,10.382,7.219,25.689,13.063,45.904    c-0.905,8.562-0.459,19.359,1.784,32.866c1.377,10.345,5.842,30.583,13.03,60.797c-0.417,10.279,0.486,25.619,2.272,45.917    c1.329,8.103,2.65,13.954,4.056,17.042v0.986l0.428,0.399l0.93,4.503l1.322,4.064l-4.085,0.484l0.466,17.965l-1.304,10.381    l5.388,0.418l2.234-17.135l0.945-0.865c0,3.125,3.109,10.791,3.109,13.943c0,3.639-2.699,12.633-2.699,16.196    c0,1.833,0.465,3.182,0.902,4.522c4.027,13.963,8.575,35.545,13.482,63.889c1.393,6.781,1.393,13.498,0.49,19.34    c-0.49,4.047-0.882,6.336-0.882,7.211c0,4.074,0.392,7.199,1.784,9.943c0.429,8.055,3.152,19.303,8.104,34.197    c5.376,14.426,8.503,25.189,8.984,32.846c-1.347,10.818-1.347,25.201-0.882,43.611l6.288,23.461    c0.875-0.475,2.231-0.902,4.055-0.902l2.204,2.225v7.701c0,2.186-0.872,3.99-2.204,5.35L2577.838,893.042z M2274.86,772.026    v-5.385h-2.659l-4.985,5.385v2.26l2.754,2.697L2274.86,772.026z M2318.129,861.153h2.678l1.824,1.814v-1.814l-13.517-22.484    v-2.277c9.015,0,13.517,4.967,13.517,14.428v7.619h4.036l4.96-4.922c-2.252-16.678-8.996-24.773-19.798-24.773l-11.712,2.68v-2.68    c0-16.668,8.141-25.219,24.707-25.219l-4.018-4.959c-17.543,0-28.317,14.438-32.382,42.793l2.231,17.08    c-4.529,0-6.8,1.367-6.8,4.529c0,5.387,5.888,8.531,17.61,9.916C2312.667,872.884,2318.129,868.782,2318.129,861.153z     M2301.068,903.034c0-0.465,0-0.465,0.398-0.947h-4.075L2301.068,903.034z M2302.805,912.448v-2.68h6.31v2.68l-2.718,4.979    L2302.805,912.448z M2395.086,893.042l2.225-12.121c0-4.947-3.161-13.906-8.994-26.529v-5.834h3.59v7.646h1.348v-4.957h1.832    l-1.832-2.689l1.832-19.814l-3.18-43.619l3.18-19.852v-17.107c0-3.99,0-7.182-0.407-9.016    c-23.008,3.164-36.038,7.695-39.19,14.449c-3.156,4.922-5.416,10.334-6.746,15.74l5.396,45.051h1.35l-1.35,12.533v49.051h-1.36    c-4.036,0-6.268-13.006-7.628-39.582l3.592-4.969l-1.396-31.926h-2.196v5.424h-1.385l-1.805-2.736l-1.301-0.883    c-1.398,10.773-2.291,17.07-2.772,18.885c-2.233,4.947-3.61,17.145-4.019,36.949c-2.698,0.875-4.057,1.303-4.494,1.303    c0.438,0.93,2.252,2.715,4.494,5.832c0,13.09-0.923,23.916-2.242,31.508h-6.316c-1.814,1.348-3.639,2.232-5.835,2.734    c3.155,1.322,6.708,2.232,10.771,2.232l4.941-2.734l-1.319-2.232v-2.736l3.162-17.068h1.338c2.291,0,3.592,3.619,3.592,10.391    l1.805,2.242h1.385l2.196-2.242l1.396,2.242h2.261l4.485-2.242l3.59,11.646l5.404-2.232v9.471h1.358l3.602-12.207v-21.543    l3.152-4.932h2.243v11.713c0,8.504,1.774,13.451,5.401,14.762h1.379c0-8.062,1.265-12.121,3.59-12.121v2.709l-2.325,12.148h2.325    l3.108-5.375l2.25,2.639H2395.086z M2328.9,579.882l-1.331,10.307l2.678,0.475l1.38-10.382L2328.9,579.882z M2330.247,574.403    l-0.872,2.754l3.124,0.416v-3.17H2330.247z M2334.277,541.555v1.357h2.754l5.404-26.167h-3.174L2334.277,541.555z     M2365.346,555.946h-1.766l4.513,4.531h1.35v-1.386L2365.346,555.946z M2443.266,622.571c0,20.308-5.887-5.814-17.136-79.193    c-2.644-17.563-6.744-40.996-12.622-69.812h-12.121c-3.164,9.921-8.133,24.759-14.875,44.165    c-1.304,7.145-3.164,17.962-6.272,31.963v18.885c0,7.228,0,13.525,0.438,18.985c-2.685,9.377-5.384,18.42-8.082,27.406    c-3.152,10.362-4.502,20.213-4.502,29.256c7.2,4.075,16.623,5.842,28.771,5.842h34.682c2.259-3.162,4.521-7.19,6.296-12.168    C2441.479,631.13,2443.266,625.724,2443.266,622.571z M2400.956,943.956l3.175-4.502l1.311,1.814v2.688l-1.311,2.67h-3.175    V943.956z M2414.417,624.86l2.726-4.559l2.243,1.851v2.708H2414.417z M2426.13,785.124h6.772l6.754,9.404l-4.521,7.656h-7.21    l-5.386-7.656v-4.492L2426.13,785.124z M2436.504,653.632v-0.455l-1.368-3.107h-1.331v1.76l1.814,1.803H2436.504z     M2469.35,761.663v-1.785l-2.689-2.707l-4.976,4.492v2.744h4.976L2469.35,761.663z M2465.703,990.796v-4.969h8.133v4.969    l-5.814,2.67L2465.703,990.796z M2469.35,954.31v-4.947h6.81v4.947H2469.35z M2473.405,845.796v7.721l-2.233,2.232    c-0.956-4.502-1.375-7.674-1.375-8.994l0.894-0.959H2473.405z M2477.899,985.827l39.184-2.279v5.023h-20.744l-8.048,2.225v-2.225    l-1.826,2.225h-8.565V985.827z M2493.203,438.036l2.724-1.786l-2.305-2.261l-1.76,2.261L2493.203,438.036z M2512.104,550.979    v2.307l5.86,0.428v-1.795L2512.104,550.979z M2523.342,682.452l-2.231-6.68l3.553-23.443l-5.34-0.5l-5.842,38.744l5.842,0.826    l0.417-4.027L2523.342,682.452z M2515.706,520.392h-1.36l0.477,5.423h0.884c0.436-3.139,1.794-4.986,4.034-4.986l-1.775-2.711    h-2.259V520.392z M2527.426,985.827v-4.977h13.48v4.977H2527.426z M2546.331,600.097l-7.191,10.373h-1.407v-5.416l6.764-4.957    H2546.331z M2556.684,983.548v-4.465h10.324v4.465H2556.684z"/>
	</g>
	<g>
		<path d="M237.304,1057.915c18.91,0,27.985-7.076,27.985-21.756c0-13.713-9.449-20.613-28.81-20.613h-6.648v42.369H237.304z     M229.832,1131.267h-20.359v-134.4h22.964c20.547,0,29.117,1.891,37.698,8.439c9.153,6.945,14.712,19.162,14.712,31.426    c0,24.391-17.734,39.949-45.533,39.949h-9.482V1131.267z"/>
		<path d="M321.325,1064.331c0,28.258,22.173,50.41,49.949,50.41c27.646,0,49.808-22.592,49.808-50.41    c0-28.963-21.547-50.938-49.808-50.938C343.081,1013.394,321.325,1035.544,321.325,1064.331z M441.463,1064.155    c0,38.322-31.446,69.703-69.947,69.703c-40.126,0-70.518-30.367-70.518-70.318c0-37.844,32.04-69.311,70.518-69.311    C410.017,994.229,441.463,1025.696,441.463,1064.155z"/>
		<polygon points="489.215,1112.106 528.704,1112.106 528.704,1131.267 468.877,1131.267 468.877,996.866 489.215,996.866   "/>
		<path d="M609.439,1026.708c-6.218-10.283-10.833-13.314-20.062-13.314c-11.054,0-19.558,7.207-19.558,16.699    c0,4.439,2.065,8.221,6.46,11.297c4.264,2.943,2.484,2.02,21.537,9.889c21.535,8.877,31.292,21.139,31.292,39.115    c0,24.963-18.064,43.465-42.368,43.465c-23.975,0-39.907-14.459-43.511-39.641l20.569-4.617c0.989,8.043,1.912,11.209,3.824,14.68    c3.582,6.418,11.076,10.461,19.337,10.461c12.68,0,21.888-9.449,21.888-22.371c0-7.646-3.165-13.537-9.208-17.713    c-3.01-2.062-6.44-3.867-9.867-5.229l-4.417-1.846l-4.219-1.803l-4.219-1.801c-18.546-7.867-27.623-18.943-27.623-33.887    c0-20.568,17.316-35.863,40.302-35.863c16.042,0,27.095,6.857,36.105,22.59L609.439,1026.708z"/>
		<polygon points="728.062,996.866 755.091,996.866 694.616,1057.694 755.509,1131.267 728.501,1131.267 680.112,1071.405     675.893,1075.669 675.893,1131.267 655.543,1131.267 655.543,996.866 675.893,996.866 675.893,1050.442   "/>
		<rect x="775.66" y="996.866" width="20.327" height="134.4"/>
		<polygon points="850.66,1015.987 850.66,1048.245 902.828,1048.245 902.828,1067.364 850.66,1067.364 850.66,1112.106     904.478,1112.106 904.478,1131.267 830.29,1131.267 830.29,996.866 904.478,996.866 904.478,1015.987   "/>
		<path d="M1012.265,1058.53c18.766,0,28.832-7.691,28.832-21.977c0-13.49-9.659-20.566-28.008-20.566h-7.241v42.543H1012.265z     M1072.53,1131.267h-24.753l-38.326-54.982h-3.604v54.982h-20.359v-134.4h23.755c17.348,0,26.952,2.199,35.522,7.824    c9.824,6.504,16.086,18.811,16.086,31.469c0,18.941-11.867,34.061-29.821,37.885L1072.53,1131.267z"/>
		<path d="M1151.292,1033.917l-20.758,45.576h40.699L1151.292,1033.917z M1122.095,1098.655l-15.15,32.611h-21.723l66.497-142.883    l64.102,142.883h-22.163l-14.163-32.611H1122.095z"/>
		<path d="M1258.177,1112.106c16.317,0,26.457-2.727,35.896-9.629c11.69-8.568,18.327-22.545,18.327-38.498    c0-15.734-6.901-30.018-18.327-38.502c-8.922-6.635-19.579-9.49-35.896-9.49h-9.088v96.119H1258.177z M1228.763,996.866h28.172    c23.185,0,36.721,3.604,49.796,13.055c16.943,12.305,25.975,31.469,25.975,54.41c0,22.633-9.429,41.355-27.008,54.102    c-13.449,9.801-25.162,12.834-49.138,12.834h-27.797V996.866z"/>
		<rect x="1360.174" y="996.866" width="20.349" height="134.4"/>
		<path d="M1428.451,1064.331c0,28.258,22.193,50.41,50.014,50.41c27.602,0,49.742-22.592,49.742-50.41    c0-28.963-21.503-50.938-49.742-50.938C1450.229,1013.394,1428.451,1035.544,1428.451,1064.331z M1548.61,1064.155    c0,38.322-31.445,69.703-69.958,69.703c-40.093,0-70.528-30.367-70.528-70.318c0-37.844,32.04-69.311,70.528-69.311    C1517.165,994.229,1548.61,1025.696,1548.61,1064.155z"/>
	</g>
</g>
</svg>