<svg id="Layer_1" data-name="Layer 1" xmlns="http://www.w3.org/2000/svg" xmlns:xlink="http://www.w3.org/1999/xlink" viewBox="0 0 333.25 237"><defs><style>.cls-1{fill:url(#radial-gradient);}.cls-2{fill:url(#linear-gradient);}.cls-3{fill:#fff;}</style><radialGradient id="radial-gradient" cx="166.63" cy="131.84" r="129.7" gradientUnits="userSpaceOnUse"><stop offset="0" stop-color="#e63323"/><stop offset="0.32" stop-color="#e22f21"/><stop offset="0.65" stop-color="#d52219"/><stop offset="0.99" stop-color="#c10e0d"/><stop offset="1" stop-color="#c00d0d"/></radialGradient><linearGradient id="linear-gradient" x1="155.93" y1="21.09" x2="310.64" y2="21.09" gradientUnits="userSpaceOnUse"><stop offset="0" stop-color="#0075bf"/><stop offset="0" stop-color="#0075bf"/><stop offset="0.44" stop-color="#2892d2"/><stop offset="0.79" stop-color="#40a4dd"/><stop offset="1" stop-color="#49abe1"/></linearGradient></defs><title>Artboard 1</title><path class="cls-1" d="M138.69,230.46c-27.4,0-55.45-12.1-82.07-42.57C-50.36,65.38,55.24,33.22,160.49,33.22c11.43,0,22.84.38,34,1.06,36,2.21,104.29,10.61,122.07,14.25,2.58.53,6.16,1.18,4.13,7.58-2.49,7.88-10,24.9-26.18,53.7C265,162.29,203.72,230.46,138.69,230.46"/><path class="cls-2" d="M302.88,35.65a28.44,28.44,0,0,1-4-.41c-20.71-3.14-47.91-5.54-71-6.94-20.32-1.23-48.42-2.51-65.09-2.51-2.58,0-4.9,0-6.86.1C180.63,19,236.73,6.54,274.15,6.54,296,6.54,311.53,10.81,310.6,23a23.62,23.62,0,0,1-2.46,8.47c-1.54,3.11-2.44,4.21-5.26,4.21"/><path class="cls-3" d="M278.45,98.39c2.41,2.84-2.93,13.92-7.09,14.58-13.83,2.18-45.49,8.22-45.49,8.22s-6.59,4.15-13.37,36.94c-.71,5.42-9.46,6.49-9.58,6.49-3.78-.23-3.7-2.8-3.48-6.58a91.09,91.09,0,0,1,8.49-33.1C180.33,131,157,137.41,137.18,143.48c-.62,3,1.15,5.24,6.37,6.07,16.49,2.62,37.12-8.57,42.13-11.83,6.66-4.33,2.73,13-2.24,16.43a63.06,63.06,0,0,1-33.46,11,43.6,43.6,0,0,1-8.91-.55c-8.77-1.45-18.07-7.52-19-16.4C85.83,160,66.39,169.38,66,169.56c-4.71,2.23-14.46-7.62-7.85-12.26.13-.08,12.95-9.2,25.91-19.92,17.75-14.68,26.7-23.34,26.73-26.46s-16.2,4.15-26.55,9c-5,2.33-13.17-5.69-13.6-8.08-.39-2.14.57-2.49,4.32-4.41,6.65-3.4,29.33-14.1,41.68-8.81a13.88,13.88,0,0,1,8,8.92c1.58,5.37,0,11.77-10.62,23.12l-13,9.42,21.72-7.91,2-.66c4.62-10.3,16.31-29.95,59.72-43.32,4-1.24,6.61-1.83,9.25-1.84,3,0,0,14.83-4,16.08-22.09,6.82-37.6,14.92-45.58,23.16A996.78,996.78,0,0,1,269,97.91c2.61-.41,7.87-1.38,9.47.48M85.75,67.82c-5.88-.72-9.35,2.78-9.35,7.8V85.87h4.54V75.63c0-2.51,1.93-4.06,4.81-3.54ZM105.86,77a9.09,9.09,0,1,0-18.18,0c0,5.09,3.82,9.21,8.49,9.21a5.42,5.42,0,0,0,5.4-3.14v2.77h4.3Zm-4.54,0a4.56,4.56,0,1,1-9.08,0c0-2.92,2-5.09,4.54-5.09A4.83,4.83,0,0,1,101.32,77.07ZM127,60.29h-4.54v9.56a6.88,6.88,0,0,0-5.19-2.06c-4.64,0-8.46,4.16-8.46,9.25A9.09,9.09,0,1,0,127,77Zm-4.54,16.78a4.56,4.56,0,1,1-9.07,0c0-2.92,2-5.09,4.54-5.09A4.83,4.83,0,0,1,122.46,77.07Zm8.32,8.8h4.54V68.17h-4.54Zm4.54-22.69h0a2.28,2.28,0,0,0-4.57,0h0a2.29,2.29,0,0,0,4.57,0h0Zm12.1,4.54A9.29,9.29,0,1,0,156.35,77,9,9,0,0,0,147.41,67.72Zm0,14.4c-2.41,0-4.37-2.06-4.37-5.05s2-5.19,4.37-5.19,4.37,2.13,4.37,5.19S149.82,82.12,147.41,82.12Z"/></svg>