<svg id="Layer_1" data-name="Layer 1" xmlns="http://www.w3.org/2000/svg" viewBox="0 0 280 87"><defs><style>.cls-1{fill:#fff;}</style></defs><title>Artboard 1</title><path class="cls-1" d="M64.57,71.11a16.31,16.31,0,0,0,1.79,1.71A13,13,0,0,0,68.48,74v3.75H58.38q-.65,0-1.79-1.14a5.65,5.65,0,0,1-1.14-1.14,12.47,12.47,0,0,1-1.3,1.14Q53,77.71,52.35,77.71H42.25V74a4.49,4.49,0,0,0,1.14-1.3,4.7,4.7,0,0,0,.24-2,11.92,11.92,0,0,0-1.06-3.5L33,46.92l-9,9.29V66.63a7.83,7.83,0,0,0,.73,3.67,9.05,9.05,0,0,0,1.55,2.2A6.12,6.12,0,0,0,28.73,74v3.75H18.63q-.65,0-1.79-1.14a12,12,0,0,1-1.3-1.14,12.47,12.47,0,0,1-1.3,1.14q-1.14,1.14-1.79,1.14H2.33V74A6.33,6.33,0,0,0,4.61,72.5a11.05,11.05,0,0,0,1.63-2.2,7.19,7.19,0,0,0,.81-3.67V49.53A6,6,0,0,0,6.57,47a20,20,0,0,0-1-1.87L4.29,43.5a10.76,10.76,0,0,0,1.3-1.63,16.17,16.17,0,0,0,1-2,6.56,6.56,0,0,0,.49-2.61V20.37a7.21,7.21,0,0,0-.81-3.67,11.23,11.23,0,0,0-1.63-2.2A6.35,6.35,0,0,0,2.33,13V9.29h10.1a1.43,1.43,0,0,1,.81.41,11.25,11.25,0,0,0,1,.73l1.3,1,1.3-1a11.4,11.4,0,0,0,1-.73,1.42,1.42,0,0,1,.81-.41h10.1V13a6.14,6.14,0,0,0-2.44,1.47,9.17,9.17,0,0,0-1.55,2.2A7.85,7.85,0,0,0,24,20.37V41.06L45.67,18.25a2.78,2.78,0,0,0,.81-2.93A4,4,0,0,0,45,13V9.29h8a1.42,1.42,0,0,1,.81.41,11.33,11.33,0,0,0,1,.73l1.3,1,1.3-1a11.33,11.33,0,0,0,1-.73,1.42,1.42,0,0,1,.81-.41h8V13a5.69,5.69,0,0,0-1.63.81,26.64,26.64,0,0,0-4.89,3.91L46,33.24,62.78,68.43A11.5,11.5,0,0,0,64.57,71.11Z"/><path class="cls-1" d="M138.37,47.74a11,11,0,0,0,.73,1,1.74,1.74,0,0,1,.41,1.14V68.43a2.07,2.07,0,0,1-.41,1.22c-.27.38-.52.73-.73,1.06a21.52,21.52,0,0,1-5.86,4.4q-4.07,2.28-10.92,2.61H94.38q-.65,0-1.79-1.14a12,12,0,0,1-1.3-1.14A12.47,12.47,0,0,1,90,76.57q-1.14,1.14-1.79,1.14H78.09V74a6.33,6.33,0,0,0,2.28-1.47A11.05,11.05,0,0,0,82,70.3a7.19,7.19,0,0,0,.81-3.67V49.69a6.57,6.57,0,0,0-.49-2.61,16.6,16.6,0,0,0-1-2L80,43.5A17.71,17.71,0,0,0,81.35,42a16.17,16.17,0,0,0,1-2,6.55,6.55,0,0,0,.49-2.61V20.37A7.21,7.21,0,0,0,82,16.7a11.23,11.23,0,0,0-1.63-2.2A6.35,6.35,0,0,0,78.09,13V9.29h10.1a1.43,1.43,0,0,1,.81.41,11.25,11.25,0,0,0,1,.73,11.86,11.86,0,0,0,1.3,1.14,12.34,12.34,0,0,0,1.3-1.14,11.4,11.4,0,0,0,1-.73,1.42,1.42,0,0,1,.81-.41h24.76q7.33,0,11.65,2.44a23.7,23.7,0,0,1,6.27,4.72,11.07,11.07,0,0,0,.73,1,1.74,1.74,0,0,1,.41,1.14V37.8a1.73,1.73,0,0,1-.41,1.14,10.93,10.93,0,0,0-.73,1l-1.79,1.79A12.82,12.82,0,0,1,133,43.5,17.23,17.23,0,0,1,138.37,47.74ZM97.48,17.11a12.64,12.64,0,0,1,1.14,1.3c.22.44.43.9.65,1.38a7.42,7.42,0,0,1,.49,1.55V39.92h16.13q3.26,0,4.32-1.55a5,5,0,0,0,1.06-2.69V21.18a4.49,4.49,0,0,0-1.14-2.61q-1.14-1.47-4.24-1.47Zm25.09,34.54a5.66,5.66,0,0,0-1.22-2.53q-1.06-1.38-4-1.38H97.48A12.54,12.54,0,0,1,98.62,49c.22.44.43.9.65,1.38A7.41,7.41,0,0,1,99.76,52V69.89h17.43q2.93,0,4.07-1.38a5.37,5.37,0,0,0,1.3-2.53Z"/><path class="cls-1" d="M215.92,9.29V13.2a8.38,8.38,0,0,0-2,1,14.75,14.75,0,0,0-2,1.47,9.83,9.83,0,0,0-2,2.28L197.84,38a6.85,6.85,0,0,0-.57,2.12,6.32,6.32,0,0,0,.08,1.79l.33,1.63a3.42,3.42,0,0,0-1.79.49,8.08,8.08,0,0,0-1.71,1,7.78,7.78,0,0,0-1.71,1.79l-1.63,2.61V66.63a7.85,7.85,0,0,0,.73,3.67,9.07,9.07,0,0,0,1.55,2.2A6.12,6.12,0,0,0,195.55,74v3.75h-10.1a4.14,4.14,0,0,1-1.79-1,12,12,0,0,1-1.3-1.14,12.42,12.42,0,0,1-1.3,1.14,4.78,4.78,0,0,1-1.63,1h-10.1V74a6.33,6.33,0,0,0,2.28-1.47,11,11,0,0,0,1.63-2.2,7.19,7.19,0,0,0,.81-3.67V51.48L171,47.25a8.35,8.35,0,0,0-1.71-2,6.75,6.75,0,0,0-1.71-1.06,6.89,6.89,0,0,0-2-.65,6.67,6.67,0,0,0,.33-2.12,15.33,15.33,0,0,0-.16-2.12,6.45,6.45,0,0,0-1-2.44L152.22,17.43a9,9,0,0,0-1.71-2.28q-.9-.81-1.55-1.3a4.11,4.11,0,0,0-1.47-.81V9.29h10.26q.81.49,1.79,1.14a12.64,12.64,0,0,1,1.3,1.14,12,12,0,0,1,1.3-1.14,8.37,8.37,0,0,1,1.79-1.14h10.43V13a3.47,3.47,0,0,0-1.47,1.3,6.3,6.3,0,0,0-.41,1.87,4.84,4.84,0,0,0,.9,2.69L185,38.29,197.67,17.6A2.78,2.78,0,0,0,198,15.8a5.91,5.91,0,0,0-.49-1.47,12.64,12.64,0,0,0-1.14-1.3V9.29H203c.54.33,1.14.71,1.79,1.14a12.64,12.64,0,0,1,1.3,1.14,5.69,5.69,0,0,1,1.14-1.14q1-.65,1.79-1.14Z"/><path class="cls-1" d="M275.14,65.33a6.65,6.65,0,0,0,1.06,2,9.1,9.1,0,0,0,1.47,1.47A14.83,14.83,0,0,1,274.9,71a12.67,12.67,0,0,0-1.79,1.22,41.39,41.39,0,0,1-10.67,4.89,49.74,49.74,0,0,1-14.74,2,51.56,51.56,0,0,1-15.31-2,36.66,36.66,0,0,1-10.75-5.13,2.64,2.64,0,0,1-1.14-2.28v-6h13.36a7.44,7.44,0,0,0,1,2.12,11.61,11.61,0,0,0,1.79,2,10.31,10.31,0,0,0,3.1,1.87A15.74,15.74,0,0,0,243,70.79a19.72,19.72,0,0,0,4.56.41,46.3,46.3,0,0,0,6-.33,21.76,21.76,0,0,0,3.91-.81,9.52,9.52,0,0,0,2.61-1.3V57.35A4.11,4.11,0,0,0,259,54.58a6,6,0,0,0-1.71-1.14l-6.35-2.12a12.51,12.51,0,0,0-2.69-.33,5.53,5.53,0,0,0-2,.33q-1,.33-1.79.65a4.41,4.41,0,0,0-1-1.47A9.41,9.41,0,0,0,240,48.22l-22.32-6.52q.65-.81,1.3-1.79a14.35,14.35,0,0,0,1-2,7.18,7.18,0,0,0,.49-2.69V24.44a7.52,7.52,0,0,0-.49-2.93,16.53,16.53,0,0,0-1-2,18.29,18.29,0,0,0-1.3-1.47,18.15,18.15,0,0,1,2.77-2.28,15.59,15.59,0,0,0,1.79-1.3,43.25,43.25,0,0,1,10.67-4.64,58.14,58.14,0,0,1,29.9.16,36.83,36.83,0,0,1,10.75,5.13,2.5,2.5,0,0,1,1.14,2.12v6H261.37a7.6,7.6,0,0,0-1-2.12,18.52,18.52,0,0,0-1.79-1.87,11,11,0,0,0-2.93-1.87,16.1,16.1,0,0,0-3.26-1.22,20.81,20.81,0,0,0-4.72-.41,40.19,40.19,0,0,0-6.35.41,21.29,21.29,0,0,0-3.75.9,10.76,10.76,0,0,0-2.28,1.14v9.12a5.62,5.62,0,0,0,.9,3.26,4.23,4.23,0,0,0,1.71,1.63l6.52,2a7.18,7.18,0,0,0,2.53.49,5.47,5.47,0,0,0,2-.33c.65-.22,1.25-.43,1.79-.65a5,5,0,0,0,1,1.3,7.26,7.26,0,0,0,1.3,1.3,5.43,5.43,0,0,0,2.12,1q2.77,1,5.38,1.63,2.28.65,4.64,1.38a40.61,40.61,0,0,0,4,1.06q3.26.82,4.4,2.69a9.87,9.87,0,0,1,1.14,5.13V62.4A8.82,8.82,0,0,0,275.14,65.33Z"/></svg>