<svg width="105" height="65" xmlns="http://www.w3.org/2000/svg" viewBox="0 0 163 100">
    <path fill="#fff" d="M115.6 0A47.6 47.6 0 0 0 68 47.5c0 27 20.8 52.5 55.5 52.5V91.1C145.9 87.8 163 70.9 163 47.5A47.5 47.5 0 0 0 115.6 0ZM94.3 27.4a5 5 0 0 1 5 5 5.1 5.1 0 0 1-5 5.1 5 5 0 1 1 0-10.1Zm15.1 28.8a9.4 9.4 0 0 1-9.2 9.5H88.4a9.4 9.4 0 0 1-9.2-9.5V37.5h9.2V55.6a4.1 4.1 0 0 0 4 3.7h3.8a4.1 4.1 0 0 0 4-3.7V37.5h9.2ZM113.4 29a8.6 8.6 0 0 1 3.8-1.3c1.8 0 3.1 1.3 4.7 1.3a4.9 4.9 0 0 0 3-1.3V33.5a5.1 5.1 0 0 1-3 1.2c-1.6 0-2.9-1.2-4.7-1.2a9 9 0 0 0-3.8 1.2Zm10.3 8.5V55.9h-9.2V37.5Zm13 18.8a9.4 9.4 0 0 1-9.4 9.4H114.5V59.3h8.9a4 4 0 0 0 4-3.6V32.8h9.4Zm5.1 9.4V32.8h9.4V65.7ZM0 42.2V65.7H9.4v-13H20.1V46.3H9.4V42.8a4 4 0 0 1 4-3.6h8.9V32.8H9.4A9.4 9.4 0 0 0 0 42.2ZM49 33a11.5 11.5 0 0 0-6.9 2.3 11.6 11.6 0 0 0-18.5 9.3V65.7H33V43.8a2.2 2.2 0 1 1 4.4 0l0 21.9h9.4V43.8a2.2 2.2 0 1 1 4.4 0V65.7h9.4V44.6A11.6 11.6 0 0 0 49 33Z"></path>
</svg>