<?xml version="1.0" encoding="UTF-8"?>
<!DOCTYPE svg PUBLIC "-//W3C//DTD SVG 1.1//EN" "http://www.w3.org/Graphics/SVG/1.1/DTD/svg11.dtd">
<svg xmlns="http://www.w3.org/2000/svg" xml:space="preserve" version="1.1" style="shape-rendering:geometricPrecision; text-rendering:geometricPrecision; image-rendering:optimizeQuality; fill-rule:evenodd; clip-rule:evenodd"
viewBox="0 0 303 174" preserveAspectRatio="xMidYMid none" width="286" height="161"
 xmlns:xlink="http://www.w3.org/1999/xlink">
 <defs>
  <style type="text/css">
   <![CDATA[
    .fil0 {fill:#EE3537;fill-rule:nonzero}
    .fil1 {fill:#ffffff;fill-rule:nonzero}
   ]]>
  </style>
 </defs>
 <g id="Layer_x0020_1">
  <metadata id="CorelCorpID_0Corel-Layer"/>
  <g id="_1994113723152">
   <path class="fil0" d="M56 65l-12 0 0 -30 12 0c12,0 19,5 19,15l0 0c0,10 -8,15 -19,15zm5 -65l-61 0 0 132 44 0 0 -36 15 0c18,0 33,-4 44,-13l-33 -82c-3,-1 -6,-1 -9,-1z"/>
   <polygon class="fil0" points="116,0 138,58 151,28 165,58 187,0 "/>
   <polygon class="fil0" points="137,132 165,132 151,92 "/>
   <path class="fil0" d="M256 51c0,9 -7,14 -18,14l-13 0 0 -28 13 0c11,0 18,5 18,14l0 0zm-16 -51l-7 0 -52 132 44 0 0 -36 6 0 21 36 51 0 -29 -42c16,-8 26,-22 26,-43l0 -1c0,-14 -5,-23 -13,-31 -8,-8 -22,-15 -47,-15z"/>
   <path class="fil1" d="M9 163c2,0 4,-1 4,-3l0 0c0,-2 -2,-3 -4,-3l-3 0 0 6 3 0zm-9 -11l9 0c6,0 10,3 10,8l0 0c0,5 -4,8 -10,8l-3 0 0 6 -6 0 0 -22z"/>
   <path class="fil1" d="M38 163l0 0c0,-3 -2,-6 -6,-6 -3,0 -5,3 -5,6l0 0c0,3 2,6 5,6 4,0 6,-3 6,-6zm-18 0l0 0c0,-7 6,-12 12,-12 7,0 12,5 12,12l0 0c0,6 -5,11 -12,11 -6,0 -12,-5 -12,-11z"/>
   <polygon class="fil1" points="45,152 51,152 55,165 59,152 65,152 69,165 73,152 79,152 72,174 66,174 62,161 57,174 52,174 "/>
   <polygon class="fil1" points="81,152 99,152 99,157 88,157 88,160 98,160 98,165 88,165 88,169 99,169 99,174 81,174 "/>
   <path class="fil1" d="M113 162c2,0 3,-1 3,-2l0 0c0,-2 -1,-3 -3,-3l-4 0 0 5 4 0zm-10 -10l10 0c3,0 6,1 7,2 1,1 2,3 2,5l0 0c0,4 -2,6 -4,7l5 8 -7 0 -5 -7 -2 0 0 7 -6 0 0 -22z"/>
   <polygon class="fil1" points="134,152 140,152 140,160 148,160 148,152 154,152 154,174 148,174 148,165 140,165 140,174 134,174 "/>
   <polygon class="fil1" points="158,174 164,174 164,152 158,152 "/>
   <polygon class="fil1" points="174,157 167,157 167,152 186,152 186,157 180,157 180,174 174,174 "/>
   <path class="fil1" d="M208 162c2,0 3,-1 3,-2l0 0c0,-2 -1,-3 -3,-3l-4 0 0 5 4 0zm-10 -10l10 0c4,0 6,1 7,2 2,1 2,3 2,5l0 0c0,4 -1,6 -4,7l5 8 -7 0 -4 -7 -3 0 0 7 -6 0 0 -22z"/>
   <path class="fil1" d="M233 165l-2 -6 -3 6 5 0zm-5 -13l6 0 9 22 -6 0 -2 -4 -9 0 -1 4 -7 0 10 -22z"/>
   <path class="fil1" d="M254 168c3,0 6,-2 6,-5l0 0c0,-4 -3,-6 -6,-6l-3 0 0 11 3 0zm-9 -16l9 0c8,0 12,4 12,11l0 0c0,6 -4,11 -12,11l-9 0 0 -22z"/>
   <polygon class="fil1" points="269,174 276,174 276,152 269,152 "/>
   <path class="fil1" d="M296 163l0 0c0,-3 -2,-6 -5,-6 -4,0 -6,3 -6,6l0 0c0,3 3,6 6,6 3,0 5,-3 5,-6zm-17 0l0 0c0,-7 5,-12 12,-12 7,0 12,5 12,12l0 0c0,6 -5,11 -12,11 -7,0 -12,-5 -12,-11z"/>
  </g>
 </g>
</svg>
