<?xml version="1.0" encoding="utf-8"?>
<!-- Generator: Adobe Illustrator 16.0.0, SVG Export Plug-In . SVG Version: 6.00 Build 0)  -->
<!DOCTYPE svg PUBLIC "-//W3C//DTD SVG 1.1//EN" "http://www.w3.org/Graphics/SVG/1.1/DTD/svg11.dtd">
<svg version="1.1" id="Layer_1" xmlns="http://www.w3.org/2000/svg" xmlns:xlink="http://www.w3.org/1999/xlink" x="0px" y="0px"
	 width="93px" height="28px" viewBox="0 0 93 28" enable-background="new 0 0 93 28" xml:space="preserve">
<g>
	<rect x="10.5" fill="#FFFFFF" width="17.5" height="7"/>
	<polygon fill="#FFFFFF" points="7,10.5 7,0 0,0 0,28 7,28 7,17.5 24.5,17.5 24.5,10.5 	"/>
	<rect x="10.5" y="21" fill="#FFFFFF" width="17.5" height="7"/>
</g>
<g>
	<g>
		<path fill="#FFFFFF" d="M31.788,0h8.742v0.843h-7.829v4.828h7.039v0.842h-7.039v4.933h7.917v0.842h-8.83V0z"/>
		<path fill="#FFFFFF" d="M42.123,0h8.655v0.843h-7.742v5.038h6.952v0.842h-6.952v5.565h-0.913V0z"/>
		<path fill="#FFFFFF" d="M52.249,0h8.655v0.843h-7.742v5.038h6.951v0.842h-6.951v5.565h-0.914V0z"/>
		<path fill="#FFFFFF" d="M62.375,0h8.743v0.843h-7.83v4.828h7.04v0.842h-7.04v4.933h7.918v0.842h-8.831V0z"/>
		<path fill="#FFFFFF" d="M71.977,6.179V6.145c0-3.36,2.598-6.144,6.145-6.144c2.195,0,3.511,0.781,4.774,1.901l-0.649,0.645
			c-1.071-1.001-2.3-1.748-4.143-1.748c-2.95,0-5.179,2.325-5.179,5.313v0.034c0,3.004,2.265,5.347,5.197,5.347
			c1.773,0,2.984-0.662,4.23-1.85l0.615,0.577c-1.3,1.239-2.704,2.07-4.881,2.07C74.575,12.289,71.977,9.59,71.977,6.179z"/>
		<path fill="#FFFFFF" d="M87.803,0.843h-4.282V0H93v0.843h-4.284v11.445h-0.913V0.843z"/>
	</g>
	<g>
		<path fill="#FFFFFF" d="M31.788,15.711h5.161c1.51,0,2.721,0.474,3.458,1.211c0.58,0.579,0.931,1.404,0.931,2.282v0.035
			c0,2.054-1.528,3.23-3.599,3.511L41.794,28h-1.159l-3.915-5.091h-4.02V28h-0.913V15.711z M36.843,22.084
			c2.055,0,3.582-1.036,3.582-2.809V19.24c0-1.65-1.299-2.686-3.529-2.686h-4.195v5.53H36.843z"/>
		<path fill="#FFFFFF" d="M48.423,15.624h0.878L55.024,28h-1l-1.563-3.441h-7.25L43.648,28H42.7L48.423,15.624z M52.075,23.734
			l-3.23-7.11l-3.248,7.11H52.075z"/>
		<path fill="#FFFFFF" d="M56.385,15.711h4.09c3.862,0,6.53,2.651,6.53,6.109v0.036c0,3.458-2.667,6.144-6.53,6.144h-4.09V15.711z
			 M60.476,27.157c3.423,0,5.583-2.334,5.583-5.266v-0.035c0-2.914-2.16-5.302-5.583-5.302h-3.178v10.603H60.476z"/>
		<path fill="#FFFFFF" d="M69.027,15.711h0.913V28h-0.913V15.711z"/>
		<path fill="#FFFFFF" d="M71.998,21.89v-0.034c0-3.242,2.476-6.145,6.197-6.145c3.721,0,6.161,2.869,6.161,6.11v0.034
			c0,3.242-2.475,6.144-6.196,6.144C74.437,28,71.998,25.131,71.998,21.89z M83.408,21.89v-0.034c0-2.937-2.211-5.347-5.249-5.347
			s-5.214,2.376-5.214,5.313v0.034c0,2.936,2.212,5.346,5.25,5.346C81.231,27.202,83.408,24.826,83.408,21.89z"/>
	</g>
</g>
</svg>
