<?xml version="1.0" encoding="UTF-8" standalone="no"?>
<svg
   xmlns:dc="http://purl.org/dc/elements/1.1/"
   xmlns:cc="http://creativecommons.org/ns#"
   xmlns:rdf="http://www.w3.org/1999/02/22-rdf-syntax-ns#"
   xmlns:svg="http://www.w3.org/2000/svg"
   xmlns="http://www.w3.org/2000/svg"
   xmlns:sodipodi="http://sodipodi.sourceforge.net/DTD/sodipodi-0.dtd"
   xmlns:inkscape="http://www.inkscape.org/namespaces/inkscape"
   viewBox="0 0 180.75 98"
   version="1.1"
   id="svg47"
   sodipodi:docname="Georgia Public Broadcast.svg"
   inkscape:version="0.92.4 (5da689c313, 2019-01-14)">
  <metadata
     id="metadata51">
    <rdf:RDF>
      <cc:Work
         rdf:about="">
        <dc:format>image/svg+xml</dc:format>
        <dc:type
           rdf:resource="http://purl.org/dc/dcmitype/StillImage" />
      </cc:Work>
    </rdf:RDF>
  </metadata>
  <sodipodi:namedview
     pagecolor="#ffffff"
     bordercolor="#666666"
     borderopacity="1"
     objecttolerance="10"
     gridtolerance="10"
     guidetolerance="10"
     inkscape:pageopacity="0"
     inkscape:pageshadow="2"
     inkscape:window-width="640"
     inkscape:window-height="480"
     id="namedview49"
     showgrid="false"
     inkscape:zoom="1.9363762"
     inkscape:cx="90.375"
     inkscape:cy="49"
     inkscape:window-x="0"
     inkscape:window-y="0"
     inkscape:window-maximized="0"
     inkscape:current-layer="svg47" />
  <defs
     id="defs4">
    <style
       id="style2">.cls-1{fill:#0061af;}.cls-2{fill:#fff;}.cls-3{fill:#f15a31;}.cls-4{fill:#000017;}.cls-5{fill:#0073bb;}</style>
  </defs>
  <title
     id="title6">Asset 1</title>
  <g
     id="Layer_2"
     data-name="Layer 2">
    <g
       id="Layer_1-2"
       data-name="Layer 1">
      <path
         class="cls-1"
         d="M43.7,82.55A15.45,15.45,0,1,1,28.26,67.1,15.45,15.45,0,0,1,43.7,82.55"
         id="path8" />
      <path
         class="cls-1"
         d="M82.41,80.83c-1.69-.87-3.06-1.59-3.06-2.94,0-1,.82-1.56,2.2-1.56a8.21,8.21,0,0,1,4.21,1.2V74a11.24,11.24,0,0,0-4.21-.93c-4.08,0-5.9,2.43-5.9,5.06,0,3.08,2.07,4.56,4.36,5.77s3.12,1.71,3.12,3c0,1.09-.95,1.71-2.53,1.71a7.43,7.43,0,0,1-4.78-1.83v3.71A9.57,9.57,0,0,0,80.57,92c4,0,6.45-2.06,6.45-5.39S84.1,81.71,82.41,80.83Z"
         id="path10" />
      <path
         class="cls-1"
         d="M52.24,73.28H47.35V91.82H51v-5.9h.73c4.57,0,7.41-2.42,7.41-6.33S56.56,73.28,52.24,73.28ZM51,76.37h1.07c2.14,0,3.53,1.24,3.53,3.16,0,2.08-1.28,3.27-3.5,3.27H51Z"
         id="path12" />
      <path
         class="cls-1"
         d="M70.78,81.84A4.32,4.32,0,0,0,72.62,78c0-2.93-2.15-4.75-5.61-4.75H61.35V91.82h5.91c4.53,0,6.59-2.91,6.59-5.61A4.34,4.34,0,0,0,70.78,81.84Zm-4-5.43a2.17,2.17,0,0,1,2.35,2.26A2.28,2.28,0,0,1,66.55,81H65V76.41ZM65,88.73V83.89h2.31c1.84,0,2.93.9,2.93,2.4s-1.1,2.44-3.27,2.44Z"
         id="path14" />
      <path
         class="cls-2"
         d="M39.51,82.7l-1.72.35v3.17a1.93,1.93,0,0,1-2,1.91h-.87v3.69H32.08V88.13H33a1.94,1.94,0,0,0,2-1.91V83.05l1.71-.35a.57.57,0,0,0,.4-.82l-4.5-8.6H35.4l4.5,8.6A.57.57,0,0,1,39.51,82.7Z"
         id="path16" />
      <path
         class="cls-2"
         d="M33.73,81.88l-4.5-8.6H24.58A7.68,7.68,0,0,0,16.85,81a6.79,6.79,0,0,0,4.94,6.41v4.43h7V88.13h.87a1.93,1.93,0,0,0,2-1.91V83.05l1.72-.35A.57.57,0,0,0,33.73,81.88Zm-5.85-.49a1.77,1.77,0,1,1,1.76-1.77A1.77,1.77,0,0,1,27.88,81.39Z"
         id="path18" />
      <rect
         class="cls-3"
         x="101.99"
         y="71.14"
         width="24.7"
         height="24.7"
         id="rect20" />
      <rect
         class="cls-4"
         x="126.69"
         y="71.14"
         width="24.71"
         height="24.7"
         id="rect22" />
      <rect
         class="cls-5"
         x="151.4"
         y="71.14"
         width="24.7"
         height="24.7"
         id="rect24" />
      <path
         class="cls-2"
         d="M117,89.79V82.5a3.65,3.65,0,0,0-.62-2.35,2.5,2.5,0,0,0-2-.74,3.56,3.56,0,0,0-2.55,1.27v9.11h-3V77.13H111l.54,1.18a4.45,4.45,0,0,1,3.56-1.39,4.73,4.73,0,0,1,3.56,1.35A5.19,5.19,0,0,1,119.93,82v7.75Z"
         id="path26" />
      <path
         class="cls-2"
         d="M138.15,79.44a4,4,0,0,1,2.93.91,4.54,4.54,0,0,1,.88,3.16,4.47,4.47,0,0,1-.89,3.07,3.8,3.8,0,0,1-2.93,1,2.84,2.84,0,0,1-1.87-.65V80.27A2.58,2.58,0,0,1,138.15,79.44Zm.66,10.6a6.17,6.17,0,0,0,4.57-1.68,6.44,6.44,0,0,0,1.67-4.78q0-6.66-6.05-6.66A3.79,3.79,0,0,0,136.27,78v-.85h-3V94.74h3V89.49A5.73,5.73,0,0,0,138.81,90Z"
         id="path28" />
      <path
         class="cls-2"
         d="M167,79.9a3.16,3.16,0,0,0-1.72-.49,2.34,2.34,0,0,0-1.82.93,3.36,3.36,0,0,0-.79,2.27v7.18h-3V77.13h3v1.21A4.11,4.11,0,0,1,166,76.92a4.63,4.63,0,0,1,2.3.46Z"
         id="path30" />
      <g
         id="GPB_Logo"
         data-name="GPB Logo">
        <path
           class="cls-4"
           d="M130.72,16.94c-3.36-4.23-10.18-6.29-20.86-6.29H88.18L76.61,59.93h11l2.94-12.51h11.77c17.13,0,27.28-6.24,30.17-18.55C133.64,23.89,133.05,19.88,130.72,16.94Zm-38,21.15L97,20h13.59c5.39,0,8.94,1,10.55,3.06,1.1,1.39,1.36,3.26.78,5.72-1.45,6.22-6.65,9.37-15.45,9.37H92.81v-.08Z"
           id="path32"
           style="fill:#ffffff" />
        <path
           class="cls-1"
           d="M18.21,48.33c-5.72-5.85-8-14.11-5.13-23.64C16,15,23.64,6.51,33.18.6l.19-.13c.58-.35.2-.45-.2-.47h-.42a35.84,35.84,0,0,0-4,.25h0a10,10,0,0,0-2.44.9C17.23,7,10,15.27,7.17,24.65S6.51,42.2,12.06,48a6.22,6.22,0,0,0,2.83,1.11c1.52.18,2.95.27,3.91.31.05-.1,0-.33-.36-.77A2.64,2.64,0,0,1,18.21,48.33Z"
           id="path34" />
        <path
           class="cls-1"
           d="M16.18,5.56s-28,15.64-10.33,38.06C5.85,43.62-6.67,26.57,16.18,5.56Z"
           id="path36" />
        <path
           class="cls-1"
           d="M44.08,1.4s0-.2-1.23-.18h-.23a37.92,37.92,0,0,0-4,.24h0a10.48,10.48,0,0,0-2.44.87C27.12,8,19.94,16,17.1,25.09s-.61,17,4.95,22.65a6.61,6.61,0,0,0,2.83,1.08c1.53.16,3,.25,3.92.3a.18.18,0,0,0,0-.13L29,49c-4-5.74-6.22-12.41-5.71-18.54C24.08,20.22,32.35,7.67,44.08,1.4Z"
           id="path38" />
        <path
           class="cls-4"
           d="M179,31.64a12.13,12.13,0,0,0-6.14-4.15c3.52-2.2,5.67-4.88,6.4-8a9.47,9.47,0,0,0-.43-5.68,10.49,10.49,0,0,0-3.51-4.59A15.49,15.49,0,0,0,169,6.76,64.39,64.39,0,0,0,158.93,6H135.88l-3.21,13.65h-.08l-3.2,13.69.06,0-4.54,19.33,28.15,0a65.46,65.46,0,0,0,11.4-.84,27.88,27.88,0,0,0,8.22-3.24c4.35-2.55,6.89-5.63,7.77-9.39A8.81,8.81,0,0,0,179,31.64ZM168,19.55A6.67,6.67,0,0,1,164.69,24a16.43,16.43,0,0,1-7.91,1.59l-14.84,0,2.72-11.62h15.49c3.08,0,5.25.49,6.64,1.5S168.42,17.67,168,19.55Zm1.94,19.81a6.33,6.33,0,0,1-3.56,3.94c-1.91,1-4.77,1.49-8.51,1.49l-20.29,0L140,34.15h19.64c4.36,0,7.28.53,8.69,1.58A3.37,3.37,0,0,1,169.91,39.36Z"
           id="path40"
           style="fill:#ffffff" />
        <path
           class="cls-4"
           d="M57.91,33.78H71.77c-4.11,7-10.68,11-18.14,11-5.4,0-10-1.88-12.93-5.31A13.54,13.54,0,0,1,38,27.21C40.33,17.35,51.24,9.33,62.33,9.33c6.22,0,11.35,2.5,14.09,6.87a3.48,3.48,0,0,1,.32.64L77.22,18l9.46-6.4-.55-.83C81.82,4.08,73.86.24,64.27.24,47.49.24,31,12.23,27.52,27c-1.66,7-.16,13.66,4.21,18.74C36.33,51.05,43.5,54,51.9,54A34.34,34.34,0,0,0,85.32,27.28l.61-2.46H60Z"
           id="path42"
           style="fill:#ffffff" />
      </g>
    </g>
  </g>
</svg>
