<?xml version="1.0" encoding="UTF-8" standalone="no"?>
<!-- Created with Inkscape (http://www.inkscape.org/) -->
<svg xmlns:dc="http://purl.org/dc/elements/1.1/" xmlns:cc="http://creativecommons.org/ns#" xmlns:rdf="http://www.w3.org/1999/02/22-rdf-syntax-ns#" xmlns:svg="http://www.w3.org/2000/svg" xmlns="http://www.w3.org/2000/svg" xmlns:sodipodi="http://sodipodi.sourceforge.net/DTD/sodipodi-0.dtd" xmlns:inkscape="http://www.inkscape.org/namespaces/inkscape" width="300" height="53.615242" id="svg2" version="1.1" inkscape:version="0.47 r22583" sodipodi:docname="Narodni Radio__tmp.svg">
  <defs id="defs4">
    <clipPath id="clipPath2834" clipPathUnits="userSpaceOnUse">
      <path id="path2836" d="M 0,518.043 0,0 l 2898.67,0 0,518.043 -2898.67,0 z"/>
    </clipPath>
  </defs>
  <sodipodi:namedview id="base" pagecolor="#ffffff" bordercolor="#666666" borderopacity="1.0" inkscape:pageopacity="0.0" inkscape:pageshadow="2" inkscape:zoom="3.08" inkscape:cx="150" inkscape:cy="26.807621" inkscape:document-units="px" inkscape:current-layer="layer1" showgrid="false" inkscape:window-width="1024" inkscape:window-height="749" inkscape:window-x="-4" inkscape:window-y="-4" inkscape:window-maximized="1"/>
  <metadata id="metadata7">
    <rdf:RDF>
      <cc:Work rdf:about="">
        <dc:format>image/svg+xml</dc:format>
        <dc:type rdf:resource="http://purl.org/dc/dcmitype/StillImage"/>
        <dc:title/>
        <cc:license rdf:resource="http://creativecommons.org/licenses/by-sa/3.0/"/>
      </cc:Work>
      <cc:License rdf:about="http://creativecommons.org/licenses/by-sa/3.0/">
        <cc:permits rdf:resource="http://creativecommons.org/ns#Reproduction"/>
        <cc:permits rdf:resource="http://creativecommons.org/ns#Distribution"/>
        <cc:requires rdf:resource="http://creativecommons.org/ns#Notice"/>
        <cc:requires rdf:resource="http://creativecommons.org/ns#Attribution"/>
        <cc:permits rdf:resource="http://creativecommons.org/ns#DerivativeWorks"/>
        <cc:requires rdf:resource="http://creativecommons.org/ns#ShareAlike"/>
      </cc:License>
    </rdf:RDF>
  </metadata>
  <g inkscape:label="Layer 1" inkscape:groupmode="layer" id="layer1" transform="translate(-204.28571,-419.84027)">
    <g transform="matrix(1.0349574,0,0,-1.0349574,204.28571,473.45551)" inkscape:label="ink_ext_XXXXXX" id="g2826">
      <g transform="scale(0.1,0.1)" id="g2828">
        <g id="g2830">
          <g clip-path="url(#clipPath2834)" id="g2832">
            <path id="path2838" style="fill:#ed1c24;fill-opacity:1;fill-rule:evenodd;stroke:none" d="m 1530.46,518.043 c 6.18,-2.34 14.98,-26.434 18.24,-33.445 6.64,8.386 23.44,14.699 29.27,20.523 1.24,-13.098 2.01,-26.742 1.52,-39.91 13.07,3.496 26.09,6.973 39.53,8.746 -1.53,-14.594 -8.07,-31.848 -12.93,-45.609 8.31,-0.321 27.87,0.07 34.97,-2.282 -2.86,-4.992 -23.1,-34.257 -23.33,-35.214 6.38,-4.817 12.03,-10.825 17.63,-16.477 -23.5,-3.895 -45.13,-7.988 -69.17,-7.988 26.77,-30.235 -4.42,-157.727 57.65,-152.239 5.76,15.2 -12.74,24.934 -24.21,28.34 10.2,11.157 31.64,17.207 45.99,13.301 0.48,14.184 -7.46,11.508 -11.02,18.625 17.62,5.012 30.92,-4.465 44.47,-14.441 21.23,170.371 200.06,163.269 176.41,29.097 41.55,-48.418 51.87,-83.906 11.29,-137.793 10.11,-82.6637 -34.64,-123.2184 -116.24,-98.8278 0.45,-12.6445 12.85,-23.4062 20.9,-31.9219 -19.25,-7.1875 -39.99,-4.5429 -58.15,3.7969 0.03,-8.2187 2.37,-16.35545 4.18,-24.3242 -13.36,2.51172 -23.02,10.9375 -31.17,21.2891 -1.97,-1.6875 -3.59,-4.1407 -5.27,-6.1016 -3.61,-4.25 -8.34,-10.72266 -14.16,-11.99609 -7.06,-1.53125 0.94,15.09769 -12.49,23.03129 -3.25,-4.8086 -10.2,-9.668 -15.77,-11.2227 -4.19,6.8945 -8.43,14.5313 -15.08,18.9453 -210.06,-22.8711 -293.68,158.4497 -139.43,266.3207 -27.43,9.863 5.91,51.582 7.37,73.699 -0.1,1.465 -42.54,22.234 -49.56,25.879 l 5.33,1.511 c 5.56,1.172 18.68,2.571 22.94,5.391 l -10.1,25.942 c 10.43,-2.211 20.86,-6.821 30.92,-10.286 7.53,38.075 17.14,64.309 39.47,95.641 z m 237.17,-181.297 c 34.23,-2.012 45.93,4.797 66.89,-32.305 0.6,-0.3 0.89,0.625 1.14,0.383 0.03,65.813 -66.6,55.039 -68.03,31.922 z m -22.43,-73.355 c 32.15,27.371 25.51,33.535 74.66,31.609 -18.23,13.469 -28.21,15.813 -49.5,11.492 -10.02,-2.027 -18,-11.734 -21.55,-20.738 -2.35,-5.996 -4.88,-13.547 -4.36,-20.078 0.2,-2.446 0.82,-2.348 0.75,-2.285 z m 60.05,-21.661 c 12.64,-8.449 23.88,-7.941 35.13,-20.707 11.71,-13.296 18.02,-43.093 19.22,-44.285 18.53,39.746 -9.01,82.461 -54.35,64.992 z m -177.87,1.903 c 0.62,-9.727 13.15,-16.406 20.82,-19.551 2.12,-0.867 4.88,-2.5 7.31,-2.5 -1.11,12.207 -17.19,21.367 -28.13,22.051 z m 182.82,-89.317 c 5.85,-57.9762 7.78,-52.207 -38.01,-87.0426 l -0.38,-0.7578 c 76.68,-2.9531 65.08,78.4064 38.39,87.8004 z m -297.45,257.559 c 0,3.105 2.52,5.625 5.63,5.625 3.11,0 5.63,-2.52 5.63,-5.625 0,-3.105 -2.52,-5.625 -5.63,-5.625 -3.11,0 -5.63,2.52 -5.63,5.625"/>
            <path id="path2840" style="fill:#ed1c24;fill-opacity:1;fill-rule:evenodd;stroke:none" d="m 0,63.4766 51.4844,0 0,141.9214 0.7148,0 75.4378,-141.9214 51.48,0 0,254.5504 -51.48,0 0,-136.933 -0.719,0 L 53.6211,318.027 0,318.027 0,63.4766"/>
            <path id="path2842" style="fill:#ed1c24;fill-opacity:1;fill-rule:evenodd;stroke:none" d="m 294.73,263.684 0.719,0 18.59,-103.684 -41.113,0 21.804,103.684 z m -95.089,-200.2074 53.265,0 11.082,51.4724 58.992,0 10.008,-51.4724 65.071,0 -54.344,254.5504 -84.375,0 -59.699,-254.5504"/>
            <path id="path2844" style="fill:#ed1c24;fill-opacity:1;fill-rule:evenodd;stroke:none" d="m 482.914,270.84 10.723,0 c 21.453,0 41.832,-2.149 41.832,-28.613 0,-20.372 -15.727,-27.872 -40.039,-27.872 l -12.516,0 0,56.485 z m -64.355,-207.3634 64.355,0 0,110.1174 21.449,0 31.825,-110.1174 63.632,0 -42.547,123.6914 c 25.032,9.297 42.547,31.824 42.547,58.645 0,50.039 -37.179,72.214 -85.441,72.214 l -95.82,0 0,-254.5504"/>
            <path id="path2846" style="fill:#ed1c24;fill-opacity:1;fill-rule:evenodd;stroke:none" d="m 681.129,190.754 c 0,50.047 0,85.086 29.676,85.086 29.675,0 29.675,-35.039 29.675,-85.086 0,-50.063 0,-85.09 -29.675,-85.09 -29.676,0 -29.676,35.027 -29.676,85.09 z m -69.356,0 c 0,-65.07 23.239,-132.2852 99.032,-132.2852 75.793,0 99.035,67.2152 99.035,132.2852 0,65.066 -23.242,132.281 -99.035,132.281 -75.793,0 -99.032,-67.215 -99.032,-132.281"/>
            <path id="path2848" style="fill:#ed1c24;fill-opacity:1;fill-rule:evenodd;stroke:none" d="m 890.805,272.98 5.367,0 c 42.543,0 46.836,-46.476 46.836,-75.8 0,-33.594 0,-88.664 -45.055,-88.664 l -7.148,0 0,164.464 z m -64.352,-209.5034 77.578,0 c 77.942,0 108.329,58.6254 108.329,131.2034 0,74.722 -37.18,123.347 -116.188,123.347 l -69.719,0 0,-254.5504"/>
            <path id="path2850" style="fill:#ed1c24;fill-opacity:1;fill-rule:evenodd;stroke:none" d="m 1028.27,63.4766 51.48,0 0,141.9214 0.71,0 75.44,-141.9214 51.48,0 0,254.5504 -51.48,0 0,-136.933 -0.71,0 -73.3,136.933 -53.62,0 0,-254.5504"/>
            <path id="path2852" style="fill:#ed1c24;fill-opacity:1;fill-rule:evenodd;stroke:none" d="m 1248.64,63.4766 64.3477,0 0,254.551 -64.3477,0 0,-254.551 z"/>
            <path id="path2854" style="fill:#ed1c24;fill-opacity:1;fill-rule:evenodd;stroke:none" d="m 2049.77,270.84 10.72,0 c 21.46,0 41.84,-2.149 41.84,-28.613 0,-20.372 -15.73,-27.872 -40.05,-27.872 l -12.51,0 0,56.485 z m -64.35,-207.3634 64.35,0 0,110.1174 21.45,0 31.82,-110.1174 63.64,0 -42.55,123.6914 c 25.04,9.297 42.55,31.824 42.55,58.645 0,50.039 -37.19,72.214 -85.44,72.214 l -95.82,0 0,-254.5504"/>
            <path id="path2856" style="fill:#ed1c24;fill-opacity:1;fill-rule:evenodd;stroke:none" d="m 2281.25,263.684 0.71,0 18.59,-103.684 -41.11,0 21.81,103.684 z m -95.11,-200.2074 53.27,0 11.08,51.4724 59,0 10.01,-51.4724 65.07,0 -54.35,254.5504 -84.37,0 -59.71,-254.5504"/>
            <path id="path2858" style="fill:#ed1c24;fill-opacity:1;fill-rule:evenodd;stroke:none" d="m 2469.42,272.98 5.37,0 c 42.54,0 46.83,-46.476 46.83,-75.8 0,-33.594 0,-88.664 -45.04,-88.664 l -7.16,0 0,164.464 z m -64.35,-209.5034 77.58,0 c 77.95,0 108.33,58.6254 108.33,131.2034 0,74.722 -37.19,123.347 -116.19,123.347 l -69.72,0 0,-254.5504"/>
            <path id="path2860" style="fill:#ed1c24;fill-opacity:1;fill-rule:evenodd;stroke:none" d="m 2611.54,63.4766 64.3398,0 0,254.551 -64.3398,0 0,-254.551 z"/>
            <path id="path2862" style="fill:#ed1c24;fill-opacity:1;fill-rule:evenodd;stroke:none" d="m 2769.97,190.754 c 0,50.047 0,85.086 29.67,85.086 29.67,0 29.67,-35.039 29.67,-85.086 0,-50.063 0,-85.09 -29.67,-85.09 -29.67,0 -29.67,35.027 -29.67,85.09 z m -69.36,0 c 0,-65.07 23.23,-132.2852 99.03,-132.2852 75.79,0 99.03,67.2152 99.03,132.2852 0,65.066 -23.24,132.281 -99.03,132.281 -75.8,0 -99.03,-67.215 -99.03,-132.281"/>
          </g>
        </g>
      </g>
    </g>
  </g>
<style xmlns="" type="text/css" id="undefined"/></svg>