<svg xmlns="http://www.w3.org/2000/svg" version="1.1" x="0px" y="0px" viewBox="0 0 222.1 120" xml:space="preserve"><style type="text/css">
	.st0{fill:#EF4136;}
	.st1{fill:#1C75BC;}
	.st2{fill:#F15A29;}
	.st3{fill:#F7941E;}
	.st4{fill:#FFFFFF;}
	.st5{fill:#2B3990;}
</style><polygon class="st0" points="206.1 90.1 206.1 120 27.1 120 6.1 90.1 "/><path class="st1" d="M159.8 0v25.6L117.6 120H84l44.2-93.8h-19.7l0 0H81.7v-0.2 -4.6L31.7 0h76.7H159.8z"/><polygon class="st2" points="219.1 90.1 219.1 120 40.1 120 19.1 90.1 "/><polygon class="st2" points="215.1 90.1 215.1 120 36.1 120 15.1 90.1 "/><polygon class="st3" points="222.1 90.1 222.1 120 47.1 120 26.1 90.1 "/><path class="st4" d="M98 100.3h2.5v4.7l4.4-4.7h3.3l-5 5.3 5.5 6.1h-3.5l-4.6-5.4v5.4H98V100.3z"/><path class="st4" d="M112.4 100.3h4.4c0.6 0 1.1 0.1 1.6 0.2s1 0.3 1.4 0.6c0.4 0.3 0.7 0.6 0.9 1.1s0.3 1 0.3 1.7c0 0.8-0.2 1.5-0.6 2 -0.4 0.6-1 0.9-1.8 1.1l2.9 4.8h-3l-2.4-4.5h-1.2v4.5h-2.5V100.3zM114.9 105h1.5c0.2 0 0.5 0 0.7 0 0.3 0 0.5-0.1 0.7-0.1 0.2-0.1 0.4-0.2 0.5-0.4 0.1-0.2 0.2-0.4 0.2-0.7 0-0.3-0.1-0.5-0.2-0.7 -0.1-0.2-0.3-0.3-0.4-0.4s-0.4-0.2-0.6-0.2c-0.2 0-0.5 0-0.7 0h-1.6V105z"/><path class="st4" d="M125.6 100.3h2.5v11.3h-2.5V100.3z"/><path class="st4" d="M133.2 100.3h3.4l4.8 7.9h0v-7.9h2.5v11.3h-3.3l-4.9-8.1h0v8.1h-2.5V100.3z"/><path class="st4" d="M159.4 110.8c-0.7 0.4-1.5 0.7-2.3 0.8 -0.8 0.2-1.6 0.3-2.4 0.3 -0.9 0-1.7-0.1-2.4-0.4 -0.7-0.3-1.4-0.7-1.9-1.2 -0.5-0.5-1-1.1-1.3-1.9s-0.5-1.6-0.5-2.5 0.2-1.7 0.5-2.5c0.3-0.7 0.7-1.4 1.3-1.9 0.5-0.5 1.2-0.9 1.9-1.2 0.7-0.3 1.6-0.4 2.4-0.4 0.9 0 1.7 0.1 2.5 0.3s1.4 0.6 2 1.1l-1.8 1.9c-0.3-0.4-0.7-0.6-1.2-0.8s-1-0.3-1.6-0.3c-0.5 0-1 0.1-1.4 0.3s-0.8 0.4-1.1 0.8 -0.5 0.7-0.7 1.2 -0.2 0.9-0.2 1.5c0 0.5 0.1 1 0.2 1.5s0.4 0.8 0.7 1.2 0.7 0.6 1.1 0.8 0.9 0.3 1.4 0.3c0.5 0 1-0.1 1.4-0.2 0.4-0.1 0.7-0.2 0.9-0.4v-1.8h-2v-2.3h4.4V110.8z"/><path class="st4" d="M163.4 100.3h2.8l2.8 7.4h0l2.8-7.4h2.7l-4.7 11.3h-2L163.4 100.3z"/><path class="st4" d="M181.4 100.3h2.1l4.9 11.3h-2.8l-1-2.4h-4.4l-0.9 2.4h-2.8L181.4 100.3zM182.3 103.6l-1.4 3.5h2.8L182.3 103.6z"/><path class="st4" d="M192.4 100.3h4.4c0.6 0 1.1 0.1 1.6 0.2s1 0.3 1.4 0.6c0.4 0.3 0.7 0.6 0.9 1.1s0.3 1 0.3 1.7c0 0.8-0.2 1.5-0.6 2 -0.4 0.6-1 0.9-1.8 1.1l2.9 4.8h-3l-2.4-4.5h-1.2v4.5h-2.5V100.3zM194.9 105h1.5c0.2 0 0.5 0 0.7 0 0.3 0 0.5-0.1 0.7-0.1 0.2-0.1 0.4-0.2 0.5-0.4 0.1-0.2 0.2-0.4 0.2-0.7 0-0.3-0.1-0.5-0.2-0.7 -0.1-0.2-0.3-0.3-0.4-0.4s-0.4-0.2-0.6-0.2c-0.2 0-0.5 0-0.7 0h-1.6V105z"/><path class="st4" d="M205.6 100.3h4.2c0.6 0 1.1 0.1 1.7 0.2 0.5 0.1 1 0.3 1.4 0.6 0.4 0.3 0.7 0.6 0.9 1.1 0.2 0.4 0.3 1 0.3 1.7 0 0.7-0.1 1.2-0.3 1.7 -0.2 0.4-0.5 0.8-0.9 1.1s-0.8 0.5-1.3 0.6c-0.5 0.1-1.1 0.2-1.7 0.2h-1.8v4.4h-2.5V100.3zM208.1 105.1h1.7c0.2 0 0.4 0 0.6-0.1 0.2 0 0.4-0.1 0.6-0.2 0.2-0.1 0.3-0.2 0.4-0.4 0.1-0.2 0.2-0.4 0.2-0.7 0-0.3-0.1-0.5-0.2-0.7 -0.1-0.2-0.3-0.3-0.5-0.4s-0.4-0.2-0.7-0.2c-0.3 0-0.5 0-0.7 0h-1.3V105.1z"/><path class="st5" d="M14.6 60h25.8c2.8 0 5.4-0.3 7.8-0.9 2.5-0.6 4.6-1.6 6.4-3 1.8-1.4 3.2-3.1 4.2-5.3 1-2.1 1.5-4.7 1.5-7.8 0-3-0.5-5.5-1.6-7.6 -1.1-2.1-2.5-3.8-4.3-5 -1.8-1.3-3.9-2.2-6.3-2.8 -2.4-0.6-4.9-0.9-7.4-0.9H29.3 0V0h37.8c3.2 0 6.4 0.1 9.7 0.2 3.3 0.1 6.5 0.4 9.7 1 3.2 0.5 6.3 1.4 9.3 2.6 3 1.2 5.8 2.8 8.5 4.8 4.9 4.1 8.6 9 11 14.7 2.5 5.8 3.7 11.8 3.7 18.1 0 4.6-0.7 9-2 13.2 -1.3 4.2-3.3 8-5.8 11.4 -2.6 3.4-5.7 6.2-9.4 8.5 -3.7 2.3-7.9 3.8-12.6 4.6L92.2 120H57.3L14.6 60z"/><path class="st3" d="M197.2 75.8c-3.4-3.4-9-3.4-12.4 0L191 82 197.2 75.8zM209.6 63.5c-10.3-10.2-27-10.2-37.4 0l6.2 6.2c6.9-6.8 18-6.8 24.9 0L209.6 63.5zM222.1 51.1c-17.2-17-45.1-17-62.2 0l6.2 6.2c13.8-13.6 36-13.6 49.8 0L222.1 51.1z"/></svg>