<?xml version="1.0" encoding="utf-8"?>
<!-- Generator: Adobe Illustrator 22.1.0, SVG Export Plug-In . SVG Version: 6.00 Build 0)  -->
<svg version="1.1" id="VECTXT__x28_wht_eagle" xmlns="http://www.w3.org/2000/svg" xmlns:xlink="http://www.w3.org/1999/xlink"
	 x="0px" y="0px" viewBox="0 0 290 196.7" style="enable-background:new 0 0 290 196.7;" xml:space="preserve">
<style type="text/css">
	.st0{fill:#FCFC06;}
	.st1{fill:#FFFFFF;}
</style>
<g>
	<path class="st0" d="M55.6,186.4c1,1.4,1.5,2.4,1.5,2.9c-1.3,0.8-2.7,1.2-4,1.1c-2.8,0.1-6.4-0.1-10.9-0.5
		c-2.5-0.6-3.9-3.2-3.9-7.6c0-1.7,0.2-3.2,0.5-4.4c0-0.7-0.3-2.3-0.3-3v-8.9c0-4.8-0.2-7.7-0.5-8.4c-1.2-2.8-4.5-4.1-9.9-4.2
		c-0.5,0.1-1,0.4-1.8,0.9c-0.8,0.7-1.2,2-0.7,3.5c0.5,1.5,0.5,2.9,0.2,3.9c-0.7,1.7,0.7,6,0,7.7c-0.3,1-0.3,2-0.2,2.9
		c0,0.1,0,1,0.2,2.9c0,2.4,0,4.8,0.2,7.2c0,2.1-0.2,4.3-0.5,6.7c-0.5,0.3-1.3,0.8-2.5,1.3c-1.2,0.2-3,0.2-5.4,0.1
		c-1.3-0.1-3.2-0.2-5.4-0.3c-2.2-0.9-3.2-2.6-2.8-5.1c0.2-1.3,0.5-2.5,0.8-3.5c0.2-0.6,0.2-1.3,0-2.3c-0.2-0.9-0.3-1.6-0.5-2.1
		c0-2.3,0.2-4.5,0.3-6.9c-0.2-0.5-0.3-0.9-0.3-1.4c0-0.7,0.7-2.5,0.7-3.2c0-1.2-0.8-4.1-0.8-5.2c-0.2-1.5,0-2.9,0.5-3.9L9.7,153
		c0.2-0.7,0.3-1.6,0.5-3c0.2-1.3-0.7-4.1-0.7-5.2c0-0.4,0.2-1.4,0.5-3.1c0.2-1.1,0.2-2.3,0-3.3c-0.2-0.6-0.3-1.4-0.2-2.6
		c0.2-1.5,0.3-2.4,0.3-2.7c0-0.6-0.2-1.2-0.3-1.7c-0.2-0.4-0.2-1,0-1.7c0.2-0.4,0.2-1,0.2-1.9c0-1.2,0-2.5-0.2-3.6s0-2.4,0.3-3.5
		c0-1.7-0.2-3.4-0.5-4.8c-0.2-0.3-0.3-0.8-0.3-1.4c0-1.5,0.3-3.1,1-4.8c1.5-0.5,2.5-0.8,2.8-1c3,0,5.4,0,7.2,0.1
		c2.8,0.1,5,0.1,6.5-0.1c3.5-0.4,7.9-0.1,12.9,0.9c1.2,0.1,3.2,0.5,6,1.2c4.5,2,7.4,4.9,8.7,8.9c0.7,2.1,1,4.7,1.2,8
		c0.2,5.2,0.2,7.9,0.2,8.1c0.3,4.3-1.5,7.7-5.7,10.3c-0.3,0.1-1.2,0.5-2.7,1.1c-1,0.4-1.5,0.9-1.7,1.5c4.4,2.6,7.2,5.7,8.7,9.4v2.6
		c-0.2,2.4-0.2,3.2-0.2,2.6c0.3,1,0.5,2.1,0.3,3c-0.2,1.4-0.3,2.5-0.3,3.1v1.9c0.2,1.1,0.2,2,0.2,2.6v4.4c0,0.7-0.5,2.5-0.5,3.2
		c0,0.3,0.3,1.3,0.8,3L55.6,186.4z M40.3,131.7c0-0.5,0.2-2.6,0.3-6.2c0.2-4.3-1.8-6.7-6.4-7.1c-1.5-0.1-3.7-0.2-6.5-0.2
		c-0.3,0.1-0.7,0.2-0.8,0.2c-0.8,0.6-1.2,1-1.2,1.3c-0.3,0.2-0.3,1.1-0.2,2.9c0.2,1.1,0.2,2.2,0.2,3.2V137v3.4c-0.2,1.1,0,2.2,0.5,3
		c1.5,0.5,2.8,0.7,4.4,0.7c2.2,0,4.2-0.4,6.2-1.3c4.2-1.7,3.5-3.8,3.7-8.2C40.3,133.9,40.3,133,40.3,131.7z"/>
	<path class="st0" d="M57.7,186.1c0.5,0.9-0.2,1.4-1.8,1.4c-1.2,0-2.2-0.6-3-1.7c-0.2-0.3-0.3-0.5-0.3-0.7c0-0.6,0.8-0.9,2.5-0.8
		C56.4,184.4,57.2,185.1,57.7,186.1z M108.5,174.6c0.3,0.8,0.5,1.6,0.5,2.5c0,7.8-7,12.7-21.3,14.8c-1.8,0.3-4.7,0-8.2-0.7
		c-5.7-1.1-9.9-2.9-12.4-5.2v0.2l-0.2,0.1c0,0.7,1.2,1.4,1.2,1.4c0,0.1-0.3,0.3-0.8,0.4c-3.2-0.2-4.5-1.1-4.2-2.9c0,0-0.5-0.3-1.3-1
		c-0.5-0.4-0.7-0.8-0.5-1.2c1.2-0.3,2.2-0.3,3.2-0.2c-1.5-2.8-2.2-7.6-2-14.4c0-0.9,0.7-3.4,0.7-4.5c0-0.8-0.8-2.6-0.7-3.7
		c0.2-0.7,0.2-1.4,0.3-2.1c0-2-0.3-6.5-0.3-8.4c0-0.7,0.2-1.6,0.3-2.9c-0.5-1.2-0.7-2.8-0.5-4.6c0.2-1.1,0.2-2.8,0.2-4.7
		c0-0.4,0.2-1.1,0.3-2.1c-0.5-1.2-0.8-2.4-0.8-3.4c0-0.8,0.2-1.5,0.5-2.3v-5.3c0.5-1.7,1.2-4.2,2-7.6c0.7-2.3,3-4.4,7-6.4
		c-0.2-0.4-0.3-0.7-0.3-1c0.2,0.1,0.3,0.3,0.8,0.8c2.5-1.3,4.9-2.1,7-2.1c1,0,2-0.1,2.8-0.3v-0.1l-0.2-0.1c0.2-0.1,0.5-0.1,0.7,0
		c0.2-0.1,0.5-0.2,0.7-0.4c2,0,3.4,0.1,4.2,0.2v1.4l-0.2,0.9c0,0.1,0,0.2,0.2,0.3l-0.2,0.1l-0.2,1.1l0.3,0.9c0,0.4-0.2,0.6-0.5,0.6
		v0.1l0.2,0.1l-0.2,3.8l0.2,0.1c-0.5,0-0.8,0-1.2-0.1v0.1l-0.8,0.5l-0.3-0.2c-2.7,0.9-4.2,1.5-4.7,2.1c0.5,0,0.3,0.3,1,0.3
		c0.2-0.1,0.3-0.2,0.5-0.4c-0.2-0.1-0.2-0.2-0.2-0.3s0-0.3,0.2-0.5c0.2,0.1,0.5,0.2,1.2,0.4c-0.2,0.1-0.3,0.2-0.3,0.3
		c0.3,0.1,0.5,0.2,0.5,0.5c0,0.4-2,1-2.5,0.9c-0.5,0-0.5-0.4-0.3-1.2c-0.5,0.3-0.7,0.6-0.8,0.9c-0.5,0.5-0.7,1.2-0.7,2.4
		c0,0.7,0.2,1.5,0.3,2.5c0.2-0.1,0.2-0.1,0.3,0c0.2,0.2,0.2,0.3,0,0.4c-0.2,0.1-0.3,0.1-0.3,0v0.9c0.2,0.4,0.2,0.7,0.2,0.9
		c0.5,0.1,0.8,0.2,1,0.2v1.1c-0.5,0-0.8,0-1-0.1c0.2,0.6,0,1.2-0.2,2v0.2c0-0.8,0.5-1.1,1.5-0.8c0.5,0.1,0.8,0.3,0.8,0.5
		s-0.2,0.4-0.5,0.6c-1.2,0-1.8-0.1-1.8-0.2c-0.2,0.3-0.2,0.7-0.2,1.1c0,0.3,0,0.7,0.2,1.1c0,0.1,0,0.1,0.2,0.1v0.4h-0.2v1
		c0.2,0.5,0.2,0.8,0.2,1H79v-0.1c-0.2,0-0.2,0-0.2-0.1c0.3-0.3,0.7-0.5,0.8-0.5c0.5,0,0.8,0.2,0.8,0.7c0,0.2-0.2,0.3-0.7,0.3
		s-0.7-0.1-0.8-0.3c0.2,0.5,0.2,0.7-0.2,0.8c0,0.3,0,0.5-0.2,0.6v0.7c0.5,0.2,0.8,0.5,0.8,0.8c-0.2,0-0.5,0.1-0.8,0.2
		c0.2,1.2,0.2,2.2,0,2.8c-0.3,1.4-0.3,3.1-0.2,4.9c0.2,1.1,0.2,2.9,0.2,5.2v0.7c0,0.1,0,0.1,0.2,0.1v0.1c0,0.2,0,0.3-0.2,0.3
		c-0.2,1.5-0.3,3.2-0.5,5c-0.2,1.5,0.7,4.5,0.7,5.7h0.3c-0.2,0.5,0.8,0.9,0.8,1.3c-0.2,0.1-0.7,0.1-1.3,0.1v0.9
		c1.2,0.1,1.7,0.4,1.7,0.7c0,0.1-0.2,0.3-0.3,0.5c-0.5-0.1-1-0.2-1.3-0.5c0.2,0.5,0.2,1.1,0,1.7c-0.2,0.6-0.2,1-0.2,1.3
		c-0.2,0.6-0.3,1.4-0.3,2.5c0,0.9,0,1.9,0.2,2.8c0.2,2,0.5,3.1,0.7,3.4c0.5,1.2,1.3,2.2,2.8,2.7c1.7,0.8,3.2,1.1,4.7,1
		c4.2-0.5,6.2-2.9,6.2-7.1V172c-0.2-0.4-0.3-1-0.5-1.9s0-1.5,0.3-2.1c0.3-0.9,0.5-2,0.3-3.1c-0.2-1.1-0.2-2.2-0.2-3.1v-2.8
		c0-1.1-0.7-3.9-0.7-5c0-1,0.2-2.2,0.7-3.4l-0.2,0.1v-0.6c-1.3,0.1-2.2-0.1-2.3-0.7c-0.2-1.1,0.7-1.6,2.7-1.5v-1.6
		c0-0.5,0-1-0.2-1.3c1.2,0.4,2,0.8,2.7,1.3l0.5-0.3l0.8,0.3h0.2l0.3-0.2l4.5,1.8h0.3v-0.1c-0.5-0.4-2.8-1.4-6.9-3v-0.1
		c2.5-0.3,3.7-0.9,3.7-1.9h4.9v-0.3l-4.2-0.2v-0.3h0.3v-0.3l-0.2-0.2l0.5-0.5l-0.3-0.1l0.2-0.1c-0.5,0-1.5-0.1-2.8-0.2
		c0,1-1,1.5-2.8,1.5c-1.3,0-2-0.4-2-1.2c0-0.2,0-0.4,0.2-0.5v-1.7h0.2l1.7,0.2v0.1l-1.5,0.3c2.7,0.1,5.5,0.2,8.7,0.2l0.5-0.2h2.5
		v-0.4h-1l-1.8-0.2c0.2-0.3,0.5-0.7,0.7-1.1l-9.7-0.5c0,0.3-0.3,0.5-0.8,0.4c-0.7-0.1-0.8-0.3-0.7-0.7c0.5-0.1,1-0.1,1.3,0
		c0.2-0.1,0.3-0.8,0.3-2.1V133H92c0.2-0.1,0.3-0.3,0.7-0.5l-0.3-2.2c0.2-0.7,0.3-2.1,0.5-3.8c-0.5-1.1-0.7-3-0.7-5.8
		c-0.2,0.1-0.3,0.2-0.5,0.2s-0.2,0-0.3-0.1c0.2-0.1,0.3-0.3,0.7-0.4v0.1c-0.5-1.7-1.5-2.8-3.4-3.3l-0.3-0.9l0.3-0.6v-0.5l-0.3-0.8
		c0.5,0,0.7-0.3,0.5-1l-0.2-1.5l0.2-1.6l-0.2-0.8l0.3-1.7c0.7,0.2,1.7,0.4,3,0.5c5.2,1,9,2.5,11.6,4.4c2,1.5,3.7,4.1,5.2,7.7
		c-0.2,0.8-0.2,2.2-0.3,4.1c-0.2,1.5-0.2,3.1,0,4.4c0.2,0.5,0.2,0.9,0.2,1.4c-0.2,1.3-0.2,2-0.2,1.9c0.2,2.1,0.2,3.9,0.2,5.4
		c0.2,0.4,0.3,0.7,0.3,0.8l-0.3,0.2v0.6c-0.2,0.3-0.2,0.5-0.2,0.6c0,1.9,0.2,3.6,0.3,5.2c-0.5,0.9-0.5,1.5-0.3,2
		c0.3,1.1,0.5,2.3,0.5,3.4s-0.2,2.2-0.5,3.3c0,0.5,0.2,1,0.3,1.4c0.2,0.8,0.3,1.9,0.2,3c-0.2,1.2-0.3,2.2-0.5,2.8v3v3.7
		c-0.2,1.4,0,2.6,0.3,3.4C108.6,172.1,108.5,173.3,108.5,174.6z M65.1,113.6c-0.2,0.1-0.5,0.1-0.8,0c-0.2-0.1-0.2-0.2-0.2-0.5
		c-0.2-0.3,0.2-0.4,0.7-0.4c0,0.4,0.8,0.4,0.8,0.8C65.4,113.5,65.2,113.5,65.1,113.6z M70.8,93.2c0-0.2,0.2-0.3,0.3-0.4
		c-0.8-0.9-1.2-1.7-0.8-2.4c0.2-0.1,0.3-0.2,0.7-0.2c0,0.5,0.2,1.4,0.5,2.6c0.3,0.2,0.5,0.5,0.5,0.8s-0.2,0.6-0.3,0.9
		C71.1,93.9,70.8,93.5,70.8,93.2z M72.6,105.2c-0.2,0.4-0.3,0.5-0.8,0.4c-0.5-0.1-0.7-0.4-0.5-0.8L72.6,105.2z M71.4,102.4
		c0.5,0.2,0.8,0.5,1.2,0.8c0.5-1.6,1.3-2.5,2.5-2.5c-0.2,0.5-0.5,0.9-1,1.3c-0.8,0.5-1.3,0.9-1.5,1.1v0.3c0.2,0.1,0.2,0.2,0.2,0.3
		C71.6,104,71.4,102.4,71.4,102.4z M73.1,107.1c-0.5,0.1-1,0.1-1.3-0.1c0-0.5,0.5-0.4,0.5-0.8c0.7-0.1,1.2,0,1.5,0.1
		C73.8,106.6,73.6,106.9,73.1,107.1z M72.9,96.3c0.2-0.5-0.2-0.8-0.7-0.9c0-0.3,0.2-0.5,0.7-0.6c0.3,0.1,0.5,0.5,0.5,1.2
		c0,0.7-0.2,1-0.5,1.1c-0.2-0.3-0.3-0.5-0.3-0.8H72.9z M77,104h-0.3l-0.2-0.2c-0.2-0.1-0.2-0.1-0.2-0.2c0.2,0,0.2-0.2,0.7-0.2V104z
		 M78.1,104.1c0-0.5,0-0.8-0.2-0.7c0.2-0.1,0.3-0.2,0.5-0.2c0.7,0,1,0.3,1,0.9H78.1z M79.5,105.9c-0.2,0.1-0.2,0.1-0.3,0.1
		c-0.5,0-0.8-0.2-0.8-0.6c0-0.1,0.2-0.3,0.3-0.4C78.6,105.4,79.5,105.5,79.5,105.9z M85.2,149.2c-0.2,0.1-0.3,0.1-0.5,0.1
		c0.2-0.1,0.2-0.3,0.2-0.6c-0.7,0.4-1.5,0.6-2.7,0.6c-2.8,0-4-0.8-3.5-2.5c0.2-0.4,0.8-0.7,2-1c-0.3-0.5-0.7-1.3-1.2-2.5
		c0.5,0.6,1.2,1.4,1.8,2.4c0.5-0.1,0.8-0.1,1.2-0.1c1.2,0,2.2,0.2,3.2,0.7c0-0.4,0-0.7-0.2-1c-0.5-0.1-0.7-0.3-0.7-0.4
		c0.2-0.1,0.3-0.3,0.7-0.4c0.2,0.6,0.3,0.9,0.2,0.9c0,0.3,0.2,0.7,0.5,1.2c0,0.1-0.2,0.4-0.5,0.7c0.2,0.7,0.2,1.3,0,1.8H85.2z
		 M79.6,123.6c-0.5-0.1-0.8-0.3-0.8-0.4c0-0.2,0.3-0.4,1-0.6c0.3,0.1,0.7,0.2,0.8,0.3c0,0.3,0,0.5-0.2,0.7H79.6z M78.8,126l0.5-0.3
		c0.2,0,0.3,0,0.5,0.1c0,0.2-0.2,0.3-0.5,0.4C79.1,126.1,79,126.1,78.8,126z M81.8,172.8c-1.7-0.5-2.3-1.5-2-3c1.2,0,1.8,0,2-0.1
		c0,0.5,1.3,1.1,1.5,1.4C83.2,171.5,81.3,172.1,81.8,172.8z M80.5,107.8c-0.5,0-0.7-0.1-0.7-0.2c0-0.3,0.2-0.4,0.7-0.4V107.8z
		 M80.1,124.4c-0.2-0.1-0.2-0.2-0.2-0.3c-0.2-0.2,0-0.4,0.5-0.5c0.2,0.1,0.3,0.3,0.3,0.5C80.6,124.2,80.3,124.3,80.1,124.4z
		 M80.5,129.5c-0.5-0.1-0.5-0.3,0-0.5c0.2-0.1,0.5,0,0.8,0.3C80.8,129.4,80.6,129.5,80.5,129.5z M80.8,105.1
		c-0.5-0.8-0.7-1.1-0.7-0.8c0-0.4,0.7-0.4,0.7-0.8c0.8,0.4,1.2,0.9,1,1.4C81.3,104.9,81,105,80.8,105.1z M80.6,121.9
		c-0.2,0-0.2-0.1-0.2-0.2c0.2-0.1,0.2-0.2,0-0.5s0-0.6,0.5-0.7c0.2,0.8,0.2,1.3-0.3,1.5V121.9z M81.3,124.9c0.2,0.2,0.3,0.4,0.3,0.5
		s-0.2,0.2-0.5,0.2c-0.5,0.1-0.7,0.1-0.7-0.2c0-0.1,0-0.3,0.2-0.5H81.3z M81.7,136.8c-0.2,0.1-0.3,0.1-0.5,0.1s-0.3-0.1-0.3-0.3
		c0.2-0.1,0.3-0.2,0.7-0.3c0,0.2,0,0.3,0.2,0.3V136.8z M81.1,134.5c0-0.1,0-0.1,0.2-0.2c0.5-0.1,0.8,0,0.8,0.4
		c-0.2,0.1-0.3,0.1-0.8,0.1C81.1,134.7,81.1,134.6,81.1,134.5z M81.1,139.7c0.3,0,0.7,0.1,0.8,0.4v-0.2c0.5-0.1,1-0.1,1.2-0.1
		c0.2,0.7-0.2,1.1-0.7,1.3c-0.2-0.1-0.3-0.4-0.5-1h-0.8V139.7z M82.7,132.3c0.2,0.1,0.2,0.3,0,0.4c-0.2,0.1-0.3,0.2-0.5,0.2
		c-0.2-0.1-0.3-0.1-0.3-0.2C81.8,132.4,82.2,132.2,82.7,132.3z M83.2,126.7h-0.7c0-0.1-0.3-0.3-0.3-0.6
		C82.7,126.1,83,126.3,83.2,126.7z M83.2,141.4c-0.5-0.1-0.8-0.3-0.8-0.4c0.2-0.1,0.5-0.1,1-0.1c0.2,0.1,0.2,0.2,0.2,0.5H83.2z
		 M83,159.6c0.5,0,0.7,0.1,0.7,0.3H83c-0.3,0.1-0.5,0.1-0.7,0.1C82.3,159.7,82.5,159.6,83,159.6z M82.7,165.6
		c-0.2-0.1-0.2-0.4-0.2-0.9c0.8,0,1.5,0,1.8,0.1C84,165.3,83.5,165.6,82.7,165.6z M83.5,104.8c0-0.2,0-0.3-0.2-0.4
		c-0.2-0.1-0.2-0.3,0-0.5c0.7-0.1,1.2-0.2,1.3-0.2c-0.5,1.3-0.8,2.2-1.3,2.4v-0.6c0,0.1-0.2,0.1-0.5,0.2v-0.3
		c-0.2-0.2-0.2-0.3-0.2-0.4C83.2,104.9,83.5,104.9,83.5,104.8z M84,135c0.2,0,0.3-0.3,1-0.3c0,1.3-0.2,2.3-0.5,2.8
		c-0.3,0-0.5,0-0.5,0.1v0.3c0.3,0.1,0.5,0.6,0.5,1.5c-0.8,0-1-0.4-0.7-1.2c-0.2,0.5-0.3,0.9-0.3,1.2c-0.7-0.1-0.8-0.4-0.7-0.8
		s0.3-0.8,0.2-1.1c0.2,0,0.3,0,0.5,0.1C83.5,137.1,84,135.5,84,135z M84.3,164H83c0-0.7,0.2-1,0.7-0.9S84.5,163.5,84.3,164z
		 M85,144.4c-0.5-0.1-0.8-0.3-0.8-0.5c0-0.2,0.3-0.5,0.8-0.8V144.4z M85.5,159.4c-0.7-0.3-1-0.6-1-0.9c0-0.7,0.7-1,2.2-1
		c0.8,0,1.3,0.4,1.3,1.1S87.2,159.5,85.5,159.4z M85.2,119.3c-0.2-0.3-0.2-0.4,0.3-0.4c0.5,0.1,0.7,0.3,0.7,0.6
		c-0.2,0-0.3,0-0.3,0.1l-0.2,0.1l0.2,0.2c0.2-0.1,0.3-0.3,0.3-0.6c0,0.1,0.2,0.6,0.7,1.4c0,0.1-0.2,0.1-0.3,0.1
		c0.2,0.4,0.3,0.7,0.3,1c0,0.5-0.2,0.9-0.7,1.2h0.2l0.5,1.5c0,0.1-0.7-0.1-1.8-0.6c0-0.3,0-0.6,0.2-0.8c0.2,0.1,0.5,0,1-0.1
		c-0.2-0.1-0.3-0.3-0.3-0.5c0-0.1,0.2-0.1,0.3,0c0.2,0,0.2-0.1,0.2-0.3c-0.2-0.2-0.3-0.4-0.3-0.6c0-0.2,0.2-0.4,0.3-0.6
		c-0.2,0.1-0.5,0.2-0.7,0.3c-0.2-0.3-0.2-0.7,0.2-1.3c-0.7,0.2-1,0.2-1.2,0.1C84.5,119.8,84.7,119.5,85.2,119.3z M85.5,168.9
		c-0.7-0.3-1-0.6-0.8-1c0.2-0.1,0.5-0.1,0.7-0.1c1.2,0,1.8,0.5,1.8,1.5c0,0.1,0,0.3-0.2,0.4C86.8,169.6,86.3,169.4,85.5,168.9z
		 M86.8,173.4c-1.5,0-2.2-0.6-2-1.8h2.8c0,0.4,0.8,0.9,0.7,1.3C87.8,173.2,87.3,173.4,86.8,173.4z M86.2,104.9
		c-0.5-0.2-0.3-0.4,0.3-0.6c0.5-0.1,0.8,0,0.8,0.4C87.3,105.2,87,105.2,86.2,104.9z M86.8,118.9v0.1c0.2,0.3,0.3,0.4,0.2,0.4
		c-0.2,0.1-1-0.3-1-0.4c0.2-0.1,0.3-0.2,0.7-0.2C86.7,118.9,86.7,118.9,86.8,118.9z M86.7,125c-0.2-0.2,0-0.3,0.3-0.3l0.2,0.3
		c0.2,0.3,0,0.4-0.2,0.4S86.7,125.3,86.7,125z M87.5,127.4c-0.3-0.2-0.5-0.4-0.5-0.6c0-0.1,0.2-0.2,0.5-0.3c0.2,0.1,0.3,0.4,0.3,0.9
		H87.5z M88.4,129.7c0.2,0.2,0,0.3-0.2,0.3c-0.3-0.2-0.5-0.4-0.5-0.5c0-0.1,0.2-0.1,0.5-0.1L88.4,129.7z M89.9,95.3
		c0-0.7-0.7-0.9-2-0.8c0-0.5,0.7-0.6,1.8-0.5c0.5,0.1,0.8,0.2,0.8,0.5c0,0.2-0.2,0.5-0.7,0.9V95.3z M89.4,134.8
		c-0.2,0.1-0.3,0.2-0.8,0.2c0-0.5,0-0.6-0.2-0.5c0-0.1,0.2-0.1,0.5-0.1C89,134.5,89.2,134.7,89.4,134.8z M89.2,136.5
		c-0.2-0.5-0.2-0.8,0.2-1c0.2,0.2,0.7,0.7,1.2,1.5C89.9,137.3,89.4,137.1,89.2,136.5z M91.9,172.5c-1.2,0.3-1.7,0.4-1.8,0.3
		c0-0.5,0-0.8,0.2-1H91c0.2,0.2,0.2,0.3,0.3,0.4L91.9,172.5z M91,141c-0.2,0-0.2,0-0.2,0.1l-0.2,0.1c-0.2-0.2-0.3-0.5-0.3-0.9
		L91,141z M92.7,150.4c0.2-0.1,0.2-0.1,0.2-0.2h-0.2V150.4z M96.9,143.8c0,0.3-0.3,0.4-0.8,0.4C96.4,143.9,96.7,143.7,96.9,143.8z
		 M97.2,138.6c1.5,0,2.3,0.1,2.3,0.4h-2l-0.3-0.3V138.6z M99.9,138.7h0.8l0.3,0.3l-1.2-0.1V138.7z M110,172.8c2.2,0,4.5,1.8,4,3.2
		c-3.7-0.5-5.4-1.5-5.2-3.1C109.1,172.8,109.5,172.8,110,172.8z M110.5,125.9c-0.7,0.1-1,0-1-0.4h1V125.9z M111.6,182.1
		c-1.5-0.5-2.2-1-2.2-1.7c0-0.2,0.2-0.4,0.3-0.7C110.6,179.8,111.3,180.6,111.6,182.1z M111.1,132.8h0.2c0,0.1,0.2,0.1,0.3,0.1
		c0.2,0.5-0.2,0.7-0.8,0.7c-0.7,0.1-1-0.1-1-0.4C110,133,110.5,132.7,111.1,132.8z M110.3,110.4c-0.2-0.2,0-0.3,0.3-0.3
		c0.2,0,0.3,0.1,0.3,0.3H110.3z M112.5,131.2c-1.5,0-2.2-0.3-2.2-0.8c0-0.1,0-0.3,0.2-0.5C112.1,130.1,112.8,130.5,112.5,131.2z
		 M111.8,110.2c0.5-0.1,0.8,0.1,0.8,0.4h-0.8V110.2z M113.6,152.2c0,0.1-0.2,0.2-0.7,0.1c-0.5,0-0.5-0.1-0.3-0.4
		C113,151.8,113.3,151.9,113.6,152.2z M112.6,132.4c0-0.6,0.7-0.9,1.8-0.8C114.5,132.3,113.8,132.5,112.6,132.4z M113.6,134.5v0.4
		c-0.2,0.1-0.5,0.2-0.7,0.2c-0.2,0-0.2-0.1-0.3-0.2l0.2-0.1v-0.3H113.6z M116.3,183.3c0,0.1-0.2,0.3-0.5,0.6c-1,0-1.5-0.3-1.5-0.9
		C115.7,182.9,116.3,183,116.3,183.3z M115.3,109.3c0-0.3,0.3-0.5,0.8-0.4c0.2,0.1,0.2,0.2,0.2,0.4
		C115.8,109.4,115.5,109.4,115.3,109.3z M115.7,129.8c0-0.9,0.7-1.3,1.8-1.3c0.2,0.1,0.3,0.3,0.3,0.5c0-0.1-0.5,0.3-1.3,1.4
		C116,130.3,115.7,130.1,115.7,129.8z M117.3,111.8c0,0.3-0.3,0.4-0.8,0.4c0-0.2,0-0.3,0.2-0.4H117.3z M119.7,131.3
		c0,0.2-0.3,0.3-0.8,0.3c-0.2-0.1-0.3-0.3-0.3-0.4s0.2-0.3,0.3-0.4c0.7-0.1,0.5,0.3,1,0.3c0-0.2,0.2-0.3,0.7-0.3
		c0,0.1,0,0.1,0.2,0.1v0.2h0.5v0.4c-0.2,0.1-0.3,0.2-0.5,0.2s-0.3-0.1-0.3-0.2c-0.3,0.1-0.5,0-0.5-0.1L119.7,131.3z M119.2,131.8
		v0.5h-0.5v-0.2c-0.2-0.1-0.2-0.2-0.2-0.3H119.2z M119.3,112.2c-0.3,0-0.5,0-0.5-0.1h-0.2c0-0.2,0.2-0.3,0.7-0.3V112.2z
		 M119.2,154.6c-0.3-0.1-0.5-0.5-0.3-1.1c0.2-0.6,0.8-0.8,2-0.6c0.7,0.1,1,0.3,1,0.6c0,0.3-0.2,0.5-0.5,0.8
		C120.3,154.6,119.7,154.7,119.2,154.6z M118.8,108.2c0.2-0.1,0.3-0.3,0.5-0.4c0.5,0,0.8,0.1,0.8,0.2s-0.2,0.3-0.7,0.4
		C119,108.4,118.8,108.3,118.8,108.2z M119.5,126.1v0.2c-0.2,0.1-0.2,0.1-0.2,0.2c-0.3,0-0.5-0.1-0.5-0.2
		C118.8,126,119,126,119.5,126.1z M121.7,137.7c-0.2,0.3-0.3,0.4-0.5,0.5v0.3H121c-0.2,0.1-0.5,0.3-0.8,0.4
		c-0.2-0.2-0.5-0.3-0.7-0.3c0-0.5,0.3-0.8,1.2-1.1C120.7,137.6,121,137.7,121.7,137.7z M121.5,180.3c-0.5,0.2-0.8,0.2-1.3,0.1
		c-0.2-0.1-0.3-0.2-0.3-0.3s0-0.2,0.2-0.3C121,179.6,121.5,179.8,121.5,180.3z M122,156.1l0.3,0.2c0,0.2-0.2,0.3-0.5,0.3
		c-0.2,0-0.5,0-0.7-0.1C121.4,156.4,121.7,156.3,122,156.1z M123.4,185.8c0.5,0.4,0.7,0.6,0.7,0.7c-0.5,0.2-1,0.3-1.3,0.3
		c-0.7,0-1-0.3-1.2-1H123.4z M122.5,113.4c-0.5,0-0.8-0.2-0.8-0.7c0-0.6,0.5-0.9,1.3-0.9c0.7,0,1,0.2,1,0.7
		C124,113.1,123.5,113.4,122.5,113.4z M123.9,159.7v0.6c-0.2-0.1-0.3-0.1-0.8-0.1C123,159.9,123.9,160.1,123.9,159.7z M123.2,169.5
		c0-0.2,0.2-0.4,0.5-0.6c0.8,0.9,1.2,1.6,1.2,2.2c0,0.3-0.2,0.6-0.3,0.8C124.7,171.1,123.2,169.9,123.2,169.5z M128.1,176.3
		c-0.8-1.4-1.3-2.6-1.2-3.3c0.2-0.1,0.5-0.2,0.8-0.2s0.7,0.1,1.2,0.2C127.7,173.9,128.7,175.8,128.1,176.3z M129.1,185.6
		c-0.2,0.5-0.5,0.7-1.3,0.8c-0.2-0.4-0.2-0.7-0.2-1c0-0.3,0-0.4,0.2-0.5C128.7,184.9,129.2,185.1,129.1,185.6z M131.7,180.8
		c0.5,0.8,0.7,1.4,0.7,1.9c0,0.3,0,0.6-0.2,0.9c-1.2-1.9-1.7-3-1.7-3.4c0-0.3,0-0.5,0.2-0.8c-0.8-0.2-1.2-0.4-1.2-0.6
		c0-0.2,0.3-0.4,0.8-0.6C130.7,178.9,131.2,179.7,131.7,180.8z M131.4,103.4c0.3-0.1,0.7,0,0.8,0.3s0,0.4-0.3,0.4
		S131.4,103.9,131.4,103.4z M131.6,141.4c0.2-0.6,1-0.9,2.3-0.8c0.3,0.5,0.5,1,0.3,1.5c-0.2,0.6-1,0.9-2.2,0.8
		C131.4,142.6,131.2,142.1,131.6,141.4z M139.1,144.4c-0.2,0.9-0.8,1.3-2.2,1.2c-0.8-0.3-1.2-0.9-0.8-1.7c0.3-0.7,1-1.1,2-1.2
		C138.9,142.9,139.3,143.4,139.1,144.4z M141.5,148.6c0.2,2.7,0,5.8-0.3,9.3c-0.2,0-0.3,0.1-0.3,0.3c0.2,0,0.2,0.1,0.3,0.2
		c-0.2,0.7-0.2,1.4-0.2,2.2c0,0.7,0,1.4,0.2,2.2c-0.5-0.2-0.8-1.1-1.2-2.7c-0.2-1-0.3-1.9-0.2-2.6c0.2-0.7,0.2-1.5,0.2-2.5
		c-0.2-0.2-0.5-0.5-1-1c0.7,0,1-0.1,1-0.2c0.7-1.1-0.2-4.3,0.5-5C141.5,148.7,141.8,148.7,141.5,148.6z M149,150
		c-0.2,0.5-0.7,0.7-1.5,0.7c-0.2-0.1-0.3-0.2-0.7-0.2c-0.3-0.3-0.5-0.6-0.5-0.9c0-0.5,0.8-0.8,2.3-0.8
		C149,149.2,149.2,149.6,149,150z"/>
	<path class="st0" d="M161.7,163.4c0,0.5-0.2,1.7-0.3,3.6c-0.2,1.5-0.3,2.8-0.2,3.6c0.2,1.5,0.3,3.1,0.3,4.5
		c0,10.9-7.4,16.3-21.9,16.3c-15.4,0-23.6-6.2-23.6-15.9v-14.8v-5.9c-0.2-2-0.2-4,0-6.1c0-1.1,0-2.3-0.2-3.3c-0.2-1.1,0-2.2,0.2-3
		c0.2-0.4,0-1.2-0.3-2.4c0.2-0.8,0.3-2.1,0.5-3.8c-0.2-0.7-0.3-1.3-0.2-2c-0.2-3.2-0.3-6.3-0.3-9.4c-0.2-0.5-0.2-1.1-0.2-2.1
		c1.2-3.4,2.2-5.7,2.8-6.9c2.7-4.6,7.4-7.2,14.1-7.8c0.7-0.1,1.3-0.2,2.2-0.4c0.5-0.3,0.8-0.5,1-0.7h7.4c0.3,0.3,1.2,0.6,2.5,1.1
		c1,0,2.5,0.1,4.4,0.4c0.8,0.5,2.2,1.1,3.9,2.1c3.5,2.4,6.4,5.8,8.2,10.2c-0.2,1.7-0.3,3.5-0.3,5.1c0.2,0.6,0.3,1.2,0.3,1.7
		c0,0.7-0.2,1.2-0.3,1.7c-0.2,0.5-0.2,0.9,0,1.3c0.2,0.5,0.2,0.9,0.3,1.1c0.2,1.1-1,3.1-1,3.9c-1.7,0.7-3.7,1.1-6.2,1
		c-2.5-0.1-4.7-0.2-6.5-0.5c-0.5-0.3-1.2-0.8-1.8-1.7v-1c0.2-0.4,0.2-0.7,0.2-0.9h1c0,0.7,0.3,1,0.8,1h3l1-0.3c0-1.1-0.3-1.7-1-1.9
		h-1.7l-1.3,0.7h-1.8v-0.4v-1.4c-0.2-0.7-0.2-1.2-0.2-1.5c0-1.1,0.2-2.5,0.3-4c0.3-2.6-0.3-4.5-1.8-5.9c-2.5-1.7-4.7-2.6-6.5-2.3
		c-3.4,0.4-5.7,2.1-6.9,5c0.2,2.5,0.3,4.3,0.3,5.4c-0.2,0.6-0.3,1.2-0.3,1.9s0.2,1.2,0.3,2c0.5,1.4,0.5,2.9,0,4.2
		c-0.3,1-0.5,2.1-0.3,3.1c0.2,0.5,0.2,1.5,0.3,3c0,1.1,0,2.4-0.2,3.8s0,2.6,0.2,3.5c0.2,0.4,0.2,0.9,0,1.4v0.6
		c-0.2,0.3-0.3,0.5-0.3,0.6c-0.2,0.3-0.2,1.3-0.2,2.9c0.2,1,0.3,1.9,0.5,2.4c0.3,0.8,0.3,1.6,0,2.4c-0.2,0.3-0.3,0.7-0.2,1.2
		c0,0.3,0,0.6,0.2,1.1v2.5c0,1.4-0.2,3-0.3,4.5c-0.2,1.5-0.2,2.9,0.3,3.9c0.3,0.8,0.3,1.6,0,2.6c-0.8,2.2-2.3,2.5-7,2.6
		c-1.7,0-2.5,0.4-2.7,1.3c2.2,0,7-0.8,8.5-0.9c0.5,0.3,0.8,0.5,1.3,0.6c0.5,0.6,1.2,1.5,2.3,2.7c0.5,0.3,1.5,0.6,2.7,1.1
		c4.4,0.2,7-0.8,8-3c0.3-0.7,0.5-2.9,0.5-6.7c0-0.7,0.2-1.9,0.3-3.4c0.2-1,0-2.1-0.3-3.2c-0.5-1.3-0.5-2.7,0-4.1
		c0.5-1.4,1.5-2.3,3-2.5c0.8-0.3,2.3-0.4,4.9-0.4c-0.2,0.2-0.8,0.6-1.8,1.2l1.5-0.3l2.2,0.3v0.8h0.3v-0.9h0.7l1,0.6l0.8-0.5v-0.1
		l-0.3-0.2c0.5-0.3,0.8-0.4,1-0.4h0.7c0.2,0.1,0.3,0.1,0.5,0.1C161.1,160.8,161.7,162,161.7,163.4z M148,135.1v-0.4h-1.5l0.8,0.4
		H148z M150.5,159.7l0.3-0.2h1.3V159l-1.5,0.3h-0.5v0.4H150.5z M156.2,131.4v0.5h2.2v-0.5H156.2z M157.4,162.7l0.7,0.4l0.7-0.4
		l-0.7-0.4L157.4,162.7z M158.9,163.6l1.8-0.5l-0.8-0.5h-0.3l-1,0.7v0.3H158.9z"/>
	<path class="st0" d="M186.8,157.3c-0.7,0.4-2.5-0.9-3.9-1.6v0.1c-0.5,0.3-0.7,0.8-0.7,1.7c0,0.5,0,1,0.2,1.6
		c0.3,1.9,0.5,3.2,0.5,3.9c0,0.8-0.7,3.2-0.5,4.3c0,1.1,0.5,3.7,0.5,4.6c-0.2,0.6-0.2,1.2-0.3,2c-0.2,1.1,0.5,2.6,0.5,3.3
		s-0.7,2.2-0.7,2.9c0,1.1,0.5,3.9,0.5,5c0,2.2-0.2,3.4-0.3,3.7c-1,1.3-3.5,1.8-7.5,1.7c-2.5-0.1-4.5-0.2-5.7-0.3
		c-0.7-0.3-1.5-0.9-2.7-2c-0.7-1.2-0.7-2.7-0.2-4.2c0.5-1.3,1-2.6,1.7-3.8c0.5-0.7,0-2.4-1.5-4.7c0-1.7,0.3-6,0.3-7.7
		c-0.2-0.8-0.3-2.5-0.5-4.8c-0.2-2.3,0-3.9,0.5-4.9c0-1.1-0.2-2.8-0.3-5.1c0.2-0.6,0.2-1.3,0.2-2.2c-0.2-2-0.2-2.7-0.2-2.2
		c0-1.6,0.3-5.4,0.3-7.1c0-1.7-0.2-4.3-0.3-7.7c-0.2-3.5-0.3-6.1-0.3-7.8c0-2.6,0.2-5.1,0.7-7.8c0-0.4-0.3-1.4-0.3-1.9
		c0-1.5,0.3-3.7,0.8-6.6c0.5-0.3,1.2-0.6,2.3-1.1h1.5c1.2-0.1,2.2-0.1,3.4-0.1c2.5,0,4.2,0,5,0.1c2.3,0.5,3.4,2.3,3.2,5.2
		c-0.2,0.9-0.2,2.4-0.3,4.5c-0.2,1.4-0.2,3.3,0,5.6c0,3.9,0.2,7.4,0.3,10.5c-0.3,0.8-0.5,2.2-0.5,4.1c0.2,0.1,0.5,0.1,1,0.1
		c1.2-1.3,2-2.6,2.5-3.6c0-0.2,0.2-0.9,0.5-2.2l2-2.8c0.2-1.1,0.3-1.9,0.5-2.4c2.2-3.4,4.2-7.3,6.4-11.6c0.2-0.6,0.7-1.5,1.3-2.8
		c0.2-0.7,0.5-1.7,1.3-3c0.8-0.4,1.8-1,3.2-1.9c0.5-0.1,0.8-0.1,1-0.2c7.4,0,11.4,0.5,12.1,1.4c0.5,0.3,0.7,0.6,0.7,1.1
		c0,0.2-0.2,0.5-0.3,0.9c-0.5,1.2-1.7,3.7-3.9,7.3c-0.7,0.9-1.8,2.8-3.4,5.4c-0.2,0.7-0.5,1.7-1,3.1c-2.8,4.2-4.4,7-4.4,8.5
		c-1.8,2.8-3.7,6.2-5.9,10.3c-0.3,0.7,0.2,2,1.3,3.7c2,4.2,2.8,6.9,2.5,8.1c-0.3,0.1-1,0.1-2,0.1c-3.4-0.8-6-1.3-8-1.6
		C188.4,156.5,187.3,157.3,186.8,157.3z M175.9,142v-2.3l-1.3-0.3l-1.2-0.1h-0.8l-1.3,0.1l-1.5,0.2v2.4H175.9z M172.7,141.1
		l-0.3-0.2h0.8L172.7,141.1z M177.4,139l0.5-0.1l0.3-0.2l1.7-0.8l-1.5-0.9l-0.3-0.3l-0.7-0.3h-3.5v1.7l1.5,0.9H177.4z M176.6,136.9
		l0.7,0.2l0.5,0.5l-1.7,0.9h-0.2v-0.8l0.3,0.2h0.7l0.2-0.1l-0.3-0.3h-0.8l0.2-0.5L176.6,136.9z M183.8,142.8v-1.1l-0.7-0.3l-0.3-0.3
		l-0.5-0.2h-1.8l-0.5,0.2l-0.2,0.2l-1.7,0.6l1.3,1l0.7,0.4l1.3,1l1.5-0.9L183.8,142.8z M180.1,142.3l0.3-0.5l1.8,0.1l-0.2,1.1
		l-0.8,0.1l-0.7-0.2L180.1,142.3z M181.1,142l-0.2,0.1l0.7,0.5l0.5-0.2v-0.2l-0.5-0.2H181.1z M213.7,190.5c-1.2,0.1-3.2,0.1-5.9,0
		c-3.4-0.1-5.2-0.3-5.7-0.5c-1.2-0.5-1.8-1.3-2.3-2.5c-0.2-0.9-0.5-2-0.8-2.9c-0.5-0.4-1.2-1-1.8-2c-0.2-0.9-0.7-2.3-1.8-4.2
		c-0.3-0.3-0.5-0.6-0.7-0.9c-0.2-0.9-1-2.6-2.2-4.8c-0.7-0.7-1.2-2.1-1.7-4.1c-2.3-3.6-3.5-6-3.5-7.1c0.5-0.4,0.7-0.7,0.8-0.8
		c2.5,0,8,1.5,10.2,1.5c0.2,0,1-0.1,2.2-0.2c0.7-0.1,1.5-0.1,2.5,0c1,1,1.5,1.6,1.7,2c0,0.6,0.3,1.5,0.8,2.8c1.2,1.3,1.8,2.3,2,2.6
		c0.5,1.5,1.5,3.5,3.2,5.9c0.3,1.3,1.5,3.7,3.4,7l1,1.3c0.2,0.7,0.8,2.3,2,4.8C217.6,189.5,216.6,190.2,213.7,190.5z"/>
	<path class="st0" d="M249.8,185.1l-0.3,0.8l0.2,0.5v1.3l-0.7,0.4l-0.2,2.2h0.3l0.3-0.1v0.8c-2.5,0.5-5,0.8-7.5,0.8
		c-2.5,0-5.4-0.3-8.2-0.9c-1.3-0.1-3.5-0.6-6.7-1.4c-3.9-1.7-6.7-4.3-8.4-7.8c-0.2-1.1-0.3-2.2-0.3-3.3c-0.3-0.9-0.7-2.3-0.8-3.8
		c0.3-1.5,0.5-3.9,0.5-7.1c-0.3-1.1-0.3-2.3-0.2-3.2c0.8-0.5,1.8-1,2.7-1.4c3.4,0,6.5,0.1,9.4,0.2c0.5,0.3,1.3,0.8,2.2,1.5
		c0.3,0.7,0.5,1.5,0.3,2.6l-1.8-0.2h-0.2l-0.3,0.1c0,0.2,0.7,0.3,2,0.3h0.3c-0.2,0.7-0.3,1.1-0.3,1.2c0.2,2.8,0.3,4.5,0.3,5.1
		l-0.5,0.2l0.2,0.1h0.3v0.5c0,3.8,1,6.1,2.8,6.8l0.2,0.4c0,0.3-0.7,0.8-2.2,1.7l1.7-0.4l2,0.4v0.7h0.3v-0.8h0.8l0.8,0.5l1-0.4v-0.1
		l-0.3-0.3c0.5-0.2,1.3-0.5,2.3-1c0.3,0,0.8-0.1,1.5-0.2l-0.2,0.6h0.2l0.3,0.1v0.1l-0.3,0.2h0.5v-0.6l0.5-0.7h0.2l0.2,0.2h0.2
		l0.7-0.3l-0.3,0.3l0.5,0.2h0.3l0.2-0.5h0.3l0.3,0.5v1.4l0.5,0.1l0.2-0.1l-0.2-0.4l0.3-0.8h0.2c0.5,0.6,0.8,0.9,1,0.9l-0.2,0.2
		l0.3,0.2v0.1l-0.2,0.1v0.1l0.2,0.1c0.5,0,0.7,0.1,0.7,0.2V185.1z M263.3,168.9c0.2,0.5,0.3,1,0.2,1.7c-0.3,0.8-0.5,1.5-0.5,2.1
		c0,0.1,0,1.3,0.2,3.5c0,0.9-0.2,2.1-0.5,3.3v1.4c-0.2,0.5-0.2,1-0.2,1.3c-1,2.2-3,4.1-5.9,5.9h-0.8v0.3h0.2
		c-0.7,0.5-1.5,0.9-2.5,1.3h-1.7l-0.3-0.2h0.3v-0.2c0-0.1-0.2-0.2-0.5-0.2c0.2-0.3,0.3-0.4,0.8-0.4v-0.2h-1.2l-0.3-0.2v-1.1h1.5
		l0.5-0.2v-0.1l-2,0.1v-0.6c0-0.4,0.3-0.6,0.8-0.6v-0.2h-0.5l0.5-0.3v-0.1l-0.2-0.1l0.8-0.1v-0.3h-0.7v-0.1c0.5,0,0.7-0.1,0.7-0.3
		V184h-0.5l0.2-0.4l1.5,0.1v-2.7c0-1.3,0-2.9,0.2-4.5l0.7,0.2v-0.1l0.7,0.1l0.5-0.1v-0.1l-0.3-0.3l0.2-0.1l-1-0.2l-0.7,0.2v-0.3
		l-1.3,0.5l-0.3-0.3v-0.3c0-2.6,0.5-4,1.3-4.1c0-0.1-0.2-0.2-0.5-0.2l0.2-0.1l-0.2-0.4l0.2-0.2v-0.1l-0.2-0.1l0.3-0.2v-0.1l-0.2-0.1
		c0.5,0,0.7-0.1,0.7-0.2v-0.2h-0.2l-0.2,0.1h-0.2v-0.1c0.2-0.5,1-0.8,2.3-0.8v-0.1c-0.2-0.1-0.3-0.2-0.7-0.2l-0.2-0.2
		c-0.3,0-0.5-0.1-0.5-0.4l-0.7-0.1v-0.2l0.8-0.2v-1.1l-0.2-0.1l-0.3,0.1l-0.2-0.1c0-0.3,0.2-0.5,0.7-0.7c0.2-0.9,0.2-2.3,0.2-4.2
		l0.7,0.2h0.2l-0.8-0.4v-1.5l-1,0.1l-0.2-0.1l-1.5,0.7h-0.2c-1-0.3-1.5-0.5-1.5-0.8l0.8-0.7l-0.2-0.9l0.2-0.4
		c-0.8-0.3-1.2-0.5-1.2-0.7l0.3-0.4l-0.5-0.3c0.2-0.4,0.3-0.6,0.7-0.6c0-0.2-0.2-0.3-0.7-0.3c0-0.4,0.5-0.7,1.7-0.8l-0.2-0.2l-1,0.1
		h-0.2v-1l-0.3-0.4h-0.5l-0.3,1.5l0.2,0.5v0.4l-0.2,0.4l0.2,0.4v1.5c-1.5,0.1-2.3,0.4-2.8,0.7l0.2,0.6c-0.3,0.3-0.5,0.6-0.5,0.8v0.3
		l0.2,0.6h-1.7l-0.5,0.4c-0.2-0.3-0.3-0.4-0.5-0.5c-3.4-3-8.2-7.4-14.6-13.4c-0.2-0.4-0.7-1-1.2-1.9c-2.5-2.2-4.4-4.2-5.5-6.1
		c-0.3-0.9-0.8-2.2-1.3-3.6c-0.5-0.5-1.2-1.2-1.8-2.3c0.2-0.8,0-2.2-0.3-4c-0.3-0.9-0.5-2.5-0.7-4.5c-0.2-1.9,0.2-3.4,0.7-4.5v-1.7
		c1.5-4.2,5.2-7.3,11.1-9.5c1.8-0.1,4.4-0.7,7.5-1.9h7.7c0.5,0.1,0.7,0.7,1.3,0.7c2,0.3,4.9,0.9,8.4,2c2.5,1,4.9,3.4,6.9,7
		c1.3,2.4,2,4.6,2,7c0,0.5-0.2,1.5-0.5,3.1c-0.3,1.3-0.3,2.4-0.2,3.1c0.2,1.1,0,2.1-0.3,2.9c-1.8,0.8-3.7,1.2-5.2,1.1
		c-1.8-0.1-4-0.2-6.2-0.4c-2-0.7-2.8-1.7-2.3-3.1c0.2-0.7,0.2-1.3,0-2.1c-0.2-0.5-0.3-1-0.5-1.3c-0.2-0.5-0.2-1,0-1.6
		c0.2-0.3,0.3-0.8,0.5-1.6c0.2-0.7,0.2-1.3,0-1.9c-1.5-3.6-5-5.1-10.4-4.8c-1,0.5-2.3,1.6-3.9,3.3c-1.2,2.4-1.2,5.3,0,8.9
		c1.2,3.4,2.8,6.2,5.4,8.3c6.5,5.7,10.7,9.5,12.9,11.6c4.7,4.6,7.9,8.8,9.5,12.6c0,1.1,0.2,3,0.7,5.4l0.3,0.7
		c-0.5-0.1-1-0.1-1.8-0.1v0.2c0,0.3-0.5,0.4-1.3,0.5l-2-0.1h-2v0.2l3.2,0.1h1.8c0.5,0.1,0.7,0.4,0.7,0.7h0.3l-0.2-0.7H263.3z
		 M219.6,179l0.3-0.3l-0.3-0.2l-0.3,0.2L219.6,179z M224.8,174.2c0.3,0,0.5-0.1,0.5-0.2c0-0.3-0.5-0.4-1.5-0.4c-0.7,0-1,0.1-1.2,0.4
		v0.2h0.3l1.2-0.4l0.5,0.3v0.1h-0.3c-0.2,0.7-0.7,1.1-1.2,1.1l-0.7-0.1c-0.2-0.7-0.3-1-0.5-1l-0.3,0.3c0.2,0.7,0.7,1.1,1.5,1.1
		l1-0.1h0.2c-0.2,0.9-1,1.3-2.2,1.3l0.3,0.2c1.3,0,2.2-0.6,2.5-2L224.8,174.2z M224.1,178.8v-0.1l-0.5-0.2h-0.2v0.1l0.2,0.2H224.1z
		 M227,180.3c1.2-0.5,1.8-0.9,2.2-1.2l-0.5-0.3h-0.2l-0.2,0.2l-1.7,1L227,180.3z M231,177.6v-0.1h-0.2l-0.3,0.2v0.1h0.2L231,177.6z
		 M231.7,177v-0.2h-0.3L231,177H231.7z M240.4,187.6h-0.7l0.3,0.3L240.4,187.6z M242.7,190.8l0.3-0.2h-0.5v0.1L242.7,190.8z
		 M244.4,161.9c0.3,0.3,0.5,0.6,0.5,0.8C244.6,162.3,244.4,162,244.4,161.9z M245.2,163.3h0.8c0.5-0.1,0.8-0.1,1-0.1
		c-0.2,1.2-0.2,2.2,0,2.9c0.2,0.7,0.2,1.3,0.2,1.9L245.2,163.3z M245.7,186.4l-0.2,0.1l0.3,0.3l0.3-0.3v-0.1H245.7z M246.9,187.7
		l-1.3,0.8v0.2h0.2c0.5-0.1,0.8-0.4,1.2-0.7V187.7z M246.2,155.2v-0.2h-0.5v0.2H246.2z M246.6,179.9c0.8-1.1,1.3-2.5,1.2-3.9
		c0,0.3,0.2,0.5,0.5,0.7v0.8h-0.3v0.1l0.3,0.2v-0.2c0.2,0.3,0.3,0.5,0.3,0.8c0,0.6-0.8,1.2-2.3,1.9
		C246.4,180.2,246.6,180,246.6,179.9z M247.2,168.3v-0.1h0.2v0.1H247.2z M247.2,168.5h1.2v0.2c-0.5,0-0.8,0-1,0.1
		C247.4,168.7,247.4,168.6,247.2,168.5z M248.2,169.7c-0.2,0.1-0.3,0.3-0.5,0.7c-0.2-0.2-0.2-0.5-0.2-0.9L248.2,169.7z M247.9,171.7
		l-0.2,0.3l0.3,1.1v0.1h-0.3l-0.2-0.7c0-0.3,0-0.6,0.2-0.8H247.9z M249.1,165.9l-0.7-0.3l0.5-1.3l-0.3-2l-0.7-2.1l0.2-0.4l0.5,0.3
		l1.7,1c-0.3,0.2-0.5,0.4-0.5,0.5v3.4c-0.2,0.3-0.2,0.6-0.2,0.8S249.4,166.2,249.1,165.9z M247.9,168.3v-0.1h2.3v0.1l-0.5,0.1
		L247.9,168.3z M249.8,183.3h-0.7l-0.2-0.2V183l-0.3-0.7h0.2l1,0.7V183.3z M249.3,173.4l0.2-2l1.5,1.5l-0.2,0.7l-0.3,1.2v0.4l-0.2,1
		l-0.7-0.1c-0.5,0-0.7-0.2-0.7-0.6s0-0.9,0.2-1.4L249.3,173.4z M250.9,181.2l0.2-0.5c0-0.5-1.3-0.8-1.3-0.9s0.2-0.1,0.3-0.2
		c0.7-0.1,1.2-0.4,1.3-0.9l0.2-0.4l0.5,0.8v3.4h-1.2V181.2z M249.8,190.4h0.2l0.2,0.4c-0.2,0-0.3,0-0.3,0.1V190.4z M249.9,172.5v2
		h0.2v-2H249.9z M250.9,175.9c-0.2,0-0.3-0.2-0.5-0.5V175h0.2v0.2h0.3v-0.3h0.3v1H250.9z M250.6,156.2l1.2,0.1l0.2-0.1l-0.3-0.1h-1
		V156.2z M251.3,172.1l-0.5-1c0.2-1.4,0.5-2.2,1-2.2v0.7l-0.3,0.2c0.2,0.1,0.3,0.6,0.5,1.4l-0.7,0.3v0.1c0.3,0,0.5,0.1,0.5,0.3
		l-0.3,0.6h-0.2l-0.3-0.4L251.3,172.1z M253.6,157.4v-0.2l-1.8-0.4h-0.2l-0.3,0.2v0.3l1.3,0.1H253.6z M251.3,190.4
		c0.2-0.1,0.7-0.3,1.5-0.4c-0.7,0.3-1.2,0.4-1.5,0.5V190.4z M251.6,167c-0.2-0.2-0.3-0.8-0.2-2l0.2-1.5l1.7-1.1v0.7
		c0,0.5-0.8,1.9-0.8,2.2l-0.3,0.9L251.6,167z M251.8,150v0.2h0.5V150H251.8z M251.8,152v0.2h1V152H251.8z M252.9,160.5h0.2l-0.3,0.3
		l-1-0.3h0.3l0.5,0.2h0.2L252.9,160.5z M252.8,176.3l0.7-0.2v0.4l-0.7-0.1V176.3z M253.9,160.8v0.3l-0.7-0.3H253.9z M253.9,173.2
		v-0.1l-0.3-0.1l-0.3,0.2v0.1h0.3L253.9,173.2z M254.1,161h0.2v0.2h-0.2V161z M255.3,155.5h1.5v-0.2l-0.7-0.1H256l-0.2,0.1v-0.1
		l-0.5,0.2V155.5z M256.3,175.1c0.7,0,1-0.1,1-0.3h-0.5L256.3,175.1z M257.6,185.3v-0.1h-0.5v0.2l0.2,0.1L257.6,185.3z M259,173.4
		v-0.2c0-0.2-0.3-0.3-1.2-0.3c-0.3,0-0.5,0.1-0.5,0.2v0.3l0.3,0.2h0.8L259,173.4z M258.6,185.3v-0.2h-0.5v0.2H258.6z M261.7,172.6
		l0.7-0.4c-0.5,0-1,0.1-1.2,0.4H261.7z"/>
	<path class="st0" d="M282.3,178.3c0.3,0.7,0.5,2,0.3,3.8c0,1.5-0.2,3.9-0.5,6.9c-0.2,1.1-1,1.9-2.2,2.1c-1,0.4-3,0.5-6.2,0.3
		c-3.2-0.2-5.2-0.4-6-0.5c-1.8-0.9-2.2-1.6-1.7-3.4c0.2-0.5,0.3-1.2,0.5-2.2c0.2-1.1-0.5-3.3-0.5-4c0-1,0.3-2.3,1.2-3.6
		c1.2-0.5,2-0.8,2.3-0.9c0.8-0.1,1.7-0.1,2.8,0c1,0.1,1.8,0.1,2.5-0.2c2,0,4,0.2,5.9,0.5L282.3,178.3z M266.5,116.9
		c0-0.3-0.3-0.8-0.3-1.1c-0.2-0.8-0.3-1.5-0.3-2.3c0-2.2,1.3-3.4,4.2-3.7c0.3,0,0.7-0.1,1-0.3h5.9c1.8,0.1,3.5,0.6,5,1.5
		c0.2,1.5,0.3,4.1,0.7,7.6c0.2,2.8-0.2,5.2-0.8,7.3v2.3c0.2,2.1,0.2,2.8,0.2,2.3c-0.5,2.4-0.8,3.3-0.8,3l0.2,3.5l-1,3.1
		c0.2,0.9,0.2,2.3,0.2,4.1c0,1.4-0.2,3-0.7,4.5c0.2,1.1,0.2,3.2,0,6.1l-0.5,7.9c-0.2,2.7-2.2,4-5.9,4l-1.8-0.6
		c-0.8-0.5-1.5-1.7-2-3.5c-0.5-1.5-0.5-2.9-0.3-3.8c0-0.4,0.5-1.7,0.5-2.3c-0.5-1.7-0.8-4.6-0.8-8.4c-0.2-3.6-0.5-6.4-1.2-8.3
		c0-0.9,0.2-2,0.3-3.1c0-1.6-1.3-5.8-1.3-7.4c0-0.7,0.7-2.6,0.7-3.3c0-0.4,0-0.8-0.2-1.2c-1.2-1.3-1.5-3-1.3-5
		C266,118.6,266.2,117.6,266.5,116.9z"/>
</g>
<g>
	<path class="st1" d="M26.1,68.3l0.2-0.1h0.5v0.1l-0.4,0.2L26.1,68.3z M59.6,85.8l-0.2,2l0.2,1.2h-0.7v-0.4c0,0-0.2-0.1-0.7-0.3v0.1
		l-0.4,1.1l0.4,1.8l-0.5,4.4h-1.8v-0.9c-1.1,0-2.3-0.1-3.8-0.2s-2.7-0.1-3.9,0c-1.4,0.1-2.5,0-3.4-0.3c-0.2,0-1.1-0.4-2.5-1.3
		c0-0.8-0.5-2.4-0.5-3.2c0-0.5,0.7-2.1,0.5-3.1c-0.7-2-0.7-4.2,0-6.5c0.2-0.9,0.2-1.6-0.4-2.2c-0.2-0.5-0.2-1.3,0.4-2.3
		c0.2-0.9,0.2-1.6-0.4-2.2l0.7-2.6c-0.5-1.2-0.7-3.3-0.9-6.2c0.2-0.8,0.4-1.9,0.5-3.1c0.2-1,0-2.4-0.2-4.2c-1.3-1-2-2-2.1-3
		l-0.4,0.2h-0.4l-1.1-0.4c0,0.5-0.2,0.9-0.7,0.9h-0.5l-0.4-0.9l-3.4,0.4l-0.7-0.4c0,0.4-0.2,0.7-0.7,0.7h-0.4l-0.7-0.4
		c0.5-0.1,0.9-0.3,1.1-0.7l-0.4-0.3l0.4-0.1v-0.1l-0.4-0.3l0.4-0.3l1.3,0.2l0.9-1.1l1.8-0.8l-0.4-0.2l0.4-0.9l-0.4-6l0.4-8.4
		l-0.4-1.3l0.5-3.3h0.7L36.3,32l0.2,1l-0.2,2.4l0.2,0.2v0.2l-0.2,0.9c0,1,0.2,1.9,0.7,2.4v0.4h-0.5v0.9c0,2.2,0.4,3.8,1.3,4.9v0.3
		l0.4-0.3h0.4l0.4,0.3v1.2c1.3,0,1.8,0.2,1.8,0.7l0.4-0.2h0.2l0.9,0.5v-1.5c0.2-0.9,0.2-1.5,0.2-2.1v-3.7c-0.2-0.4-0.2-1.1,0-1.9
		c0.2-0.4,0.2-1.1,0.2-2.1c-0.2,0.4-0.7,0.8-1.3,1c-1.6-0.1-2.3-0.4-2.3-1c0.2-0.7,0.9-1.2,2.1-1.5h0.2c0,0.2,0.4,0.3,0.9,0.3
		c-0.2-0.8-0.4-1.4-0.4-2.2c0-0.8,0.2-1.5,0.4-2.3l-0.4-0.2l0.5-0.3c0-0.3,0.2-0.7,0.4-1.1c-0.2-1.9-0.5-3.3-0.7-4.3
		c0.5-1.6,0.9-3.3,0.9-4.9c0-1.6-0.9-5.6-0.9-7.3s0.4-3.2,0.9-4.6c0.5-0.3,1.6-0.8,2.9-1.1c0.2,0.1,0.7,0,1.6-0.2
		c0.4,0,1.6,0.1,3.8,0.3c1.1,0.2,2.7,0.3,4.8,0.2c2.3,0,8.2-0.7,10.2-0.5C68.2,6.9,70,7,71.4,7c0.5,0,2.5-0.1,5.7-0.2
		c2.3-0.1,3.9,0.1,5.2,0.4c2,0.4,3,2,3.2,4.7c0.2,2.7-0.9,4.4-3,4.8c-1.1,0.5-2.9,0.8-5.2,0.8c-2.3,0-8.1-0.4-10.4-0.4
		c-1.6,0-3.2,0.1-4.5,0.2c0.2-0.1,0.2-0.3,0.2-0.4v-0.7c0-0.4-0.4-0.7-0.9-0.7c-0.5,0-0.5,0-2.9,0.9v1.4c0.2,1.2,0,1.8-0.9,1.8
		l0.2,0.3v-0.1h0.7c-0.2,0.8-0.2,1.5,0,2.4c0.2,1.5,0.4,2.3,0.4,2.4c-0.2,0.7-0.2,1.8-0.2,3.2L58,27.2v1.2l1.1,0.3
		c0-0.8,0,0.5,0.2,3.8v3.7c0,1.1,0,2.1-0.2,2.9c-0.2,1.2-0.2,2.1,0.4,2.5c0,0.1,0.7,0.7,2,1.4h8.1c3,0,4.8,0.5,5.6,1.6
		c0.4,0.3,0.5,0.9,0.5,1.4c0,1,0,2.2-0.5,5.3c1.3,0.1,2,0.3,2.5,0.5v0.4h-1.8c-0.7,0.5-1.6,0.8-2.5,0.8h-0.4c0-0.1-0.2-0.3-0.5-0.4
		c-1.4,0.3-3,0.4-4.7,0.4h-4.8c0.5,1,0.7,2.1,0.7,3.1v2.2h-0.7L61.4,58h-0.5c0,0.3-0.2,0.5-0.7,0.5v-0.3h-0.7v0.5h-0.5v1.3l0.5,0.3
		l4.1-0.3h0.7l0.4,0.3c-3,2.6-4.5,5.3-4.5,7.8v0.2l0.7,3.5l-1.3,0.4v-4.8L59.1,67v1.3h0.4v10c0.2,0.3,0.5,0.5,1.1,0.7
		c-0.5,0.1-0.9,0.2-1.1,0.2v4.2L59.6,85.8z M31.8,51.1l-0.2,0.5h-0.4v-0.3l0.4-0.2H31.8z M32.5,57.4v0.2c-0.2,0-0.4,0.1-0.4,0.3
		l-0.5,0.3h-0.4v-1.1l0.4-0.2l0.2,0.1h0.4l0.2-0.1l0.2,0.1v0.1l-0.4,0.2H32.5z M32.2,47.9l-0.5,0.2v-0.2l0.2-0.3l0.4,0.2V47.9z
		 M32,53.5l0.4-0.2c0.2-0.1,0.2-0.2,0.2-0.3c-0.5,0.1-0.7,0.3-0.7,0.4L32,53.5z M32.4,58.8v-0.5h0.4v0.5H32.4z M33.3,47l0.4,0.3
		h-0.5V47H33.3z M34,25.4l-0.2,0.1h-0.5v-0.1l0.4-0.3L34,25.4z M37.7,28.1h-0.2l-0.7-0.5v-0.1H37L37.7,28.1z M37.6,24.3h-0.4
		L37,24.2v-0.1l0.2-0.1h0.4l0.2,0.1v0.1L37.6,24.3z M37.7,81.1h0.4l0.4,0.2v0.4h-0.4l-0.7-0.4L37.7,81.1z M39.9,65l0.7,0.3l-0.7,0.4
		l-0.7-0.4l0.4-0.2l-0.4,0.1H39c-0.9,0-1.3-0.2-1.3-0.7l0.2-0.7l-0.4-0.3v-0.1c0.4,0.3,1.3,0.5,2.7,0.7l-0.4,0.2l0.4,0.7H39.9z
		 M40.6,88.1H41l0.7,0.7L41.1,89H41l-0.7-0.7L40.6,88.1z M55.8,90.7l0.2-1.2l-2.1-0.5h-1.8L55.8,90.7z M57.3,15.5l1.4-0.1v-0.4
		c0-0.5-0.4-0.8-1.3-0.8h-0.2c-0.2-1.3-0.4-2.7-0.4-4.3c0-0.4-0.4-0.7-1.1-0.7h-0.4c-0.7,0-1.1,0.2-1.1,0.7v3
		c-0.2,1.6-0.4,2.9-0.4,3.7c-0.2,0.3-0.2,0.8-0.2,1.3V18c-0.5,0.4-0.7,1-0.7,1.5C53,19.7,53,19.9,53,20c0,0.3,0.4,0.4,1.1,0.4h0.5
		v6.9h0.4L55.3,42h0.9l-0.4-8.8h0.4v-7.4h-1.4v-0.4l0.4-0.2v-0.2l0.4,0.2h0.7L57.3,15.5z M61.2,42.1h-1.4l1.4-0.1V42.1z M85.4,89.7
		c-0.2,1.6-0.5,2.7-0.7,3.5L83.4,94c-0.5,0.3-0.9,0.4-1.4,0.5h-3c-1.3-0.1-2.1-0.1-2.9-0.1c-2.1,0.2-4.3,0.3-6.4,0.2
		c-2.1-0.1-4.3-0.1-6.6-0.1c-1.1,0-2,0-2.5,0.1v-4.2H60l1.1-5.9c0.5,0.1,1.3,0.2,2.3,0.2c0.9,0,1.8,0,3-0.1v-2.1h0.5l0.5,1v0.2
		l-0.2,0.9c-0.2,0,2.5,0,7.7-0.1c1.8,0,4.3,0,7.3,0.1C84.7,85.8,85.8,87.5,85.4,89.7z M61.6,31v-0.2H66V31h-1.8v0.1L63.5,31
		l-0.2,0.1L62.5,31H61.6z M63.5,75.7h0.7l0.5,0.3v0.1h-0.2L63.5,75.7z M66,96h0.7l0.2,1.2h-0.5L66,96z M69.4,41.7v-0.2h0.4l0.7,0.4
		v0.2h-0.4L69.4,41.7z M74.1,25.9l-0.4-0.2l0.4-0.2l0.4,0.2L74.1,25.9z M76.4,36.7v-0.1l0.2-0.1H77v0.1l-0.4,0.2L76.4,36.7z
		 M77.2,73.8h0.4l0.4,1.2v0.3L76.8,75L77.2,73.8z M77,35.8v-0.2l0.4,0.2H77z M81.6,35.6v0.2h-3.4l-0.4-0.2l0.2-0.1l0.9,0.1H81.6z
		 M79.1,41.1l0.7,0.4l-0.9,0.7h-0.7v-0.7l0.7-0.4H79.1z M79.7,68.3c0,0.1-0.4,0.2-0.9,0.3l0.5-0.3H79.7z M79.5,44.2
		c0.5,0,0.7,0.1,0.7,0.2s-0.2,0.2-0.5,0.2l-0.5-0.1v-0.2L79.5,44.2z M79.8,59h0.4l-0.7,0.3v-0.2L79.8,59z M80.4,53.2v-0.1l0.4-0.2
		l0.4,0.2l-0.5,0.2L80.4,53.2z M82,28l-0.4,0.2l-0.5-0.1v-0.2H82V28z"/>
	<path class="st1" d="M74.6,69.8l1.3-0.1l0.2,0.1V70l-0.2,0.1h-1.3V69.8z M80.4,58.6v0.1L75,56v-0.1c1.1,0,2.3,0.5,3.8,1.6
		C79.3,57.6,79.8,57.9,80.4,58.6z M76.3,34.5l-0.4,0.3h-0.4v-0.3l0.5-0.3l0.2,0.1V34.5z M75.9,54.2h0.2l4.5,2.9v0.1h-0.2
		c-0.4,0-2-1-4.8-2.9L75.9,54.2z M79.3,54.3h-0.5l-0.9-0.9l0.2-0.1h0.4l0.9,0.9V54.3z M79.5,27.9c-0.7,0-1.1-0.2-1.1-0.8h0.4
		l-0.4-0.2v-0.1l0.4-1.8h0.5v1.6l0.5,0.4v0.2l-0.4,0.1l0.4,0.1v0.3H79.5z M80.4,53.7l-0.9-0.4L80,53l0.9,0.4L80.4,53.7z M81.3,27.9
		l-0.7,0.4L80,27.9l0.5-0.3L81.3,27.9z M80.4,54.6c0.5,0.3,1.1,0.5,1.4,0.9h-0.4L80,54.8v-0.2H80.4z M84.1,44.6h-0.9l-0.9-0.4
		l1.1-0.8h0.7l0.4,0.4v0.4L84.1,44.6z M83.2,52.8h-0.4l-0.5-0.4v-0.1L83.2,52.8z M82.9,52.2V52l0.5,0.3v0.1L82.9,52.2z M84.3,78.2
		c0,0.3-0.5,0.4-1.4,0.5v-0.2l1.4-0.5V78.2z M83.2,51.3h0.2c0.7,0.2,1.3,0.5,1.8,1L85,52.4h-0.4l-1.4-0.9V51.3z M154,89.1
		c0,0.8-1.1,1.2-3.4,1.2l-0.2-0.4H149c-1.1,0-2,0.1-2.5,0.4l-3.2-0.4l-0.2,0.1h-0.2l-3-0.4v0.1c0.2,0.7,0.2,1.3,0.2,1.9
		c0,0.8-0.2,1.4-0.4,2c-2,0.7-4.8,1-8.2,1c-1.4,0-2.9,0-4.5-0.1c-0.2,0.3-0.4,0.5-0.5,0.9h-1.1l-0.9-0.3h-0.9c0,0.5-0.4,0.9-1.1,1.1
		l-2-0.2L118,96l-1.3-0.4l-0.2,0.2c-0.5-0.5-1.4-0.9-2.9-0.9v-0.4l0.7-0.5l-0.7-1l0.4-1v-0.1c-1.3-0.5-1.8-1.1-1.8-1.6h0.4l1.4,0.3
		c0.2-0.1,1.1-0.3,2.3-0.5v-0.1c-0.2-0.1-0.5-0.3-1.3-0.5l-0.2-0.1v-0.1l0.9-0.8v-0.1h-0.2l-5.9-0.3h-2v-0.3h3.9l1.6,0.2
		c0.5-0.2,1.6-0.3,3.2-0.3l-0.2-0.9l0.2-0.1v-0.2l-0.9-0.7l-2,1.1h-1.1c-1.3-0.7-2.1-1.1-3-1.2c0,0.3-0.7,0.5-2,0.7l-1.4-0.9v-0.9
		c0.4-0.3,1.6-0.8,3.9-1.4c1.1-0.9,1.8-1.3,2.1-1.3c0-0.2,0-0.3-0.2-0.4h5.7V79c-0.7,0-1.6-0.1-2.7-0.3v-0.2
		c-0.2-0.1-0.2-0.2-0.2-0.3c-1.3,0.9-2.1,1.5-2.7,1.9l-0.9-0.2v-0.1c0-0.8,0.5-1.3,1.6-1.6l-0.2-0.7l0.7-0.9h0.9l-0.4,0.7
		c0,0.3,0.4,0.4,1.1,0.5l0.7-0.4l0.4-0.1l-0.5-0.7l0.7-2.9h1.1v-0.1h0.4v-0.1c-0.7-0.1-1.1-0.2-1.1-0.3v-0.5h-0.2
		c-0.5,2-1.3,3-1.8,3l-0.4-0.1v-3c0-0.2-0.2-0.3-0.7-0.3v-0.3l1.1-0.1l0.2,0.1l0.4-0.1v-1c0-0.8-0.2-1.4-0.5-1.9l0.5-1.8v-0.3H115
		v0.4h-0.5l0.4-0.7v-0.5h1.8l0.5-0.4L116,65l0.7-0.8c-1.3,0-1.8-0.2-1.8-0.7l-0.2-0.8l0.5-0.4v-1.2h0.5V60l0.2-1.4
		c-0.2-0.4-0.5-0.7-0.7-0.7l-1.1,0.7c0-0.4-2-0.8-5.7-1l-0.9,0.1v0.5c-0.9,1.4-1.4,3.6-1.8,6.4h-0.4v-0.5l-0.5-0.1l-0.5-0.2
		l-0.7-0.2l-0.9,0.2l-1.4,0.3l-1.1,0.3l0.9,0.3l1.1,0.3l0.5,0.2v0.7h2.9v1.4h-1.1l-0.4,0.1l-0.5,0.2l-0.7,0.2l0.4,0.2
		c0.4,0.5,1.1,0.8,2.3,0.9c0.2,0.4,1.6,0.8,4.7,1.1l0.4,2.3v0.7h1.1c0.2,0.1,0.2,0.2,0.2,0.5l-0.4,1.4h-1.1l0.2,0.4l0.4,3.2
		c-2.7,0-4.7,0.1-5.9,0.4c-0.9,0.8-1.8,2.7-2.9,5.7c-0.2,0.8-0.4,2.2-0.2,4.5c0.2,1.8-0.2,3.1-1.1,3.8c-1.3,1-3.6,1.5-6.6,1.4
		c-3.9-0.1-6.8-0.1-8.4-0.2c-1.1-0.8-1.6-1.4-1.8-1.9C84,92.3,84,92,84,91.6c0-0.9,0.9-3.3,0.9-4.2h-0.2l0.2-0.1
		c0.4-4.5,1.3-8.5,2.5-11.8v-1.2c0.2-0.5,0.2-1,0.2-1.3c0.4-2.3,1.3-5.8,2.7-10.6v-1.2C90,60.8,90,60.3,90,60
		c0.9-5.4,2.7-13.5,5.7-24.4c0.2-1,0.2-2.6,0.2-4.7l1.6-5.9v0.7L99,26l0.4,0.2h2.3v-0.9l-1.4-0.4l-0.2-0.1h-2.5
		c0.2-0.9,0.5-1.5,0.7-2c0-1.2,0-2.7,0.2-4.4c0.2-2.5,1.1-5.8,2.7-10c0.5-0.3,1.4-0.8,2.7-1.4c-1.1,0,2.3,0,10-0.1
		c3.2,0,5.6,0.2,6.8,0.5c2,0.5,3,1.8,3.4,3.5c0.2,1,0.4,2.3,0.4,3.7v2.9c0.7,2.5,1.4,4.9,2.3,7.4c-0.2,3.4,1.3,10.9,4.7,22.6v2.9
		c0,0.3,0.4,1.1,0.9,2.1v3.2c0.5,2.5,1.3,5.2,2.1,8c0.5,1.9,0.9,3.2,0.9,4.2v2.9c0.9,3.6,2,6.9,2.9,9.9c-0.2,1-0.2,2.3,0,4.2
		c0.9,1.8,1.3,3.2,1.4,4.3l4.8,0.2c1.4,0.1,4.1-0.3,8.1-1.5C153.5,87.9,154,88.3,154,89.1z M85.9,51.3l-1.3-0.7h0.5
		c0.4,0,0.7,0.2,0.9,0.7H85.9z M87.5,24.2H87l-1.4-0.5v-0.2h0.5l1.4,0.7V24.2z M86.5,50.8h-0.4l-0.5-0.2l0.4-0.2h0.2l0.4,0.2V50.8z
		 M86.6,60.6h0.5l1.1,0.7v0.1h-0.2l-1.4-0.7V60.6z M87.5,34.2v-0.1c0.4-0.7,0.7-1,1.1-1h0.7l0.5,0.2v0.5c0,0.3-0.7,0.4-2,0.4
		L87.5,34.2z M88.6,49.7h-0.4l-0.4-0.2l0.4-0.4l0.7,0.5L88.6,49.7z M95.1,28.9v0.3H89v-0.3H95.1z M100.1,53.8l0.2,0.2l0.5,0.1
		l1.1,0.3l1.8-0.7l0.4-0.1v-0.5l-0.4-0.1l-0.5-0.2l-1.1-0.3l-0.9,0.4l-0.9,0.3l-0.2,0.1V53.8z M106.9,57.6l-1.1-0.1l-4.7,0.2
		l-0.4-0.1v0.3l1.8,0.5h1.4L106.9,57.6z M104.4,57l3,0.1l-0.5-0.1l-0.7-0.3l-0.5-0.1h-1.4l-0.7-0.2l-0.9,0.3l-1.1,0.3H104.4z
		 M103.8,82.7h0.4l0.5,0.2l-0.4,0.2h-0.2l-0.5-0.3L103.8,82.7z M108,88.3v0.8c-0.2,0.3-0.7,0.4-1.6,0.4h-0.2l-0.9-0.4v-0.5
		c0.2-0.2,0.5-0.4,1.3-0.7C107.4,88.1,108,88.2,108,88.3z M115.7,57c0.5-0.1,0.9-0.4,0.9-0.8s0-0.7-0.2-0.8H116v-1.2l-0.4-0.4
		l0.2-0.2l-0.2-0.8v-1c-0.4-1-0.5-1.9-0.5-2.9v-0.3l0.9-1.1v-0.1l-0.4-1.1v-1.2l0.4-0.2l-0.4-1.1c0,0.1-0.2,0.1-0.4,0.1H115v-2.1
		c0-0.2-0.2-0.3-0.7-0.3v-2.4l-0.5-0.3h-0.5l-0.4,0.2l-2.3-0.2c0,1.1-0.2,2.3-0.4,3.7c-0.2,1.3-1.1,4.2-2.3,8.7
		c-0.2,1.3-0.2,3.3-0.2,5.9l5.7,0.3l1.4-0.9L115,57H115.7z M116.6,28.6l0.4-0.8l0.4-0.4h-2l-0.2-1.2l0.5-1.5v-0.1l-1.1-3.7v-0.4
		h-3.2l-0.2,0.3l-0.5,0.5v0.1l0.5,6.9c-0.9,0.1-1.4,0.4-1.4,0.8v1h0.2l0.4,0.3l0.9,0.7l0.5,0.2h0.2v1.9h-0.5c-0.5,1-0.9,2.5-0.9,4.7
		h2.9l0.5-0.3v-1.8l0.5-0.4v-0.8l0.5-3.7l-0.2-1.4c0-0.2,0.7-0.4,2.3-0.8H116.6z M116.7,57.2h0.4c0-0.1-0.2-0.3-0.4-0.5V57.2z
		 M117.5,73.3h0.5l0.4-0.3h0.2l-0.2-0.4H118l-0.5,0.3V73.3z M117.6,64.5V66h0.4l0.5-0.3v-1.2H117.6z M119.8,70.9v-0.2h-0.7l-0.4-0.5
		l0.4-0.9v-0.9h-0.7l-0.7,0.3v3.7l1.8-0.3l-0.4-0.9v-0.3H119.8z M117.6,87.2l0.9,0.7h0.2v-2.3l-0.7-0.1l-0.4,0.1l0.4,0.2l-0.4,0.8
		l0.4,0.1v0.2l-0.4,0.1V87.2z M118,88.6l0.4,0.1h0.4v-0.5L118,88.6z M119.4,89.6v-0.4h-0.7l0.4,0.4H119.4z M120.1,63.5l0.5,1.9v1.5
		h0.5l0.4-0.5l0.5-0.1l0.2,0.5c0.2-0.1,0.2-0.2,0.2-0.3c0.2-0.4,0.2-1.4,0-2.9L120.1,63.5z M126.6,72.1c-2-0.2-3.2-0.9-3.8-2.1
		c-0.7-1.4-1.1-2.3-0.9-2.6h-1.3v2.1l-0.5,1.8v0.2l0.4,0.7l-0.4,0.2v0.1l0.4,0.1v0.2l-0.4,0.4l1.1-0.3c1.6,0.1,3.2,0.4,4.8,1
		C126.6,72.8,126.8,72.2,126.6,72.1z M121,84.2c0.2,0.4,0.2,0.8,0.4,1.1c0-0.5,0-0.9-0.2-1.1H121z M122.8,90.9v-0.7
		c-0.2-0.1-0.2-0.2-0.2-0.3h-0.5l-0.4,0.1v0.2c0.5,0,0.7,0.2,0.7,0.7H122.8z M131.8,36.4l0.5,0.4l-1.6,0.5c0.2-0.7,0.4-1,0.7-1
		H131.8z"/>
	<path class="st1" d="M188.1,88c0.4,1.9,0.5,3,0.5,3.4c0,1.4-0.9,2.3-2.5,2.6c-0.5,0.3-1.4,0.4-2.5,0.4c-0.9,0-1.8-0.1-2.9-0.3
		l-1.4-0.9c-0.2-0.1-0.4-0.7-0.7-1.4c-0.2-0.3-0.9-0.5-1.8-0.7c-3,2.9-7.5,4.4-13.4,4.5s-10.9-0.9-15.4-3c-0.2-0.1-0.9-1-2.1-2.9
		c-1.1-0.3-2.5-1.1-4.1-2.5c-0.7-0.9-1.3-2.1-1.4-3.7c-0.2-2.1-0.5-3.3-0.7-3.8c-0.4-0.9-0.4-1.9-0.2-2.9s0.4-1.9,0.4-2.6
		c0-1.2-0.2-2.5-0.4-4s-0.2-2.6,0.4-3.8v-2c-0.2-1.8-0.2-2.4-0.2-2v-1.6c0.2-1,0.2-1.8,0.2-2.3v-4c-0.5-1.5-0.5-3.1,0-4.7
		c0.2-0.7,0.2-1.6-0.2-2.9c0,0.7,0-0.3,0.2-3.1v-3c0-1.1-0.2-2.2-0.4-3.3c-0.2-1-0.2-2.1,0.2-3.1v-5.4v-7.5
		c-0.2-6.3,3.4-10.7,10.7-13.4c2.9-0.4,6.4-1.4,10.6-2.9h5.4c0.7,0.3,1.8,0.7,3.2,1.2c2,0.1,4.5,0.4,7.9,1.1
		c0.5,0.1,1.1,0.4,1.8,0.9v1L179,9.8V10l0.2,2v1.4l-0.4,1.1v0.1l-0.4-0.2v0.3c-0.2,0-0.2,0-0.2-0.1h-0.5h-0.4H177l-0.4,0.1v0.5h-0.4
		c-0.2,0-0.4,0-0.4-0.1l-0.2,0.1l-0.7-0.1l-0.4-0.3c-0.4,0-0.5,0-0.5,0.1v0.9h0.5l0.7,0.1h0.5l1.1-0.1l0.9-0.2h1.1l-0.2,1.2l0.4,2.1
		H179l0.2,0.1v0.9l-0.2,0.7v0.7l0.2,0.7c-0.2,0.3-0.4,0.7-0.4,1.1v0.2l0.2,1.5l-0.2,1.9l0.2,0.8l-0.4,2.2l0.2,1.2l-0.4,2.2v0.5h0.2
		l-0.2,0.7l-0.2,0.5h0.9v1.2c-3.4,0-5.7-0.4-6.6-1.4c-0.7-0.5-1.3-2.2-1.4-5.1c0.2-2.6,0.4-5.8,0.4-9.5c-0.4-1-2.1-2.3-5.2-4
		c-1.3,0-2.9,0-5.2,0.1c-1.8,1.4-2.9,2.3-3,2.4c-1.3,1.4-2,2.7-2,4c0,0.7,0.2,1.3,0.7,1.9c-0.2,2.5-0.4,4.3-0.4,5.5
		c0.7,2.3,0.9,4,0.5,5.1c-0.9,2.3-0.9,4.2-0.2,5.6c0.4,1.2,0.4,2.1,0.2,2.7c-0.5,1.3-0.5,2.7,0,4.4c0.2,0.8,0.2,1.5,0.2,2.3
		c0,1.3-0.5,2.4-0.7,5.1c-0.2,1.4,0,2.4,0.4,3.2c0.2,1,0.2,2.1-0.4,3.5c0,1.6,0.4,5.5,0.4,7.1c0,3.2,0,5.9-0.2,8.1
		c-0.2,1.9,0.4,3.7,1.3,5.5c1.3,2.3,3.4,3.4,6.1,3.4c0.9,0,1.6-0.2,2.5-0.7c3.4-0.5,5-3.2,5-8v-3.2c-0.5-0.9-0.5-1.6-0.4-2.3
		c0.4-1,0.5-2.3,0.7-3.8c0.2-1.4,0-2.7-0.4-3.8v-3.8c-0.5-0.8-2-1.3-4.3-1.5c-2.3-0.3-3.6-1-3.9-2c-0.2-0.1-0.4-1.1-0.5-3
		c-0.2-1.8,0-2.9,0.4-3.3c0.2-0.8,0.9-1.2,2.5-1.4c0.5-0.3,1.4-0.4,2.9-0.4c1.3,0.1,2.5,0.1,3.6,0.1h7.7l-0.2,2.6l0.2,1.8l-0.2,1
		v0.1l0.2,3.8c0,0.1,0,0.3,0.2,0.4v0.4l1.6,2.3l-0.2-3.3l0.2-1.3l-0.4-3.3l0.2-3v-1.6c2,0,3.6,0,4.7,0.1c0.5,0.3,1.3,0.8,2.1,1.5
		c0.4,0.7,0.4,1.3,0.2,1.9c-0.2,0.5-0.2,1.2-0.2,2c0,0.5,0,1.5,0.2,3s0.2,2.4,0,3.2c-0.2,1.3-0.4,2.6-0.2,4c0.2,1.9,0.2,3.3,0.2,4.1
		l-0.2,4.8v4.9c0,0.5,0.2,1.6,0.4,3.3c0.2,1,0,2.1-0.4,3.2C187.7,85.5,187.7,86.6,188.1,88z M180.6,30.9v-3l0.2-2.5l-0.2-1.2h0.2
		v-4.4h0.4l-0.4-0.5v-0.4l0.4-3.6l-0.4-1.5V9.5c3,2.1,5.2,5.1,6.8,8.7c0.4,1.9,0.7,4.5,0.9,8.1c-0.2,3-0.4,5.5-0.5,7.4
		c-0.9,1.4-3.2,2.1-7,2.2l-0.2-2.2c0.5-0.1,0.7-0.3,0.7-0.7v-1h-0.2v-0.3L180.6,30.9z"/>
	<path class="st1" d="M194,16.5c0.2-1.5,0.2-2.6,0-3.3c-0.4-1-0.5-1.8-0.5-2.4c0-1.8,1.1-3,3.2-3.5c0.5-0.1,1.4-0.2,2.5-0.4h0.7
		l-0.2,0.8l0.2,1.2c-1.6,0.1-2.3,0.4-2.3,0.8l0.2,1.2l-0.4,3.1v0.7l-0.4,0.3v1.5l-0.4,0.2h-2.5L194,16.5z M194.4,23
		c-0.2-0.5-0.4-1.4-0.7-2.7c-0.2-0.9-0.2-1.9,0-2.9l2.7,0.2l0.4-0.1h0.2l0.4,0.2v2.1c0.4,0,0.5,0.1,0.5,0.2v1.8h0.2
		c0.4,0,0.5-0.4,0.5-1.4v-2.1c0.4,0,0.5,0.5,0.5,1.5v0.1h-0.2l0.2,1.8c0,0.3-0.4,0.8-0.9,1.1v1c0.4,0.3,0.5,0.9,0.5,1.5
		c0,0.8-0.2,1.3-0.5,1.6v2.3l0.2,0.7l-0.2,0.1l0.4,0.4v1h0.5V31h0.4v0.3L199,33h-0.2v-0.3l0.4-1.1H199l-0.2,0.1
		c0,0.4-0.2,0.8-0.7,1.1h-0.4l-0.2-0.3l-0.9,0.7l-2.1-0.1c0-1.2-0.2-2.3-0.4-3.5c-0.4-1-0.4-2.1,0.2-3.4
		C194.5,25.3,194.5,24.3,194.4,23z M193.7,37.9c-0.2-0.5-0.2-1.2,0-1.9c0.2-0.5,0.5-1,0.7-1.5v-0.5c0.2-0.3,0.2-0.5,0.2-0.7
		c1.8,0.1,2.7,0.4,2.7,0.8l0.7-0.7c0.2,0.1,0.4,0.3,0.5,0.7l-0.2,1.2v0.9H198v1.2l-0.4,0.2l0.2,0.7c0,0.3,0.4,0.5,1.1,0.5l-0.4,0.8
		l0.5,0.3l-0.4,0.2h-1.1v0.4l-0.2,0.7h0.4v-0.3h0.2v0.2l-0.4,1.5c0.2,0.4,0.4,1,0.4,1.5v0.8l-0.2,0.1l-0.2-0.1l-0.7,0.1v0.3
		c0.4,0,0.5,0.1,0.5,0.3V48l0.2,0.2c0.4,0,0.7-0.8,1.1-2.4h0.2v0.3c0,0.1,0.2,0.2,0.5,0.3v0.1h-0.2v1.2h0.2V53h-3.6v0.2
		c0.2,0.1,0.2,0.1,0.2,0.2c-0.2,0-0.7,0.3-1.3,1.1l-0.7,0.2c0.2-1.3,0.2-3.3,0.4-5.9c-0.2-0.5-0.2-1.6-0.4-3.4
		c-0.2-1.3,0-2.4,0.4-3.4C194.5,40.9,194.4,39.5,193.7,37.9z M237.5,89.7c-0.2,1.5-0.5,2.9-1.1,3.8c-1.3,0.7-2,1-2.3,1h-6.8
		c-0.9,0.1-2,0.1-2.9,0.1c-0.7,0-2.1-0.1-4.5-0.2c-2-0.1-3.4-0.1-4.5,0c-2.7,0.1-6.1,0.2-10,0.2c-3.8,0-7-0.2-9.5-0.5
		c-1.3-1.1-1.8-1.8-2-2.1l0.4-3.8c-0.2-0.4-0.2-1-0.2-1.6s0-1.4,0.2-2.3c-0.2-2.3-0.4-4.7-0.4-7.3c0-1.3,0.2-2.7,0.4-4.4
		c-0.4-0.8-0.5-1.5-0.5-2.1c0,0.3,0.4-0.9,1.3-3.5c-0.4-0.8-0.7-1.6-1.1-2.7c0.2-1.3,0.2-3.2,0.2-5.6h0.2l3.9,0.2V59l-0.7,0.5v0.1
		l0.2,0.2c0.5,0.1,0.7,0.2,0.7,0.3v0.1c-0.9,0.1-1.4,0.3-1.4,0.4l-0.9-0.2H196c0,0.5,0.4,1,1.1,1.3v0.2l-0.2,0.8l0.5,0.8l-0.5,0.4
		v0.5c0.9,0,1.6,0.2,1.8,0.7l0.2-0.1l0.7,0.3l1.6-0.2l1.3,0.2c0.5-0.3,0.7-0.5,0.7-0.9h0.4l0.7,0.2h0.7c0.2-1,0.4-1.4,0.7-1.4v-0.2
		l0.7-0.8c0-0.2-0.4-0.3-1.3-0.3v-0.2h6.4c0,1.9-0.4,3.2-1.1,3.8c-0.5,0.3-1.4,0.7-2,1c-1.4-0.1-2.3-0.1-2.5-0.1V67l1.4,0.2
		c0.2-0.1,0.9-0.1,1.8,0c1.8,1.8,2.5,4.4,2,8c-0.2,1-0.2,2.1-0.2,3.4c0,2.1,0.4,4,0.9,5.5c1.6,0.4,3.9,0.7,7,0.7
		c2.3,0,8.1-0.4,10.4-0.4c4.1,0,6.6,0.5,7.2,1.8C237.4,86.8,237.7,88,237.5,89.7z M198.7,57.2v0.1l-0.2,0.1l0.2,0.8
		c-0.9,0-1.6,0.1-2,0.2l-1.1-0.1h-1.4v-1.8h0.2c0.5,0.1,1.3,0.4,1.8,1h0.7l1.3-0.9L198.7,57.2z M195.4,51.7L196,52
		c0.7-0.4,1.3-1.1,1.8-2c-0.4,0-0.5-0.1-0.5-0.3l0.2-0.7h-0.5l-0.5,0.8l0.2,0.5c-0.7,0.2-1.1,0.7-1.1,1.3V51.7z M199.2,46l0.4-0.2
		h0.2l0.2,0.3h-0.2l-0.2,0.1h-0.4V46z M199.4,17.3h0.2v0.9h0.4v2.6h-0.4v-0.5L199.4,17.3z M199.4,40.3V39h0.5v1l-0.4,0.3H199.4z
		 M200.6,44.4h-0.4v0.2l0.2,0.8l-1.1,0.2v-3.2l0.4-0.2h0.5V43l-0.2,0.8l0.2,0.3h0.4V44.4z M199.7,47.8h-0.4v-1.2h0.7v0.3h-0.4V47.8z
		 M199.4,57.9l0.2-0.1v-0.2l-0.2-0.1l0.2-0.7l-0.2-0.1l0.2-0.1l0.5,0.1v1.9h-0.2l-0.5-0.5V57.9z M199.7,21.1l0.4,3.3l-0.2,0.9h0.4
		v1.4l-0.4,0.3v0.1l0.2,0.2v0.4l-0.2,2l0.2,0.3l-0.2,1h-0.2l-0.2-10H199.7z M199.7,36.6v0.8h-0.2v-0.8H199.7z M200.1,59.2h-0.4
		l-0.2-0.1l0.5-0.4V59.2z M200.3,34.9v0.7h-0.2v-0.7H200.3z M200.5,60h-0.2l-0.2-0.4h0.4V60z M200.5,13.7v-0.5l-0.2-0.7l0.5-0.1
		c0.2-0.4,0.4-2,0.4-4.5l-0.4-0.4V6.8c2.3,0,5.2,0.1,8.2,0.4c0.5,0.3,1.3,1,2.1,1.8c0.2,0.5,0.4,1.1,0.2,1.6c-0.2,1-0.4,1.4-0.4,1.5
		c0-0.4,0,0.4,0.2,2.5c0.2,1.6,0.2,3.2,0,4.6c-0.2,1.9-0.2,2.6-0.2,2.2c0.4,1.2,0.5,2.5,0.5,3.7s-0.2,2.3-0.5,3.5
		c-0.4,0.5-0.4,1.1-0.2,1.9c0.2,0.8,0.2,1.2,0.4,1.5c0-0.5,0,0.3-0.2,2.6v2.6l0.2,6.4c0,0.8-0.4,1.3-0.4,1.6c0,0.2,0,0.4,0.2,0.7
		c0.2,1,0.4,2.1,0.4,3.1c0,1.2-0.7,4.7-0.5,6.4c0.2,0.9,0.2,2.2,0.4,4l-2.1-0.1l-0.4,0.1l-3-0.3v0.2c-0.5,0-1.8-0.7-3.8-1.9v-0.8
		c-0.2-0.3-0.4-0.8-0.4-1.3h0.2c0.2-1.2,0.4-1.8,0.9-1.8l-0.2-0.2h-0.2l-0.4,0.1l-0.4-0.4l0.7-0.8l-0.4-0.1c0-0.9-0.4-1.5-0.9-1.9
		v-0.1l1.6-0.2v-0.2l-1.1-0.3c0-0.3-0.2-0.4-0.5-0.4v-0.3l0.9-0.1c0-0.3-0.4-0.4-0.9-0.4v-0.4h1.6v-0.3h-1.1l0.2-0.1v-0.1l-0.2-0.1
		h0.4v-0.2l-0.2-0.2c-0.5,0-0.7-0.1-0.7-0.4l0.2-0.3v-0.1l-0.2-0.2v-0.1l0.2-0.1l-0.2-0.5v-0.2l0.2-1.4v-3.5l-0.2-1.8l0.2-0.4v-0.1
		l-0.2-0.1l0.2-0.7v-0.2l-0.2-0.1l0.2-0.3v-4.6c0-0.8-0.2-1.2-0.4-1.3l0.2-0.1l-0.5-2.4c0.4,0,0.5-1.6,0.5-5.1
		c0.5,0,1.1-0.3,1.6-0.9v-0.3l-0.4-0.8h-0.4l-0.7,0.4v-1.5H201c-0.2,0-0.4-0.8-0.4-2.2V17l0.2-0.2l-0.2-0.1v-0.4l-0.2-1.8
		c1.4-0.4,2.5-0.7,3.2-0.7v-0.2L200.5,13.7z M211,60l0.4,0.1c0,0.7,0,1.1,0.2,1.4H211l-1.1,0.1h-5l-1.1,0.2
		c-0.4-0.5-0.9-0.8-1.4-0.8c0-0.3-0.2-0.5-0.5-0.5v-0.2c1.6-0.3,3.6-0.5,5.6-0.4L211,60z M204.4,57.5l-0.2-0.2h-0.5l-0.2,0.1
		l0.7,0.4L204.4,57.5z M204.2,37.7v0.1c0,0.1,0.2,0.3,0.7,0.4v-0.3l-0.4-0.2H204.2z M206.5,30.8l0.4,0.2h0.4
		c0.4-0.1,0.5-0.4,0.5-1.1v-0.1l-0.2-0.2c-0.4,0-0.7,0.2-1.1,0.5V30.8z M207.4,46.3v-0.1h-0.2l-0.4,0.2v0.2h0.2L207.4,46.3z
		 M207.4,35.6l0.4-0.2l-0.4-0.3l-0.4,0.3L207.4,35.6z M208,15.5c-0.2,0-0.4,0.2-0.5,0.8l1.1-0.4l-0.4-0.3H208z"/>
	<path class="st1" d="M222.3,68.3l0.2-0.1h0.5v0.1l-0.4,0.2L222.3,68.3z M255.8,85.8l-0.2,2l0.2,1.2h-0.7v-0.4c0,0-0.2-0.1-0.7-0.3
		v0.1l-0.4,1.1l0.4,1.8l-0.5,4.4h-1.8v-0.9c-1.1,0-2.3-0.1-3.8-0.2s-2.7-0.1-3.9,0c-1.4,0.1-2.5,0-3.4-0.3c-0.2,0-1.1-0.4-2.5-1.3
		c0-0.8-0.5-2.4-0.5-3.2c0-0.5,0.7-2.1,0.5-3.1c-0.7-2-0.7-4.2,0-6.5c0.2-0.9,0.2-1.6-0.4-2.2c-0.2-0.5-0.2-1.3,0.4-2.3
		c0.2-0.9,0.2-1.6-0.4-2.2l0.7-2.6c-0.5-1.2-0.7-3.3-0.9-6.2c0.2-0.8,0.4-1.9,0.5-3.1c0.2-1,0-2.4-0.2-4.2c-1.3-1-2-2-2.1-3
		l-0.4,0.2h-0.4l-1.1-0.4c0,0.5-0.2,0.9-0.7,0.9h-0.5l-0.4-0.9l-3.4,0.4l-0.7-0.4c0,0.4-0.2,0.7-0.7,0.7h-0.4l-0.7-0.4
		c0.5-0.1,0.9-0.3,1.1-0.7l-0.4-0.3l0.4-0.1v-0.1l-0.4-0.3l0.4-0.3l1.3,0.2l0.9-1.1l1.8-0.8l-0.4-0.2l0.4-0.9l-0.4-6l0.4-8.4
		l-0.4-1.3l0.5-3.3h0.7l-0.2,1.2l0.2,1l-0.2,2.4l0.2,0.2v0.2l-0.2,0.9c0,1,0.2,1.9,0.7,2.4v0.4h-0.5v0.9c0,2.2,0.4,3.8,1.3,4.9v0.3
		l0.4-0.3h0.4l0.4,0.3v1.2c1.3,0,1.8,0.2,1.8,0.7l0.4-0.2h0.2l0.9,0.5v-1.5c0.2-0.9,0.2-1.5,0.2-2.1v-3.7c-0.2-0.4-0.2-1.1,0-1.9
		c0.2-0.4,0.2-1.1,0.2-2.1c-0.2,0.4-0.7,0.8-1.3,1c-1.6-0.1-2.3-0.4-2.3-1c0.2-0.7,0.9-1.2,2.1-1.5h0.2c0,0.2,0.4,0.3,0.9,0.3
		c-0.2-0.8-0.4-1.4-0.4-2.2c0-0.8,0.2-1.5,0.4-2.3l-0.4-0.2l0.5-0.3c0-0.3,0.2-0.7,0.4-1.1c-0.2-1.9-0.5-3.3-0.7-4.3
		c0.5-1.6,0.9-3.3,0.9-4.9c0-1.6-0.9-5.6-0.9-7.3s0.4-3.2,0.9-4.6c0.5-0.3,1.6-0.8,2.9-1.1c0.2,0.1,0.7,0,1.6-0.2
		c0.4,0,1.6,0.1,3.8,0.3c1.1,0.2,2.7,0.3,4.8,0.2c2.3,0,8.2-0.7,10.2-0.5c2.1,0.1,3.9,0.2,5.4,0.2c0.5,0,2.5-0.1,5.7-0.2
		c2.3-0.1,3.9,0.1,5.2,0.4c2,0.4,3,2,3.2,4.7c0.2,2.7-0.9,4.4-3,4.8c-1.1,0.5-2.9,0.8-5.2,0.8c-2.3,0-8.1-0.4-10.4-0.4
		c-1.6,0-3.2,0.1-4.5,0.2c0.2-0.1,0.2-0.3,0.2-0.4v-0.7c0-0.4-0.4-0.7-0.9-0.7c-0.5,0-0.5,0-2.9,0.9v1.4c0.2,1.2,0,1.8-0.9,1.8
		l0.2,0.3v-0.1h0.7c-0.2,0.8-0.2,1.5,0,2.4c0.2,1.5,0.4,2.3,0.4,2.4c-0.2,0.7-0.2,1.8-0.2,3.2l-1.1-0.7v1.2l1.1,0.3
		c0-0.8,0,0.5,0.2,3.8v3.7c0,1.1,0,2.1-0.2,2.9c-0.2,1.2-0.2,2.1,0.4,2.5c0,0.1,0.7,0.7,2,1.4h8.1c3,0,4.8,0.5,5.6,1.6
		c0.4,0.3,0.5,0.9,0.5,1.4c0,1,0,2.2-0.5,5.3c1.3,0.1,2,0.3,2.5,0.5v0.4h-1.8c-0.7,0.5-1.6,0.8-2.5,0.8h-0.4c0-0.1-0.2-0.3-0.5-0.4
		c-1.4,0.3-3,0.4-4.7,0.4H259c0.5,1,0.7,2.1,0.7,3.1v2.2H259l-1.4-0.5h-0.5c0,0.3-0.2,0.5-0.7,0.5v-0.3h-0.7v0.5h-0.5v1.3l0.5,0.3
		l4.1-0.3h0.7l0.4,0.3c-3,2.6-4.5,5.3-4.5,7.8v0.2l0.7,3.5l-1.3,0.4v-4.8l-0.5-0.5v1.3h0.4v10c0.2,0.3,0.5,0.5,1.1,0.7
		c-0.5,0.1-0.9,0.2-1.1,0.2v4.2L255.8,85.8z M228,51.1l-0.2,0.5h-0.4v-0.3l0.4-0.2H228z M228.8,57.4v0.2c-0.2,0-0.4,0.1-0.4,0.3
		l-0.5,0.3h-0.4v-1.1l0.4-0.2L228,57h0.4l0.2-0.1l0.2,0.1v0.1l-0.4,0.2H228.8z M228.4,47.9l-0.5,0.2v-0.2l0.2-0.3l0.4,0.2V47.9z
		 M228.2,53.5l0.4-0.2c0.2-0.1,0.2-0.2,0.2-0.3c-0.5,0.1-0.7,0.3-0.7,0.4L228.2,53.5z M228.6,58.8v-0.5h0.4v0.5H228.6z M229.5,47
		l0.4,0.3h-0.5V47H229.5z M230.2,25.4l-0.2,0.1h-0.5v-0.1l0.4-0.3L230.2,25.4z M234,28.1h-0.2l-0.7-0.5v-0.1h0.2L234,28.1z
		 M233.8,24.3h-0.4l-0.2-0.1v-0.1l0.2-0.1h0.4l0.2,0.1v0.1L233.8,24.3z M234,81.1h0.4l0.4,0.2v0.4h-0.4l-0.7-0.4L234,81.1z
		 M236.1,65l0.7,0.3l-0.7,0.4l-0.7-0.4l0.4-0.2l-0.4,0.1h-0.2c-0.9,0-1.3-0.2-1.3-0.7l0.2-0.7l-0.4-0.3v-0.1
		c0.4,0.3,1.3,0.5,2.7,0.7l-0.4,0.2l0.4,0.7H236.1z M236.8,88.1h0.4l0.7,0.7l-0.5,0.2h-0.2l-0.7-0.7L236.8,88.1z M252.1,90.7
		l0.2-1.2l-2.1-0.5h-1.8L252.1,90.7z M253.5,15.5l1.4-0.1v-0.4c0-0.5-0.4-0.8-1.3-0.8h-0.2c-0.2-1.3-0.4-2.7-0.4-4.3
		c0-0.4-0.4-0.7-1.1-0.7h-0.4c-0.7,0-1.1,0.2-1.1,0.7v3c-0.2,1.6-0.4,2.9-0.4,3.7c-0.2,0.3-0.2,0.8-0.2,1.3V18
		c-0.5,0.4-0.7,1-0.7,1.5c-0.2,0.1-0.2,0.3-0.2,0.4c0,0.3,0.4,0.4,1.1,0.4h0.5v6.9h0.4l0.4,14.6h0.9l-0.4-8.8h0.4v-7.4H251v-0.4
		l0.4-0.2v-0.2l0.4,0.2h0.7L253.5,15.5z M257.4,42.1H256l1.4-0.1V42.1z M281.6,89.7c-0.2,1.6-0.5,2.7-0.7,3.5l-1.3,0.8
		c-0.5,0.3-0.9,0.4-1.4,0.5h-3c-1.3-0.1-2.1-0.1-2.9-0.1c-2.1,0.2-4.3,0.3-6.4,0.2c-2.1-0.1-4.3-0.1-6.6-0.1c-1.1,0-2,0-2.5,0.1
		v-4.2h-0.5l1.1-5.9c0.5,0.1,1.3,0.2,2.3,0.2c0.9,0,1.8,0,3-0.1v-2.1h0.5l0.5,1v0.2l-0.2,0.9c-0.2,0,2.5,0,7.7-0.1
		c1.8,0,4.3,0,7.3,0.1C280.9,85.8,282,87.5,281.6,89.7z M257.8,31v-0.2h4.5V31h-1.8v0.1l-0.7-0.1l-0.2,0.1l-0.9-0.1H257.8z
		 M259.8,75.7h0.7L261,76v0.1h-0.2L259.8,75.7z M262.3,96h0.7l0.2,1.2h-0.5L262.3,96z M265.7,41.7v-0.2h0.4l0.7,0.4v0.2h-0.4
		L265.7,41.7z M270.3,25.9l-0.4-0.2l0.4-0.2l0.4,0.2L270.3,25.9z M272.7,36.7v-0.1l0.2-0.1h0.4v0.1l-0.4,0.2L272.7,36.7z
		 M273.4,73.8h0.4l0.4,1.2v0.3L273,75L273.4,73.8z M273.2,35.8v-0.2l0.4,0.2H273.2z M277.9,35.6v0.2h-3.4l-0.4-0.2l0.2-0.1l0.9,0.1
		H277.9z M275.3,41.1l0.7,0.4l-0.9,0.7h-0.7v-0.7l0.7-0.4H275.3z M275.9,68.3c0,0.1-0.4,0.2-0.9,0.3l0.5-0.3H275.9z M275.7,44.2
		c0.5,0,0.7,0.1,0.7,0.2s-0.2,0.2-0.5,0.2l-0.5-0.1v-0.2L275.7,44.2z M276.1,59h0.4l-0.7,0.3v-0.2L276.1,59z M276.6,53.2v-0.1
		l0.4-0.2l0.4,0.2l-0.5,0.2L276.6,53.2z M278.2,28l-0.4,0.2l-0.5-0.1v-0.2h0.9V28z"/>
</g>
<g>
	<path class="st1" d="M9.8,66.8c0.3-0.1,0.6-0.1,0.9-0.1c0.3,0,0.6,0.1,0.9,0.2c0.2,0.8,0.3,1.3,0.3,1.4h-0.3v0.4l0.4,0.2v0.1
		c0,0.5,0.1,1.1,0.1,1.7c0,0.5,0,1.4-0.1,2.5c-0.1,1.8,0,2.9,0.3,3.3c0.1,0.3,0.3,0.5,0.5,0.4h0.6c0.4,0,0.9,0,1.6-0.1
		c0.7-0.1,1.3-0.1,1.6-0.1c0.4,0.3,0.8,0.5,1.3,0.5c0.3,0,0.8-0.1,1.3-0.2c0.6-0.2,1-0.3,1.3-0.3c0.9,0,2,0.1,3.3,0.3
		c0.8,0.1,1.9,0.1,3.2,0c0.1,0,0.6-0.1,1.5-0.2c0.5-0.1,1.2-0.1,2.1-0.2c0.3,0,0.4,0.1,0.6,0.4c0,0.1,0.2,0.5,0.4,1.2
		c0,1.3,0,2.8,0,4.5c0,1.7-0.1,2.8-0.4,3.1c-0.1,0.3-0.2,0.4-0.3,0.4c-0.1,0-0.2-0.1-0.4-0.2c-0.1-0.1-0.3-0.1-0.4,0
		c-0.3,0.2-0.8,0.2-1.4-0.1c-0.3-0.1-0.8,0-1.4,0.2c-0.6,0.2-1.1,0.3-1.4,0.2c-0.8-0.2-1.5-0.3-2.1-0.3c-0.2,0.1-0.4,0.2-0.8,0.3
		c-0.3,0.1-0.6,0-0.8-0.2c-0.1,0-0.1,0-0.2-0.1c-0.1-0.1-0.2-0.1-0.3,0c-0.2,0.2-0.5,0.3-0.8,0.2h-0.4C20.3,86,20.2,86,20.1,86h-7.6
		c-0.3,0-0.4,0.3-0.5,0.9c0,0.2-0.1,0.9-0.1,1.9c0,0.7,0.1,1.4,0.1,2c0,1,0,1.9-0.1,2.9l-0.1-0.3h-0.2l-0.1,0.4v0.4l0.2,0.7h0.1
		c-0.1,0.4-0.2,0.6-0.3,0.7c-0.1,0.3-0.3,0.4-0.7,0.4v-0.3l-0.1-3.5h0.1v-0.4l-0.1-0.2v-0.2l0.1-0.3l-0.1-0.6l0.1-2.4l-0.1-1.7h-0.1
		c0,0.8-0.1,1.4-0.2,1.7v0.4c0.1,0.5,0.2,1.2,0.2,1.8v1.4l-0.1,1.6v0.2l0.1,2.2c-0.3,0-0.6-0.1-1-0.4c-0.1-0.4-0.3-1.7-0.3-3.3
		c0-1.6,0-2.4,0-2.3v-1.6c0-1.1,0-1.8,0-2.3v-4c0-0.6,0-1.5,0-2.9c0-1.4,0-2.2-0.1-2.6c0-2.4,0.1-5,0.1-7.6
		C9.4,68.4,9.5,67.8,9.8,66.8z M10.8,68.8L10,68.4c-0.3,0.2-0.4,0.4-0.4,0.6v0.2h0.1l0.8,0.7c0-0.5,0.1-0.7,0.1-0.7v0.3l0.1-0.5
		V68.8z M11.4,79.8l-0.1-0.3L11.2,80h0.2V79.8z M15.3,77.9L15.3,77.9L15,78.4v0.4h0.1L15.3,77.9z"/>
	<path class="st1" d="M26.1,35.1c0.9,0.1,1.7,0,2.6,0h0.7c0.1,0,0.3,0.1,0.8,0.3c0.3,0.1,0.5,0.1,0.7,0c0.3-0.2,0.6,0.4,0.7,1.6
		c0.1,0.7,0.1,1.7,0.1,3.2c0,2-0.1,3.2-0.3,3.6c-0.1,0.4-0.3,0.6-0.5,0.5h-2.7c-0.3,0-0.6,0.1-0.8,0.3c-0.2,0.1-0.5,0-0.9-0.3
		c-0.2-0.1-0.4-0.1-0.6,0c-0.2,0.1-0.4,0.2-0.6,0.2h-0.4c-0.2-0.1-0.3-0.1-0.4-0.1V44h0.2v-1.4h0.1v-1.2h-0.1l0-0.1
		c0,0,0.1-0.1,0.1-0.2h0.1v-0.8c-0.1-0.4-0.2-0.6-0.1-0.6h-0.1c0-0.1,0.1-0.2,0.1-0.5c0-0.3,0-0.4,0-0.5l0-0.1v-0.6
		c0-0.1,0-0.3-0.1-0.4v-0.1l0.1-0.2l-0.1-0.4L24.5,37l0-0.1h-0.2L24.2,37l-0.1,0.5l0.1,0.1l0,0.3v0.5h0v2.1L24,40.6l0.1,0.3v0.3
		l0,0.1v0.1h0v0.5c0,0.4,0.1,0.6,0.2,0.6h0.1v0.1h-0.3V44l0.1-0.1v0.3c-0.4,0-0.7,0.1-1,0.3c-0.2,0.2-0.4,0.2-0.6,0.1
		c-0.2-0.1-0.4-0.3-0.5-0.4c-0.2-0.2-0.5-0.1-0.8,0.2c-0.1,0.8-0.2,1.1-0.2,1c-0.1,0.5-0.1,1.6-0.1,3.3c0,1.6,0.1,2.8,0.1,3.5
		c0.3,0.7,0.6,1,0.9,1c0.3,0,1.2-0.7,1.5-0.7c0.4,0,1.3,0.6,1.7,0.6c0.5,0,0.8-0.1,1.1-0.3c0.4,0,1.4,0.2,1.8,0.2
		c0.4,0,1-0.1,1.7-0.2c0.5-0.1,1.1,0.1,1.6,0.5c0.2,1.1,0.3,2.6,0.3,4.4c0,1.1,0,2.1-0.1,3.4l-0.3,0.8c-0.2,0.3-0.6,0.5-1.1,0.4
		c-0.6-0.1-1-0.2-1.2-0.4l-1,0.2c-0.1-0.1-0.3-0.1-0.6-0.2c-0.3-0.1-0.5-0.1-0.7,0c-0.2,0.2-0.5,0.3-0.9,0.4c-0.4,0.1-0.8,0-1-0.2
		c-0.1,0-0.4-0.2-0.5-0.2c-0.1,0.1-0.3,0.1-0.4,0.1c-0.2,0-0.3,0-0.4-0.1c-0.4-0.2-0.7-0.2-1,0c-0.4,0.3-0.8,0.4-1.3,0.4
		c-0.6,0-1-0.1-1.3-0.4C18.7,61.9,18,62,17.2,62c-0.3,0-0.6,0-0.8-0.1c-0.4,0.2-1,0.3-1.7,0.2c-0.3-0.2-0.6-0.2-0.9-0.1
		c-0.9,0-1.8-0.1-2.7-0.2c-0.1,0.1-0.4,0.2-0.6,0.3c-0.3,0.1-0.5,0-0.6-0.3c-0.2-0.1-0.4-1.4-0.5-1.5c0-0.4,0-0.7,0-0.8
		c0-2.8,0.1-4.5,0.1-5.3c0.2-1.4,0.6-1.8,1.3-1.5c0.5,0.3,0.9,0.4,1.1,0.3c0.6-0.1,1.3-0.2,2-0.2l0-0.2l-0.2-0.8H14l0.1,0.4l0.2,0.6
		H16c0.4,0,0.7,0.1,1.1,0.2c0.8,0.3,1.1-0.2,1.2-2.9c0.1-0.1,0.1-0.3,0.1-0.6l0-0.4L18.3,49l-0.1-0.2v-0.5c0-0.2,0-0.4,0-0.5h0v-1
		h-0.1c0-0.8-0.1-1.4-0.1-1.7c-0.3-0.6-0.6-0.9-1-0.8c-0.4,0.1-0.8,0.1-1.3,0.1c-0.1,0-0.4-0.2-0.5-0.2c-0.1,0-0.5,0.3-0.6,0.3v0.3
		h-0.2l0-0.1h0v0.1h0.1c0.1,0.3,0.2,0.5,0.2,0.6v0.5l0,0.1v0.1h0v0.4l0.1,0.3l-0.1,0.1V49l0,0.4v0.4l0,0.1l-0.1,0.3l0,0.2l0,0.1
		h-0.2l0-0.1l0-0.2l-0.1-0.3l0.1-0.3c-0.1-0.2-0.1-0.4-0.1-0.5v-0.6h0c0-0.1,0-0.3,0-0.4v-0.2c0-0.1,0-0.3,0.1-0.4h-0.1v-0.1
		c0-0.1-0.1-0.3-0.1-0.6v-0.6h0.1c0-0.2,0.1-0.3,0.1-0.3v-0.1h-0.1v-1.2h0.1v-0.3c-0.2-0.1-0.5-0.2-0.9-0.2c-0.4,0-0.6,0-0.8,0.1
		c-0.3,0.1-0.6,0.1-0.8-0.1c-0.4,0-1.4,0.2-1.9,0.2C9.5,44,9.3,42.9,9.2,41c0-1.8,0-3.5,0.1-4.8c0.1-0.1,0.1-0.3,0.3-0.7
		c0.2-0.3,0.4-0.4,0.7-0.4c0.3,0,0.6,0,0.8,0.1c0.5,0,1.1-0.1,1.5-0.2c0.3,0.1,0.6,0.2,0.9,0.2c0.3-0.1,0.5-0.2,0.8-0.2
		c0.1,0,0.4,0.1,0.8,0.2l0.9-0.2c0.7,0.1,1.4,0.2,2.1,0.2c0.8,0,1.9,0,3.3-0.1l3.3-0.1l0,0.1l0,0.2l0.1,0.1h0.4l-0.1-0.4h0.5
		l0.1,0.6V36l0,0.9v1h-0.1v0.7l0.1,0.2h0l0,0.1v0.4l0,0.4h0.3V35.1z M13,52.7h-0.3v-5.1H13l0,0.5l0,0.4v0.1l0,0.2v0.7H13v0.9l0,0.9
		v0.4l0,0.3l0.1,0.7H13V52.7z M13.7,47.6v-0.8h0.2l0,0.1L14,47l0,0.2V48h-0.2L13.7,47.6z M13.8,47.6L13.8,47.6L13.8,47.6L13.8,47.6
		l0-0.2L13.8,47.6L13.8,47.6z M13.9,47.2l0.1,0.2L13.9,47.2L13.9,47.2L13.9,47.2L13.9,47.2z M14.2,45.2L14.2,45.2L14.2,45.2
		L14.2,45.2L14.2,45.2z M16.2,48.1L16.2,48.1l0,1l-0.2-0.3c-0.1-0.1-0.1-0.3-0.2-0.6l-0.1-0.3l0.1-0.5h0.1l0,0.2L16.2,48.1z
		 M17.1,50.7c0.1-0.7,0.1-1.2,0.2-1.4l0.1-0.2h0.2l-0.1,0.6c0,0.3-0.1,0.7-0.1,1.4l0,0.2h-0.3L17.1,50.7z M17.5,39.3h0.3v-0.6l0-0.3
		v-0.2l0-0.3v-1.8h-0.3v1.1l0,0.1l0,0.2V39.3z M20.2,48.9H20l-0.1,0.4v0.7H20l0.1,0.1l0.1,0.1l0.1-0.2l0-0.2l0.1-0.3l-0.1-0.4
		L20.2,48.9z M20.5,40.1l0-0.3v-0.3H20l0.2,0.7l0,0.1v1.1l0,0.2l0,0.1l0,0.2l0,0.1l0,0.2h0v0.2l0,1.4v0.9h0.3v-1.1L20.5,40.1z
		 M20,49.4v-0.2h0.1l0.1,0.3l0,0.2H20V49.4l0.1,0.2L20,49.4L20,49.4L20,49.4L20,49.4z M20.5,44.1L20.5,44.1L20.5,44.1L20.5,44.1z
		 M21,48.9l0-0.3V48h0.3v1.9l0,0.1l0,0.1v1.1h-0.3v-1.8L21,48.9L21,48.9z M21.5,38.1c0.1-0.1,0.1-0.6,0.2-1.4l0.1-0.6h-0.3l-0.1,0.2
		c-0.1,0.7-0.1,1.2-0.1,1.4l-0.1,0.5L21.5,38.1L21.5,38.1z M22.5,38.2v1l0,0.1l0.1,0.5l0,0.1h0.2l0.1-0.4l0-0.3
		c0-0.3-0.1-0.5-0.2-0.7L22.5,38.2z M24.2,43.1v0.3V43.1L24.2,43.1L24.2,43.1z M24.3,44.1l0-0.2h0l0-0.1l0-0.1h0l0,0.1L24.3,44.1
		L24.3,44.1z M25.1,40.5v-0.9l0-0.1L25,39.4l0-0.1h-0.2v0.8l0,0.1l0.1,0.1l0,0.2H25.1z M24.9,39.8L24.9,39.8l0,0.2l0,0.1h0
		L24.9,39.8L24.9,39.8z M24.9,39.7L24.9,39.7L24.9,39.7l0,0.2L24.9,39.7L24.9,39.7z"/>
	<path class="st1" d="M29.3,21.2l0.5,0.1l0.3-0.1v0.4H30c0,0,0,0.1-0.1,0.4h0l0.3,0.2l0.4-0.2l1.1,0.3v1h-0.2c0,0.6,0,1.3-0.1,2
		c0,0.8,0,1.4,0,2.1c0,0.8,0,1.4-0.1,1.8c0,0.1-0.1,0.6-0.3,1.4c-0.2,0-0.6,0.3-0.8,0.3c-0.1,0-0.5-0.4-0.8-0.3
		c-0.5,0.4-1.1,0.4-1.7,0c-0.2-0.1-0.4-0.1-0.6,0.2c-0.1,0.1-0.3,0.1-0.6-0.2c-0.2-0.1-0.4-0.1-0.6,0.2l-0.7-0.4
		c-0.3,0.3-0.8,0.4-1.6,0.5c-0.2-0.1-0.5-0.2-0.8-0.3c-0.3-0.1-0.6,0-1.1,0.1c-0.3,0.7-0.5,1.1-0.8,1.2l0.1,0.2v0.2l-0.1,0.6
		c0.1,0,0.2,0.1,0.2,0.4v0.3l-0.2,0.2l0.1,1.8l-0.1,0.4c0.1,0,0.2,0.1,0.2,0.4v0.2l-0.1,0.4c0-0.3-0.1-0.5-0.2-0.6l-0.1,0.2l0-0.2h0
		l-0.1,0.2l-0.1-0.2l0.1-0.7l-0.3-0.5l-0.2-1l-0.1,0.2l-0.2-0.2l-1.5,0.2l-2.1-0.2l-0.3,0.2L15.3,34v-0.4l0.3,0.1l0.3-0.1l0.6,0.1
		l0.1-0.1h0.1l0.2,0.1c0.3,0,0.5-0.1,0.6-0.4h0.1v0.3h0.2c0.6,0,1-0.2,1.3-0.7h0.1L19,32.8v-0.2l0.1-0.2h0.3c0-0.7,0.1-1,0.2-1
		l-0.1-0.2v-0.1l0.1-0.5h-0.4c-0.2-0.1-0.4-0.1-0.5-0.1h-1c-0.1,0.1-0.3,0.1-0.5,0c-0.1-0.1-0.3-0.1-0.5-0.1
		c0.1,0.1,0.2,0.4,0.3,0.7c0,0.9-0.1,1.3-0.3,1.3c-0.2-0.1-0.3-0.5-0.4-1.2v-0.1c0.1,0,0.1-0.2,0.1-0.5c-0.2,0.1-0.4,0.2-0.6,0.2
		s-0.4-0.1-0.6-0.2l-0.1,0.2l-0.1-0.3c-0.1,0-0.2-0.1-0.3-0.2c-0.5,0.1-0.8,0.3-1.1,0.4c-0.4-0.3-0.8-0.5-1.3-0.5
		c-0.4,0-1.4,0.5-1.9,0.5c-0.4,0-0.8-0.2-1.2-0.5c-0.1-0.3-0.2-0.9-0.3-1.5c0-0.1,0-0.4-0.1-0.9c0-0.2,0-0.9,0.1-2
		c0.1-0.6,0.1-1.4,0.1-2.6c0-1.3-0.2-4.4-0.1-5.5c0-1.2,0.1-2.1,0.1-2.9c0-0.3,0-1.4-0.1-3.1c0-1.3,0-2.1,0.1-2.8
		c0.1-1.1,0.5-1.6,1.2-1.7c0.7-0.1,1.1,0.5,1.2,1.6c0.1,0.6,0.2,1.5,0.2,2.8c0,1.3-0.1,4.3-0.1,5.6c0,0.9,0,1.7,0.1,2.4
		c0-0.1-0.1-0.1-0.1-0.1h-0.2c-0.1,0-0.2,0.2-0.2,0.5s0,0.3,0.2,1.5H12c0.3-0.1,0.4,0,0.4,0.5l0.1-0.1h0v-0.4c0.2,0.1,0.4,0.1,0.6,0
		c0.4-0.1,0.6-0.2,0.6-0.2c0.2,0.1,0.4,0.1,0.8,0.1L14.4,22h0.3l0.1-0.6c-0.2,0,0.1,0,1-0.1h1c0.3,0,0.5,0,0.7,0.1
		c0.3,0.1,0.5,0.1,0.6-0.2c0,0,0.2-0.4,0.4-1.1v-4.3c0-1.6,0.1-2.6,0.4-3c0.1-0.2,0.2-0.3,0.4-0.3c0.3,0,0.6,0,1.3,0.3
		c0-0.7,0.1-1.1,0.1-1.4h0.1v1c0.1,0.4,0.2,0.9,0.2,1.4V14c0,0-0.1,0.1-0.1,0.3C21,15.1,21,16,21,16.8v2.6c0.3-0.3,0.5-0.4,0.8-0.4
		h0.6v0.4l-0.1,0.8v0.3c0.1,0,0.1,0.1,0.1,0.4h-0.1v0.4h0.1v0.3h0.3l0.1-0.3L22.8,19v-0.4l0.1-0.2c0.7,1.6,1.3,2.4,2,2.4h0.1
		l0.9-0.4l0.1,0.7h-1.2l-0.1,0.3h0.3v-0.2h2.6c0.1-0.1,0.1-0.3,0.2-0.6c0,0.3,0.1,0.5,0.1,0.6h1.1L29.3,21.2z M11.4,22.4l0-0.8h-0.1
		c-0.1,0-0.2,0.2-0.2,0.7v0.1c-0.3,0.1-0.7,0.2-1.1,0.2c-0.1,0-0.2,0.2-0.2,0.6v0.2c0,0.4,0.1,0.6,0.2,0.6h0.8
		c0.4,0.1,0.7,0.2,1,0.2c0.1,0.1,0.2,0.1,0.3,0.1h0c0.1,0.3,0.3,0.4,0.4,0.4c0,0.1,0.1,0.1,0.1,0.1c0.1,0,0.1-0.2,0.1-0.6v-0.3h1.8
		v-0.2l3.7-0.2V23l-2.2,0.2V23H14v0.8h-0.1l-0.1-0.2h-0.1l0.1-0.2V23L11.4,22.4z M13.6,33v0.2l0,0.1h0l0-0.1L13.6,33L13.6,33
		L13.6,33L13.6,33z M13.9,35L13.9,35l0,0.4h0l-0.1-0.2L13.9,35z M14.1,13.4L14,13.6l-0.1-0.2l0.1-0.2L14.1,13.4z M14.6,32.9
		L14.6,32.9l-0.1,0.5h0v-0.1L14.6,32.9z M14.6,9.1l0.1,0.2l0,0.3h-0.1L14.6,9.1L14.6,9.1z M15.3,20.1L15.3,20.1l-0.1-2.4h0.1v1h0
		l0,0.4l0,0.1l0,0.5V20.1z M16.5,9.3L16.5,9.3l0.1,1.8l-0.1,0.2l0-0.1l0-0.5V9.3z M16.6,11.8L16.6,11.8v-0.2V11.8z M16.8,12.1
		L16.8,12.1L16.8,12.1l-0.1-0.3h0L16.8,12.1L16.8,12.1z M17.9,10.7l0.1-0.4l0.2,0.5v0.4H18L17.9,10.7L17.9,10.7z M18.1,15.9
		L18.1,15.9L18,15.7l0.1-0.4h0.1v0.2L18.1,15.9z M18.2,20.3v0.8V20.3L18.2,20.3z M18.7,10.5c0-0.3,0-0.4,0.1-0.4
		c0,0,0.1,0.1,0.1,0.3l0,0.3h-0.1L18.7,10.5z M19.4,35.4l0.1-0.2L19.4,35.4L19.4,35.4L19.4,35.4z M19.7,35.9l0.1,0.3h-0.1l-0.1-0.1
		L19.7,35.9L19.7,35.9z M20.5,36.1l0.1,0.1v0.2h-0.1L20.5,36.1L20.5,36.1z M21,10L21,10l-0.1-0.2L21,9.6L21,10L21,10z M21.1,36
		L21,35.8c0-0.1-0.1-0.1-0.1-0.1C21,36,21,36.1,21.1,36L21.1,36z M22.1,35.7L22.1,35.7c0.1,0.1,0.1,0.2,0.1,0.2l0.1,0.3v0.2H22
		L22,36.2l0-0.1v-0.2l0-0.1L22.1,35.7L22.1,35.7v0.2V35.7z M22.4,35.8h-0.1v-0.2h0.1V35.8z M22.5,10.3v-0.2l0.1,0.4h-0.1L22.5,10.3z
		 M24,31.8l0.1-0.4l0.1,0.4l-0.1,0.4L24.1,32l0,0.2v0.1c0,0.5-0.1,0.7-0.2,0.7l-0.2-0.1L23.7,33h0c0.1-0.2,0.1-0.7,0.2-1.4l0.1,0.2
		l0.2-0.2V31.8z M24.9,39.2L24.9,39.2l0-0.4h0l0.1,0.2L24.9,39.2z M24.9,10.4c0,0,0.1,0.2,0.1,0.5l-0.1-0.3V10.4z M26.3,11.7v-0.2
		l0.3-0.2h0.1l-0.1,0.6L26.3,11.7z M26.8,19v-0.4l0.1-0.3h0v0.1L26.8,19z M28.1,32.9v-0.2l0.1-0.2h0.1v0.2l-0.1,0.4L28.1,32.9z
		 M30.3,7.3c0.4,0.1,0.7,0.3,0.9,0.4l0.2,0.7c0.1,0.3,0.1,0.5,0.1,0.8v1.6c0,0.7,0,1.2,0,1.5c0.1,1.2,0.1,2.3,0.1,3.5
		c0,1.2,0,2.3,0,3.6c0,0.6,0,1.1,0,1.4h-1.1V21L29,20.4c0-0.3,0.1-0.7,0.1-1.3c0-0.5,0-1,0-1.6h-0.5v-0.3l0.3-0.3h0.1L29,17
		c0,0.1,0-1.4,0-4.1c0-1,0-2.3,0-4C29.3,7.7,29.8,7.1,30.3,7.3z M29.9,31.4v-0.2l0.2-0.4l0.1,0.3v0.1L30,31.6L29.9,31.4z M30.6,23.2
		l-0.3-0.1l-0.1,1.2v1L30.6,23.2z M32,17.7v-0.4l0.3-0.1v0.3L32,17.7z"/>
</g>
</svg>
