<?xml version="1.0" encoding="utf-8"?>
<!-- Generator: Adobe Illustrator 21.1.0, SVG Export Plug-In . SVG Version: 6.00 Build 0)  -->
<svg version="1.1" xmlns="http://www.w3.org/2000/svg" xmlns:xlink="http://www.w3.org/1999/xlink" x="0px" y="0px" width="629.3px"
	 height="348.7px" viewBox="0 0 629.3 348.7" enable-background="new 0 0 629.3 348.7" xml:space="preserve">
<filter  id="AI_GaussianBlur_4">
	<feGaussianBlur  stdDeviation="4"></feGaussianBlur>
</filter>
<g id="white_outline">
	<path filter="url(#AI_GaussianBlur_4)" d="M522.4,329.9c-7,0-12.9-2-17.6-6c-3.7-3.1-6.1-7.3-6.8-12c-2,1.5-4.3,2.5-7,3
		c-3.5,0.7-8.2,1.1-14.3,1.1c-6.3,0-11.2-0.6-15.1-1.9c-1.1-0.4-2.1-0.8-3.1-1.4c-4.7,2.4-9.9,3.6-15.6,3.6
		c-6.5,0-12.2-1.8-16.8-5.3c-1.7,1.4-3.7,2.5-5.9,3.3c-3.5,1.2-8.3,1.7-15.5,1.7c-5.6,0-9.6-0.6-12.7-1.9c-0.2-0.1-0.4-0.2-0.6-0.2
		c-0.4,0.1-0.7,0.3-1.1,0.4c-3.6,1.2-8.2,1.8-14.6,1.8c-6.4,0-11.4-1-15.2-3.1c-1.6,0.6-3.3,1.1-5.2,1.5c-4.3,1-8.7,1.5-12.8,1.5
		c-3.3,0-6-0.6-8.2-1.8c-3.1,1.2-6.4,1.8-9.7,1.8c-11.6,0-17.8-5.2-20.9-9.5c-0.1-0.2-0.3-0.4-0.4-0.6c-0.7,0.7-1.5,1.3-2.3,1.9
		c-7.4,5.6-15.9,8.5-25.4,8.5c-9,0-16.7-2.6-22.8-7.6c-1.1,0.9-2.2,1.8-3.5,2.5c-5.5,3.4-11.9,5.1-19,5.1c-8.5,0-16-2.6-22.2-7.7
		c-2-1.6-3.7-3.4-5.2-5.2c-0.6,1.3-1.3,2.5-2,3.7c-1.3,2.3-3.7,6.4-9.1,7.9c-2.5,0.6-6,1.5-8.7,1.8c-3.5,0.4-6.9,0.8-10.7,0.9
		c-0.9,0-1.7,0-2.5,0c-1.9,0-3.5,0-5.2-0.1c-0.8,0-1.6,0-2.4-0.1c-4.5-0.1-7-0.4-10.8-0.8c-6.8-0.8-11.3-2.1-16.4-4
		c-1.2-0.4-2.6-1-4-1.7c-5.6-2.6-9.2-5.4-13.9-10.7l-0.1-0.1l-2.2-2.9l-0.7-1.4c-0.3-0.5-0.6-1-0.9-1.6c-2.1,5.9-5.7,14.8-15.1,18.5
		c-4.6,1.8-10.2,2-16.6,2.1c-2.2,0-4.3,0.1-6.4,0.1c-2.6,0-4.9,0-7.3-0.1c-6.7-0.1-14.9-1-19.5-7.5c-4-5.7-4.2-14.3-0.5-25.4
		c-23.1-3-29.9-16.1-31.4-27.2l-0.1-0.5c-0.3-3.5-0.3-6.7,0-11l0-0.5c1.4-12.8,9.4-22.1,22.3-26l0.3-0.1c0.9-0.3,2.6-0.9,4.8-1.3
		c3.5-0.6,6.6-1,9.8-1.2c-0.9-8-2.3-16.1-3.7-24c-0.3-2-0.7-3.8-1-5.7c-0.1-0.4-0.1-0.7-0.2-1.1c-0.4-2.4-0.9-5.1-0.7-8
		c0.5-5.6,3.3-9.8,5.5-12.7c-1.4-3.1-2.3-6.4-2.9-10.1c-1.3-8.1,0.4-16,1-18.2l0.2-0.7l0.3-0.7l0.1-0.2c0.2-0.7,0.6-1.8,1.2-3.2
		l0.1-0.1c0.3-0.6,0.8-1.6,1.7-2.9c0.1-0.1,0.1-0.1,0.1-0.2c0.4-0.6,0.8-1.3,1.5-2.2c5.1-6.6,11.7-10.9,19.7-12.5c2.4-0.6,5.1-1,8-1
		c2.1,0,5,0.2,8,1l2-3.4h7.4c4.4,0,10.1,0,16,0l1.5,0c6.1,0,12.3,0,17.3,0c3.1,0,5.7,0,7.5,0c2.5,0,7.3,0,10.7,3
		c5-2.4,10.2-3.7,16.6-4.3c1.5-0.2,3.3-0.2,5.2-0.2c1.4,0,3.4,0.1,5.3,0.3c8.2,0.7,14.2,3.5,18.7,6.5V65.6H234
		c-0.1-0.9-0.1-1.9-0.1-2.8c0-13.6,5.6-24.8,16.1-32.4c9.9-7.2,22-10.9,35.9-10.9c11.2,0,21.6,2.6,31,7.8c4.2,2.4,7.9,5.2,10.9,8.5
		c0.5-0.4,1-0.8,1.5-1.2l0.1-0.1c12-8.6,25.5-13,40.1-13c11.3,0,21,2.3,28.9,6.9c4.5,2.7,8.1,6.4,10.8,11c2.7,4.7,4,9.7,4,14.9
		c0,6.6-2.2,13.2-6.6,19.8c2.5,0.8,4.8,2.2,6.7,4.1c3.3-2.3,6.9-3.8,10.8-4.4c-1-3.9-1.5-7.9-1.5-12c0-13.6,5.6-24.8,16.1-32.4
		c9.9-7.2,22-10.9,35.9-10.9c11.2,0,21.6,2.6,31,7.8c13.8,7.7,21.1,20.6,21.1,37.4c0,12.2-3.9,24.9-11.5,37.8
		c-2.2,3.8-4.6,7.3-7,10.7l2.6,0v0l7.1,0l7.3,0v0l82.2,0.2l0.1,58.7l-0.6,0l-0.1,55.7l-31.9,0v43.9h-2.2c-0.7,2.2-1.8,4.2-3.4,5.9
		c-1.6,1.6-3.5,2.9-5.9,4c-0.5,1-1.3,2.8-2.4,5.8l-5.6,15.3c-1.6,4.5-3.3,8.1-5,11.2c-1.9,3.3-4.2,6.3-6.8,8.7
		C537.7,327.1,530.6,329.9,522.4,329.9z M503,291.9c0.4,0.8,0.7,1.6,1,2.4c1.7-1.6,3.7-2.8,5.9-3.6l-0.8-1.7
		C507.2,290.2,505.1,291.2,503,291.9z M497.8,250.2c3.7,0,7.1,0.9,10.2,2.6c1-0.4,2-0.7,3.1-1l0-24.9h-17.6c0,3.3,0,6.3-0.1,8.4
		c-0.1,1.7-0.1,8.4-0.1,15.3C494.7,250.4,496.2,250.2,497.8,250.2z M375.5,251.7c0.2,0,0.4-0.1,0.6-0.1c0.3-0.1,0.6-0.2,0.9-0.2
		l-0.1-25.3l-1.4,0L375.5,251.7z M310.4,209.2c0.6,1.2,1.9,3.7,3.2,6.2v-8.2c-0.9,0.7-1.8,1.3-2.8,1.9L310.4,209.2z M336.9,76
		c-0.4,2-0.9,4-1.4,6c2.2-2.3,4.1-4.6,5.8-6.8C339.9,75.7,338.5,75.9,336.9,76z"/>
	<path fill="#FFFFFF" d="M574.5,175.5c-3-0.1-4.8-0.6-5.1-6.4c0-0.6-0.1-2.2-0.1-3.8c9.3,0,32.4,0.1,32.4,0.1l0-47.2l-82.2-0.2v0
		l-1.5,0l-1.4,0v0L496,118c5.2-5.7,10-12.2,14.3-19.4c7.1-12,10.7-23.8,10.7-34.9c0-14.8-6.1-25.6-18.1-32.3c-8.5-4.7-18-7-28.2-7
		c-12.6,0-23.5,3.3-32.5,9.8c-9.1,6.5-13.7,15.9-13.7,27.7c0,5.7,1.1,11.2,3.2,16.5c0.1,0.3,0.3,0.7,0.4,1c-1-0.1-2-0.2-3-0.2
		c-5.9,0.1-11,2.1-15.3,6.1c-0.6,0.6-1.2,1.2-1.7,1.8c-2.4-6.9-7.9-7.8-10.6-7.8c-2,0-3.7,0.4-5.2,1.3c-0.8,0.5-1.8,1.3-4.3,3.7
		c-1.7,1.7-3.5,2.7-5.5,3c0.6-0.5,1.3-1.2,2.2-1.9c12.7-10.8,18.9-20.8,18.9-30.8c0-4.2-1.1-8.3-3.3-12c-2.2-3.8-5.1-6.8-8.7-8.9
		c-6.9-4.1-15.7-6.2-25.9-6.2c-13.4,0-25.7,4-36.7,11.9l-0.1,0.1c-2.2,1.6-4.1,3.4-5.7,5.2c-3-4.9-7.3-8.9-12.9-12
		c-8.5-4.7-18-7-28.2-7c-12.6,0-23.5,3.3-32.5,9.8c-9.1,6.5-13.7,15.9-13.7,27.7c0,2.9,0.3,5.8,0.8,8.6h-34.2v52.7
		c-0.3,0-0.6,0-0.9,0c-0.3,0-0.7,0-1,0c-0.2-0.2-0.5-0.5-0.7-0.7l-0.6-0.6l-1.6-1.4c-3.9-3.4-10.3-8-20.3-8.8
		c-1.6-0.2-3.5-0.3-4.7-0.3c-1.7,0-3.3,0.1-4.7,0.2c-6.5,0.6-11.6,2.1-16.6,4.8c-0.2,0.1-0.3,0.2-0.5,0.2c-0.1,0-0.2,0.1-0.3,0.1
		c-0.6,0.3-1.1,0.7-1.6,1c-0.1,0-0.2,0.1-0.2,0.2c0-0.1-0.1-0.2-0.1-0.4c-1-4.5-4.8-4.5-8.5-4.6c-1.8,0-4.4,0-7.5,0
		c-5.2,0-11.7,0-18.1,0c-6.1,0-12.1,0-16.7,0h-4.1l-1.7,2.9c-0.4,0.7-0.7,1.4-1,2c-0.1,0-0.1-0.1-0.2-0.1c-1-0.5-2.1-1-3.4-1.4
		c-2.5-0.8-5.2-1-7.1-1c-2.4,0-4.8,0.3-6.7,0.8c-6.7,1.4-12.2,4.9-16.4,10.4c-0.5,0.7-0.9,1.3-1.2,1.7c-0.1,0.2-0.2,0.4-0.3,0.5
		c-0.6,0.9-0.9,1.5-1.2,2.1l-0.1,0.1c-0.5,1-0.7,1.8-0.9,2.4c-0.1,0.2-0.1,0.4-0.2,0.6l-0.1,0.4l-0.1,0.4c-1,4-1.8,10.3-0.9,15.9
		c0.7,4.3,2,8.1,4,11.5c-0.5,0.7-1,1.4-1.6,2.2c-2,2.6-4.5,5.9-4.9,10.3c-0.2,2.1,0.2,4.3,0.6,6.4c0.1,0.4,0.1,0.8,0.2,1.2
		c0.3,1.9,0.7,3.8,1,5.7c1.8,10.1,3.6,20.4,4.4,30.7c-0.4,0-0.7,0-1.1,0c-5,0-9,0.4-14.1,1.3c-1.8,0.3-3.2,0.8-4,1
		c-0.2,0.1-0.3,0.1-0.4,0.1c-13.6,4.2-17.4,13.8-18.3,21.2l0,0.3c-0.3,4-0.3,6.9,0,10.1l0,0.3c2.7,20.5,23.1,22.6,34.1,22.8
		c-0.7,1.5-1.5,3-2.1,4.6c-0.3,0.6-0.4,1.1-0.5,1.4c0,0.1,0,0.2-0.1,0.3c-2.3,6.7-4.3,15.8-0.6,21.1c2.4,3.4,7,5,14.9,5
		c2.3,0.1,4.6,0.1,7.2,0.1c2.1,0,4.1,0,6.3-0.1c5.8-0.1,10.9-0.3,14.6-1.7c7.5-3,10.2-10.5,12.2-16.1c0.2-0.5,0.4-1,0.6-1.5
		c1.5-4,3.5-7.1,6.2-9.4c0.6,4.6,2.1,9.2,4.2,12.5l0.6,1.2l1.8,2.4c4.1,4.6,7.1,7,12,9.3c1.2,0.6,2.5,1.1,3.5,1.5
		c4.9,1.8,8.9,3,15.1,3.7c3.8,0.5,6,0.7,10.3,0.8c0.8,0,1.6,0,2.4,0.1c1.6,0,3.2,0.1,5,0.1c0.7,0,1.5,0,2.3,0
		c3.6-0.1,6.8-0.4,10.2-0.8c2.5-0.3,6-1.2,7.9-1.7c3.1-0.8,4.6-3.3,5.6-5.2c2.4-4.3,4.7-9.6,6.5-15c1.2,5.8,4.4,10.9,9.4,15
		c5.1,4.3,11.4,6.4,18.5,6.4c6.1,0,11.4-1.4,16-4.2c2.3-1.4,4.2-3.1,5.7-5.1c0.2-0.3,0.4-0.6,0.6-0.9c0.8,1,1.7,2,2.8,3
		c5.3,4.8,12.1,7.3,20.3,7.3c8.2,0,15.5-2.5,21.9-7.3c3.3-2.5,5.9-5.4,7.7-8.5c0.6,3.5,1.7,6.3,3.2,8.4c3.4,4.7,8.8,7.1,16.2,7.1
		c3.7,0,7.2-0.9,10.5-2.7c0.6,0.7,1.2,1.1,1.6,1.4c1.5,0.9,3.3,1.3,5.8,1.3c3.7,0,7.6-0.5,11.5-1.4c2.8-0.6,5.2-1.5,7.1-2.5
		c2.5,2.2,7,3.8,14.6,3.8c5.6,0,9.7-0.5,12.7-1.5c1.3-0.4,2.3-0.9,3.2-1.5c0.7,0.6,1.6,1.1,2.6,1.5c2.4,1,5.7,1.5,10.5,1.5
		c6.5,0,10.9-0.4,13.7-1.4c3.7-1.2,6.1-3.7,7-6.9c0.8,1.1,1.7,2.2,2.7,3.2c3.8,3.6,8.8,5.4,14.8,5.4c6,0,11.4-1.6,15.9-4.7
		c1.2,1.2,2.7,2.2,4.6,2.8c3.2,1.1,7.5,1.6,13.2,1.6c5.7,0,10-0.3,13.1-1c2.5-0.5,4.6-1.7,6.3-3.4c1.8-1.9,2.8-4.4,2.8-7
		c0-2.1-0.7-7-7.2-9.3c-0.1-0.8-0.1-1.9-0.2-3.6c1.6,0.6,3.3,0.9,5.2,0.9c4.1,0,7.7-1.4,10.6-4.1c1.3-1.2,2.3-2.6,3.2-4.2
		c0.2,0.3,0.3,0.7,0.5,1.1l7.3,15.5c-0.6-0.1-1.2-0.1-1.9-0.1c-3.6,0-6.8,1.4-9.3,4c-2.4,2.5-3.7,5.8-3.7,9.4c0,4.3,1.7,8.1,5,10.9
		c3.7,3.1,8.3,4.7,13.9,4.7c6.7,0,12.5-2.3,17.2-6.8c2.2-2.1,4.1-4.6,5.8-7.4c1.6-2.7,3.1-6.1,4.6-10.2l5.6-15.3
		c1.8-4.9,3-7.1,3.7-8.2c0.1-0.1,0.2-0.2,0.4-0.3c2.5-0.9,4.2-1.9,5.5-3.2c1.6-1.7,2.5-4,2.5-6.5c0-0.3,0-0.8-0.1-1.2h1.6V221
		l31.9,0l0.1-45.6h-5.8C595.1,175.5,576.7,175.5,574.5,175.5z M205.7,264c0.5,0,0.8,0,1.1,0c1.1,0,2.1,0,3.2,0
		c-1.6,1.6-3.1,3.3-4.3,5.1C205.8,267.4,205.8,265.7,205.7,264z M516.7,175.7h-3.1c-2.2,0-4.6,0.1-7.2,0.1c-2.5,0.1-5.2,0.1-7.5,0.1
		c-1.4,0-2.5,0-3.5-0.1l-0.1,0c-1,0-2.7-0.2-4.4-0.6c-1.1-0.3-3-0.8-3.4-6.1l0-0.1l0-0.3c-0.1-0.9-0.2-1.4-0.1-2.5c0,0,0-0.7,0-0.9
		h29.3C516.6,168.6,516.6,172.1,516.7,175.7z M382.1,173.1c0,0.9,0,1.8,0,2.8h-10.6v-6.4c0.5-1.8,1.5-3.2,4.4-4.1
		c1-0.1,2.2-0.1,3.9-0.1c0.8,0,1.6,0,2.4,0C382.1,167.8,382.1,170.5,382.1,173.1z M319.3,206.2v32.5c-2.7-5-5.2-9.7-5.6-10.5
		c-0.7-1.4-2.1-4.1-3.7-7c-2-3.8-4.2-8-5-9.7c-0.2-0.4-0.6-1.2-1-2.1c-0.4-0.7-0.8-1.5-1.2-2.4c1.5-0.7,2.9-1.6,4.2-2.4l0.8-0.5
		c5.3-3.2,8.7-7.2,11.1-11.1C319,197.6,319.2,202,319.3,206.2z M290,71.3c0,0-0.1,0-0.2,0c-0.5,0-1.7,0-3.5-2.6
		c-1.7-2.5-2.5-5.5-2.5-9.1c0-1.5,0.4-2.2,0.7-2.6c0.3-0.3,0.3-0.4,0.5-0.4c0.3,0,0.8,0.1,1.5,0.9c0.6,0.7,1.6,2.3,2.6,5.4
		c0.9,2.6,1.3,4.8,1.3,6.7C290.4,70.4,290.3,71,290,71.3z M276.4,100.8c-0.3,0.6-0.7,1.3-1.2,2c-2,3.2-4.4,5.7-7.1,7.5
		c-3.3,2.2-6.7,5-6.7,9c0,4.4,3.7,7.5,8.1,10c0.1,8.5,0.2,25.4-0.1,34.9c-0.1,1.3-0.5,1.9-0.6,2.2c-1.9,0.2-3.8,0.3-6.1,0.3
		c-0.7,0-1.5,0-2.2,0v-0.2c0-14.8,0-30.6-0.1-46.1c0-7.4,0-14.8,0-21.9c4,1.7,8.6,2.6,13.6,2.6C275.1,100.9,275.9,100.9,276.4,100.8
		z M260.4,251.5c0-4.2,0-9.4,0-13c0.3,0.5,1.2,2.3,1.2,2.3c4.1,7.7,6.8,12.7,8.6,16c-3.5,0.9-6.8,2.3-9.8,4.3v-2
		C260.5,258.2,260.4,255.2,260.4,251.5z M369.8,220.3l12.9,0l0.1,35.8c-1.3,0.2-3,0.5-5.2,1.1c-2.5,0.7-5.1,1.5-7.8,2.4L369.8,220.3
		z M435.3,123.9c0,0.8,0.2,77.9-0.2,124.5l-1.5,0.7l0.1-126.2c0.5-0.1,1.1-0.2,1.6-0.3L435.3,123.9z M451.3,101.5
		c0-1.2-0.1-2.3-0.2-3.4c3.5,1.2,7.4,1.8,11.7,1.8c1.1,0,1.8,0,2.4-0.1c-0.3,0.6-0.7,1.3-1.2,2c-2,3.2-4.4,5.7-7.1,7.5
		c-3.3,2.2-6.6,4.9-6.7,8.8l-6.6,0c0.3-0.3,0.7-0.6,1-0.9C449.1,113,451.3,107.7,451.3,101.5z M478.7,70.3c0,0-0.1,0-0.2,0
		c-0.5,0-1.7,0-3.5-2.6c-1.7-2.5-2.5-5.5-2.5-9.1c0-1.5,0.4-2.2,0.7-2.6c0.3-0.3,0.3-0.4,0.5-0.4c0.3,0,0.8,0.1,1.6,0.9
		c0.6,0.8,1.5,2.3,2.6,5.3c0.9,2.6,1.3,4.8,1.3,6.7C479.1,69.4,479,70,478.7,70.3z M413.7,117.3c0.3,0.2,0.5,0.4,0.8,0.7
		c-2.9,0-6,0-9.2,0c1.6-1.9,2.9-4.1,4-6.4C410.5,113.6,411.9,115.5,413.7,117.3z M335.9,70.3c3,0,5.6-0.9,7.7-2.6
		c4.8-4.1,6.1-4.9,6.3-4.9c0,0,0.6-0.2,2.2-0.2c1,0,1.2,0.3,1.3,0.3c0.2,0.2,0.4,0.7,0.4,1.5c0,0.9-0.3,3-2.5,6.7
		c-4,6.8-10.4,14.3-18.9,22.3c-6.6,6.3-8.3,8-9,8.9c-1.8,2.1-2.7,4.5-2.7,7.1c0,1.6,0.6,9.3,12,9.3h21c-13.4,1.5-23.4,9.6-29,23.1
		c0-9.5-0.1-17.2-0.1-18l0-5.7l-16.4,0c4.9-5.4,9.3-11.6,13.3-18.4c6-10.2,9.5-20.2,10.4-29.8C333.3,70.1,334.5,70.3,335.9,70.3z
		 M206.7,208.6l0,12.3c-0.5-4.5-1-8.5-1.5-11.9C205.5,208.9,206.5,208.6,206.7,208.6z M252.6,264.1c1.4,0,2.2,0,2.2,0h1.5
		c-0.8,0.7-1.5,1.5-2.2,2.3C253.6,265.6,253.1,264.8,252.6,264.1z M457.7,284.9c-1.4,0-2.8,0.4-4.1,1.1c-0.1,0-0.1,0.1-0.2,0.1v-9.9
		h3.9c0.6,0,1.1-0.1,1.6-0.1c0.7,0.7,1.6,1.4,2.7,2c0,3.3-0.1,5.9-0.2,7.8C460,285.1,458.6,284.9,457.7,284.9z M497.8,256
		c-2.4,0-5.4,0.5-8.4,2.4c-0.6-0.6-1.2-1.1-1.9-1.5c0-6.7,0-19.1,0.1-21.8c0.1-2.9,0.1-8,0-12.9c0-0.3,0-0.7,0-1h29.2
		c0,16.4,0,29.9,0,35.4c-0.7,0.1-1.4,0.2-2.1,0.3c-3.2,0.6-5.5,1.5-7.3,2.6C504.8,257.2,501.5,256,497.8,256z M422.3,291.9
		c0,0-0.8-15.1-0.8-15.1c0-0.4-0.1-0.8-0.1-1.2c0.4,0,0.7,0,1.1,0h0v15.2c0,0.5,0,0.9,0.1,1.4C422.5,292.1,422.4,292,422.3,291.9z"
		/>
</g>
<g id="blues">
	<path fill-rule="evenodd" clip-rule="evenodd" fill="#2D499F" d="M323,257.7c-0.6-1.2-13.4-25-14.4-26.9
		c-1.6-3.2-7.3-13.8-8.8-16.8c-0.7-1.5-3.4-6.5-4.8-10c0.1,0.3,2.7-0.9,3.8-1.5c2-0.8,4-2,6-3.3c5.1-3,8.1-6.9,11-12.3
		c1.1-2,2.7-5.4,2.9-9.2c0.4-9.2,0.2-53.9,0.2-53.9l-25,0.1c0,0-3,2.4-3.7,2.9c-0.7,0.4-3.1,2.1-5.3,2.1c-2,0-4.2-0.6-5.8-1.2
		c-1.6-0.6-3.8-1.7-3.8-1.6c0,5.4,0.3,27.6,0,38.6c-0.3,4-2.2,7.2-5.6,7.6c-5.1,0.6-9.4,0.3-14.2,0.3c0,0-0.3,0,0,0
		c-0.3,0-0.7,0-0.7-0.3c0-1.2,0-3.8,0-5.6c0-25.5-0.1-79.1-0.1-79.1s-1.7-1.7-3.8-5c-1.4-2.1-2.6-5.1-2.6-5.1s-24,0-35.9,0
		c-0.1,0-0.1,0-0.2,0c0,17.8,0,35.5,0,53.3c0.1,0,1,0.2,1.5,0.3c0.8,0.2,2.8,0.5,2.8,0.5c1.6,0.3,2.9,0.7,4.1,1.1
		c1,0.4,3.6,1.4,4.4,1.8c11.5,4.9,17.7,15.6,18,27.1c0,6.6-1.5,13.3-5.4,19.4c-4.1,6.5-10.9,11.8-17.5,15.7
		c-2.8,1.6-7.6,3.9-7.9,4.7l0,16.3c0,4.8,0,17,0,17.5c0,0.2-2.9-0.4-5.5-0.5c-15.2-0.1-22.7,2.8-34.3,7.7c-2.1,0.9-5.8,2.9-7.7,3.9
		c-0.4,0.2-1,0.5-1.2,0.8c-0.2,0.3-0.3,0.4-0.5,0.9c-4.4,9.2-12,17.8-18.9,21.7c-5.4,3.1-11,4.3-17.5,5.2c-3.8,0.5-5.8,0.4-5.8,0.4
		s-0.2,0.9-0.1,3.2c0.3,4.4,1.7,9,3.6,11.9c0.3,0.6,1.8,2.7,1.8,2.7c3.7,4.2,6.1,6,10.1,7.8c1.1,0.5,2.2,1,3.1,1.3
		c4.6,1.7,8.1,2.7,13.8,3.4c3.8,0.5,5.8,0.7,9.7,0.7c3.1,0.1,5.9,0.2,9.5,0.1c3.3-0.1,6.4-0.4,9.6-0.8c1.9-0.2,4.9-0.9,7.1-1.5
		c0.8-0.2,1.3-1.1,2.1-2.5c3.7-6.4,6.9-15.5,8.3-22.7c1.4-7.4,1.2-10.6,1.1-15.8c0-0.8-0.3-3.1,0.1-3.5c3.2-0.7,8.8-0.4,13.3-0.4
		c0,0,40.9,0.1,41,0.1c0-2.4-0.1-22.6-0.1-24.6c0-1.3-0.3-17.4-0.2-18.7c0,0-0.1-0.8,0.2-0.5c-0.1-0.1,10.3,19.6,11.4,21.5
		c0.3,0.6,11.6,21.8,12.1,22.2l45.3,0.1C323.6,258.7,323.3,258.4,323,257.7 M171.5,266.6c0.3,0.4,1.1,1.4,1.4,1.8
		c-0.1-0.1,1.2-0.3,1.9-0.6c2.4-1,5.8-1.8,7.7-2.8c0.3-0.2,1.4-0.7,1.7-0.7c0.3,0-0.2,0.5-0.5,0.9c-1.2,1.6-4.6,6.1-6.1,8.1
		c-0.2,0.2-0.7,0.9-0.9,1.2c-0.2,0.2,0.4,1.9,0.7,2.5c0.7,1.7,3,6.4,4.1,9.4c0.1,0.3,0.5,0.9,0.4,1.1c0,0.2-3.7-1.1-4.2-1.2
		c-1.9-0.4-3.7-0.9-5-1.3c-0.8-0.2-1.9-0.5-2.4-0.7c-1.3-0.4-1.8-0.5-2.4,0.1c-0.2,0.2-0.5,0.6-0.7,0.7c-1.3,1.3-5.4,5.2-7.4,7
		c-0.7,0.7-1.2,1.1-1.3,1.2c-0.2,0-0.2-0.5-0.2-1.4c0.1-0.7,0.2-1.8,0.3-2.4c0.1-0.9,0.7-3.5,1-5.6c0.1-0.7,0.2-1.4,0.4-2.1
		c0.2-0.8-0.4-0.7-1.2-1c-2.1-0.7-3.5-1.4-5.6-2.1c-0.6-0.2-1.5-0.5-2.1-0.9c-0.2-0.1,2.2-0.9,2.7-1.1c2.4-1,3.6-1.6,7.8-3.4
		c0.7-0.3,1.5-0.4,1.7-1.2c0-0.2,0.4-1.1,0.4-1.3c1-2.7,1.9-6.1,2.8-9.5c0.1-0.3,0.1-0.5,0.4-0.6c0.3,0.1,0.5,0.4,0.8,0.8
		c1.3,1.5,1.6,2.3,2.5,3.6L171.5,266.6z M254.3,236.2c0-0.5,0-1,0-1.5C254.3,235.2,254.3,235.7,254.3,236.2z"/>
	<path fill-rule="evenodd" clip-rule="evenodd" fill="#2D499F" d="M522.3,123.7c0,0,0.2,130.7,0.2,135.4c3.8,0,40.9,0,40.9,0v-43.9
		l31.9,0l0-34c0,0-19.3,0-21,0c-7.4-0.3-10.2-4.4-10.7-11.7c-0.1-1.9-0.1-8.9-0.1-10c1.8,0,32.4,0.1,32.4,0.1l0-35.7L522.3,123.7z"
		/>
	<path fill-rule="evenodd" clip-rule="evenodd" fill="#2D499F" d="M513.7,159.5c0-11.9,0-35.8,0-35.8l-32.3,0.1c0,0-4.3,3.8-7.7,3.9
		c-4.3,0.1-11.5-3.9-11.5-3.9l-21.2,0.1l-0.1,127.7c0,0,0.6-0.3,1.3-0.3c0.9,0,2.2,0,4.2,0c0.6,0,1.4,0.3,1.4,1.4c0,1.1,0,6.4,0,6.4
		l34,0l0.1-43.7c0,0,21.2,0,31.8,0c-0.1-7,0-31-0.1-34c-5.6,0-13.3,0.4-18.4,0.2c-1.6,0-3.8-0.3-5.7-0.8c-5.1-1.3-7.3-5.4-7.7-11.4
		c-0.1-1.1-0.2-1.9-0.2-3.5c0-2.3,0-4.5,0.2-6.5C492.4,159.5,503,159.5,513.7,159.5z"/>
	<path fill-rule="evenodd" clip-rule="evenodd" fill="#2D499F" d="M428.2,123.8c-18.2-0.1-56.8-0.2-71.2,0.3
		c-20,0.7-28.3,17.5-30.6,33.5c-2.2,14.3-2,32.5-1.3,48.5c0,0.4,0,53,0,53H364l0-44.5l24.4,0l0.1,44.5l39.6,0.1L428.2,123.8z
		 M387.8,181.6c-7.4,0-14.8,0-22.1,0c0-4.3,0-8.6,0-12.9c1.1-5,4.3-7.7,9-9c3.8-0.5,9.4,0,12.9-0.2
		C388.1,166.5,387.7,174.3,387.8,181.6z"/>
	<path fill-rule="evenodd" clip-rule="evenodd" fill="#2D499F" d="M197.9,125.8c-4.4-3.8-9.6-6.9-17.1-7.4c-2.2-0.3-5.8-0.3-8.2,0
		c-6.3,0.6-10.7,2-14.6,4.2c0,0,0,0,0,0c-0.1,0-0.1,0-0.1,0.1c-0.1,0.1-0.2,0.1-0.3,0.2c-2.6,1.5-4.3,3.5-7.4,1.3
		c-1.7-1.2-2.5-2.3-3-4.4c0-0.1-30.2,0-45.2,0c-0.3,0-0.5,0-0.8,0c-1.2,2-1.4,5.2-3.7,5.6c-2.6,0.4-5.1-1.7-7.6-2.4
		c-3.1-1-7.9-0.9-10.6-0.1c-6.1,1.2-10.2,4.4-13.2,8.3c-0.6,0.8-0.9,1.4-1.4,2.1c-0.4,0.6-0.5,0.8-0.8,1.4c-0.5,1.1-0.6,1.7-1,2.7
		c-1,3.9-1.4,9.3-0.8,13.6c0.7,4.2,2,7.6,3.8,10.5c0.4,0.5,0.4,0.8,1,1.5c0.7,1.1,3.7,4.5,4.6,5.1c0.4,0.3,0.9,0.8,1.1,0.9
		c0.9,0.8,1.2,1,2.1,1.6c0.2,0.2,0.6,0.4,0.8,0.5c0.6,0.4,1,0.6,2.4,1.3c1.1,0.5,2.1,0.9,3.5,1.3c0.8,0.2,2.2,0.5,3.1,0.6
		c0.9,0.2,2.9,0.4,3.8,0.4c1.7,0.2,5,0.1,8.6-0.2c1.8-0.1,3.1-0.2,5.2-0.6c1.1-0.3,2.1-0.4,3-0.6c9.5-2.6,13-4.6,19.1-8.2
		c0.8-0.5,1.9-1.3,2.7-1.8c8.2-5.4,14.8-12.8,21.5-19.8c1.3-1.3,1.9-2,2.9-2.9c1.6-1.4,2.1-2,3.7-3.4c0,0,0.7-0.6,0.7-0.6
		c2.4-2.2,5.1-4.3,7.9-6.2c0.8-0.4,1.5-0.8,2.5-1.4c1.2-0.5,2-0.9,3.1-1.3c1.4-0.5,2.1-0.7,3.8-1c0.6-0.1,1.3-0.2,2.3-0.3
		c1,0,1.5,0,2.5,0c1.4,0.1,2.6,0.4,4.1,0.9c0.7,0.2,1.3,0.5,1.9,0.8c1.7,1.1,3.6,2.7,5.1,4c0.1,0.2,2.3-0.5,2.8-0.5
		c1.1-0.2,2.9-0.4,5-0.6c2.6-0.3,5.3-0.5,5.3-0.4c-0.7-1.3-1.2-1.8-2.6-3.2L197.9,125.8z M136.1,143.2c-0.1,0-0.1,0-0.2,0
		c-2.1,0-4.1,0-6.2,0c-0.1,0-0.1,0-0.2,0c-0.3,0-0.5,0-0.8,0c0.1-0.3,0.3-0.5,0.4-0.8c0.6-1,1.1-2.2,1.7-2.6
		c0.3-0.2,0.5-0.2,0.7-0.2c0.8,0,1.2-0.4,1.4-0.6c0.5-0.5,0.9-1.8,0.7-2.8c-0.1-0.6-0.4-1-0.7-1.5c-0.6-0.8-1-1.4-2.8-1.5
		c-0.3,0-1,0.1-1.4,0.3c-0.6,0.3-1.4,1.3-1.7,1.8c-0.3,0.6-0.3,1.4-0.3,1.6c0.1,0.4,0.1,0.5,0.4,0.8c0.4,0.5-0.4,1.3-0.6,1.3
		c-0.2,0-0.3-0.5-0.5-0.9c-0.2-0.4-0.4-0.6,0-1.2c0.3-0.3,0-1.2-0.1-1.6c-0.3-0.6-0.8-1.1-0.8-1.1c-0.8-0.8-1.8-0.6-2.5-0.6
		c-0.5,0-0.9,0.1-1.7,0.6c-0.5,0.3-0.6,0.5-1,1c-0.1,0.1-0.4,0.6-0.6,1.3c-0.1,0.5,0.1,1.4,0.3,1.8c0.5,1,1.1,1.4,1.5,1.6
		c0.6,0.3,0.9-0.3,1.3,0c0.3,0.3,0.8,1,1.3,1.8c0.4,0.6,0.7,1.2,0.7,1.2c-8,0-15.9,0-23.9,0c0.1-2.4-0.2-5.3,0.2-7.3
		c0-0.2,2-2.4,3.3-3.3c0.3,0,0.5,0,0.8,0c0.5,0.2,1,0.5,1.7,0.7c0.7,0.2,1.4,0.6,2.3,0.8c0.9,0.2,7.1,0.7,9.5-0.4
		c0.8-0.4,1-0.4,1.6-0.8c0.9-0.6,3.6-2.9,4.7-4.3c0.3-0.4,0.5-0.8,0.9-1.3c0.2-0.2,4.2-0.1,5.3-0.1c3.7,0,5.9,0,8.5,0
		c0.4,0,0.8,0.3,0.8,0.4c0.8,0.7,1.5,1.4,2.3,2.1c0,0.2,3.2,2.6,3.8,2.7c-0.1,0.4-4.5,4.5-5.4,5.5
		C139.6,138.9,136.5,143,136.1,143.2z M113.8,128.3c-1,0.2-1.6,0.1-2.5,0c-1-0.2-1.8-0.7-2-1.1c1.2,0,6.2,0,7.1,0
		C115.7,127.9,114.7,128.1,113.8,128.3z M74,157.3c-4.4-6.9-3.1-19.1,1.8-23.3c2.6-2.2,5.6-3.2,9.1-3.3c1,0,2.9,0.1,4.1,0.4
		c0.6,0.1,1.9,0.7,2.2,0.8c1.1,0.4-0.8,1.6-0.8,2.8c0,1.7-0.1,18.3,0,18.3c4,0,34.5,0.2,34.6,0c-0.7,0.9-1.3,1.3-2.3,2.1
		c-1.7,1.3-2.8,1.7-3.9,2.5c-0.8,0.6-1.2,0.9-2,1.4c-0.9,0.5-1.9,1-2.6,1.3c-5.1,2.4-10.2,4.8-15.4,5.4c-2.5,0.3-5,0.4-7.9,0.2
		c-2.5-0.1-7.1-1-11.1-3.3c-1.7-0.9-4.4-3-5.6-4.7L74,157.3"/>
	<g display="none">
		<g display="inline">
			<path fill="#2D499F" d="M147.1,275.1c2.2,0,4.2-4.4,1.4-4.4C146.3,270.7,144.3,275.1,147.1,275.1L147.1,275.1z"/>
		</g>
	</g>
</g>
<g id="reds">
	<g>
		<path fill="#ED1E24" d="M172.5,219.3c-0.7-2.3-6.4-1.7-8.5-0.8c-2.6,1.1-3.8,2.8-5,5c-0.5,0.8-0.6,1.1-1.1,2.1
			c-1,2.2-2.1,4.6-3,7.3c-1,3-1.9,6.1-2.9,8.9c-4.7,12.6-13.5,21.5-31.2,21c5-3.1,9.1-13.1,4.4-19.6c-0.3-0.4-0.7-0.9-1.2-1.3
			c-0.2-0.2-0.4-0.3-0.6-0.5c0,0,0,0,0,0c-0.2-0.1-0.4-0.3-0.7-0.3c-0.1,0-0.2-0.1-0.3-0.1c0.1,0,0.1,0,0.2,0
			c-1.1-0.5-2.3-0.6-3.3,0.4c-1,1-0.4,3.9-0.6,5.8c-0.2,2.1-1.1,4.9-1.9,6.2c-5,8.1-18.8,9.6-33.4,9.7c1,0,2,0,3,0
			c-1.4,0-2.7,0-4.1,0c0.4,0,0.7,0,1.1,0c-2.3,0-4.7,0-7,0c-5-0.1-9.9-0.2-14.5-0.2c-3.9,0-10.9-0.2-12-0.3
			c-1.2-0.1-3.1-0.5-2.8-0.4c-1.4-0.3-2.7-0.8-3.8-1.3c-4.4-2.2-6.8-7.6-6-14.1c0.6-4.7,4.2-9.9,9.4-11.7c1-0.3,1.7-0.6,2.5-0.7
			c2.1-0.3,6.8-0.3,10.3-0.4c1.4,0,9.1,0,13.3,0.2c0.7,0,5.6,0.1,6.8,0.4c2.8,0.6,7.7,3.5,11.6,6.1c0.2,0.2,1.2,0.7,1.4,0.8
			c5.4,3.6,12.5,3.4,15.9-0.8c0.3-0.4,1.1-1.6,1-2.5c-0.4-2.4-4.7-1.7-7.5-1.9c-10.2-0.8-16.5-10.8-26.6-11.2c-0.1,0-0.2-1.7-0.3-3
			c-0.5-4.7-5.6-35-6.8-43.3c-0.2-1.6-0.2-2.3,0-2.9c0.1-0.4,0.4-0.9,0.6-1.1c1.8-1.8,4.1-2.2,5.8-4.2c-0.5-0.2-2.8-2.2-3.9-3.1
			c-1-1-3.5-4-4-4.6c-1.3,4.9-6.9,8.4-7.3,13.5c-0.1,1.7,0.4,4.1,0.8,6.2c2.4,14.1,5.3,28.8,5.8,43.3c-8.7-0.4-13.4-0.2-20.2,1
			c-1.8,0.3-3,0.8-3.7,1C34.4,230,29,234.9,28,243.9c-0.2,3.3-0.3,6.1,0,9.2c2.2,16.5,19,18.5,38.5,17.7c-2.5,4-4.9,8-6.9,12.7
			c-0.2,0.5-0.2,0.8-0.4,1.3c-0.8,2.2-3.9,12.1-1.3,15.8c1.4,2,5.9,2.6,10.4,2.6c4.7,0.2,8.7,0.1,13.3,0.1c4.7-0.1,9.7-0.2,12.5-1.3
			c5.7-2.3,7.6-9,9.5-14.2c3.4-9.1,9.5-15.2,19.8-17.3c5.8-1.2,12.7,0.3,19.4-2.3c9.6-3.7,15.4-16.4,18.9-26.2c1-2.7,3-9.4,4.9-12.1
			c0.8-1.2,1.7-2.4,2.6-3.6C170.2,224.6,173.1,221.4,172.5,219.3 M103.5,270.9c-2.5,1.6-4.3,4.1-5.7,6.7c-1.2,2.3-2.9,5.1-3.9,7.5
			c-1,2.3-2.3,5-3.3,6.8c-0.1,0.3-0.6,1.1-0.8,1.4c-0.4,0.7-0.5,1.2-1.1,1.7c-0.5,0.3-1.3,0.5-5,0.6c-7.6,0.2-10.9,0.2-17.2-0.3
			c-0.3,0-0.6-0.2-0.7-0.4c-0.9-1.3,0-4,0.4-5.2c1-2.7,2-4.9,3.1-6.9c1.5-2.8,3.1-5.1,5.3-8.3c0.1-0.2,0.5-0.8,0.7-1
			c0.6-0.9,1.3-1.7,1.6-2c0.1,0,5.5,0,5.5,0c0,0-0.6,0.9-1.7,3.1c-0.4,0.7-1.5,2.8-1.9,5c0,0,0,0,0,0c0,0-0.1,1.1-0.1,1.4
			c0,0.5,0,0.9,0.1,1.4c0,0,0.1,0.4,0.1,0.5c0.3,1,0.5,1.7,1.3,2.2c0,0,0.5,0.3,0.8,0.3c0.7,0.1,1.2,0.3,2.2-0.5
			c0.4-0.3,0.6-0.5,0.8-0.8c0.2-0.3,1-1.1,1.1-1.3c1.8-2.8,6.5-8,7.8-9.2c0.7-0.7,2.4-2.6,2.9-2.6c0.1,0,0.1,0,0.2,0
			c2.2,0,4.4,0,6.5,0C102.8,270.9,103.2,270.9,103.5,270.9C103.6,270.9,103.6,270.9,103.5,270.9"/>
		<path fill-rule="evenodd" clip-rule="evenodd" fill="#ED1E24" d="M212.8,153.6c1.6,0.3,5.8,2.6,9.5,1.8c1.4-0.3,3.2-2.3,3.1-3.8
			c-0.2-2.5-5.2-3.9-8.1-4.6c-5-1.2-9.9-1.5-14-1c-12.7,1.6-25.7,5.3-35.8,9.8c-2.9,1.3-8,4.1-7.3,8.1c0.7,3.8,6.9,5.7,10.6,6.4
			c0.9,0.2,1.4,0.1,2,0.2c4.5,0.3,7.3-0.5,10.3-1.4c0.4-0.1,0.9-0.3,1.5-0.5c5.2-2.5,7.7-4.4,7.3-11.2c3.7-1.3,6-2.2,10.9-3.3
			C205.1,153.4,210.5,153.2,212.8,153.6z"/>
		<path fill-rule="evenodd" clip-rule="evenodd" fill="#ED1E24" d="M90.7,247.1c-0.1-2.7-4.2-6.5-14.5-7.5c-7.1-1.1-14,0.5-12.5,6.9
			c2.6,3.5,11,3.8,13.6,1.2c0.3-0.3,1.4-1.4,1.4-1.3c1.2-1,3.5,0.2,5.5,1.3c2.2,1.2,4.3,1,5.4,0.7C90.2,248.2,90.7,247.5,90.7,247.1
			z"/>
		<path fill-rule="evenodd" clip-rule="evenodd" fill="#ED1E24" d="M99.2,229.6c9.2,0.4,18.3,0.4,26.6,0
			c10.4-0.5,18.4-6.2,21.6-13.9c0.7-1.6,0.9-3.3,1.1-4.9c0,0,0,0,0,0c0,0,0,0,0,0v0c0,0,0,0,0,0c0.2-0.9,0.4-1.8,0.5-2.8
			c0.3-0.9,0.6-1.8,1.2-2.7c0.8-1.2,4.2-2.6,4-4.6c-0.1-1.5-2.4-2.1-3.3-3.1c-1.6-1.7-2.7-3.9-4.4-5.8c-5.6-5.9-15.2-9.6-26.9-6.8
			c-1,0.2-1.8,0.5-2.7,0.8c-11,4.4-15.2,15.3-17.4,28.5c-0.1,0.3-0.2,0.6-0.4,1.4c-0.5,1.3-0.7,2.9-1.5,4.4
			c-0.9,1.6-5.1,5.2-4.8,7.1C93.1,228.8,96.3,229.4,99.2,229.6z M117.5,195c0.7-0.4,2-1,3.2-1.3c-0.5,1.1-1,2.2-1.4,3.3
			c-0.2,0.4-0.5,1-0.8,2c-0.5,1.5-0.5,1.6-0.8,3.3c-0.5,3.3-0.5,8.1-0.2,11.2c0,0.1,0.1,0.9,0.3,1.8c0.4,1.5,0.8,2.5,1.4,3.7
			c0.2,0.5,0.4,1,0.5,1.3c0.5,1.1,1.1,1.5,1.6,2.6c-0.9-0.2-1.3-0.5-2-0.7c-1-0.6-2.8-1.8-3.2-2c-1-0.8-2.1-1.9-2.6-2.6
			c-0.3-0.5-1-1.6-1.3-2.1c-0.4-1.3-0.7-2.8-0.8-4.5c-0.1-2.2-0.2-3.1,0-5.4c0.2-1.6,0.5-2.6,0.8-3.4c0.4-1,0.9-2.2,1.4-3.2
			C114.4,197.6,115.9,195.9,117.5,195z"/>
		<path fill-rule="evenodd" clip-rule="evenodd" fill="#ED1E24" d="M243.1,162.1c0-12.4-6.8-23.5-18.6-28.4
			c-1.6-0.8-3.6-1.6-5.9-2.2c-2.3-0.7-6.1-1.2-6.1-1.3c-2.9-0.3-7.7-0.5-11.1-0.2c-5.1,0.3-8.4,0.8-11.3,1.4c-0.1,0-1,0.3-1.1,0.3
			c-15.6,4.5-28.9,11.4-42.5,18.1c-1.6,0.8-5,2.3-4.8,4c0.2,2,4.7,2.9,8.1,2.5c4.2-0.5,8.4-2.9,12.3-4.6
			c11.8-5.3,24.4-10.9,38.4-12.9c2.8-0.4,9.1-0.8,13.2-0.2c5.8,0.9,11.6,3.6,15.6,7.7c6,6.3,7.7,19.7,2.3,28.9
			c-2.2,3.7-4.3,6.3-6.2,8.1c-0.7,0.7-3.9,3.3-5.2,4.2c-4.6,3.3-9.8,5.7-15.9,7.7c-0.8,0.3-2.8,0.9-3.6,1.2
			c-0.6,0.2-0.8,0.3-1.4,0.4c-10.4,2.3-16.7,3-25.6,1.9c-0.5-0.1-1.6-0.2-2.1-0.2c-2.7-0.2-4.2-0.3-5.7-0.4c-0.4,0-0.9-0.1-1.2-0.1
			c-1.7,0-3.4,0.3-3.8,1c-0.5,0.8-0.3,2.2,0.2,3.3c1.2,2.7,6.5,4.6,13.1,5.3c5.1,0.6,10.9,0.2,15.7,0.1c1.4,6.9,2.8,13.8,3.6,21.5
			c0.1,1,0.2,3,0.1,4.5c0,0.4-0.1,1.7,0.1,1.7c1-0.1,5.3-0.9,8.2-0.8c-0.1,0,0-1.5-0.1-3.9c-0.2-11.8-2.4-25.2-2.4-25.2
			s1.6-0.2,3.6-0.8c0.9-0.3,2.2-0.7,2.7-0.9c2.9-1,4-1.4,6.3-2.5c0.1,0,2.6-1.5,3.8-2.2c1.1-0.6,3.1-1.8,3.9-2.2
			c2.3-1.4,4.8-3,7.8-5.2c2.7-2,4.5-3.9,5.6-5c1.4-1.5,1.8-1.9,2.4-2.7c3.6-4.6,5.8-9.7,6.6-12.3c0.9-3.1,1.3-8.3,1.2-8.3
			L243.1,162.1z"/>
	</g>
	<g>
		<path fill="#ED1E24" d="M285.9,31c9.3,0,17.7,2.1,25.4,6.3c10.1,5.6,15.2,14.7,15.2,27.3c0,10.2-3.3,20.8-9.9,32
			c-7.3,12.4-15.9,22.2-25.8,29.6c-2.3,1.7-4.3,2.5-6,2.5c-2.8,0-6.5-1.2-10.9-3.6c-4.5-2.4-6.7-4.3-6.7-5.8c0-1,1.4-2.4,4.1-4.2
			c3.4-2.2,6.3-5.3,8.8-9.2c2.3-3.6,3.4-6.4,3.4-8.6c0-1.8-0.9-2.6-2.8-2.6c-0.7,0-2.2,0.1-4.7,0.4c-0.4,0-1,0.1-1.9,0.1
			c-7.4,0-13.4-2.1-17.9-6.4c-3.4-3.2-6-7-7.9-11.6c-1.9-4.6-2.8-9.4-2.8-14.3c0-9.9,3.8-17.6,11.3-23C264.8,34,274.5,31,285.9,31z
			 M285,50.9c-2,0-3.7,0.8-5,2.5c-1.3,1.7-2,3.7-2,6.2c0,4.8,1.2,8.9,3.5,12.3c2.3,3.5,5.1,5.2,8.3,5.2c1.9,0,3.4-0.7,4.6-2.1
			c1.2-1.4,1.8-3.2,1.8-5.4c0-2.5-0.5-5.3-1.6-8.5c-1.1-3.2-2.3-5.6-3.6-7.2C289.3,52,287.3,51,285,50.9z"/>
		<path fill="#ED1E24" d="M380.1,112.8h-47.4c-4.2,0-6.3-1.2-6.3-3.5c0-1.2,0.4-2.3,1.3-3.4c0.9-1,3.7-3.8,8.6-8.4
			c9-8.4,15.6-16.3,19.9-23.6c2.2-3.7,3.3-6.9,3.3-9.6c0-2.3-0.7-4.2-2-5.5c-1.3-1.4-3.2-2.1-5.4-2.1c-2.1,0-3.8,0.3-4.9,0.9
			c-1.1,0.6-3.6,2.5-7.4,5.7c-1,0.8-2.4,1.3-4,1.3c-2.2,0-4.2-0.8-6-2.5c-1.8-1.7-2.7-3.5-2.7-5.5c0-1.8,0.8-3.9,2.5-6.2
			c1.7-2.3,3.9-4.5,6.6-6.5c10-7.2,21.1-10.8,33.3-10.8c9.3,0,17,1.8,23,5.4c2.7,1.6,4.9,3.9,6.6,6.8c1.7,2.9,2.5,6,2.5,9.2
			c0,8.1-5.6,16.9-16.8,26.4c-4,3.3-6,5.8-6,7.5c0,1.3,0.6,2.4,1.8,3.3c1.2,0.9,2.7,1.4,4.4,1.4c4.1,0,7.7-1.6,10.9-4.7
			c1.6-1.6,2.7-2.5,3.2-2.9c0.5-0.3,1.3-0.5,2.2-0.5c4.1,0,6.1,3.5,6.1,10.4c0,3.5-0.7,7-2,10.6c-1.3,3.6-3.1,6.7-5.4,9.3
			c-2.4,2.8-5.1,4.2-7.9,4.2c-1.2,0-2.1-0.2-2.8-0.7c-0.7-0.5-1.5-1.4-2.4-2.7c-0.8-1.3-1.7-2.1-2.5-2.5
			C383.8,113,382.3,112.8,380.1,112.8z"/>
		<path fill="#ED1E24" d="M429.1,84.9c4.4,0,8.2,1.5,11.5,4.6c3.3,3.1,4.9,7.1,4.9,12c0,4.6-1.6,8.5-4.9,11.6
			c-3.2,3.1-7.1,4.6-11.5,4.6c-4.4,0-8.2-1.5-11.5-4.6c-3.3-3.2-4.9-7.1-4.9-11.8c0-4.8,1.6-8.8,4.9-11.8
			C420.9,86.4,424.7,84.9,429.1,84.9z"/>
		<path fill="#ED1E24" d="M474.6,30c9.3,0,17.7,2.1,25.4,6.3c10.1,5.6,15.2,14.7,15.2,27.3c0,10.2-3.3,20.8-9.9,32
			c-7.3,12.4-15.9,22.2-25.8,29.6c-2.3,1.7-4.3,2.5-6,2.5c-2.8,0-6.5-1.2-10.9-3.6c-4.5-2.4-6.7-4.3-6.7-5.8c0-1,1.4-2.4,4.1-4.2
			c3.4-2.2,6.3-5.3,8.8-9.2c2.3-3.6,3.4-6.4,3.4-8.6c0-1.8-0.9-2.6-2.8-2.6c-0.7,0-2.2,0.1-4.7,0.4c-0.4,0-1,0.1-1.9,0.1
			c-7.4,0-13.4-2.1-17.9-6.4c-3.4-3.2-6-7-7.9-11.6c-1.9-4.6-2.8-9.4-2.8-14.3c0-9.9,3.8-17.6,11.3-23C453.5,33,463.2,30,474.6,30z
			 M473.7,49.9c-2,0-3.7,0.8-5,2.5c-1.3,1.7-2,3.7-2,6.2c0,4.8,1.2,8.9,3.5,12.3c2.3,3.5,5.1,5.2,8.3,5.2c1.9,0,3.4-0.7,4.6-2.1
			c1.2-1.4,1.8-3.2,1.8-5.4c0-2.5-0.5-5.3-1.6-8.5c-1.1-3.2-2.3-5.6-3.6-7.2C478,51,476,50,473.7,49.9z"/>
	</g>
	<g display="none">
		<path display="inline" fill="#ED1E24" d="M229.6,262.2c3.2,0,6.3,0.7,9.3,2.1c1.4,0.7,2.4,1,2.9,1c0.4,0,1-0.1,1.9-0.3
			c0.3-0.1,0.6-0.1,1-0.1c1.1,0,2.1,0.5,3,1.6c2.1,2.5,3.2,5.7,3.2,9.5c0,2.7-0.9,4.6-2.7,5.8c-1,0.7-2.1,1-3.3,1
			c-1.1,0-2-0.2-2.7-0.7c-0.7-0.5-1.4-1.3-2-2.6c-0.9-1.7-1.7-3-2.3-3.7c-0.6-0.8-1.3-1.4-2.2-2.1c-2.1-1.5-4.4-2.2-6.7-2.2
			c-2.3,0-4.1,0.8-5.4,2.5c-1.3,1.6-2,3.8-2,6.6c0,3.8,1,7.2,2.9,10.4c2.6,4.2,6.3,6.3,11.1,6.3c1.8,0,3.5-0.3,5.3-0.9
			c1.7-0.6,3.1-1.4,4.1-2.3c0.8-0.8,1.5-1.2,2-1.2c0.8,0,1.4,0.4,2,1.1c0.5,0.7,0.8,1.6,0.8,2.6c0,1.3-0.4,2.7-1.2,4.3
			c-0.8,1.6-1.7,2.8-2.8,3.7c-0.5,0.4-1.4,0.7-2.9,1c-0.8,0.2-1.9,0.6-3.3,1.2c-3.2,1.6-6.6,2.3-10.1,2.3c-3.7,0-7.3-0.8-11-2.5
			c-4.2-1.9-7.6-4.8-10-8.8c-2.4-3.8-3.6-7.9-3.6-12c0-4.9,1.5-9.3,4.5-13.3c2.6-3.5,6.1-6.2,10.3-8
			C222.9,262.9,226.2,262.2,229.6,262.2z"/>
		<path display="inline" fill="#ED1E24" d="M278.6,262.2c5.6,0,10.6,1.6,14.8,4.8c2.9,2.2,5.2,5.1,6.9,8.6c1.7,3.5,2.6,7,2.6,10.5
			c0,5.2-1.7,9.8-5.1,13.9c-2.9,3.5-6.7,6-11.4,7.5c-2.9,0.9-5.8,1.4-8.7,1.4c-3.8,0-7.4-0.8-10.9-2.4c-4.2-1.9-7.5-4.8-9.8-8.7
			c-2.3-3.7-3.5-7.8-3.5-12.3c0-5.2,1.5-9.8,4.4-13.8c2.6-3.6,6.2-6.2,10.6-7.8C271.6,262.7,274.9,262.2,278.6,262.2z M275.4,271.6
			c-1.8,0-3.3,0.8-4.4,2.5c-0.8,1.2-1.3,2.7-1.3,4.4c0,2.5,0.5,5.3,1.5,8.6c1,3.3,2.3,6.1,3.8,8.7c0.7,1.1,1.5,1.9,2.5,2.6
			c1,0.6,2,1,3,1c1.7,0,3-0.6,4-1.9c1-1.3,1.5-2.9,1.5-4.9c0-2.7-0.4-5.5-1.3-8.6c-0.9-3.1-2-5.7-3.3-7.9c-0.8-1.3-1.8-2.4-2.9-3.2
			C277.7,272.1,276.5,271.7,275.4,271.6z"/>
		<path display="inline" fill="#ED1E24" d="M354,279.5v8c0,4.8-0.4,8.3-1.1,10.3c-1.6,4.3-5,7.3-10.3,9.2c-3.2,1.2-6.8,1.8-10.9,1.8
			c-7,0-12.7-1.7-16.9-5c-2.1-1.6-3.5-3.6-4.3-5.7c-0.8-2.2-1.2-5.3-1.2-9.4c0-1.6,0.1-4.2,0.2-7.9c0.1-2.6,0.1-4.3,0.1-5.1
			c0-1.8-0.1-3.1-0.4-3.8c-0.3-0.7-0.9-1.4-1.8-2c-1.4-0.9-2.2-2-2.2-3.2c0-0.9,0.4-1.6,1.1-2.3c0.7-0.7,1.7-1.1,2.9-1.3
			c2.4-0.5,5.3-0.7,8.6-0.7c3.6,0,6.6,0.3,9,0.8c2.3,0.5,3.5,1.7,3.5,3.6c0,0.9-0.3,1.7-1,2.2c-0.2,0.1-0.8,0.5-2,1
			c-0.7,0.3-1.2,0.9-1.4,1.7c-0.3,0.8-0.4,2.2-0.4,4c0,1.9-0.1,6-0.3,12.4c-0.1,3.8,0.9,6.6,3.1,8.6c1.8,1.6,4,2.4,6.8,2.4
			c1.8,0,3.3-0.3,4.8-1c1.4-0.6,2.5-1.5,3.3-2.6c0.6-0.9,1-1.8,1.2-2.9c0.2-1.1,0.3-2.5,0.3-4.3v-7.2c-0.1-5.5-0.3-8.8-0.5-9.8
			c-0.2-1-0.9-1.7-2.1-2.3c-1.1-0.5-1.9-1-2.3-1.4c-0.4-0.4-0.6-0.9-0.6-1.5c0-1.3,0.8-2.3,2.4-2.9c1.6-0.6,4.1-0.9,7.6-0.9
			c3.4,0,5.9,0.3,7.4,0.9c1.5,0.6,2.3,1.5,2.3,2.8c0,0.6-0.1,1.1-0.4,1.4c-0.3,0.3-1,0.8-2.1,1.4c-1.2,0.7-1.8,1.4-2,2.1
			C354.1,271.9,354,274.7,354,279.5z"/>
		<path display="inline" fill="#ED1E24" d="M379.1,264.7l16.4,14.3c1.5,1.3,2.6,2,3.3,2c1.1,0,1.7-1.2,1.7-3.7
			c0-2.8-0.2-4.7-0.5-5.7c-0.3-1-1-1.8-2.1-2.3c-0.9-0.4-1.5-0.9-1.8-1.3c-0.4-0.5-0.5-1.1-0.5-1.8c0-1.8,1.3-3,3.8-3.6
			c1-0.2,2.8-0.3,5.4-0.3c3.3,0,5.6,0.2,6.9,0.6c2,0.6,3,1.8,3,3.5c0,1.4-0.8,2.5-2.5,3.2c-0.7,0.3-1.1,0.5-1.3,0.8
			c-0.2,0.2-0.4,0.5-0.6,1c-0.6,1.4-0.9,4.2-0.9,8.2v10.7c0,1.6,0,3.9,0,6.7c0,3.9-0.2,6.6-0.7,8.4c-0.6,2.1-1.7,3.2-3.2,3.2
			c-0.7,0-1.3-0.1-1.8-0.4c-0.5-0.3-1.3-0.9-2.5-2l-19.5-17.5c-1.4-1.2-2.5-1.8-3.4-1.8c-1.3,0-2,1.9-2,5.6c0,3,0.2,5.1,0.5,6.3
			c0.3,1.1,1,1.9,2.1,2.5c1.5,0.7,2.2,1.7,2.2,2.8c0,3-3.3,4.6-9.8,4.6c-3,0-5.3-0.4-6.9-1.2c-1.6-0.8-2.5-1.9-2.5-3.3
			c0-0.7,0.2-1.3,0.5-1.7c0.3-0.4,1-0.9,2.1-1.5c1-0.6,1.7-1.7,1.9-3.3c0.4-2.8,0.6-6.9,0.6-12.2c0-5.7-0.3-9.8-1-12.4
			c-0.2-0.9-0.5-1.6-0.9-2.1c-0.4-0.5-1-0.9-1.8-1.3c-1-0.5-1.7-1-2.1-1.4c-0.4-0.5-0.6-1-0.6-1.7c0-2.1,1.8-3.4,5.4-4
			c1.2-0.2,3.4-0.3,6.5-0.3c1.8,0,3,0.1,3.8,0.4C377,263.1,378,263.7,379.1,264.7z"/>
		<path display="inline" fill="#ED1E24" d="M431,263.1h17.3c1.9-0.1,3.6-0.3,5.1-0.8c0.7-0.2,1.2-0.3,1.7-0.3c1.8,0,3.5,1.3,5.2,3.9
			c1.7,2.6,2.5,5.3,2.5,8.1c0,1.9-0.6,3.3-1.7,4.2c-0.9,0.7-1.9,1-3.2,1c-1.2,0-2.2-0.3-3-1c-0.9-0.6-1.7-1.7-2.5-3.2
			c-0.7-1.4-1.3-2.2-1.7-2.7c-0.4-0.4-0.9-0.6-1.5-0.6c-0.8,0-1.4,0.3-1.7,1c-0.4,0.7-0.5,1.8-0.5,3.4v18.4c0,1.9,0.2,3.3,0.6,4.1
			c0.4,0.9,1.1,1.5,2.2,2c1.2,0.5,2,1,2.4,1.4c0.4,0.5,0.6,1.1,0.6,1.9c0,1.6-1.1,2.8-3.2,3.5c-2.1,0.8-5.4,1.2-9.9,1.2
			c-5.4,0-9.5-0.5-12.1-1.3c-2.2-0.7-3.3-2-3.3-3.6c0-0.9,0.4-1.6,1.2-2.1c0.2-0.1,1-0.4,2.3-0.8c0.8-0.2,1.4-0.7,1.7-1.4
			c0.3-0.7,0.6-2,0.8-3.9c0.2-1.7,0.3-4.5,0.5-8.3c0.2-3.8,0.2-7.1,0.2-10c0-2-0.2-3.4-0.5-4.2c-0.3-0.8-0.8-1.3-1.5-1.3
			c-0.9,0-1.7,0.6-2.5,1.8c-1.5,2.2-2.7,3.7-3.6,4.4c-1.1,0.9-2.2,1.3-3.3,1.3c-1.2,0-2.2-0.4-2.9-1.3c-0.8-0.9-1.2-2-1.2-3.4
			c0-1.4,0.3-2.9,0.9-4.5c0.6-1.6,1.4-3.1,2.5-4.5c1.7-2.2,3.3-3.4,4.9-3.4c0.4,0,0.9,0.1,1.5,0.2c1.2,0.2,2.2,0.4,2.9,0.5
			C429.1,263,430,263.1,431,263.1z"/>
		<path display="inline" fill="#ED1E24" d="M485.7,289.1c-0.8,0-1.4,0.3-1.6,0.8c-0.2,0.5-0.3,1.7-0.3,3.5c0,2.8,0.2,5,0.5,6.5
			c0.1,0.4,0.3,0.8,0.5,1c0.2,0.2,0.6,0.5,1.3,0.9c1.3,0.7,2,1.7,2,2.9c0,1.4-0.9,2.5-2.7,3.1c-1.8,0.6-4.9,0.9-9.3,0.9
			c-8.1,0-12.2-1.5-12.2-4.6c0-0.5,0.1-0.9,0.4-1.3c0.2-0.3,0.8-0.8,1.6-1.3c1-0.6,1.6-1.4,2-2.3c0.3-0.9,0.6-2.4,0.7-4.5
			c0.1-1.6,0.2-7.1,0.2-16.7c0-3-0.2-5.1-0.5-6.2c-0.3-1.1-1-1.9-2-2.4c-1-0.5-1.6-0.9-1.9-1.3c-0.3-0.4-0.5-0.9-0.5-1.5
			c0-0.8,0.3-1.5,0.9-2.1c0.6-0.6,1.5-1,2.6-1.3c0.9-0.2,2.2-0.4,3.9-0.4c0.7,0,2.5,0.1,5.4,0.3c0.5,0,1.4,0.1,2.6,0.1
			c2,0,4.6-0.1,7.9-0.4c2.1-0.2,3.5-0.2,4.4-0.2c4.7,0,8.6,1.1,11.6,3.4c2.8,2,4.1,4.9,4.1,8.5c0,2-0.5,3.9-1.4,5.5
			c-1,1.7-2.3,2.9-4,3.7c-0.7,0.4-1.1,0.8-1.1,1.3c0,0.6,0.5,1.2,1.6,1.5c2.3,0.8,4,2.1,5.1,3.8c1.1,1.7,1.8,4.3,2.3,7.8
			c0.2,1.4,0.5,2.4,0.9,2.8c0.4,0.4,1.2,0.8,2.6,1.2c0.4,0.1,0.8,0.4,1.1,0.8c0.3,0.4,0.4,0.9,0.4,1.4c0,0.7-0.3,1.4-0.8,2.1
			c-0.5,0.7-1.2,1.2-2,1.6c-1.8,0.9-4.4,1.3-7.6,1.3c-4.3,0-7.3-1.1-9.2-3.4c-0.8-1-1.5-2.3-2.1-3.8c-0.6-1.5-1.3-3.9-2.1-7.2
			c-0.5-2.1-1.1-3.6-1.9-4.4C488.2,289.6,487.1,289.2,485.7,289.1z M483.8,272.3l-0.4,7.7c0,0.1,0,0.2,0,0.3c0,0.8,0.1,1.3,0.3,1.6
			c0.2,0.3,0.7,0.4,1.4,0.4c1.9,0,3.3-0.5,4.2-1.5c0.9-1,1.3-2.6,1.3-4.8c0-4.2-1.5-6.4-4.5-6.4c-0.9,0-1.5,0.2-1.8,0.6
			C484,270.6,483.8,271.3,483.8,272.3z"/>
		<path display="inline" fill="#ED1E24" d="M526.2,262.4c4.3,0,7.6,0.2,9.8,0.7c1,0.2,1.9,0.6,2.5,1.2c0.6,0.6,0.9,1.2,0.9,2
			c0,0.6-0.2,1.2-0.7,1.7c-0.7,0.9-1.1,1.5-1.1,1.9c0,0.8,0.6,2.1,1.9,3.8c0.8,1.1,1.6,1.7,2.3,1.7c0.5,0,0.9-0.2,1.3-0.5
			c0.4-0.3,1-0.9,1.7-1.8c0.9-1.1,1.3-1.9,1.3-2.6c0-0.4,0-0.7-0.1-0.9c-0.1-0.2-0.5-0.7-1.1-1.4c-0.4-0.5-0.7-1.2-0.7-2
			c0-2.5,3.4-3.7,10.1-3.7c3.8,0,6.3,0.2,7.4,0.5c0.7,0.2,1.3,0.6,1.8,1.3c0.5,0.6,0.7,1.3,0.7,2c0,0.9-0.3,1.6-0.8,2
			c-0.5,0.5-1.5,0.8-2.9,1.1c-1.3,0.2-2.3,0.7-3.3,1.4c-0.9,0.7-2.6,2.4-5.1,5c-3,3.2-4.8,5.6-5.6,7.1c-0.7,1.5-1.1,3.8-1.1,6.8
			c0,2.5,0.1,4.9,0.3,7.1c0.1,1.3,0.3,2.3,0.6,2.8c0.3,0.5,0.9,1,1.9,1.5c1.6,0.8,2.4,1.9,2.4,3.1c0,3-4.4,4.5-13.2,4.5
			c-3.6,0-7-0.4-10.3-1.1c-2.7-0.6-4.1-1.8-4.1-3.5c0-1.4,0.8-2.3,2.5-2.9c1.3-0.4,2-1,2.3-1.7c0.7-1.5,1.1-5.1,1.1-10.7
			c0-1.8-0.2-3.1-0.5-4.1c-0.4-1-1.1-2.2-2.3-3.8c-2.5-3.2-5-6.1-7.7-8.7c-1.1-1.1-2.2-1.9-3.3-2.3c-1.5-0.5-2.4-1-2.7-1.2
			c-0.6-0.5-0.9-1.2-0.9-2.1c0-1.5,1.1-2.5,3.3-3.2C517.3,262.7,521,262.4,526.2,262.4z"/>
	</g>
	<g>
		<path fill="#ED1E24" d="M231.9,261.5c5,0,9.5,1.3,13.3,3.8c3.6,2.4,5.5,5.4,5.5,8.9c0,2.5-0.8,4.4-2.5,6c-1.6,1.4-3.5,2.2-5.7,2.2
			c-2.3,0-4.1-0.8-5.3-2.5c-0.4-0.5-0.9-1.9-1.6-4.1c-0.8-2.4-2.2-3.6-4.4-3.6c-1.6,0-2.9,0.7-3.9,2c-1.1,1.4-1.6,3-1.6,5
			c0,3.4,1.2,6.4,3.6,9c2,2.1,4.5,3.2,7.4,3.2c1.4,0,2.6-0.1,3.6-0.4c1-0.2,2.2-0.7,3.8-1.5c0.4-0.2,0.8-0.3,1.3-0.3
			c1,0,1.8,0.5,2.5,1.4c0.7,0.9,1.1,2,1.1,3.2c0,1.3-0.5,2.6-1.6,4c-1,1.4-2.4,2.6-4.1,3.7c-3.7,2.3-8,3.4-13,3.4
			c-5.8,0-10.8-1.7-14.9-5.1c-5.2-4.3-7.9-9.7-7.9-16.4c0-6.4,2.4-11.7,7.3-15.8C219.6,263.5,225.2,261.5,231.9,261.5z"/>
		<path fill="#ED1E24" d="M279.6,261.4c5.2,0,9.7,1.3,13.6,4c2.8,1.9,5,4.4,6.7,7.5c1.7,3.2,2.6,6.6,2.6,10.1
			c0,6.1-2.8,11.3-8.4,15.6c-5.4,4.1-11.5,6.1-18.4,6.1c-6.7,0-12.2-1.9-16.4-5.8c-4.1-3.7-6.1-8.6-6.1-14.6
			c0-6.7,2.5-12.1,7.4-16.3C265.9,263.7,272.2,261.4,279.6,261.4z M276.2,271.2c-1.2,0-2.2,0.5-3,1.4c-0.7,0.9-1.1,2.1-1.1,3.7
			c0,1.7,0.3,4,1,6.9c0.6,2.9,1.4,5.5,2.3,7.8c0.9,2.3,2.3,3.5,4.3,3.5c2.5,0,3.8-1.6,3.8-4.8c0-2.4-0.3-5.1-1-8.1
			c-0.6-3-1.4-5.5-2.3-7.4C279.2,272.3,277.9,271.3,276.2,271.2z"/>
		<path fill="#ED1E24" d="M328.8,263.9v22.9c0,4.9,1.6,7.4,4.9,7.4c0.8,0,1.6-0.2,2.4-0.7c0.8-0.5,1.3-1,1.7-1.7
			c0.6-1.4,0.9-4.4,0.9-9.1c0-4.6-0.2-7.8-0.5-9.5c-0.1-0.7-0.3-1.2-0.6-1.5c-0.3-0.3-0.8-0.7-1.6-1.1c-1.6-0.8-2.4-1.9-2.4-3.2
			c0-1.7,1.4-3,4.1-3.6c5.2-1.3,10.4-1.9,15.5-1.9c2.8,0,4.3,1.5,4.3,4.5c0,0.3,0,0.9,0,1.9c-0.1,1.4-0.1,3-0.1,5v18.7
			c0,1,0.8,1.8,2.5,2.6c1.4,0.7,2.1,1.7,2.1,3c0,2.5-3,4.5-9,5.9c-3.5,0.8-6.9,1.2-10.2,1.2c-1.4,0-2.3-0.2-2.8-0.5
			c-0.5-0.3-0.8-0.9-0.9-1.8c-0.1-1.8-0.7-2.6-1.6-2.6c-0.3,0-0.6,0.1-0.9,0.2c-0.3,0.2-1.1,0.7-2.6,1.7c-2.9,1.9-5.9,2.9-9.2,2.9
			c-5.4,0-9.2-1.6-11.5-4.7c-1.9-2.6-2.8-7-2.8-13.2c0-2.3,0-4.3,0-5.9c0-1,0-1.6,0-1.9c0-2.4-0.2-4.2-0.7-5.4
			c-0.4-1.1-1.2-2-2.4-2.7c-1.1-0.6-1.8-1-2.1-1.4c-0.3-0.3-0.4-0.8-0.4-1.4c0-2.1,1.6-3.6,4.9-4.3c5.5-1.2,11.1-1.8,16.6-1.8
			C327.9,261.8,328.8,262.5,328.8,263.9z"/>
		<path fill="#ED1E24" d="M415.7,277.1l0.6,14.9c0.1,1.1,0.2,2,0.5,2.5c0.3,0.5,1.2,1.6,2.6,3.1c0.4,0.5,0.6,1.1,0.6,1.9
			c0,1.9-1.1,3.2-3.3,3.9c-2.2,0.7-6.2,1.1-11.9,1.1c-3.9,0-6.6-0.3-8.3-1c-1.7-0.7-2.5-1.8-2.5-3.4c0-0.6,0.1-1,0.3-1.2
			c0.2-0.3,0.7-0.9,1.7-2c1.1-1.2,1.7-5.1,1.7-11.9c0-3.9-0.5-6.8-1.4-8.6c-0.7-1.5-2.1-2.2-4.1-2.2c-1.9,0-3.2,0.6-3.9,1.8
			c-0.7,1.2-1.1,3.4-1.1,6.6v8.4c0,1.7,0.1,2.8,0.3,3.4c0.2,0.6,0.9,1.8,2.1,3.6c0.3,0.5,0.5,1.1,0.5,1.7c0,1.7-1.2,2.9-3.5,3.7
			c-2.3,0.8-5.9,1.2-10.8,1.2c-7.8,0-11.8-1.6-11.8-4.9c0-0.7,0.1-1.2,0.4-1.5c0.2-0.4,0.8-0.9,1.7-1.5c0.7-0.5,1.2-1.1,1.4-1.8
			s0.4-2.4,0.5-5.1c0.2-3.2,0.3-6.6,0.3-10.1c0-1.9-0.1-3.2-0.4-3.8c-0.3-0.6-1.2-1.3-2.6-2.2c-1.2-0.8-1.8-1.7-1.8-2.8
			c0-1.1,0.5-2.1,1.5-2.8c1-0.7,3-1.6,6.1-2.7c2.7-1,5.3-1.8,7.8-2.4c2.5-0.7,4.2-1,5.2-1c0.8,0,1.6,0.3,2.1,0.9
			c0.6,0.6,0.9,1.4,0.9,2.2c0,0.1,0,0.4,0,1.1c0,0.2,0,0.4,0,0.6c0,1.4,0.6,2,1.7,2c0.7,0,1.4-0.5,2.2-1.6c2.4-3.5,6-5.2,10.6-5.2
			c3.6,0,6.6,0.9,9.1,2.8c1.8,1.3,3,2.9,3.7,4.7C415.1,271,415.5,273.6,415.7,277.1z"/>
		<path fill="#ED1E24" d="M447.6,272.6v14.3c0,1.7,0.4,3.1,1.2,4.1c0.8,1.1,1.9,1.6,3.2,1.6c1.1,0,2.6-0.5,4.4-1.5
			c0.4-0.3,0.8-0.4,1.3-0.4c0.7,0,1.3,0.4,1.9,1.2c0.6,0.8,0.8,1.7,0.8,2.7c0,1.8-1,3.4-2.9,5c-4,3.4-8.9,5.1-14.6,5.1
			c-4.5,0-8.1-1.3-10.9-3.8c-2.7-2.6-4.1-5.9-4.1-10.1v-19.6c0-0.6-0.1-1.1-0.2-1.2c-0.2-0.2-0.6-0.2-1.2-0.2h-4.4
			c-0.8,0-1.3-0.1-1.6-0.4c-0.2-0.3-0.3-0.9-0.3-1.9v-1.9c0-0.8,0.4-1.5,1-1.9l19.4-12.2c0.5-0.3,0.9-0.4,1.8-0.4h3.4
			c0.7,0,1.1,0.1,1.5,0.6c0.3,0.4,0.2,0.9,0.2,1.8v5.7c0,0.8,0.1,1.4,0.4,1.7c0.3,0.3,0.8,0.4,1.7,0.4h7.8c1,0,1.7,0.2,2,0.6
			c0.3,0.4,0.5,1.2,0.5,2.4v2.5c0,1.4-0.2,2.3-0.6,2.8c-0.4,0.5-1.1,0.8-2.2,0.8h-7.7c-0.8,0-1.3,0.1-1.6,0.4
			C447.8,271.3,447.6,271.8,447.6,272.6z"/>
		<path fill="#ED1E24" d="M482.4,261.7c1.5,0,2.4,0.2,2.7,0.6c0.3,0.4,0.6,1.8,0.9,4.1c0.1,1.2,0.6,1.9,1.3,1.9
			c0.6,0,1.1-0.4,1.6-1.2c2.3-3.5,5.2-5.3,8.8-5.3c2.6,0,4.7,0.8,6.3,2.5c0.8,0.8,1.4,1.9,1.9,3.2s0.8,2.5,0.8,3.7
			c0,1.3-0.3,2.7-0.9,4.1c-0.6,1.4-1.4,2.5-2.4,3.4c-1.8,1.7-4,2.6-6.6,2.6c-1.4,0-2.6-0.3-3.6-0.8c-1-0.5-2.3-1.5-3.8-3.1
			c-0.6-0.6-1.1-0.9-1.7-0.9c-0.8,0-1.3,0.4-1.5,1.3c-0.2,0.9-0.4,2.8-0.4,5.6c0,4.3,0.2,7.2,0.5,8.7c0.2,0.8,0.5,1.4,0.8,1.8
			c0.4,0.3,1.1,0.7,2.3,1c2.5,0.8,3.8,2.1,3.8,4c0,1.2-0.4,2.2-1.2,3c-0.8,0.9-1.9,1.4-3.3,1.7c-2.7,0.6-6.7,0.8-11.9,0.8
			c-5,0-8.8-0.4-11.4-1.3c-2.3-0.8-3.5-2.2-3.5-4.1c0-1.5,0.8-2.8,2.5-3.9c0.8-0.5,1.4-1,1.7-1.5c0.3-0.4,0.5-1,0.6-1.8
			c0.5-2.6,0.7-7.3,0.7-14.3c0-1.3-0.1-2.2-0.4-2.7c-0.3-0.5-0.8-1-1.7-1.3c-2-0.8-3-1.9-3-3.4c0-1.4,0.7-2.5,2.1-3.5
			c1.4-1,3.7-1.9,6.9-2.9C475.6,262.4,479.3,261.8,482.4,261.7z"/>
		<path fill="#ED1E24" d="M550.1,282.3l-5.6,15.4c-1.4,3.8-2.8,6.9-4.2,9.3c-1.4,2.4-3,4.5-4.8,6.2c-3.7,3.5-8.1,5.2-13.2,5.2
			c-4.2,0-7.6-1.1-10.2-3.3c-2-1.7-3-3.9-3-6.5c0-2.2,0.7-4,2.1-5.5c1.4-1.5,3.1-2.2,5.1-2.2c2,0,3.7,0.7,4.9,2
			c0.6,0.6,1,1.2,1.2,1.7c0.2,0.5,0.5,1.5,0.9,3.2c0.3,1.2,1,1.9,2.1,1.9c0.9,0,1.6-0.4,2.2-1.1c0.6-0.8,0.9-1.7,0.9-2.8
			c0-1.3-0.7-3.5-2.2-6.6l-10.2-21.7c-1.1-2.3-1.9-3.7-2.4-4.2c-0.5-0.6-1.7-1.3-3.6-2.1c-0.6-0.2-1.1-0.7-1.5-1.3
			c-0.4-0.7-0.6-1.3-0.6-1.9c0-2.5,2.5-4.2,7.5-5.1c3.3-0.6,7.1-0.9,11.4-0.9c3,0,5.3,0.3,7.1,0.9c2.3,0.8,3.5,2.2,3.5,4.2
			c0,0.7-0.3,1.5-1,2.5c-0.6,0.9-0.9,1.7-0.9,2.4c0,0.7,0.1,1.4,0.4,2.1c0.3,0.7,0.9,2,1.9,3.7c1.1,2,2,3,2.8,3
			c0.9,0,1.8-0.9,2.7-2.6c0.9-1.7,1.4-3.4,1.4-5c0-1.3-0.4-2.4-1.1-3.2c-1.1-1.3-1.6-2.4-1.6-3.3c0-1.4,1-2.6,2.9-3.4
			c1.9-0.9,4.5-1.3,7.7-1.3c6,0,9,1.4,9,4.3c0,1-0.3,1.9-0.9,2.5c-0.6,0.6-1.7,1.2-3.3,1.8c-1.4,0.5-2.4,1.4-3.2,2.5
			C553.2,274.8,551.8,278,550.1,282.3z"/>
	</g>
</g>
<g id="black" display="none">
	<g display="inline">
		<path d="M213.7,259c0,0,40.9,0.1,41,0.1c0-2.4-0.1-22.6-0.1-24.6c0-1.3-0.3-17.4-0.2-18.7c0,0-0.1-0.8,0.2-0.5
			c-0.1-0.1,10.3,19.6,11.4,21.5c0.3,0.6,11.6,21.8,12.1,22.2l45.3,0.1c0.2-0.4-0.2-0.8-0.5-1.5c-0.6-1.2-13.4-25-14.4-26.9
			c-1.6-3.2-7.3-13.8-8.8-16.8c-0.7-1.5-3.4-6.5-4.8-10c0.1,0.3,2.7-0.9,3.8-1.5c2-0.8,4-2,6-3.3c5.1-3,8.1-6.9,11-12.3
			c1.1-2,2.7-5.4,2.9-9.2c0.4-9.2,0.2-53.9,0.2-53.9l-25,0.1c8.6-7,16.2-16.1,22.7-27.2c6.6-11.2,9.9-21.8,9.9-32
			c0-12.6-5.1-21.7-15.2-27.3c-7.7-4.2-16.1-6.3-25.4-6.3c-11.4,0-21.1,2.9-29.1,8.8c-7.6,5.4-11.3,13.1-11.3,23
			c0,5,0.9,9.7,2.8,14.3c-12,0-24,0-36,0c-0.1,0-0.1,0-0.2,0c0,17.7,0,35.4,0,53c-2.8-0.3-7.1-0.4-10.4-0.2c-0.7-1.2-1.2-1.7-2.5-3
			l-1.4-1.2c-4.4-3.8-9.6-6.9-17.1-7.4c-2.2-0.3-5.8-0.3-8.2,0c-6.3,0.6-10.7,2-14.6,4.2c0,0,0,0,0,0c-0.1,0-0.1,0-0.1,0.1
			c-0.1,0.1-0.2,0.1-0.3,0.2c-2.6,1.5-4.3,3.5-7.4,1.3c-1.7-1.2-2.5-2.3-3-4.4c0-0.1-30.2,0-45.2,0c-0.3,0-0.5,0-0.8,0
			c-1.2,2-1.4,5.2-3.7,5.6c-2.6,0.4-5.1-1.7-7.6-2.4c-3.1-1-7.9-0.9-10.6-0.1c-6.1,1.2-10.2,4.4-13.2,8.3c-0.6,0.8-0.9,1.4-1.4,2.1
			c-0.4,0.6-0.5,0.8-0.8,1.4c-0.5,1.1-0.6,1.7-1,2.7c-1,3.9-1.4,9.3-0.8,13.6c0.7,4.2,2,7.6,3.8,10.5c0.4,0.5,0.4,0.8,1,1.5
			c0,0,0,0,0,0c-1.3,4.9-6.9,8.4-7.3,13.4c-0.1,1.7,0.4,4.1,0.8,6.2c2.4,14.1,5.3,28.8,5.8,43.3c-8.7-0.4-13.4-0.2-20.2,1
			c-1.8,0.3-3,0.8-3.7,1C34.4,230,29,234.8,28,243.9c-0.2,3.3-0.3,6.1,0,9.2c2.2,16.5,19,18.5,38.5,17.7c-2.5,4-4.9,8-6.9,12.7
			c-0.2,0.5-0.2,0.8-0.4,1.3c-0.8,2.2-3.9,12.1-1.3,15.8c1.4,2,5.9,2.6,10.4,2.6c4.7,0.2,8.7,0.1,13.3,0.1c4.7-0.1,9.7-0.2,12.5-1.3
			c5.7-2.3,7.6-9,9.5-14.2c3.4-9.1,9.5-15.2,19.8-17.3c5.8-1.2,12.7,0.3,19.4-2.3c9.6-3.7,15.4-16.4,18.9-26.2c1-2.7,3-9.4,4.9-12.1
			c0.8-1.2,1.7-2.4,2.6-3.6c1.2-1.6,4.1-4.9,3.5-6.9c-0.7-2.3-6.4-1.7-8.5-0.8c-2.6,1.1-3.8,2.8-5,5c-0.5,0.8-0.6,1.1-1.1,2.1
			c-1,2.2-2.1,4.6-3,7.3c-1,3-1.9,6.1-2.9,8.9c-4.7,12.6-13.5,21.5-31.2,21c5-3.1,9.1-13.1,4.4-19.6c-0.3-0.4-0.7-0.9-1.2-1.3
			c-0.2-0.2-0.4-0.3-0.6-0.5c0,0,0,0,0,0c-0.2-0.1-0.4-0.3-0.7-0.3c-0.1,0-0.2-0.1-0.3-0.1c0.1,0,0.1,0,0.2,0
			c-1.1-0.5-2.3-0.6-3.3,0.4c-1,1-0.4,3.9-0.6,5.8c-0.2,2.2-1.1,4.9-1.9,6.2c-5,8.1-18.8,9.6-33.4,9.7c1,0,2,0,3,0
			c-1.4,0-2.7,0-4.1,0c0.4,0,0.7,0,1.1,0c-2.3,0-4.7,0-7,0c-5-0.1-9.9-0.2-14.5-0.2c-3.9,0-10.9-0.2-12-0.3
			c-1.2-0.1-3.1-0.5-2.8-0.4c-1.4-0.3-2.7-0.8-3.8-1.3c-4.4-2.2-6.8-7.6-6-14.1c0.6-4.7,4.2-9.9,9.4-11.7c1-0.3,1.7-0.6,2.5-0.7
			c2.1-0.3,6.8-0.3,10.3-0.4c1.4,0,9.1,0,13.3,0.2c0.7,0,5.6,0.1,6.8,0.4c2.8,0.6,7.7,3.5,11.6,6.1c0.2,0.2,1.2,0.7,1.4,0.8
			c5.4,3.6,12.5,3.4,15.9-0.8c0.3-0.4,1.1-1.6,1-2.5c-0.4-2.4-4.7-1.7-7.5-1.9c-10.2-0.8-16.5-10.8-26.6-11.2c-0.1,0-0.2-1.7-0.3-3
			c-0.5-4.7-5.6-35-6.8-43.3c-0.2-1.6-0.2-2.3,0-2.9c0.1-0.4,0.4-0.9,0.6-1.1c1.8-1.8,4.1-2.2,5.7-4.2c0.2,0.2,0.6,0.4,0.7,0.4
			c0.6,0.4,1,0.6,2.4,1.3c1.1,0.5,2.1,0.9,3.5,1.3c0.8,0.2,2.2,0.5,3.1,0.6c0.9,0.2,2.9,0.4,3.8,0.4c1.7,0.2,5,0.1,8.6-0.2
			c1.8-0.1,3.1-0.2,5.2-0.6c1.1-0.3,2.1-0.4,3-0.6c9.5-2.6,13-4.6,19.1-8.2c0.8-0.5,1.9-1.3,2.7-1.8c8.2-5.4,14.8-12.8,21.5-19.8
			c1.3-1.3,1.9-2,2.9-2.9c1.6-1.4,2.1-2,3.7-3.4c0,0,0.7-0.6,0.7-0.6c2.4-2.2,5.1-4.3,7.9-6.2c0.8-0.4,1.5-0.8,2.5-1.4
			c1.2-0.5,2-0.9,3.1-1.3c1.4-0.5,2.1-0.7,3.8-1c0.6-0.1,1.3-0.2,2.3-0.3c1,0,1.5,0,2.5,0c1.4,0.1,2.6,0.4,4.1,0.9
			c0.7,0.2,1.3,0.5,1.9,0.8c1.7,1.1,3.6,2.7,5.1,4c0,0,0,0,0.1,0c-15.6,4.5-28.9,11.4-42.5,18.1c-1.6,0.8-5,2.3-4.8,4
			c0.2,2,4.7,2.9,8.1,2.5c4.2-0.5,8.4-2.9,12.3-4.6c11.8-5.3,24.4-10.9,38.4-12.9c2.8-0.4,9.1-0.8,13.2-0.2
			c5.8,0.9,11.6,3.6,15.6,7.7c6,6.3,7.7,19.7,2.3,28.9c-2.2,3.7-4.3,6.3-6.2,8.1c-0.7,0.7-3.9,3.3-5.2,4.2
			c-4.6,3.3-9.8,5.7-15.9,7.7c-0.8,0.3-2.8,0.9-3.6,1.2c-0.6,0.2-0.8,0.3-1.4,0.4c-10.4,2.3-16.7,3-25.6,1.9
			c-0.5-0.1-1.6-0.2-2.1-0.2c-2.7-0.2-4.2-0.3-5.7-0.4c-0.4,0-0.9-0.1-1.2-0.1c-1.7,0-3.4,0.3-3.8,1c-0.5,0.8-0.3,2.2,0.2,3.3
			c1.2,2.7,6.5,4.6,13.1,5.3c5.1,0.6,10.9,0.2,15.7,0.1c1.4,6.9,2.8,13.8,3.6,21.5c0.1,1,0.2,3,0.1,4.5c0,0.4-0.1,1.5,0,1.7
			c-7.5,1.2-13.3,3.5-21,6.8c-2.1,0.9-5.8,2.9-7.7,3.9c-0.4,0.2-1,0.5-1.2,0.8c-0.2,0.3-0.3,0.4-0.5,0.9c-4.4,9.2-12,17.8-18.9,21.7
			c-5.4,3.1-11,4.3-17.5,5.2c-3.8,0.5-5.8,0.4-5.8,0.4s-0.2,0.9-0.1,3.2c0.3,4.4,1.7,9,3.6,11.9c0.3,0.6,1.8,2.7,1.8,2.7
			c3.7,4.2,6.1,6,10.1,7.8c1.1,0.5,2.2,1,3.1,1.3c4.6,1.7,8.1,2.7,13.8,3.4c3.8,0.5,5.8,0.7,9.7,0.7c3.1,0.1,5.9,0.2,9.5,0.1
			c3.3-0.1,6.4-0.4,9.6-0.8c1.9-0.2,4.9-0.9,7.1-1.5c0.8-0.2,1.3-1.1,2.1-2.5c3.7-6.4,6.9-15.5,8.3-22.7c1.4-7.4,1.2-10.6,1.1-15.8
			c0-0.8-0.3-3.1,0.1-3.5C203.6,258.7,209.2,259,213.7,259z M74.7,274.4c0.1-0.2,0.5-0.8,0.7-1c0.6-0.9,1.3-1.7,1.6-2
			c0.1,0,5.5,0,5.5,0c0,0-0.6,0.9-1.7,3.1c-0.4,0.7-1.5,2.8-1.9,5c0,0,0,0,0,0c0,0-0.1,1.1-0.1,1.4c0,0.5,0,0.9,0.1,1.4
			c0,0,0.1,0.4,0.1,0.4c0.3,1,0.5,1.7,1.3,2.2c0,0,0.5,0.3,0.8,0.3c0.7,0.1,1.2,0.3,2.2-0.5c0.4-0.3,0.6-0.5,0.8-0.8
			c0.2-0.3,1-1.1,1.1-1.3c1.8-2.8,6.5-8,7.8-9.2c0.7-0.7,2.4-2.6,2.9-2.6c0.1,0,0.1,0,0.2,0c2.2,0,4.4,0,6.5,0c0.4,0,0.8,0,1.2,0
			c0,0,0,0-0.1,0c-2.5,1.6-4.3,4.1-5.7,6.7c-1.2,2.3-2.9,5.1-3.9,7.5c-1,2.3-2.3,5-3.3,6.8c-0.1,0.3-0.6,1.1-0.8,1.4
			c-0.4,0.7-0.5,1.2-1.1,1.7c-0.5,0.3-1.3,0.5-5,0.6c-7.6,0.2-10.9,0.2-17.2-0.3c-0.3,0-0.6-0.2-0.7-0.4c-0.9-1.3,0-3.9,0.4-5.2
			c1-2.7,2-4.9,3.1-6.9C70.9,279.9,72.5,277.6,74.7,274.4z M116.3,127.1c-0.6,0.7-1.6,0.9-2.5,1.2c-1,0.2-1.6,0.1-2.5,0
			c-1-0.2-1.8-0.7-2-1.1C110.5,127.2,115.4,127.1,116.3,127.1z M122.9,154.8c-1.7,1.3-2.8,1.7-3.9,2.5c-0.8,0.6-1.2,0.9-2,1.4
			c-0.9,0.5-1.9,1-2.6,1.3c-5.1,2.4-10.2,4.8-15.4,5.4c-2.5,0.3-5,0.4-7.9,0.2c-2.5-0.1-7.1-1-11.1-3.3c-1.7-0.9-4.4-3-5.6-4.7
			l-0.3-0.4c-4.4-6.9-3.1-19.1,1.8-23.3c2.6-2.2,5.6-3.2,9.1-3.3c1,0,2.9,0.1,4.1,0.4c0.6,0.1,1.9,0.7,2.2,0.8
			c1.1,0.4-0.8,1.6-0.8,2.8c0,1.7-0.1,18.3,0,18.3c4,0,34.5,0.2,34.6,0C124.5,153.7,123.9,154.1,122.9,154.8z M140.5,137.8
			c-0.9,1.1-4,5.2-4.4,5.3c-0.1,0-0.1,0-0.2,0c-2.1,0-4.1,0-6.2,0c-0.1,0-0.1,0-0.2,0c-0.3,0-0.5,0-0.8,0c0.1-0.3,0.3-0.5,0.4-0.8
			c0.6-1,1.1-2.2,1.7-2.6c0.3-0.2,0.5-0.2,0.7-0.2c0.8,0,1.2-0.4,1.4-0.6c0.5-0.5,0.9-1.8,0.7-2.8c-0.1-0.6-0.4-1-0.7-1.5
			c-0.6-0.8-1-1.4-2.8-1.5c-0.3,0-1,0.1-1.4,0.3c-0.6,0.3-1.4,1.3-1.7,1.8c-0.3,0.6-0.3,1.4-0.3,1.6c0.1,0.4,0.1,0.5,0.4,0.8
			c0.4,0.5-0.4,1.3-0.6,1.3c-0.2,0-0.3-0.5-0.5-0.9c-0.2-0.4-0.4-0.6,0-1.2c0.3-0.3,0-1.2-0.1-1.6c-0.3-0.6-0.8-1.1-0.8-1.1
			c-0.8-0.8-1.8-0.6-2.5-0.6c-0.5,0-0.9,0.1-1.7,0.6c-0.5,0.3-0.6,0.5-1,1c-0.1,0.1-0.4,0.6-0.6,1.3c-0.1,0.5,0.1,1.4,0.3,1.8
			c0.5,1,1.1,1.4,1.5,1.6c0.6,0.3,0.9-0.3,1.3,0c0.3,0.3,0.8,1,1.3,1.8c0.4,0.6,0.7,1.2,0.7,1.2c-8,0-15.9,0-23.9,0
			c0.1-2.4-0.2-5.3,0.2-7.3c0-0.2,2-2.4,3.3-3.3c0.3,0,0.5,0,0.8,0c0.5,0.2,1,0.5,1.7,0.7c0.7,0.2,1.4,0.6,2.3,0.8
			c0.9,0.2,7.1,0.7,9.5-0.4c0.8-0.4,1-0.4,1.6-0.8c0.9-0.6,3.6-2.9,4.7-4.3c0.3-0.4,0.5-0.8,0.9-1.3c0.2-0.2,4.2-0.1,5.3-0.1
			c3.7,0,5.9,0,8.5,0c0.4,0,0.8,0.3,0.8,0.4c0.8,0.7,1.5,1.4,2.3,2.1c0,0.2,3.2,2.6,3.8,2.7C145.9,132.7,141.4,136.8,140.5,137.8z
			 M183.7,265.1c-1.2,1.6-4.6,6.1-6.1,8.1c-0.2,0.2-0.7,0.9-0.9,1.2c-0.2,0.2,0.4,1.9,0.7,2.5c0.7,1.7,3,6.4,4.1,9.4
			c0.1,0.3,0.5,0.9,0.4,1.1c0,0.2-3.7-1.1-4.2-1.2c-1.9-0.4-3.7-0.9-5-1.3c-0.8-0.2-1.9-0.5-2.4-0.7c-1.3-0.4-1.8-0.5-2.4,0.1
			c-0.2,0.2-0.5,0.6-0.7,0.7c-1.3,1.3-5.4,5.2-7.4,7.1c-0.7,0.7-1.2,1.1-1.3,1.2c-0.2,0-0.2-0.5-0.2-1.4c0.1-0.7,0.2-1.8,0.3-2.4
			c0.1-0.9,0.7-3.5,1-5.6c0.1-0.8,0.2-1.4,0.4-2.1c0.2-0.8-0.4-0.7-1.2-1c-2.1-0.7-3.5-1.4-5.6-2.1c-0.6-0.2-1.5-0.5-2.1-0.9
			c-0.2-0.1,2.2-0.9,2.7-1.1c2.4-1,3.6-1.6,7.8-3.4c0.7-0.3,1.5-0.4,1.7-1.2c0-0.2,0.4-1.1,0.4-1.3c1-2.7,1.9-6.1,2.8-9.5
			c0.1-0.3,0.1-0.5,0.4-0.6c0.3,0.1,0.5,0.4,0.8,0.8c1.3,1.5,1.6,2.3,2.5,3.6l1.1,1.5c0.3,0.4,1.1,1.4,1.4,1.8
			c-0.1-0.1,1.2-0.3,1.9-0.6c2.4-1,5.8-1.8,7.7-2.8c0.3-0.2,1.4-0.7,1.7-0.7C184.4,264.2,184,264.7,183.7,265.1z M237.2,181.1
			c0.1-0.2,0.3-0.4,0.4-0.7c0,0.1-0.1,0.1-0.1,0.2C237.4,180.8,237.3,180.9,237.2,181.1z M236.7,181.9c0-0.1,0.1-0.1,0.1-0.2
			C236.8,181.8,236.8,181.8,236.7,181.9z M280,53.4c1.3-1.7,3-2.5,5-2.5c2.3,0,4.2,1,5.9,3c1.3,1.6,2.6,4,3.6,7.2
			c1.1,3.2,1.6,6,1.6,8.5c0,2.2-0.6,4-1.8,5.4c-1.2,1.4-2.7,2.1-4.6,2.1c-3.2,0-6-1.7-8.3-5.2c-2.3-3.5-3.5-7.6-3.5-12.3
			C278,57.1,278.7,55.1,280,53.4z M256.2,88.7c4.5,4.3,10.5,6.4,17.9,6.4c0.9,0,1.6,0,1.9-0.1c2.5-0.3,4.1-0.4,4.7-0.4
			c1.9,0,2.8,0.9,2.8,2.6c0,2.2-1.1,5.1-3.4,8.6c-2.5,3.9-5.4,7-8.8,9.2c-2.7,1.8-4.1,3.2-4.1,4.2c0,1.5,2.2,3.4,6.7,5.8
			c0.5,0.3,0.9,0.5,1.4,0.7c0.1,6.5,0.3,27.6,0,38.7c-0.3,4-2.2,7.2-5.6,7.6c-5.1,0.6-9.4,0.3-14.2,0.3c-0.3,0,0,0,0,0
			c-0.3,0-0.7,0-0.7-0.3c0-1.2,0-3.8,0-5.6c0-25.5-0.1-54.1-0.1-79.2C255.2,87.7,255.7,88.2,256.2,88.7z M202.7,204.6
			c0.9-0.3,2.2-0.7,2.7-0.9c2.9-1,4-1.4,6.3-2.5c0,0,0.2-0.1,0.4-0.2c0,0,0,0,0,0l0,16.3c0,4.8,0,17,0,17.5c0,0.2-2.9-0.4-5.5-0.5
			c-1.8,0-3.5,0-5.1,0.1c-0.1-0.2,0-1.6,0-3.8c-0.2-11.8-2.4-25.2-2.4-25.2S200.7,205.3,202.7,204.6z M197.8,234.7
			c0.9-0.1,1.9-0.2,2.8-0.2C199.6,234.5,198.7,234.6,197.8,234.7z"/>
		<path d="M563.6,169.5c-0.1-1.9-0.1-8.9-0.1-10c1.8,0,32.4,0.1,32.4,0.1l0-35.7l-73.5-0.2c0,0,0.2,130.7,0.2,135.4
			c3.8,0,40.9,0,40.9,0v-43.9l31.9,0l0-34c0,0-19.3,0-21,0C567,180.9,564.1,176.8,563.6,169.5z"/>
		<path d="M364,259l0-44.5l24.4,0l0.1,44.5l39.6,0.1l0.1-135.4c-18.2-0.1-56.8-0.2-71.2,0.3c-20,0.7-28.3,17.5-30.6,33.5
			c-2.2,14.3-2,32.5-1.3,48.5c0,0.4,0,53,0,53H364z M365.7,168.7c1.1-5,4.3-7.7,9-9c3.8-0.5,9.4,0,12.9-0.2c0.4,7,0.1,14.8,0.2,22.1
			c-7.4,0-14.8,0-22.1,0C365.7,177.3,365.7,173,365.7,168.7z"/>
		<path d="M212.9,153.5c1.6,0.3,5.8,2.6,9.5,1.8c1.4-0.3,3.2-2.3,3.1-3.8c-0.2-2.5-5.2-3.9-8.1-4.6c-5-1.2-9.9-1.5-14-1
			c-12.7,1.6-25.7,5.3-35.8,9.8c-2.9,1.3-8,4.1-7.3,8.1c0.7,3.8,6.9,5.7,10.6,6.4c0.9,0.2,1.4,0.1,2,0.2c4.5,0.3,7.3-0.5,10.3-1.4
			c0.4-0.1,0.9-0.3,1.5-0.5c5.2-2.5,7.7-4.4,7.3-11.2c3.7-1.3,6-2.2,10.9-3.3C205.1,153.4,210.5,153.2,212.9,153.5z"/>
		<path d="M63.8,246.5c2.6,3.5,11,3.8,13.6,1.2c0.3-0.3,1.4-1.3,1.4-1.3c1.2-1,3.5,0.2,5.5,1.3c2.2,1.2,4.3,1,5.4,0.7
			c0.6-0.1,1.1-0.8,1-1.2c-0.1-2.7-4.2-6.5-14.5-7.5C69.2,238.4,62.3,240,63.8,246.5z"/>
		<path d="M146.5,191.8c-5.6-5.9-15.2-9.6-26.9-6.8c-1,0.2-1.8,0.5-2.7,0.8c-11,4.4-15.2,15.3-17.4,28.5c-0.1,0.3-0.2,0.6-0.4,1.4
			c-0.5,1.3-0.7,2.9-1.5,4.4c-0.9,1.6-5.1,5.2-4.8,7.1c0.2,1.6,3.5,2.2,6.4,2.3c9.2,0.4,18.3,0.4,26.6,0
			c10.4-0.5,18.4-6.2,21.6-13.9c0.7-1.6,0.9-3.3,1.1-4.9c0,0,0,0,0,0c0,0,0,0,0,0v0c0,0,0,0,0,0c0.2-0.9,0.4-1.8,0.5-2.8
			c0.3-0.9,0.6-1.8,1.2-2.7c0.8-1.2,4.2-2.6,4-4.6c-0.1-1.5-2.4-2.1-3.3-3.1C149.4,195.9,148.3,193.7,146.5,191.8z M119.3,222
			c-1-0.6-2.8-1.8-3.2-2c-1-0.8-2.1-1.9-2.6-2.6c-0.3-0.5-1-1.6-1.3-2.1c-0.4-1.3-0.7-2.8-0.8-4.5c-0.1-2.2-0.2-3.1,0-5.4
			c0.2-1.6,0.5-2.6,0.8-3.4c0.4-1,0.9-2.2,1.4-3.2c0.8-1.1,2.3-2.8,3.9-3.8c0.7-0.4,2-1,3.2-1.3c-0.5,1.1-1,2.2-1.4,3.3
			c-0.2,0.4-0.5,1-0.8,2c-0.5,1.5-0.5,1.6-0.8,3.3c-0.5,3.3-0.5,8.1-0.2,11.2c0,0.1,0.1,0.9,0.3,1.8c0.4,1.5,0.8,2.5,1.4,3.7
			c0.2,0.5,0.4,1,0.5,1.3c0.5,1.1,1.1,1.5,1.6,2.6C120.4,222.5,120,222.3,119.3,222z"/>
		<path d="M329.8,62c1.8,1.7,3.8,2.5,6,2.5c1.7,0,3-0.4,4-1.3c3.8-3.2,6.3-5.1,7.4-5.7c1.1-0.6,2.7-0.9,4.9-0.9
			c2.3,0,4.1,0.7,5.4,2.1c1.3,1.4,2,3.2,2,5.5c0,2.7-1.1,5.9-3.3,9.6c-4.3,7.3-10.9,15.1-19.9,23.6c-4.8,4.5-7.7,7.3-8.6,8.4
			c-0.9,1-1.3,2.2-1.3,3.4c0,2.4,2.1,3.5,6.3,3.5h47.4c2.2,0,3.7,0.2,4.5,0.6c0.8,0.4,1.6,1.2,2.5,2.5c0.9,1.3,1.7,2.3,2.4,2.7
			c0.7,0.5,1.6,0.7,2.8,0.7c2.9,0,5.5-1.4,7.9-4.2c2.3-2.6,4.1-5.7,5.4-9.3c1.3-3.6,2-7.1,2-10.6c0-7-2-10.4-6.1-10.4
			c-0.9,0-1.7,0.2-2.2,0.5c-0.5,0.3-1.6,1.3-3.2,2.9c-3.2,3.2-6.8,4.7-10.9,4.7c-1.7,0-3.2-0.5-4.4-1.4c-1.2-0.9-1.8-2-1.8-3.3
			c0-1.7,2-4.2,6-7.5c11.2-9.5,16.8-18.3,16.8-26.4c0-3.2-0.8-6.3-2.5-9.2c-1.7-2.9-3.9-5.2-6.6-6.8c-6.1-3.6-13.8-5.4-23-5.4
			c-12.2,0-23.3,3.6-33.3,10.8c-2.7,2-4.9,4.2-6.6,6.5c-1.7,2.3-2.5,4.3-2.5,6.2C327.1,58.4,328,60.3,329.8,62z"/>
		<path d="M429.1,117.7c4.4,0,8.2-1.5,11.5-4.6c3.3-3.2,4.9-7,4.9-11.6c0-4.9-1.6-8.9-4.9-12c-3.2-3.1-7.1-4.6-11.5-4.6
			c-4.4,0-8.2,1.6-11.5,4.6c-3.3,3.1-4.9,7-4.9,11.8c0,4.7,1.6,8.7,4.9,11.8C420.9,116.1,424.7,117.7,429.1,117.7z"/>
		<path d="M231.1,272.1c2.1,0,3.6,1.2,4.4,3.6c0.7,2.2,1.2,3.6,1.6,4.1c1.2,1.7,2.9,2.5,5.3,2.5c2.2,0,4.1-0.7,5.7-2.2
			c1.7-1.5,2.5-3.5,2.5-6c0-3.6-1.8-6.5-5.5-8.9c-3.8-2.5-8.3-3.8-13.3-3.8c-6.7,0-12.3,2-17,6c-4.9,4.2-7.3,9.5-7.3,15.8
			c0,6.6,2.6,12.1,7.9,16.4c4.1,3.4,9,5.1,14.9,5.1c5,0,9.3-1.1,13-3.4c1.7-1,3.1-2.3,4.1-3.7c1-1.4,1.6-2.7,1.6-4
			c0-1.2-0.4-2.3-1.1-3.2c-0.7-0.9-1.6-1.4-2.5-1.4c-0.5,0-0.9,0.1-1.3,0.3c-1.6,0.7-2.8,1.2-3.8,1.5c-1,0.2-2.1,0.4-3.6,0.4
			c-3,0-5.5-1.1-7.4-3.2c-2.4-2.6-3.6-5.6-3.6-9c0-2,0.5-3.6,1.6-5C228.3,272.7,229.6,272.1,231.1,272.1z"/>
		<path d="M293.2,265.4c-3.9-2.7-8.4-4-13.6-4c-7.4,0-13.7,2.2-18.9,6.7c-5,4.2-7.4,9.7-7.4,16.3c0,6,2,10.8,6.1,14.6
			c4.2,3.8,9.6,5.8,16.4,5.8c6.9,0,13.1-2,18.4-6.1c5.6-4.3,8.4-9.5,8.4-15.6c0-3.5-0.9-6.9-2.6-10.1
			C298.2,269.8,296,267.3,293.2,265.4z M279.6,294.4c-2,0-3.4-1.2-4.3-3.5c-0.9-2.3-1.6-4.8-2.3-7.8c-0.6-2.9-1-5.2-1-6.9
			c0-1.5,0.4-2.7,1.1-3.7c0.7-0.9,1.7-1.4,3-1.4c1.7,0.1,3,1,3.9,3c0.9,1.9,1.7,4.3,2.3,7.4c0.6,3,1,5.7,1,8.1
			C283.4,292.8,282.1,294.4,279.6,294.4z"/>
		<path d="M359.8,294.4c-1.6-0.8-2.5-1.7-2.5-2.6v-18.7c0-1.9,0.1-3.6,0.1-5c0-1,0-1.6,0-1.9c0-3-1.4-4.5-4.3-4.5
			c-5.1,0-10.3,0.6-15.5,1.9c-2.8,0.7-4.1,1.9-4.1,3.6c0,1.3,0.8,2.4,2.4,3.2c0.8,0.4,1.3,0.8,1.6,1.1c0.3,0.3,0.5,0.8,0.6,1.5
			c0.3,1.7,0.5,4.9,0.5,9.5c0,4.7-0.3,7.7-0.9,9.1c-0.3,0.7-0.9,1.3-1.7,1.7c-0.8,0.5-1.6,0.7-2.4,0.7c-3.2,0-4.9-2.5-4.9-7.4v-22.9
			c0-1.4-0.8-2.1-2.5-2.1c-5.5,0-11.1,0.6-16.6,1.8c-3.2,0.7-4.9,2.1-4.9,4.3c0,0.6,0.1,1.1,0.4,1.4c0.3,0.3,1,0.8,2.1,1.4
			c1.2,0.6,2,1.5,2.4,2.7s0.7,2.9,0.7,5.4c0,0.3,0,1,0,1.9c0,1.6,0,3.6,0,5.9c0,6.2,0.9,10.6,2.8,13.2c2.2,3.1,6.1,4.7,11.5,4.7
			c3.3,0,6.3-1,9.2-2.9c1.4-1,2.3-1.6,2.6-1.7c0.3-0.2,0.6-0.2,0.9-0.2c0.9,0,1.5,0.9,1.6,2.6c0.1,0.9,0.4,1.5,0.9,1.8
			c0.5,0.3,1.4,0.5,2.8,0.5c3.3,0,6.7-0.4,10.2-1.2c6-1.4,9-3.3,9-5.9C361.9,296.1,361.2,295.1,359.8,294.4z"/>
		<path d="M416.8,294.5c-0.3-0.5-0.5-1.4-0.5-2.5l-0.6-14.9c-0.2-3.5-0.6-6.1-1.3-7.9c-0.7-1.8-1.9-3.4-3.7-4.7
			c-2.5-1.9-5.6-2.8-9.1-2.8c-4.6,0-8.2,1.8-10.6,5.2c-0.8,1.1-1.5,1.6-2.2,1.6c-1.1,0-1.7-0.7-1.7-2c0-0.2,0-0.4,0-0.6
			c0-0.6,0-1,0-1.1c0-0.8-0.3-1.6-0.9-2.2c-0.6-0.6-1.3-0.9-2.1-0.9c-0.9,0-2.7,0.3-5.2,1c-2.5,0.7-5.1,1.5-7.8,2.4
			c-3.1,1.1-5.1,2-6.1,2.7c-1,0.7-1.5,1.6-1.5,2.8c0,1.1,0.6,2,1.8,2.8c1.4,0.9,2.3,1.6,2.6,2.2c0.3,0.6,0.4,1.9,0.4,3.8
			c0,3.5-0.1,6.9-0.3,10.1c-0.2,2.7-0.4,4.4-0.5,5.1c-0.2,0.7-0.7,1.3-1.4,1.8c-0.9,0.6-1.5,1.2-1.7,1.5c-0.2,0.4-0.4,0.9-0.4,1.5
			c0,3.2,3.9,4.9,11.8,4.9c4.9,0,8.5-0.4,10.8-1.2c2.3-0.8,3.5-2,3.5-3.7c0-0.6-0.2-1.2-0.5-1.7c-1.2-1.8-1.9-3-2.1-3.6
			c-0.2-0.6-0.3-1.8-0.3-3.4v-8.4c0-3.2,0.4-5.4,1.1-6.6c0.7-1.2,2-1.8,3.9-1.8c2,0,3.3,0.7,4.1,2.2c0.9,1.9,1.4,4.7,1.4,8.6
			c0,6.7-0.6,10.7-1.7,11.9c-1,1-1.5,1.7-1.7,2c-0.2,0.3-0.3,0.7-0.3,1.2c0,1.6,0.8,2.7,2.5,3.4c1.6,0.7,4.4,1,8.3,1
			c5.7,0,9.7-0.4,11.9-1.1c2.2-0.7,3.3-2,3.3-3.9c0-0.8-0.2-1.5-0.6-1.9C418,296,417.1,295,416.8,294.5z"/>
		<path d="M457.7,290.7c-0.4,0-0.8,0.1-1.3,0.4c-1.8,1-3.3,1.5-4.4,1.5c-1.3,0-2.4-0.5-3.2-1.6c-0.8-1.1-1.2-2.5-1.2-4.1v-14.3
			c0-0.8,0.1-1.3,0.4-1.6c0.3-0.3,0.8-0.4,1.6-0.4h7.7c1,0,1.8-0.3,2.2-0.8c0.4-0.5,0.6-1.5,0.6-2.8v-2.5c0-1.2-0.2-2.1-0.5-2.4
			c-0.3-0.4-1-0.6-2-0.6h-7.8c-0.9,0-1.4-0.1-1.7-0.4c-0.3-0.3-0.4-0.8-0.4-1.7v-0.2c14.1,0,34,0,34,0s-0.1-20.4,0.1-24.2
			c0.2-4.2,0-13.2,0-19.5c10.6,0,21.2,0,31.8,0c-0.1-7,0-31-0.1-34c-5.6,0-13.3,0.4-18.4,0.2c-1.6,0-3.8-0.3-5.7-0.8
			c-5.1-1.3-7.3-5.4-7.7-11.4c-0.1-1.1-0.2-1.9-0.2-3.5c0-2.3,0-4.5,0.2-6.5c10.6,0,21.3,0,31.9,0c0-11.9,0-35.8,0-35.8l-32.3,0.1
			c9.2-7.2,17.1-16.6,24-28.2c6.6-11.2,9.9-21.8,9.9-32c0-12.6-5.1-21.7-15.2-27.3c-7.7-4.2-16.1-6.3-25.4-6.3
			c-11.4,0-21.1,2.9-29.1,8.8c-7.6,5.4-11.3,13.1-11.3,23c0,5,0.9,9.7,2.8,14.3c1.9,4.6,4.5,8.5,7.9,11.6c4.5,4.3,10.5,6.4,17.9,6.4
			c0.9,0,1.6,0,1.9-0.1c2.5-0.3,4.1-0.4,4.7-0.4c1.9,0,2.8,0.9,2.8,2.6c0,2.2-1.1,5.1-3.4,8.6c-2.5,3.9-5.4,7-8.8,9.2
			c-2.7,1.8-4.1,3.2-4.1,4.2c0,1.4,2.1,3.3,6.2,5.5l-21.2,0.1c0,0,0.1,81-0.1,127.7c0,0-0.1,0-0.1,0.1l-19.4,12.2
			c-0.6,0.4-0.9,1-1,1.9v1.9c0,1,0.1,1.6,0.3,1.9c0.2,0.3,0.7,0.4,1.6,0.4h4.4c0.6,0,1.1,0.1,1.2,0.2c0.2,0.2,0.2,0.6,0.2,1.2v19.6
			c0,4.2,1.4,7.5,4.1,10.1c2.7,2.6,6.4,3.8,10.9,3.8c5.7,0,10.6-1.7,14.6-5.1c1.9-1.6,2.9-3.3,2.9-5c0-1-0.3-1.8-0.8-2.7
			C459,291.1,458.4,290.7,457.7,290.7z M470.2,70.9c-2.3-3.5-3.5-7.6-3.5-12.3c0-2.5,0.7-4.5,2-6.2c1.3-1.7,3-2.5,5-2.5
			c2.3,0,4.2,1,5.9,3c1.3,1.6,2.5,4,3.6,7.2c1.1,3.2,1.6,6,1.6,8.5c0,2.2-0.6,4-1.8,5.4c-1.2,1.4-2.7,2.1-4.6,2.1
			C475.3,76.1,472.5,74.4,470.2,70.9z"/>
		<path d="M504.1,264.2c-1.6-1.7-3.7-2.5-6.3-2.5c-3.6,0-6.6,1.8-8.8,5.3c-0.5,0.8-1,1.2-1.6,1.2c-0.7,0-1.2-0.6-1.3-1.9
			c-0.3-2.3-0.5-3.6-0.9-4.1c-0.3-0.4-1.2-0.6-2.7-0.6c-3,0-6.7,0.7-11.1,2c-3.2,1-5.6,1.9-6.9,2.9c-1.4,1-2.1,2.1-2.1,3.5
			c0,1.5,1,2.6,3,3.4c0.8,0.3,1.4,0.8,1.7,1.3c0.3,0.5,0.4,1.5,0.4,2.7c0,6.9-0.2,11.7-0.7,14.3c-0.1,0.8-0.3,1.4-0.6,1.8
			c-0.3,0.4-0.9,0.9-1.7,1.5c-1.7,1.2-2.5,2.5-2.5,3.9c0,1.9,1.2,3.3,3.5,4.1c2.6,0.9,6.4,1.3,11.4,1.3c5.2,0,9.2-0.3,11.9-0.8
			c1.4-0.3,2.4-0.9,3.3-1.7c0.8-0.9,1.2-1.9,1.2-3c0-1.9-1.3-3.2-3.8-4c-1.2-0.3-1.9-0.7-2.3-1c-0.4-0.3-0.6-0.9-0.8-1.8
			c-0.3-1.6-0.5-4.5-0.5-8.7c0-2.8,0.1-4.7,0.4-5.6c0.2-0.9,0.8-1.3,1.5-1.3c0.5,0,1.1,0.3,1.7,0.9c1.6,1.6,2.9,2.6,3.8,3.1
			s2.2,0.8,3.6,0.8c2.6,0,4.8-0.9,6.6-2.6c1-0.9,1.8-2.1,2.4-3.4c0.6-1.4,0.9-2.8,0.9-4.1c0-1.2-0.3-2.4-0.8-3.7
			C505.5,266.1,504.9,265.1,504.1,264.2z"/>
		<path d="M552.9,261.7c-3.2,0-5.8,0.4-7.7,1.3c-1.9,0.9-2.9,2-2.9,3.4c0,0.9,0.5,2,1.6,3.3c0.7,0.8,1.1,1.9,1.1,3.2
			c0,1.6-0.5,3.3-1.4,5c-0.9,1.7-1.8,2.6-2.7,2.6c-0.8,0-1.8-1-2.8-3c-1-1.8-1.6-3-1.9-3.7c-0.3-0.7-0.4-1.4-0.4-2.1
			c0-0.7,0.3-1.5,0.9-2.4c0.6-1,1-1.8,1-2.5c0-2-1.2-3.4-3.5-4.2c-1.7-0.6-4.1-0.9-7.1-0.9c-4.3,0-8.1,0.3-11.4,0.9
			c-5,0.9-7.5,2.6-7.5,5.1c0,0.6,0.2,1.3,0.6,1.9c0.4,0.7,0.9,1.1,1.5,1.3c1.8,0.8,3,1.5,3.6,2.1c0.5,0.6,1.3,2,2.4,4.2l10.2,21.7
			c1.5,3.1,2.2,5.3,2.2,6.6c0,1.1-0.3,2.1-0.9,2.8c-0.6,0.8-1.3,1.1-2.2,1.1c-1.1,0-1.8-0.6-2.1-1.9c-0.4-1.6-0.7-2.7-0.9-3.2
			c-0.2-0.5-0.6-1-1.2-1.7c-1.2-1.4-2.9-2-4.9-2c-2,0-3.7,0.7-5.1,2.2c-1.4,1.5-2.1,3.3-2.1,5.5c0,2.6,1,4.8,3,6.5
			c2.6,2.2,6,3.3,10.2,3.3c5.2,0,9.6-1.8,13.2-5.2c1.8-1.7,3.4-3.7,4.8-6.2c1.4-2.4,2.8-5.5,4.2-9.3l5.6-15.4c1.6-4.3,3-7.5,4.3-9.4
			c0.8-1.2,1.9-2,3.2-2.5c1.6-0.6,2.7-1.2,3.3-1.8c0.6-0.6,0.9-1.5,0.9-2.5C561.9,263.2,558.9,261.7,552.9,261.7z"/>
	</g>
</g>
</svg>
