<svg xmlns="http://www.w3.org/2000/svg" viewBox="0 0 285 217.67"><defs><style>.cls-1{fill:#224099;}.cls-2{fill:#0054a4;}.cls-3{fill:#fff;}</style></defs><title>Artboard 2</title><g id="Hits"><g id="Hits-2" data-name="Hits"><path class="cls-1" d="M94.74,116.17A3.13,3.13,0,0,1,91.6,113V50.08a3.14,3.14,0,0,1,3.14-3.15H126a3.16,3.16,0,0,1,3.14,3l2.39,63a3.14,3.14,0,0,1-3.14,3.26Z"/><path d="M128.4,118.67H94.74A5.65,5.65,0,0,1,89.1,113V50.08a5.65,5.65,0,0,1,5.64-5.65H126a5.62,5.62,0,0,1,5.63,5.43l2.4,63a5.64,5.64,0,0,1-5.64,5.85ZM94.74,49.43a.64.64,0,0,0-.64.65v63a.64.64,0,0,0,.64.64H128.4a.66.66,0,0,0,.46-.19A.65.65,0,0,0,129,113l-2.39-63a.65.65,0,0,0-.64-.62Z"/><path class="cls-1" d="M33.71,148.25a3.16,3.16,0,0,1-1.79-.56L11,133a3.12,3.12,0,0,1-1.34-2.5l-2.46-116a3.15,3.15,0,0,1,3.14-3.21,3,3,0,0,1,.73.09L38.49,18a3.14,3.14,0,0,1,2.39,2.72l2.94,27.73H46L41.1,9.4a3.14,3.14,0,0,1,3.11-3.53h8.48a3.13,3.13,0,0,1,1.05.18L86.88,17.83A3.11,3.11,0,0,1,89,20.55l7.14,94.11A3.14,3.14,0,0,1,93,118H58.51a3.14,3.14,0,0,1-3.12-2.74L51,80.63h-2.8l6.64,64.16a3.14,3.14,0,0,1-3.12,3.46Z"/><path d="M51.68,150.75h-18a5.63,5.63,0,0,1-3.22-1l-21-14.65a5.67,5.67,0,0,1-2.41-4.5l-2.46-116a5.65,5.65,0,0,1,7-5.61l27.46,6.59.29.07-.75-6a5.65,5.65,0,0,1,5.6-6.34h8.48a5.71,5.71,0,0,1,1.88.32L87.72,15.47a5.66,5.66,0,0,1,3.74,4.89l7.13,94.11A5.62,5.62,0,0,1,93,120.54H58.51A5.68,5.68,0,0,1,54.64,119l2.65,25.52a5.63,5.63,0,0,1-5.61,6.22ZM10.3,13.87a.64.64,0,0,0-.64.65l2.46,116a.6.6,0,0,0,.27.51l21,14.65a.66.66,0,0,0,.36.11h18a.64.64,0,0,0,.63-.71L45.38,78.13h7.78L57.87,115a.65.65,0,0,0,.64.56H93a.63.63,0,0,0,.47-.2.67.67,0,0,0,.17-.49L86.47,20.74a.65.65,0,0,0-.42-.56L52.9,8.41a.49.49,0,0,0-.21,0H44.21a.64.64,0,0,0-.48.22.6.6,0,0,0-.15.5L48.81,51H41.58L38.39,21a.63.63,0,0,0-.48-.55L10.45,13.89Z"/><path class="cls-1" d="M137.24,118.06a3.15,3.15,0,0,1-3.1-3.65l10.77-65.59H131.8a3.14,3.14,0,0,1-3.1-2.62l-.12-14.7-.26,14.66a3.13,3.13,0,0,1-3.1,2.66H94.61a3.14,3.14,0,0,1-3.14-3.14V21.25a3.14,3.14,0,0,1,3.14-3.14H207.67a3.14,3.14,0,0,1,3.14,3.14v7.84a53.94,53.94,0,0,1,7.19-.47,48.87,48.87,0,0,1,29.41,9.65,3.15,3.15,0,0,1,.74,4.3c-10.4,15.31-12.81,15.31-14.25,15.31a3.48,3.48,0,0,1-2.33-.88c-1.67-1.47-5.12-1.47-7.89-1.47-3.68,0-3.68,1-3.68,1.57a2.34,2.34,0,0,0,1,2c.68.56,2.67,1.87,8.39,4.45,7.59,3.4,12.85,6.55,16.08,9.65,4.88,4.6,7.36,10.08,7.36,16.26a22.48,22.48,0,0,1-3.58,11.71,29.39,29.39,0,0,1-9.06,9.37c-6.38,4.11-15,6.19-25.72,6.19a92.72,92.72,0,0,1-14.85-1.13c-4.19-.68-12-2.26-17.52-5.14a3.15,3.15,0,0,1-1.68-2.79V86.17A3.13,3.13,0,0,1,183.54,83a3.12,3.12,0,0,1,1.76.54,41.33,41.33,0,0,0,22,6.7c1.7,0,5.66-.18,5.66-1.81,0-.7-1.27-2.49-6-4.76-6.89-3.27-11.5-5.83-14.07-7.84-7-5.42-10.58-11.94-10.58-19.37a25.42,25.42,0,0,1,1.15-7.67h-3.92v66.1a3.14,3.14,0,0,1-3.14,3.14Z"/><path d="M176.42,120.56H137.24a5.65,5.65,0,0,1-5.57-6.56L142,51.32H131.8a5.61,5.61,0,0,1-3.29-1,5.56,5.56,0,0,1-3.29,1H94.61A5.65,5.65,0,0,1,89,45.68V21.25a5.65,5.65,0,0,1,5.64-5.64H207.67a5.65,5.65,0,0,1,5.64,5.64v5.06c1.53-.13,3.1-.19,4.69-.19a51.21,51.21,0,0,1,30.88,10.14A5.62,5.62,0,0,1,250.22,44c-10.32,15.19-13.39,16.4-16.32,16.4a6,6,0,0,1-4-1.5c-.92-.81-4-.85-6-.85a71.15,71.15,0,0,0,6.47,3.21c7.85,3.52,13.34,6.83,16.78,10.12,5.39,5.09,8.13,11.17,8.13,18.07a24.93,24.93,0,0,1-3.95,13,31.67,31.67,0,0,1-9.82,10.16c-6.8,4.38-15.91,6.6-27.09,6.6A95.23,95.23,0,0,1,199.2,118c-4.06-.66-11.45-2.15-17.14-4.83v1.71A5.65,5.65,0,0,1,176.42,120.56ZM131.2,45.91a.63.63,0,0,0,.6.41h16l-11.24,68.49a.64.64,0,0,0,.14.52.65.65,0,0,0,.49.23h39.18a.64.64,0,0,0,.64-.64V46.32h9.83l-1,3.26a23,23,0,0,0-1,6.91c0,6.62,3.23,12.47,9.61,17.39,2.4,1.88,7,4.42,13.61,7.56,5,2.37,7.46,4.73,7.46,7,0,2.86-2.75,4.31-8.16,4.31a43.89,43.89,0,0,1-23.45-7.13.57.57,0,0,0-.67,0,.64.64,0,0,0-.33.56v21.47a.64.64,0,0,0,.34.57c5.18,2.72,12.73,4.23,16.76,4.89a90,90,0,0,0,14.45,1.1c10.21,0,18.41-2,24.37-5.79a26.88,26.88,0,0,0,8.27-8.57,20,20,0,0,0,3.22-10.41A19.39,19.39,0,0,0,243.74,75c-3-2.9-8.06-5.9-15.39-9.17-4.57-2.07-7.58-3.68-8.95-4.81a4.78,4.78,0,0,1-1.9-3.9c0-2.7,2.08-4.07,6.18-4.07,3.19,0,7.17,0,9.54,2.1a1,1,0,0,0,.68.25c.94,0,3.78-1.85,12.18-14.21a.64.64,0,0,0-.15-.88A46.4,46.4,0,0,0,218,31.12a52.38,52.38,0,0,0-6.86.44l-2.83.38V21.25a.64.64,0,0,0-.64-.64H94.61a.64.64,0,0,0-.64.64V45.68a.64.64,0,0,0,.64.64h30.61a.65.65,0,0,0,.61-.44l.25-14.42,5,0Zm52.34,34.62a5.69,5.69,0,0,1,3.17,1,38.59,38.59,0,0,0,20.64,6.27c.64,0,1.2,0,1.68-.07A24.41,24.41,0,0,0,205.9,86c-7.05-3.34-11.81-6-14.53-8.12a30.48,30.48,0,0,1-9.31-11.12v14A5.68,5.68,0,0,1,183.54,80.53Z"/><path class="cls-2" d="M243.28,75.43q-4.41-4.22-15.2-9-7-3.14-9.09-4.89a5.46,5.46,0,0,1-2.13-4.4q0-4.71,6.82-4.71c3.46,0,7.44,0,10,2.26,1.57,1.38,11.91-13.84,11.91-13.84a45.52,45.52,0,0,0-27.55-9,47.48,47.48,0,0,0-10.33,1.07V21.25H94.61V45.68h30.61l2.91-19.14h.45l3.22,19.14h16.8l-11.36,69.24h39.18V45.68h11.86a21.07,21.07,0,0,0-2.81,10.81q0,9.66,9.38,16.89,3.54,2.78,13.49,7.48,7.82,3.75,7.81,7.6,0,5-8.8,5a44.22,44.22,0,0,1-23.81-7.24v21a60.64,60.64,0,0,0,16.56,5.32,88.72,88.72,0,0,0,14.35,1.09q15.2,0,24-5.67a26.4,26.4,0,0,0,8.1-8.39,19.28,19.28,0,0,0,3.12-10.07Q249.67,81.47,243.28,75.43Z"/><path class="cls-3" d="M177.92,116.42H135.47l11.37-69.24H130.53l-2.11-12.56-1.91,12.56H93.11V19.75H209.17V31a51,51,0,0,1,8.83-.74,47.18,47.18,0,0,1,28.44,9.34l1.17.85-.82,1.2c-9.91,14.59-12.15,14.59-12.89,14.59a1.88,1.88,0,0,1-1.25-.47c-2.13-1.88-5.92-1.88-9-1.88-5.32,0-5.32,2.25-5.32,3.21a4,4,0,0,0,1.58,3.24c1.32,1.08,4.26,2.65,8.76,4.68,7.42,3.32,12.53,6.37,15.62,9.33,4.54,4.29,6.85,9.37,6.85,15.08a20.82,20.82,0,0,1-3.34,10.85,27.87,27.87,0,0,1-8.56,8.86c-6.09,3.93-14.44,5.92-24.82,5.92A90.64,90.64,0,0,1,199.86,114a62,62,0,0,1-17-5.48l-.8-.42V83.34l2.34,1.59a43,43,0,0,0,23,7c7.3,0,7.3-2.59,7.3-3.45,0-1.88-2.47-4.09-7-6.24-6.79-3.22-11.3-5.72-13.77-7.66-6.6-5.09-9.95-11.17-9.95-18.07a23.14,23.14,0,0,1,1.87-9.31h-7.92Zm-38.91-3h35.91V44.18h16l-1.31,2.26A19.63,19.63,0,0,0,187,56.49c0,6,2.88,11.14,8.79,15.71C198,74,202.48,76.43,209,79.51c5.84,2.79,8.67,5.72,8.67,8.95,0,2.94-1.79,6.45-10.3,6.45a45.85,45.85,0,0,1-22.31-6v17.34A59.83,59.83,0,0,0,200.35,111a87.9,87.9,0,0,0,14.1,1.07c9.79,0,17.59-1.83,23.19-5.43a25,25,0,0,0,7.63-7.91,18,18,0,0,0,2.9-9.29c0-4.92-1.94-9.14-5.92-12.91-2.81-2.68-7.78-5.63-14.78-8.76-4.81-2.17-7.89-3.84-9.43-5.1a6.92,6.92,0,0,1-2.68-5.56c0-2.32,1.08-6.21,8.32-6.21,3.32,0,7.4,0,10.35,2.15,1.67-1.28,5.87-6.7,9.45-11.86A44.13,44.13,0,0,0,218,33.26a46.45,46.45,0,0,0-10,1l-1.83.4V22.75H96.11V44.18h27.82L126.84,25h3l3.22,19.14h17.3Z"/><polygon class="cls-2" points="94.74 50.08 94.74 118.03 128.4 118.03 126.01 50.08 94.74 50.08"/><path class="cls-3" d="M130,119.53H93.24V48.58h34.22Zm-33.71-3h30.61l-2.29-64.95H96.24Z"/><polygon class="cls-2" points="52.69 9.01 44.21 9.01 49.53 51.63 41 51.63 37.76 21.09 10.3 14.51 12.76 130.47 33.72 145.11 51.68 145.11 44.67 77.49 53.72 77.49 58.51 114.9 92.97 114.9 85.83 20.79 52.69 9.01"/><path class="cls-3" d="M53.34,146.61H33.24l-22-15.35L8.76,12.6l30.38,7.28,3.21,30.25h5.49L42.51,7.51H53L87.26,19.7l7.33,96.7H57.19L52.4,79H46.34Zm-19.15-3H50L43,76H55l4.79,37.41H91.35L84.41,21.87l-32-11.36H45.91l5.32,42.62H39.65L36.38,22.3,11.84,16.42l2.4,113.26Z"/></g></g><g id="_106" data-name="106"><g id="_106-2" data-name="106"><g id="_6_bg" data-name="6 bg"><path d="M203.25,212.68a23.51,23.51,0,0,1-8.47-1.51,25.25,25.25,0,0,1-6.9-3.94,24.45,24.45,0,0,1-5.26-5.82,22.71,22.71,0,0,1-3-6.77c-.32-1.26-.59-2.5-.83-3.69a12.87,12.87,0,0,1,.14-5.83l11.84-60.22a24.2,24.2,0,0,1,3.75-8.57,30.64,30.64,0,0,1,6.69-7.07,37.36,37.36,0,0,1,8.51-4.91,27.67,27.67,0,0,1,10.56-2.06h36.59a19.56,19.56,0,0,1,6.63,1.31c1.85.66,3.35,1.23,4.59,1.75a19.48,19.48,0,0,1,8.69,6.71,23.88,23.88,0,0,1,3.6,7.84,31.52,31.52,0,0,1,.92,10,20.38,20.38,0,0,1-3,9.36,18.66,18.66,0,0,1-7.55,6.76,24.51,24.51,0,0,1-10.3,2.38,19.63,19.63,0,0,1,6.68,5.16,24.53,24.53,0,0,1,4.75,9.6c.34,1.38.64,2.67.86,3.83a15.69,15.69,0,0,1,0,5.76l-3.4,17.28a23.54,23.54,0,0,1-3.9,8.66,32.1,32.1,0,0,1-6.71,7,35.88,35.88,0,0,1-8.76,4.94,28.84,28.84,0,0,1-10.65,2Zm18.86-25.08a8.72,8.72,0,0,0,4.95-1.1A9,9,0,0,0,229.9,183a18.21,18.21,0,0,0,1.55-5.67c.29-2.39.59-4.72.9-6.92a15.85,15.85,0,0,0-2.59-.2,14.32,14.32,0,0,0-6.07,1.28,2.33,2.33,0,0,0-1.58,1.84l-2.55,14.25Zm23.7-42.73a15,15,0,0,1-5.3-8.28,13.77,13.77,0,0,1,.41-8.42,1.49,1.49,0,0,0,.1-.72l-.43-.07H238c-3.37,0-4.82.68-5.38,1.08a7.15,7.15,0,0,0-2.52,3.13,22.39,22.39,0,0,0-1.48,5.89c-.27,2.33-.6,4.69-1,7l.09.36Z"/></g><g id="_0_bg" data-name="0 bg"><path d="M193.57,124c-.19-1.29-.46-2.61-.78-3.93l-.09-.34c-.13-.49,1.73-2.18,1.61-2.68-.27-1.1-2.64-.27-2.81-.72a19.09,19.09,0,0,0-2.3-4.12l-.37-.6c-2.72-1-4.1-1.39-6-2.33l-.87-.46c-.33-.39-.31-2-.31-2.89-.4-.19-.8-.38-1.21-.55-1.23-.51-2.73-1.09-4.59-1.75a19.56,19.56,0,0,0-6.63-1.31H132.65a28.29,28.29,0,0,0-10.88,2.14,34.75,34.75,0,0,0-8.76,5.22,31.71,31.71,0,0,0-6.56,7.36,25.12,25.12,0,0,0-3.6,8.75l-11.6,59.66a15.86,15.86,0,0,0-.06,5.24c.2,1.32.47,2.66.8,4a22.69,22.69,0,0,0,3,6.76,24.48,24.48,0,0,0,5.26,5.83,25.4,25.4,0,0,0,6.9,3.94,23.56,23.56,0,0,0,8.48,1.51h36.08a28.84,28.84,0,0,0,10.65-2,35.88,35.88,0,0,0,8.76-4.94,32.16,32.16,0,0,0,6.72-7,23.61,23.61,0,0,0,3.89-8.68l11.79-60.93A16.09,16.09,0,0,0,193.57,124Zm-51.52,59.74a3.33,3.33,0,0,1-1.77,2.52,11.34,11.34,0,0,1-5.82,1.37h-2.53l10.74-56.69a2.89,2.89,0,0,1,1.78-2.18,12.73,12.73,0,0,1,5.93-1.36H153Z"/></g><path d="M65.88,212.68a6.45,6.45,0,0,1-2-.33,21.46,21.46,0,0,1-7.26-3.78,14.35,14.35,0,0,1-4.8-7.75l-.42-1.68a10.07,10.07,0,0,1,0-4.38l10.91-57.57a20.64,20.64,0,0,1-3.68-1.41A11.41,11.41,0,0,1,52.76,128a11,11,0,0,1,.72-7.69,29.47,29.47,0,0,1,2.17-3.65c6.94-9.57,17.61-14.39,31.76-14.39h5a6.67,6.67,0,0,1,2.27.4,23.24,23.24,0,0,1,7,3.84,14.36,14.36,0,0,1,4.81,7.75,16,16,0,0,1,.42,2.32,11.87,11.87,0,0,1-.09,2.89c0,.14,0,.14-15.5,80.39l0,.14a14.32,14.32,0,0,1-9.12,10.41,32.1,32.1,0,0,1-11.84,2.25Z"/><g id="_6" data-name="6"><path class="cls-3" d="M202.67,209.32a20,20,0,0,1-7.16-1.25,21.27,21.27,0,0,1-5.75-3.28,19.86,19.86,0,0,1-4.32-4.79,19,19,0,0,1-2.48-5.6c-.29-1.19-.56-2.37-.78-3.52a9.66,9.66,0,0,1,.13-4.51l11.85-60.32a21.61,21.61,0,0,1,3.33-7.56,28.12,28.12,0,0,1,6.12-6.46,33.83,33.83,0,0,1,7.89-4.54,24.41,24.41,0,0,1,9.39-1.85h36.59a16.3,16.3,0,0,1,5.39,1.09c1.81.65,3.24,1.2,4.38,1.68a15.13,15.13,0,0,1,6.82,5.19,19.75,19.75,0,0,1,3,6.54,27.82,27.82,0,0,1,.83,9,17.73,17.73,0,0,1-2.59,8.1,15.89,15.89,0,0,1-6.5,5.79,22.39,22.39,0,0,1-10.14,2.08h-4.49a3.08,3.08,0,0,1-.61-.06c-6.6-1.36-8.94-5.47-9.74-8.68a10.8,10.8,0,0,1,.33-6.57,4.32,4.32,0,0,0-1.13-4.89,2.17,2.17,0,0,0-1.73-.74,3.16,3.16,0,0,1-.81-.11c-.17,0-.52,0-1.22,0h-1.83c-3.22,0-5.61.55-7.1,1.62a9.79,9.79,0,0,0-3.42,4.26,24.93,24.93,0,0,0-1.67,6.65c-.3,2.51-.66,5-1.08,7.55l.34,1.35a6.25,6.25,0,0,0,1.21,2.16,1.4,1.4,0,0,0,1.3.63H248.8c.44,0,.57,0,3.28.74l3.35.9.1,0c4,1.2,7.1,3,9.08,5.48a20.39,20.39,0,0,1,4,8.05c.34,1.34.62,2.57.83,3.66a12.77,12.77,0,0,1,0,4.61L266,188.91a20.75,20.75,0,0,1-3.46,7.61,29.64,29.64,0,0,1-6.16,6.41,33.22,33.22,0,0,1-8.1,4.56,25.57,25.57,0,0,1-9.51,1.83Zm20-18.37c3,0,5.24-.55,6.71-1.65a11.53,11.53,0,0,0,3.66-4.48,21.45,21.45,0,0,0,1.79-6.54c.32-2.69.66-5.31,1-7.79l-.24-1c-.41-1.61-1.1-1.84-1.44-1.94a16.3,16.3,0,0,0-5-.7,17.38,17.38,0,0,0-7.35,1.55,5,5,0,0,0-3.08,3.76l-2.86,16,0,.11c.25,1,.84,2.09,3.29,2.64Z"/></g><g id="_6-2" data-name="6"><path d="M185.88,193.67c-.28-1.12-.54-2.25-.76-3.37a6.63,6.63,0,0,1,.11-3.23l11.87-60.44a18.4,18.4,0,0,1,2.88-6.46,24.78,24.78,0,0,1,5.46-5.76,31.32,31.32,0,0,1,7.2-4.15,21.4,21.4,0,0,1,8.25-1.62h36.59a13.41,13.41,0,0,1,4.38.92c1.71.61,3.12,1.14,4.23,1.61a12.27,12.27,0,0,1,5.52,4.15,16.62,16.62,0,0,1,2.55,5.55,24.93,24.93,0,0,1,.75,8,14.73,14.73,0,0,1-2.14,6.75,13,13,0,0,1-5.31,4.71,19.46,19.46,0,0,1-8.79,1.75h-4.49c-4.1-.84-6.57-3-7.44-6.46a7.83,7.83,0,0,1,.22-4.78,7.83,7.83,0,0,0,.23-4.78,7.65,7.65,0,0,0-2-3.23,5.15,5.15,0,0,0-3.92-1.69,7.09,7.09,0,0,0-2-.14h-1.83q-5.82,0-8.85,2.18a12.79,12.79,0,0,0-4.44,5.55,28,28,0,0,0-1.88,7.45q-.48,4.08-1.16,8l.49,2a9.31,9.31,0,0,0,1.72,3.23,4.37,4.37,0,0,0,3.7,1.83H248.8q.16,0,2.49.63c1.54.42,2.67.73,3.39.91q5.2,1.54,7.6,4.5a17.44,17.44,0,0,1,3.38,6.89c.33,1.31.59,2.48.8,3.51a9.72,9.72,0,0,1,0,3.52L263,188.33a17.7,17.7,0,0,1-3,6.46,26.33,26.33,0,0,1-5.55,5.77,30,30,0,0,1-7.36,4.14,22.66,22.66,0,0,1-8.41,1.62H202.67a17,17,0,0,1-6.09-1,18.34,18.34,0,0,1-4.94-2.82,16.72,16.72,0,0,1-3.67-4.07A15.41,15.41,0,0,1,185.88,193.67Zm33,.28h3.82q5.49,0,8.5-2.25a14.57,14.57,0,0,0,4.59-5.62,24.44,24.44,0,0,0,2.05-7.45c.32-2.71.66-5.34,1-7.87.09-.09.06-.42-.08-1l-.24-1a5.19,5.19,0,0,0-3.43-4.07,19.48,19.48,0,0,0-6-.84,20.42,20.42,0,0,0-8.61,1.82,8,8,0,0,0-4.76,5.91l-2.92,16.3q-.16,0-.06.42l.17.7Q214,193,218.88,194Z"/></g><g id="_0" data-name="0"><path class="cls-3" d="M190.17,123.88a36.12,36.12,0,0,0-.71-3.59,20.13,20.13,0,0,0-2-5c-1.87-2.43-5.39-3.39-7.89-4.24-1.62-.46-1.71-3.06-1.71-3.33-.7-.27-1.75-.67-2.63-1a16.3,16.3,0,0,0-5.39-1.09H133.24a25.25,25.25,0,0,0-9.71,1.92,31.83,31.83,0,0,0-8.07,4.81,29.13,29.13,0,0,0-6,6.75,22.51,22.51,0,0,0-3.22,7.78L94.63,186.53a12.69,12.69,0,0,0,0,4.22c.18,1.2.42,2.43.73,3.65a18.82,18.82,0,0,0,2.47,5.6,20.28,20.28,0,0,0,4.32,4.79,21.27,21.27,0,0,0,5.75,3.28,20,20,0,0,0,7.16,1.25h36.09a25.76,25.76,0,0,0,9.51-1.82,33.25,33.25,0,0,0,8.1-4.57,29.91,29.91,0,0,0,6.17-6.41,20.93,20.93,0,0,0,3.45-7.62L190.12,128A12.64,12.64,0,0,0,190.17,123.88Zm-33.68,3.87-11.06,57.08a6,6,0,0,1-3.05,4.36,14.26,14.26,0,0,1-7.33,1.76h-3.51c-2.45-.55-3-1.64-3.28-2.64l0-.11,11.07-58.45a5.55,5.55,0,0,1,3.16-4,15.62,15.62,0,0,1,7.33-1.7h1.83c.7,0,1,0,1.22,0a1.86,1.86,0,0,0,.41.08,4.29,4.29,0,0,1,2.15.91,2.71,2.71,0,0,1,1,1.49,5.81,5.81,0,0,1,.16.82A2.67,2.67,0,0,1,156.49,127.75Z"/></g><g id="_0-2" data-name="0"><path d="M98.23,193.67c-.28-1.12-.51-2.25-.68-3.37a9.7,9.7,0,0,1,0-3.23l11.58-59.59a19.64,19.64,0,0,1,2.81-6.75,25.67,25.67,0,0,1,5.4-6,28.61,28.61,0,0,1,7.31-4.36,22,22,0,0,1,8.56-1.69h36.59a13.36,13.36,0,0,1,4.38.92,43,43,0,0,1,4.32,1.74,13.92,13.92,0,0,1,5.45,4.09,17.27,17.27,0,0,1,2.57,5.62,32,32,0,0,1,.65,3.3,9.62,9.62,0,0,1,0,3.17l-11.77,60.85a17.7,17.7,0,0,1-3,6.46,26.33,26.33,0,0,1-5.55,5.77,30,30,0,0,1-7.36,4.14,22.66,22.66,0,0,1-8.41,1.62H115a17,17,0,0,1-6.09-1,18.34,18.34,0,0,1-4.94-2.82,16.72,16.72,0,0,1-3.67-4.07A15.41,15.41,0,0,1,98.23,193.67Zm33,.28h3.82a17,17,0,0,0,8.85-2.18,9,9,0,0,0,4.48-6.39l11.05-57.06a3.81,3.81,0,0,0,.1-1.27,9,9,0,0,0-.23-1.26,5.59,5.59,0,0,0-2-3.09,7.24,7.24,0,0,0-3.63-1.55,7.09,7.09,0,0,0-2-.14h-1.83a18.53,18.53,0,0,0-8.72,2,8.54,8.54,0,0,0-4.71,6.11l-11.13,58.75q-.17,0-.06.42l.17.7Q126.33,193,131.23,194Z"/></g><path class="cls-3" d="M65.29,209.32a3.09,3.09,0,0,1-.91-.14,17.42,17.42,0,0,1-5.86-3,10.32,10.32,0,0,1-3.41-5.59l-.42-1.69a7,7,0,0,1,0-3l11.13-58.73c0-.14.07-.28.11-.42a2.15,2.15,0,0,0,.07-.24,7.43,7.43,0,0,0-.18-.87,2,2,0,0,0-.31-.77,13.48,13.48,0,0,0-2.3-.76,16.75,16.75,0,0,1-3.57-1.28,7.17,7.17,0,0,1-3.59-5.06,7.84,7.84,0,0,1,.52-5.59,27.63,27.63,0,0,1,2-3.32C65,110.08,74.85,105.64,88,105.64h5a2.92,2.92,0,0,1,1,.18,19.16,19.16,0,0,1,5.78,3.11,10.26,10.26,0,0,1,3.41,5.59,12.21,12.21,0,0,1,.34,1.84,8.66,8.66,0,0,1-.08,2.12.77.77,0,0,1,0,.15S88,198.81,88,198.84a11.65,11.65,0,0,1-7.47,8.44,28.84,28.84,0,0,1-10.71,2Z"/><g id="_1" data-name="1"><path d="M57.6,198.17a4.22,4.22,0,0,1,.08-1.69l11.13-58.74a3.48,3.48,0,0,0,.23-1.41,9.64,9.64,0,0,0-.27-1.41,3.76,3.76,0,0,0-1.93-2.74,16.23,16.23,0,0,0-2.9-1,13.34,13.34,0,0,1-2.93-1,4.36,4.36,0,0,1-2-3.1,4.91,4.91,0,0,1,.28-3.51,25,25,0,0,1,1.76-3q8.67-11.94,27-12h5a16.57,16.57,0,0,1,4.89,2.6,7.33,7.33,0,0,1,2.41,4,10.78,10.78,0,0,1,.27,1.4,6.54,6.54,0,0,1-.07,1.41L85,198.17a8.63,8.63,0,0,1-5.65,6.32,25.85,25.85,0,0,1-9.61,1.83H65.29a14.33,14.33,0,0,1-4.86-2.46,7.36,7.36,0,0,1-2.41-4Z"/></g></g></g></svg>