<svg id="Layer_8" data-name="Layer 8" xmlns="http://www.w3.org/2000/svg" viewBox="0 0 697.47 362.98"><defs><style>.cls-1,.cls-5{fill:#fff;}.cls-2{fill:#424979;}.cls-2,.cls-5,.cls-7{fill-rule:evenodd;}.cls-3,.cls-7{fill:#bc3a3b;}.cls-4{fill:#010101;}.cls-6{fill:#30324b;}</style></defs><title>Artboard 1</title><path class="cls-1" d="M650.45,120.93c-.07-1.14-.08-3.9-.08-6.44l38.36.07-.06-52.32-33.13-.09a18.51,18.51,0,0,0,11.6-7.29c3.43-4.66,5.17-11.22,5.17-19.49,0-8.11-1.68-14.61-5-19.32-3.67-5.17-9.31-7.9-16.32-7.9s-12.69,2.75-16.34,8a24.66,24.66,0,0,0-1.46,2.58,14.6,14.6,0,0,0-4.68-6.43c-3.47-2.73-8.17-4.11-14-4.11a21.25,21.25,0,0,0-13.3,4.14,15.38,15.38,0,0,0-4.59,5.7,18.37,18.37,0,0,0-1.88-2.91c-3.85-4.6-9.28-6.93-16.13-6.93a20.68,20.68,0,0,0-12.47,3.73v-3H535.62l-6,15.92-6-15.92H452.87V26.26h4.41l-6,18.42h-7.23V62c-8,0-15,0-21.15.09a19,19,0,0,0,10.45-5.22,19.45,19.45,0,0,0,5.53-14,19,19,0,0,0-5.19-13.43l-.27-.29h3.18V8.89H400.24L398.72,32.8H383.15a14.69,14.69,0,0,0,2.52-8.27,15,15,0,0,0-5.81-12.27c-3.47-2.73-8.17-4.11-14-4.11a21.3,21.3,0,0,0-13.31,4.14A15.43,15.43,0,0,0,348,18a19.15,19.15,0,0,0-1.89-2.91c-3.85-4.6-9.28-6.93-16.13-6.93-6.15,0-11.13,1.9-14.78,5.64a19.28,19.28,0,0,0-5.46,14c0,5.44,1.69,9.89,5,13.24l-4.6.41.42,5c.44,5.23,2.46,9.33,6,12.18a18,18,0,0,0,2.77,1.8c-16.53.17-16.58,1-16.58,5.13,0,.36.4,35.87,0,48.82-.14,2-.92,4.33-2.31,4.48a69.13,69.13,0,0,1-7.73.38c-1.41,0-4.48,0-4.61-.06V117c0-30.78-.08-107.83-.08-107.83v-5l-61.53,0s0,30.32,0,66.75c-1.62-.09-3.28-.15-4.87-.15-.68,0-1.34,0-2,0-.42-.49-.88-1-1.39-1.5l-.53-.55-1.83-1.53a38.33,38.33,0,0,0-22.7-9.91,42.4,42.4,0,0,0-5.52-.31,48.58,48.58,0,0,0-5.26.25,46.15,46.15,0,0,0-19,5.46l-.7.38c-.63.36-1.22.74-1.79,1.11a4.21,4.21,0,0,1-1.44.71.28.28,0,0,1-.13,0,2.69,2.69,0,0,1-1.47-2.15c-.92-3.95-.92-3.95-17.2-3.95l-44.51,0-1.46,2.52a21.68,21.68,0,0,0-1.41,3.23c-.06.18-.14.39-.22.61-.6-.23-1.31-.57-1.93-.87a27.31,27.31,0,0,0-3.7-1.53,25.66,25.66,0,0,0-7.87-1.13,26.54,26.54,0,0,0-7.2.87A30.15,30.15,0,0,0,53.8,74.1,21.92,21.92,0,0,0,52.52,76L52,76.7A12.81,12.81,0,0,0,50.73,79a17,17,0,0,0-1,2.59c-.09.27-.41,1.16-.41,1.16l-.08.32a48.56,48.56,0,0,0-1,17.92,37.24,37.24,0,0,0,5,13.82,34.41,34.41,0,0,1-2.55,3.63c-2.35,3.06-5,6.53-5.39,11.22a28.1,28.1,0,0,0,.7,7.09l1.42,8.07c2.19,12.47,4.45,25.32,5.33,38-1.08,0-2.1,0-3.09,0a86.07,86.07,0,0,0-16.2,1.46,33,33,0,0,0-4.95,1.34c-12.09,3.7-18.89,11.57-20.23,23.6a71.68,71.68,0,0,0,0,11.84c3.23,24.46,29.74,25.29,41.13,25.32a81.51,81.51,0,0,0-3.77,7.72,16.76,16.76,0,0,0-.62,1.8C42.93,262,40,273.08,44.19,279c2.45,3.48,7.61,5.13,16.09,5.17,3,.1,5.7.13,8.41.13,2.42,0,4.82,0,7.41-.06,6.62-.09,12.44-.3,16.45-1.89,8.1-3.23,11.12-11.67,13.32-17.83l.66-1.8c2.29-6.22,5.69-10.66,10.38-13.59a28.57,28.57,0,0,0,0,2.88c.39,6,2.31,12.31,5,16.45l.6.92-.2.38,2.31,2.63c4.68,5.33,8.14,8,13.72,10.64,1.39.64,2.9,1.29,4.09,1.73a69.18,69.18,0,0,0,17.67,4.35,103.09,103.09,0,0,0,12.11.93l2.83.07c1.95.06,3.89.11,6,.11l2.74,0c4.23-.1,8.08-.52,12-1a74.21,74.21,0,0,0,9.19-1.93c3-.79,4.37-3.19,5.58-5.31a101.94,101.94,0,0,0,8.93-22.14,28.78,28.78,0,0,0,10.64,18.45,31.71,31.71,0,0,0,20.81,7.17,33.84,33.84,0,0,0,18-4.76,22.39,22.39,0,0,0,6.26-5.61,15.45,15.45,0,0,0,2-3.54c.41.66.79,1.33,1.26,1.95l-.66.7.17,23.64,11.86,7.59,7.11,1L294.07,310a28.56,28.56,0,0,1-8.49-1.76l-1.24-.46-19.9,2.94-8.33,11.95,7.5,13.11,12.74-1.07a11.26,11.26,0,0,0,5.14,1.23c4.38,0,9.93-1.79,17.36-5.62a46,46,0,0,1,15.26,7.09l2.77,2.58,3-2.53a5.23,5.23,0,0,1,1-.27,32.55,32.55,0,0,1,5.61-.32l10.78-.66,1.9-1.87L354,335.61l8.7-2.55,6.85-2.61,2.54,4.22,8.09,1.86,1.3-.09-4.2,6a22.42,22.42,0,0,1-1.9,2v-1.5c0-3.92-2.68-7.88-8.69-7.88a10.79,10.79,0,0,0-7.76,3.24,10.25,10.25,0,0,0-3.22,7.33v1.3l5.19,9.37,15.19,4,8.11-.7,10.7-5.11,19.78-20.74,4.52-5.08,1.13,5.36,19,1.61,8.71-2.55.87-.33,4,3.82,10.16.34,10.61-.49v-5.56a32,32,0,0,0,3.57-5.3l4.45,9.15,10,3.62L503,334l.62-.5c1.67-1.34,3.35-2.74,5-4.23a22.8,22.8,0,0,0,8.28,7.09l1.76.89,1.9-.56c8.09-2.35,10.4-3.25,11.57-3.8a23.85,23.85,0,0,0,3.18-1.88l1.14,2.06,9.21,3,14.63-2.16,0,0a22.67,22.67,0,0,0,8.75,2.61l12.19.5,1.58-1.74c4.71-5.14,9.19-9.72,13.33-13.59l1-.92,7.12-23.24-4.17,2.79c.36-1.27.84-2.75,1.51-4.48l1-2.49a27.87,27.87,0,0,0,13-6.11,34.54,34.54,0,0,0,6.6-7.55A62.91,62.91,0,0,0,627.58,269L634.19,253c2.15-5.16,3.61-7.6,4.44-8.71a2.42,2.42,0,0,1,1.27-.87,15,15,0,0,0,5.87-3,8.4,8.4,0,0,0,2.69-6.34,9.8,9.8,0,0,0-.14-1.6h1.92V180.48l37.75.06.07-50.41H658.35C653.51,129.89,651,128.41,650.45,120.93ZM651,28.26a48.18,48.18,0,0,1,.43,7.11,49,49,0,0,1-.5,6.72,50.11,50.11,0,0,1-.37-6.69A48.56,48.56,0,0,1,651,28.26ZM221.57,167.65c.65-.2,1.24-.38,2.05-.67l2.84-1c0,15.73,0,26.64,0,28.36-.65,0-1.36-.05-2.14-.05s-1.64,0-2.48.06v-.5a232.17,232.17,0,0,0-2.16-25.55Zm.9,73.42c.05-2,0-3.94,0-6l0-1.24c1.06,0,2.1,0,3,0h1.08v.09H228A29.64,29.64,0,0,0,222.47,241.07Zm39,18.08a12.5,12.5,0,0,1-3,.28,6.46,6.46,0,0,1-5.11-2.14,10.16,10.16,0,0,1-3-7.24,4.24,4.24,0,0,1,.8-2.8,2.07,2.07,0,0,1,.64-.58,2.37,2.37,0,0,1,.37.81c1.31,4.06,2,5.37,2.58,6.2a11.71,11.71,0,0,0,8.09,5A11.15,11.15,0,0,1,261.47,259.15Zm10.18-1.69a14.14,14.14,0,0,0,1.34-.89c0,.59.12,1.13.16,1.71A9.13,9.13,0,0,0,271.65,257.46Zm6.06,65.71a10.12,10.12,0,0,1-2.66-.31h0c.19-.12,1.18-.65,4.16-.65a9.13,9.13,0,0,1,2.25.37A11.72,11.72,0,0,1,277.71,323.17Zm29.92-69.23c.31,1.48.54,2.88.71,4.21l-.76.14c-.41-1.42-.8-2.92-1.15-4.53a35.55,35.55,0,0,1-1-7.12A36.2,36.2,0,0,1,307.63,253.94Zm-28.8-15.75a16.85,16.85,0,0,0-2.45-4.17l6.36,0A31.07,31.07,0,0,0,278.83,238.19ZM288,230c0-9.42-.07-32.25-.09-33.34l5,9.08c4.82,9,8,14.88,10.13,18.81A37.54,37.54,0,0,0,288,230Zm21.37,58.39a11.11,11.11,0,0,0-3.83,3.21c-5-1.61-6.6-4.09-7-6.61a41.19,41.19,0,0,0,6.09.47,43.53,43.53,0,0,0,7-.57C310.88,286.07,310.13,287.16,309.38,288.39ZM606.19,30.74v7.48l-6.08.45c.07-1.09.13-2.18.13-3.37,0-1.79-.13-3.4-.26-5Zm-27.78-5.56a2.15,2.15,0,0,1,.36.55,10.77,10.77,0,0,1,1,3.44,6.14,6.14,0,0,1-1.14.16,3.35,3.35,0,0,1-.52-2.14A5.09,5.09,0,0,1,578.41,25.18Zm-12.24,34A18.59,18.59,0,0,0,572.8,62l-6.63,0ZM560.6,37a16.07,16.07,0,0,0,2.82,4l-2.82.25ZM493.5,26.26h5.57V44.68H496l-6.43-18.42Zm0,35.8h28.3v-.93l.35.93h11.64l.61-1.64v1.64H563l-67.84.18L495,214.63l-4.9,3.07.07-155.62-5,0h8.33Zm33,186.18c0,7.12-.21,11.31-.36,13.79a7.4,7.4,0,0,0-10-2.2,18.16,18.16,0,0,1-2.51,1.17,3.36,3.36,0,0,1-.39-1.78v-14.3h6.42a10.08,10.08,0,0,0,2.61-.34,11.12,11.12,0,0,0,4.26,3.26C526.52,248,526.52,248.09,526.52,248.24Zm-84.76,5.82c0-3.33.36-4.71.26-4.91.15,0,.39-.11.82-.21.41.85,1.1,3,1.1,8a55.3,55.3,0,0,1-.69,10.63l0,0c-.16.17-.3.34-.45.49a17.76,17.76,0,0,1-.92-1.55,13.16,13.16,0,0,1-.14-2.53ZM422.85,114.62c1.48-.15,3.18-.19,4.91-.19l4.53,0c.09,3.6.06,7.36,0,11l0,5H416.21v-9.63C417.06,117.66,419.08,115.74,422.85,114.62ZM415.36,42c.78-1.15,1.26-1.15,1.51-1.15a5.27,5.27,0,0,1,.7,0h0a5.42,5.42,0,0,1,.4,2.55,3.47,3.47,0,0,1-.38,2,1.8,1.8,0,0,1-.94.16,1.87,1.87,0,0,1-.69-.09,3.75,3.75,0,0,1-.58-1.79l-.21-1.43ZM414.2,179.66l18.81,0,.11,44.85s-.08,0-.12,0c-1.07,0-2.87.16-7.4,1.35q-4.64,1.23-9.68,3c-.65.23-1.19.44-1.76.66ZM380.84,58.15a16,16,0,0,0,5.21-6.9H398a18.11,18.11,0,0,0,5.08,6.92,19.36,19.36,0,0,0,9.41,4c-4.84.07-8.82.16-11.74.26-15.86.58-28,9.08-35,23.77,0-11-.07-20-.07-20.84l0-2.83c.24,0,.43.06.67.06A23.51,23.51,0,0,0,380.84,58.15Zm25.49,188a10.34,10.34,0,0,0,1.81,1.51,12.41,12.41,0,0,1,1.1.74c0,.41.07,1.09.07,2.14,0,4.07-.11,8-.33,11.65-.09,1.36-.16,2.32-.22,3a10.44,10.44,0,0,0-2.38-1.6l-.05,0Zm-.05-13.82H408c-.19.13-.42.25-.58.37a11.06,11.06,0,0,0-1,.91A10.66,10.66,0,0,0,406.28,232.34Zm-32.19,22c0,6.81-.58,8.47-.95,8.64,0,0-.63-.84-.63-3.78V243.74c.35.22,1.15.67,1.18.69A77.17,77.17,0,0,1,374.09,254.31ZM364.71,42.89a3.07,3.07,0,0,1,1.4.22,1.46,1.46,0,0,1,.36,1.17c0,.8-.22,1-.34,1.16s-.25.27-.84.27a3.75,3.75,0,0,1-.72-.07h0s-.46-.57-.5-2.59V42.9Zm-7.16-12.15v7.48l-6.07.45c.06-1.09.12-2.18.12-3.37,0-1.79-.12-3.4-.26-5Zm-10.1,22.44a16.85,16.85,0,0,0,7.76,7.18H339.54A18.65,18.65,0,0,0,347.45,53.18ZM338.52,165a49,49,0,0,0,6.67-3.58l.95-.57a36,36,0,0,0,11.47-10.81c.09,5.06.25,10,.43,14.48v38.11c-2.76-5.14-5-9.38-5.44-10.21-.84-1.68-2.57-5-4.42-8.47-2.45-4.63-5.11-9.67-6.1-11.77-.25-.52-.68-1.37-1.21-2.42-.68-1.34-1.54-3-2.37-4.75Zm2.16,113.73a40,40,0,0,1,2.72-4.06,17.81,17.81,0,0,0,1.51,2.73c0,.06.11.1.15.16a26.59,26.59,0,0,1-5.22,5.1,15.49,15.49,0,0,1-1.26.93Zm-1.16-34.45.11.07c.47.25.55.46.6.58a12,12,0,0,1,.39,3A29.37,29.37,0,0,0,339.52,244.31Zm-5-10.36a8.55,8.55,0,0,0-.32,1.36c-.38-.46-.75-.93-1.16-1.37ZM329.77,25.18a2,2,0,0,1,.37.55,11,11,0,0,1,1,3.44,6.26,6.26,0,0,1-1.14.16,3.63,3.63,0,0,1-.52-2.14A5.15,5.15,0,0,1,329.77,25.18Zm36.64,292.9-1.94,2.23a12,12,0,0,1-4.28,2.65,19.84,19.84,0,0,1-2.92,1.15l-.4.11c.14-.5.34-1.15.64-1.93l2.67-3.08.73-.21q3-.86,5.7-1.74ZM447,322.23c-.45.24-.93.48-1.52.73a20.2,20.2,0,0,1-2.91,1.15l-.41.11c.13-.5.34-1.13.63-1.91l2.68-3.08.74-.21v0c.46-.13.86-.27,1.31-.4Zm3.11-2.34-1.63-1.59c1.4-.42,2.84-.84,4.14-1.27ZM481.9,317l-4,7a48.85,48.85,0,0,0,2.67-6.71l2.3-2.07.17.2Zm71.75-30.43s-2.38,3.5-3.25,4.81a9.53,9.53,0,0,0-1.75-.91,18,18,0,0,0-6.49-1.51h-.67l-14.66,1.87L525.62,292c-2.56,2.5-4.88,4.91-7,7.26l-2.35-7-11.23-1-2.51-.51h-.51a20.44,20.44,0,0,0-8.63,2.22l-1.36-5.52-4,3-2.15-1.76-9.81,3.66h-1.95l-6.78-3.39v1.54l-12.77-.16a14.71,14.71,0,0,0-4.27-.55,33.63,33.63,0,0,0-13.95,3.5l-.87-.39L431,285.34l-2,3.72-1.49.33-5.68-.39-7.21,3.25-1.89.42-1.7-3.06h-3a41.15,41.15,0,0,0-7.35.9c-2.91.55-6.21,1.3-9.91,2.22l-1.3.32-4.61,4.42-2.23-7-13.31-.17a14.8,14.8,0,0,0-4.27-.55c-7.85,0-16.38,3.55-26.08,10.84l-1.15.87-.52,1.34c-2.22,5.69-3.85,10.37-5,14.31l-2,.35-5.14,1a29,29,0,0,1-7-1.43l-.43-.16a35.64,35.64,0,0,0,4.19-4.13,43.36,43.36,0,0,0,3.94-5.49c.89-1.48,1.8-3,2.75-4.43a23,23,0,0,1,4.95-2.29l8.12-2.81,5.74-4.19,5.37-4.2,4.08-4.71a31.57,31.57,0,0,0,5.76.51,23.87,23.87,0,0,0,12.91-3.8,6.92,6.92,0,0,0,2.37,2.52,10.81,10.81,0,0,0,6,1.33,58.69,58.69,0,0,0,13.25-1.58,31.6,31.6,0,0,0,9.18-3.42c2.79,3.3,8.39,5,16.9,5,6.43,0,11.16-.55,14.47-1.67a13.19,13.19,0,0,0,4.41-2.44,10.64,10.64,0,0,0,3.61,2.46c2.59,1.09,6.33,1.6,11.74,1.6,7.48,0,12.48-.49,15.71-1.56,4.72-1.56,7.42-5,7.42-9.4a8.14,8.14,0,0,0-2.12-5.72c-1.22-1.28-2-2.18-2.21-2.37a4.65,4.65,0,0,1-.13-1l-.7-17.68c-.07-1.35-.17-2.59-.31-3.76a9.53,9.53,0,0,0,3,.48h1.82v19.81c0,6.37,2.17,11.64,6.46,15.64s9.69,5.89,16.32,5.89a30.75,30.75,0,0,0,19.09-6.26,11.43,11.43,0,0,0,5.76,4.09c3.62,1.22,8.56,1.82,15.09,1.82a85.26,85.26,0,0,0,13.77-.88Zm10.69,26.39h-.09l1-1.36.24.13C565.09,312.12,564.72,312.52,564.34,312.93Zm21-20.81-4.85-.38.64-.81.87-1.26a20.71,20.71,0,0,0,4.1,2.22Zm5.45-26.55c-.1-.11-.16-.24-.27-.35l-.86-.86-7.77-2.52-6.3,2.24-6.78-1.56-3.09,6.12c-1.12-1.83-3.14-3.66-6.78-4.75l-.23-.07a72.13,72.13,0,0,1-.35-8.51,11.83,11.83,0,0,0,1.36.81,14.14,14.14,0,0,0,6.62,1.48,15.89,15.89,0,0,0,11.28-4.38,17.31,17.31,0,0,0,4.06-5.76,19.75,19.75,0,0,0,.9-2.69l.45.21a23.21,23.21,0,0,1,1.91,3.16l9.63,18.16A14.4,14.4,0,0,0,590.79,265.57ZM591.56,62l.19,163c-1.28.13-2.62.23-3.81.42-4.15.66-7.3,1.82-9.49,3.43a15.14,15.14,0,0,0-11-4.38,16.17,16.17,0,0,0-10.34,3.64,7.64,7.64,0,0,0-.61-1,6.34,6.34,0,0,0-3-2.08l.09-44.29h37.75l-.06-5.11c0-4.13,0-13.28,0-21.84s0-16.7,0-18.49l-.14-4.91h-4.91c-2.56,0-5.5.07-8.5.14s-6.11.14-8.91.14c-1.5,0-2.91,0-4.28-.08a29.68,29.68,0,0,1-5.58-.79c-1.57-.4-4.83-1.22-5.35-9.32a19.41,19.41,0,0,1-.17-3.38c0-.9,0-1.78,0-2.65h38V62l-8,0a19.11,19.11,0,0,0,12.73-8.82c2.55,4.64,6.89,7.66,12.8,8.85Zm23.2-16.53c-.11.11-.25.26-.84.26a3.45,3.45,0,0,1-.71-.07h0a4.77,4.77,0,0,1-.49-2.58V42.9h.64a3.24,3.24,0,0,1,1.4.21,1.52,1.52,0,0,1,.37,1.18A1.47,1.47,0,0,1,614.76,45.45Zm3.59,196.09c-.21-.34-.39-.66-.54-.94l.56.61C618.37,241.32,618.36,241.43,618.35,241.54Zm2-179.48a21.74,21.74,0,0,0,9.14-3.91,16.21,16.21,0,0,0,4.33-5c.34.57.62,1.2,1,1.73a18.42,18.42,0,0,0,11.37,7.28Z"/><path class="cls-2" d="M365.46,227.21c-.75-1.5-16.22-30.19-17.38-32.51-1.95-3.9-8.81-16.63-10.57-20.33-.85-1.81-4.07-7.85-5.76-12,.15.38,3.24-1.1,4.56-1.87a51.23,51.23,0,0,0,7.24-3.93c6.13-3.67,9.81-8.35,13.31-14.89a27.19,27.19,0,0,0,3.48-11.16c.53-11.1.24-65.09.24-65.09s-52.72-.06-52.72.06.4,35.82-.06,49.22c-.32,4.79-2.7,8.69-6.78,9.14-6.22.69-11.3.31-17.1.31-.38,0-.84,0-.84-.33V117c0-30.78-.09-107.83-.09-107.83H231.55l0,169.35c0,2.81,0,14.71,0,26.23a46.38,46.38,0,0,0-2.67-5.14,34.3,34.3,0,0,0-3.93-.3c-18.18-.07-27.15,3.37-41.06,9.2-2.46,1-7,3.51-9.25,4.71a4,4,0,0,0-1.47,1,7.09,7.09,0,0,0-.6,1c-5.26,11-14.34,21.27-22.57,26-6.42,3.72-13.14,5.18-20.95,6.22a39.6,39.6,0,0,1-6.91.46,13.85,13.85,0,0,0-.11,3.77,32.24,32.24,0,0,0,4.25,14.19c.4.67,2.19,3.21,2.17,3.18,4.39,5,7.27,7.15,12.06,9.39,1.25.59,2.63,1.17,3.7,1.57a64.68,64.68,0,0,0,16.52,4.08,97,97,0,0,0,11.61.89c3.76.08,7.08.25,11.37.16,4-.1,7.65-.5,11.52-1a71.44,71.44,0,0,0,8.48-1.8c1-.25,1.56-1.32,2.48-2.93a96.74,96.74,0,0,0,9.93-27.16c1.69-8.83,1.4-12.74,1.27-18.85,0-.91-.32-3.72.09-4.2,3.47-.74,9.11-.53,14.09-.48v0L283,229c0-2.95-.11-27.31-.08-29.75,0-1.6-.32-21-.25-22.6,0,0-.07-.92.28-.6-.07-.06,12.43,23.65,13.71,26,.37.68,14.06,26.37,14.65,26.78l54.76.15C366.25,228.53,365.85,228.08,365.46,227.21Z"/><path class="cls-2" d="M596.61,67s.2,154.71.2,160.33H645.2V175.43l37.75,0,.06-40.3s-22.87,0-24.89,0c-8.7-.41-12.12-5.23-12.7-13.89-.15-2.22-.07-10.51-.07-11.84l38.32.07,0-42.23-87-.23Z"/><path class="cls-2" d="M586.36,109.42V67l-86.12.23-.17,151.15a3.78,3.78,0,0,1,1.49-.34c1.11,0,2.66,0,4.95,0a1.54,1.54,0,0,1,1.65,1.63v7.62l40.31,0,.1-51.7h37.68c-.1-8.29,0-36.7-.1-40.25-6.61,0-15.75.45-21.8.2a34.21,34.21,0,0,1-6.7-1c-6-1.51-8.67-6.36-9.11-13.44a24.78,24.78,0,0,1-.23-4.1,66.9,66.9,0,0,1,.23-7.74Z"/><path class="cls-2" d="M437.36,135.62h-26.2V120.35c1.28-5.86,5.11-9.16,10.71-10.71,4.55-.53,11.09,0,15.26-.22.53,8.27.08,17.54.23,26.2Zm47.79-68.51c-21.57-.08-67.25-.23-84.24.39-23.7.85-33.48,20.73-36.22,39.64-2.62,17-2.35,38.51-1.6,57.41V227.3h46l.05-52.68,28.88-.05.13,52.73,46.91.14.07-160.33Z"/><path class="cls-3" d="M252.76,229.15a28.13,28.13,0,0,1,15.74,4.46q6.47,4.26,6.46,10.57a9,9,0,0,1-3,7.07,9.7,9.7,0,0,1-6.76,2.56,7.15,7.15,0,0,1-6.26-3,24.34,24.34,0,0,1-1.91-4.86q-1.35-4.22-5.16-4.21a5.67,5.67,0,0,0-4.63,2.4,9.3,9.3,0,0,0-1.88,5.92,15.24,15.24,0,0,0,4.31,10.67,11.52,11.52,0,0,0,8.82,3.76,17.22,17.22,0,0,0,4.2-.43,25,25,0,0,0,4.46-1.73,3.5,3.5,0,0,1,1.56-.35,3.8,3.8,0,0,1,3,1.61,5.75,5.75,0,0,1,1.31,3.75,8,8,0,0,1-1.86,4.74,17.1,17.1,0,0,1-4.86,4.33,28.69,28.69,0,0,1-15.38,4,26.68,26.68,0,0,1-17.59-6A24,24,0,0,1,224,255a23.6,23.6,0,0,1,8.67-18.74,29.72,29.72,0,0,1,20.09-7.12Z"/><path class="cls-3" d="M305.23,240.68a4.31,4.31,0,0,0-3.53,1.63,6.61,6.61,0,0,0-1.33,4.33,41.05,41.05,0,0,0,1.12,8.19,64,64,0,0,0,2.68,9.2q1.56,4.11,5.07,4.11,4.45,0,4.46-5.67a47.29,47.29,0,0,0-1.13-9.57,39.37,39.37,0,0,0-2.73-8.72c-1.11-2.27-2.64-3.44-4.61-3.5Zm4-11.58a27.69,27.69,0,0,1,16.08,4.76,25.53,25.53,0,0,1,8,8.87,24.66,24.66,0,0,1,3.1,11.93q0,10.88-10,18.49a35,35,0,0,1-21.79,7.26q-12,0-19.4-6.81Q278,267,278,256.36A24.25,24.25,0,0,1,286.84,237q9.21-7.92,22.4-7.92Z"/><path class="cls-3" d="M367.46,232v27.16q0,8.71,5.76,8.72a5.58,5.58,0,0,0,2.86-.83,4.64,4.64,0,0,0,2-2c.73-1.6,1.1-5.18,1.1-10.72a75.51,75.51,0,0,0-.55-11.23,3.82,3.82,0,0,0-.7-1.83,7.22,7.22,0,0,0-1.91-1.32c-1.9-1-2.86-2.28-2.86-3.81q0-3.1,4.92-4.31a76.18,76.18,0,0,1,18.38-2.31q5.07,0,5.07,5.36c0,.37,0,1.12-.05,2.26-.07,1.6-.12,3.56-.15,5.86v22.1c0,1.14,1,2.17,2.9,3.11a3.78,3.78,0,0,1,2.46,3.5q0,4.51-10.68,7a53.42,53.42,0,0,1-12.12,1.45,6.68,6.68,0,0,1-3.28-.55,2.65,2.65,0,0,1-1-2.15c-.17-2.08-.8-3.11-1.91-3.11a2.2,2.2,0,0,0-1.1.28c-.33.18-1.35.86-3,2a18.9,18.9,0,0,1-10.88,3.46q-9.62,0-13.58-5.56-3.36-4.67-3.36-15.68,0-4.11.06-7v-2.3a18.92,18.92,0,0,0-.78-6.34,6.09,6.09,0,0,0-2.83-3.19,9.12,9.12,0,0,1-2.48-1.6,2.42,2.42,0,0,1-.53-1.65q0-3.81,5.76-5.06a91.27,91.27,0,0,1,19.65-2.16c2,0,2.95.84,2.95,2.51Z"/><path class="cls-3" d="M470.34,247.64l.7,17.64a7,7,0,0,0,.62,3,25.38,25.38,0,0,0,3.08,3.65,3.15,3.15,0,0,1,.76,2.26q0,3.3-4,4.61t-14.13,1.3q-6.92,0-9.77-1.2a4.22,4.22,0,0,1-3-4.06,2.85,2.85,0,0,1,.3-1.48,25.6,25.6,0,0,1,2-2.33q2-2.1,2-14c0-4.61-.54-8-1.6-10.22q-1.31-2.66-4.82-2.66c-2.23,0-3.77.72-4.6,2.16s-1.26,4-1.26,7.82V264a14.58,14.58,0,0,0,.38,4.06,25.14,25.14,0,0,0,2.48,4.26,3.81,3.81,0,0,1,.55,2.05q0,3-4.11,4.36t-12.83,1.4q-13.92,0-13.93-5.76a3.3,3.3,0,0,1,.43-1.83,9,9,0,0,1,2-1.78,4.09,4.09,0,0,0,1.65-2.18,38.13,38.13,0,0,0,.65-6c.24-3.8.35-7.8.35-12a12.44,12.44,0,0,0-.52-4.54,8.39,8.39,0,0,0-3-2.63,3.76,3.76,0,0,1-.4-6.59,32.75,32.75,0,0,1,7.21-3.23c3.21-1.13,6.3-2.1,9.27-2.88A29.68,29.68,0,0,1,433,229.5a3.32,3.32,0,0,1,2.53,1.1,3.7,3.7,0,0,1,1,2.61c0,.1,0,.52-.05,1.25a6.55,6.55,0,0,0-.05.7c0,1.61.67,2.41,2,2.41.8,0,1.65-.63,2.55-1.9q4.31-6.22,12.53-6.22a17.74,17.74,0,0,1,10.82,3.31,12.67,12.67,0,0,1,4.41,5.54,30.68,30.68,0,0,1,1.56,9.34Z"/><path class="cls-3" d="M508.17,242.28v16.94a7.76,7.76,0,0,0,1.48,4.91,4.56,4.56,0,0,0,3.78,1.9,11.48,11.48,0,0,0,5.16-1.8,2.89,2.89,0,0,1,1.5-.45,2.77,2.77,0,0,1,2.21,1.45,5.51,5.51,0,0,1,1,3.16q0,3.11-3.41,6a25.68,25.68,0,0,1-17.23,6.06q-8,0-12.88-4.53a15.59,15.59,0,0,1-4.86-11.95V240.78c0-.77-.09-1.25-.28-1.43a2.31,2.31,0,0,0-1.43-.28h-5.16a2.52,2.52,0,0,1-1.85-.47,3.92,3.92,0,0,1-.4-2.23v-2.21A2.53,2.53,0,0,1,477,232l22.95-14.43a4,4,0,0,1,2.1-.45h4.06a2.1,2.1,0,0,1,1.83.68c.36.41.28,1,.28,2.17v6.77a2.83,2.83,0,0,0,.47,2,3.15,3.15,0,0,0,2,.45h9.27a3.12,3.12,0,0,1,2.41.68,5,5,0,0,1,.55,2.88v3a5.84,5.84,0,0,1-.7,3.33,3,3,0,0,1-2.56.92h-9.07a2,2,0,0,0-2.4,2.41Z"/><path class="cls-3" d="M549.31,229.45c1.77,0,2.84.25,3.23.75s.72,2.11,1,4.81c.16,1.47.68,2.21,1.55,2.21.67,0,1.3-.49,1.9-1.46q4-6.25,10.48-6.26a10,10,0,0,1,7.46,3,11.17,11.17,0,0,1,2.31,3.73,11.16,11.16,0,0,1-.2,9.22,12.24,12.24,0,0,1-2.86,4.09,11,11,0,0,1-7.87,3.05,9.19,9.19,0,0,1-4.28-.9,21.52,21.52,0,0,1-4.54-3.66,2.93,2.93,0,0,0-1.95-1.05,1.82,1.82,0,0,0-1.83,1.58,32.09,32.09,0,0,0-.43,6.64,62.22,62.22,0,0,0,.56,10.32,4,4,0,0,0,1,2.08,7.52,7.52,0,0,0,2.68,1.18q4.51,1.35,4.51,4.71a5,5,0,0,1-1.45,3.58,7.14,7.14,0,0,1-3.86,2,74.25,74.25,0,0,1-14.13,1q-8.87,0-13.48-1.55Q525,277.1,525,273.65c0-1.74,1-3.29,3-4.66a7.44,7.44,0,0,0,2-1.73,5,5,0,0,0,.76-2.13q.79-4.56.8-16.89a7.64,7.64,0,0,0-.5-3.23,3.68,3.68,0,0,0-2-1.58c-2.37-.93-3.56-2.29-3.56-4.06a5,5,0,0,1,2.46-4.13,29.83,29.83,0,0,1,8.22-3.43,49,49,0,0,1,13.13-2.36Z"/><path class="cls-3" d="M629.53,251l-6.61,16.1a59.63,59.63,0,0,1-4.94,9.78,29.33,29.33,0,0,1-5.64,6.46,23.53,23.53,0,0,1-15.68,5.5q-7.41,0-12-3.46a8.15,8.15,0,0,1-3.55-6.79,7.53,7.53,0,0,1,2.48-5.74,8.51,8.51,0,0,1,6.08-2.33,8,8,0,0,1,5.82,2.13,5.9,5.9,0,0,1,1.4,1.73,27.67,27.67,0,0,1,1,3.32,2.41,2.41,0,0,0,2.51,2,3.32,3.32,0,0,0,2.6-1.2,4.3,4.3,0,0,0,1.05-3c0-1.39-.86-3.71-2.6-7l-12.08-22.75a20.52,20.52,0,0,0-2.85-4.44,15.42,15.42,0,0,0-4.21-2.17,3.6,3.6,0,0,1-1.73-1.4,3.53,3.53,0,0,1-.73-2q0-3.94,8.87-5.37a87.49,87.49,0,0,1,13.48-.93,28.57,28.57,0,0,1,8.37,1q4.11,1.29,4.11,4.39a4.66,4.66,0,0,1-1.15,2.62,4.3,4.3,0,0,0-1.11,2.52,5.33,5.33,0,0,0,.53,2.22,41.19,41.19,0,0,0,2.23,3.91q1.9,3.1,3.36,3.1c1,0,2.1-.91,3.2-2.73a10.1,10.1,0,0,0,1.66-5.25,4.57,4.57,0,0,0-1.26-3.33c-1.27-1.33-1.9-2.47-1.9-3.42,0-1.5,1.14-2.71,3.41-3.61a25.28,25.28,0,0,1,9.12-1.35q10.62,0,10.62,4.52a3.42,3.42,0,0,1-1.08,2.64,10.8,10.8,0,0,1-3.93,1.89,7.61,7.61,0,0,0-3.81,2.66,49.59,49.59,0,0,0-5.06,9.8Z"/><path class="cls-4" d="M424.58,307.46l6.17-11.2-4.15-1.87-3.91-.27-8.35,3.77.54-.53-2.43.53a6.17,6.17,0,0,0-1.55,2L408,294.66a37.39,37.39,0,0,0-6.4.81q-4.25.81-9.64,2.16l-9.7,9.29-9.16,5L371,320.47l-2.76,3.16a16.51,16.51,0,0,1-5.93,3.91,25.2,25.2,0,0,1-3.64,1.41,10.42,10.42,0,0,1-3,.47q-4.19,0-4.18-3.63,0-3.37,3.5-10.38l1.55-.43a17.13,17.13,0,0,1,1.55-4.82q9.3-13.35,15-13.34c1.62,0,2.43.85,2.43,2.56q0,3.5-6.2,8.89a22.67,22.67,0,0,0-11.83,6.45A130.84,130.84,0,0,0,376.75,308l4-6.6-1.89-5.93-10.51-.14a8.64,8.64,0,0,0-3.36-.53q-10,0-23,9.83-3.36,8.63-5,14.42l.48,2.29-6.27,1.08-5.66,1.08a32.71,32.71,0,0,1-9.17-1.76l-8.75-3.23q8.21-6.33,10.51-9.16a40.05,40.05,0,0,0,3.36-4.72q1.62-2.69,3.37-5.39a25.44,25.44,0,0,1,7-3.5l7.41-2.56,5-3.64,5-3.91,7.95-9.16q1.62-3.36,2.29-4.92c.45-1,1-2.36,1.62-4L358,259.9l-3.5-2.56-11.32,4.44-7.55,5.12L326,273a229.37,229.37,0,0,0-13.34,19.8c-1.35-.17-3,1.35-4.85,4.59q-14.42-2.83-14.42-14.15l3.37-8.76,9.7-8.35,13.48.67-.41-1.35q0-.14.21-.27a1.8,1.8,0,0,1,.87-.13,1.09,1.09,0,1,0,.81-2,3.9,3.9,0,0,0-1.35-.14l-3.77-.27-3.37-.13L301,264.61a47.05,47.05,0,0,0-9.9,5.12,47.69,47.69,0,0,0-8.29,6.47l.14,18.87,8.62,5.52,13.34,1.89-1.48,1.61.67,1.22-3,3.9-4.72,5.93A35.47,35.47,0,0,1,283.78,313l-16.44,2.42L262.08,323l4.31,7.54,11.19-.94a6.22,6.22,0,0,0,3.9,1.35q5.67,0,16.71-5.93a51.44,51.44,0,0,1,18.87,8.35,6.68,6.68,0,0,1,2.9-1.08,35.64,35.64,0,0,1,6.26-.4l8.89-.54,3.7-3.65.35,1.63,14.28,1.21,7.41-2.15,7.41-2.83c.79-.53,1.75-1.26,2.85-2.16l4.15,6.87,5.26,1.22,9.3-.68,5.52-5.39-7.27,10.38-7,10q-5,5.79-9.84,5.79t-5-3.77a4.18,4.18,0,0,1,2-3.37l2-1.48q0-2.83-3.64-2.83a5.7,5.7,0,0,0-4.18,1.75,5.32,5.32,0,0,0-1.75,3.77l3.51,6.34,12.26,3.23,6.33-.54,9-4.31L411,330.23h-.54l6.88-13.07Zm-94.86-17.11,3.37-6.74,3.24-7.41a34.82,34.82,0,0,1,5-6.87,41.82,41.82,0,0,1,5.26-4.11,42.38,42.38,0,0,0,5.12-4c2.69,1,4,2.39,4,4.18a15.75,15.75,0,0,1-.47,2.7c-.23.8-.56,1.88-1,3.23a32.5,32.5,0,0,1-11.19,15.23c-2.25,1.86-6.81,4.5-13.42,7.84l.22-.43-.41-3.1.81,1.08Zm-1.34,4.31.09.35-2,1Zm-50.67,33.55q-7.54,0-7.54-5.52t9-5.53q4.19,0,12.27,4Q285.79,328.22,277.71,328.21Zm124-13.47-2,6.06H398q-4.86,5.65-8.09,5.66a2.26,2.26,0,0,1-2.56-2.56q1.35-4.57,7.28-13.61,7.54-11.18,12.4-11.18c1.88,0,2.82.76,2.82,2.29a5.62,5.62,0,0,1-.72,2.6L406,306.38l-.54,3,1.62.13Z"/><path class="cls-4" d="M594.36,307.87l-.14-2.43q0-4.44,2.7-11.45l-11,3.23-5.26-.4a16,16,0,0,0-3.91,3.1q-6.6,7.54-6.6,8.62l.95.54q.68,0,4.24-4.85t5.05-5.53l.14,5.39-1.22,8.36c-.62,2-1.19,3.59-1.68,4.85a47.53,47.53,0,0,1-2.22,4.71q-4.05,7.28-7.55,7.28c-1.62,0-2.42-.94-2.42-2.83l.67-1.75a13.47,13.47,0,0,0,.67-1.89c0-.18-.18-.4-.54-.67a5.45,5.45,0,0,0-1.13.19l2.48-2.39v-2.52l1.21,1.35,3.51-.4-2.43-1.62a13.57,13.57,0,0,1,3.2-2.45l.44.7.09-1c.14-.06.31-.19.45-.24l-.4-.28.26-2.81,3.24.53-2.29-2.15c1.25-.36,2-.76,2.15-1.21-.09-.63-.4-.95-.94-.95-.27.18-.54.39-.81.61a3.87,3.87,0,0,0-.81,1c-.89,1.26-1.81,2.42-2.73,3.57l-.1-.07.07.11a57.61,57.61,0,0,1-13.27,12.56l-4.58.54a2,2,0,0,1-.54,1.08c-.36-.09-.54-.59-.54-1.49a10.08,10.08,0,0,1,1.62-4l1.61-.54-.28-1.63-.93.55q.4-2.82,10-15.36L577,288.06l10.78-15.63-.4-.81c0-1.62-.13-2.56-.4-2.83l-5-1.62-6.06,2.16-8.22-1.89c1.88,1.62,2.83,2.65,2.83,3.1a4.62,4.62,0,0,1-.68,1.75v.54l-5.25,11.05-7.14,6.06q-5.27,7.69-7.41,11.59,0-5.11-3.24-6.4a12.28,12.28,0,0,0-5-1.14l-12.67,1.61q-13.23,12.9-17.55,23c-3.53,2.85-6.81,5.63-9.53,8.29-1.17-1.07-1.75-1.84-1.75-2.29a15.25,15.25,0,0,1,1.75-3.23l-.27-.27,6.29-6.29-1.31-4.22a11.89,11.89,0,0,1,6.34-2.29l.67-3.23.41-3.24L512.57,297l-8.49-.81-2-.4q-6.06,0-15.9,7.95V301.8l-.94.27,1.88-.81.68-2.15c1.25-.27,1.88-.76,1.88-1.48A4.61,4.61,0,0,1,489,296l-1.08.81-3-2.43-7.95,3H473l-.53-.27a2.94,2.94,0,0,1-.81,2.15l-1.49,1.62L464.47,311l-6.26,8-1.83,1.42-2.83,3.23a16.51,16.51,0,0,1-5.93,3.91A25.2,25.2,0,0,1,444,329a10.42,10.42,0,0,1-3,.47q-4.18,0-4.18-3.63,0-3.37,3.5-10.38l1.55-.43a17.09,17.09,0,0,1,1.56-4.82q9.29-13.35,14.95-13.34c1.62,0,2.43.85,2.43,2.56q0,3.5-6.2,8.89a22.67,22.67,0,0,0-11.83,6.45A130.84,130.84,0,0,0,462,308l4-6.6-1.89-5.93-10.5-.14a8.73,8.73,0,0,0-3.37-.53q-10,0-23.05,9.83-3.36,8.63-5,14.42l2.16,10.24,14.28,1.21,7.41-2.15,7.41-2.83c.18-.12.45-.35.65-.49l-2.35,3.61,3,2.94,7.81.27,5.8-.27v-2.69q4.85-4.86,7.68-14.42l7.14-6.47,1.75,2,1.35-2.56-.95-.4,3-.14.67-3,2.16-1.21c.18-1,1-1.8,2.42-2.43a9.86,9.86,0,0,1,3.91-.94c1.26.09,1.89.67,1.89,1.75q-.27,1.08-6.2,9l-7,9.29-3.5,6.2,2.43,5,6.33,2.29,8.89-3.37c3.63-2.9,7.1-6,10.47-9.25-.22.62-.46,1.24-.63,1.84a19.68,19.68,0,0,0,8.89,9.7,108.19,108.19,0,0,0,10.78-3.5,25.8,25.8,0,0,0,8.62-7.41,16.21,16.21,0,0,0-.67,4.31l2,3.64,6.2,2L558,329.16l2.86-2.75c.06,2.64,2.87,4.32,8.46,5l9.84.4q7.27-8,13.61-13.88l2.56-8.35-.81.54Zm-48,2.29-4.18,1.07a13,13,0,0,0,.81,3.91l-7.41,6.6q-5.13,4.72-6.87,4.72c-1.71,0-2.56-.9-2.56-2.69q1.61-6.6,8.28-14.08a49.36,49.36,0,0,1,13.27-11,6.15,6.15,0,0,1,.81,3c-.18,1.61-1.34,4.09-3.5,7.41Z"/><path id="white" class="cls-5" d="M265.57,113.52c0-14.53-8-27.59-21.84-33.35a36.64,36.64,0,0,0-7-2.57,69.77,69.77,0,0,0-7.18-1.46,74.77,74.77,0,0,0-12.45-.23,15.48,15.48,0,0,0-2.89-3.55L212.58,71c-5.14-4.43-11.25-8-20.11-8.73a46.83,46.83,0,0,0-9.63,0,41,41,0,0,0-17.13,4.93h0a.26.26,0,0,0-.15.07l-.38.2c-3.09,1.77-5.06,4.09-8.72,1.56A7.45,7.45,0,0,1,153,63.8c0-.11-35.38,0-53,0h-.91c-1.35,2.34-1.61,6.16-4.28,6.55-3.06.45-6-2-9-2.85a24.31,24.31,0,0,0-12.47-.09,25,25,0,0,0-15.53,9.77c-.73,1-1.09,1.66-1.63,2.42a9.44,9.44,0,0,0-.9,1.61c-.59,1.25-.7,2.06-1.13,3.13a43.46,43.46,0,0,0-.88,15.89,31.43,31.43,0,0,0,4.49,12.32c.42.57.43.9,1.13,1.81h0c-1.52,5.76-8.07,9.83-8.55,15.74-.16,2,.48,4.78.9,7.23,2.85,16.55,6.24,33.73,6.85,50.75-10.18-.48-15.74-.28-23.73,1.15a29.78,29.78,0,0,0-4.36,1.2c-9.13,2.79-15.48,8.46-16.68,19.11a68.81,68.81,0,0,0,0,10.84c2.56,19.4,22.23,21.7,45.14,20.76A100.22,100.22,0,0,0,50.34,256c-.27.62-.29.88-.51,1.5-.89,2.54-4.63,14.19-1.52,18.58,1.64,2.33,6.91,3,12.14,3,5.57.19,10.19.15,15.58.07s11.37-.23,14.65-1.53c6.64-2.65,8.86-10.6,11.11-16.69,3.93-10.64,11.14-17.84,23.25-20.31,6.75-1.38,14.83.39,22.79-2.71.55-.21,1-.56,1.56-.82a15.8,15.8,0,0,1,2.47.68,40.92,40.92,0,0,0,5.93-5c2.12-2.16,6.15-6.72,6.83-7.65.46-.63,2.78-3.85,4.15-6.27s3.18-5.92,3.32-6.1c.63-.85,5.3-3.15,10.82-5.6A147.21,147.21,0,0,1,199.56,201a73.05,73.05,0,0,1,9.19-1.86,57.66,57.66,0,0,1,8.1-.74,38,38,0,0,1-.07-4.52A246.68,246.68,0,0,0,214,164.39a21.25,21.25,0,0,0,4.24-1c1-.34,2.61-.81,3.16-1a71.76,71.76,0,0,0,7.42-2.94c.14,0,3-1.79,4.42-2.56s3.68-2.09,4.61-2.63a100.55,100.55,0,0,0,9.17-6.13,47.1,47.1,0,0,0,6.56-5.9c1.61-1.72,2.13-2.27,2.82-3.15a47.08,47.08,0,0,0,7.69-14.44,46.06,46.06,0,0,0,1.4-9.75Z"/><path class="cls-6" d="M60,85.16l-1.27,14.2s3.47,11.64,3.71,12.39,11.4,7.18,11.4,7.18l11.39,3.22,20.06-2.48,16.35-5.38L140,101.1s15.39-14.53,15.64-15.94,5.76-8.51,5.76-8.51l-13-8.58-42.54,0-7.8,6H85.5L73.18,72.51l-9,5.3L60,85.16Z"/><path class="cls-2" d="M67.3,107.87c-5.22-8.06-3.6-22.45,2.13-27.34a16.14,16.14,0,0,1,10.68-3.88,29.34,29.34,0,0,1,4.85.43,20.17,20.17,0,0,1,2.59.92c1.24.45-.93,1.88-.93,3.23,0,1.94-.17,21.44,0,21.44,4.73,0,40.45.22,40.64,0a10.43,10.43,0,0,1-2.66,2.43c-2,1.48-3.25,2-4.6,3a22.75,22.75,0,0,1-2.37,1.59c-1.05.6-2.25,1.17-3,1.54-6,2.79-11.93,5.67-18.06,6.35a54,54,0,0,1-9.28.21,33.2,33.2,0,0,1-13.06-3.82,24.94,24.94,0,0,1-6.63-5.54l-.31-.48M114,73.94a8.47,8.47,0,0,1-2.93,0,4.18,4.18,0,0,1-2.41-1.34h8.27A4.91,4.91,0,0,1,114,73.94Zm26.18,17.38h-8.58c.12-.34.34-.57.45-.91.75-1.13,1.3-2.59,2-3a1.46,1.46,0,0,1,.83-.25,2.06,2.06,0,0,0,1.61-.73,3.9,3.9,0,0,0,0-5,3.48,3.48,0,0,0-3.32-1.74,4.57,4.57,0,0,0-1.69.35,6.1,6.1,0,0,0-2,2.13,3.52,3.52,0,0,0-.36,1.9,1.76,1.76,0,0,0,.44,1c.49.56-.51,1.58-.71,1.54s-.38-.53-.63-1-.52-.75-.05-1.37c.31-.41,0-1.43-.17-1.91a5.87,5.87,0,0,0-.92-1.3c-.92-.92-2.06-.69-2.94-.65a4.31,4.31,0,0,0-2,.66A3.06,3.06,0,0,0,121,82.07a3.85,3.85,0,0,0-.71,1.57,4.14,4.14,0,0,0,.31,2.15,3.63,3.63,0,0,0,1.71,1.85c.71.34,1.08-.36,1.54.06a13.76,13.76,0,0,1,1.54,2.17,5.92,5.92,0,0,1,.8,1.45h-28c.14-2.8-.29-6.16.23-8.58a19.14,19.14,0,0,1,3.83-3.84h.91a11.51,11.51,0,0,0,2,.86,22.82,22.82,0,0,0,2.72,1c1,.25,8.35.85,11.14-.51a14.6,14.6,0,0,0,1.9-1,32.68,32.68,0,0,0,5.49-5.08c.41-.53.62-.93,1-1.51.2-.3,5-.07,6.15-.08,4.33,0,6.89,0,10,0a1.17,1.17,0,0,1,.91.45c.88.84,1.76,1.69,2.71,2.48,0,.18,3.76,3.08,4.51,3.16-.07.46-5.32,5.27-6.32,6.4s-4.69,6.06-5.19,6.24ZM212.58,71c-5.14-4.43-11.25-8-20.11-8.73a46.83,46.83,0,0,0-9.63,0,41,41,0,0,0-17.13,4.93h0a.26.26,0,0,0-.15.07l-.38.2c-3.09,1.77-5.06,4.09-8.72,1.56A7.45,7.45,0,0,1,153,63.8c0-.11-35.38,0-53,0h-.91c-1.35,2.33-1.61,6.15-4.28,6.54-3.06.45-6-2-9-2.85a24.31,24.31,0,0,0-12.47-.09,25,25,0,0,0-15.53,9.77c-.73,1-1.09,1.66-1.63,2.42a9.44,9.44,0,0,0-.9,1.61c-.59,1.25-.7,2.06-1.13,3.13a43.46,43.46,0,0,0-.88,15.89,31.43,31.43,0,0,0,4.49,12.32c.42.57.44.9,1.13,1.81.88,1.3,4.34,5.28,5.45,6,.51.37,1,1,1.26,1.11A18.25,18.25,0,0,0,68,123.23c.26.18.73.48.91.59a28.78,28.78,0,0,0,2.8,1.47,31.66,31.66,0,0,0,4.1,1.47,25.5,25.5,0,0,0,3.62.73,25.25,25.25,0,0,0,4.45.49A65.24,65.24,0,0,0,94,127.74a39,39,0,0,0,6-.66c1.32-.31,2.43-.47,3.5-.76,11.17-3,15.23-5.41,22.34-9.61.91-.54,2.21-1.48,3.19-2.13,9.62-6.37,17.37-15,25.27-23.26,1.48-1.55,2.18-2.34,3.38-3.39,1.84-1.61,2.5-2.37,4.35-4a8.9,8.9,0,0,1,.84-.7A74.43,74.43,0,0,1,172.18,76c.95-.49,1.71-.9,2.92-1.66a35.06,35.06,0,0,1,3.63-1.51,23.22,23.22,0,0,1,4.51-1.12c.76-.13,1.5-.18,2.71-.34,1.13,0,1.81,0,2.9,0a18.7,18.7,0,0,1,4.77,1,13.48,13.48,0,0,1,2.26.9,51.82,51.82,0,0,1,6,4.72c.13.29,2.69-.56,3.29-.63,1.26-.25,3.37-.5,5.86-.74,3-.29,6.23-.52,6.25-.5a14.85,14.85,0,0,0-3-3.75L212.58,71Z"/><path class="cls-3" d="M102,241.17a20,20,0,0,0-6.7,7.85c-1.41,2.66-3.38,6-4.54,8.74s-2.69,5.87-3.81,7.92c-.17.31-.71,1.3-.91,1.62-.5.83-.6,1.45-1.33,1.94-.57.37-1.57.55-5.92.64a172.47,172.47,0,0,1-20.18-.36,1.21,1.21,0,0,1-.81-.42c-1.09-1.56,0-4.63.49-6.09a52.34,52.34,0,0,1,3.65-8,114.07,114.07,0,0,1,6.18-9.68l.81-1.14c.73-1,1.54-2,1.82-2.36.11,0,6.49,0,6.49,0a40.6,40.6,0,0,0-2,3.61,21.31,21.31,0,0,0-2.26,5.87h0s-.15,1.28-.15,1.69a6.58,6.58,0,0,0,.14,1.59s.1.41.13.53a3.7,3.7,0,0,0,1.47,2.53,2.89,2.89,0,0,0,1,.36,2.78,2.78,0,0,0,2.52-.53,3,3,0,0,0,.91-1c.23-.34,1.12-1.28,1.29-1.53a97.82,97.82,0,0,1,9.12-10.8c.82-.8,2.78-3,3.44-3H102l-.07,0m80.86-60.53c-.79-2.65-7.5-1.95-9.93-.91-3,1.31-4.43,3.24-5.87,5.87a23.37,23.37,0,0,0-1.27,2.46c-1.15,2.63-2.42,5.42-3.47,8.6-1.16,3.55-2.18,7.16-3.38,10.38-5.52,14.82-15.83,25.22-36.56,24.6,5.92-3.64,10.72-15.35,5.19-23a8.68,8.68,0,0,0-1.45-1.5,5.45,5.45,0,0,0-.72-.57l0,0a4.55,4.55,0,0,0-.79-.41l-.29-.08.19,0a3.25,3.25,0,0,0-3.89.52c-1.18,1.18-.52,4.59-.67,6.77a19,19,0,0,1-2.26,7.22c-5.87,9.47-22,11.22-39.18,11.34h0l-8.19,0c-5.83-.08-11.6-.24-16.95-.24-4.63,0-12.73-.22-14.09-.33s-3.64-.55-3.32-.49a18.62,18.62,0,0,1-4.45-1.54c-5.11-2.54-8-8.91-7-16.55A17.31,17.31,0,0,1,35.42,199a16.78,16.78,0,0,1,3-.86c2.47-.37,7.93-.38,12.05-.42,1.6,0,10.67,0,15.54.22.79,0,6.53.14,8,.49,3.31.75,9.08,4.13,13.58,7.13.27.18,1.41.82,1.66,1,6.34,4.27,14.62,4,18.61-.9a4.71,4.71,0,0,0,1.13-2.94c-.48-2.83-5.52-2-8.8-2.25-11.94-.95-19.36-12.64-31.15-13.17a20.57,20.57,0,0,1-.37-3.55c-.53-5.51-6.51-41.07-7.95-50.83a8.41,8.41,0,0,1,0-3.46,3.62,3.62,0,0,1,.68-1.31c2.16-2.17,4.84-2.6,6.77-4.93-.58-.25-3.28-2.6-4.52-3.59s-4.16-4.65-4.75-5.37c-1.5,5.79-8.09,9.86-8.57,15.8-.16,2,.48,4.77.9,7.22,2.85,16.55,6.24,33.73,6.85,50.75-10.18-.48-15.74-.28-23.73,1.15a29.78,29.78,0,0,0-4.36,1.2c-9.13,2.79-15.48,8.46-16.68,19.11a68.81,68.81,0,0,0,0,10.84c2.56,19.4,22.23,21.7,45.14,20.76A100.22,100.22,0,0,0,50.34,256c-.27.62-.29.88-.51,1.5-.89,2.54-4.63,14.19-1.52,18.58,1.64,2.33,6.91,3,12.14,3,5.57.19,10.19.15,15.57.07s11.38-.22,14.66-1.53c6.64-2.65,8.86-10.6,11.11-16.69,3.93-10.64,11.14-17.84,23.25-20.31,6.75-1.38,14.83.39,22.79-2.71,11.29-4.39,18-19.21,22.12-30.69,1.11-3.12,3.56-11,5.78-14.24,1-1.41,2-2.85,3-4.27,1.38-1.9,4.79-5.7,4.06-8.12"/><path class="cls-7" d="M230.13,103.55c1.83.29,6.84,3,11.14,2.09,1.66-.37,3.71-2.7,3.59-4.4-.2-2.93-6.07-4.62-9.48-5.41A48.5,48.5,0,0,0,218.9,94.7a153.64,153.64,0,0,0-42,11.51c-3.43,1.55-9.38,4.84-8.57,9.48.77,4.41,8.13,6.64,12.42,7.45a15.1,15.1,0,0,0,2.39.2,30.38,30.38,0,0,0,12.07-1.66,12,12,0,0,0,1.71-.64c6.11-2.88,9-5.19,8.55-13.14a101.91,101.91,0,0,1,12.8-3.91,42.87,42.87,0,0,1,11.84-.44Z"/><path class="cls-7" d="M86.89,213.26c-.16-3.19-4.89-7.57-17-8.85-8.34-1.32-16.42.52-14.66,8.1,3,4.06,12.86,4.42,16,1.44.4-.38,1.6-1.58,1.59-1.57,1.37-1.15,4.08.2,6.47,1.46a9.32,9.32,0,0,0,6.36.83,1.68,1.68,0,0,0,1.21-1.41Z"/><path class="cls-7" d="M118.28,152.07a13.73,13.73,0,0,1,3.72-1.46c-.6,1.26-1.12,2.56-1.69,3.84a14.62,14.62,0,0,0-.87,2.29,22.69,22.69,0,0,0-1,3.86,63.89,63.89,0,0,0-.22,13.09c0,.08.14,1,.36,2.17a25.65,25.65,0,0,0,1.67,4.38,16.29,16.29,0,0,0,.64,1.52c.54,1.34,1.24,1.71,1.84,3a16.7,16.7,0,0,1-2.32-.87c-1.16-.7-3.24-2.09-3.74-2.34a20.58,20.58,0,0,1-3.07-3.08c-.32-.55-1.18-1.91-1.48-2.51a26.24,26.24,0,0,1-1-5.3,49.81,49.81,0,0,1,0-6.36,26.93,26.93,0,0,1,.88-4,29.87,29.87,0,0,1,1.69-3.74,17.16,17.16,0,0,1,4.56-4.45ZM96.81,192.65c10.79.43,21.41.5,31.14,0,12.25-.63,21.59-7.26,25.28-16.25a23.75,23.75,0,0,0,1.3-5.71h0c.26-1.07.48-2.16.65-3.28a10.77,10.77,0,0,1,1.43-3.19c1-1.42,4.9-3,4.74-5.41-.11-1.73-2.76-2.45-3.83-3.61-1.85-2-3.12-4.6-5.2-6.77-6.61-6.94-17.76-11.25-31.51-8a19,19,0,0,0-3.12,1c-12.85,5.19-17.85,17.94-20.43,33.41-.09.38-.24.71-.46,1.59-.58,1.46-.79,3.35-1.8,5.18s-6,6-5.64,8.35c.29,1.86,4.06,2.57,7.45,2.71Z"/><path class="cls-7" d="M265.57,113.52c0-14.53-8-27.59-21.84-33.35a36.64,36.64,0,0,0-7-2.57,69.77,69.77,0,0,0-7.18-1.46,74,74,0,0,0-13.05-.2,73.69,73.69,0,0,0-13.3,1.7c-.07,0-1.18.36-1.26.36C183.69,83.22,168,91.33,152.1,99.22c-1.82.9-5.85,2.7-5.64,4.74.24,2.36,5.54,3.37,9.48,2.93,4.95-.55,9.82-3.35,14.44-5.42C184.23,95.28,199,88.64,215.43,86.4c3.23-.44,10.73-1,15.47-.22,6.75,1.07,13.65,4.18,18.24,9,7,7.36,9,23.09,2.71,33.86a42.2,42.2,0,0,1-7.28,9.46c-.86.83-4.54,3.85-6.08,4.95a68.54,68.54,0,0,1-18.69,9.06c-.93.31-3.23,1-4.26,1.35a12.66,12.66,0,0,1-1.6.45c-12.18,2.67-19.58,3.55-30,2.26-.63-.08-1.87-.25-2.49-.29-3.22-.21-5-.37-6.71-.48-.5,0-1-.14-1.41-.13-2,.05-4,.3-4.51,1.13s-.32,2.63.23,3.83c1.41,3.14,7.67,5.36,15.4,6.2,5.94.65,12.84.29,18.45.12A231.94,231.94,0,0,1,207,192.16a42.73,42.73,0,0,1,.13,5.23c0,.45-.12,2,.08,2a73.57,73.57,0,0,1,9.6-1,38,38,0,0,1-.07-4.52A246.68,246.68,0,0,0,214,164.39a21.25,21.25,0,0,0,4.24-1c1-.34,2.61-.81,3.16-1a71.76,71.76,0,0,0,7.42-2.94c.14,0,3-1.79,4.42-2.56s3.68-2.09,4.61-2.63a100.55,100.55,0,0,0,9.17-6.13,47.1,47.1,0,0,0,6.56-5.9c1.61-1.72,2.13-2.27,2.82-3.15a47.08,47.08,0,0,0,7.69-14.44,46.06,46.06,0,0,0,1.4-9.75l.07-1.39Z"/><path class="cls-4" d="M336.37,32.33v-.46a18.56,18.56,0,0,0-1.72-8.39A5.59,5.59,0,0,0,329.39,20,4.22,4.22,0,0,0,325.8,22a8.79,8.79,0,0,0-1.38,5.21,8.52,8.52,0,0,0,1.46,5.08,5.18,5.18,0,0,0,4.5,2,11.5,11.5,0,0,0,6-2ZM315.63,46l8.07-.72c1,3.68,2.77,5.52,5.45,5.52q6.33,0,7.22-12.27a14.69,14.69,0,0,1-8.82,2.7,12.48,12.48,0,0,1-9-3.61q-3.72-3.6-3.73-9.86a14.31,14.31,0,0,1,4-10.43q4-4.12,11.17-4.12,8,0,12.26,5.12t4.3,17q0,22.28-17.44,22.27a14.52,14.52,0,0,1-9.35-2.93q-3.66-2.93-4.14-8.65Z"/><path class="cls-4" d="M349.9,43.85l9.12-.68c.12,5.06,2.2,7.58,6.27,7.58a5.89,5.89,0,0,0,4.49-1.82,7.07,7.07,0,0,0,0-9.24,6.63,6.63,0,0,0-5.11-1.85c-.54,0-1.25,0-2.11.07V30.66q4,0,5.89-1.66a5.21,5.21,0,0,0,1.84-4,4.6,4.6,0,0,0-1.4-3.45,5.06,5.06,0,0,0-3.66-1.35q-5.06,0-5.06,5.7l-8.85-.62a11.32,11.32,0,0,1,4.31-8.95A16.34,16.34,0,0,1,365.9,13.2q7,0,10.85,3a10,10,0,0,1,3.87,8.3q0,6.84-7.09,9.78,8.79,2.61,8.79,10.28a11.3,11.3,0,0,1-4.53,9.54,18.52,18.52,0,0,1-11.51,3.44q-15.22,0-16.38-13.72Z"/><polygon class="cls-4" points="385.4 46.2 385.4 37.84 398.73 37.84 398.73 46.2 385.4 46.2 385.4 46.2"/><path class="cls-4" d="M401.44,45.43l9-1q.92,6.2,6.27,6.19a5.94,5.94,0,0,0,4.71-1.87A7.78,7.78,0,0,0,423,43.48q0-7.65-6.16-7.65a6.72,6.72,0,0,0-5.69,3.38l-7.59-3.44L405,13.94h26.6V24.07h-6.91L424,20.85H411.84l-.66,10.34a14.51,14.51,0,0,1,8.07-2.45q7,0,10.78,4.1a14.1,14.1,0,0,1,3.84,10,14.48,14.48,0,0,1-4.11,10.51q-4.11,4.23-12.41,4.23-7.12,0-11.07-3.29a13.86,13.86,0,0,1-4.84-8.85Z"/><path class="cls-4" d="M476.65,36,472.7,23l-4.26,13Zm21.42,13.71V57h-23.3V49.73h6.07l-2.25-7.4h-12.3l-2.52,7.4h6.34V57h-21V49.73H455l9.23-28.51h-6.31V13.94h30.93v7.28h-6.37l9.94,28.51Z"/><polygon class="cls-4" points="498.55 57.01 498.55 49.73 504.12 49.73 504.12 21.22 498.55 21.22 498.55 13.94 520.15 13.94 529.6 39.17 539.1 13.94 561.12 13.94 561.12 21.22 555.55 21.22 555.55 49.73 561.12 49.73 561.12 57.01 539.45 57.01 539.45 49.73 544.65 49.73 544.65 21.22 543.63 21.22 530.28 57.01 525.64 57.01 512.14 21.22 511.12 21.22 511.12 49.73 516.75 49.73 516.75 57.01 498.55 57.01 498.55 57.01"/><path class="cls-4" d="M585,32.33v-.46a18.7,18.7,0,0,0-1.72-8.39A5.59,5.59,0,0,0,578,20a4.24,4.24,0,0,0-3.6,1.94,8.79,8.79,0,0,0-1.38,5.21,8.46,8.46,0,0,0,1.47,5.08,5.15,5.15,0,0,0,4.49,2,11.53,11.53,0,0,0,6-2ZM564.27,46l8.07-.72q1.42,5.52,5.45,5.52,6.33,0,7.22-12.27a14.69,14.69,0,0,1-8.82,2.7,12.46,12.46,0,0,1-9-3.61q-3.73-3.6-3.73-9.86a14.31,14.31,0,0,1,4-10.43q4-4.12,11.17-4.12,8,0,12.26,5.12t4.29,17q0,22.28-17.44,22.27a14.49,14.49,0,0,1-9.34-2.93q-3.67-2.93-4.14-8.65Z"/><path class="cls-4" d="M598.53,43.85l9.13-.68q.17,7.59,6.27,7.58a5.92,5.92,0,0,0,4.49-1.82,7,7,0,0,0,0-9.24,6.59,6.59,0,0,0-5.1-1.85c-.55,0-1.25,0-2.12.07V30.66c2.71,0,4.67-.55,5.9-1.66A5.25,5.25,0,0,0,619,25a4.6,4.6,0,0,0-1.4-3.45,5.07,5.07,0,0,0-3.66-1.35q-5.05,0-5.06,5.7L600,25.24q.28-5.85,4.31-8.95a16.37,16.37,0,0,1,10.24-3.09q7,0,10.85,3a10,10,0,0,1,3.86,8.3q0,6.84-7.08,9.78Q631,36.92,631,44.59a11.3,11.3,0,0,1-4.53,9.54,18.5,18.5,0,0,1-11.51,3.44q-15.23,0-16.38-13.72Z"/><path class="cls-4" d="M650.92,50.57c2.42,0,4-1.76,4.59-5.27a55.39,55.39,0,0,0,1-9.93q0-7.5-1.28-11.35T651,20.16q-3,0-4.22,3.95A39,39,0,0,0,645.5,35.4q0,7.49,1.28,11.33t4.14,3.84Zm.06,7q-7.93,0-12.1-5.72T634.7,35.37q0-10.56,4.07-16.37T651,13.2q8.12,0,12.2,5.77t4.08,16.4q0,10.8-4.19,16.5T651,57.57Z"/><path id="star" class="cls-5" d="M195.91,234.38c-1.44,1.84-5.37,7.11-7.11,9.48-.18.25-.82,1.11-1,1.37s.48,2.19.8,2.93c.85,2,3.48,7.54,4.85,11,.14.36.57,1.07.52,1.26s-4.36-1.32-4.93-1.44c-2.2-.46-4.37-1.07-5.91-1.51l-2.86-.8c-1.47-.41-2.16-.57-2.85.17-.26.27-.6.65-.81.86-1.48,1.5-6.37,6.06-8.67,8.27a9,9,0,0,1-1.57,1.35c-.22,0-.28-.54-.19-1.6.08-.8.25-2.07.37-2.85.16-1,.83-4.12,1.16-6.61a22.35,22.35,0,0,1,.45-2.48c.21-.93-.51-.85-1.35-1.13-2.48-.84-4.12-1.68-6.55-2.5a13.24,13.24,0,0,1-2.42-1c-.2-.13,2.53-1,3.21-1.33,2.77-1.19,4.17-1.83,9.14-3.94.8-.34,1.76-.5,2-1.35,0-.23.52-1.3.52-1.52,1.16-3.19,2.2-7.17,3.32-11.12.1-.37.13-.63.45-.68s.58.42,1,.9c1.47,1.81,1.86,2.73,2.94,4.2l1.29,1.73a24.7,24.7,0,0,0,1.69,2.08c-.1-.1,1.35-.38,2.17-.71,2.87-1.13,6.74-2.12,9-3.25a14.47,14.47,0,0,1,2-.8c.29-.05-.21.53-.6,1Z"/></svg>