<svg version="1.1" id="Layer_1" xmlns="http://www.w3.org/2000/svg" x="0" y="0" width="223" height="168.505" viewBox="0 0 223 168.505" xml:space="preserve"><path fill="#EE3424" d="M156.673 135.728c0-2.44.38-5.849-1.054-6.794-1.463-.961-7.043-.382-8.994-.382-2.092 0-7.369.479-8.612-.765-.583-.584-.771-2.069-.765-3.254.016-3.937 1.863-3.826 6.027-3.826h5.455c2.942 0 8.947.664 9.952-.957.522-.846.226-2.678.095-3.826-.187-1.62-.236-2.572-.383-3.925-.27-2.494-.23-5.806-1.915-6.794-1.511-.887-5.651-.477-8.228-.477h-17.414c-2.912 0-6.54-.244-8.899.094-.063.01-.128-.004-.19 0-3.166.248-2.202 5.295-2.202 8.899v7.749c0 12.612.002 26.244 0 38.754 0 2.545-.31 6.26.575 7.27 1.216 1.393 5.666.865 8.133.865 2.529 0 7.068.489 8.324-.767.895-.897.67-3.755.67-5.742v-6.123c0-3.089-.674-9.981.765-11.387 1.151-1.125 5.433-.67 8.995-.67 2.658 0 7.718.61 8.994-.767 1.025-1.104.671-4.495.671-7.175zm-5.138-25.258c.765-.335.698 1.053 0 .868-.422-.111-.349-.717 0-.868zm-4.776.434c1.003-.539 1.089 1.002.362 1.086a.58.58 0 0 1-.362-1.086zm-3.405-2.246c.944-.459.718 1.701-.143 1.016-.357-.284-.118-.885.143-1.016zm-.432 1.304c.339.002 1.556.226 1.447.942-.143.943-3.156.265-3.258-.146-.166-.678 1.164-.8 1.811-.796zm-4.053.724c.602-.342.739.773.433.941-.439.242-.933-.655-.433-.941zm-17.447-5.573c.324-.194.634-.105.724.217.311 1.105-1.656.342-.724-.217zm1.592 4.994c-.398-.279-.264-1.32.073-1.521.466-.275 1.224.242 1.23.798.007.649-.798 1.075-1.303.723zm92.345 52.988c-5.846-17.196-11.796-33.956-17.701-51.001-.787-2.271-1.59-6.247-3.539-7.08-.049-.018-.108-.031-.157-.049.3.133.526.365.573.583.205.963-1.604 1.869-2.1 1.374-.586-.581.271-1.899.723-2.026.18-.051.36-.05.529-.017-1.773-.52-4.613-.15-6.745-.15-2.722 0-5.438-.212-7.559.094-2.271.328-2.72 1.759-3.447 3.828-6.315 18.039-12.567 36.1-18.85 54.351-.449 1.302-1.218 3.241-.765 4.304.672 1.577 5.981 1.055 8.037 1.055 2.573 0 6.887.512 8.708-.384 1.281-.632 1.884-2.569 2.392-4.21.473-1.52.757-3.648 2.021-4.523a.837.837 0 0 0-.317-.055c-.405.014-.756.357-.942.361-.375.008-.599-.354-.869-.29-.714.17-.155 1.407-.579 1.666-.188.115-.939-.388-1.085-.58-.123-.16-.239-.735-.435-1.015-.164-.233-.689-.603-.725-.723-.253-.878.533-2.138 1.303-2.172 1.248-.054.321 2.272 1.375 2.606.395.125 1.483-.323 1.595-.651.079-.238-.517-1.52 0-1.811.389-.217.594.642.94.941.17.146.547.038.724.362.127.233.067.625-.075.946 1.977-.565 5.463-.232 7.788-.232 2.821 0 7.028-.468 8.705.574 2.471 1.533 1.694 7.137 4.307 8.707 1.108.665 2.812.48 4.402.48h1.424c-.103-.787.192-2.547.306-3.164.063-.359.155-.537.435-.652.62-.256 1.103.379 1.229 1.087.121.671.051 2.084-.06 2.729h1.163c2.502 0 7.193.514 7.941-1.055.558-1.163-.172-2.737-.67-4.208zm-45.654-5.646c-.17.418-.767.183-1.447.363-.233.061-.514.389-.651.36-.159-.03-.549-.335-.362-.651.146-.252.303.124.651 0 .462-.164.403-.841 1.085-.941.447-.064.991.218.724.869zm1.014 1.231c.24-.129.625-.085.652.217.063.749-1.441.206-.652-.217zm.361-8.034c.205-.139.599-.034.578.289-.041.68-1.123.081-.578-.289zm1.447.072c-.125.056-.312-.12-.144-.29.206-.206.292.222.144.29zm1.086-8.47c-.107-.174.053-.234.145-.29.607-.36.228.881-.145.29zm2.029 1.736c-.442.138-1.052-.647-.437-.939.816-.385.887.8.437.939zm1.229-36.844c.847-.53 1.127.752.58.94-.404.139-1.184-.561-.58-.94zm.942 38.292c-.321.684-1.433-.293-.726-.722.379-.231.961.221.726.722zm-.362-29.389c.295-.164.599-.088.651.217.151.883-1.475.244-.651-.217zm14.767-7.746c-.34-.057-.396-.627-.072-.797.596-.311.708.904.072.797zm-1.81-3.475c.524-.352 1.922-.031 1.81.58-.185 1.004-2.726.035-1.81-.58zm-8.541.726c.226-.17.552-.128.649.073.456.908-1.45.522-.649-.073zm-3.476 10.64c-.004-.048-.006-.34.363-.507.354-.16.699-.047.796.073.754.925-1.083 1.212-1.159.434zm.797 29.97c.395-.153 1.178.317.87.939-.379.762-1.927-.535-.87-.939zm1.232-34.313c1.178-.308.158 1.776-.436.796-.268-.444.213-.739.436-.796zm-.074 43.216c-.18.311-.775.6-.939.434-.153-.151.133-1.535.289-1.737.146-.188.476-.259.725-.289.216-.026.51-.166.65.072.23.393-.578.562-.725.94-.065.165.066.464 0 .58zm.724 3.112c-.291.071-.443-.487-.291-.651.267-.282.654.561.291.651zm.434-48.429c-.27.007-.578.168-.725.146-.346-.05-1.604-.766-1.664-1.014-.055-.22.334-.749.362-.869.188-.749-.14-1.497.435-1.735.36-.15.986.332 1.086.723.048.188-.062.539 0 .724.297.894 1.86.992 1.664 1.812-.113.472-.553.201-1.158.213zm1.449 2.897c-.277.58-1.555-.177-.797-.65.438-.276 1.045.126.797.65zm1.664 35.325c-.162-.106-.102-.388.072-.506.545-.371.512.893-.072.506zm.362-35.614c-.191.372 1.197 1.473 0 1.663-.379.063-.916-.463-.867-1.084.024-.339.344-.397.434-.724.064-.236-.055-.606 0-.725.177-.385.607-.449.941-.507.358-.063 1.555-.011 1.592.507.064.854-1.863.407-2.1.87zm2.966-7.456c.819-.304 1.514 1.431.943 1.882-.562.446-2.092-1.456-.943-1.882zm1.016 6.731c-.159-.607.289-.977.724-1.086 2.055-.51-.283 2.761-.724 1.086zm1.158 2.679c1.616-.495.019 2.575-.506.941-.185-.572.219-.853.506-.941zm1.158 38.438c-.423.828-2.344-.284-1.014-.795.432-.168 1.356.119 1.014.795zm.506-40.248c-.541-.312-.951.146-1.086-.361-.125-.475.222-.6.506-.652.16-.029.201-.098.362 0 .314.191.06.619.29.869.268.287.564.004.651.217.123.293-.142.492-.218.508-.57.114-.091-.343-.505-.581zm1.304 6.515c-.496.244-1.302-.642-.58-1.015.767-.393 1.045.787.58 1.015zm1.085 3.91c-.419-.249-.096-1.205.219-1.304.808-.254.547 1.754-.219 1.304zm1.883-8.978c-.216.768-.816-.053-1.014.071-.146.093.988.931.363 1.306-.121.068-1.5-.322-1.594-.653-.109-.382.521-.543.508-1.013-.012-.367-1.343-1.134-.363-1.52.334-.131 2.369.85 2.1 1.809zm.29 5.791c.666-.408 1.129.795.649 1.015-.45.204-1.264-.638-.649-1.015zm1.014 37.571c-.251.497-1.156-.209-.437-.434.109-.033.64.025.437.434zm.071-38.801c.844-.438 1.382 1.373.65 1.593-.727.221-1.424-1.191-.65-1.593zm.361 6.441c.539-.31.875.728.507.943-.474.277-1.101-.596-.507-.943zm1.158 38.078c-1.113-.051-.851-2.982-.07-3.258 1.281-.451 1.361 3.315.07 3.258zm.652-40.681c.142-.096.315-.182.435 0 .485.728-1.128.466-.435 0zm-91.483-9.96c-2.136-2.608-5.614-5.242-9.283-6.507-5.75-1.982-15.093-1.146-22.39-1.146-2.479 0-5.573-.244-8.037.094-.061.01-.128-.004-.192 0-.588.037-1.032.25-1.369.595.021-.005.04-.007.067-.015.066-.021.269-.141.433-.072.263.104.539 1.109.362 1.375-.291.435-.584-.16-1.012.072-.462.25-.121.978-.507.94-.123-.01-.187-.077-.22-.174-.103.666-.136 1.401-.135 2.161a.626.626 0 0 1 .21-.176c1.248-.662.805 1.289-.072.867a.432.432 0 0 1-.133-.099c.021 1.049.08 2.108.08 3.041v5.344c-.025-.192.198-.407.342-.467.759-.322.291.995-.217.649a.26.26 0 0 1-.125-.179v5.36c.018-.014.033-.029.053-.041.868-.54 2.761.286 2.533-1.23-.078-.52-1.937-1.857-.289-1.736.574.041.131.186.506.578.081.084.574.313.797.289.105-.012.436-.433.652-.435.3-.002 1.184 1.056 1.302 1.665.225 1.163-.497 2.27-1.593 1.52.016.012-.424-.633-.652-.578-.396.096-.309.75-.433.941-.359.559-1.634 1.079-1.665 1.737-.013.274.349.448.434.797.048.198-.096.416-.072.651.049.474.485.861.506 1.158.03.416-.213 1.174-.434 1.23-.13.033-1.371-.922-1.52-1.159a1.102 1.102 0 0 1-.125-.401v3.629c.13-.166.321-.303.487-.33 1.127-.199.004 1.264-.434 1.013-.024-.015-.033-.033-.053-.048v27.023c0 2.725-.279 6.086.669 7.174 1.124 1.293 5.841.865 8.325.865 2.785 0 6.603.524 7.942-.672 1.395-1.248.861-7.783.861-10.525 0-2.663-.605-8.838.67-10.145 1.062-1.084 4.348-.762 6.027-.762 2.254 0 4.482.023 6.125-.288 3.636-.688 6.149-2.033 8.708-4.21 4.467-3.805 8.121-9.255 7.462-18.275-.342-4.701-2.557-8.613-4.591-11.098zm-40.191-5.605c.197-.196.573-.078.651.072.422.805-1.183.46-.651-.072zm1.593 22.152c-.153-.317.402-.351.506-.506.181-.272-.039-.64.29-.797.126-.062.307-.163.434.071.351.646-1.152 1.393-1.23 1.232zm1.737-1.955c-.276.168-.409-.198-.869-.146-.546.062-1.108.877-1.376.798-.3-.089.06-.488-.144-.652-.325-.26-.629.429-.869-.071-.077-.162.461-.863 1.086-.871.323-.002.644.334.941.291.344-.049.447-.47.652-.506.023-.006.068-.104.144-.074.365.143.802 1.008.435 1.231zm11.799-5.863c.879-.156-.329 1.248-.579.867-.241-.365.416-.839.579-.867zm-4.2-16.143c1.482-.526-.146 1.593-.361.508-.043-.226-.005-.379.361-.508zm-1.881 2.822c1.04-.207.203 1.362-.361.796-.275-.274-.139-.695.361-.796zm0 10.352c-.349-.03-.255-.506-.072-.649.374-.302.51.69.072.649zm-5.718-13.32c.216-.021.48-.057.651.073.158.118.149.541.289.58.45.117.791-.794 1.376-.725.334.039.282.368.579.579.271.191.553-.012.652.291.124.378-.477 1.113-.652 1.156-.304.077-.527-.336-.868-.36-.652-.052-1.906 1.002-2.606.288-.538-.546-.34-1.785.579-1.882zm3.04 5.213c-.289.81-1.815-.26-.869-.725.522-.255 1.03.274.869.725zm-2.317-1.738c-.144.202-.195.999-.796.725-.193-.088-.252-.506-.218-.65.05-.211.925-.717 1.159-.727.002 0 .26-.156.361 0 .22.345-.421.533-.506.652zm-.868 1.955c-.541.439-1.682-.684-.868-1.23.906-.61 1.23.935.868 1.23zm1.663 14.768c-.531-.205-.462-1.775 0-1.955.236-.092 1.06.883 1.014 1.303-.047.446-.631.799-1.014.652zm1.884-4.923c-.077.071-.331-.055-.507 0-.893.278.204 2.187-1.303 1.882-.309-.062-.293-.475-.579-.507-.239-.024-.403.411-.651.29-.875-.423.544-1.579.651-1.882.201-.563-.262-.976.29-1.086.531-.105.409 1.147 1.23.58.346-.241.332-1.115.651-1.304.467-.276.643.387.653.434.06.304-.377 1.54-.435 1.593zm2.751 6.153c-.312-.184.116-.75.362-.797.49-.092-.078.966-.362.797zm.795-.868c-.101-.212.369-.567.435-.581.874-.17-.035 1.408-.435.581zm.796 4.198c-.162-.297.065-.235.218-.289.628-.233.04.755-.218.289zm1.015-5.141c-.416.217-.784-.699-.869-.724-.344-.101-.473.242-.942.29-.228.025-.673-.13-.795-.072-.471.219-.138.739-.652.796-.884.099-.909-1.307-.506-1.809.076-.099.571-.536.723-.435.247.164-.283.722-.217 1.014-.013-.061.136.48.434.361.631-.254-.307-1.414.363-1.81.399-.235.532.442.796.579.419.214.166-.141.506-.073.579.116 1.778 1.559 1.159 1.883zm.868-16.721c-.25.46-1.588-.226-.868-.651.317-.188 1.131.171.868.651zm1.376 18.243c-.296.045-.431.402-.651.217a29.956 29.956 0 0 1-.073-1.158c.001-.775.21-2.354.651-2.462.652-.159.108.789.29 1.521.137.553.993.703 1.013 1.158.026.546-.577.624-1.23.724zm-41.15 12.351c-.787-1.341-2.063-3.013-2.01-4.495.047-1.348 1.075-2.656 1.818-3.828 4.467-7.037 8.56-13.271 13.013-20.285.755-1.188 1.845-2.772 1.437-3.924-.617-1.732-6.543-1.051-8.613-1.051-3.271 0-7.492-.471-9.473.285-1.672.639-2.885 3.148-3.827 4.785-2.293 3.984-4.115 7.21-6.316 10.908-1.052 1.771-1.907 4.035-3.827 4.878-.916-1.082-.764-2.832-.764-4.496v-7.63a.195.195 0 0 1-.081.05c-.524.137-.69-.683-1.158-.506-.398.149-.065.847-.435 1.012-.269.124-.633-.336-.868-.433-.484-.198-1.86-.202-1.592-1.014.155-.475.678-.035 1.085-.144.474-.128.632-.896 1.231-1.087.381-.122.897-.123 1.303-.145.166-.011.323-.129.515-.086v-.733c0-1.917.114-3.895-.575-4.786-.964-1.248-4.716-.859-7.08-.859-2.728 0-5.138-.292-7.561 0-3.431.412-2.582 4.557-2.582 8.61v6.339c.065-.175.156-.312.271-.377 1.012-.562 2.667 2.253 1.376 2.678-.373.124-1.373-.222-1.593-.578-.021-.035-.037-.084-.054-.125 0 12.987.002 26.014 0 38.854 0 2.326-.391 5.986.573 7.273.149.197.371.355.64.485-.087-.286.012-.629.434-.737.638-.166.744.678.405 1.02 1.793.41 4.622.189 6.655.189 2.754 0 6.769.479 8.134-.574 1.229-.952.957-3.442.957-5.84v-12.629c0-1.963-.366-4.223.956-5.358 1.198.473 1.627 1.722 2.201 2.679 3.135 5.241 6.003 10.217 9.09 15.596 1.163 2.029 2.308 4.973 4.209 5.743 2.051.829 6.06.384 9.474.384 2.691 0 8.095.707 8.707-1.149.488-1.485-.898-3.105-1.723-4.498a7536.204 7536.204 0 0 1-14.352-24.401zm-22.263-31.246c1.012-.192.028 1.405-.506.869-.284-.283.402-.849.506-.869zm-10.93-2.098c.577-.396.507.678 0 .508-.229-.08-.165-.398 0-.508zm-2.462 3.69c.668-.379 2.202.406 1.666.942-.376.376-2.915-.226-1.666-.942zm1.231 34.602c1.232-.266.832 1.758-.144 1.666-.897-.083-.651-1.494.144-1.666zm-.217 22.297c-.087-.223-.115-.374.217-.578.252-.154.553-.1.652 0 .611.611-.66 1.112-.869.578zm1.376-44.229c-.497-.219-.04-1.002.289-1.086 1.02-.263.427 1.401-.289 1.086zm0-2.317c-.334-.41.098-.993.362-1.086 1.231-.429.401 2.028-.362 1.086zm.868-2.39c-.465.207-1.113-.631-.362-.867.578-.184.769.689.362.867zm.507-3.256c-.221.638-.736 1.756-1.448 1.52-1.226-.406.375-2.591.435-3.04.074-.562-.293-1.194-.362-1.593-.158-.887-.242-1.883.506-2.1.259-.074 1.005-.176 1.158.289.294.891-1.37 1.303-.217 2.1.217.15.405.061.507.363.125.373-.409 1.967-.579 2.461zm1.231-6.008c-.874.299-1.411-1.535-.435-1.81.978-.277 1.034 1.603.435 1.81zm1.157 4.198c.274-.212.751-.01.796.29.151.996-1.56.303-.796-.29zm1.52-5.067c-.129.504.254.947-.143 1.086-.75.26-.28-.83-.362-1.23-.133-.648-1.304-.993-.508-1.521.491-.324 1.475.191 1.448.942-.012.348-.337.346-.435.723zm3.548 7.239c-.021.174-.244.365-.29.653-.114.715.279 1.222-.216 1.374-.467.144-.982-.749-1.087-1.52-.049-.36.132-.951 0-1.088-.223-.228-.455.446-.941.146-.727-.451.459-1.237.435-1.231.062-.015.147-.093.29-.071.471.069.123.474.434.578.584.196.707-.656 1.23-.144.032.031.171 1.077.145 1.303zm.651-4.922c-.344-.346.225-.747.508-.798 1.247-.226-.002 1.304-.508.798zm2.679 6.949c-.312-.121-.239-.594.072-.723.819-.347.647 1.004-.072.723z"/><path fill="#010101" d="M206.265 51.507c-1.465-1.423-3.659-1.107-4.437.663-.982 2.237.666 4.793 3.832 3.781 1.971-.63 1.709-3.461 2.989-5.777a96.422 96.422 0 0 0 3.263 2.318c.765-.882 1.289-2.177 1.889-3.311-1.598-1.663-3.161-2.146-5.312-3.247-1.044 1.705-1.198 3.843-2.224 5.573zm4.494 6.57c-.991.656-1.56 1.45-2.618 2.643-1.537-3.13-5.518-.161-4.044 2.038.435.648 1.226 1.407 2.251 1.361 1.703-.29 1.936-1.829 2.805-2.692.23-.231.957-1.101 1.217-.879.578.483.744 1.233 1.388 2.181.64-.379 1.233-.626 1.759-1.32-.851-1.176-1.411-2.49-2.758-3.332zm-1.105 2.231c-.279-.192.01-.577.144-.651.772-.433.483 1.087-.144.651zm6.351 15.015a7.037 7.037 0 0 0-1.771-1.117c-.431 1.31-1.281 2.909-1.283 4.305 1.149-.791 2.319-2.035 3.054-3.188zm-70.167-42.076c-.537.287-1.998-2.068-.982-2.545.188-.09.415.079.623.367a1.997 1.997 0 0 0-.242-.464c-.945-1.256-4.582-.865-6.92-.865-2.961 0-5.967-.099-7.498.096a6.872 6.872 0 0 0-1.826.48c-1.785.737-3.336 1.78-5.381 2.979-1.938 1.136-4.096 2.158-4.711 3.749-.74 1.915-.287 5.614-.287 8.458 0 2.106-.714 7.229 1.152 7.689.867.215 1.639-.282 2.211-.576 1.318-.681 4.342-3.135 5.862-2.595 1.093.387.962 2.552.962 4.517v27.68c0 2.971-.669 8.909.673 10.38 1.089 1.195 5.567.769 7.881.769 3.142 0 6.321.595 7.688-.67 1.109-1.027.77-4.572.77-7.499V37.909c-.001-1.337.103-3.139.025-4.662zm-8.656 9.036c.238-.125.684-.194.796.073.245.577-1.551.32-.796-.073zm1.23 6.081c-.062-.132-.021-.318.146-.434 1.018-.711.337 1.46-.146.434zm.942-9.628c-.594-.2-.16-2.457.29-2.678.134-.065.909-.085 1.013.362.076.326-.394.661-.435.796-.174.582-.079 1.786-.868 1.52zm1.302 3.547c.303-.176 1.879-.237 1.955.145.149.732-2.705.295-1.955-.145zm.506-4.632c-.084-.416-.032-.767.22-.942.414-.287 1.507.11 1.663.724.48 1.884-1.665 1.262-1.883.218zm1.81-3.982c-.46.035-.592-.586-.216-.796.631-.354.773.755.216.796zm72.112 59.489c2.49 1.371 4.978 2.884 7.472 3.347.376-1.374.606-2.75.24-4.132-2.569.238-5.14.211-7.712.785zm6.369.449c.16-.162.838-.142.939.071.268.56-1.338.327-.939-.071zm-9.06-2.906c2.057-.322 4.27-.66 6.439-1.069 0-.103.099-.211.377-.295.258-.081.398-.222.498.124a58.411 58.411 0 0 0 3.293-.744c-.237-1.446-.92-3.24-1.592-4.402-1.619.948-2.416 1.38-3.602 2.171-1.91 1.282-4.277 2.607-5.413 4.215zm4.933-3.536c.438-.439.545.752 0 .434-.06-.037-.172-.263 0-.434zm1.375 1.303c.25.733-2.263.94-2.172.146.045-.396.338-.221.724-.291.231-.044 1.307-.271 1.448.145zm-5.274 9.014c.022-.014.037-.027.063-.039.28-.145.655-.151.795.072.25.401.092.604-.178.676a23.587 23.587 0 0 0 1.996 1.803c.571-.48 1.094-1.104 1.542-1.957-1.915-1.004-4.261-2.656-6.276-3.122a21.502 21.502 0 0 0 2.058 2.567zm2.813.178c.226-.143.62.08.435.361-.171.26-.922-.051-.435-.361zm3.693-16.649c-.18-.003-.381.171-.507.145-.475-.102-1.016-.715-.507-1.013.198-.118.409.128.651.143.37.027 1.049-.145 1.5-.046-.523-.558-1.096-1.044-1.828-1.281-.713 1.371-1.558 2.654-2.104 4.135 1.16-.627 2.357-1.225 3.323-1.975a1.874 1.874 0 0 0-.528-.108zm-10.105 8.38c.08-.087.154-.176.232-.264a.394.394 0 0 1-.168-.123c-.019.129-.045.256-.064.387zm-10.92-2.583a26.76 26.76 0 0 1 .282-3.501c-.112.101-.25.157-.396.093-.379-.17.113-.776.361-.797a.276.276 0 0 1 .14.026c.626-3.688 1.882-6.852 2.858-10.083.327-1.084 1.188-3.4 1.039-4.163-.167-.85-2.732-1.845-3.797-2.313-3.158-1.391-5.167-2.227-8.688-3.515-1.113-.408-4.004-1.083-4.269-2.049-.392-1.438.155-3.523.386-4.991.061-.393.127-.773.194-1.145-.46.035-.601-.952-.241-1.157.198-.112.348-.022.443.146.171-.825.363-1.641.584-2.503a85.044 85.044 0 0 0 2.332-.547c.157-.308.741-.615.911-.642.338-.056.608.059.728.225 2.488-.652 4.926-1.366 7.502-2.087 1.482-.415 3.678-.95 3.813-1.646.21-1.062-1.022-3.2-1.451-3.929-2.089-3.555-5.358-5.631-8.028-8.283.11-.732.84-.802 1.026-1.281.173-.449-.17-.662.085-1.024.367-.526 1.684-.773 2.988-.598 2.434.322 6.499 4.264 9.308 1.793 1.226-1.076 1.749-2.77 1.847-4.667a.53.53 0 0 1-.371.213c-.336.036-.543-.414-.726-.433-.364-.037-.858.745-1.229.145-.293-.473.408-1.116.506-1.159.113-.047 1.581.172 1.81.435.011.012.017.027.026.039-.012-1.894-.393-3.923-.913-5.719-.289.739-2.633.159-2.442-.545.051-.188.938-.543 1.229-.579.108-.013.293-.123.435-.073.094.032.411.349.618.66a23.571 23.571 0 0 0-.94-2.526c-.854-1.924-4.264-6.708-6.509-3.128-1.372 2.189-1.782 5.716-1.708 9.054-2.271-2.114-1.367-6.636 0-9.138.418-.764 1.44-1.217 1.11-1.963-4.544.867-4.574 7.438-7.942 9.905-.938.688-1.926 1.134-3.244 1.707-1.242-1.63-4.073.136-4.014 1.88-.644 1.141-2.435.916-2.988 2.135-1.01 2.21 1.133 5.459 2.646 5.635.823.097 1.479-.63 2.305-.427.553.845.618 2.174 1.281 2.905.708.279 1.561-.037 1.964-.342 1.567 1.849 3.941 3.344 4.357 6.062-4.134-1.731-8.261-3.467-13.665-3.928-1.483-5.147-.449-10.854-3.244-14.346-1.455-1.817-4.021-1.088-6.576-1.795-1.875-.518-3.048-2.146-4.953-2.817.256 1.484 1.031 2.277 1.366 4.014-1.711-.085-2.899-1.426-4.782-1.623.811 1.722 2.303 2.764 2.989 4.612-1.076.575-2.849.454-4.185.769.686 1.022 2.688 1.469 3.672 2.476-1.149 1.07-2.819 1.621-3.842 2.818 1.924.294 4.613-.175 6.404.256.781 2.151 1.592 4.271 2.219 6.576-7.342 3.763-12.595 10.194-15.028 19.212-.816 3.026-1.623 6.269-1.88 9.651-.32 4.222.635 6.937 2.648 8.798 1.055.974 2.664 2.256 4.354 2.306 1.406-3.292 2.33-9.722-1.791-10.59.64-4.593 2.156-8.899 4.525-12.213.532-.746 1.852-3.033 2.817-2.903.625.084 1.59 2.065 1.879 2.477 1.331 1.89 2.271 3.324 3.502 5.208.461.707 1.67 1.99 1.708 2.649.039.688-.846 2.427-1.195 3.416-.416 1.17-.828 2.636-1.025 3.672-1.51 7.897-2.361 16.927-1.965 25.277-4.211 1-9.426 3.495-7.088 9.137 4.176-1.603 8.4-3.156 12.809-4.525a57.715 57.715 0 0 1 .474-9.721c-.007.006-.01.017-.02.021-.502.249-.541-.496-.796-.58-.889-.286-.989.6-1.594.29-.428-.22-.281-1.381-.217-1.448.139-.136 1.825-.023 2.244.362.195.18.378.554.447.87.121-.871.258-1.733.41-2.583-.234.024-.418-.392-.278-.531.151-.149.283-.067.362.069.642-3.45 1.515-6.709 2.471-9.722.023-.08.048-.162.074-.243-.244-.032-.54-.409-.229-.599.154-.094.291-.005.373.128.452-1.481.936-3.113 1.657-4.068 2.812-3.714 11.245-1.894 15.03-.085-.48 6.324-1.237 13.274-1.28 19.47 2.272-.078 4.871-.087 7.451-.073.018-.161.103-.321.223-.388.39-.225.57.091.543.394 1.777.015 3.519.037 5.134.06.026-.038.068-.062.114-.092.304-.193.354-.072.306.097l.234.003c-.391-4.265-3.583-7.2-8.024-6.32zm.031-6.811c.251-.142.984.09.723.58-.252.474-1.404-.196-.723-.58zm-10.785-49.875c.197-.094.992.08 1.012.506.058 1.203-2.075 0-1.012-.506zm9.772 16.215c1.123-.333.513 1.691-.362.796-.277-.284.047-.703.362-.796zm-5.574-3.546c.37-.062.754-.245.87.144.292.987-3.025.209-.87-.144zm-4.922 6.586c.665-.4.738 1.099.217 1.159-.503.057-.544-.963-.217-1.159zm-27.797 4.416c-.258.049-.486-.121-.651-.072-.321.092-.567.723-.87.507-.412-.296.377-1.249.508-1.303.184-.076.681.001 1.131.002-.424-.007.384-.204.535-.002.139.188-.208.784-.653.868zm10.857-27.291c.149-.347-.096-.471.217-.65.553-.319 1.757.896 1.23 1.591-.119.161-1.631.541-1.881.291-.377-.38.362-1.062.434-1.232zm-.941 28.52c.061-.152.195-.209.652-.29.379-.066.68-.113.795.218.365 1.041-1.838 1.094-1.447.072zm2.173-5.138c.653-.225.729 1.17.289 1.303-.574.173-.914-1.088-.289-1.303zm-.289 12.813c-.214-.463.424-1.162.724-1.231.355-.084.828.089.868.506.053.556-1.234 1.505-1.592.725zm1.084 6.37c-.092-.342.113-.309.362-.361.974-.211-.121 1.251-.362.361zm-.215-1.231c-.213-.383.388-.613.577-.651 1.486-.294-.043 1.616-.577.651zm4.559-20.775c.262-.264.613.01.65.144.206.716-1.183.388-.65-.144zm-2.751 5.14c-.09-.306.05-.857.361-1.014.429-.214 1.036.431 1.013.868-.035.723-1.177.822-1.374.146zm1.737-8.759c-.292-.156-.421-.516.073-.724.859-.361.455 1.005-.073.724zm1.086 27.796c-.389.198-.876-.399-.435-.722.51-.372.736.57.435.722zm-.435-16.216c-.316-.152-.351-.715 0-.939 1.088-.697.902 1.37 0 .939zm1.521-3.69c-.397-.01-2.524-1.024-1.593-1.521.365-.194 2.703.613 2.752.868.053.288-.925.659-1.159.653zm4.415-2.679c.266-.108.775-.078.725.363-.095.808-1.837.093-.725-.363zm-1.955 5.791c-.177.266-1.123-.106-.723-.506.268-.268.917.217.723.506zm-.505-5.573c-.112-.353.14-.298.362-.362 1.21-.347-.055 1.332-.362.362zm1.881 4.706c.271-.191.564-.116.651.144.256.754-1.217.25-.651-.144zm1.231 3.907c-.499.2-1.389-1.084-.506-1.375.065-.022.242-.159.36-.073.164.123.454 1.327.146 1.448zm-.506-2.098c-.191-.192-.061-.674.216-.796.93-.413.364 1.377-.216.796zm1.158-3.547c-.209.766-1.877.661-1.883-.363-.001-.313.294-.813.797-.94.186-.049.367-.129.579 0 .164.099.567 1.08.507 1.303zm1.231 18.025c-.501.048-.639-.598-.145-.797.672-.27.642.748.145.797zm-.507-13.611c-.081-.318.108-.282.362-.361 1.322-.407-.115 1.342-.362.361zm2.317 7.385c-.785.673-1.695-.902-.652-1.231.701-.222 1.123.826.652 1.231zm7.6 1.738c-.201.429-1.153-.223-.651-.725.098-.097.799.406.651.725zm-3.329 1.447c.213-.152.448-.167.578.072.509.941-1.357.479-.578-.072zm1.518 5.573c-.265.165-.787-.5-.434-.724.309-.194.69.566.434.724zm.363-8.613c.433-.432 1.127.505.797.724-.299.197-.9-.621-.797-.724zm.073 4.778c-.204-.439.38-.508.434-.725.098-.388-.281-.659 0-.941.206-.205 1.059 1.021.941 1.303-.088.211-1.27.594-1.375.363zm1.52 11.291c.962.066-.302.984-.653.797-.493-.264.072-.837.653-.797zm-.145 10.714c-.063-.149.054-.344.217-.435.976-.541.148 1.303-.217.435zm.433-6.152c-.302.292-.165 1.364-.723 1.374-.6.011-.232-.439-.362-.941-.046-.175-.354-.445-.362-.651-.015-.42.36-.804.941-.941.702-.165 1.458-.114 1.521.435.099.875-.632.354-1.015.724zm-.072-14.116c-.234-.397-.291-1.737-.145-1.882.119-.118 1.732 1.41 1.738 1.52.028.591-1.288.874-1.593.362zm1.521-3.765c-.304.269-.479 1.255-.94 1.013-.103-.052-.24-.841-.074-1.158.054-.1.605-.447 1.088-.434.086.002.94.115.361.507-.288.194-.163-.17-.435.072zm.362 25.408c-.11-.457.344-.574.724-.651.435-.089.644-.074.724 0 .663.618-1.206 1.661-1.448.651zm2.172-2.824c-.389.257-2.668-.904-.797-1.229.199-.034.527-.169.724-.071.153.072.454 1.05.073 1.3zm1.592 1.158c-.377.174-1.206-.422-.579-.796.694-.413.998.606.579.796zm2.462.797c.562-.162.882-.125.94.218.144.833-2.58.257-.94-.218zm1.003-15.058a47.05 47.05 0 0 0 1.067 4.245c.233-.152.536.225.39.463-.045.073-.13.093-.22.082.284.92.591 1.823.914 2.702.167-.131.754-.336 1.261-.396.863-.102.693.015.652.796-.012.186.197.457.072.652-.166.259-1.051.196-1.627-.096.295.76.596 1.499.904 2.204.782-1.691 1.196-3.572 1.532-5.494-.698.202-2.337-.086-2.476-.307-.554-.888.313-.645.797-.65.387-.004.746-.181 1.086-.218.438-.046.621-.155.8-.051.222-1.354.434-2.714.735-4.026-1.76-.362-3.626-.519-5.887.094zm-82.11 4.858c0-.961.093-2.75-.576-3.557-.901-1.087-3.859-.865-6.535-.865-2.664 0-5.484-.25-7.594.096-2.511.414-2.209 2.394-2.209 4.903v3.748c0 2.109-.51 5.713.384 7.113 1.014 1.585 5.949 1.056 8.458 1.056.707 0 1.658.069 2.654.105.031-.451.431-.896.517-1.312.127-.619-.173-1.338.434-1.592.285-.119 1.072-.022 1.231.724.094.436.064 1.45-.053 2.163 1.123-.078 2.108-.306 2.617-.856 1.006-1.086.672-4.86.672-7.592v-4.134zM96.637 70.588c-.923-.854-3.369-.663-4.133-1.442-1.155-1.177-.673-6.687-.673-9.613V39.735c0-2.825.607-7.822-.672-9.226-1.275-1.398-6.456-.769-9.131-.769-3.71 0-7.337-.357-10.092.096-.635.103-1.228.271-1.635.576-1.325 1.004-2.392 4.199-3.267 6.151-6.324 14.108-12.82 28.447-19.126 42.676-.487 1.096-1.265 2.75-.865 3.748.609 1.521 4.399 1.056 5.959 1.056h14.224c1.756 0 5.425-.326 6.632.481 1.679 1.122.303 6.636 1.634 8.073.588.636 2.031.827 3.58.861-.019-.318.121-.579.416-.72.444-.213 1.344.211 1.596.695l1.293-.047c.023-.023.046-.047.079-.068a.375.375 0 0 1 .524.051c.102-.004.205-.004.298-.004 2.21 0 6.652.578 7.881-.769 1.159-1.271-.127-5.823 1.153-7.592.707-.976 3.778-.936 4.518-1.827 1.049-1.263.576-4.179.576-6.343 0-2.094.344-5.217-.769-6.246zm-23.881 7.744c-.269-.079-.31-.556-.071-.723.546-.384.723.915.071.723zm-1.085-34.456c-.195-.683.383-1.16.795-1.23 1.817-.316-.332 2.853-.795 1.23zm2.75 37.497c-.365.193-.946-.519-.434-.796.561-.306.762.623.434.796zm.288-39.235c-.146-.161-.2-.376.073-.578.874-.646.505 1.209-.073.578zm2.535 26.568c.566-.182.421.967-.145.722-.328-.14-.059-.658.145-.722zM76.159 41.56c.177-.13.33-.104.433 0 .64.643-1.204.557-.433 0zm.867 49.151c-.394-.395.196-.969.436-1.014 1.007-.188.279 1.728-.436 1.014zm5.43-3.692c-.204.341-.244.671-.434.798-.125.082-.329-.004-.58.071-.458.138-.915 1.03-1.013 1.375-.183.646.08.954-.289 1.086-.772.276-1.02-1.495-.579-2.461.22-.481 1.902-1.824 2.822-1.81.816.012.367.451.073.941zm1.882-20.486c-.504-.246-.405-1.295-.072-1.447.543-.25.314.247.724.506.403.255.559-.059.651.145.22.488-.817 1.034-1.303.796zm2.027.507c-.055.14-.556.052-.433-.217.09-.204.497.055.433.217zm-.868-19.038c-.222-.494.12-.636.362-.725 1.209-.435.114 1.783-.362.725zm1.882 13.319c.909-.296.193 1.033.289 1.23.342.714 2.283-.53 2.461.797.094.692-.291.754-1.157.869-.455.06-.94.514-1.159-.218 0 .004.006-.494-.072-.578-.072-.079-.593-.054-.652-.144-.259-.407-.04-1.848.29-1.956zm-.146 5.864c-.213-.467.603-.336.868-.507.464-.299.239-.837.797-1.012.284-.092 1.142.563.941 1.085-.052.137-2.325 1.049-2.606.434zm1.377 4.199c-.016-.213.703-.24.651-.507-.08-.407-1.127.41-1.376-.072-.111-.218.193-.499.217-.652.102-.647-.102-1.466.58-1.592.672-.125.134.357.145.723 0 .005.482 1.296.578 1.375.288.239.603-.092.724.218.323.817-1.473 1.164-1.519.507zm1.519-1.883c-.216.115-.449-.201-.289-.362.253-.253.472.266.289.362zm83.916-57.505c-.034.304-.971.856-1.656 1.894 1.238 1.989 3.293 5.071 5.41 6.29-.039-1.136-1.358-4.073-1.622-5.682.337-.71 2.231-1.149 2.569-1.826.102-.203-1.59-2.671-1.625-3.145-.024-.373 1.76-1.49 3.215-3.044A69.182 69.182 0 0 0 176.68 0c-1.189 1.474-2.893 2.636-3.987 4.284.349.916 1.614 1.943 1.657 2.335.03.274-1.48 1.275-2.469 2.57.415 1.119 2.229 2.22 2.164 2.807zm6.793 3.485c.441 2.456.027 5.301.617 7.661.836-1.723 1.228-3.631 1.627-3.795a23.463 23.463 0 0 1 2.908-.905c.801-.18 2.864-.484 2.967-.798.132-.405-.521-2.571-.295-2.996.314-.26 3.007-.474 4.598-.575.014-.968-.258-3.662-.276-4.145.462-.256 2.683-.091 3.13-.322-.014-1.427-.084-2.409-.226-3.955-.069-.766-.183-4.285-1.01-4.189-2.854.327-7.128 1.288-9.081 2.365.048 1.71 1.086 3.645.984 5.452-.887.553-2.422.585-3.529 1.123.087.72 1.072 3.11.877 3.49-.307.593-2.12.78-3.291 1.589zm8.546-3.023c.376-.154.676-.117.726.291.124 1.068-1.954.216-.726-.291zM42.719 36.67c.099.496-.282 1.187-.222 1.27.127.174.706.015.87.073.334.116 1.403 1.836 1.375 2.388-.034.672-.954.701-1.014 1.159-.017.136.969 1.308 0 1.592-.387.114-.895-.15-.941-.579-.019-.187.454-.585.362-.869-.068-.214-1.206-.323-1.302-1.014-.022-.146.328-.801.288-.869-.214-.374-1.065-.116-1.157.146-.095.27.387.648.506.869.248.461.572 1.095.58 1.375.011.431-.428.489-.507 1.157-.08.683.636 1.536-.145 1.738-.764.2-1.959-1.478-1.954-1.954.003-.434.656-.557.796-1.158.061-.262-.165-.909-.072-1.376.065-.338.35-.59.361-.724.039-.457-.372-.952-.289-1.738.029-.273.374-.943.289-1.158-.065-.161-1.048-.295-.796-.795.314-.626.77.288 1.013.289.385.002.621-.533.797-.579.205-.053.433-.004.634.103-.008-.008-.015-.02-.023-.029-4.329-5.024-11.235-8.708-20.569-7.977-6.864.536-11.26 3.378-14.897 7.014-3.698 3.7-6.275 8.91-6.632 15.187-.748 13.158 4.539 21.523 14.033 24.126 1.526.417 3.566.71 3.748 1.729.279 1.566-1.738 3.235-2.499 4.229-1.945 2.545-3.769 5.109-5.767 7.689-.725.938-2.71 2.803-2.21 4.325.517 1.573 5.296 1.056 8.073 1.056 3.195 0 6.018.364 8.261-.025-.246-.322-.429-.855-.177-1.109.229-.228 1.133-.07 2.099-.072.187 0 .366-.004.511.007.801-.763 1.477-1.8 2.186-2.74 1.526-2.024 3.044-4.049 4.538-6.044-.259.158-.501.081-.648-.416-.323-1.096.54-2.458 1.232-2.533.743-.082.565 1.08.133 1.986.78-1.041 1.548-2.071 2.309-3.093-.44-.282.329-1.652.598-1.716.339-.08.476.043.491.251l.478-.64c4.14-5.576 8.557-10.448 9.898-18.647 1.509-9.205-.77-16.977-4.638-21.904zm-26.572-3.58c-.194.43-1.092-.077-.579-.434.271-.188.76.038.579.434zm2.173 7.89c-.607.188-1.89-1.01-1.086-1.449 1.05-.572 1.912 1.192 1.086 1.449zm.073-4.054c.339-.169.634-.099.723.217.327 1.165-1.863.352-.723-.217zm1.52.29c.066-.172.131-.108.361-.218.384-.18 1.912.157 2.027.58.394 1.426-2.937 1.063-2.388-.362zm7.456 1.592c.339-.149.717.269.941.073.328-.288-.333-1.241.217-1.593.634-.404.926.711 1.375 1.303.18.237.684.587.724.796.148.765-.606 1.508-1.231 1.449-.479-.046-.357-.606-1.013-.797-.369-.108-1.242.312-1.447-.362-.136-.442.233-.781.434-.869zm3.04 4.851c-.201.409-1.184-.122-.652-.507.333-.24.84.119.652.507zm-1.593 28.448c.341-.155.521.003.578.073.876 1.068-1.98.562-.578-.073zm-3.763-36.194c.497-.114.809.18.723.651-.221 1.206-2.189-.316-.723-.651zM24.4 63.421c.112-.113.291-.12.362 0 .212.36-.657.295-.362 0zm.579-21.283c.066-.533.739-.199.941-.578.104-.195.087-.689 0-.797-.229-.281-1.133.086-1.231.073-.229-.03-.845-.335-.94-.869-.021-.113.121-.355.072-.507-.134-.41-.975-1.141-.072-1.447.702-.24.725 1.08 1.158.94.349-.114-.103-.932.361-1.013.194-.035.386.102.434.216.272.648-.411.554-.361.87.072.449 1.056.465 1.231.725.108.161-.043.536 0 .65.116.31.909.249.651.942-.126.339-.574.239-.724.506-.157.278.18.497-.145.797-.294.273-1.458.166-1.375-.508zm.796 43.434c.846-.299.821 1.608 0 1.52-.657-.071-.477-1.352 0-1.52zm.29 4.56c.314-.245.723-.051.796.217.284 1.038-1.602.413-.796-.217zm2.1-9.121c-.72.289-1.986-.301-1.955-.868.038-.655.894-.426 1.376-.58.317-.102.387-.354.724-.436.108-.025 1.863.117 1.447.87-.101.184-.575.089-.724.146-.348.129-.451.701-.868.868zm.435 5.936c-.038-.509.22-.646.651-.724.467-.085.664.155.723.361.303 1.035-1.303 1.346-1.374.363zm2.605-10.714c-.191 1.081-1.837-.076-.868-.578.478-.25.959.068.868.578zm6.515-40.899c1.623-.363-.158 2.024-.507.653-.116-.459.163-.576.507-.653zm-1.085 24.395c.627-.351 1.136-.001 1.158.362.065 1.134-2.301.276-1.158-.362zm-1.159-17.011c-.146.243-1.616 1.211-2.026 1.085-.729-.222-.169-1.276-.218-2.027-.032-.485-.322-.496-.289-.795.036-.331.213-.146.507-.58.329-.484.032-.726.65-.869.353-.081 1.62.62 1.738 1.158.03.132-.217 1.788-.362 2.028zm-1.448-3.837c-.131-.492.149-.637.29-1.014-.05.134.473-.74.217-1.084-.149-.202-.825.575-1.23.071-.336-.417.121-.747.216-.796.559-.297.661.443 1.014.434.089-.002.476-.491.579-.505.593-.088 1.087.679 1.086 1.156 0 .228-.264.494-.289.724-.035.307.251.694.144 1.014-.188.561-1.83.733-2.027 0zm3.329 36.629c-.71.127-1.656-1.143-1.375-2.1.103-.351.556-.573 1.085-.652.607-.089.982.025 1.159.29.548.824-.412 2.38-.869 2.462zm1.087-19.835c-.117-.047-.318-.69-.435-.796-.047-.043-1.711-.628-1.519-1.013.044-.09 1.338-.351 1.448-.363.906-.098 1.905.365 1.809 1.23-.047.425-.807 1.14-1.303.942zm1.882-1.809c-.082.161-.631.052-.362-.217.127-.129.467.009.362.217zm4.271-3.982c.275-.273.315.399 0 .289-.111-.038-.099-.191 0-.289zm.361 6.369c-.054.317-1.077 1.353-1.664 1.231a.624.624 0 0 1-.508-.651c.013-.345 1.354-1.417 1.593-1.447.293-.038.684.265.579.867zm.291 4.417c.232-.135.826-.03.869.29.123.949-1.683.186-.869-.29zm167.428 20.574c-1.099 2.199-2.111 4.431-2.625 6.872.21-.146.487-.223.687-.228a.662.662 0 0 1 .348.067 353.344 353.344 0 0 0 4.283-5.081c-.87-.611-1.71-1.293-2.693-1.63zm-.418 4.11c.299-.034.759.153.579.507-.273.537-1.86-.361-.579-.507z"/></svg>