<?xml version="1.0" encoding="utf-8"?>
<!-- Generator: Adobe Illustrator 22.1.0, SVG Export Plug-In . SVG Version: 6.00 Build 0)  -->
<svg version="1.1" id="Ebene_1" xmlns="http://www.w3.org/2000/svg" xmlns:xlink="http://www.w3.org/1999/xlink" x="0px" y="0px"
	 viewBox="0 0 111.2 38.5" style="enable-background:new 0 0 111.2 38.5;" xml:space="preserve">
<style type="text/css">
	.st0{fill:#FFFFFF;}
	.st1{fill:#00A983;}
	.st2{fill:#003560;}
</style>
<path class="st0" d="M110.9,0.1H85.6l-4.4,32.6h25.3L110.9,0.1z"/>
<path class="st1" d="M110.5,3.2l0.4-3.1H85.6l-4.4,32.6h25.3l0.4-3.1h-5.3l1.9-14c0.2-1.7,0.5-3.3,0.8-4.7c-0.5,0.6-1.2,1.1-1.9,1.7
	l-3.4,2.5l-3.1-4.6l10.1-7.4L110.5,3.2L110.5,3.2z"/>
<g>
	<path class="st2" d="M47.2,13.8h-4.6v-4h4.6c1.1,0,2,0.9,2,2C49.2,12.9,48.3,13.8,47.2,13.8 M59.8,11.8c0-4.7-3.9-8.6-8.6-8.6H32
		v26.4h10.6V17l5.3,12.6h11.2l-4.3-10.1C57.8,18.1,59.8,15.2,59.8,11.8"/>
	<path class="st2" d="M15.5,23.1h-4.6v-4h4.6c1.1,0,2,0.9,2,2C17.5,22.1,16.6,23.1,15.5,23.1 M10.9,9.8h4c1.1,0,2,0.9,2,2
		c0,1.1-0.9,2-2,2h-4V9.8L10.9,9.8z M24.7,15.6c2-1.1,3.4-3.3,3.4-5.7c0-3.6-3-6.6-6.6-6.6H0.3v19.2v7.3h21.8c4,0,7.3-3.3,7.3-7.3
		C29.4,19.3,27.4,16.6,24.7,15.6"/>
	<path class="st2" d="M87.9,13.8H73.4v-2.6h14.8l1.1-8H62.9v26.5h10.6v-7.9h13.4L87.9,13.8z"/>
</g>
<g>
	<path class="st1" d="M3.5,38.4l-1.1-2H1.5v2H0.3v-5.6h2.6c1.2,0,1.9,0.8,1.9,1.8c0,1-0.6,1.5-1.2,1.7l1.3,2.1H3.5 M3.6,34.6
		c0-0.5-0.3-0.8-0.8-0.8H1.5v1.5h1.3C3.2,35.3,3.6,35,3.6,34.6"/>
	<path class="st1" d="M10.2,38.4l-0.3-1H7.4l-0.3,1H5.7l2.1-5.6h1.5l2.1,5.6H10.2 M8.6,33.9l-0.9,2.4h1.8L8.6,33.9"/>
	<path class="st1" d="M12.4,38.4v-5.6h2.2c1.8,0,3,1.1,3,2.8c0,1.7-1.2,2.8-3,2.8L12.4,38.4L12.4,38.4z M16.4,35.5
		c0-1-0.6-1.8-1.8-1.8h-1v3.5h1C15.8,37.3,16.4,36.5,16.4,35.5"/>
	<path class="st1" d="M19,38.4v-5.6h1.2v5.6H19"/>
	<path class="st1" d="M21.4,35.5c0-1.7,1.2-2.9,2.9-2.9s2.9,1.2,2.9,2.9s-1.2,2.9-2.9,2.9C22.7,38.5,21.4,37.3,21.4,35.5 M26.1,35.5
		c0-1.1-0.7-1.9-1.7-1.9c-1.1,0-1.7,0.8-1.7,1.9c0,1,0.7,1.9,1.7,1.9C25.4,37.4,26.1,36.6,26.1,35.5"/>
</g>
</svg>
