<?xml version="1.0" encoding="utf-8"?>
<!-- Generator: Adobe Illustrator 22.1.0, SVG Export Plug-In . SVG Version: 6.00 Build 0)  -->
<svg version="1.1" id="Layer_1" xmlns="http://www.w3.org/2000/svg" xmlns:xlink="http://www.w3.org/1999/xlink" x="0px" y="0px"
	 viewBox="0 0 1021.8 354.5" style="enable-background:new 0 0 1021.8 354.5;" xml:space="preserve">
<style type="text/css">
	.st0{fill:#FFFFFF;}
	.st1{fill:#E3000E;}
	.st2{fill:#003560;}
</style>
<path class="st0" d="M1019.2,0.9H785.9l-40,300.1h233.3L1019.2,0.9z"/>
<path class="st1" d="M934.5,219.4h55.6l7.2-54.2c-1.2,1.1-2.3,2.2-3.5,3.4c-9.4,8.6-29.1,25-59.1,49.2L934.5,219.4 M1013.9,40.4
	l5.3-39.4H785.9l-40,300.1h233.3l3.8-28.4H843.5l6-42.4l67.2-59.9c19.3-17.7,31.9-29.8,38-36.3s10.4-12,13.1-16.7
	c2.7-4.6,4.4-9.5,5.1-14.6c0.9-6.3-0.4-11.3-4-15c-3.5-3.6-9-5.5-16.3-5.5c-7.6,0-15.5,2.2-23.8,6.6c-8.4,4.4-18,10.8-28.9,19.4
	l-29.8-41.7c13.9-10.8,25.4-18.5,34.5-23.2s18.8-8.2,29-10.7c10.3-2.5,21.6-3.7,34-3.7c15.5,0,29,2.7,40.4,8.1
	C1010,38.1,1012,39.2,1013.9,40.4"/>
<g>
	<path class="st2" d="M434.1,126.6h-42.5V90.1h42.5c9.9,0,18.2,8.4,18.2,18.2C452.4,118.3,444,126.6,434.1,126.6 M549.6,108.4
		c0-43.4-35.6-79-79-79H294.3v243.1h97.3V156.6l48.6,115.9h103.3l-39-92.9C531.1,166.8,549.6,139.7,549.6,108.4"/>
	<path class="st2" d="M142.4,211.7H99.9v-36.5h42.5c9.9,0,18.2,8.3,18.2,18.2C160.6,203.3,152.3,211.7,142.4,211.7 M99.9,90.2h36.5
		c9.9,0,18.2,8.3,18.2,18.2c0,9.9-8.4,18.2-18.2,18.2H99.9V90.2L99.9,90.2z M226.7,143.2c18.6-10.4,31.2-30.3,31.2-53
		c0-33.4-27.3-60.8-60.8-60.8H2.6v176.2v66.8h200.5c36.8,0,66.9-30.1,66.9-66.8C270,177.1,251.9,152.7,226.7,143.2"/>
	<path class="st2" d="M807.7,126.6H674.9v-24.3h136l9.8-72.9h-243v243.1h97.2v-73H798L807.7,126.6z"/>
</g>
<g>
	<path class="st1" d="M31.8,352.7l-10.2-18.4h-8v18.4h-11V301h24.2c10.8,0,17.4,7,17.4,16.7c0,9.1-5.8,14-11.4,15.3l11.7,19.7H31.8
		 M32.9,317.6c0-4.3-3.3-6.9-7.7-6.9H13.6v13.9h11.6C29.5,324.7,32.9,322,32.9,317.6"/>
	<path class="st1" d="M93.3,352.7l-3.3-8.8H67.9l-3.3,8.8H52.1L72,301h13.8l19.9,51.7H93.3 M78.9,312l-8.1,22.2h16.1L78.9,312"/>
	<path class="st1" d="M114.5,352.7V301h20.4c16.2,0,27.4,10.3,27.4,25.8c0,15.6-11.2,25.9-27.3,25.9L114.5,352.7 M151.1,326.8
		c0-9.1-5.6-16.1-16.1-16.1h-9.5V343h9.4C145.1,343,151.1,335.6,151.1,326.8"/>
	<path class="st1" d="M174.2,352.7V301h11v51.7H174.2"/>
	<path class="st1" d="M196.9,326.9c0-15.6,11.4-26.7,27-26.7s27,11.2,27,26.7c0,15.6-11.4,26.7-27,26.7S196.9,342.5,196.9,326.9
		 M239.6,326.9c0-9.7-6.1-17-15.6-17c-9.6,0-15.7,7.3-15.7,17c0,9.6,6.1,17,15.7,17C233.5,343.9,239.6,336.5,239.6,326.9"/>
</g>
</svg>
