<?xml version="1.0" encoding="utf-8"?>
<!-- Generator: Adobe Illustrator 20.1.0, SVG Export Plug-In . SVG Version: 6.00 Build 0)  -->
<svg version="1.1" id="Layer_1" xmlns="http://www.w3.org/2000/svg" xmlns:xlink="http://www.w3.org/1999/xlink" x="0px" y="0px"
	 viewBox="0 0 166.1 43.2" style="enable-background:new 0 0 166.1 43.2;" xml:space="preserve">
<style type="text/css">
	.st0{fill:#4B5FDE;}
	.st1{fill:#FFFFFF;}
</style>
<path class="st0" d="M157.3,0H8.7C3.9,0,0,3.9,0,8.7v25.7c0,4.8,3.9,8.7,8.7,8.7h148.6c4.8,0,8.7-3.9,8.7-8.7V8.7
	C166.1,3.9,162.1,0,157.3,0"/>
<path class="st1" d="M11.8,16.6c0-0.7,0.6-1.2,1.2-1.2c0.7,0,1.2,0.5,1.2,1.2v10c0,0.7-0.5,1.2-1.2,1.2c-0.7,0-1.2-0.6-1.2-1.2V16.6
	z"/>
<path class="st1" d="M28.1,16.6c0-0.7,0.6-1.2,1.2-1.2c0.7,0,1.2,0.5,1.2,1.2v10c0,0.7-0.5,1.2-1.2,1.2c-0.7,0-1.2-0.6-1.2-1.2V16.6
	z"/>
<path class="st1" d="M23.9,24.1c0.2-0.4,0.5-0.7,1-0.7s1.2,0.5,1.2,1.1c0,0.2,0,0.4-0.1,0.6C25.2,27,23.4,28,21.4,28
	c-3,0-5-2.2-5.2-5c-0.1-0.9-0.1-1.9,0-2.8c0.2-2.8,2.3-5,5.2-5c2,0,3.8,1,4.6,2.8c0.1,0.3,0.1,0.4,0.1,0.6c0,0.6-0.6,1.1-1.2,1.1
	s-0.8-0.3-1-0.7c-0.5-1-1.4-1.5-2.5-1.5c-1.7,0-2.7,1.3-2.9,3c-0.1,0.7-0.1,1.5,0,2.2c0.1,1.7,1.2,2.9,2.9,2.9
	C22.5,25.7,23.4,25.1,23.9,24.1"/>
<path class="st1" d="M117.7,15.4c-0.4,0-0.8,0.4-0.8,0.8V27c0,0.4,0.3,0.8,0.8,0.8c0.4,0,0.8-0.3,0.8-0.8V16.2
	C118.5,15.8,118.1,15.4,117.7,15.4"/>
<path class="st1" d="M150,15.4c-2.9,0-4.9,1.9-5.1,4.8c0,0.7-0.1,1.6,0,2.5c0.2,3.2,2.1,5.2,5.3,5.2c1.5,0,2.9-0.3,3.7-0.8
	c0.4-0.2,0.4-0.5,0.4-0.7c0-0.4-0.3-0.7-0.8-0.7c-0.1,0-0.3,0-0.4,0.1c-1.1,0.4-2.1,0.6-2.9,0.6c-2.3,0-3.7-1.4-3.7-3.8l0-0.1h7.1
	c0.9,0,1.5-0.5,1.5-1.3v-0.8C155,17.5,153,15.4,150,15.4 M150,17c1.1,0,2,0.4,2.6,1c0.6,0.7,0.9,1.7,0.8,2.8c0,0.2-0.1,0.2-0.2,0.2
	h-6.8c0-1.4,0.3-2.4,1-3.1C148,17.3,148.9,17,150,17"/>
<path class="st1" d="M87.6,15.5c-1.9,0-3.1,0.8-3.8,1.3l0,0h0l0,0c-0.9-0.9-2-1.3-3.5-1.3c-1.5,0-3.1,0.5-4,1.2
	c-0.4,0.2-0.5,0.5-0.5,0.9V27c0,0.5,0.3,0.8,0.8,0.8c0.5,0,0.8-0.3,0.8-0.8v-9.3h0c0.1-0.1,1-0.8,3-0.8c1.9,0,2.8,0.9,2.8,3V27
	c0,0.5,0.3,0.8,0.8,0.8c0.4,0,0.8-0.3,0.8-0.8v-7.2c0-0.8-0.1-1.3-0.2-1.7v0h0c1-0.8,2-1.1,3.1-1.1c1.9,0,2.9,1,2.9,3V27
	c0,0.5,0.3,0.8,0.8,0.8c0.4,0,0.8-0.3,0.8-0.8v-7.2C92,17,90.5,15.5,87.6,15.5"/>
<path class="st1" d="M142.1,15.5c-0.4,0-0.8,0.4-0.8,0.8v6.5c0,2.2-1.4,3.7-3.5,3.7c-2.1,0-3.4-1.5-3.4-3.7v-6.5
	c0-0.4-0.3-0.8-0.8-0.8c-0.4,0-0.8,0.4-0.8,0.8v6.5c0,3,2.1,5.2,5,5.2c2.9,0,5-2.2,5-5.2v-6.5C142.8,15.8,142.5,15.5,142.1,15.5"/>
<path class="st1" d="M103.4,15.5c-0.4,0-0.8,0.4-0.8,0.8v6.5c0,2.2-1.4,3.7-3.4,3.7c-2.1,0-3.4-1.5-3.4-3.7v-6.5
	c0-0.4-0.4-0.8-0.8-0.8c-0.4,0-0.8,0.4-0.8,0.8v6.5c0,3,2.1,5.2,5,5.2c2.9,0,5-2.2,5-5.2v-6.5C104.2,15.8,103.9,15.5,103.4,15.5"/>
<path class="st1" d="M131,20.4c-0.2-2.8-2.4-4.9-5.2-4.9c-2.8,0-5,2.1-5.2,4.9c-0.1,0.9-0.1,1.7,0,2.7c0.2,2.9,2.4,4.9,5.2,4.9
	c2.8,0,5-2.1,5.2-4.9C131,22.1,131,21.3,131,20.4 M125.7,26.5c-1.9,0-3.4-1.4-3.6-3.5c-0.1-0.9-0.1-1.6,0-2.5
	c0.2-2.1,1.7-3.5,3.6-3.5c2,0,3.5,1.4,3.7,3.5c0.1,0.9,0.1,1.6,0,2.5C129.2,25,127.7,26.5,125.7,26.5"/>
<path class="st1" d="M128,30.1c0-0.4-0.4-0.8-0.8-0.8h-3c-0.4,0-0.8,0.4-0.8,0.8c0,0.4,0.3,0.8,0.8,0.8h3
	C127.7,30.9,128,30.6,128,30.1"/>
<path class="st1" d="M114.9,24.5c0-2-1.2-2.9-4.3-3.5c-2.3-0.5-3-0.9-3-2c0-0.8,0.4-2,2.7-2c1.1,0,1.9,0.4,2.5,0.7
	c0.2,0.1,0.3,0.2,0.6,0.2c0.4,0,0.7-0.3,0.7-0.7c0-0.3-0.1-0.5-0.3-0.6c-0.7-0.6-2.1-1-3.5-1c-2.6,0-4.3,1.4-4.3,3.6
	c0,1.9,1.2,2.9,4.2,3.5c2.4,0.5,3.1,0.9,3.1,2c0,0.7-0.3,1.2-0.8,1.5c-0.5,0.3-1.2,0.5-2.1,0.5c-1.5,0-2.4-0.4-3.3-1
	c-0.2-0.2-0.4-0.2-0.6-0.2c-0.5,0-0.8,0.3-0.8,0.8c0,0.3,0.1,0.5,0.4,0.7c1.3,0.9,2.6,1.3,4.3,1.3c1.4,0,2.5-0.3,3.3-0.9
	c0.4-0.3,0.7-0.7,0.9-1.1C114.8,25.5,114.9,25,114.9,24.5"/>
<path class="st1" d="M53.1,27c3,0,5.4-2.4,5.4-5.4c0-3-2.4-5.4-5.4-5.4c-3,0-5.4,2.4-5.4,5.4C47.7,24.6,50.2,27,53.1,27"/>
<path class="st1" d="M41.5,21.6c0,3,2.4,5.4,5.4,5.4V16.2C43.9,16.2,41.5,18.6,41.5,21.6"/>
<path class="st1" d="M59.3,16.2L59.3,16.2V27c3,0,5.4-2.4,5.4-5.4C64.7,18.6,62.3,16.2,59.3,16.2"/>
<path class="st1" d="M53.1,33.2c3,0,5.4-2.4,5.4-5.4H47.7C47.7,30.8,50.2,33.2,53.1,33.2"/>
<path class="st1" d="M47.7,15.4L47.7,15.4h10.7c0-3-2.4-5.4-5.4-5.4C50.2,10,47.7,12.4,47.7,15.4"/>
<path class="st1" d="M41.8,15.4h5.1v-5.1C44.1,10.3,41.8,12.6,41.8,15.4"/>
<path class="st1" d="M59.3,10.3L59.3,10.3v5.1h5.1C64.4,12.6,62.1,10.3,59.3,10.3"/>
<path class="st1" d="M41.8,27.8h5.1v5.1C44.1,32.9,41.8,30.6,41.8,27.8"/>
<path class="st1" d="M59.3,32.9L59.3,32.9v-5.1h5.1C64.4,30.6,62.1,32.9,59.3,32.9"/>
<path class="st1" d="M65.5,26.2V17c1.6,0.9,2.6,2.7,2.6,4.6C68.2,23.6,67.1,25.3,65.5,26.2"/>
<path class="st1" d="M40.7,17v9.2c-1.6-0.9-2.6-2.7-2.6-4.6S39.1,17.9,40.7,17"/>
<path class="st1" d="M57.7,9.2h-9.2c0.9-1.6,2.7-2.6,4.6-2.6C55.1,6.6,56.8,7.6,57.7,9.2"/>
<path class="st1" d="M48.5,34h9.2c-0.9,1.6-2.7,2.6-4.6,2.6C51.2,36.6,49.4,35.6,48.5,34"/>
</svg>
