<?xml version="1.0" encoding="UTF-8"?>
<!-- Generator: Adobe Illustrator 27.0.1, SVG Export Plug-In . SVG Version: 6.00 Build 0)  -->
<svg version="1.1" xmlns="http://www.w3.org/2000/svg" xmlns:xlink="http://www.w3.org/1999/xlink" x="0px" y="0px" viewBox="0 0 386.2 188.31" style="enable-background:new 0 0 386.2 188.31;" xml:space="preserve">
<style type="text/css">
	.st0{fill:#FFFFFF;}
	.st1{fill:#E1000F;}
</style>
<g id="Calque_2">
</g>
<g id="Calque_1">
	<path class="st0" d="M161.15,39.29c-0.02-2.44-0.92-4.51-2.67-6.24c-1.76-1.69-3.84-2.53-6.24-2.5c-2.44,0.02-4.52,0.9-6.24,2.63   c-1.72,1.76-2.57,3.85-2.54,6.29l0.04,84.27c0.02,2.44,0.91,4.51,2.67,6.24c1.76,1.72,3.86,2.57,6.29,2.55   c2.4-0.02,4.47-0.92,6.19-2.67c1.72-1.76,2.57-3.85,2.55-6.29L161.15,39.29z M152.07,14.46c6.83-0.07,12.71,2.31,17.63,7.13   c4.92,4.83,7.42,10.67,7.49,17.54l0.04,84.27c0.07,6.86-2.31,12.76-7.13,17.68c-4.82,4.92-10.65,7.42-17.49,7.49   c-6.87,0.07-12.76-2.31-17.68-7.13c-4.92-4.82-7.42-10.67-7.49-17.53l-0.04-84.27c-0.07-6.87,2.31-12.76,7.13-17.68   C139.36,17.03,145.21,14.53,152.07,14.46"/>
	<path class="st0" d="M102.94,46.44c5-5.44,11.3-8.53,18.66-8.53v16.28c-2.47,0-4.71,0.76-6.46,2.5c-1.76,1.76-2.65,3.87-2.65,6.34   v53.52H96.59v-70.1H102.94z"/>
	<path class="st0" d="M214.02,97.93c-1.71,1.75-3.76,2.63-6.15,2.65c-2.42,0.02-4.5-0.82-6.25-2.53c-1.74-1.71-2.62-3.77-2.65-6.18   V54.83c0.08-2.23,0.89-4.17,2.49-5.8c1.71-1.72,3.78-2.58,6.19-2.61c2.39-0.02,4.45,0.8,6.2,2.48c1.75,1.71,2.63,3.77,2.65,6.19   l0.04,36.6C216.57,94.11,215.73,96.19,214.02,97.93 M232.41,54.98c-0.07-6.81-2.55-12.61-7.43-17.4   c-4.88-4.78-10.71-7.14-17.49-7.07c-3.05,0.03-5.88,0.57-8.52,1.56v-1.5h-15.95v101.99h15.95v-17.6c2.8,1.06,5.81,1.6,9.05,1.56   c6.78-0.07,12.56-2.54,17.35-7.42c4.78-4.88,7.15-10.73,7.08-17.54L232.41,54.98z"/>
	<path class="st0" d="M74.71,65.39l0.03,42.16c0.02,2.44-0.82,4.53-2.55,6.29c-1.72,1.76-3.79,2.65-6.19,2.67   c-2.44,0.02-4.53-0.82-6.29-2.55c-1.76-1.72-2.64-3.8-2.67-6.24l-0.01-24.05H40.99L41,107.9c0.07,6.86,2.56,12.71,7.49,17.53   c4.92,4.82,10.82,7.2,17.68,7.13c6.83-0.07,12.66-2.56,17.49-7.49c4.82-4.92,7.2-10.82,7.14-17.68l-0.03-42H74.71z"/>
	<path class="st0" d="M25.93,55.85c1.72-1.72,3.79-2.59,6.21-2.62c2.39-0.02,4.46,0.8,6.21,2.49c1.75,1.71,2.64,3.78,2.66,6.21v0.04   H23.4C23.41,59.6,24.24,57.56,25.93,55.85 M26.09,85.86c-1.75-1.71-2.63-3.78-2.66-6.21l-0.01-1.77h33.59L56.99,62.5   c-0.07-6.83-2.56-12.65-7.46-17.46c-4.9-4.8-10.75-7.17-17.55-7.1c-6.84,0.07-12.66,2.55-17.46,7.45c-4.8,4.9-7.1,10.55-7.1,17.6   v16.81c0.07,6.83,2.59,12.65,7.49,17.45c4.77,4.67,10.47,7.03,17.07,7.09h3.2V88.39h-2.96C29.85,88.38,27.8,87.54,26.09,85.86"/>
	<path class="st0" d="M256.75,68.01c1.72-1.72,3.79-2.59,6.21-2.62c2.39-0.02,4.46,0.8,6.21,2.49c1.75,1.71,2.64,3.78,2.66,6.21   v0.04h-17.62C254.24,71.77,255.07,69.73,256.75,68.01 M270.87,95.82c-0.39,0.73-0.89,1.43-1.52,2.07   c-1.72,1.75-3.77,2.64-6.16,2.66c-2.43,0.02-4.51-0.82-6.26-2.54c-1.75-1.71-2.63-3.78-2.66-6.21l-0.01-1.77h33.59l-0.03-15.38   c-0.07-6.83-2.56-12.65-7.46-17.46c-4.9-4.8-10.75-7.17-17.55-7.1c-6.83,0.07-12.65,2.55-17.46,7.45c-4.8,4.9-7.1,10.4-7.1,17.6   v16.81c0.07,6.83,2.59,12.65,7.49,17.45c4.9,4.8,10.77,7.17,17.6,7.1c6.8-0.07,12.61-2.55,17.41-7.45   c3.75-3.82,5.99-8.25,6.77-13.25H270.87z"/>
	<path class="st1" d="M375.58,101.08c-0.54-2.07-2.46-4.15-6.56-2.85c-27.67,8.75-50.69,21.71-73.99,45   c8.05-22.44,17.47-39.67,27.48-59.92c3.8-7.7,8.89-16.32,12.49-24.15c3.85-8.37,9.46-19.15,10.04-28.82   c0.55-9.26-1.03-19-12.31-23.95c-8.16-3.58-18.51,0.2-25.04,5.27c-12.09,9.38-24.33,22.44-32.99,34.9   c6.66,2.97,11.46,7.1,14.96,12.48c2.99-3.91,6.81-9.33,15.02-18.35c5.44-5.98,10.22-10.13,13.57-12.72   c4.76-3.69,13.55-6.65,4.69,12.13c-6.36,13.49-12.12,23.11-19.24,36.72c-6.92,13.22-16.9,33.15-22.43,47.95   c-6.21,16.6-9.46,26.01-11.85,45.73c-1.24,10.17,13.12,16.84,18.77,10.06c25.91-31.09,48.99-58.93,84.94-75.1   C375.31,104.49,375.96,102.54,375.58,101.08"/>
</g>
</svg>