<svg id="Layer_1" data-name="Layer 1" xmlns="http://www.w3.org/2000/svg" xmlns:xlink="http://www.w3.org/1999/xlink" viewBox="0 0 726.23 321.39"><defs><clipPath id="clip-path" transform="translate(-9.77 -16.16)"><rect width="747" height="360" style="fill:none"/></clipPath></defs><title>logo</title><polygon points="43.5 153.8 33.02 153.8 12.52 179.98 8.31 185.23 8.31 153.8 0 153.8 0 221.68 8.31 221.68 8.31 197.49 14.03 190.86 34.85 221.68 44.95 221.68 19.62 184.26 43.5 153.8" style="fill:#cc7d41"/><g style="clip-path:url(#clip-path)"><path d="M95.37,202.49a21.66,21.66,0,0,0,3.27-11.86c0-6.39-1.79-11.48-5.32-15.14S84.77,170,78.46,170H59.12v67.88h8.36v-26.9H79.92l13,26.9H101v-2.58L88.09,209a17.52,17.52,0,0,0,7.28-6.51m-5.09-11.86a13.08,13.08,0,0,1-3,9A9.86,9.86,0,0,1,79.34,203H67.48V178H78.41c3.83,0,6.7,1.05,8.77,3.22s3.1,5.32,3.1,9.4" transform="translate(-9.77 -16.16)" style="fill:#cc7d41"/><polygon points="98.96 221.68 107.27 221.68 107.27 191.59 132.13 191.59 132.13 183.54 107.27 183.54 107.27 161.85 135.86 161.85 135.86 153.8 98.96 153.8 98.96 221.68" style="fill:#cc7d41"/><path d="M186.44,215.94c-.41,5.46-1.63,9.37-3.62,11.6s-5.19,3.23-9.71,3.23a11.12,11.12,0,0,1-9.8-5c-2.43-3.52-3.66-8.6-3.66-15.1V196.8c0-6.54,1.26-11.54,3.76-14.88a11.78,11.78,0,0,1,10.1-4.8c4.14,0,7.24,1.09,9.2,3.24s3.3,6.14,3.74,11.59l.12,1.5H195l-.11-1.73c-.5-7.52-2.56-13.23-6.13-17s-8.73-5.69-15.2-5.69c-6.88,0-12.4,2.54-16.39,7.54s-5.88,11.66-5.88,20.14v14c0,8.44,2,15.24,5.79,20.23a19.25,19.25,0,0,0,16.08,7.72c6.48,0,11.66-1.87,15.39-5.56s5.84-9.38,6.34-17l.11-1.74h-8.39Z" transform="translate(-9.77 -16.16)" style="fill:#cc7d41"/><path d="M582.17,203a17,17,0,0,0,4.53-5,18.55,18.55,0,0,0,2.61-9.69c0-5.69-1.6-10.34-4.77-13.83a18,18,0,0,0-25.53-.05c-3.17,3.46-4.78,8.13-4.78,13.88a18.78,18.78,0,0,0,2.56,9.73,16.69,16.69,0,0,0,4.52,5,17.77,17.77,0,0,0-5.47,5.48,19.46,19.46,0,0,0-2.94,10.64c0,5.88,1.74,10.67,5.16,14.24s8.08,5.4,13.78,5.4,10.26-1.82,13.71-5.42,5.18-8.37,5.18-14.22a19.34,19.34,0,0,0-3-10.6,17.85,17.85,0,0,0-5.58-5.53m-10.42,4a9.87,9.87,0,0,1,7.68,3.31,12.41,12.41,0,0,1,3.08,8.78c0,3.71-1,6.54-2.92,8.67a10,10,0,0,1-7.75,3.11,10.1,10.1,0,0,1-7.88-3.11c-2-2.13-2.92-5-2.92-8.7s1-6.6,3.05-8.82a9.89,9.89,0,0,1,7.66-3.24m0-30.05a8.3,8.3,0,0,1,6.64,3.09,12,12,0,0,1,2.74,8.16,11.46,11.46,0,0,1-2.67,8,8.49,8.49,0,0,1-6.67,2.9,8.58,8.58,0,0,1-6.68-2.85c-1.78-2-2.65-4.59-2.65-8.08a12.31,12.31,0,0,1,2.61-8.28,8.23,8.23,0,0,1,6.68-3" transform="translate(-9.77 -16.16)" style="fill:#cc7d41"/><path d="M626.37,203a17,17,0,0,0,4.55-5,18.73,18.73,0,0,0,2.6-9.69c0-5.69-1.6-10.34-4.77-13.83a18,18,0,0,0-25.53-.05c-3.17,3.46-4.78,8.13-4.78,13.88A18.75,18.75,0,0,0,601,198a16.69,16.69,0,0,0,4.52,5,17.66,17.66,0,0,0-5.47,5.48,19.46,19.46,0,0,0-2.94,10.64c0,5.88,1.74,10.67,5.15,14.24s8.08,5.4,13.79,5.4,10.25-1.82,13.71-5.42,5.18-8.37,5.18-14.22a19.26,19.26,0,0,0-3-10.6,17.64,17.64,0,0,0-5.58-5.53M616,207a9.87,9.87,0,0,1,7.68,3.31,12.41,12.41,0,0,1,3.07,8.78c0,3.71-1,6.55-2.91,8.67a10,10,0,0,1-7.75,3.11,10.09,10.09,0,0,1-7.88-3.12c-2-2.12-2.92-5-2.92-8.69s1-6.6,3-8.82A9.89,9.89,0,0,1,616,207m-6.64-10.72c-1.78-2-2.65-4.59-2.65-8.08a12.31,12.31,0,0,1,2.61-8.28,8.83,8.83,0,0,1,13.32.12,12,12,0,0,1,2.74,8.16,11.51,11.51,0,0,1-2.67,8,8.49,8.49,0,0,1-6.67,2.9,8.58,8.58,0,0,1-6.68-2.85" transform="translate(-9.77 -16.16)" style="fill:#cc7d41"/><path d="M644.3,229.19a5.39,5.39,0,0,0-1.43,3.78,5.08,5.08,0,0,0,1.47,3.71,5.24,5.24,0,0,0,3.93,1.51,5.39,5.39,0,0,0,4-1.49,5.15,5.15,0,0,0,1.49-3.73,5.38,5.38,0,0,0-1.46-3.8,5.72,5.72,0,0,0-8,0" transform="translate(-9.77 -16.16)" style="fill:#cc7d41"/><path d="M680.9,169.07a15.57,15.57,0,0,0-13.3,7.1c-3.19,4.53-4.8,10.31-4.8,17.19,0,6.63,1.55,12.19,4.6,16.5,3.18,4.49,7.41,6.76,12.56,6.76a15.57,15.57,0,0,0,8.32-2.43,18.23,18.23,0,0,0,3-2.31c-.67,5.5-2.2,9.77-4.58,12.72-3,3.77-7.41,5.64-13.32,5.72h-3l-.08,8h3c8.91-.09,15.67-3.27,20.09-9.45,4.29-6,6.47-15.17,6.47-27.24V196.8c0-8.64-1.63-15.44-4.83-20.22a16.07,16.07,0,0,0-14.06-7.51m-.27,39.68c-2.81,0-5-1.36-6.84-4.16a20.83,20.83,0,0,1-2.9-11.45c0-4.79,1-8.78,3-11.88,1.88-2.91,4.18-4.32,7-4.32,3.17,0,5.66,1.55,7.59,4.75,2.07,3.42,3.12,8.21,3.12,14.24v3a16.05,16.05,0,0,1-4.49,7.2,9.57,9.57,0,0,1-6.53,2.63" transform="translate(-9.77 -16.16)" style="fill:#cc7d41"/><polygon points="699.9 173.97 703.16 173.97 703.16 167.38 708.23 167.38 708.23 164.67 703.16 164.67 703.16 160.53 708.84 160.53 708.84 157.81 699.9 157.81 699.9 173.97" style="fill:#cc7d41"/><polygon points="721.97 157.81 718.93 169.5 715.88 157.81 711.61 157.81 711.61 173.97 714.88 173.97 714.88 169.59 714.58 162.86 717.8 173.97 720.02 173.97 723.25 162.86 722.95 169.59 722.95 173.97 726.23 173.97 726.23 157.81 721.97 157.81" style="fill:#cc7d41"/><path d="M200.51,326.62h-2.89v10.53H191.8V308.31h9.29a9.43,9.43,0,0,1,6.76,2.27,8.47,8.47,0,0,1,2.39,6.45q0,5.75-4.18,8l5.05,11.81v.27h-6.26Zm-2.89-4.86h3.31a3.07,3.07,0,0,0,2.62-1.16,5,5,0,0,0,.87-3.1q0-4.33-3.39-4.34h-3.41Z" transform="translate(-9.77 -16.16)" style="fill:#cc7d41"/><path d="M228.82,331.25h-7.94l-1.55,5.9h-6.16l9-28.84h5.33l9.08,28.84h-6.22Zm-6.67-4.85h5.38l-2.69-10.28Z" transform="translate(-9.77 -16.16)" style="fill:#cc7d41"/><path d="M240.09,337.15V308.31h7.63a10.49,10.49,0,0,1,8.05,3.21q3,3.21,3.06,8.8V325c0,3.79-1,6.77-3,8.92a10.72,10.72,0,0,1-8.27,3.24Zm5.83-24v19.15h1.74c1.94,0,3.31-.51,4.1-1.54S253,328,253,325.49v-5q0-4-1.13-5.63a4.57,4.57,0,0,0-3.84-1.67Z" transform="translate(-9.77 -16.16)" style="fill:#cc7d41"/><rect x="254.31" y="292.16" width="5.82" height="28.84" style="fill:#cc7d41"/><path d="M295.91,325.33q0,5.81-2.74,9a10.68,10.68,0,0,1-15.24,0q-2.78-3.18-2.82-8.9v-4.94q0-5.94,2.76-9.28a10.44,10.44,0,0,1,15.23-.06q2.77,3.29,2.81,9.21Zm-5.84-4.84a11.83,11.83,0,0,0-1.11-5.8,4.1,4.1,0,0,0-6.87-.07,11.18,11.18,0,0,0-1.15,5.58v5.13a10.62,10.62,0,0,0,1.13,5.57,3.81,3.81,0,0,0,3.48,1.8,3.74,3.74,0,0,0,3.39-1.76,10.44,10.44,0,0,0,1.13-5.43Z" transform="translate(-9.77 -16.16)" style="fill:#cc7d41"/><polygon points="316.17 309.23 307.12 309.23 307.12 321 301.29 321 301.29 292.16 317.26 292.16 317.26 297.01 307.12 297.01 307.12 304.4 316.17 304.4 316.17 309.23" style="fill:#cc7d41"/><path d="M351.47,325.33q0,5.81-2.74,9a10.68,10.68,0,0,1-15.24,0q-2.78-3.18-2.82-8.9v-4.94q0-5.94,2.76-9.28a10.44,10.44,0,0,1,15.23-.06q2.77,3.29,2.81,9.21Zm-5.84-4.84a11.83,11.83,0,0,0-1.11-5.8,4.1,4.1,0,0,0-6.87-.07,11.18,11.18,0,0,0-1.15,5.58v5.13a10.62,10.62,0,0,0,1.13,5.57,3.81,3.81,0,0,0,3.48,1.8,3.74,3.74,0,0,0,3.39-1.76,10.44,10.44,0,0,0,1.13-5.43Z" transform="translate(-9.77 -16.16)" style="fill:#cc7d41"/><path d="M365.2,326.62h-2.89v10.53h-5.83V308.31h9.29a9.46,9.46,0,0,1,6.77,2.27,8.47,8.47,0,0,1,2.38,6.45q0,5.75-4.18,8l5.06,11.81v.27h-6.26Zm-2.89-4.86h3.31a3,3,0,0,0,2.61-1.16,5,5,0,0,0,.87-3.1q0-4.33-3.39-4.34h-3.4Z" transform="translate(-9.77 -16.16)" style="fill:#cc7d41"/><polygon points="387.65 297.01 380.52 297.01 380.52 321 374.68 321 374.68 297.01 367.67 297.01 367.67 292.15 387.65 292.15 387.65 297.01" style="fill:#cc7d41"/><path d="M430.11,327.55c-.14,3.28-1.07,5.77-2.77,7.46a9.81,9.81,0,0,1-7.21,2.54,9.09,9.09,0,0,1-7.5-3.22c-1.74-2.15-2.6-5.21-2.6-9.18V320.3c0-4,.89-7,2.69-9.17a9.25,9.25,0,0,1,7.49-3.21c3.14,0,5.53.87,7.16,2.63s2.56,4.28,2.78,7.57h-5.84a7.76,7.76,0,0,0-.94-4.21,3.73,3.73,0,0,0-3.16-1.16,3.53,3.53,0,0,0-3.31,1.63,11.39,11.39,0,0,0-1,5.38v5.45q0,4.29,1,5.9a3.53,3.53,0,0,0,3.3,1.61,3.83,3.83,0,0,0,3.17-1.12,7.41,7.41,0,0,0,1-4.05Z" transform="translate(-9.77 -16.16)" style="fill:#cc7d41"/><path d="M454.81,325.33q0,5.81-2.74,9a9.49,9.49,0,0,1-7.62,3.21,9.61,9.61,0,0,1-7.63-3.18q-2.76-3.18-2.81-8.9v-4.94q0-5.94,2.76-9.28a10.44,10.44,0,0,1,15.23-.06q2.78,3.29,2.81,9.21ZM449,320.49a11.83,11.83,0,0,0-1.11-5.8,4.1,4.1,0,0,0-6.87-.07,11.18,11.18,0,0,0-1.15,5.58v5.13A10.62,10.62,0,0,0,441,330.9a3.81,3.81,0,0,0,3.48,1.8,3.74,3.74,0,0,0,3.39-1.76,10.54,10.54,0,0,0,1.13-5.43Z" transform="translate(-9.77 -16.16)" style="fill:#cc7d41"/><polygon points="455.86 316.16 466.08 316.16 466.08 321 450.03 321 450.03 292.16 455.86 292.16 455.86 316.16" style="fill:#cc7d41"/><polygon points="476.08 316.16 486.3 316.16 486.3 321 470.25 321 470.25 292.16 476.08 292.16 476.08 316.16" style="fill:#cc7d41"/><rect x="490.74" y="292.16" width="5.82" height="28.84" style="fill:#cc7d41"/><polygon points="522.43 321 516.61 321 508.09 302.08 508.09 321 502.26 321 502.26 292.16 508.09 292.16 516.63 311.09 516.63 292.16 522.43 292.16 522.43 321" style="fill:#cc7d41"/><path d="M549.87,329.59a3.62,3.62,0,0,0-.9-2.67,10.39,10.39,0,0,0-3.28-1.87,15.37,15.37,0,0,1-6.24-3.85,7.72,7.72,0,0,1-1.9-5.22,7.32,7.32,0,0,1,2.59-5.86,9.74,9.74,0,0,1,6.56-2.2,9.93,9.93,0,0,1,4.74,1.11,7.85,7.85,0,0,1,3.2,3.16,9.56,9.56,0,0,1,1.11,4.64H550a4.81,4.81,0,0,0-.86-3.08,3,3,0,0,0-2.49-1.06,3.1,3.1,0,0,0-2.37.9,3.39,3.39,0,0,0-.86,2.43,3,3,0,0,0,1,2.15,11.12,11.12,0,0,0,3.37,2,14.27,14.27,0,0,1,6.13,3.74,8.32,8.32,0,0,1,1.91,5.65,7.42,7.42,0,0,1-2.39,5.88,9.51,9.51,0,0,1-6.52,2.12,11.17,11.17,0,0,1-5.09-1.15,8.53,8.53,0,0,1-3.59-3.29,9.49,9.49,0,0,1-1.3-5.05h5.84a5.51,5.51,0,0,0,1,3.63,4,4,0,0,0,3.17,1.13q3,0,3-3.23" transform="translate(-9.77 -16.16)" style="fill:#cc7d41"/><path d="M449.34,158.47a2.12,2.12,0,0,1,0-.44l-8.94-1.85-9.2-1.82v.94l9.06,1.62Z" transform="translate(-9.77 -16.16)" style="fill:#cc7d41"/><path d="M453.2,158.81a2.82,2.82,0,0,1-.07.31l9.35,1.61Z" transform="translate(-9.77 -16.16)" style="fill:#cc7d41"/><path d="M442,143.55l-10.74-.08v1.1l10.46-.08a2.38,2.38,0,0,1,.28-.94" transform="translate(-9.77 -16.16)" style="fill:#cc7d41"/><path d="M462.8,143.78l-9.68-.14-7.82-.06a2.24,2.24,0,0,1,.26.88l7.56-.07,9.62-.13a2,2,0,0,1,.06-.48" transform="translate(-9.77 -16.16)" style="fill:#cc7d41"/><path d="M296.73,158.75c-3.71.77-7.42,1.53-11.12,2.33,3.75-.65,7.51-1.33,11.26-2a2,2,0,0,1-.14-.34" transform="translate(-9.77 -16.16)" style="fill:#cc7d41"/><path d="M300.48,158.45l5.56-1a1.74,1.74,0,0,1,.83-.84c-2.13.43-4.24.89-6.37,1.33a2,2,0,0,1,0,.49" transform="translate(-9.77 -16.16)" style="fill:#cc7d41"/><path d="M316.78,155.52v-.92c-3,.6-6,1.22-9,1.84a1.82,1.82,0,0,1,1.26.48l7.72-1.4" transform="translate(-9.77 -16.16)" style="fill:#cc7d41"/><path d="M438,118.19l-6.73,2.6v1.11l7.21-2.92a1.89,1.89,0,0,1-.48-.79" transform="translate(-9.77 -16.16)" style="fill:#cc7d41"/><path d="M447.42,114.53l-5.79,2.24a2.6,2.6,0,0,1,.11.88l6-2.42,10.06-4.16a1.47,1.47,0,0,1-.21-.39Z" transform="translate(-9.77 -16.16)" style="fill:#cc7d41"/><path d="M451.87,129.18,462.42,127l-10.74,1.89a1.77,1.77,0,0,1,.19.33" transform="translate(-9.77 -16.16)" style="fill:#cc7d41"/><path d="M448.21,130a2.28,2.28,0,0,1,.09-.51l-8.06,1.42-9,1.65v.94l9.15-1.85Z" transform="translate(-9.77 -16.16)" style="fill:#cc7d41"/><path d="M312,186.29a1.78,1.78,0,0,1,.47.05l6.4-4.22c-.08-.25-.14-.5-.22-.75-2.34,1.64-4.68,3.31-7,4.95a2.22,2.22,0,0,1,.37,0" transform="translate(-9.77 -16.16)" style="fill:#cc7d41"/><path d="M310.28,187.25c-3.55,2.5-7.11,5-10.64,7.51,3.48-2.27,6.94-4.57,10.42-6.86a2.08,2.08,0,0,1,.22-.65" transform="translate(-9.77 -16.16)" style="fill:#cc7d41"/><path d="M316.78,133.68v-.93l-10.38-1.84a2,2,0,0,1,.5.78l9.88,2" transform="translate(-9.77 -16.16)" style="fill:#cc7d41"/><path d="M303.62,131a1.72,1.72,0,0,1,.71-.48q-9.39-1.65-18.79-3.24,9,1.91,18.08,3.72" transform="translate(-9.77 -16.16)" style="fill:#cc7d41"/><path d="M439.39,188.47l9.19,6-9-6.3a2,2,0,0,1-.2.3" transform="translate(-9.77 -16.16)" style="fill:#cc7d41"/><path d="M436.1,186.33a3.09,3.09,0,0,1,.24-.44l-6.19-4.34-.66-.46c-.07.26-.14.52-.22.77l.46.31Z" transform="translate(-9.77 -16.16)" style="fill:#cc7d41"/><path d="M307.78,99c-2.78-1.82-5.55-3.65-8.34-5.45,2.75,2,5.53,3.87,8.29,5.81,0-.12,0-.24,0-.36" transform="translate(-9.77 -16.16)" style="fill:#cc7d41"/><path d="M316.78,104.89l-5.85-3.82a1.87,1.87,0,0,1-.4.27c2.09,1.45,4.16,2.92,6.25,4.37Z" transform="translate(-9.77 -16.16)" style="fill:#cc7d41"/><path d="M448.38,93.27,439.66,99a3.58,3.58,0,0,1,.11.35Z" transform="translate(-9.77 -16.16)" style="fill:#cc7d41"/><path d="M436.37,101.18l-5.13,3.38v.83l5.47-3.86a1.88,1.88,0,0,1-.34-.35" transform="translate(-9.77 -16.16)" style="fill:#cc7d41"/><path d="M343,216.78l2.61-5.89-.8-.31-2.49,5.9-1.3,3.11h.08a1.89,1.89,0,0,1,.6.09Z" transform="translate(-9.77 -16.16)" style="fill:#cc7d41"/><path d="M339.57,223l-2.6,6.27a1.37,1.37,0,0,1,.26.28l2.78-6.18a2,2,0,0,1-.44-.37" transform="translate(-9.77 -16.16)" style="fill:#cc7d41"/><path d="M335.69,232.8l-.2,0-3.35,8.06,3.62-8.05h-.07" transform="translate(-9.77 -16.16)" style="fill:#cc7d41"/><path d="M420.53,212.41l4.23,6-4-6.06a1.13,1.13,0,0,1-.24.08" transform="translate(-9.77 -16.16)" style="fill:#cc7d41"/><path d="M414.47,203.85l3.85,5.44a1.74,1.74,0,0,1,.25-.29l-3.64-5.53-.46.38" transform="translate(-9.77 -16.16)" style="fill:#cc7d41"/><path d="M292.09,108.34a2.63,2.63,0,0,1-.06.48l10.35,4.6a2.23,2.23,0,0,1,.19-.67c-3.5-1.47-7-3-10.48-4.41" transform="translate(-9.77 -16.16)" style="fill:#cc7d41"/><path d="M316.78,118.72l-10.61-4.46a2.12,2.12,0,0,1-.32.68v0l10.93,4.85Z" transform="translate(-9.77 -16.16)" style="fill:#cc7d41"/><path d="M433,203.43a2,2,0,0,1,.61-.25l-3.38-3.48-6.29-6.4c-.17.26-.33.52-.5.77l6.26,6.16Z" transform="translate(-9.77 -16.16)" style="fill:#cc7d41"/><path d="M437.47,171l-6.23-2.75v.41c0,.23,0,.46,0,.7l5.68,2.4a1.87,1.87,0,0,1,.57-.76" transform="translate(-9.77 -16.16)" style="fill:#cc7d41"/><path d="M459.71,180.89l-12.94-5.81-6.19-2.74a2.28,2.28,0,0,1-.08.9l6,2.53,13,5.42a2.2,2.2,0,0,1,.19-.3" transform="translate(-9.77 -16.16)" style="fill:#cc7d41"/><path d="M412.87,242.09l-2.22-5.85-.21,0Z" transform="translate(-9.77 -16.16)" style="fill:#cc7d41"/><path d="M409.13,233a1.22,1.22,0,0,1,.2-.25l-3.39-8.93a1.68,1.68,0,0,1-.46.33Z" transform="translate(-9.77 -16.16)" style="fill:#cc7d41"/><path d="M400.35,211.67l2.45,6,1.14,2.75a2.21,2.21,0,0,1,.65-.11h0l-1.11-2.92-2.33-6-.82.28" transform="translate(-9.77 -16.16)" style="fill:#cc7d41"/><path d="M306.74,170.23q-6.94,2.84-13.9,5.67a2.1,2.1,0,0,1-.15.61q6.94-2.65,13.89-5.34a2.33,2.33,0,0,1,.16-.94" transform="translate(-9.77 -16.16)" style="fill:#cc7d41"/><path d="M316.78,166.14l-7.51,3.06a1.74,1.74,0,0,1,.8.63l6.71-2.58Z" transform="translate(-9.77 -16.16)" style="fill:#cc7d41"/><path d="M305.86,144.47l10.92.1v-1.1l-11,.1a2.5,2.5,0,0,1,.1.9" transform="translate(-9.77 -16.16)" style="fill:#cc7d41"/><path d="M283.25,144.24q9.38.12,18.74.2a2.18,2.18,0,0,1,.1-.84q-9.49.09-19,.2a2.25,2.25,0,0,1,.14.44" transform="translate(-9.77 -16.16)" style="fill:#cc7d41"/><path d="M320.08,197.41a2,2,0,0,1,.48.6l4-3.95c-.17-.24-.33-.5-.49-.75l-4,4.1" transform="translate(-9.77 -16.16)" style="fill:#cc7d41"/><path d="M311.7,206a1.56,1.56,0,0,1,.4.27l5.68-5.54a2,2,0,0,1-.49-.47c-1.87,1.9-3.72,3.83-5.59,5.74" transform="translate(-9.77 -16.16)" style="fill:#cc7d41"/><path d="M309.24,209a1.74,1.74,0,0,1-.18-.33c-3.22,3.3-6.44,6.58-9.64,9.9,3.29-3.18,6.55-6.38,9.82-9.57" transform="translate(-9.77 -16.16)" style="fill:#cc7d41"/><path d="M328.12,211.6l-4.56,7,4.69-6.69c-.05-.1-.09-.2-.13-.3" transform="translate(-9.77 -16.16)" style="fill:#cc7d41"/><path d="M329.9,208.87H330a2.58,2.58,0,0,1,.4,0l3.42-4.89-.46-.36Z" transform="translate(-9.77 -16.16)" style="fill:#cc7d41"/><path d="M264,149.09a110,110,0,0,0,109.61,110H374A110,110,0,0,0,451.37,71.3c-1-1-1.94-1.89-2.92-2.81V79.71a102.08,102.08,0,0,1,18.27,27.49l-5.52,2.1c0,.11,0,.22.05.33l5.53-2.28A101.3,101.3,0,0,1,475.52,144l-8.94-.12a2.2,2.2,0,0,1,0,.36l8.91-.12q.12,2.49.12,5a102,102,0,0,1-6.52,36l-6-2.68a2,2,0,0,1,0,.24l6,2.49a101.56,101.56,0,0,1-20.66,33.29L436,205.6a2,2,0,0,1-.19.54l12.68,12.32c-.88.95-1.78,1.89-2.7,2.81a101.38,101.38,0,0,1-67.93,29.8V210.59h7.05c.94,0,1.86,0,2.79-.1v23.42l7.26,6.13V209.42A44.45,44.45,0,0,0,429,168.75h.08v-27.2H417.26a4,4,0,0,1,0-8h11.86V126.7H417.26a4,4,0,0,1,0-8h11.86v-6.88H417.26a4,4,0,0,1,0-8h11.86V97.05H417.26a4,4,0,0,1,0-8h11.86V82.21H417.26a4,4,0,0,1,0-8h11.86V67.36H417.26a4,4,0,0,1,0-8h11.85a44.39,44.39,0,0,0-44.24-43.23H363.5a44.39,44.39,0,0,0-44.24,43.23H331a4,4,0,0,1,0,8H319.25v6.88H331a4,4,0,0,1,0,8H319.25v6.88H331a4,4,0,1,1,0,8H319.25v6.84H331a4,4,0,0,1,0,8H319.25v6.88H331a4,4,0,1,1,0,8H319.25v6.88H331a4,4,0,0,1,0,8H319.25v27.2h.08a44.44,44.44,0,0,0,34.13,40.67V240l7.26-6.13V210.49c.92.06,1.85.1,2.78.1h7.06V251.1a102.23,102.23,0,0,1-93.15-68.78q6.33-2.38,12.65-4.81a1.55,1.55,0,0,1-.43-.29l-12.23,5.05a102,102,0,0,1-5.5-33.18c0-1.68,0-3.35.12-5l7.44.11a1.68,1.68,0,0,1,.09-.32L272,144a101.41,101.41,0,0,1,10.13-39.59l6.32,2.84a1.94,1.94,0,0,1,.21-.29l-6.46-2.69a102,102,0,0,1,16.88-24.53V68.49c-1,.92-2,1.85-2.92,2.81A109.27,109.27,0,0,0,264,149.09m67-95.61h-5.17A38.53,38.53,0,0,1,363.5,22.07h21.37a38.53,38.53,0,0,1,37.71,31.41h-5.32A9.89,9.89,0,0,0,408.4,59a9.91,9.91,0,0,0-8.87-5.5H348.84a9.9,9.9,0,0,0-8.94,5.65A9.9,9.9,0,0,0,331,53.48m77.44,64.85a10.11,10.11,0,0,0-2.32-3,10.12,10.12,0,0,0,2.32-3,10.11,10.11,0,0,0,2.33,3,9.75,9.75,0,0,0-2.33,3m2.33,11.81a10,10,0,0,0-2.33,3,10.11,10.11,0,0,0-2.32-3,10,10,0,0,0,2.32-3,10,10,0,0,0,2.33,3m-4.65-29.67a10.07,10.07,0,0,0,2.32-3,9.85,9.85,0,0,0,2.3,3,9.89,9.89,0,0,0-2.3,3,10.11,10.11,0,0,0-2.32-3m2.32-11.81a10.12,10.12,0,0,0-2.32-3,10,10,0,0,0,2.32-3,9.91,9.91,0,0,0,2.33,3,9.94,9.94,0,0,0-2.33,3m0-14.84a10.12,10.12,0,0,0-2.32-3,10.11,10.11,0,0,0,2.32-3,9.87,9.87,0,0,0,2.33,3,10,10,0,0,0-2.33,3m-8.87,52.89H348.84a4,4,0,1,1,0-8h50.69a4,4,0,1,1,0,8m4,10.86a4,4,0,0,1-4,4H348.84a4,4,0,1,1,0-8h50.69a4,4,0,0,1,4,4m-4-25.7H348.84a4,4,0,1,1,0-8h50.69a4,4,0,1,1,0,8m0-14.83H348.84a4,4,0,1,1,0-8h50.69a4,4,0,1,1,0,8m0-14.84H348.84a4,4,0,1,1,0-8h50.69a4,4,0,1,1,0,8m0-14.84H348.84a4,4,0,1,1,0-8h50.69a4,4,0,1,1,0,8M339.9,118.48a9.9,9.9,0,0,0-2.4-3.18,10,10,0,0,0,2.4-3.17,9.76,9.76,0,0,0,2.4,3.18,10,10,0,0,0-2.4,3.17m2.4,11.67a10,10,0,0,0-2.4,3.17,10.12,10.12,0,0,0-2.4-3.18,10,10,0,0,0,2.4-3.17,9.9,9.9,0,0,0,2.4,3.18m-2.4-26.51a9.91,9.91,0,0,0-2.38-3.17,9.87,9.87,0,0,0,2.38-3.16,9.93,9.93,0,0,0,2.4,3.16,10,10,0,0,0-2.4,3.17m0-14.83a9.82,9.82,0,0,0-2.4-3.16,10,10,0,0,0,2.4-3.19,9.86,9.86,0,0,0,2.4,3.17,10,10,0,0,0-2.4,3.18m0-14.84a10,10,0,0,0-2.4-3.17,9.9,9.9,0,0,0,2.4-3.18,9.86,9.86,0,0,0,2.4,3.17A10.12,10.12,0,0,0,339.9,74m-14.74,73.49H331a9.9,9.9,0,0,0,8.94-5.65,9.9,9.9,0,0,0,8.94,5.65h50.69a9.91,9.91,0,0,0,8.87-5.5,9.89,9.89,0,0,0,8.86,5.5h5.95v15.38h-98Zm38.34,57.22A38.54,38.54,0,0,1,326,174.43h96.31a38.52,38.52,0,0,1-37.47,30.25Z" transform="translate(-9.77 -16.16)" style="fill:#cc7d41"/><path d="M534.17,163.38,548,136.09H506.75a132.77,132.77,0,0,0-38.56-81.61,135.56,135.56,0,0,0-19.74-16.32v9.72a128,128,0,0,1,14.12,12.21,125.67,125.67,0,1,1-177.59,0,128.12,128.12,0,0,1,14.13-12.21V38.16a135,135,0,0,0-19.74,16.32,132.78,132.78,0,0,0-38.57,81.61H199.51l13.87,27.29H241q.38,3.57,1,7.08H216.85l13.86,27.29h18.6q1.2,3.09,2.55,6.1H233.31l13.86,27.29h21.14a136.31,136.31,0,0,0,11.06,12.56,133,133,0,0,0,94.2,39.18H374a133,133,0,0,0,94.21-39.18,136.2,136.2,0,0,0,11.05-12.56h21.14l13.87-27.29H495.69q1.35-3,2.55-6.1h18.6l13.86-27.29h-25c.37-2.34.69-4.7.94-7.08Zm-26.12-21.17h30l-7.64,15H508.05Zm-268.54,15H217.14l-7.65-15h30Zm-5,34.37-7.64-15H243a132.88,132.88,0,0,0,4.07,15ZM250.93,225l-7.64-15H254.8a132,132,0,0,0,9,15Zm253.34-15-7.65,15H483.75a133.41,133.41,0,0,0,9-15Zm16.45-33.38-7.64,15H500.46a130.86,130.86,0,0,0,4.08-15Z" transform="translate(-9.77 -16.16)" style="fill:#cc7d41"/></g></svg>