<?xml version="1.0" encoding="UTF-8"?>
<!DOCTYPE svg PUBLIC "-//W3C//DTD SVG 1.1//EN" "http://www.w3.org/Graphics/SVG/1.1/DTD/svg11.dtd">
<svg width="600pt" height="600pt" viewBox="0 0 600 600" version="1.1" xmlns="http://www.w3.org/2000/svg">
<path fill="#000000" d=" M 0.00 0.00 L 600.00 0.00 L 600.00 416.46 C 400.00 416.46 200.00 416.46 0.00 416.46 L 0.00 0.00 Z"/>
<path fill="#ffffff" d=" M 72.17 53.73 C 73.30 52.21 75.41 52.89 77.01 52.67 C 117.01 52.72 157.01 52.68 197.01 52.70 C 206.38 53.03 215.78 56.03 223.17 61.91 C 231.95 68.56 237.94 78.74 239.65 89.61 C 242.46 105.34 235.45 122.27 222.55 131.64 C 214.68 137.56 204.77 140.47 194.96 140.35 C 154.92 140.31 114.88 140.38 74.85 140.31 C 72.88 140.49 71.30 138.88 71.52 136.93 C 71.42 110.60 71.53 84.27 71.46 57.94 C 71.56 56.54 71.31 54.95 72.17 53.73 Z"/>
<path fill="#ffffff" d=" M 249.82 55.88 C 249.64 54.11 251.21 52.66 252.93 52.72 C 265.73 52.58 278.54 52.86 291.33 52.59 C 292.50 53.41 293.88 54.32 293.51 55.98 C 293.45 83.67 293.66 111.37 293.40 139.06 C 292.84 139.38 291.73 140.02 291.17 140.34 C 279.10 140.34 267.03 140.34 254.96 140.35 C 253.33 140.41 251.76 139.93 250.21 139.51 C 249.73 136.71 249.71 133.86 249.76 131.03 C 249.82 105.98 249.69 80.93 249.82 55.88 Z"/>
<path fill="#ffffff" d=" M 305.80 84.79 C 310.27 67.87 325.75 54.77 343.14 52.99 C 346.08 52.66 349.05 52.66 352.01 52.68 C 379.34 52.81 406.70 52.48 434.03 52.85 C 438.42 55.65 433.06 60.24 431.91 63.48 C 430.30 63.70 428.69 63.85 427.07 63.85 C 411.69 63.85 396.31 63.83 380.92 63.85 C 372.05 64.00 363.19 67.58 357.05 74.05 C 350.86 80.39 347.49 89.36 348.08 98.21 C 348.43 110.56 356.79 122.05 368.18 126.64 C 372.53 128.48 377.27 129.18 381.97 129.18 C 398.16 129.15 414.35 129.16 430.55 129.17 C 430.60 117.06 430.45 104.95 430.63 92.84 C 430.94 92.46 431.56 91.69 431.87 91.31 C 445.77 91.26 459.69 91.10 473.59 91.38 C 474.21 93.17 474.44 95.06 474.36 96.96 C 474.23 111.03 474.49 125.11 474.22 139.19 C 473.65 139.47 472.53 140.03 471.97 140.32 C 430.99 140.38 390.02 140.32 349.04 140.34 C 337.13 140.40 325.12 135.84 316.86 127.13 C 305.83 116.40 301.76 99.53 305.80 84.79 Z"/>
<path fill="#ffffff" d=" M 484.82 56.82 C 484.64 54.89 485.67 52.57 487.93 52.74 C 500.80 52.57 513.67 52.84 526.54 52.60 C 527.56 53.52 528.97 54.41 528.67 56.02 C 528.70 83.00 528.70 109.99 528.67 136.97 C 528.98 138.60 527.57 139.49 526.53 140.43 C 514.31 140.22 502.09 140.40 489.88 140.35 C 488.30 140.41 486.81 139.91 485.33 139.47 C 485.07 137.62 484.78 135.77 484.80 133.91 C 484.84 108.21 484.81 82.52 484.82 56.82 Z"/>
<path fill="#000000" d=" M 115.46 129.19 C 115.39 107.41 115.40 85.62 115.45 63.84 C 130.97 63.85 146.49 63.85 162.01 63.84 C 168.16 63.94 174.44 65.11 179.82 68.22 C 190.05 73.84 196.86 85.28 196.52 97.00 C 196.54 109.98 187.76 122.23 175.67 126.77 C 168.50 129.73 160.62 129.15 153.05 129.16 C 140.52 129.19 127.99 129.12 115.46 129.19 Z"/>
<path fill="#ffffff" d=" M 71.47 190.17 C 74.31 189.91 77.15 189.82 80.00 189.86 C 84.33 189.87 88.67 189.86 93.00 189.88 C 101.00 189.86 109.00 189.86 117.00 189.87 C 120.33 189.86 123.67 189.86 127.00 189.88 C 143.00 189.86 158.99 189.87 174.99 189.88 C 176.66 189.87 178.33 189.87 180.01 189.87 C 195.35 189.71 210.67 190.24 226.00 189.88 C 231.67 189.86 237.33 189.86 243.00 189.88 C 245.93 189.87 248.87 189.88 251.81 189.81 C 252.36 204.95 252.16 220.15 251.91 235.30 C 212.83 235.23 173.74 235.29 134.66 235.27 C 134.73 247.67 134.67 260.06 134.69 272.45 C 168.31 272.45 201.93 272.45 235.55 272.45 C 235.51 286.50 235.56 300.54 235.53 314.58 C 201.91 314.58 168.29 314.57 134.67 314.59 C 134.71 332.47 134.69 350.35 134.69 368.24 C 113.62 368.25 92.55 368.25 71.49 368.23 C 71.47 308.88 71.50 249.52 71.47 190.17 Z"/>
<path fill="#ffffff" d=" M 274.42 190.19 C 286.61 189.60 298.80 190.10 311.00 189.88 C 315.67 189.86 320.33 189.86 325.00 189.88 C 333.03 189.85 341.06 189.89 349.10 189.85 C 350.38 189.95 352.34 189.59 352.92 191.15 C 368.85 224.91 384.55 258.79 400.64 292.47 C 401.08 292.49 401.95 292.53 402.39 292.54 C 418.66 258.38 434.57 224.03 450.78 189.84 C 453.18 189.86 455.59 189.86 458.00 189.88 C 460.33 189.87 462.66 189.87 465.00 189.87 C 481.00 189.87 497.00 189.85 513.00 189.88 C 516.66 189.86 520.33 189.85 524.00 189.89 C 525.53 189.87 527.08 189.84 528.62 189.82 C 528.78 249.29 528.65 308.77 528.69 368.24 C 512.09 368.25 495.50 368.23 478.90 368.25 C 475.84 368.23 472.75 368.46 469.75 367.75 C 469.99 362.17 469.53 356.57 470.08 351.00 C 469.68 347.01 469.68 342.99 470.07 339.00 C 469.56 327.33 469.80 315.61 470.04 303.94 C 469.71 299.30 469.67 294.64 470.05 290.01 C 469.67 285.97 469.81 281.92 469.87 277.88 C 470.36 275.41 470.98 270.13 466.85 271.75 C 451.75 303.78 437.21 336.09 422.37 368.25 C 408.47 368.25 394.57 368.23 380.67 368.25 C 370.43 346.16 360.36 323.98 350.16 301.87 C 345.42 291.88 341.24 281.60 336.13 271.81 C 335.42 271.73 334.01 271.57 333.30 271.49 C 333.17 303.73 333.27 335.98 333.25 368.22 C 313.64 368.26 294.04 368.25 274.43 368.23 C 274.43 308.89 274.44 249.54 274.42 190.19 Z"/>
<path fill="#9854dc" d=" M 0.00 416.46 C 200.00 416.46 400.00 416.46 600.00 416.46 L 600.00 452.38 C 595.67 451.88 591.31 451.71 586.97 451.97 C 579.96 452.34 572.98 451.36 565.98 451.55 C 558.78 451.57 551.62 453.02 544.41 452.41 C 539.64 451.99 534.84 451.69 530.07 452.22 C 521.53 453.09 512.95 451.70 504.40 452.40 C 496.42 453.02 488.41 453.96 480.39 453.43 C 466.26 452.32 452.08 452.54 437.92 452.45 C 433.59 452.39 429.28 452.70 424.98 453.09 C 417.32 453.83 409.67 452.58 402.01 452.68 C 393.46 452.41 384.88 453.69 376.37 452.45 C 371.08 451.65 365.72 451.81 360.42 452.37 C 351.93 453.24 343.50 451.12 335.00 451.61 C 329.69 451.91 324.36 452.25 319.04 451.85 C 312.03 451.27 305.08 452.87 298.08 452.51 C 294.72 452.38 291.38 451.93 288.02 451.89 C 282.98 451.80 278.01 452.89 272.98 452.95 C 265.61 453.12 258.33 451.38 250.96 451.66 C 247.17 451.77 243.40 452.32 239.62 452.50 C 232.73 452.89 225.87 451.41 218.99 452.16 C 213.33 452.72 207.63 452.66 201.99 451.98 C 193.44 450.89 184.93 452.94 176.37 452.53 C 162.90 452.15 149.38 453.20 135.95 451.77 C 131.02 451.29 126.09 451.89 121.19 452.34 C 113.49 453.08 105.79 451.37 98.10 452.26 C 86.09 453.60 74.03 452.26 62.00 452.62 C 53.32 452.30 44.65 453.66 35.98 452.83 C 24.05 451.26 12.00 452.07 0.00 451.87 L 0.00 416.46 Z"/>
<path fill="#8b4acc" d=" M 0.00 451.87 C 12.00 452.07 24.05 451.26 35.98 452.83 C 44.65 453.66 53.32 452.30 62.00 452.62 C 74.03 452.26 86.09 453.60 98.10 452.26 C 105.79 451.37 113.49 453.08 121.19 452.34 C 126.09 451.89 131.02 451.29 135.95 451.77 C 149.38 453.20 162.90 452.15 176.37 452.53 C 184.93 452.94 193.44 450.89 201.99 451.98 C 207.63 452.66 213.33 452.72 218.99 452.16 C 225.87 451.41 232.73 452.89 239.62 452.50 C 243.40 452.32 247.17 451.77 250.96 451.66 C 258.33 451.38 265.61 453.12 272.98 452.95 C 278.01 452.89 282.98 451.80 288.02 451.89 C 291.38 451.93 294.72 452.38 298.08 452.51 C 305.08 452.87 312.03 451.27 319.04 451.85 C 324.36 452.25 329.69 451.91 335.00 451.61 C 343.50 451.12 351.93 453.24 360.42 452.37 C 365.72 451.81 371.08 451.65 376.37 452.45 C 384.88 453.69 393.46 452.41 402.01 452.68 C 409.67 452.58 417.32 453.83 424.98 453.09 C 429.28 452.70 433.59 452.39 437.92 452.45 C 452.08 452.54 466.26 452.32 480.39 453.43 C 488.41 453.96 496.42 453.02 504.40 452.40 C 512.95 451.70 521.53 453.09 530.07 452.22 C 534.84 451.69 539.64 451.99 544.41 452.41 C 551.62 453.02 558.78 451.57 565.98 451.55 C 572.98 451.36 579.96 452.34 586.97 451.97 C 591.31 451.71 595.67 451.88 600.00 452.38 L 600.00 488.40 C 592.37 487.68 584.40 486.42 576.98 489.06 C 571.15 491.29 564.83 490.23 558.76 490.41 C 551.49 490.63 544.28 489.45 537.02 489.53 C 513.68 489.69 490.34 489.52 467.00 489.60 C 452.37 490.63 437.64 490.99 423.01 489.62 C 417.28 489.22 411.58 490.22 405.86 490.41 C 395.22 490.55 384.58 490.56 373.98 489.63 C 334.66 489.50 295.34 489.69 256.03 489.54 C 247.32 489.29 238.66 491.23 229.96 490.13 C 222.51 489.10 215.07 490.94 207.61 490.32 C 193.79 488.93 179.88 489.84 166.01 489.60 C 122.35 489.62 78.68 489.54 35.01 489.64 C 32.22 489.57 29.44 489.25 26.71 488.69 C 17.93 486.77 8.89 487.71 0.00 487.94 L 0.00 451.87 Z"/>
<path fill="#7e40bf" d=" M 0.00 487.94 C 8.89 487.71 17.93 486.77 26.71 488.69 C 29.44 489.25 32.22 489.57 35.01 489.64 C 78.68 489.54 122.35 489.62 166.01 489.60 C 179.88 489.84 193.79 488.93 207.61 490.32 C 215.07 490.94 222.51 489.10 229.96 490.13 C 238.66 491.23 247.32 489.29 256.03 489.54 C 295.34 489.69 334.66 489.50 373.98 489.63 C 384.58 490.56 395.22 490.55 405.86 490.41 C 411.58 490.22 417.28 489.22 423.01 489.62 C 437.64 490.99 452.37 490.63 467.00 489.60 C 490.34 489.52 513.68 489.69 537.02 489.53 C 544.28 489.45 551.49 490.63 558.76 490.41 C 564.83 490.23 571.15 491.29 576.98 489.06 C 584.40 486.42 592.37 487.68 600.00 488.40 L 600.00 510.44 C 492.32 510.05 384.63 510.45 276.95 510.24 C 199.98 510.39 123.00 510.22 46.03 510.32 C 30.68 510.10 15.34 510.61 0.00 510.04 L 0.00 487.94 Z"/>
<path fill="#7638b3" d=" M 0.00 510.04 C 15.34 510.61 30.68 510.10 46.03 510.32 C 123.00 510.22 199.98 510.39 276.95 510.24 C 384.63 510.45 492.32 510.05 600.00 510.44 L 600.00 542.51 C 584.65 542.89 569.30 542.64 553.95 542.69 C 542.23 542.81 530.48 542.18 518.80 543.45 C 508.66 544.59 498.55 541.87 488.43 543.30 C 477.94 544.63 467.47 542.44 456.97 542.65 C 442.99 542.75 429.01 542.73 415.04 542.64 C 407.48 542.49 399.98 543.85 392.42 543.41 C 378.82 542.36 365.12 542.31 351.52 543.39 C 344.32 543.83 337.16 542.57 329.96 542.66 C 315.30 542.76 300.64 542.65 285.98 542.70 C 277.00 542.79 268.00 542.30 259.04 543.17 C 249.34 544.20 239.67 542.26 229.96 542.60 C 220.65 542.57 211.39 544.41 202.08 543.54 C 186.76 541.93 171.34 542.99 155.97 542.71 C 124.33 542.68 92.69 542.72 61.05 542.70 C 40.70 542.86 20.34 542.37 0.00 542.96 L 0.00 510.04 Z"/>
<path fill="#6d32a8" d=" M 0.00 542.96 C 20.34 542.37 40.70 542.86 61.05 542.70 C 92.69 542.72 124.33 542.68 155.97 542.71 C 171.34 542.99 186.76 541.93 202.08 543.54 C 211.39 544.41 220.65 542.57 229.96 542.60 C 239.67 542.26 249.34 544.20 259.04 543.17 C 268.00 542.30 277.00 542.79 285.98 542.70 C 300.64 542.65 315.30 542.76 329.96 542.66 C 337.16 542.57 344.32 543.83 351.52 543.39 C 365.12 542.31 378.82 542.36 392.42 543.41 C 399.98 543.85 407.48 542.49 415.04 542.64 C 429.01 542.73 442.99 542.75 456.97 542.65 C 467.47 542.44 477.94 544.63 488.43 543.30 C 498.55 541.87 508.66 544.59 518.80 543.45 C 530.48 542.18 542.23 542.81 553.95 542.69 C 569.30 542.64 584.65 542.89 600.00 542.51 L 600.00 557.48 C 591.99 557.50 584.02 558.53 576.01 558.38 C 566.03 558.17 556.02 558.74 546.06 557.82 C 537.03 557.00 528.02 558.66 518.99 558.37 C 500.00 558.10 480.99 558.67 462.01 558.12 C 451.67 556.76 441.34 558.60 431.00 558.38 C 418.41 558.06 405.79 558.90 393.24 557.78 C 385.15 557.11 377.09 558.49 369.01 558.43 C 362.34 558.57 355.69 557.94 349.05 557.52 C 339.36 556.88 329.74 558.68 320.05 558.37 C 303.62 558.04 287.16 558.92 270.76 557.70 C 260.85 557.67 250.92 557.30 241.03 558.15 C 228.69 559.14 216.37 557.19 204.03 557.65 C 193.34 557.23 182.70 558.71 172.01 558.35 C 160.69 558.10 149.35 558.86 138.05 557.82 C 132.36 557.30 126.65 557.73 120.98 558.21 C 115.42 558.68 109.87 558.10 104.34 557.70 C 95.88 557.07 87.46 558.98 79.00 558.25 C 68.59 557.34 58.11 556.93 47.68 557.73 C 35.49 558.78 23.24 558.42 11.03 557.96 C 7.24 557.78 3.53 558.73 0.00 560.04 L 0.00 542.96 Z"/>
<path fill="#642b9d" d=" M 0.00 560.04 C 3.53 558.73 7.24 557.78 11.03 557.96 C 23.24 558.42 35.49 558.78 47.68 557.73 C 58.11 556.93 68.59 557.34 79.00 558.25 C 87.46 558.98 95.88 557.07 104.34 557.70 C 109.87 558.10 115.42 558.68 120.98 558.21 C 126.65 557.73 132.36 557.30 138.05 557.82 C 149.35 558.86 160.69 558.10 172.01 558.35 C 182.70 558.71 193.34 557.23 204.03 557.65 C 216.37 557.19 228.69 559.14 241.03 558.15 C 250.92 557.30 260.85 557.67 270.76 557.70 C 287.16 558.92 303.62 558.04 320.05 558.37 C 329.74 558.68 339.36 556.88 349.05 557.52 C 355.69 557.94 362.34 558.57 369.01 558.43 C 377.09 558.49 385.15 557.11 393.24 557.78 C 405.79 558.90 418.41 558.06 431.00 558.38 C 441.34 558.60 451.67 556.76 462.01 558.12 C 480.99 558.67 500.00 558.10 518.99 558.37 C 528.02 558.66 537.03 557.00 546.06 557.82 C 556.02 558.74 566.03 558.17 576.01 558.38 C 584.02 558.53 591.99 557.50 600.00 557.48 L 600.00 585.58 C 576.35 586.04 552.69 585.62 529.04 585.76 C 371.69 585.77 214.34 585.74 56.99 585.78 C 38.00 585.89 18.99 585.49 0.00 585.96 L 0.00 560.04 Z"/>
<path fill="#5d2594" d=" M 0.00 585.96 C 18.99 585.49 38.00 585.89 56.99 585.78 C 214.34 585.74 371.69 585.77 529.04 585.76 C 552.69 585.62 576.35 586.04 600.00 585.58 L 600.00 600.00 L 0.00 600.00 L 0.00 585.96 Z"/>
<style xmlns="" type="text/css" id="undefined"/></svg>