<?xml version="1.0" encoding="utf-8"?>
<!-- Generator: Adobe Illustrator 22.1.0, SVG Export Plug-In . SVG Version: 6.00 Build 0)  -->
<svg version="1.1" id="Calque_1" xmlns="http://www.w3.org/2000/svg" xmlns:xlink="http://www.w3.org/1999/xlink" x="0px" y="0px"
	 viewBox="0 0 189.1 81.1" style="enable-background:new 0 0 189.1 81.1;" xml:space="preserve">
<style type="text/css">
	.st0{fill:url(#SVGID_1_);}
	.st1{fill:#D9D9D9;}
	.st2{fill:#FFFFFF;}
	.st3{fill:#0057A3;stroke:#0057A3;stroke-width:1.6403;}
</style>
<g>
	
		<linearGradient id="SVGID_1_" gradientUnits="userSpaceOnUse" x1="-82.3765" y1="-410.205" x2="-82.3765" y2="-304.9486" gradientTransform="matrix(0.576 0 0 0.576 115.5521 235.631)">
		<stop  offset="0" style="stop-color:#FFED00"/>
		<stop  offset="0.8" style="stop-color:#EE8360"/>
	</linearGradient>
	<path class="st0" d="M68.1,0C51.7,0,38.4,13.3,38.4,29.7c0,16.4,13.3,29.7,29.7,29.7c16.4,0,29.7-13.3,29.7-29.7
		C97.8,13.3,84.5,0,68.1,0z"/>
	<path class="st1" d="M1.1,33.4h32.5c0,0,1.1,0,1.1-1c0-1-0.8-1-1.5-1.1c0,0-0.4-4.6-5.2-4.6c0,0-3.4-0.3-5.1,1.4
		c0,0-11.3-3.2-13.4,1.2c0,0-3.1-1.4-4.7,1.4C1.8,30.2,0,30.8,0,32.2C0,32.2-0.1,33.4,1.1,33.4z"/>
	<path class="st1" d="M187.7,30.9H153c0,0-1.4,0-1.4-1.3c0-1.3,1-1.3,1.9-1.4c0,0,0.5-5.8,6.5-5.8c0,0,2.3-0.4,4.4,1.7
		c0,0,11.2-4,13.8,1.5c0,0,9.1-1.3,10.8,3.7C189.1,29.4,189.6,30.9,187.7,30.9z"/>
	<path class="st1" d="M141.6,41.3h17.3c0,0,0.7,0,0.7-0.6c0-0.6-0.5-0.6-1-0.7c0,0-0.2-2.9-3.2-2.9c0,0-1.2-0.2-2.2,0.9
		c0,0-5.6-2-6.9,0.8c0,0-4.5-0.6-5.4,1.8C140.9,40.5,140.6,41.3,141.6,41.3z"/>
	<path class="st1" d="M44.2,39.8h17.3c0,0,0.7,0,0.7-0.6c0-0.6-0.5-0.6-1-0.7c0,0-0.2-2.9-3.2-2.9c0,0-1.2-0.2-2.2,0.9
		c0,0-5.6-2-6.9,0.8c0,0-4.5-0.6-5.4,1.8C43.5,39.1,43.2,39.8,44.2,39.8z"/>
	<g>
		<path class="st2" d="M40.9,69.5c0.1,0.4,0.3,1.1,0.3,1.1c0,0,0,0.1-0.1,0.1c0,0-0.1-0.1-0.2-0.2C40.1,69.4,38.2,69,36,69h-2.6v4.2
			h2.6c2,0,2.5-0.2,2.9-0.5c0.2-0.2,0.3-0.4,0.3-0.5c0-0.1,0.1-0.2,0.1-0.2c0.1,0,0.1,0.1,0.1,0.2v2.8c0,0.1,0,0.1,0,0.1
			c0,0-0.1-0.1-0.2-0.2c-0.2-0.6-1-1.2-3.1-1.2h-2.7v2.6c0,1.4,0.1,2.3,0.9,2.7c0.1,0,0.2,0.1,0.2,0.1c0,0.1,0,0.1-0.2,0.1
			c-0.2,0-0.5-0.1-1.6-0.1c-1,0-1.5,0.1-1.7,0.1c-0.1,0-0.1,0-0.1-0.1c0,0,0.1-0.1,0.2-0.1c0.9-0.3,0.9-1.3,0.9-2.7v-6.5
			c0-0.5-0.2-0.8-0.6-1c-0.1,0-0.2,0-0.2-0.1c0,0,0.1-0.1,0.4-0.1h8.9L40.9,69.5z"/>
		<path class="st2" d="M53.6,77l4.2-8.5h1.9c0.3,0,0.3,0,0.3,0.1c0,0.1-0.1,0.1-0.2,0.1c-0.4,0.2-0.5,0.6-0.5,1.4v5.3
			c0,1.3,0.2,2.4,0.4,2.9c0.2,0.5,0.6,0.5,0.6,0.6c0,0-0.1,0.1-0.2,0.1c-0.2,0-0.7-0.1-1.5-0.1c-0.9,0-1.5,0.1-1.6,0.1
			c-0.1,0-0.1-0.1-0.1-0.1c0,0,0.3-0.1,0.5-0.3c0.3-0.3,0.4-0.8,0.4-2.1v-7h0l-4.4,9.1c-0.1,0.2-0.2,0.4-0.4,0.4
			c-0.1,0-0.2-0.2-0.3-0.5l-4.3-8.9h0h0v6.6c0,1.7,0.4,2,0.9,2.4c0.1,0.1,0.2,0.1,0.2,0.2c0,0.1-0.1,0.1-0.3,0.1
			c-0.2,0-0.4-0.1-1-0.1c-0.8,0-1.1,0.1-1.3,0.1c-0.1,0-0.2,0-0.2-0.1c0,0,0.2-0.1,0.3-0.2c0.7-0.6,0.9-1.7,0.9-2.9v-5.5
			c0-1.1-0.1-1.4-0.7-1.7c-0.1-0.1-0.2-0.1-0.2-0.2c0-0.1,0.2-0.1,0.3-0.1c0.4,0,0.7,0.1,1.1,0.1c0.2,0,0.5-0.1,0.7-0.1
			c0.1,0,0.2,0,0.3,0c0.1,0.1,0.4,0.9,0.5,1L53.6,77z"/>
		<path class="st2" d="M83.8,76.1c0,2.3,0.3,2.6,0.9,2.8c0.1,0,0.3,0.1,0.2,0.1c0,0.1-0.1,0.1-0.3,0.1c-0.4,0-0.9,0-1.5,0
			c-1.1,0-1.4,0-1.6,0c-0.2,0-0.3,0-0.3-0.1c0-0.1,0.1-0.1,0.4-0.2c0.7-0.3,0.9-0.7,0.9-2.7v-4.8c0-1.3-0.1-1.5-0.8-1.7
			c-0.1,0-0.2,0-0.2-0.1c0-0.1,0.1-0.1,0.3-0.2l2.1-0.7V76.1z"/>
		<path class="st2" d="M104,74L104,74c0,3.1-2.1,5.3-5,5.3c-2.9,0-5-2.2-5-5.3c0-3.1,2.1-5.3,5-5.3C101.9,68.8,104,70.9,104,74z
			 M95.7,74c0,1.9,0.3,4.9,3.3,4.9c3.1,0,3.3-3,3.3-4.9c0-1.9-0.3-4.9-3.3-4.9C96,69.2,95.7,72.1,95.7,74z"/>
		<path class="st2" d="M113.2,73.3c0.4,0.1,0.7,0.2,1.1,0.2c1.4,0,2.7-0.6,2.7-2.2c0-1.5-1.2-2.1-2.5-2.1c-1.4,0-2.3,0.5-3,1.6
			c-0.1,0.2-0.2,0.3-0.3,0.3c0,0-0.1-0.1-0.1-0.2l-0.3-1.3c1.3-0.7,2.6-0.9,4-0.9c1.5,0,4,0.5,4,2.4c0,1.6-1.8,2.2-3.2,2.5v0
			c1.5,0.3,3.6,0.8,3.6,2.7c0,2.3-3,3-4.8,3c-1.6,0-3.1-0.3-4.5-1.1l0.4-1.2c0.1-0.4,0.2-0.5,0.3-0.5c0.1,0,0.1,0.1,0.2,0.3
			c0.4,1.5,2.1,2.1,3.5,2.1c1.6,0,3.3-0.8,3.3-2.6c0-1.7-1.6-2.5-3.1-2.5c-0.4,0-0.8,0.1-1.2,0.2V73.3z"/>
		<path class="st2" d="M128.1,77.7c0.5,0,0.9,0.5,0.9,1.2c0,1-1,2.2-1.3,2.2c0,0-0.1,0-0.1-0.1c0,0,0-0.1,0-0.1
			c0.4-0.5,0.7-0.9,0.7-1.6c-0.5,0-1-0.2-1-0.7C127.3,78.1,127.5,77.7,128.1,77.7z"/>
		<path class="st2" d="M146.1,69c0,2-4.6,4.2-4.6,9.2c0,0.3,0,0.6,0,0.9h-2.1c0.1-4.5,5.4-7.5,5.4-8.9h-5.5c-1.1,0-1.6,0.3-2,0.9
			c0,0.1-0.2,0.2-0.2,0.2c0,0,0-0.1,0-0.1c0-0.1,0.1-0.2,0.1-0.3l0.6-1.8H146.1z"/>
	</g>
	<path class="st3" d="M46.4,52c-9,0-15.9-5.3-14.4-15.3c1.9-11.9,14-21.1,25.1-21.1c3.4,0,6.4,0.8,9.1,2.5c2.4,1.5,2.7,2,2.5,3.2
		c-0.2,1-0.4,1.9-0.7,2.9c-0.7,2.7-1.6,4.5-3.2,4.5c-1.3,0-1.5-1-1.4-2.3c0.3-4.6-2.6-7.1-6.9-7.1C48,19.2,42.3,29.6,41.1,37
		c-1.2,7.6,2.3,10.9,7.5,10.9c4.1,0,7.6-2.2,11-5c0.5-0.3,1-0.8,1.6-0.8c0.9,0,1.6,0.7,1.5,1.7c-0.3,2.1-3.9,4.5-5.6,5.4
		C53.6,51.1,49.9,52,46.4,52z"/>
	<path class="st3" d="M73.9,27.2c1.3-4,2-5.5,2.1-6.4c0.2-1.3-1.8-1.5-1.6-2.9c0.2-1.4,1.6-1.6,2.7-1.6h9c0.9,0,2.2,0.1,2,1.4
		c-0.3,1.9-2.8,0.8-4.1,4.9l-5.5,16.5c-1.7,5.3-2.3,6.5-2.5,7.6c-0.3,1.6,1.8,1.5,1.6,2.9c-0.2,1.5-1.6,1.7-2.7,1.7h-7.6
		c-2.2,0-3.1,0-2.9-1.4c0.1-0.7,0.8-1.1,2-1.9c1.2-0.8,1.8-1.9,2.6-4.5L73.9,27.2z"/>
	<path class="st3" d="M107.3,30.7c1.5,0,2.2-0.5,3.3-1.3c0.6-0.3,0.9-0.6,1.4-0.6c0.9,0,1.1,0.7,1,1.5c-0.1,0.7-1.2,3.9-1.6,4.5
		c-0.4,0.7-1.1,1.1-1.8,1.1c-1.1,0-1.5-1.8-3.3-1.8h-7.9c-2.6,7.8-3.3,9.8-3.5,11.3c-0.4,2.3,1.3,2.3,3.1,2.3
		c7.7,0,9.2-1.1,11.1-2.8c0.9-0.7,1.6-1.4,2.7-1.4c0.7,0,1.4,0.4,1.2,1.2c-0.2,1-1.9,4.5-2.5,5.5c-0.6,1-1.4,1.1-2.4,1.1H85.2
		c-2.2,0-3.2,0-3-1.4c0.1-0.7,0.8-1.1,2-1.9c1.2-0.8,1.8-1.9,2.7-4.5l5.3-16.3c1.4-4,2-5.5,2.1-6.4c0.2-1.3-1.8-1.5-1.6-2.9
		c0.2-1.4,1.7-1.6,2.7-1.6h22.7c1.4,0,2.3,0.2,2,1.8c-0.2,1-0.8,3.6-1.5,4.5c-0.4,0.5-1.1,0.9-1.7,0.9c-0.9,0-1.2-0.5-1.5-1.2
		c-0.8-1.6-1.5-2.5-6.9-2.5c-5.2,0-5.7,1-6.6,3.4l-2.6,7.6H107.3z"/>
	<path class="st3" d="M125,25.2c0.9-2.6,1.3-3.8,1.5-4.6c0.2-1.1-1.8-1.3-1.6-2.6c0.3-1.4,1.8-1.7,2.9-1.7h9.4
		c0.9,0,1.9,0.2,1.7,1.4c-0.2,1.2-2.1,1.7-3,2.5c-0.9,0.8-1.5,2.7-1.9,3.8l-5.6,17c-1.2,3.7-1.5,4.2-1.6,5c-0.2,1.1,0.4,1.7,4.9,1.7
		c5.3,0,6.3-0.8,9.2-3.2c0.7-0.6,1.9-1.6,2.9-1.6c0.7,0,1.5,0.5,1.3,1.3c-0.2,1-2.4,4.7-3.2,5.7c-1.1,1.3-1.8,1.3-3.9,1.3h-20.5
		c-2,0-3.3,0-3.1-1.3c0.1-0.9,0.6-1.2,1.3-1.6c1.8-1,2.3-1.9,3.2-4.9L125,25.2z"/>
	<path class="st1" d="M131.8,45.4h-22.9c0,0-0.9,0-0.9-0.8c0-0.8,0.7-0.8,1.3-0.9c0,0,0.3-3.8,4.3-3.8c0,0,1.5-0.3,2.9,1.1
		c0,0,7.4-2.7,9.1,1c0,0,6-0.8,7.1,2.4C132.7,44.3,133,45.4,131.8,45.4z"/>
	<path class="st1" d="M84.6,34H61.8c0,0-0.9,0-0.9-0.8c0-0.8,0.7-0.8,1.3-0.9c0,0,0.3-3.8,4.3-3.8c0,0,1.5-0.3,2.9,1.1
		c0,0,7.4-2.7,9.1,1c0,0,6-0.8,7.1,2.4C85.6,33,85.9,34,84.6,34z"/>
</g>
</svg>
