<?xml version="1.0" encoding="utf-8"?>
<!-- Generator: Adobe Illustrator 17.0.0, SVG Export Plug-In . SVG Version: 6.00 Build 0)  -->
<!DOCTYPE svg PUBLIC "-//W3C//DTD SVG 1.1//EN" "http://www.w3.org/Graphics/SVG/1.1/DTD/svg11.dtd">
<svg version="1.1" id="Layer_1" xmlns="http://www.w3.org/2000/svg" xmlns:xlink="http://www.w3.org/1999/xlink" x="0px" y="0px"
	 width="600px" height="600px" viewBox="0 0 600 600" enable-background="new 0 0 600 600" xml:space="preserve">
<g>
	<path fill-rule="evenodd" clip-rule="evenodd" fill="#E21A23" d="M593.026,440.397c-5.612-1.785-13.039-2.01-22.513-0.464
		c1.631,2.893,2.555,10.101-5.862,5.049c-1.77-2.572,0.396-3.549-0.592-5.814c-5.646-1.452-14.138-0.444-19.359-2.266
		c-24.974,5.016-62.147-3.597-84.44,4.148c-1.339-1.559-3.096-2.739-6.899-2.178c-1.985,0.229-0.05,2.043-1.732,2.395
		c-2.515,0.062-2.953-1.658-5.474-1.6c-1.069,0.806,0.451,2.66-2.932,2.533c-2.528-0.241-3.805-1.545-4.725-3.16
		c-6.158,0.676-6.059-0.02-12.455-0.094c-2.165,1.71,4.506,5.118-1.82,6.069c-5.092-0.03-0.29-2.987-3.74-3.99
		c-7.951,0.408-1.936,4.069-5.863,5.045c-2.784-1.572,0.315-4.909,0.166-7.355c-91.461-3.665-177.656-2.074-270.932-3.961
		c1.211-1.365,2.428-2.737-3.374,1.105c-35.403-0.963-68.479-0.441-111.464,1.254c-1.537,1.023-2.284,2.376-5.325,2.784
		c-8.267-1.446-18.686,1.354-19.08,6.511c4.762,0.904,2.804,1.98,5.176,4.565c9.717-0.799,7.478,4.381,9.134,9.27
		c6.518-0.241,2.005,4.694,8.016,5.73c6.55-2.944,4.374,2.296,8.549,3.464c8.606-4.148,10.503-11.013,23.073-13.552
		c1.848,0.21,3.279,0.787,4.269,1.734c86.331-4.618,191.581,0.747,278.981-2.066c3.109-0.803,2.053-3.296,6.306-3.632
		c1.423,2.188-1.559,2.448,1.118,3.546c16.928,0.043,28.996,0.687,41.061-3.783c6.081,4.197,19.736,2.108,23.049-1.799
		c2.084,2.155,8.166,1.859,9.829-0.348c1.817,3.316,1.932,0.832,5.024,0.181c1.267,0.711,2.186,1.73,2.323,3.42
		c10.692,0.757,15.049,1.424,23.631,3.997c15.662,0.313,40.038-1.671,54.863,0.576c2.288-2.582,6.137-4.526,10.441-6.29
		c0.15,2.579,2.178,3.543,4.95,3.859c13.923-4.152,36.374,0.678,48.79-6.835c2.059,0.641,3.958,1.407,5.708,2.306
		c-0.13-1.487,2.756-1.767,4.13-2.655c0.885,2.546,5.71,1.691,10.273,1.069C597.088,446.667,590.549,443.619,593.026,440.397z"/>
	<g>
		<path fill="#231F20" d="M88.849,399.808c-4.178,4.181-9.315,6.21-15.708,6.21c-2.902,0-5.532-0.522-8.038-1.597
			c-2.513-1.076-4.738-2.572-6.611-4.446c-1.871-1.873-3.368-4.097-4.444-6.61c-1.075-2.505-1.598-5.137-1.598-8.035
			c0-2.884,0.545-5.669,1.623-8.267c1.096-2.65,2.622-5.023,4.531-7.058c1.896-2.015,4.145-3.649,6.683-4.861
			c2.455-1.167,5.025-1.735,7.855-1.735c3.162,0,5.895,0.606,8.357,1.849c2.894,1.465,5.56,3.099,7.922,4.854l3.356,2.49
			l17.504-15.6l-3.92-3.845c-4.265-4.183-9.228-7.633-14.755-10.252c-5.7-2.702-11.912-4.073-18.464-4.073
			c-6.245,0-12.221,1.309-17.762,3.891c-5.447,2.538-10.257,5.978-14.297,10.227c-4.02,4.227-7.253,9.176-9.612,14.72
			c-2.386,5.609-3.594,11.551-3.594,17.662c0,6.198,1.215,12.133,3.611,17.642c2.375,5.453,5.633,10.274,9.686,14.323
			c4.053,4.056,8.874,7.312,14.325,9.685c5.506,2.398,11.443,3.613,17.644,3.613c6.417,0,12.51-1.092,18.11-3.252
			c5.696-2.194,10.803-5.564,15.179-10.025l3.56-3.628l-17.51-17.511L88.849,399.808z"/>
		<path fill="#231F20" d="M184.236,352.242c-4.139-4.138-9.05-7.438-14.592-9.808c-5.58-2.391-11.626-3.603-17.972-3.603
			c-6.281,0-12.262,1.217-17.775,3.612c-5.456,2.372-10.319,5.667-14.454,9.796c-4.139,4.133-7.445,9.037-9.823,14.579
			c-2.392,5.572-3.605,11.611-3.605,17.953c0,6.28,1.217,12.251,3.618,17.755c2.375,5.457,5.676,10.309,9.81,14.44
			c4.135,4.126,8.998,7.424,14.454,9.794c5.513,2.396,11.494,3.612,17.775,3.612c6.346,0,12.392-1.209,17.972-3.601
			c5.543-2.37,10.452-5.671,14.593-9.805c4.133-4.132,7.434-8.984,9.809-14.44c2.403-5.506,3.62-11.482,3.62-17.755
			c0-6.339-1.214-12.379-3.608-17.957C191.68,361.276,188.375,356.371,184.236,352.242z M171.011,392.877
			c-1.107,2.522-2.615,4.735-4.482,6.574c-1.857,1.83-4.079,3.284-6.609,4.329c-5.033,2.082-11.457,2.084-16.421,0.006
			c-2.517-1.052-4.639-2.457-6.486-4.309c-1.831-1.835-3.304-4.041-4.379-6.552c-1.059-2.474-1.595-5.217-1.595-8.155
			c0-2.942,0.538-5.712,1.602-8.232c1.08-2.554,2.56-4.801,4.402-6.674c1.835-1.871,4.042-3.382,6.555-4.49
			c2.486-1.097,5.128-1.633,8.075-1.633c2.956,0,5.624,0.538,8.154,1.641c2.556,1.115,4.801,2.635,6.675,4.512
			c1.874,1.88,3.388,4.131,4.503,6.692c1.103,2.541,1.64,5.215,1.64,8.184C172.643,387.729,172.108,390.382,171.011,392.877z"/>
		<path fill="#231F20" d="M248.773,394.272c0,1.671-0.295,3.149-0.9,4.511c-0.659,1.482-1.511,2.764-2.516,3.819
			c-1.1,1.1-2.332,1.927-3.775,2.53c-2.928,1.228-6.436,1.172-9.319-0.017c-1.379-0.564-2.488-1.326-3.392-2.324l-0.178-0.189
			c-1.146-1.145-2.034-2.416-2.717-3.895c-0.62-1.335-0.92-2.786-0.92-4.435v-54.21H200.59v54.21c0,5.15,0.946,9.984,2.813,14.364
			c1.854,4.357,4.461,8.228,7.743,11.508c3.275,3.278,7.138,5.902,11.475,7.789c4.4,1.915,9.244,2.885,14.402,2.885
			c4.996,0,9.793-0.967,14.257-2.872c4.424-1.888,8.334-4.512,11.669-7.851c3.166-3.249,5.745-7.082,7.663-11.379
			c1.962-4.411,2.959-9.27,2.959-14.445v-54.21h-24.799V394.272z"/>
		<polygon fill="#231F20" points="327.918,381.359 301.064,340.175 276.828,340.175 276.828,428.809 302.523,428.809 
			302.523,386.025 330.262,428.809 353.61,428.809 353.61,340.175 327.918,340.175 		"/>
		<polygon fill="#231F20" points="356.76,364.082 379.787,364.082 379.787,428.809 405.819,428.809 405.819,364.082 
			428.623,364.082 428.623,340.175 356.76,340.175 		"/>
		<path fill="#231F20" d="M493.848,391.536c2.845-2.661,5.05-5.883,6.555-9.579c1.477-3.618,2.224-7.526,2.224-11.608
			c0-4.247-0.753-8.203-2.242-11.762c-1.482-3.549-3.64-6.756-6.415-9.536c-2.762-2.758-5.986-4.945-9.588-6.502
			c-3.655-1.579-7.591-2.376-11.702-2.376h-40.573v88.634H457.8v-28.734h4.774l16.769,28.734h28.198l-19.177-32.945
			C490.377,394.622,492.216,393.169,493.848,391.536z M476.87,374.552c-0.609,0.648-1.24,1.102-1.927,1.379
			c-0.771,0.312-1.51,0.465-2.264,0.465H457.8v-12.314h14.88c0.803,0,1.513,0.148,2.163,0.452c0.811,0.385,1.513,0.882,2.139,1.507
			c1.127,1.125,1.628,2.456,1.628,4.309C478.61,372.047,478.108,373.309,476.87,374.552z"/>
		<polygon fill="#231F20" points="555.664,340.287 538.967,369.504 522.275,340.287 494.933,340.287 526.121,396.605 
			526.121,428.809 551.703,428.809 551.703,396.609 583.025,340.287 		"/>
	</g>
	<g>
		<path fill="#E21A23" d="M274.037,202.868c-2.388-4.461-5.669-8.716-9.822-12.762c-4.161-4.049-9.529-7.333-16.114-9.859
			c-6.582-2.523-15.002-3.788-25.254-3.788c-21.348,0-37.235,5.777-47.662,17.33c-10.432,11.553-15.644,31.789-15.644,60.702
			c0,11.761,1.022,22.501,3.066,32.221c2.043,9.718,4.902,17.38,8.576,22.985c5.057,7.886,11.538,13.869,19.438,17.95
			c7.9,4.083,18.258,6.123,31.08,6.123c22.866,0,38.981-6.397,48.334-19.198c9.354-12.797,14.034-32.998,14.034-60.598
			c0-12.315-1.419-24.144-4.265-35.488C278.349,212.536,276.427,207.329,274.037,202.868z M239.734,286.141
			c-1.491,6.502-3.812,11.258-6.964,14.268c-3.156,3.009-6.88,4.513-11.175,4.513c-6.514,0-11.486-3.545-14.916-10.636
			c-3.43-7.089-5.145-20.32-5.145-39.691c0-19.16,1.558-32.287,4.677-39.378c3.119-7.093,8.174-10.638,15.176-10.638
			c6.862,0,12.006,3.478,15.435,10.431c3.432,6.951,5.144,20.53,5.144,40.729C241.967,269.504,241.223,279.639,239.734,286.141z"/>
		<path fill="#E21A23" d="M408.882,218.487c-1.458-5.951-3.382-11.157-5.765-15.619c-2.39-4.461-5.671-8.716-9.828-12.762
			c-4.159-4.049-9.526-7.333-16.111-9.859c-6.586-2.523-15.004-3.788-25.258-3.788c-21.344,0-37.234,5.777-47.66,17.33
			c-10.431,11.553-15.644,31.789-15.644,60.702c0,11.761,1.021,22.501,3.066,32.221c2.038,9.718,4.899,17.38,8.577,22.985
			c5.054,7.886,11.536,13.869,19.437,17.95c7.899,4.083,18.258,6.123,31.076,6.123c22.869,0,38.981-6.397,48.336-19.198
			c9.359-12.797,14.036-32.998,14.036-60.598C413.145,241.66,411.722,229.831,408.882,218.487z M368.812,286.141
			c-1.495,6.502-3.809,11.258-6.965,14.268c-3.156,3.009-6.88,4.513-11.174,4.513c-6.516,0-11.488-3.545-14.914-10.636
			c-3.434-7.089-5.148-20.32-5.148-39.691c0-19.16,1.554-32.287,4.677-39.378c3.118-7.093,8.174-10.638,15.176-10.638
			c6.862,0,12.005,3.478,15.436,10.431c3.431,6.951,5.146,20.53,5.146,40.729C371.046,269.504,370.298,279.639,368.812,286.141z"/>
		<path fill="#E21A23" d="M131.604,229.726c-11.352-7.548-23.624-9.741-36.817-6.578c-6.812,1.628-12.514,4.307-17.137,8.016
			c-4.621,3.713-8.798,8.736-12.536,15.055c-2.475-16.716-2.935-27.907-1.389-33.564c2.112-7.843,6.496-12.567,13.159-14.164
			c3.708-0.886,7.101-0.415,10.182,1.408c3.083,1.835,5.84,5.574,8.27,11.23l39.715-15.028c-4.241-7.646-9.236-13.635-14.984-17.98
			c-5.751-4.347-12.372-7.106-19.852-8.285c-7.478-1.175-17.106-0.358-28.89,2.474c-19.937,4.779-34.058,14.937-42.364,30.467
			c-8.31,15.534-9.302,37.107-2.982,64.724c4.309,18.855,10.454,33.363,18.423,43.521c7.973,10.159,17.039,16.777,27.188,19.844
			c10.143,3.067,22.625,2.824,37.443-0.73c12.321-2.95,22.083-7.554,29.286-13.795c7.198-6.238,12.154-14.084,14.861-23.539
			c2.7-9.457,2.893-19.225,0.583-29.313C150.345,248.533,142.955,237.277,131.604,229.726z M113.934,294.293
			c-2.67,5.112-6.693,8.31-12.074,9.602c-5.858,1.41-11.346,0.248-16.459-3.479c-5.117-3.724-8.622-9.726-10.515-18.009
			c-1.864-8.141-1.361-14.864,1.51-20.175c2.872-5.309,7.16-8.651,12.886-10.021c5.594-1.347,10.787-0.202,15.594,3.413
			c4.805,3.618,8.198,9.736,10.168,18.369C116.969,282.407,116.599,289.177,113.934,294.293z"/>
	</g>
	<g>
		<path fill="#E21A23" d="M433.026,316.341c-0.626,1.851-1.372,3.179-2.219,4.023c-0.806,0.845-1.879,1.248-3.119,1.248
			c-1.552,0-2.459-0.848-2.625-2.454c-0.154-1.65,0.423-4.709,1.717-9.136c1.29-4.386,2.505-7.442,3.653-9.051
			c1.122-1.651,2.515-2.454,4.071-2.454c1.353,0,2.18,0.443,2.543,1.247c0.358,0.803,0.278,2.171-0.263,4.023l-0.151,0.523h16.06
			c1.658-5.792,1.298-10.139-1.12-13.036c-2.391-2.857-6.87-4.305-13.367-4.305c-7.133,0-13.225,2.011-18.281,6.073
			c-5.045,4.023-8.635,9.736-10.793,17.1c-2.15,7.324-1.9,12.996,0.722,16.98c2.645,4.022,7.438,6.035,14.411,6.037
			c6.857,0,12.372-1.408,16.576-4.185c4.202-2.775,7.151-7,8.884-12.633L433.026,316.341z"/>
		<path fill="#E21A23" d="M537.074,287.941l-22.243-0.001l-10.98,17.744l-11.983,19.343l-4.487-16.609l17.644-20.479l-17.498-0.002
			l-14.822,18.751l5.495-18.751l-16.66-0.001l-12.974,44.259l16.662,0.002l5.85-19.958l4.554,19.959l18.172,0.002v-0.001
			l10.202,0.001l3.707-7.2l12.718,0.001l-0.561,7.201l18.058,0.001l-0.52-26.515L537.074,287.941z M521.867,305.685l-0.69,8.73
			h-7.771l4.553-8.73l4.594-8.73L521.867,305.685z"/>
		<polygon fill="#E21A23" points="545.494,287.941 542.11,299.49 552.593,299.491 543.003,332.201 559.662,332.203 569.253,299.491 
			579.737,299.494 583.122,287.945 		"/>
	</g>
</g>
<rect id="_x3C_Slice_x3E__9_" x="0" y="0" fill="none" width="600" height="600"/>
</svg>
