<?xml version="1.0" encoding="UTF-8" standalone="no"?>
<!-- Generator: Adobe Illustrator 22.1.0, SVG Export Plug-In . SVG Version: 6.00 Build 0)  -->

<svg
   xmlns:dc="http://purl.org/dc/elements/1.1/"
   xmlns:cc="http://creativecommons.org/ns#"
   xmlns:rdf="http://www.w3.org/1999/02/22-rdf-syntax-ns#"
   xmlns:svg="http://www.w3.org/2000/svg"
   xmlns="http://www.w3.org/2000/svg"
   xmlns:sodipodi="http://sodipodi.sourceforge.net/DTD/sodipodi-0.dtd"
   xmlns:inkscape="http://www.inkscape.org/namespaces/inkscape"
   version="1.1"
   id="Layer_1"
   x="0px"
   y="0px"
   viewBox="0 0 720 314.3"
   style="enable-background:new 0 0 720 314.3;"
   xml:space="preserve"
   sodipodi:docname="The Buzz 99.9-HD2.svg"
   inkscape:version="0.92.4 (5da689c313, 2019-01-14)"><metadata
   id="metadata77"><rdf:RDF><cc:Work
       rdf:about=""><dc:format>image/svg+xml</dc:format><dc:type
         rdf:resource="http://purl.org/dc/dcmitype/StillImage" /></cc:Work></rdf:RDF></metadata><defs
   id="defs75" /><sodipodi:namedview
   pagecolor="#ffffff"
   bordercolor="#666666"
   borderopacity="1"
   objecttolerance="10"
   gridtolerance="10"
   guidetolerance="10"
   inkscape:pageopacity="0"
   inkscape:pageshadow="2"
   inkscape:window-width="640"
   inkscape:window-height="480"
   id="namedview73"
   showgrid="false"
   inkscape:zoom="0.34373246"
   inkscape:cx="216.99825"
   inkscape:cy="-8.8285563"
   inkscape:window-x="0"
   inkscape:window-y="0"
   inkscape:window-maximized="0"
   inkscape:current-layer="Layer_1" />
<style
   type="text/css"
   id="style2">
	.st0{fill:#231F20;}
	.st1{fill:#FFFFFF;}
	.st2{fill:#ED1C24;}
</style>
<path
   class="st0"
   d="M653.4,109.4l45.1-67.7V8.4h-346l-6.2,6.2V8.4h-93.1L242.6,19c-11-6.8-25.2-10.6-42-10.6H33.1L18.5,22.3V207  h39.7l10.9-11h19.5v9.2H186c23.4,0,39.4-5.2,50.2-12.8c5.7-4,19.2-18.1,21.6-20.6c1.9-1.9,3.6-4,5-6.1c14,29.3,43.9,43,72.2,43  c21.2,0,40.7-7.2,54.8-20.3c4.4-4.2,14.4-14.2,18.6-18.6h1.6v35.4h277.4l14.6-14.6v-81.3H653.4z"
   id="path4" />
<g
   id="g12">
	<polygon
   class="st1"
   points="92.2,147.7 59.9,147.7 59.9,141.2 67.4,140.9 67.4,130.5 49.4,130.5 49.4,176.1 67.4,176.1    67.4,165.8 59.9,165.5 59.9,158.9 92.2,158.9 92.2,165.2 102.9,165.2 102.9,141.5 92.2,141.5  "
   id="polygon6" />
	<polygon
   class="st1"
   points="92.1,78.1 60.2,78.1 60.2,72.2 49.4,72.2 49.4,95.1 60.2,95.1 60.2,89.5 70.1,89.5 70.1,111.2    60.2,111.2 60.2,105.6 49.4,105.6 49.4,128.4 60.2,128.4 60.2,122.5 92.1,122.5 92.1,128.3 102.9,128.3 102.9,105.6 92.1,105.6    92.1,111.2 80.7,111.2 80.7,89.5 92.1,89.5 92.1,95.1 102.9,95.1 102.9,72.3 92.1,72.3  "
   id="polygon8" />
	<polygon
   class="st1"
   points="84.5,22.9 84.5,33.4 92,33.7 92,51.5 81,51.5 81,30.5 70.2,30.5 70.2,51.5 60.1,51.5 60.1,34.8    67.5,34.5 67.5,24 49.4,24 49.4,68.5 60,68.5 60,62.7 92.1,62.7 92.1,68.7 102.9,68.7 102.9,22.9  "
   id="polygon10" />
</g>
<g
   id="g22">
	<path
   class="st2"
   d="M241.8,96.7c9-7.1,13.9-17,13.9-28.6c0-30-20.1-47.2-55.1-47.2h-84.4v31.2h17.1v94.3h-17.5v31.6h84.9   c17.6,0,30.8-2.9,40.5-8.7c12.7-7.7,19.2-20.6,19.2-38.2C260.3,119,253.9,104.6,241.8,96.7z M166.3,113h34.9   c9.8,0,25.3,4.7,25.3,17.4c0,4,0,16.4-25.9,16.4h-34.3V113z M201.2,81.7h-34.9V52.2h34.3c19.5,0,22.2,8.2,22.2,16.1   C222.8,76.2,213.9,81.7,201.2,81.7z"
   id="path14" />
	<path
   class="st2"
   d="M365,52.4h18.7v60.1c0,25.8-17.1,37.4-34.1,37.4c-16,0-34.7-9.7-34.7-37V52.4h18.7V20.9h-68.1v31.4h16.2v60.5   c0,21.7,7.4,39.7,21.5,52.2c12.2,10.7,28.6,16.7,46.3,16.7c33.2,0,66.7-21.3,66.7-68.8V52.4h16.5V20.9H365V52.4z"
   id="path16" />
	<polygon
   class="st2"
   points="528.5,145.9 484.8,145.9 556.6,38 556.6,20.9 442.1,20.9 442.1,73.4 473.8,73.4 474.3,52.8 508,52.8    437.3,158.8 437.3,178.1 560.4,178.1 560.4,121.9 529.4,121.9  "
   id="polygon18" />
	<polygon
   class="st2"
   points="658.7,121.9 657.8,145.9 614.1,145.9 686,38 686,20.9 571.4,20.9 571.4,73.4 603.2,73.4 603.6,52.8    637.3,52.8 566.6,158.8 566.6,178.1 689.7,178.1 689.7,121.9  "
   id="polygon20" />
</g>
<g
   id="g70">
	<g
   id="g52">
		<path
   class="st0"
   d="M28.9,270.2v9.8c0,1.4,0.1,2.7,0.2,3.6c0.1,2,1.3,3,3.2,3c1.2,0,2.2-0.6,2.7-1.4c0.6-0.8,0.6-1.5,0.6-5.3    v-16.2c-2.2,1.3-3.9,1.8-6.2,1.8c-7,0-10.9-4.1-10.9-11.2v-20.5c0-5,0-5.9,0.6-8.4c1.3-5.7,6.1-9,13.2-9c4.6,0,8.4,1.4,10.8,4    c1.2,1.3,2,3,2.5,5c0.6,2.5,0.6,3.3,0.6,8.4v44.6v3.4c0,1.8-0.2,3.5-0.6,5c-1.3,5.7-6.1,9.1-13.1,9.1c-4.6,0-8.4-1.5-10.7-4    c-1.2-1.4-2.1-3-2.6-5c-0.5-2.5-0.6-3.3-0.6-8.4v-8.4H28.9z M35.5,228.8c-0.1-2-1.3-3.2-3.2-3.2c-1.2,0-2.2,0.6-2.7,1.4    c-0.6,0.9-0.7,1.8-0.7,5.4v16.9c0,2,0.1,2.8,0.1,3.6c0.2,2.1,1.4,3.2,3.3,3.2c1.2,0,2.2-0.6,2.7-1.4c0.5-0.8,0.6-1.9,0.6-5.5    v-16.8C35.6,230.8,35.6,229.6,35.5,228.8z"
   id="path24"
   style="fill:#ffffff" />
		<path
   class="st0"
   d="M68.4,242.2v-9.8c0-1.4,0-2.7-0.1-3.5c-0.1-2-1.3-3.2-3.2-3.2c-1.2,0-2.2,0.6-2.8,1.4    c-0.5,0.9-0.6,1.5-0.6,5.4v16.1c2.3-1.2,4-1.6,6.3-1.6c6.9,0,10.9,4,10.9,11.1v20.5c0,5.2,0,6-0.6,8.4c-1.3,5.9-6.1,9.1-13.2,9.1    c-4.6,0-8.4-1.5-10.8-4c-1.2-1.4-2-3.2-2.5-5.2c-0.6-2.3-0.6-3.3-0.6-8.4v-44.6v-3.3c0-1.9,0.2-3.5,0.6-5.2c1.3-5.7,6.1-9,13.1-9    c4.6,0,8.4,1.4,10.7,4c1.2,1.3,2.1,3,2.6,5c0.5,2.3,0.6,3.5,0.6,8.4v8.3H68.4z M61.9,283.5c0.2,2.1,1.4,3.2,3.3,3.2    c1.2,0,2.2-0.6,2.7-1.4c0.6-0.8,0.6-1.8,0.6-5.3v-16.9v-3.7c-0.2-2-1.4-3.2-3.3-3.2c-1.2,0-2.2,0.6-2.7,1.4    c-0.6,0.9-0.7,2-0.7,5.5V280C61.7,281.5,61.9,282.7,61.9,283.5z"
   id="path26"
   style="fill:#ffffff" />
		<path
   class="st0"
   d="M84.8,286.2h9.8v9h-9.8V286.2z"
   id="path28"
   style="fill:#ffffff" />
		<path
   class="st0"
   d="M100.5,217.1h25.5v9.4h-15.1v20.3c2.5-1.6,4.2-2.1,6.8-2.1c6.6,0,10.4,4,10.4,11v22.8c0,5.2-0.1,6-0.7,8.4    c-1.2,5.9-6,9.1-13.1,9.1c-4.6,0-8.4-1.5-10.7-4c-1.2-1.4-2.1-3.2-2.5-5.2c-0.6-2.3-0.7-3.3-0.7-8.4v-8.2h10.4v9.7    c0,1.5,0,2.8,0.1,3.5c0.1,2,1.4,3.2,3.2,3.2c1.2,0,2.3-0.6,2.8-1.4c0.5-0.8,0.6-1.9,0.6-5.3v-18.9c0-2.1,0-2.8-0.1-3.7    c-0.2-2-1.4-3-3.3-3c-2.5,0-3.3,1.3-3.3,5.7v2.1h-10.4V217.1z"
   id="path30"
   style="fill:#ffffff" />
		<path
   class="st0"
   d="M134.1,217.1h21.1v9.4h-10.7v24.4h10.7v9.3h-10.7v35.1h-10.4V217.1z"
   id="path32"
   style="fill:#ffffff" />
		<path
   class="st0"
   d="M159.2,217.1h14.1l5.3,41l5.2-41h13.8v78.1h-9.6V245l-6.1,50.3h-6.9l-6.2-49.8v49.8h-9.5V217.1z"
   id="path34"
   style="fill:#ffffff" />
		<path
   class="st2"
   d="M210.3,252.4h16.3v15h-16.3V252.4z"
   id="path36" />
		<path
   class="st0"
   d="M258.5,270.2v9.8c0,1.4,0.1,2.7,0.2,3.6c0.1,2,1.3,3,3.2,3c1.2,0,2.2-0.6,2.7-1.4c0.6-0.8,0.6-1.5,0.6-5.3    v-16.2c-2.2,1.3-3.9,1.8-6.2,1.8c-7,0-10.9-4.1-10.9-11.2v-20.5c0-5,0-5.9,0.6-8.4c1.3-5.7,6.1-9,13.2-9c4.6,0,8.4,1.4,10.8,4    c1.2,1.3,2,3,2.5,5c0.6,2.5,0.6,3.3,0.6,8.4v44.6v3.4c0,1.8-0.2,3.5-0.6,5c-1.3,5.7-6.1,9.1-13.1,9.1c-4.6,0-8.4-1.5-10.7-4    c-1.2-1.4-2.1-3-2.6-5c-0.5-2.5-0.6-3.3-0.6-8.4v-8.4H258.5z M265,228.8c-0.1-2-1.3-3.2-3.2-3.2c-1.2,0-2.2,0.6-2.7,1.4    c-0.6,0.9-0.7,1.8-0.7,5.4v16.9c0,2,0.1,2.8,0.1,3.6c0.2,2.1,1.4,3.2,3.3,3.2c1.2,0,2.2-0.6,2.7-1.4c0.5-0.8,0.6-1.9,0.6-5.5    v-16.8C265.2,230.8,265.2,229.6,265,228.8z"
   id="path38"
   style="fill:#ffffff" />
		<path
   class="st0"
   d="M291.3,270.2v9.8c0,1.4,0.1,2.7,0.2,3.6c0.1,2,1.3,3,3.2,3c1.2,0,2.2-0.6,2.7-1.4c0.6-0.8,0.6-1.5,0.6-5.3    v-16.2c-2.2,1.3-3.9,1.8-6.2,1.8c-7,0-10.9-4.1-10.9-11.2v-20.5c0-5,0-5.9,0.6-8.4c1.3-5.7,6.1-9,13.2-9c4.6,0,8.4,1.4,10.8,4    c1.2,1.3,2,3,2.5,5c0.6,2.5,0.6,3.3,0.6,8.4v44.6v3.4c0,1.8-0.2,3.5-0.6,5c-1.3,5.7-6.1,9.1-13.1,9.1c-4.6,0-8.4-1.5-10.7-4    c-1.2-1.4-2.1-3-2.6-5c-0.5-2.5-0.6-3.3-0.6-8.4v-8.4H291.3z M297.8,228.8c-0.1-2-1.3-3.2-3.2-3.2c-1.2,0-2.2,0.6-2.7,1.4    c-0.6,0.9-0.7,1.8-0.7,5.4v16.9c0,2,0.1,2.8,0.1,3.6c0.2,2.1,1.4,3.2,3.3,3.2c1.2,0,2.2-0.6,2.7-1.4c0.5-0.8,0.6-1.9,0.6-5.5    v-16.8C298,230.8,298,229.6,297.8,228.8z"
   id="path40"
   style="fill:#ffffff" />
		<path
   class="st0"
   d="M314.4,286.2h9.8v9h-9.8V286.2z"
   id="path42"
   style="fill:#ffffff" />
		<path
   class="st0"
   d="M340.5,280c0,2.3,0,2.6,0.1,3.5c0.2,2.1,1.3,3.2,3.2,3.2c1.2,0,2.3-0.6,2.8-1.4c0.5-0.8,0.6-1.9,0.6-5.3    v-13.4c0-6-1.5-7.5-7.5-7.5l-0.9,0.1v-8.9c6.4-0.2,8.4-1.9,8.4-7.3v-10.7c0-1.6,0-2.8-0.1-3.6c-0.2-2-1.4-3.2-3.3-3.2    c-1.1,0-2.2,0.6-2.7,1.4c-0.5,0.9-0.6,1.6-0.6,5.4v11.1h-10.4v-9.7c0-5.2,0.1-6,0.7-8.4c1.3-5.5,6.6-9,13.2-9    c4.5,0,8.3,1.4,10.5,4c1.2,1.3,2.1,3,2.5,5c0.6,2.5,0.7,3.3,0.7,8.4v8.9c0,7.3-1.3,9.8-6.3,12.3c4.9,2.2,6.3,4.9,6.3,12.1v11.4    c0,5.2-0.1,6-0.7,8.4c-1.2,5.9-6,9.1-13.1,9.1c-4.6,0-8.4-1.5-10.7-4c-1.2-1.4-2.1-3.2-2.5-5.2c-0.6-2.3-0.7-3.3-0.7-8.4v-10.8    h10.4V280z"
   id="path44"
   style="fill:#ffffff" />
		<path
   class="st0"
   d="M363.7,217.1h21.1v9.4h-10.7v24.4h10.7v9.3h-10.7v35.1h-10.4V217.1z"
   id="path46"
   style="fill:#ffffff" />
		<path
   class="st0"
   d="M388.8,217.1h14.1l5.3,41l5.2-41h13.8v78.1h-9.6V245l-6.1,50.3h-6.9l-6.2-49.8v49.8h-9.5V217.1z"
   id="path48"
   style="fill:#ffffff" />
		<path
   class="st2"
   d="M439.9,252.4h16.3v15h-16.3V252.4z"
   id="path50" />
	</g>
	<path
   class="st2"
   d="M439.9,252.4h16.3v15h-16.3V252.4z"
   id="path54" />
	<path
   class="st0"
   d="M488,270.2v9.8c0,1.4,0.1,2.7,0.2,3.6c0.1,2,1.3,3,3.2,3c1.2,0,2.2-0.6,2.7-1.4c0.6-0.8,0.6-1.5,0.6-5.3v-16.2   c-2.2,1.3-3.9,1.8-6.2,1.8c-7,0-10.9-4.1-10.9-11.2v-20.5c0-5,0-5.9,0.6-8.4c1.3-5.7,6.1-9,13.2-9c4.6,0,8.4,1.4,10.8,4   c1.2,1.3,2,3,2.5,5c0.6,2.5,0.6,3.3,0.6,8.4v44.6v3.4c0,1.8-0.2,3.5-0.6,5c-1.3,5.7-6.1,9.1-13.1,9.1c-4.6,0-8.4-1.5-10.7-4   c-1.2-1.4-2.1-3-2.6-5c-0.5-2.5-0.6-3.3-0.6-8.4v-8.4H488z M494.6,228.8c-0.1-2-1.3-3.2-3.2-3.2c-1.2,0-2.2,0.6-2.7,1.4   c-0.6,0.9-0.7,1.8-0.7,5.4v16.9c0,2,0.1,2.8,0.1,3.6c0.2,2.1,1.4,3.2,3.3,3.2c1.2,0,2.2-0.6,2.7-1.4c0.5-0.8,0.6-1.9,0.6-5.5v-16.8   C494.7,230.8,494.7,229.6,494.6,228.8z"
   id="path56"
   style="fill:#ffffff" />
	<path
   class="st0"
   d="M520.8,270.2v9.8c0,1.4,0.1,2.7,0.2,3.6c0.1,2,1.3,3,3.2,3c1.2,0,2.2-0.6,2.7-1.4c0.6-0.8,0.6-1.5,0.6-5.3   v-16.2c-2.2,1.3-3.9,1.8-6.2,1.8c-7,0-10.9-4.1-10.9-11.2v-20.5c0-5,0-5.9,0.6-8.4c1.3-5.7,6.1-9,13.2-9c4.6,0,8.4,1.4,10.8,4   c1.2,1.3,2,3,2.5,5c0.6,2.5,0.6,3.3,0.6,8.4v44.6v3.4c0,1.8-0.2,3.5-0.6,5c-1.3,5.7-6.1,9.1-13.1,9.1c-4.6,0-8.4-1.5-10.7-4   c-1.2-1.4-2.1-3-2.6-5c-0.5-2.5-0.6-3.3-0.6-8.4v-8.4H520.8z M527.4,228.8c-0.1-2-1.3-3.2-3.2-3.2c-1.2,0-2.2,0.6-2.7,1.4   c-0.6,0.9-0.7,1.8-0.7,5.4v16.9c0,2,0.1,2.8,0.1,3.6c0.2,2.1,1.4,3.2,3.3,3.2c1.2,0,2.2-0.6,2.7-1.4c0.5-0.8,0.6-1.9,0.6-5.5v-16.8   C527.5,230.8,527.5,229.6,527.4,228.8z"
   id="path58"
   style="fill:#ffffff" />
	<path
   class="st0"
   d="M543.9,286.2h9.8v9h-9.8V286.2z"
   id="path60"
   style="fill:#ffffff" />
	<path
   class="st0"
   d="M570,270.2v9.8c0,1.4,0.1,2.7,0.2,3.6c0.1,2,1.3,3,3.2,3c1.2,0,2.2-0.6,2.7-1.4c0.6-0.8,0.6-1.5,0.6-5.3v-16.2   c-2.2,1.3-3.9,1.8-6.2,1.8c-7,0-10.9-4.1-10.9-11.2v-20.5c0-5,0-5.9,0.6-8.4c1.3-5.7,6.1-9,13.2-9c4.6,0,8.4,1.4,10.8,4   c1.2,1.3,2,3,2.5,5c0.6,2.5,0.6,3.3,0.6,8.4v44.6v3.4c0,1.8-0.2,3.5-0.6,5c-1.3,5.7-6.1,9.1-13.1,9.1c-4.6,0-8.4-1.5-10.7-4   c-1.2-1.4-2.1-3-2.6-5c-0.5-2.5-0.6-3.3-0.6-8.4v-8.4H570z M576.6,228.8c-0.1-2-1.3-3.2-3.2-3.2c-1.2,0-2.2,0.6-2.7,1.4   c-0.6,0.9-0.7,1.8-0.7,5.4v16.9c0,2,0.1,2.8,0.1,3.6c0.2,2.1,1.4,3.2,3.3,3.2c1.2,0,2.2-0.6,2.7-1.4c0.5-0.8,0.6-1.9,0.6-5.5v-16.8   C576.7,230.8,576.7,229.6,576.6,228.8z"
   id="path62"
   style="fill:#ffffff" />
	<path
   class="st0"
   d="M593.2,217.1h10.4v33.7h6.2v-33.7h10.4v78.1h-10.4v-35.1h-6.2v35.1h-10.4V217.1z"
   id="path64"
   style="fill:#ffffff" />
	<path
   class="st0"
   d="M627.1,217.1h13.7c4.7,0,8,1.2,10.4,3.6c2.5,2.6,3,5,3,13V279c0,11.8-3.7,16.3-13.9,16.3h-13.2V217.1z    M638.5,285.9c4.5,0,5.4-1.1,5.4-5.6v-48.2c0-4.6-0.9-5.5-5.4-5.6h-0.9v59.4H638.5z"
   id="path66"
   style="fill:#ffffff" />
	<path
   class="st0"
   d="M659.8,245.3v-11.5v-3.4c0-1.8,0.2-3.5,0.6-5c1.3-5.7,6.1-9,13.1-9c4.6,0,8.4,1.4,10.7,4c1.3,1.3,2.1,3,2.6,5   c0.4,1.6,0.6,3.3,0.6,5v3.4v7c0,6.9-0.8,9.6-4.7,15.2l-8.3,12.3c-3.5,5.2-4.3,7.6-4.3,11.8v5.6h17v9.4h-27.8v-16.6   c0-5.6,0.9-8.1,5.2-14.3l8.7-12.7c3.4-4.9,3.8-6.2,3.8-11.6v-7.6c0-1.6,0-2.8-0.1-3.6c-0.1-2-1.3-3.2-3.2-3.2   c-1.2,0-2.2,0.6-2.7,1.4c-0.6,0.9-0.7,1.8-0.7,5.4v12.9H659.8z"
   id="path68"
   style="fill:#ffffff" />
</g>
</svg>