<?xml version="1.0" encoding="UTF-8" standalone="no"?>
<svg
   xmlns:dc="http://purl.org/dc/elements/1.1/"
   xmlns:cc="http://creativecommons.org/ns#"
   xmlns:rdf="http://www.w3.org/1999/02/22-rdf-syntax-ns#"
   xmlns:svg="http://www.w3.org/2000/svg"
   xmlns="http://www.w3.org/2000/svg"
   xmlns:sodipodi="http://sodipodi.sourceforge.net/DTD/sodipodi-0.dtd"
   xmlns:inkscape="http://www.inkscape.org/namespaces/inkscape"
   id="svg_logo_1920s"
   viewBox="0 0 206.23 148.55"
   data-name="Layer 1"
   version="1.1"
   sodipodi:docname="1920s Radio Network 90.3-HD2.svg"
   inkscape:version="0.92.4 (5da689c313, 2019-01-14)">
  <metadata
     id="metadata51">
    <rdf:RDF>
      <cc:Work
         rdf:about="">
        <dc:format>image/svg+xml</dc:format>
        <dc:type
           rdf:resource="http://purl.org/dc/dcmitype/StillImage" />
      </cc:Work>
    </rdf:RDF>
  </metadata>
  <sodipodi:namedview
     pagecolor="#ffffff"
     bordercolor="#666666"
     borderopacity="1"
     objecttolerance="10"
     gridtolerance="10"
     guidetolerance="10"
     inkscape:pageopacity="0"
     inkscape:pageshadow="2"
     inkscape:window-width="640"
     inkscape:window-height="480"
     id="namedview49"
     showgrid="false"
     inkscape:zoom="1.5886906"
     inkscape:cx="103.115"
     inkscape:cy="74.275002"
     inkscape:window-x="0"
     inkscape:window-y="0"
     inkscape:window-maximized="0"
     inkscape:current-layer="svg_logo_1920s" />
  <defs
     id="defs4">
    <style
       id="style2">.fe7739c1-5965-42a6-b4f5-4e3bfedf782e{fill:#5f6369;}.a2350f1a5-4871-4d60-984c-e5399a63f81e{fill:#d4d6d8;}.a1be55a73-a524-4569-b5a5-cc3fc4961c0f{fill:#86bbe6;}</style>
  </defs>
  <title
     id="title6">WHRO-Radio-Network-CMYK_clipped</title>
  <path
     class="fe7739c1-5965-42a6-b4f5-4e3bfedf782e"
     d="M 5.39 32.91 H 6.83 A 2.21 2.21 0 0 1 9.31 35.4 V 56.78 H 4.45 V 40.72 H 0 v -3.5 A 5.69 5.69 0 0 0 5.39 32.91 Z"
     id="path8"
     style="fill:#ffffff" />
  <path
     class="fe7739c1-5965-42a6-b4f5-4e3bfedf782e"
     d="M 11.86 40.86 c 0 -5 3.43 -8.33 8.61 -8.33 c 6.62 0 9.1 4.66 9.1 11.69 c 0 7.42 -2.66 12.85 -9.63 12.85 c -4.13 0 -7.18 -2.49 -7.39 -6.16 H 16.1 a 1.51 1.51 0 0 1 1.33 0.73 a 3.39 3.39 0 0 0 3 1.58 c 3 0 3.85 -2.83 4 -6.2 a 6.94 6.94 0 0 1 -4.66 1.64 C 15.09 48.66 11.86 45.55 11.86 40.86 Z m 5 -0.14 c 0.14 2.7 1.37 4 3.75 4 s 3.68 -1.4 3.78 -4 c 0 -3 -1.37 -4.52 -3.92 -4.52 C 18.17 36.27 17 37.74 16.87 40.72 Z"
     id="path10"
     style="fill:#ffffff" />
  <path
     class="fe7739c1-5965-42a6-b4f5-4e3bfedf782e"
     d="M 32 38.65 c 0.81 -4.1 3.61 -6.13 8.33 -6.13 c 5.39 0 8.16 2.49 8.4 7.56 a 7.34 7.34 0 0 1 -1.37 4.24 c -0.91 1.26 -3.36 3.29 -7.39 6 a 3.69 3.69 0 0 0 -1.89 2.21 h 10.4 v 4.17 H 31.32 A 13.24 13.24 0 0 1 33 50.83 a 14 14 0 0 1 4.45 -4.37 a 49 49 0 0 0 5.08 -3.68 A 3.85 3.85 0 0 0 43.79 40 c 0.14 -2.38 -1.05 -3.57 -3.5 -3.68 s -3.85 1.68 -3.82 5 H 33.81 C 32.27 41.35 31.67 40.44 32 38.65 Z"
     id="path12"
     style="fill:#ffffff" />
  <path
     class="fe7739c1-5965-42a6-b4f5-4e3bfedf782e"
     d="M 68.5 44.81 Q 68.65 57 59.6 57.06 c -6 0 -9 -4.13 -8.82 -12.32 s 3 -12.22 8.82 -12.22 S 68.39 36.62 68.5 44.81 Z m -12.71 -0.07 c -0.1 5.6 1.16 8.4 3.82 8.4 s 4 -2.77 3.92 -8.33 s -1.37 -8.4 -3.92 -8.4 S 55.79 39.18 55.79 44.74 Z"
     id="path14"
     style="fill:#ffffff" />
  <path
     class="fe7739c1-5965-42a6-b4f5-4e3bfedf782e"
     d="M 78.68 53.35 c 2 0 2.94 -0.56 2.94 -1.75 c 0 -0.95 -1.61 -1.72 -4.8 -2.28 c -4.1 -0.74 -6.2 -2.56 -6.23 -5.46 c 0 -4 3.15 -5.88 7.39 -6 a 9.24 9.24 0 0 1 5.67 1.58 A 5.89 5.89 0 0 1 85.86 44 H 82.92 a 2 2 0 0 1 -2.07 -1.15 c -0.31 -0.81 -1.26 -1.26 -2.8 -1.26 c -1.82 0 -2.73 0.49 -2.73 1.44 s 1.19 1.68 3.61 2.14 c 3.15 0.63 5.22 1.44 6.23 2.38 a 4.6 4.6 0 0 1 1.29 3.29 c 0 4.55 -3.57 6.23 -8.47 6.23 c -2.59 0 -4.55 -0.56 -5.81 -1.64 a 5.62 5.62 0 0 1 -2.1 -4.8 h 4.76 C 74.93 52.65 76.4 53.35 78.68 53.35 Z"
     id="path16"
     style="fill:#ffffff" />
  <path
     class="a2350f1a5-4871-4d60-984c-e5399a63f81e"
     d="M 0.37 86.7 C 0.69 73.2 7.88 66.48 21.86 66.48 h 1.5 v 10.9 H 19.81 C 14 77.38 11 80.46 11 86.55 v 21.72 H 0.37 Z"
     id="path18"
     style="fill:#ffffff" />
  <path
     class="a2350f1a5-4871-4d60-984c-e5399a63f81e"
     d="M 39.08 77.38 H 28.58 c 1.26 -7.74 6.71 -11.53 16.35 -11.53 c 11.53 0 17.38 3.79 17.62 11.53 V 91.6 c 0 11.53 -7 16.67 -18.25 17.46 c -10 0.79 -17 -3.87 -17 -13.11 c 0.24 -10 7.5 -12.72 18.09 -13.75 c 4.5 -0.55 6.79 -1.9 6.79 -4.19 c -0.24 -2.37 -2.45 -3.55 -6.79 -3.55 C 41.69 74.46 39.63 75.41 39.08 77.38 Z M 52.35 91.13 V 87.26 A 45.52 45.52 0 0 1 44 89.78 c -4.19 0.79 -6.32 2.77 -6.32 5.85 c 0.24 3.32 2 4.9 5.29 4.9 C 48.8 100.53 52.35 97.05 52.35 91.13 Z"
     id="path20"
     style="fill:#ffffff" />
  <path
     class="a2350f1a5-4871-4d60-984c-e5399a63f81e"
     d="M 106.15 59.85 V 90.18 c 0 12.56 -6.56 18.8 -19.59 18.72 c -13 -0.24 -19.43 -7.27 -19.43 -21.17 c 0 -14.22 5.53 -21.49 16.67 -21.88 a 13.16 13.16 0 0 1 11.93 6.48 V 54.55 h 5.21 A 5.33 5.33 0 0 1 106.15 59.85 Z M 77.95 87.26 C 77.87 95.71 80.71 100 86.72 100 s 9 -4.27 9 -12.72 c -0.24 -8.06 -3.16 -12 -8.85 -12 S 78.26 79.2 77.95 87.26 Z"
     id="path22"
     style="fill:#ffffff" />
  <path
     class="a2350f1a5-4871-4d60-984c-e5399a63f81e"
     d="M 116.34 54.55 c 3.48 0 5.13 1.74 5.06 5.13 v 3.08 H 110.89 V 54.55 Z m 0 11.93 c 3.4 0 5.06 1.66 5.06 5.06 v 36.73 H 110.89 V 66.48 Z"
     id="path24"
     style="fill:#ffffff" />
  <path
     class="a2350f1a5-4871-4d60-984c-e5399a63f81e"
     d="M 165 87.57 c 0 14.38 -6.4 21.64 -19 21.64 s -19 -7.27 -19 -21.64 c 0 -14.53 6.32 -21.72 19 -21.72 S 165 73 165 87.57 Z m -27.33 0 c 0.08 8.14 2.84 12.24 8.21 12.24 s 8.06 -4.27 8.14 -12.56 c 0 -8.14 -2.69 -12.16 -8.06 -12.16 C 140.44 75.09 137.67 79.28 137.67 87.57 Z"
     id="path26"
     style="fill:#ffffff" />
  <path
     class="fe7739c1-5965-42a6-b4f5-4e3bfedf782e"
     d="M 0.07 148.14 v -29.6 H 6.26 l 7.87 17.55 h 0.08 V 118.54 h 5.17 v 29.6 H 14 L 5.32 129 H 5.23 v 19.11 Z"
     id="path28"
     style="fill:#ffffff" />
  <path
     class="fe7739c1-5965-42a6-b4f5-4e3bfedf782e"
     d="M 24.79 148.14 v -29.6 h 15.5 v 5 H 30.45 v 6.81 H 38 v 5 h -7.5 v 7.79 H 40.7 v 5 Z"
     id="path30"
     style="fill:#ffffff" />
  <path
     class="fe7739c1-5965-42a6-b4f5-4e3bfedf782e"
     d="M 62.43 118.54 v 5 h -6.6 v 24.6 H 50.17 v -24.6 h -6.6 v -5 Z"
     id="path32"
     style="fill:#ffffff" />
  <path
     class="fe7739c1-5965-42a6-b4f5-4e3bfedf782e"
     d="M 64.19 118.54 h 5.25 l 4 19.35 h 0.08 l 4.06 -19.35 H 83 l 4.1 19.35 h 0.08 l 3.94 -19.35 h 5.29 l -6.48 29.6 H 84.49 l -4.14 -20.25 h -0.08 l -4.47 20.25 H 70.38 Z"
     id="path34"
     style="fill:#ffffff" />
  <path
     class="fe7739c1-5965-42a6-b4f5-4e3bfedf782e"
     d="M 99.45 128.05 c 0 -7.3 3.85 -9.92 9.35 -9.92 s 9.35 2.62 9.35 9.92 v 10.58 c 0 7.3 -3.85 9.92 -9.35 9.92 s -9.35 -2.62 -9.35 -9.92 Z m 5.66 11.32 c 0 3.28 1.43 4.18 3.69 4.18 s 3.69 -0.9 3.69 -4.18 V 127.32 c 0 -3.28 -1.43 -4.18 -3.69 -4.18 s -3.69 0.9 -3.69 4.18 Z"
     id="path36"
     style="fill:#ffffff" />
  <path
     class="fe7739c1-5965-42a6-b4f5-4e3bfedf782e"
     d="M 136 148.14 l -4.92 -12.05 H 128.4 v 12.05 h -5.66 v -29.6 h 8.2 c 6.81 0 10 3.28 10 8.86 c 0 3.69 -1.31 6.35 -4.47 7.54 l 5.58 13.2 Z m -7.63 -16.73 h 2.91 c 2.5 0 4 -1.23 4 -4.1 s -1.52 -4.1 -4 -4.1 H 128.4 Z"
     id="path38"
     style="fill:#ffffff" />
  <path
     class="fe7739c1-5965-42a6-b4f5-4e3bfedf782e"
     d="M 145.54 148.14 v -29.6 h 5.66 v 12.22 h 0.08 l 7.34 -12.22 h 6.19 l -7.63 11.93 l 8.49 17.67 h -6.36 l -5.9 -12.42 l -2.21 3.36 v 9.06 Z"
     id="path40"
     style="fill:#ffffff" />
  <path
     class="bigLeaf a1be55a73-a524-4569-b5a5-cc3fc4961c0f"
     d="M 191.63 17.36 c -9.32 0 -42.42 -0.16 -42.42 -0.16 q -9.19 0 -15.8 7.34 a 25.93 25.93 0 0 0 -6.66 17.73 l 0.06 26.48 s 6.06 -7 12.52 -9.22 C 149.51 56 179.59 58 179.59 58 h 4.08 q 9.2 0 15.8 -7.35 a 25.85 25.85 0 0 0 6.65 -17.73 l 0.1 -19.66 S 200.94 17.39 191.63 17.36 Z"
     id="path42" />
  <path
     class="leftLeaf a1be55a73-a524-4569-b5a5-cc3fc4961c0f"
     d="M 125.61 38.39 v -12 a 12 12 0 0 0 -12 -12 h -12 v 12 a 12 12 0 0 0 12 12 h 12 Z M 120.26 33 h -6.65 a 6.66 6.66 0 0 1 -6.66 -6.65 V 19.72 h 6.65 a 6.66 6.66 0 0 1 6.66 6.66 Z"
     id="path44" />
  <path
     class="topLeaf a1be55a73-a524-4569-b5a5-cc3fc4961c0f"
     d="M 134.62 15.4 h -7.7 V 7.71 h 0 a 7.69 7.69 0 0 1 7.7 -7.7 h 7.7 V 7.7 h 0 a 7.71 7.71 0 0 1 -7.7 7.7 Z"
     id="path46" />
</svg>
