<?xml version="1.0" encoding="UTF-8" standalone="no"?>
<svg
   xmlns:dc="http://purl.org/dc/elements/1.1/"
   xmlns:cc="http://creativecommons.org/ns#"
   xmlns:rdf="http://www.w3.org/1999/02/22-rdf-syntax-ns#"
   xmlns:svg="http://www.w3.org/2000/svg"
   xmlns="http://www.w3.org/2000/svg"
   xmlns:sodipodi="http://sodipodi.sourceforge.net/DTD/sodipodi-0.dtd"
   xmlns:inkscape="http://www.inkscape.org/namespaces/inkscape"
   id="svg_logo_whrv"
   viewBox="0 0 256.07 107.11"
   data-name="Layer 1"
   version="1.1"
   sodipodi:docname="89.5 WHRV.svg"
   inkscape:version="0.92.4 (5da689c313, 2019-01-14)">
  <metadata
     id="metadata33">
    <rdf:RDF>
      <cc:Work
         rdf:about="">
        <dc:format>image/svg+xml</dc:format>
        <dc:type
           rdf:resource="http://purl.org/dc/dcmitype/StillImage" />
      </cc:Work>
    </rdf:RDF>
  </metadata>
  <sodipodi:namedview
     pagecolor="#ffffff"
     bordercolor="#666666"
     borderopacity="1"
     objecttolerance="10"
     gridtolerance="10"
     guidetolerance="10"
     inkscape:pageopacity="0"
     inkscape:pageshadow="2"
     inkscape:window-width="640"
     inkscape:window-height="480"
     id="namedview31"
     showgrid="false"
     inkscape:zoom="1.3668137"
     inkscape:cx="128.035"
     inkscape:cy="53.555"
     inkscape:window-x="0"
     inkscape:window-y="0"
     inkscape:window-maximized="0"
     inkscape:current-layer="svg_logo_whrv" />
  <defs
     id="defs4">
    <style
       id="style2">.f158afc1-12b1-446c-9344-66b1246e4b16{fill:#5f6369;} .a68e601c2-22fd-4643-bfb7-c8277ab8b133{fill:#d4d6d8;} .a149a7c61-dde7-485b-8258-e9e5c701aef9{fill:#c6d92d;}</style>
  </defs>
  <title
     id="title6">WHRO-NPR-No-Tag-CMYK_clipped_2</title>
  <path
     class="f158afc1-12b1-446c-9344-66b1246e4b16"
     d="M 57.9 65 L 46.29 106.78 H 35.39 L 29.07 76.84 l -6.64 29.94 h -11 L 0 65 H 10.66 L 17.3 94 l 6 -29 H 34.44 l 5.69 29 l 5.69 -25.12 A 4.93 4.93 0 0 1 51 65 Z"
     id="path8"
     style="fill:#ffffff" />
  <path
     class="f158afc1-12b1-446c-9344-66b1246e4b16"
     d="M 82.24 73.76 c -6.24 0 -8.93 5.21 -8.93 11.61 v 21.41 H 62.8 V 53.06 H 68.1 c 3.48 0 5.21 1.82 5.21 5.29 V 70.84 c 5.37 -6.16 11.93 -7.9 19.75 -5.13 q 8.77 3.2 8.29 16.83 v 24.25 H 90.93 V 85.37 C 90.93 78.34 88.24 73.76 82.24 73.76 Z"
     id="path10"
     style="fill:#ffffff" />
  <path
     class="f158afc1-12b1-446c-9344-66b1246e4b16"
     d="M 106.73 85.21 C 107 71.7 114.23 65 128.21 65 h 1.5 v 10.9 h -3.55 c -5.85 0 -8.77 3.08 -8.77 9.16 v 21.72 H 106.73 Z"
     id="path12"
     style="fill:#ffffff" />
  <path
     class="f158afc1-12b1-446c-9344-66b1246e4b16"
     d="M 174.43 65 l -14.77 41.79 H 148.52 L 133.82 65 h 11.61 l 8.45 29.31 l 7.27 -25.59 A 5 5 0 0 1 166.29 65 Z"
     id="path14"
     style="fill:#ffffff" />
  <path
     class="a68e601c2-22fd-4643-bfb7-c8277ab8b133"
     d="M 197 83.8 a 7.28 7.28 0 0 1 -3.78 6.43 c 3.06 1.39 4.54 3.87 4.54 7.38 c 0 6.34 -3.83 9.49 -11.43 9.49 c -7.42 -0.14 -11.16 -3.29 -11.16 -9.49 a 7.68 7.68 0 0 1 4.59 -7.38 c -2.65 -0.9 -4 -3.1 -4 -6.61 c 0.36 -5.31 3.91 -8 10.71 -8 C 193.52 75.65 197 78.35 197 83.8 Z M 181.64 97.25 c -0.14 3.15 1.48 4.73 4.9 4.73 s 5 -1.58 4.86 -4.73 s -1.75 -4.59 -4.86 -4.59 S 181.77 94.19 181.64 97.25 Z m 0.45 -13 c 0 2.48 1.44 3.69 4.41 3.69 S 191 86.72 191 84.25 s -1.62 -3.69 -4.41 -3.69 S 182.27 81.77 182.09 84.25 Z"
     id="path16"
     style="fill:#ffffff" />
  <path
     class="a68e601c2-22fd-4643-bfb7-c8277ab8b133"
     d="M 200.23 86.27 c 0 -6.39 4.41 -10.71 11.07 -10.71 c 8.5 0 11.7 6 11.7 15 c 0 9.54 -3.42 16.51 -12.37 16.51 c -5.31 0 -9.22 -3.2 -9.5 -7.92 h 4.54 a 1.94 1.94 0 0 1 1.71 0.94 a 4.36 4.36 0 0 0 3.91 2 c 3.87 0 4.95 -3.64 5.13 -8 a 8.92 8.92 0 0 1 -6 2.11 C 204.36 96.31 200.23 92.3 200.23 86.27 Z m 6.43 -0.18 c 0.18 3.46 1.75 5.17 4.81 5.17 s 4.72 -1.8 4.86 -5.08 c 0 -3.87 -1.75 -5.8 -5 -5.8 C 208.32 80.38 206.79 82.27 206.66 86.09 Z"
     id="path18"
     style="fill:#ffffff" />
  <path
     class="a68e601c2-22fd-4643-bfb7-c8277ab8b133"
     d="M 230.78 101.93 v 4.72 h -5.08 v -3 c 0 -1.17 0.63 -1.75 1.93 -1.75 Z"
     id="path20"
     style="fill:#ffffff" />
  <path
     class="a68e601c2-22fd-4643-bfb7-c8277ab8b133"
     d="M 244.41 90.73 a 4.91 4.91 0 0 0 -4.23 2.2 l -5.62 -0.31 l 2 -16.56 h 14.94 c 2.11 0 3.15 1.08 3.15 3.19 v 2.11 H 241 l -0.85 5.94 a 9.37 9.37 0 0 1 5.08 -1.58 c 7.2 0 10.8 3.46 10.8 10.3 q 0 10.73 -11.74 11.07 c -6.84 0 -10.48 -3.1 -10.84 -9.31 h 6.16 c 0 2.92 1.62 4.36 4.68 4.36 q 5.26 0 5.27 -5.8 C 249.59 92.62 247.88 90.73 244.41 90.73 Z"
     id="path22"
     style="fill:#ffffff" />
  <path
     class="bigLeaf a149a7c61-dde7-485b-8258-e9e5c701aef9"
     d="M 169.74 17.64 c -9.47 0 -43.09 -0.17 -43.09 -0.17 q -9.33 0 -16.05 7.46 a 26.34 26.34 0 0 0 -6.76 18 l 0.06 26.9 s 6.15 -7.08 12.72 -9.37 c 10.33 -3.6 40.9 -1.56 40.9 -1.56 h 4.14 q 9.34 0 16.05 -7.47 a 26.28 26.28 0 0 0 6.76 -18 l 0.1 -20 S 179.2 17.67 169.74 17.64 Z"
     id="path24" />
  <path
     class="leftLeaf a149a7c61-dde7-485b-8258-e9e5c701aef9"
     d="M 102.67 39 V 26.8 a 12.21 12.21 0 0 0 -12.2 -12.2 H 78.27 V 26.8 A 12.21 12.21 0 0 0 90.47 39 h 12.2 Z m -5.44 -5.44 H 90.48 a 6.77 6.77 0 0 1 -6.77 -6.76 V 20 h 6.75 a 6.76 6.76 0 0 1 6.76 6.76 Z"
     id="path26" />
  <path
     class="topLeaf a149a7c61-dde7-485b-8258-e9e5c701aef9"
     d="M 111.82 15.64 H 104 V 7.83 h 0 A 7.82 7.82 0 0 1 111.83 0 h 7.82 V 7.82 h 0 a 7.83 7.83 0 0 1 -7.82 7.82 Z"
     id="path28" />
</svg>
