<?xml version="1.0" encoding="UTF-8" standalone="no"?>
<svg
   xmlns:dc="http://purl.org/dc/elements/1.1/"
   xmlns:cc="http://creativecommons.org/ns#"
   xmlns:rdf="http://www.w3.org/1999/02/22-rdf-syntax-ns#"
   xmlns:svg="http://www.w3.org/2000/svg"
   xmlns="http://www.w3.org/2000/svg"
   xmlns:sodipodi="http://sodipodi.sourceforge.net/DTD/sodipodi-0.dtd"
   xmlns:inkscape="http://www.inkscape.org/namespaces/inkscape"
   id="svg_logo_altRadio"
   viewBox="0 0 244.18 107.73"
   data-name="Layer 1"
   version="1.1"
   sodipodi:docname="altradio 90.3-HD2.svg"
   inkscape:version="0.92.4 (5da689c313, 2019-01-14)">
  <metadata
     id="metadata33">
    <rdf:RDF>
      <cc:Work
         rdf:about="">
        <dc:format>image/svg+xml</dc:format>
        <dc:type
           rdf:resource="http://purl.org/dc/dcmitype/StillImage" />
      </cc:Work>
    </rdf:RDF>
  </metadata>
  <sodipodi:namedview
     pagecolor="#ffffff"
     bordercolor="#666666"
     borderopacity="1"
     objecttolerance="10"
     gridtolerance="10"
     guidetolerance="10"
     inkscape:pageopacity="0"
     inkscape:pageshadow="2"
     inkscape:window-width="640"
     inkscape:window-height="480"
     id="namedview31"
     showgrid="false"
     inkscape:zoom="1.4333689"
     inkscape:cx="122.09"
     inkscape:cy="53.865002"
     inkscape:window-x="0"
     inkscape:window-y="0"
     inkscape:window-maximized="0"
     inkscape:current-layer="svg_logo_altRadio" />
  <defs
     id="defs4">
    <style
       id="style2">.a934e8cb6-9800-4ad5-965a-53880caef754{fill:#5f6369;}.a3dd0ee25-968f-4a2c-9691-795bea551325{fill:#d4d6d8;}.e518bdf1-39cf-4ebb-aea9-25e2b4d36731{fill:#bfd22b;}</style>
  </defs>
  <title
     id="title6">WHRO-Alt-Radio-CMYK_clipped</title>
  <path
     class="a934e8cb6-9800-4ad5-965a-53880caef754"
     d="M 11.77 75.89 H 1.26 C 2.53 68.15 8 64.36 17.62 64.36 c 11.53 0 17.38 3.79 17.62 11.53 V 90.11 c 0 11.53 -7 16.67 -18.25 17.46 C 7 108.36 0 103.7 0 94.45 c 0.24 -10 7.5 -12.72 18.09 -13.75 c 4.5 -0.55 6.79 -1.9 6.79 -4.19 C 24.65 74.15 22.43 73 18.09 73 C 14.38 73 12.32 73.92 11.77 75.89 Z M 25 89.64 V 85.76 a 45.52 45.52 0 0 1 -8.37 2.53 c -4.19 0.79 -6.32 2.77 -6.32 5.85 c 0.24 3.32 2 4.9 5.29 4.9 C 21.49 99 25 95.56 25 89.64 Z"
     id="path8"
     style="fill:#ffffff" />
  <path
     class="a934e8cb6-9800-4ad5-965a-53880caef754"
     d="M 52.37 58.2 v 48.58 H 41.87 V 53.06 h 5.45 A 5.16 5.16 0 0 1 52.37 58.2 Z"
     id="path10"
     style="fill:#ffffff" />
  <path
     class="a934e8cb6-9800-4ad5-965a-53880caef754"
     d="M 69.91 72.49 H 68.81 V 95.64 c 0 1.74 1 2.69 3.08 2.69 h 3.24 v 8 a 57.77 57.77 0 0 1 -11.06 -0.08 c -3.95 -0.39 -5.85 -2.84 -5.77 -7.5 V 53.06 h 5.45 a 5.3 5.3 0 0 1 5.06 5.29 V 65 h 6.32 v 2.29 A 5.11 5.11 0 0 1 69.91 72.49 Z"
     id="path12"
     style="fill:#ffffff" />
  <path
     class="a3dd0ee25-968f-4a2c-9691-795bea551325"
     d="M 79.55 85.21 C 79.87 71.7 87.06 65 101 65 h 1.5 v 10.9 H 99 c -5.85 0 -8.77 3.08 -8.77 9.16 v 21.72 H 79.55 Z"
     id="path14"
     style="fill:#ffffff" />
  <path
     class="a3dd0ee25-968f-4a2c-9691-795bea551325"
     d="M 118.26 75.89 H 107.75 c 1.26 -7.74 6.71 -11.53 16.35 -11.53 c 11.53 0 17.38 3.79 17.62 11.53 V 90.11 c 0 11.53 -7 16.67 -18.25 17.46 c -10 0.79 -17 -3.87 -17 -13.11 c 0.24 -10 7.5 -12.72 18.09 -13.75 c 4.5 -0.55 6.79 -1.9 6.79 -4.19 c -0.24 -2.37 -2.45 -3.55 -6.79 -3.55 C 120.87 73 118.81 73.92 118.26 75.89 Z m 13.27 13.74 V 85.76 a 45.51 45.51 0 0 1 -8.37 2.53 c -4.19 0.79 -6.32 2.77 -6.32 5.85 c 0.24 3.32 2 4.9 5.29 4.9 C 128 99 131.53 95.56 131.53 89.64 Z"
     id="path16"
     style="fill:#ffffff" />
  <path
     class="a3dd0ee25-968f-4a2c-9691-795bea551325"
     d="M 185.33 58.35 V 88.69 c 0 12.56 -6.56 18.8 -19.59 18.72 c -13 -0.24 -19.43 -7.27 -19.43 -21.17 c 0 -14.22 5.53 -21.49 16.67 -21.88 a 13.16 13.16 0 0 1 11.93 6.48 V 53.06 h 5.21 A 5.33 5.33 0 0 1 185.33 58.35 Z m -28.2 27.41 c -0.08 8.45 2.76 12.72 8.77 12.72 s 9 -4.27 9 -12.72 c -0.24 -8.06 -3.16 -12 -8.85 -12 S 157.44 77.71 157.13 85.76 Z"
     id="path18"
     style="fill:#ffffff" />
  <path
     class="a3dd0ee25-968f-4a2c-9691-795bea551325"
     d="M 195.52 53.06 c 3.48 0 5.13 1.74 5.06 5.13 v 3.08 H 190.07 V 53.06 Z m 0 11.93 c 3.4 0 5.06 1.66 5.06 5.06 v 36.73 H 190.07 V 65 Z"
     id="path20"
     style="fill:#ffffff" />
  <path
     class="a3dd0ee25-968f-4a2c-9691-795bea551325"
     d="M 244.18 86.08 c 0 14.38 -6.4 21.64 -19 21.64 s -19 -7.27 -19 -21.64 c 0 -14.53 6.32 -21.72 19 -21.72 S 244.18 71.55 244.18 86.08 Z m -27.33 0 c 0.08 8.14 2.84 12.24 8.21 12.24 s 8.06 -4.27 8.14 -12.56 c 0 -8.14 -2.69 -12.16 -8.06 -12.16 C 219.61 73.6 216.85 77.79 216.85 86.08 Z"
     id="path22"
     style="fill:#ffffff" />
  <path
     class="bigLeaf e518bdf1-39cf-4ebb-aea9-25e2b4d36731"
     d="M 144.9 17.64 c -9.47 0 -43.09 -0.17 -43.09 -0.17 q -9.33 0 -16.05 7.46 a 26.34 26.34 0 0 0 -6.76 18 l 0.06 26.9 s 6.15 -7.08 12.72 -9.37 c 10.33 -3.6 40.9 -1.56 40.9 -1.56 h 4.14 q 9.34 0 16.05 -7.47 a 26.28 26.28 0 0 0 6.76 -18 l 0.1 -20 S 154.36 17.67 144.9 17.64 Z"
     id="path24" />
  <path
     class="leftLeaf e518bdf1-39cf-4ebb-aea9-25e2b4d36731"
     d="M 77.83 39 V 26.8 a 12.21 12.21 0 0 0 -12.2 -12.2 H 53.43 V 26.8 A 12.21 12.21 0 0 0 65.63 39 h 12.2 Z m -5.44 -5.44 H 65.64 a 6.77 6.77 0 0 1 -6.77 -6.76 V 20 h 6.75 a 6.76 6.76 0 0 1 6.76 6.76 Z"
     id="path26" />
  <path
     class="topLeaf e518bdf1-39cf-4ebb-aea9-25e2b4d36731"
     d="M 87 15.64 H 79.16 V 7.83 h 0 A 7.82 7.82 0 0 1 87 0 H 94.8 V 7.82 h 0 A 7.83 7.83 0 0 1 87 15.64 Z"
     id="path28" />
</svg>
