<?xml version="1.0" encoding="UTF-8" standalone="no"?>
<svg
   xmlns:dc="http://purl.org/dc/elements/1.1/"
   xmlns:cc="http://creativecommons.org/ns#"
   xmlns:rdf="http://www.w3.org/1999/02/22-rdf-syntax-ns#"
   xmlns:svg="http://www.w3.org/2000/svg"
   xmlns="http://www.w3.org/2000/svg"
   xmlns:sodipodi="http://sodipodi.sourceforge.net/DTD/sodipodi-0.dtd"
   xmlns:inkscape="http://www.inkscape.org/namespaces/inkscape"
   id="svg_logo_whro"
   viewBox="0 0 257.25 106.22"
   data-name="Layer 1"
   version="1.1"
   sodipodi:docname="WHRO 90.3.svg"
   inkscape:version="0.92.4 (5da689c313, 2019-01-14)">
  <metadata
     id="metadata33">
    <rdf:RDF>
      <cc:Work
         rdf:about="">
        <dc:format>image/svg+xml</dc:format>
        <dc:type
           rdf:resource="http://purl.org/dc/dcmitype/StillImage" />
      </cc:Work>
    </rdf:RDF>
  </metadata>
  <sodipodi:namedview
     pagecolor="#ffffff"
     bordercolor="#666666"
     borderopacity="1"
     objecttolerance="10"
     gridtolerance="10"
     guidetolerance="10"
     inkscape:pageopacity="0"
     inkscape:pageshadow="2"
     inkscape:window-width="640"
     inkscape:window-height="480"
     id="namedview31"
     showgrid="false"
     inkscape:zoom="1.3605442"
     inkscape:cx="128.625"
     inkscape:cy="53.110001"
     inkscape:window-x="0"
     inkscape:window-y="0"
     inkscape:window-maximized="0"
     inkscape:current-layer="svg_logo_whro" />
  <defs
     id="defs4">
    <style
       id="style2">.a64ee4aa5-ff32-4f99-bbd8-dc2725719497{fill:#d4d6d8;}.ecd54173-4703-47ef-ab52-c7f70021a4df{fill:#5f6369;}.a3042e5f7-4fe8-48a3-a6e1-bafe791c0d32{fill:#86bbe6;}</style>
  </defs>
  <title
     id="title6">WHRO-90.3-Classical_No-Tag-CMYK_clipped</title>
  <path
     class="a64ee4aa5-ff32-4f99-bbd8-dc2725719497"
     d="M 176.2 84.77 c 0 -6.39 4.41 -10.71 11.07 -10.71 c 8.5 0 11.7 6 11.7 15 c 0 9.54 -3.42 16.51 -12.37 16.51 c -5.31 0 -9.22 -3.2 -9.49 -7.92 h 4.54 a 1.94 1.94 0 0 1 1.71 0.94 a 4.37 4.37 0 0 0 3.92 2 c 3.87 0 4.95 -3.64 5.13 -8 a 8.92 8.92 0 0 1 -6 2.11 C 180.35 94.8 176.2 90.79 176.2 84.77 Z m 6.44 -0.18 c 0.18 3.46 1.75 5.17 4.81 5.17 s 4.72 -1.8 4.86 -5.08 c 0 -3.87 -1.75 -5.8 -5 -5.8 C 184.3 78.87 182.77 80.76 182.64 84.59 Z"
     id="path8"
     style="fill:#ffffff" />
  <path
     class="a64ee4aa5-ff32-4f99-bbd8-dc2725719497"
     d="M 224.17 89.85 q 0.2 15.73 -11.43 15.75 c -7.74 0 -11.52 -5.31 -11.34 -15.84 s 3.83 -15.7 11.34 -15.7 S 224 79.32 224.17 89.85 Z m -16.33 -0.09 c -0.13 7.2 1.48 10.8 4.9 10.8 s 5.09 -3.55 5 -10.71 s -1.75 -10.8 -5 -10.8 S 207.84 82.61 207.84 89.76 Z"
     id="path10"
     style="fill:#ffffff" />
  <path
     class="a64ee4aa5-ff32-4f99-bbd8-dc2725719497"
     d="M 232 100.42 v 4.72 h -5.08 v -3 c 0 -1.17 0.63 -1.75 1.93 -1.75 Z"
     id="path12"
     style="fill:#ffffff" />
  <path
     class="a64ee4aa5-ff32-4f99-bbd8-dc2725719497"
     d="M 249.78 82.83 c 0 -2.56 -1.3 -3.87 -4.1 -3.87 s -4.27 1.62 -4.41 4.9 H 238 q -3.17 0.07 -2.29 -3.24 c 1.3 -4.41 4.68 -6.57 10.17 -6.57 c 6.66 0 10.08 2.7 10.21 8.32 a 5.93 5.93 0 0 1 -3.78 6.07 c 3.29 1.17 4.9 3.55 4.9 7.2 c 0 6.57 -3.82 9.9 -11.56 9.94 s -11.38 -3.42 -11 -10.21 h 6.07 q 0.07 5.2 5 5.13 c 3.29 0 5 -1.53 5 -4.59 s -2 -4.63 -6 -4.68 h -0.95 V 87.06 h 0.67 C 247.8 87.06 249.78 85.94 249.78 82.83 Z"
     id="path14"
     style="fill:#ffffff" />
  <path
     class="ecd54173-4703-47ef-ab52-c7f70021a4df"
     d="M 57.9 63.48 L 46.29 105.27 H 35.39 L 29.07 75.33 l -6.64 29.94 h -11 L 0 63.48 H 10.66 l 6.64 29 l 6 -29 H 34.44 l 5.69 29 l 5.69 -25.12 A 4.93 4.93 0 0 1 51 63.48 Z"
     id="path16"
     style="fill:#ffffff" />
  <path
     class="ecd54173-4703-47ef-ab52-c7f70021a4df"
     d="M 82.24 72.25 c -6.24 0 -8.93 5.21 -8.93 11.61 v 21.41 H 62.8 V 51.55 H 68.1 c 3.48 0 5.21 1.82 5.21 5.29 V 69.33 c 5.37 -6.16 11.93 -7.9 19.75 -5.13 q 8.77 3.2 8.29 16.83 v 24.25 H 90.93 V 83.86 C 90.93 76.83 88.24 72.25 82.24 72.25 Z"
     id="path18"
     style="fill:#ffffff" />
  <path
     class="ecd54173-4703-47ef-ab52-c7f70021a4df"
     d="M 106.73 83.7 c 0.32 -13.51 7.5 -20.22 21.49 -20.22 h 1.5 v 10.9 h -3.55 c -5.85 0 -8.77 3.08 -8.77 9.16 v 21.72 H 106.73 Z"
     id="path20"
     style="fill:#ffffff" />
  <path
     class="ecd54173-4703-47ef-ab52-c7f70021a4df"
     d="M 172.3 84.57 c 0 14.38 -6.4 21.64 -19 21.64 s -19 -7.27 -19 -21.64 c 0 -14.53 6.32 -21.72 19 -21.72 S 172.3 70 172.3 84.57 Z m -27.33 0 c 0.08 8.14 2.84 12.24 8.21 12.24 s 8.06 -4.27 8.14 -12.56 c 0 -8.14 -2.69 -12.16 -8.06 -12.16 C 147.73 72.09 145 76.28 145 84.57 Z"
     id="path22"
     style="fill:#ffffff" />
  <path
     class="bigLeaf a3042e5f7-4fe8-48a3-a6e1-bafe791c0d32"
     d="M 169 17.36 c -9.32 0 -42.42 -0.16 -42.42 -0.16 q -9.19 0 -15.8 7.34 a 25.93 25.93 0 0 0 -6.66 17.73 l 0.06 26.48 s 6.06 -7 12.52 -9.22 C 126.93 56 157 58 157 58 h 4.08 q 9.2 0 15.8 -7.35 a 25.85 25.85 0 0 0 6.65 -17.73 l 0.1 -19.66 S 178.36 17.39 169 17.36 Z"
     id="path24" />
  <path
     class="leftLeaf a3042e5f7-4fe8-48a3-a6e1-bafe791c0d32"
     d="M 103 38.39 v -12 a 12 12 0 0 0 -12 -12 H 79 v 12 a 12 12 0 0 0 12 12 h 12 Z M 97.67 33 H 91 a 6.66 6.66 0 0 1 -6.66 -6.65 V 19.72 H 91 a 6.66 6.66 0 0 1 6.66 6.66 Z"
     id="path26" />
  <path
     class="topLeaf a3042e5f7-4fe8-48a3-a6e1-bafe791c0d32"
     d="M 112 15.4 h -7.7 V 7.71 h 0 A 7.69 7.69 0 0 1 112 0 h 7.7 V 7.7 h 0 a 7.71 7.71 0 0 1 -7.7 7.7 Z"
     id="path28" />
</svg>
