<svg width="111px" height="54px" viewBox="0 0 111 54" version="1.1" xmlns="http://www.w3.org/2000/svg" xmlns:xlink="http://www.w3.org/1999/xlink">
    <!-- Generator: Sketch 51.3 (57544) - http://www.bohemiancoding.com/sketch -->
    <desc>Created with Sketch.</desc>
    <defs/>
    <g id="Desktop" stroke="none" stroke-width="1" fill="none" fill-rule="evenodd">
        <g id="Home-player-1---Desktop" transform="translate(-513.000000, -1033.000000)">
            <g id="Group-44" transform="translate(513.000000, 1033.000000)">
                <path d="M96.0146744,20.4961989 C96.0146744,18.659612 95.3300264,17.7973728 94.2117384,16.6889054 C93.7514584,16.2322533 89.3993704,11.9175359 88.9390904,11.4608837 C87.8208024,10.3524163 86.9514504,9.67330761 85.0987864,9.67330761 C83.4749304,9.67330761 82.8231384,10.3524163 81.7051464,11.4608837 C81.5695784,11.5952967 80.7742264,12.3841663 79.6029544,13.5454598 C82.8228424,16.7379163 88.9029784,22.7662533 92.1166504,25.9528402 C93.2852584,24.7938946 94.0764664,24.0094272 94.2117384,23.8753076 C95.3300264,22.7668402 96.0146744,22.1208946 96.0146744,20.5105793" id="Fill-1" fill="#9DC31A"/>
                <polygon id="Fill-3" fill="#EA7A02" points="68.54472 42.6087293 68.545608 42.6087293 68.36712 42.4323489"/>
                <g id="Group-43" transform="translate(0.000000, 0.022891)">
                    <path d="M67.0887552,25.9298609 C71.4742912,21.5813935 81.1970032,11.941513 81.7052352,11.4379043 C82.8229312,10.3297304 83.4744272,9.65032826 85.0988752,9.65032826 L74.1066192,9.65032826 C72.2539552,9.65032826 71.3846032,10.3297304 70.2666112,11.4379043 C69.8057392,11.89485 65.4542432,16.2092739 64.9936672,16.6662196 C63.8756752,17.7743935 63.1907312,18.6366326 63.1907312,20.4732196 L63.1907312,20.4876 C63.1907312,22.0979152 63.8756752,22.7441543 64.9936672,23.8526217 C65.1289392,23.9867413 65.9201472,24.7712087 67.0887552,25.9298609" id="Fill-4" fill="#D8D325"/>
                    <path d="M94.2117976,23.8524457 C93.7041576,24.3557609 83.9923976,33.9850761 79.6030136,38.3370652 C80.7751736,39.4998261 81.5696376,40.2872283 81.7052056,40.4216413 C82.8229016,41.5301087 83.4749896,42.2092174 85.0988456,42.2092174 C86.9515096,42.2092174 87.8208616,41.5301087 88.9391496,40.4216413 L94.2117976,35.193913 C95.3297896,34.0851522 96.0147336,33.222913 96.0147336,31.3863261 L96.0147336,20.4874239 C96.0147336,22.0977391 95.3297896,22.7439783 94.2117976,23.8524457" id="Fill-6" fill="#D8D325"/>
                    <path d="M81.7052056,40.421788 C81.0617016,39.7837663 65.6371416,24.4903207 64.9936376,23.8525924 C63.8756456,22.744125 63.1907016,22.0978859 63.1907016,20.4875707 L63.1907016,31.3864728 C63.1907016,33.2230598 63.8756456,34.0852989 64.9936376,35.1937663 C65.4542136,35.6504185 69.8060056,39.9648424 70.2665816,40.421788 C71.3845736,41.5302554 72.2542216,42.2093641 74.1065896,42.2093641 L85.0988456,42.2093641 C83.4749896,42.2093641 82.8231976,41.5302554 81.7052056,40.421788" id="Fill-8" fill="#9DC31A"/>
                    <path d="M61.776384,35.9019587 C61.04852,35.0890239 60.00512,34.6238609 58.908736,34.6238609 L42.861096,34.6238609 C42.861096,34.6238609 38.007584,39.8733065 38.390608,41.2690891 C38.422576,41.3477413 38.461056,41.4246326 38.507232,41.4994696 C39.045952,42.377263 40.15536,42.5859261 41.025304,42.5859261 L62.9006278,42.5859261 L62.900592,40.1808717 C62.900592,38.6134043 62.923976,37.0406543 61.775496,35.9019587 L61.776384,35.9019587 Z" id="Fill-10" fill="#9DC31A"/>
                    <path d="M62.9005328,40.1809011 L62.9005328,53.7064337 L70.9887328,53.7064337 L70.9887328,47.5645207 C70.9887328,45.9970533 70.8581968,44.907075 69.5483968,43.6084337 L61.7751408,35.901988 C62.9239168,37.0403902 62.9005328,38.6134337 62.9005328,40.1809011" id="Fill-12" fill="#D8D325"/>
                    <path d="M56.706792,9.6504163 C50.116056,16.1873511 38.475264,27.689938 37.691752,28.467362 C36.635624,29.5141989 33.1594,32.7078293 34.318536,34.596362 C36.116736,37.5255685 38.45484,41.4068185 38.45484,41.4068185 C37.644096,40.2666554 42.861096,34.6236554 42.861096,34.6236554 C42.861096,34.6236554 59.919576,17.6576772 68.043,9.6504163 L56.706792,9.6504163 Z" id="Fill-14" fill="#D8D325"/>
                    <g id="Group-18">
                        <polygon id="Clip-17" points="5.92e-05 0.270586957 5.2377792 0.270586957 5.2377792 19.0883198 5.92e-05 19.0883198"/>
                        <path d="M0.9333472,18.3666326 C1.6768992,19.1035565 2.2890272,19.0882957 3.3122992,19.0882957 L5.2377792,19.0883198 L5.2377792,0.270469565 L5.92e-05,0.270469565 L5.92e-05,15.8039804 C5.92e-05,16.8194152 0.0844192,17.524937 0.9327552,18.3660457 L0.9333472,18.3666326 Z" id="Fill-16" fill="#D8D325"/>
                    </g>
                    <path d="M11.8668472,19.0884424 L3.3124472,19.0884424 C2.2885832,19.0884424 1.6764552,19.1037033 0.9329032,18.3661924 L5.9660872,23.3570837 C6.8147192,24.1981924 7.5265992,24.2818337 8.5504632,24.2818337 L17.1078232,24.2818337 L11.8668472,19.0884424 Z" id="Fill-19" fill="#9DC31A"/>
                    <path d="M39.5096064,12.9724141 L39.5096064,20.9975772 C39.5096064,22.0127185 39.5167104,22.6196315 38.7728624,23.3568489 L43.8069344,18.3662511 C44.1730864,18.0175989 44.4095904,17.5277837 44.4095904,16.9845554 C44.4095904,16.4348707 44.1807824,15.9397728 43.8069344,15.5905337 L38.7867744,10.6128489 C39.5303264,11.3503598 39.5096064,11.9572728 39.5096064,12.9724141" id="Fill-21" fill="#D8D325"/>
                    <g id="Group-25" transform="translate(32.560000, 0.000000)">
                        <polygon id="Clip-24" points="0.106152215 0.270586957 7.9682312 0.270586957 7.9682312 5.46383152 0.106152215 5.46383152"/>
                        <path d="M3.4187112,0.270440217 C2.3948472,0.270440217 1.6829672,0.354375 0.8346312,1.19519022 C0.0910792,1.93270109 0.1061752,2.53961413 0.1061752,3.55475543 L0.106152215,5.46383152 L7.9682312,5.46383152 L7.9682312,0.270440217 L3.4187112,0.270440217" id="Fill-23" fill="#9DC31A"/>
                    </g>
                    <path d="M30.7406064,9.6707837 C30.8080944,9.6707837 31.6478464,9.67137065 32.6660864,9.67225109 L32.6660864,3.55469674 C32.6660864,2.53955543 32.6509904,1.93293587 33.3945424,1.195425 L28.3607664,6.18602283 C27.9946144,6.534675 27.7663984,7.02449022 27.7663984,7.56771848 C27.7663984,8.11329457 27.9969824,8.60487065 28.3663904,8.9538163 C29.1075744,9.68545761 29.7194064,9.6707837 30.7406064,9.6707837" id="Fill-26" fill="#D8D325"/>
                    <path d="M39.5096064,12.9722674 C39.5096064,11.9574196 39.5303264,11.3505065 38.7870704,10.6132891 L38.7728624,10.5994957 C37.9248224,9.75838696 37.5243344,9.67474565 36.5004704,9.67474565 C36.0783744,9.67474565 30.9116944,9.67063696 30.7406064,9.67063696 C29.7167424,9.67063696 29.1049104,9.68589783 28.3607664,8.94838696 L33.3945424,13.9392783 C34.2428784,14.780387 35.3679744,14.8640283 35.7900704,14.8640283 C36.0111824,14.8640283 37.9704064,14.8654957 39.5096642,14.8666696 L39.5096064,12.9722674 Z" id="Fill-28" fill="#9DC31A"/>
                    <path d="M38.7730696,23.3569076 C39.5169176,22.6193967 39.5095176,22.0124837 39.5095176,20.9973424 L39.509519,19.0885598 L31.6749896,19.0885598 L26.4349016,24.2819511 L36.1892856,24.2819511 C37.2128536,24.2819511 37.9250296,24.1980163 38.7730696,23.3569076" id="Fill-30" fill="#9DC31A"/>
                    <path d="M24.1014152,9.59811848 C24.1014152,8.32266196 23.0580152,7.28873804 21.7698232,7.28873804 C20.4822232,7.28873804 19.4385272,8.32266196 19.4385272,9.59811848 L19.4379352,9.59811848 L19.4379352,12.3130859 L24.1020072,12.3130859 L24.1020072,9.59811848 L24.1014152,9.59811848 Z" id="Fill-32" fill="#9DC31A"/>
                    <path d="M19.4385568,21.7429239 C19.4385568,23.0183804 20.4825488,24.0523043 21.7698528,24.0523043 C23.0577488,24.0523043 24.1014448,23.0183804 24.1014448,21.7429239 L24.1020368,21.7429239 L24.1020368,19.0279565 L19.4382608,19.0279565 L19.4382608,21.7429239 L19.4385568,21.7429239 Z" id="Fill-34" fill="#9DC31A"/>
                    <path d="M28.3986248,12.9941902 L23.7611928,8.3962663 C23.9701688,8.7352337 24.0933048,9.13142935 24.1007048,9.55579891 C24.1012968,9.57017935 24.1018888,9.5842663 24.1018888,9.59805978 L24.1018888,10.7041793 L24.1021848,15.6704185 L24.1018888,20.2504402 L24.1018888,21.7427772 C24.1018888,21.7595054 24.1012968,21.7765272 24.1007048,21.7935489 C24.0915288,22.2146902 23.9686888,22.6079511 23.7611928,22.9445707 L28.3986248,18.3466467 C28.3986248,18.3466467 29.3396088,17.3925489 29.3396088,15.6704185 C29.3396088,13.948288 28.3986248,12.9941902 28.3986248,12.9941902" id="Fill-36" fill="#D8D325"/>
                    <path d="M19.4382608,21.7429239 L19.4382608,20.6368043 L19.4379648,15.6705652 L19.4379648,11.0905435 L19.4379648,9.59820652 L19.4382608,9.59820652 C19.4382608,9.58147826 19.4385568,9.56445652 19.4391488,9.54743478 C19.4483248,9.12629348 19.5711648,8.73303261 19.7786608,8.39641304 L15.1409328,12.994337 C15.1409328,12.994337 14.2008368,13.9484348 14.2008368,15.6705652 C14.2008368,17.3926957 15.1409328,18.3467935 15.1409328,18.3467935 L19.7786608,22.9447174 C19.5696848,22.60575 19.4465488,22.2095543 19.4391488,21.7851848 C19.4385568,21.7708043 19.4382608,21.7567174 19.4382608,21.7429239" id="Fill-38" fill="#D8D325"/>
                    <g id="Group-42" transform="translate(73.704000, 45.782609)">
                        <polygon id="Clip-41" points="0.0855144 0.179579348 37.200688 0.179579348 37.200688 7.91419891 0.0855144 7.91419891"/>
                        <path d="M0.0855144,0.179579348 L0.0855144,7.74486196 L3.1035304,7.74486196 C5.6204184,7.74486196 7.2830504,6.2093837 7.2830504,3.96222065 C7.2830504,1.71535109 5.6204184,0.179579348 3.1035304,0.179579348 L0.0855144,0.179579348 Z M1.9648184,6.13014457 L1.9648184,1.79429674 L3.0354504,1.79429674 C4.4586184,1.79429674 5.3927944,2.65242717 5.3927944,3.96222065 C5.3927944,5.27201413 4.4586184,6.13014457 3.0354504,6.13014457 L1.9648184,6.13014457 Z M14.9251784,2.07662283 L13.1030024,2.07662283 L13.1030024,2.52828587 C12.6587064,2.13297065 12.0664104,1.90728587 11.3261144,1.90728587 C9.8111864,1.90728587 8.5357224,3.12668804 8.5357224,4.91074239 C8.5357224,6.70624239 9.8111864,7.91419891 11.3261144,7.91419891 C12.0664104,7.91419891 12.6587064,7.68851413 13.1030024,7.29319891 L13.1030024,7.74486196 L14.9251784,7.74486196 L14.9251784,2.07662283 Z M11.7017384,6.37872065 C10.9049064,6.37872065 10.3238584,5.79147065 10.3238584,4.91074239 C10.3238584,4.0411663 10.9049064,3.44276413 11.7017384,3.44276413 C12.4420344,3.44276413 13.1030024,4.0411663 13.1030024,4.91074239 C13.1030024,5.79147065 12.4420344,6.37872065 11.7017384,6.37872065 Z M20.3914104,1.90728587 C19.6742024,1.90728587 19.0703624,2.16701413 18.6373144,2.61867717 L18.6373144,2.07662283 L16.8154344,2.07662283 L16.8154344,7.74486196 L18.6373144,7.74486196 L18.6373144,5.11412283 C18.6373144,4.01856848 19.1044024,3.53315543 19.8222024,3.53315543 C20.4029544,3.53315543 20.8013704,3.98481848 20.8013704,4.65101413 L20.8013704,7.74486196 L22.6122984,7.74486196 L22.6122984,4.26714457 C22.6122984,2.84436196 21.7240024,1.90728587 20.3914104,1.90728587 Z M27.1674424,6.333525 C26.3478184,6.333525 25.8008104,5.746275 25.8008104,4.91074239 C25.8008104,4.08636196 26.3478184,3.48795978 27.1674424,3.48795978 C27.7481944,3.48795978 28.2152824,3.80403587 28.3745304,4.49282935 L30.0830424,4.08636196 C29.7642504,2.75397065 28.5571624,1.90728587 27.1674424,1.90728587 C25.4595224,1.90728587 24.0470104,3.12668804 24.0470104,4.91074239 C24.0470104,6.70624239 25.4595224,7.91419891 27.1674424,7.91419891 C28.5912024,7.91419891 29.7985864,7.0449163 30.0830424,5.70107935 L28.4091624,5.33980761 C28.2152824,6.02860109 27.7481944,6.333525 27.1674424,6.333525 Z M37.2009544,4.91074239 C37.1663224,3.05889457 35.8683624,1.90728587 34.2513144,1.90728587 C32.5886824,1.90728587 31.2214584,3.12668804 31.2214584,4.91074239 C31.2214584,6.70624239 32.5886824,7.91419891 34.2397704,7.91419891 C35.5495704,7.91419891 36.5858664,7.33839457 37.0754504,6.14159022 L35.4581064,5.81406848 C35.1505624,6.367275 34.6612744,6.46911196 34.2397704,6.46911196 C33.6249784,6.46911196 33.1575944,6.05119891 33.0095944,5.37355761 L37.2009544,5.37355761 L37.2009544,4.91074239 Z M34.2513144,3.37497065 C34.7749384,3.37497065 35.2304824,3.65729674 35.4015704,4.26714457 L33.0439304,4.26714457 C33.2147224,3.69134022 33.7386424,3.37497065 34.2513144,3.37497065 Z" id="Fill-40" fill="#9DC31A"/>
                    </g>
                </g>
            </g>
        </g>
    </g>
</svg>