<?xml version="1.0" encoding="UTF-8"?> <svg xmlns="http://www.w3.org/2000/svg" xmlns:xlink="http://www.w3.org/1999/xlink" x="0px" y="0px" viewBox="0 0 320 150" style="enable-background:new 0 0 320 150;" xml:space="preserve"> <style type="text/css"> .st0{display:none;} .st1{fill:#F6EC1D;} .st2{opacity:0.5;} .st3{enable-background:new ;} .st4{fill:#3C2415;} .st5{fill:#273776;} .st6{fill:#1D2963;} .st7{fill:#324791;} .st8{fill:#212E6A;} .st9{fill:#202D68;} .st10{fill:#22306C;} .st11{fill:#1E2A64;} .st12{fill:#283879;} .st13{fill:#1E2B65;} .st14{fill:#2A3A7C;} .st15{fill:#30448C;} .st16{fill:#374E9C;} .st17{fill:#324790;} .st18{fill:#FFFFFF;} .st19{fill:#3952A4;} .st20{fill:none;stroke:#00AEEF;stroke-width:1.4662;stroke-miterlimit:10;} </style> <g id="Layer_2" class="st0"> <image style="display:inline;overflow:visible;" width="874" height="399" xlink:href="17C56B4C2E9E28F5.jpg" transform="matrix(0.7748 0 0 0.7748 -178.5874 -123)"> </image> </g> <g id="Layer_1"> <polygon class="st1" points="4.7,2 191.2,20.6 153.5,135 108.6,145.6 "></polygon> <g class="st2"> <g> <g class="st3"> <g> <polygon class="st4" points="7.1,5.9 8.3,6.3 110.2,146.8 109,146.3 "></polygon> </g> <g> <polygon class="st4" points="189.3,23.2 190.4,23.7 8.3,6.3 7.1,5.9 "></polygon> </g> <g> <path class="st4" d="M2,2.9l190.6,18.2l-38.3,116.5L108,149.1l-0.5-0.7L2,2.9z M152.4,135.5l36.9-112.3L7.1,5.9L109,146.3 L152.4,135.5"></path> </g> <g> <polygon class="st4" points="192.5,21.1 193.7,21.5 155.4,138.1 154.3,137.6 "></polygon> </g> <g> <polygon class="st4" points="154.3,137.6 155.4,138.1 109.2,149.6 108,149.1 "></polygon> </g> </g> </g> </g> <g> <g> <g class="st3"> <g> <polygon class="st5" points="6.3,3.9 7.5,4.4 109.4,144.9 108.2,144.4 "></polygon> </g> <g> <polygon class="st6" points="188.5,21.3 189.6,21.8 7.5,4.4 6.3,3.9 "></polygon> </g> <g> <path class="st7" d="M1.2,1l190.6,18.2l-38.3,116.5l-46.2,11.5l-0.5-0.7L1.2,1z M151.5,133.6l36.9-112.3L6.3,3.9l101.9,140.5 L151.5,133.6"></path> </g> <g> <polygon class="st8" points="191.7,19.2 192.9,19.6 154.6,136.1 153.4,135.7 "></polygon> </g> <g> <polygon class="st6" points="153.4,135.7 154.6,136.1 108.4,147.7 107.2,147.2 "></polygon> </g> </g> </g> </g> <g> <g> <g class="st3"> <g> <polygon class="st9" points="23.2,121.5 20.6,123.3 46.1,55 47.3,57.1 "></polygon> </g> <g> <polygon class="st10" points="46.1,55 46.7,54.3 282.9,56.3 282.2,57 "></polygon> </g> <g> <polygon class="st11" points="315.3,88.9 315.9,88.2 282.5,137.5 281.8,138.2 "></polygon> </g> <g> <polygon class="st12" points="282.3,43.3 283,42.6 315.9,88.2 315.3,88.9 "></polygon> </g> <g> <polygon class="st11" points="283.7,131.9 281.8,138.2 281.9,125 283.7,123.2 "></polygon> </g> <g> <polygon class="st13" points="283.7,123.2 281.9,125 20.6,123.3 23.2,121.5 "></polygon> </g> <g> <polygon class="st14" points="312.7,89.1 315.3,88.9 281.8,138.2 283.7,131.9 "></polygon> </g> <g> <polygon class="st15" points="47.3,57.1 46.1,55 282.2,57 284,59.1 "></polygon> </g> <g> <polygon class="st11" points="284,59.1 282.2,57 282.3,43.3 284,49.4 "></polygon> </g> <g> <polygon class="st16" points="284,49.4 282.3,43.3 315.3,88.9 312.7,89.1 "></polygon> </g> <g> <polygon class="st17" points="284,49.4 312.7,89.1 283.7,131.9 283.7,123.2 23.2,121.5 47.3,57.1 284,59.1 "></polygon> </g> </g> </g> </g> <g> <path class="st18" d="M53.5,67.9h17v18.2l13.6-18.2h20.1L86.7,89.3l18.9,22.4H84.9L70.5,92.2v19.5h-17V67.9z"></path> <path class="st18" d="M113.5,67.9h24c8.1,0,15-0.3,19.7,2.1c4.7,2.3,6.6,7.5,6.6,11.6c0,4.9-1.8,10.7-14.6,12.6l14.2,17.5h-18.7 l-11.6-17.2H131v17.2h-17.5V67.9z M131,87h4.8c3.4,0,5.7-0.4,6.9-1.2c1.2-0.8,1.9-2,1.9-3.5c0-3.1-2.4-4.7-7.1-4.7H131V87z"></path> </g> <path class="st18" d="M173,67.9h24c8.1,0,15-0.3,19.7,2.1c4.7,2.3,6.6,7.5,6.6,11.6c0,4.9-1.8,10.7-14.6,12.6l14.2,17.5h-18.7 l-11.6-17.2h-2.2v17.2H173V67.9z M190.5,87h4.8c3.4,0,5.7-0.4,6.9-1.2c1.2-0.8,1.9-2,1.9-3.5c0-3.1-2.4-4.7-7.1-4.7h-6.5V87z"></path> <path class="st18" d="M232.8,67.9h24c8.1,0,15-0.3,19.7,2.1c4.7,2.3,6.6,7.5,6.6,11.6c0,4.9-1.8,10.7-14.6,12.6l14.2,17.5H264 l-11.6-17.2h-2.2v17.2h-17.5V67.9z M250.3,87h4.8c3.4,0,5.7-0.4,6.9-1.2c1.2-0.8,1.9-2,1.9-3.5c0-3.1-2.4-4.7-7.1-4.7h-6.5V87z"></path> <g> <image style="overflow:visible;" width="494" height="113" xlink:href="17C56B4C2E9E28F7.png" transform="matrix(0.24 0 0 0.24 51.4243 25.7043)"> </image> <g> <g> <path class="st19" d="M51.6,27h9.7c-0.1,1.6,0.1,3.3,0,5.1c-0.1,1.9,0,3.7,0,5.4c0,1.9-0.1,3.9,0,6c0.1,2.1-0.1,4,0,5.8h-9.7 c0.1-1.6-0.1-3.3,0-5.2c0.1-1.9,0-3.7,0-5.5c0-1.4,0.1-2.9,0-4.5c-0.1-1.6,0.1-2.1,0-3.4v-1.5V27z"></path> <path class="st19" d="M107.7,27.2h14c-0.1,1-0.1,2.2-0.1,3.5c0,1.3,0,2.5,0,3.6c0,1,0,0.7,0,1.9c0,1.2,0.1,2.2,0.1,3.2h3.5 l-0.1,3.4l0.1,2h-3.5V47v2.6h-9.5v-2.7v-2.2h-18l1.5-1.9l1.4-1.7c0.5-0.6,1.4-2.1,2.6-3.4c1.2-1.3,1.8-2.5,2.7-3.6 c0.9-1.1,1-1.8,2.2-3.2C105.8,29.4,106.9,28.2,107.7,27.2z M107.1,39.8h5.1V37V33l-2.8,3.6L107.1,39.8z"></path> <path class="st19" d="M131.2,45.1c0.3-0.1,0.6-0.1,1-0.1c0.6,0,1.2,0.1,1.8,0.2c0.6,0.2,1.2,0.4,1.8,0.9c0.6,0.4,0.8,1,0.8,1.7 c0,0.1,0,0.4-0.1,0.7c-0.1,0.3-0.3,0.7-0.7,1c-0.4,0.4-0.9,0.6-1.5,0.8c-0.6,0.2-1.3,0.3-2,0.3c-0.5,0-1,0-1.5-0.1 c-0.5-0.1-1.1-0.3-1.8-0.7c-0.7-0.4-1.1-1.1-1.1-2.1c0-1,0.6-1.7,1.9-2.2C130.1,45.3,130.6,45.2,131.2,45.1z"></path> <path class="st19" d="M94.2,34.2c-0.6-1.4-1.5-2.7-2.6-3.9c-1.3-1.3-3-2.2-5.1-2.9c-2.1-0.6-4.4-1-6.9-1c-2.6,0-5.2,0.4-7.6,1.3 c-2.4,0.9-4.2,2-5.5,3.5c-1.2,1.5-2,2.9-2.2,4.1c-0.2,1.2-0.3,2.2-0.3,2.8c0,1.7,0.4,3.4,1.2,5c0.8,1.6,2.1,3,3.8,4 c1.7,1.1,3.5,1.8,5.4,2.3c1.9,0.4,3.8,0.7,5.8,0.7c1.6,0,3.4-0.2,5.4-0.5c2-0.4,3.8-1.2,5.6-2.6c1.7-1.4,2.8-2.7,3.1-3.9 c0.3-1.3,0.6-2.2,0.7-2.8c0.1-0.6,0.1-1.2,0.1-1.7C95,37.1,94.8,35.7,94.2,34.2z M79.8,44.9c-3.7,0-6.7-2.5-6.7-5.7 c0-3.1,3-5.7,6.7-5.7c3.7,0,6.7,2.5,6.7,5.7C86.5,42.3,83.5,44.9,79.8,44.9z"></path> <path class="st19" d="M166.2,32.3c-1-1.8-2.3-3.2-4-4.1c-1.7-0.9-3.4-1.5-5.1-1.8c-1.7-0.3-3.3-0.5-5.1-0.5 c-2.1,0-4.1,0.2-6.1,0.7c-1.9,0.5-3.5,1.1-4.6,1.9c-1.1,0.7-1.8,1.6-2.2,2.5c-0.3,0.9-0.5,1.7-0.5,2.2c0,0.7,0.2,1.9,0.5,2.5 c0.3,0.6,1,1.4,2,2.2c1,0.8,2.5,1.4,4.4,1.8c1.9,0.4,2.9,0.3,5.3,0.3c0.8,0,2.8-0.2,3.6-0.3c2.8-0.4,4-1.6,4-2.1 c-0.1,0.8-0.1,0.5-0.2,1.2c-0.3,1-1.1,2-2,2.7c-0.9,0.7-2.5,1.2-4,1.6c-1.6,0.4-3.2,0.2-4.9,0.2c-0.9,0-2.6,0-3.3-0.1l0.4,5.3 c2.7,0.3,2.3,0.3,4.5,0.3c4,0,7.5-0.7,10.4-2c2.9-1.3,4.9-2.3,6.2-4.1c1.3-1.8,2-3.5,2-5.1C167.7,35.9,167.2,34.1,166.2,32.3z M152.2,36.7c-2.7,0-4.8-1.1-4.8-2.5c0-1.4,2.2-2.5,4.8-2.5c2.7,0,4.8,1.1,4.8,2.5C157.1,35.6,154.9,36.7,152.2,36.7z"></path> </g> </g> </g> <g> <g> <path class="st20" d="M53.5,67.7h17v17.8H71l13.2-17.8h20.1L86.7,89.1l18.9,22.4H84.9L71,92.4h-0.5v19h-17V67.7z"></path> <path class="st20" d="M113.5,67.7h24c8.1,0,15-0.3,19.7,2.1c4.7,2.3,6.6,7.5,6.6,11.6c0,4.9-1.8,10.7-14.6,12.6l14.2,17.5h-18.7 l-11.6-17.2H131v17.2h-17.5V67.7z M131,86.8h4.8c3.4,0,5.7-0.4,6.9-1.2c1.2-0.8,1.9-2,1.9-3.5c0-3.1-2.4-4.7-7.1-4.7H131V86.8z"></path> </g> <path class="st20" d="M173,67.7h24c8.1,0,15-0.3,19.7,2.1c4.7,2.3,6.6,7.5,6.6,11.6c0,4.9-1.8,10.7-14.6,12.6l14.2,17.5h-18.7 l-11.6-17.2h-2.2v17.2H173V67.7z M190.5,86.8h4.8c3.4,0,5.7-0.4,6.9-1.2c1.2-0.8,1.9-2,1.9-3.5c0-3.1-2.4-4.7-7.1-4.7h-6.5V86.8z"></path> <path class="st20" d="M232.8,67.7h24c8.1,0,15-0.3,19.7,2.1c4.7,2.3,6.6,7.5,6.6,11.6c0,4.9-1.8,10.7-14.6,12.6l14.2,17.5H264 l-11.6-17.2h-2.2v17.2h-17.5V67.7z M250.3,86.8h4.8c3.4,0,5.7-0.4,6.9-1.2c1.2-0.8,1.9-2,1.9-3.5c0-3.1-2.4-4.7-7.1-4.7h-6.5V86.8 z"></path> </g> </g> </svg> 