<?xml version="1.0" encoding="UTF-8" standalone="no"?>
<!DOCTYPE svg PUBLIC "-//W3C//DTD SVG 1.1//EN" "http://www.w3.org/Graphics/SVG/1.1/DTD/svg11.dtd">
<svg width="100%" height="100%" viewBox="0 0 742 742" version="1.1" xmlns="http://www.w3.org/2000/svg" xmlns:xlink="http://www.w3.org/1999/xlink" xml:space="preserve" xmlns:serif="http://www.serif.com/" style="fill-rule:evenodd;clip-rule:evenodd;stroke-miterlimit:10;">
    <g id="Layer1">
        <ellipse cx="370.873" cy="370.833" rx="371.569" ry="370.833" style="fill:rgb(238,238,238);"/>
    </g>
    <g id="Layer-1" serif:id="Layer 1" transform="matrix(3.91037,0,0,3.91037,22.8124,22.8107)">
        <g transform="matrix(1,0,0,1,89,178)">
            <path d="M0,-178L0,0C49.153,0 89,-40.455 89,-89C89,-138.355 49.153,-178 0,-178" style="fill:rgb(58,151,211);fill-rule:nonzero;"/>
        </g>
        <g transform="matrix(0,-1,-1,0,89,0)">
            <path d="M-89,-89C-138.154,-89 -178,-49.153 -178,0C-178,49.153 -138.154,89 -89,89C-39.846,89 0,49.153 0,0C0,-49.153 -39.846,-89 -89,-89" style="fill:rgb(31,34,51);fill-rule:nonzero;"/>
        </g>
        <g transform="matrix(1,0,0,1,89,8.8957)">
            <path d="M0,122.993L0,123.799L0.502,123.799C0.51,123.799 0.023,122.993 0,122.993M66.497,52.596L59.923,52.596L53.35,53.406L41.213,63.113L29.077,73.633L29.077,83.34C29.124,89.001 29.187,93.86 29.329,93.86C29.472,93.86 31.241,96.286 33.375,97.906C35.509,100.332 37.579,101.951 38.179,102.765C39.254,103.571 39.602,103.571 49.052,104.377L58.406,105.182L62.704,107.616C64.948,109.228 66.893,110.856 67.003,110.856C67.105,110.856 66.213,111.662 65.233,112.468L63.463,114.08L66.244,117.319C67.737,118.939 69.808,121.365 70.796,122.171L72.313,124.604L72.313,131.889C82.513,118.134 88.612,100.332 89,81.723C89.158,74.443 88.289,67.158 86.725,59.877C86.171,59.877 85.382,59.067 85.208,59.067C84.923,59.067 83.722,59.877 82.427,60.687C81.13,61.497 79.646,63.113 79.392,63.113C79.14,63.113 77.172,62.306 74.588,61.497L69.784,59.881L69.784,57.451C69.823,55.836 69.713,55.022 68.267,53.406L66.497,52.596ZM73.577,49.36C73.056,49.36 71.048,51.786 71.302,52.596C71.436,52.596 72.107,53.406 72.565,53.406L74.083,53.406C74.698,53.406 74.802,53.406 74.588,52.596C74.225,50.976 73.925,49.36 73.577,49.36M65.991,20.232C66.087,20.232 66.497,21.042 66.497,21.042C66.489,21.852 64.704,23.468 62.704,25.088C59.481,27.514 58.896,28.323 57.142,28.323C55.515,28.323 54.614,29.133 52.085,30.749C50.395,32.369 48.886,33.179 48.798,33.989C48.704,33.989 49.446,34.795 50.315,36.414C52.117,38.034 52.101,38.844 50.821,41.269L49.81,42.079L46.775,42.079C45.054,42.079 42.746,42.079 41.719,41.269C39.372,41.269 39.554,41.269 41.466,46.93C44.311,55.022 44.492,55.832 45.006,55.832C45.29,55.832 48.672,52.596 52.591,49.36C56.51,46.125 59.947,42.886 60.177,42.886C60.405,42.886 60.998,43.695 61.693,43.695C62.895,44.505 63.076,43.695 65.233,42.079L67.509,40.46L69.784,42.079C74.904,45.315 75.679,46.125 76.105,48.551C76.769,52.596 77.054,53.406 77.369,53.406C77.686,53.406 80.83,49.36 81.668,48.551C82.079,47.741 81.494,46.93 78.634,42.886C76.848,40.46 75.592,38.034 75.6,37.224C75.6,37.224 75.995,37.224 76.358,36.414C76.832,36.414 77.448,37.224 79.14,38.844C75.6,32.369 71.119,25.897 65.991,20.232M39.949,16.997C39.428,16.997 36.425,22.658 36.409,23.468C36.401,23.468 37.342,25.088 38.432,25.897C39.522,26.707 40.28,27.514 40.454,27.514C40.794,27.514 43.694,24.278 44.247,23.468C44.5,22.658 43.915,21.852 42.478,20.232C41.387,18.613 40.218,16.997 39.949,16.997M48.293,10.522C47.992,10.522 47.241,10.522 45.765,12.141L43.489,14.567L45.006,16.187C45.867,17.803 47.131,18.613 47.787,19.423C49.233,21.038 49.383,21.038 48.04,23.468C47.463,25.084 47.171,25.897 47.281,25.897C47.439,26.703 48.135,26.703 51.074,26.703L55.372,26.703C55.625,26.703 56.194,25.088 56.384,23.468L56.637,21.038L53.603,18.613C50.987,16.187 50.742,16.187 49.81,13.757C49.241,12.141 48.538,10.522 48.293,10.522M19.975,-6.466C19.769,-6.466 21.167,-4.04 23.009,-1.614C25.308,2.43 26.138,4.051 26.548,4.051C27.401,3.241 31.811,0.811 34.892,-1.614C30.23,-4.04 25.269,-5.66 20.228,-6.466L19.975,-6.466ZM0,-8.896L0,-7.28L3.283,-8.086C4.101,-8.896 4.267,-8.896 5.057,-8.896L0,-8.896Z" style="fill:rgb(84,89,112);fill-rule:nonzero;"/>
        </g>
        <g transform="matrix(1,0,0,1,32.1104,86.2231)">
            <path d="M0,1.003C-0.205,1.201 -0.367,2.022 -0.505,2.777L-0.758,4.037L7.08,7.328C14.989,10.362 16.424,10.576 17.699,9.351C18.186,8.884 18.078,8.853 16.941,8.339C16.21,8.007 12.256,5.91 8.092,4.037C3.497,1.983 0.226,0.794 0,1.003M-25.031,-1.77L-28.065,-0.257C-29.681,0.592 -31.379,1.524 -31.857,1.517C-31.889,1.517 -32.067,1.524 -32.11,1.517C-32.169,5.373 -31.774,9.145 -31.352,12.89L-29.582,13.902L-26.801,13.649L-24.02,13.649L-22.25,17.442C-21.313,19.464 -20.333,21.282 -19.974,21.487C-19.614,21.693 -17.209,21.693 -14.917,21.74L-10.871,21.74L-11.125,25.027C-11.191,28.361 -11.081,28.503 -12.895,31.095C-13.934,32.581 -14.672,34.319 -14.664,34.888C-14.656,35.433 -12.665,40.751 -10.366,46.771L-6.32,57.643L-2.022,59.92C1.131,61.531 2.035,62.139 2.023,62.701C2.02,62.89 1.047,68.389 0.506,71.296C8.763,78.108 17.933,83.725 28.318,87.226C37.809,77.476 46.938,67.843 48.297,66.493L50.32,64.47L50.821,59.161C51.268,56.173 51.817,53.416 51.833,53.092C51.849,52.776 53.176,51.402 54.618,49.805C55.934,48.343 56.712,47.103 56.89,46.771L56.89,46.265C56.641,45.958 53.145,43.358 48.55,40.197L39.949,34.382L36.915,34.129C34.837,34.089 33.743,34.003 33.375,33.624C33.067,33.307 32.586,31.505 32.364,29.326C32.146,27.208 31.717,25.216 31.605,25.027C31.495,24.837 29.48,24.822 27.055,24.774C24.629,24.718 22.286,24.459 21.998,24.268C21.674,24.055 21.682,22.38 21.492,20.223C21.322,18.295 20.943,16.652 20.733,16.43C20.524,16.209 17.707,15.861 14.412,15.671C8.949,15.356 7.957,15.339 5.058,14.155L1.771,12.638L-2.527,14.661L-7.079,16.43L-11.883,16.177C-17.37,16.067 -17.039,16.794 -17.698,11.879C-17.924,10.188 -17.998,8.718 -18.204,8.592C-18.409,8.458 -19.618,8.245 -20.732,8.086L-22.755,7.581L-22.502,6.321C-22.475,5.448 -22.443,3.717 -22.25,2.528L-21.997,0.253L-23.261,-1.02L-25.031,-1.77ZM-14.664,-4.551C-15.166,-4.263 -16.288,-0.127 -15.929,0.253C-15.755,0.43 -13.345,0.956 -10.871,1.517C-8.035,2.153 -6.372,2.493 -6.067,2.275C-5.381,1.765 -4.408,-0.873 -4.804,-1.268C-5.301,-1.77 -14.289,-4.781 -14.664,-4.551M-5.309,-10.371C-5.499,-10.256 -5.542,-9.561 -5.562,-8.597C-5.598,-6.922 -5.578,-6.795 -3.792,-5.816C-1.596,-4.619 -1.209,-4.464 -1.517,-5.314C-1.986,-6.618 -4.974,-10.564 -5.309,-10.371M10.62,-73.329C2.877,-68.611 -4.155,-62.669 -10.113,-55.882C-20.4,-44.161 -27.346,-29.662 -30.34,-13.658C-29.084,-13.729 -27.958,-13.962 -25.284,-13.911C-17.639,-13.764 -18.528,-14.045 -15.929,-10.122C-14.479,-7.925 -14.38,-8.008 -12.136,-7.838C-9.461,-7.645 -9.576,-7.775 -10.871,-12.145C-11.377,-13.839 -11.639,-15.498 -11.63,-15.933C-11.622,-16.455 -10.164,-17.719 -7.079,-20.232C-1.928,-24.427 -2.279,-23.791 -3.033,-28.07C-3.191,-28.951 -2.848,-29.733 -1.264,-31.357C0.617,-33.289 0.589,-33.039 2.529,-32.873L4.552,-32.873L4.805,-36.161C4.951,-38.037 5.195,-39.59 5.311,-39.701C5.425,-39.811 10.406,-42.758 16.436,-46.021C22.464,-49.289 27.758,-52.05 28.066,-52.342C28.548,-52.801 27.236,-54.547 20.733,-62.709C16.55,-67.963 13.133,-72.554 12.896,-72.823C12.852,-72.874 11.109,-73.198 10.62,-73.329M56.89,-86.223C48.305,-86.223 39.973,-84.955 32.111,-82.683C32.803,-81.545 33.056,-81.514 33.881,-80.155C38.057,-73.305 38.547,-72.487 39.696,-72.317C40.384,-72.218 42.236,-72.135 43.991,-72.064L47.277,-72.064L49.811,-77.626L52.082,-82.936L56.89,-84.454L56.89,-86.223Z" style="fill:rgb(84,89,112);fill-rule:nonzero;"/>
        </g>
        <g transform="matrix(1,0,0,1,77.0967,119.324)">
            <path d="M0,-65.198C9.001,-65.198 16.3,-57.9 16.3,-48.899C16.3,-39.897 9.001,-32.599 0,-32.599C-9.001,-32.599 -16.3,-39.897 -16.3,-48.899C-16.3,-57.9 -9.001,-65.198 0,-65.198M0,-81.498C-18.005,-81.498 -32.6,-66.904 -32.6,-48.899C-32.6,-43.109 -31.043,-37.693 -28.396,-32.983C-27.956,-32.199 -27.495,-31.429 -26.996,-30.687L0,16.3L26.997,-30.687C27.411,-31.304 27.769,-31.954 28.142,-32.599L28.397,-32.983C31.044,-37.693 32.601,-43.109 32.601,-48.899C32.601,-66.904 18.003,-81.498 0,-81.498" style="fill:rgb(57,181,74);fill-rule:nonzero;"/>
        </g>
        <g transform="matrix(1,0,0,1,77.0967,82.6492)">
            <path d="M0,-24.449C6.753,-24.449 12.225,-18.975 12.225,-12.225C12.225,-5.473 6.753,-0 0,-0C-6.752,-0 -12.225,-5.473 -12.225,-12.225C-12.225,-18.975 -6.752,-24.449 0,-24.449M0,-32.599C-11.252,-32.599 -20.375,-23.476 -20.375,-12.225C-20.375,-0.972 -11.252,8.15 0,8.15C11.254,8.15 20.375,-0.972 20.375,-12.225C20.375,-23.476 11.254,-32.599 0,-32.599" style="fill:rgb(44,148,69);fill-rule:nonzero;"/>
        </g>
        <g transform="matrix(0,-1,-1,0,57.0021,64.6846)">
            <path d="M-25.584,14.505C-14.505,25.583 3.425,25.584 14.505,14.505" style="fill:none;fill-rule:nonzero;stroke:rgb(42,148,69);stroke-width:6.39px;"/>
        </g>
        <g transform="matrix(0.000667408,-1,-1,-0.000667408,54.4786,62.2129)">
            <path d="M-37.262,21.148C-21.134,37.298 5.001,37.297 21.173,21.148" style="fill:none;fill-rule:nonzero;stroke:rgb(42,148,69);stroke-width:6.39px;"/>
        </g>
        <g transform="matrix(0,1,1,0,137.219,64.7228)">
            <path d="M-14.505,-25.584C-3.425,-14.506 14.505,-14.505 25.584,-25.584" style="fill:none;fill-rule:nonzero;stroke:rgb(42,148,69);stroke-width:6.39px;"/>
        </g>
        <g transform="matrix(-0.000667408,1,1,0.000667408,158.1,62.2129)">
            <path d="M-21.162,-37.287C-5.034,-21.137 21.101,-21.138 37.273,-37.287" style="fill:none;fill-rule:nonzero;stroke:rgb(42,148,69);stroke-width:6.39px;"/>
        </g>
    </g>
</svg>
