<?xml version="1.0" encoding="UTF-8" standalone="no"?>
<svg
   xmlns:dc="http://purl.org/dc/elements/1.1/"
   xmlns:cc="http://creativecommons.org/ns#"
   xmlns:rdf="http://www.w3.org/1999/02/22-rdf-syntax-ns#"
   xmlns:svg="http://www.w3.org/2000/svg"
   xmlns="http://www.w3.org/2000/svg"
   xmlns:sodipodi="http://sodipodi.sourceforge.net/DTD/sodipodi-0.dtd"
   xmlns:inkscape="http://www.inkscape.org/namespaces/inkscape"
   width="556pt"
   height="370pt"
   viewBox="0 0 556 370"
   version="1.1"
   id="svg3033"
   inkscape:version="0.48.3.1 r9886"
   sodipodi:docname="news_27473_big2.svg">
  <metadata
     id="metadata3051">
    <rdf:RDF>
      <cc:Work
         rdf:about="">
        <dc:format>image/svg+xml</dc:format>
        <dc:type
           rdf:resource="http://purl.org/dc/dcmitype/StillImage" />
      </cc:Work>
    </rdf:RDF>
  </metadata>
  <defs
     id="defs3049" />
  <sodipodi:namedview
     pagecolor="#ffffff"
     bordercolor="#666666"
     borderopacity="1"
     objecttolerance="10"
     gridtolerance="10"
     guidetolerance="10"
     inkscape:pageopacity="0"
     inkscape:pageshadow="2"
     inkscape:window-width="1600"
     inkscape:window-height="838"
     id="namedview3047"
     showgrid="false"
     inkscape:zoom="1.2892541"
     inkscape:cx="350.53052"
     inkscape:cy="227.28924"
     inkscape:window-x="-8"
     inkscape:window-y="-8"
     inkscape:window-maximized="1"
     inkscape:current-layer="svg3033" />
  <path
     fill="#fbcb07"
     d=" M 117.99 53.10 C 133.26 49.93 148.61 54.50 163.93 54.80 C 176.55 56.57 189.33 57.36 202.01 58.85 C 213.27 60.07 224.58 61.06 235.85 62.27 C 239.80 62.70 243.78 62.58 247.74 62.44 C 245.87 62.70 244.00 62.94 242.13 63.20 C 249.11 63.33 256.01 64.34 262.97 64.82 C 269.92 66.09 277.06 65.87 284.00 67.22 C 290.35 67.53 296.66 68.31 302.99 68.85 C 310.25 69.89 317.59 70.48 324.92 70.80 C 331.65 72.06 338.51 72.59 345.35 72.68 C 344.43 72.90 343.51 73.12 342.60 73.35 C 349.41 73.35 356.19 74.15 362.95 74.96 C 382.96 76.97 402.97 78.88 422.99 80.84 C 429.61 81.81 436.30 82.17 442.96 82.83 C 449.58 83.91 456.33 84.00 462.99 84.88 C 480.34 87.10 497.90 87.69 515.16 90.63 C 518.72 92.51 522.77 94.04 525.20 97.45 C 528.45 101.34 530.55 105.98 532.21 110.74 C 532.52 111.84 532.86 112.94 533.21 114.03 C 533.55 118.68 533.75 123.34 533.68 128.01 C 533.71 133.11 532.03 137.99 531.12 142.96 C 528.06 154.22 525.76 165.67 522.82 176.96 C 521.47 183.71 519.49 190.31 518.14 197.06 C 517.68 198.70 517.24 200.34 516.79 201.98 C 513.90 215.42 510.53 228.75 507.28 242.11 C 502.69 253.51 496.76 265.04 486.36 272.20 C 482.60 274.60 478.39 276.34 473.98 277.03 C 461.34 278.69 448.59 279.39 435.99 281.22 C 428.95 281.54 421.93 282.15 414.97 283.16 C 405.61 283.81 396.30 284.95 386.96 285.85 C 383.34 286.36 379.68 286.50 376.03 286.81 C 362.74 288.45 349.38 289.67 336.03 290.81 C 321.71 292.60 307.30 293.61 292.97 295.37 C 284.43 295.84 276.00 297.42 267.46 297.73 C 263.29 298.24 259.08 298.41 254.96 299.20 C 251.95 299.46 248.93 299.61 245.91 299.69 L 245.18 300.28 C 240.17 300.25 235.19 300.76 230.31 301.83 C 225.23 302.72 220.01 301.93 214.98 303.17 C 194.64 305.05 174.31 307.12 153.99 309.14 C 151.31 309.46 148.62 309.70 145.95 310.10 C 135.96 311.02 125.92 311.77 115.98 313.21 C 103.61 313.73 91.38 315.83 79.02 316.54 C 70.24 316.69 61.23 317.30 52.74 314.55 C 45.50 312.58 38.85 308.68 33.44 303.50 C 29.60 299.73 27.15 294.87 24.70 290.15 C 22.16 282.36 21.79 274.11 22.73 266.01 C 23.58 263.05 24.31 260.04 24.91 257.02 C 28.16 244.06 31.00 231.01 34.22 218.05 C 38.55 200.38 42.49 182.62 46.85 164.96 C 48.37 159.01 49.62 152.99 51.21 147.06 C 53.01 138.68 55.03 130.34 57.18 122.04 C 58.55 114.47 60.59 107.04 62.51 99.60 C 64.40 93.11 67.83 87.19 71.45 81.53 C 77.66 73.00 86.12 66.32 95.19 61.08 C 96.74 60.29 98.28 59.50 99.81 58.69 C 101.24 58.17 102.67 57.66 104.11 57.17 C 108.56 55.27 113.18 53.73 117.99 53.10 Z"
     id="path3037" />
  <path
     fill="#213678"
     d=" M 107.80 121.80 C 113.20 118.33 119.91 119.58 125.97 119.28 C 141.70 119.65 157.69 118.14 173.16 121.78 L 173.93 122.10 C 184.06 124.71 193.85 130.87 198.31 140.65 C 203.23 151.86 201.95 164.52 199.33 176.14 C 194.99 192.69 181.97 206.93 165.08 210.96 C 166.10 216.90 169.26 222.14 171.26 227.76 C 173.72 234.47 177.26 240.92 178.20 248.08 C 178.37 254.78 173.04 260.10 167.06 262.22 C 165.69 262.55 164.33 262.92 162.99 263.32 C 160.32 263.47 157.64 263.47 154.97 263.41 C 152.44 262.29 149.71 261.32 147.79 259.25 C 145.28 256.74 144.02 253.36 142.76 250.13 C 142.14 248.12 141.49 246.11 140.84 244.11 C 140.16 242.11 139.48 240.11 138.76 238.13 C 138.63 237.58 138.37 236.50 138.23 235.95 C 136.41 230.67 134.41 225.44 133.02 220.03 C 132.64 219.69 131.88 219.01 131.50 218.68 C 125.60 218.95 119.61 218.09 113.79 219.36 C 112.06 227.30 109.93 235.14 108.16 243.07 C 106.44 249.12 105.74 255.74 101.90 260.95 C 99.39 264.37 95.28 266.61 91.00 266.59 C 86.42 266.65 81.45 267.11 77.32 264.75 C 75.05 263.60 73.90 261.21 72.55 259.19 C 71.46 251.22 74.31 243.62 75.89 235.94 C 84.12 202.01 91.96 167.98 100.16 134.05 C 101.38 129.35 103.42 124.37 107.80 121.80 Z"
     id="path3039" />
  <path
     fill="#213678"
     d=" M 238.67 121.74 C 243.21 118.82 248.86 119.36 254.01 119.27 C 260.86 119.47 267.75 118.96 274.58 119.65 C 278.68 120.06 281.80 123.42 282.77 127.29 C 284.20 132.90 284.29 138.75 284.72 144.50 C 287.04 165.64 288.07 186.89 290.70 207.99 C 304.03 182.06 318.19 156.54 331.77 130.72 C 334.51 125.21 339.22 119.69 345.87 119.50 C 354.53 119.12 363.22 119.26 371.89 119.38 C 376.16 119.38 381.40 121.25 382.26 125.99 C 383.27 131.36 381.89 136.77 381.13 142.08 C 376.06 173.74 371.21 205.44 366.13 237.10 C 365.32 242.76 362.69 248.69 357.44 251.51 C 350.81 255.08 342.38 255.05 335.91 251.11 C 333.33 247.22 331.99 242.47 332.85 237.82 C 335.91 217.15 339.74 196.59 342.84 175.92 C 343.48 172.64 343.66 169.28 344.54 166.05 C 332.72 188.35 320.69 210.55 308.81 232.82 C 305.03 239.25 302.31 246.56 296.65 251.67 C 291.46 256.62 283.78 257.25 276.97 257.34 C 272.36 256.80 266.56 256.75 263.74 252.39 C 260.18 246.78 260.50 239.91 259.68 233.57 C 258.24 221.40 257.32 209.17 255.83 197.00 C 255.11 187.76 253.62 178.60 253.25 169.33 C 252.45 169.35 251.66 169.38 250.87 169.41 C 244.98 191.75 238.29 213.87 232.14 236.14 L 231.83 236.87 C 229.77 243.68 228.81 251.37 223.77 256.77 C 219.04 261.45 211.82 261.08 205.73 260.25 C 201.86 259.32 197.47 256.46 197.36 252.07 C 196.97 248.26 197.46 244.41 198.61 240.77 C 200.77 233.55 203.10 226.38 205.20 219.14 C 206.48 214.78 207.80 210.44 209.18 206.12 C 212.29 195.36 215.82 184.72 218.85 173.93 C 219.18 172.92 219.50 171.92 219.82 170.92 C 223.52 159.05 227.07 147.13 230.64 135.22 C 232.29 130.27 234.11 124.77 238.67 121.74 Z"
     id="path3041" />
  <path
     fill="#213678"
     d=" M 438.46 121.79 C 453.09 118.25 468.27 119.50 483.17 119.38 C 488.49 118.98 494.33 121.89 495.59 127.41 C 496.09 132.03 496.13 137.24 493.05 141.05 C 491.21 143.79 488.15 145.17 485.21 146.39 C 475.80 146.91 466.38 146.47 456.97 146.76 C 452.73 147.57 448.24 148.03 444.58 150.53 C 439.28 153.54 436.70 159.40 434.71 164.87 C 433.30 170.43 431.59 175.94 430.99 181.66 C 441.34 181.76 451.68 181.63 462.03 181.70 C 465.94 181.86 470.53 182.60 472.90 186.11 C 475.30 189.21 474.83 193.40 474.52 197.06 C 473.73 203.65 467.30 208.37 460.90 208.48 C 448.72 208.65 436.54 208.58 424.36 208.52 C 421.96 216.94 420.15 225.52 418.20 234.06 C 416.63 239.26 415.18 245.11 410.60 248.54 C 405.68 251.95 399.15 252.25 393.52 250.67 C 390.15 249.77 386.64 247.74 385.70 244.14 C 384.51 238.19 385.85 232.15 387.43 226.41 C 389.84 215.90 392.65 205.47 394.84 194.90 L 395.20 194.19 C 396.87 186.55 398.86 178.98 400.65 171.36 C 403.34 160.36 406.38 149.18 412.53 139.54 C 418.33 130.43 428.02 124.21 438.46 121.79 Z"
     id="path3043" />
  <path
     fill="#fbcb07"
     d=" M 130.79 146.52 C 131.88 146.26 132.97 146.00 134.07 145.75 C 136.38 145.76 138.70 145.78 141.01 145.83 C 148.42 146.49 157.00 146.68 162.48 152.50 C 167.28 157.53 167.06 165.04 165.80 171.40 C 164.53 178.58 160.24 185.38 153.64 188.73 C 143.36 194.18 131.35 193.69 120.07 193.51 C 123.05 177.72 127.59 162.26 130.79 146.52 Z"
     id="path3045" />
</svg>
