<?xml version="1.0" encoding="UTF-8"?>
<!-- Generator: Adobe Illustrator 16.0.0, SVG Export Plug-In . SVG Version: 6.00 Build 0)  -->
<!DOCTYPE svg PUBLIC "-//W3C//DTD SVG 1.1//EN" "http://www.w3.org/Graphics/SVG/1.1/DTD/svg11.dtd">
<svg version="1.1" id="Layer_1" xmlns="http://www.w3.org/2000/svg" xmlns:xlink="http://www.w3.org/1999/xlink" x="0px" y="0px" width="178px" height="36.179px" viewBox="0 0 178 36.179" enable-background="new 0 0 178 36.179" xml:space="preserve">
<g>
	<g>
		<path fill="#E83B5C" d="M169.099,0.06h-1.803c-0.198,0-0.398,0-0.604,0h-5.135h-34.611c-0.006,0-0.263,0-0.263,0h-5.367h-19.098    C102.108,0.029,102,0,102,0v0.06H91.503H85v4.703v0.654v3.854v8.582v0.654v8.749v8.803h1.241c0.024,0,0.048,0,0.069,0H93h9.441    h2.554h3.335h59.4h1.368H178v-9.152V12.435V8.922C178,3.944,174.129,0.06,169.099,0.06z"/>
		<path fill="#00679F" d="M85,18.508v-0.654V9.271V5.417V4.763V0.06h-4h-5.441h-2.554H69.67h-59.4H8.901H0v9.212v14.473v3.513    c0,4.978,3.871,8.803,8.901,8.803h66.657c0.01,0,0.441,0.12,0.441,0.119V36.06h5h4v-8.803V18.508z"/>
	</g>
	<g>
		<path fill="#FFFFFF" d="M68.253,9.06H68.9c0.979,0,2.1,0.962,2.1,1.95V26.36c0,0.988-1.12,1.699-2.1,1.699h-0.647    C67.254,28.06,66,27.349,66,26.36V11.01C66,10.021,67.254,9.06,68.253,9.06L68.253,9.06z"/>
		<polygon fill="#FFFFFF" points="60,7.06 64,7.06 64,11.06 60,11.06 60,7.06   "/>
		<polygon fill="#FFFFFF" points="77,7.06 73,7.06 73,11.06 77,11.06 77,7.06   "/>
		<path fill="#FFFFFF" d="M25,13.06v-2.178c0-0.678-1.117-1.822-1.969-1.822H11.528c-0.851,0-1.528,1.108-1.528,2.06v1.445    c2,1.665,2.798,3.313,4.241,4.978c0.167,0.219,0.182,0.53,0.034,0.786L10,24.513v2.086c0,0.513,0.732,1.461,1.361,1.461h11.67    c0.63,0,1.969-0.839,1.969-1.461V24.06h-9.274c-0.462,0-0.666-0.359-0.425-0.707l3.884-5.027l-3.995-4.728    c-0.277-0.385-0.019-0.538,0.647-0.538H25L25,13.06z"/>
		<path fill="#FFFFFF" d="M32,9.06h-2.402C28.913,9.06,28,10.112,28,11.027V26.36c0,0.878,0.543,1.699,1.523,1.699H32v-8.505    c0-0.604,0.574-0.897,1.018-0.312c2.035,2.726,4.098,5.396,6.133,8.123c0.313,0.348,0.693,0.693,1.341,0.693h5.53    c2.035,0,2.275-1.259,2.646-2.21c0.277-0.732,0.518-1.79,1.608-1.79h5.752c1.295,0,1.591,0.967,1.813,1.79    c0.277,1.061,1.035,2.21,2.183,2.21h2.996l-6.991-19h-5.326L44.561,25.44c-0.518,1.189-0.573,1.284-1.535,0.039l-5.42-7.061    c-0.277-0.402-0.313-0.673-0.018-1.058l6.973-8.302h-3.885c-0.48,0-1.035,0.243-1.294,0.554c-2.071,2.58-4.163,5.199-6.216,7.798    C32.74,17.978,32,18.292,32,17.45V9.06L32,9.06z M52.68,14.175c0.333-0.842,0.777-0.805,1.092,0    c0.61,1.849,1.221,3.543,1.831,5.409c0.185,0.495,0.869,1.476,0,1.476h-4.791c-0.703,0-0.185-0.963,0-1.476    C51.422,17.718,52.051,16.023,52.68,14.175L52.68,14.175z"/>
	</g>
</g>
<g>
	<path fill="#FFFFFF" stroke="#FFFFFF" stroke-miterlimit="10" d="M100.931,7.554v22.475h-3.396v-19.48H92.78l1.42-2.994H100.931z"/>
	<path fill="#FFFFFF" stroke="#FFFFFF" stroke-miterlimit="10" d="M120.504,19.224c0,3.19-0.566,5.763-1.698,7.718   c-1.42,2.47-3.602,3.704-6.544,3.704c-3.025,0-5.238-1.255-6.638-3.766c-1.111-1.977-1.667-4.601-1.667-7.873   c0-3.313,0.556-5.988,1.667-8.026c1.44-2.613,3.663-3.921,6.668-3.921c3.025,0,5.237,1.358,6.638,4.075   C119.979,13.173,120.504,15.869,120.504,19.224z M116.8,18.977c0-5.804-1.493-8.706-4.477-8.706c-3.087,0-4.631,2.923-4.631,8.768   c0,5.599,1.492,8.397,4.477,8.397C115.256,27.436,116.8,24.616,116.8,18.977z"/>
	<path fill="#FFFFFF" stroke="#FFFFFF" stroke-miterlimit="10" d="M139.878,19.224c0,3.19-0.566,5.763-1.698,7.718   c-1.42,2.47-3.602,3.704-6.544,3.704c-3.025,0-5.238-1.255-6.638-3.766c-1.111-1.977-1.667-4.601-1.667-7.873   c0-3.313,0.556-5.988,1.667-8.026c1.44-2.613,3.663-3.921,6.668-3.921c3.025,0,5.237,1.358,6.638,4.075   C139.354,13.173,139.878,15.869,139.878,19.224z M136.174,18.977c0-5.804-1.493-8.706-4.477-8.706   c-3.087,0-4.631,2.923-4.631,8.768c0,5.599,1.492,8.397,4.477,8.397C134.63,27.436,136.174,24.616,136.174,18.977z"/>
	<path fill="#FFFFFF" stroke="#FFFFFF" stroke-miterlimit="10" d="M141.694,28.723c0-0.505,0.184-0.965,0.552-1.378   c0.366-0.413,0.872-0.619,1.515-0.619c0.436,0,0.803,0.086,1.102,0.258c0.298,0.172,0.539,0.391,0.723,0.654   c0.184,0.265,0.315,0.563,0.396,0.896c0.08,0.333,0.12,0.648,0.12,0.946c0,0.644-0.104,1.257-0.31,1.843   c-0.207,0.585-0.477,1.118-0.81,1.601s-0.717,0.912-1.153,1.291c-0.436,0.379-0.884,0.672-1.343,0.878l-1.032-1.343   c0.527-0.391,0.952-0.821,1.273-1.291c0.321-0.471,0.505-1.05,0.551-1.738c-0.481-0.047-0.866-0.259-1.153-0.638   S141.694,29.251,141.694,28.723z"/>
	<path fill="#FFFFFF" stroke="#FFFFFF" stroke-miterlimit="10" d="M164.428,23.978c0,2.202-0.803,3.89-2.408,5.063   c-1.399,1.07-3.252,1.605-5.557,1.605c-2.161,0-3.91-0.576-5.248-1.729c-1.481-1.275-2.223-2.964-2.223-5.063h3.581   c0,2.47,1.338,3.704,4.013,3.704c2.943,0,4.415-1.358,4.415-4.075c0-2.572-1.564-3.858-4.692-3.858c-0.412,0-0.648,0.01-0.71,0.03   V16.6c0.309,0.021,0.55,0.03,0.726,0.03c0.175,0,0.293,0,0.354,0c2.49,0,3.735-1.121,3.735-3.365c0-1.028-0.319-1.821-0.957-2.377   s-1.472-0.833-2.5-0.833c-2.429,0-3.643,1.04-3.643,3.119h-3.334c0-2.079,0.679-3.638,2.037-4.677   c1.255-0.957,2.933-1.436,5.032-1.436c2.017,0,3.652,0.505,4.908,1.513c1.297,1.091,1.945,2.635,1.945,4.631   c0,0.7-0.083,1.323-0.247,1.868c-0.165,0.545-0.401,1.045-0.71,1.497c-0.659,0.968-1.647,1.544-2.964,1.729   C162.946,18.853,164.428,20.747,164.428,23.978z"/>
</g>
</svg>